<svg id="Layer_1" data-name="Layer 1" xmlns="http://www.w3.org/2000/svg" viewBox="0 0 94.16 66.06"><defs><style>.cls-1{fill:#fff;}</style></defs><title>3drotate</title><path d="M19.58,51.22l26,14.52a2.57,2.57,0,0,0,1.24.32A2.64,2.64,0,0,0,48,65.74L74,51.22A2.54,2.54,0,0,0,75.29,49V16.48c0-.1,0-.2,0-.3s0-.22,0-.33a2.55,2.55,0,0,0-1.39-2.22L48,.28a2.58,2.58,0,0,0-2.33,0l-26,13.35a2.52,2.52,0,0,0-1.38,2.22,1.24,1.24,0,0,0,0,.33,1.54,1.54,0,0,0,0,.3V49A2.54,2.54,0,0,0,19.58,51.22Zm3.8-30.39L44.23,32.5V59.16L23.38,47.49Zm46.8,26.66L49.33,59.16V32.5L70.18,20.83ZM46.78,5.42,67.34,16,46.78,27.49,26.22,16Z"/><path d="M67.49,46.65a2.46,2.46,0,0,1-2.43-1.83,2.15,2.15,0,0,1,.31-1.67A2.49,2.49,0,0,1,67,42.09c13.08-2.47,21.86-7.28,21.86-12,0-2.72-3-5.55-8.36-8a2.35,2.35,0,0,1-1.28-1.38A2.16,2.16,0,0,1,79.36,19a2.6,2.6,0,0,1,3.3-1C90,21.28,93.81,25.47,93.81,30.11c0,7.27-9.66,13.44-25.83,16.49A2,2,0,0,1,67.49,46.65Z"/><path class="cls-1" d="M81.58,18.11a2.27,2.27,0,0,1,.94.2c7.15,3.23,10.94,7.31,10.94,11.8,0,7.09-9.55,13.13-25.54,16.15a3.28,3.28,0,0,1-.43,0,2.09,2.09,0,0,1-2.08-1.56,2,2,0,0,1,1.65-2.3C80.3,39.94,89.2,35,89.2,30.11c0-2.86-3-5.81-8.56-8.3a1.88,1.88,0,0,1-1-2.61,2.15,2.15,0,0,1,1.91-1.09m0-.71A2.86,2.86,0,0,0,79,18.86a2.52,2.52,0,0,0-.16,2,2.69,2.69,0,0,0,1.47,1.58c5.18,2.34,8.14,5.13,8.14,7.66,0,4.45-8.86,9.23-21.56,11.63A2.89,2.89,0,0,0,65.07,43a2.53,2.53,0,0,0-.36,1.95A2.81,2.81,0,0,0,67.49,47a2.59,2.59,0,0,0,.56,0c16.35-3.08,26.11-9.38,26.11-16.84,0-4.79-3.92-9.1-11.35-12.45a3.05,3.05,0,0,0-1.23-.26Z"/><path d="M54.05,54.78a2.63,2.63,0,0,1-1.56-.52,2.24,2.24,0,0,1-.91-1.58A2.16,2.16,0,0,1,52.15,51l2.49-2.78c-2.53.16-5.07.23-7.56.23C20.88,48.45.35,40.4.35,30.11c0-4.73,4-9,11.52-12.29a2.76,2.76,0,0,1,1.06-.22,2.51,2.51,0,0,1,2.23,1.3,2.11,2.11,0,0,1,.13,1.72A2.35,2.35,0,0,1,14,22c-5.6,2.46-8.68,5.34-8.68,8.12,0,6.5,17.15,13.74,41.76,13.74,2.21,0,4.53-.08,7-.23l-3-2.26a2.26,2.26,0,0,1-.9-1.59,2.19,2.19,0,0,1,.56-1.68,2.64,2.64,0,0,1,3.47-.31L62,43.61a2.2,2.2,0,0,1,.91,1.58,2.16,2.16,0,0,1-.57,1.68L56,54A2.6,2.6,0,0,1,54.05,54.78Z"/><path class="cls-1" d="M12.93,18a2.15,2.15,0,0,1,1.92,1.11,1.88,1.88,0,0,1-1,2.6C8.12,24.18,5,27.18,5,30.11,5,36.77,22.26,44.2,47.08,44.2c2.7,0,5.38-.11,8-.29l-3.76-2.84a1.83,1.83,0,0,1-.29-2.74,2.2,2.2,0,0,1,1.64-.71,2.29,2.29,0,0,1,1.35.44l7.72,5.83a1.83,1.83,0,0,1,.29,2.74l-6.36,7.08a2.18,2.18,0,0,1-1.64.71A2.25,2.25,0,0,1,52.7,54a1.86,1.86,0,0,1-.29-2.75l3.07-3.42c-2.75.19-5.57.29-8.4.29-26,0-46.37-7.9-46.37-18,0-4.58,3.91-8.71,11.3-12a2.31,2.31,0,0,1,.92-.2m0-.7h0a2.9,2.9,0,0,0-1.2.25C4.06,20.87,0,25.23,0,30.11c0,5.19,4.93,10,13.89,13.44,8.74,3.39,20.53,5.26,33.19,5.26,2.22,0,4.47-.06,6.72-.19l-1.92,2.14a2.53,2.53,0,0,0-.65,2,2.58,2.58,0,0,0,1,1.83,3,3,0,0,0,1.78.59,2.91,2.91,0,0,0,2.17-.94l6.36-7.08a2.54,2.54,0,0,0,.65-2,2.62,2.62,0,0,0-1-1.83L54.47,37.5a3,3,0,0,0-1.78-.59,3,3,0,0,0-2.17.94,2.55,2.55,0,0,0-.65,2,2.62,2.62,0,0,0,1,1.83l2.23,1.68c-2.14.12-4.14.17-6.06.17-25.66,0-41.41-7.79-41.41-13.38,0-2.59,3.09-5.43,8.47-7.8a2.77,2.77,0,0,0,1.49-1.57,2.52,2.52,0,0,0-.15-2,2.85,2.85,0,0,0-2.55-1.48Z"/></svg>