<svg xmlns="http://www.w3.org/2000/svg" width="450" height="180" viewBox="0 0 450 180"><defs><style>.cls-1,.cls-2{fill:none;stroke-linecap:round;stroke-linejoin:round;}.cls-1,.cls-2,.cls-4,.cls-5{stroke:#000;}.cls-1{stroke-width:0.28px;}.cls-2{stroke-width:0.99px;}.cls-3,.cls-5{fill:#fff;}.cls-4,.cls-5{stroke-miterlimit:10;stroke-width:0.57px;}</style></defs><title>diagrams</title><g id="Layer_1" data-name="Layer 1"><path d="M41.49,121.26h5.2v1.13H40.05V111.72h1.44Z"/><path d="M53,122.39c0-.24-.09-.46-.12-.64s0-.37-.05-.55a3.25,3.25,0,0,1-1,1,2.71,2.71,0,0,1-1.39.38,2.6,2.6,0,0,1-1.89-.63,2.36,2.36,0,0,1-.65-1.75,2.06,2.06,0,0,1,.92-1.78,4.39,4.39,0,0,1,2.5-.64H52.8V117a1.45,1.45,0,0,0-.42-1.1,1.66,1.66,0,0,0-1.2-.41,1.78,1.78,0,0,0-1.14.35,1.09,1.09,0,0,0-.43.84l-1.37,0v0A1.87,1.87,0,0,1,49,115a3.33,3.33,0,0,1,2.22-.72,3.26,3.26,0,0,1,2.17.69,2.44,2.44,0,0,1,.82,2v3.82a7.27,7.27,0,0,0,0,.82,4.32,4.32,0,0,0,.16.78Zm-2.4-1.06a2.55,2.55,0,0,0,1.41-.4,1.91,1.91,0,0,0,.82-.92v-1.29H51.19a2.06,2.06,0,0,0-1.4.44,1.29,1.29,0,0,0-.52,1,1.07,1.07,0,0,0,.33.83A1.35,1.35,0,0,0,50.57,121.33Z"/><path d="M60.09,115.74l-.74,0a1.65,1.65,0,0,0-1,.27,1.76,1.76,0,0,0-.6.76v5.67H56.34v-7.93h1.29l.14,1.16a2.81,2.81,0,0,1,.83-1,2,2,0,0,1,1.14-.35,1.55,1.55,0,0,1,.31,0l.24,0Z"/><path d="M61.2,118.57a5.32,5.32,0,0,1,.81-3.08,2.63,2.63,0,0,1,2.29-1.18,2.8,2.8,0,0,1,1.32.31,2.65,2.65,0,0,1,1,.87l.18-1h1.15v8a3,3,0,0,1-.89,2.34,3.66,3.66,0,0,1-2.56.82,5.62,5.62,0,0,1-1.23-.16,5.18,5.18,0,0,1-1.17-.43l.22-1.12a4.56,4.56,0,0,0,1,.36,5.16,5.16,0,0,0,1.16.13,2.09,2.09,0,0,0,1.53-.48,2,2,0,0,0,.48-1.46v-.9a2.42,2.42,0,0,1-.93.75,2.88,2.88,0,0,1-1.25.26A2.72,2.72,0,0,1,62,121.49a4.41,4.41,0,0,1-.81-2.77Zm1.44.15a3.33,3.33,0,0,0,.49,1.92,1.69,1.69,0,0,0,1.52.73,1.89,1.89,0,0,0,1.09-.3,2.3,2.3,0,0,0,.72-.84v-3.64a2.18,2.18,0,0,0-.72-.81,2,2,0,0,0-1.08-.29,1.62,1.62,0,0,0-1.52.85,4.44,4.44,0,0,0-.5,2.23Z"/><path d="M73.26,122.54a3.34,3.34,0,0,1-2.66-1.09,4.2,4.2,0,0,1-1-2.87v-.32a4.12,4.12,0,0,1,1-2.83,3.1,3.1,0,0,1,2.4-1.12,2.89,2.89,0,0,1,2.39,1,4.08,4.08,0,0,1,.79,2.63v.76H71.14l0,0a3.3,3.3,0,0,0,.53,1.94,1.85,1.85,0,0,0,1.61.74,3.63,3.63,0,0,0,1.29-.21,3,3,0,0,0,1-.57l.56.94a3.57,3.57,0,0,1-1.12.69A4.65,4.65,0,0,1,73.26,122.54ZM73,115.45a1.55,1.55,0,0,0-1.24.58,2.75,2.75,0,0,0-.61,1.49l0,0h3.57v-.12a2.35,2.35,0,0,0-.42-1.43A1.56,1.56,0,0,0,73,115.45Z"/><path d="M89.62,111.72v7.08a3.44,3.44,0,0,1-1.14,2.75,4.32,4.32,0,0,1-2.94,1,4.12,4.12,0,0,1-2.85-1,3.53,3.53,0,0,1-1.1-2.75v-7.08H83v7.08a2.56,2.56,0,0,0,.7,1.92,2.47,2.47,0,0,0,1.81.69,2.66,2.66,0,0,0,1.9-.69,2.47,2.47,0,0,0,.74-1.92v-7.08Z"/><path d="M93,114.46l.1,1.18a2.92,2.92,0,0,1,1-1,2.64,2.64,0,0,1,1.35-.35,2.56,2.56,0,0,1,2,.76,3.27,3.27,0,0,1,.7,2.31v5H96.7v-5a2.09,2.09,0,0,0-.42-1.48,1.61,1.61,0,0,0-1.26-.44,2.33,2.33,0,0,0-1.13.26,2,2,0,0,0-.74.75v5.89H91.71v-7.93Z"/><path d="M101.8,112.43h-1.45V111h1.45Zm0,10h-1.45v-7.93h1.45Z"/><path d="M106,112.55v1.91h1.5v1.07H106v4.81a1.13,1.13,0,0,0,.23.79.85.85,0,0,0,.61.22l.28,0,.26-.07.2,1a1.19,1.19,0,0,1-.48.21,2.27,2.27,0,0,1-.62.09,1.88,1.88,0,0,1-1.4-.53,2.31,2.31,0,0,1-.52-1.67v-4.81h-1.26v-1.07h1.26v-1.91Z"/><path d="M113.68,120.25a.94.94,0,0,0-.37-.77,3.47,3.47,0,0,0-1.37-.53,5.8,5.8,0,0,1-2.15-.84,1.71,1.71,0,0,1-.75-1.45,2.09,2.09,0,0,1,.82-1.66,3.24,3.24,0,0,1,2.14-.69,3.16,3.16,0,0,1,2.18.74,2.08,2.08,0,0,1,.8,1.7v0h-1.38a1.25,1.25,0,0,0-.45-.93,1.61,1.61,0,0,0-1.14-.42,1.64,1.64,0,0,0-1.14.34,1.09,1.09,0,0,0-.38.82.86.86,0,0,0,.33.73,3.57,3.57,0,0,0,1.34.47,5.53,5.53,0,0,1,2.21.87,1.75,1.75,0,0,1,.76,1.47,2.1,2.1,0,0,1-.85,1.72,4.07,4.07,0,0,1-4.62-.1,2.19,2.19,0,0,1-.83-1.79v0h1.38a1.38,1.38,0,0,0,.57,1.13,2.29,2.29,0,0,0,1.26.35,2,2,0,0,0,1.2-.32A1,1,0,0,0,113.68,120.25Z"/><path d="M42.69,134.32a1.71,1.71,0,0,0,1.37-.48,2.08,2.08,0,0,0,.4-1.34,1.89,1.89,0,0,0-.44-1.3,1.63,1.63,0,0,0-1.29-.5,1.89,1.89,0,0,0-1.38.52,1.67,1.67,0,0,0-.55,1.29H39.42l0,0a2.55,2.55,0,0,1,.91-2.05,3.47,3.47,0,0,1,2.42-.85,3.4,3.4,0,0,1,2.33.75,2.81,2.81,0,0,1,.84,2.21,2.5,2.5,0,0,1-.39,1.36,2.71,2.71,0,0,1-1.1,1,2.47,2.47,0,0,1,1.23,1,2.84,2.84,0,0,1,.42,1.58,2.93,2.93,0,0,1-.93,2.3,3.48,3.48,0,0,1-2.4.83,3.83,3.83,0,0,1-2.4-.8,2.45,2.45,0,0,1-1-2.12v-.05h1.38a1.74,1.74,0,0,0,.56,1.31,2,2,0,0,0,1.45.53,1.81,1.81,0,0,0,1.38-.54,2,2,0,0,0,.51-1.43,2.12,2.12,0,0,0-.47-1.5,1.92,1.92,0,0,0-1.46-.5H41.5v-1.12Z"/><path d="M51.87,140.39V129.72h3.35a4.39,4.39,0,0,1,4.63,4.61v1.46a4.49,4.49,0,0,1-1.27,3.32,4.55,4.55,0,0,1-3.36,1.28Zm1.44-9.53v8.4h1.91a2.92,2.92,0,0,0,2.33-1,3.64,3.64,0,0,0,.86-2.49v-1.48a3.63,3.63,0,0,0-.86-2.48,2.91,2.91,0,0,0-2.33-1Z"/><path d="M63.86,137.5l.18,1h0l.19-1,1.59-5H67l1.59,5,.21,1.14h0l.24-1.14,1.17-5h1.51l-2.3,7.93H68.3l-1.56-4.83-.3-1.26h0l-.28,1.26-1.54,4.83H63.41l-2.3-7.93h1.5Z"/><path d="M76.46,140.54a3.34,3.34,0,0,1-2.66-1.09,4.2,4.2,0,0,1-1-2.87v-.32a4.12,4.12,0,0,1,1-2.83,3.11,3.11,0,0,1,2.4-1.12,2.89,2.89,0,0,1,2.39,1,4.08,4.08,0,0,1,.79,2.63v.76H74.35l0,0a3.3,3.3,0,0,0,.53,1.94,1.85,1.85,0,0,0,1.61.74,3.63,3.63,0,0,0,1.29-.21,3,3,0,0,0,1-.57l.56.94a3.57,3.57,0,0,1-1.12.69A4.61,4.61,0,0,1,76.46,140.54Zm-.23-7.09A1.55,1.55,0,0,0,75,134a2.83,2.83,0,0,0-.61,1.49l0,0H78v-.12a2.35,2.35,0,0,0-.42-1.43A1.56,1.56,0,0,0,76.23,133.45Z"/><path d="M82.59,140.39H81.15V129h1.44Z"/><path d="M86.37,140.39H84.93V129h1.44Z"/><path d="M90.15,130.43H88.71V129h1.44Zm0,10H88.71v-7.93h1.44Z"/><path d="M93.66,132.46l.1,1.18a3,3,0,0,1,1-1,2.67,2.67,0,0,1,1.36-.35,2.56,2.56,0,0,1,2,.76,3.27,3.27,0,0,1,.7,2.31v5H97.36v-5a2.09,2.09,0,0,0-.42-1.48,1.61,1.61,0,0,0-1.26-.44,2.33,2.33,0,0,0-1.13.26,2,2,0,0,0-.74.75v5.89H92.37v-7.93Z"/><path d="M100.64,136.57a5.24,5.24,0,0,1,.82-3.08,2.6,2.6,0,0,1,2.28-1.18,2.8,2.8,0,0,1,1.32.31,2.65,2.65,0,0,1,1,.87l.18-1h1.15v8a3,3,0,0,1-.89,2.34,3.65,3.65,0,0,1-2.55.82,5.63,5.63,0,0,1-1.24-.16,5.18,5.18,0,0,1-1.17-.43l.22-1.12a4.56,4.56,0,0,0,1,.36,5.16,5.16,0,0,0,1.16.13,2.12,2.12,0,0,0,1.54-.48,2,2,0,0,0,.48-1.46v-.9a2.57,2.57,0,0,1-.93.75,3,3,0,0,1-1.26.26,2.7,2.7,0,0,1-2.26-1,4.35,4.35,0,0,1-.82-2.77Zm1.44.15a3.41,3.41,0,0,0,.49,1.92,1.71,1.71,0,0,0,1.52.73,1.89,1.89,0,0,0,1.09-.3,2.42,2.42,0,0,0,.73-.84v-3.64a2.29,2.29,0,0,0-.73-.81,2,2,0,0,0-1.08-.29,1.64,1.64,0,0,0-1.52.85,4.44,4.44,0,0,0-.5,2.23Z"/><path d="M114,138.25a1,1,0,0,0-.36-.77,3.53,3.53,0,0,0-1.38-.53,5.8,5.8,0,0,1-2.15-.84,1.71,1.71,0,0,1-.75-1.45,2.1,2.1,0,0,1,.83-1.66,3.21,3.21,0,0,1,2.13-.69,3.16,3.16,0,0,1,2.18.74,2.05,2.05,0,0,1,.8,1.7v.05h-1.38a1.25,1.25,0,0,0-.45-.93,1.61,1.61,0,0,0-1.14-.42,1.64,1.64,0,0,0-1.14.34,1.09,1.09,0,0,0-.38.82.86.86,0,0,0,.33.73,3.65,3.65,0,0,0,1.34.47,5.58,5.58,0,0,1,2.22.87,1.77,1.77,0,0,1,.75,1.47,2.08,2.08,0,0,1-.85,1.72,4.07,4.07,0,0,1-4.62-.1,2.19,2.19,0,0,1-.83-1.79l0,0h1.37a1.38,1.38,0,0,0,.57,1.13,2.29,2.29,0,0,0,1.26.35,2,2,0,0,0,1.2-.32A1,1,0,0,0,114,138.25Z"/><path d="M45,154.72a4.41,4.41,0,0,1-.82,2.77,2.72,2.72,0,0,1-2.27,1,3,3,0,0,1-1.28-.25,2.38,2.38,0,0,1-.94-.73v3.87H38.21v-11h1.11l.23,1a2.6,2.6,0,0,1,1-.88,2.92,2.92,0,0,1,1.35-.3,2.63,2.63,0,0,1,2.29,1.17,5.26,5.26,0,0,1,.82,3.09Zm-1.45-.15a4.15,4.15,0,0,0-.53-2.22,1.7,1.7,0,0,0-1.56-.86,1.91,1.91,0,0,0-1.06.28,2.11,2.11,0,0,0-.71.77v3.83a2.11,2.11,0,0,0,.71.77,2,2,0,0,0,1.07.27,1.78,1.78,0,0,0,1.56-.75,3.32,3.32,0,0,0,.52-1.94Z"/><path d="M50,158.54a3.34,3.34,0,0,1-2.66-1.09,4.2,4.2,0,0,1-1-2.87v-.32a4.12,4.12,0,0,1,1-2.83,3.1,3.1,0,0,1,2.4-1.12,2.89,2.89,0,0,1,2.39,1,4.08,4.08,0,0,1,.79,2.63v.76H47.9l0,0a3.3,3.3,0,0,0,.53,1.94,1.85,1.85,0,0,0,1.61.74,3.63,3.63,0,0,0,1.29-.21,3,3,0,0,0,.95-.57l.56.94a3.57,3.57,0,0,1-1.12.69A4.65,4.65,0,0,1,50,158.54Zm-.23-7.09a1.55,1.55,0,0,0-1.24.58,2.75,2.75,0,0,0-.61,1.49l0,0h3.57v-.12a2.35,2.35,0,0,0-.42-1.43A1.56,1.56,0,0,0,49.79,151.45Z"/><path d="M58.34,151.74l-.74-.05a1.65,1.65,0,0,0-1,.27,1.86,1.86,0,0,0-.61.76v5.67H54.59v-7.93h1.29l.14,1.16a2.71,2.71,0,0,1,.83-1,2,2,0,0,1,1.14-.35,1.55,1.55,0,0,1,.31,0l.24,0Z"/><path d="M63.77,158.39V147.72h3.48a4.22,4.22,0,0,1,2.61.72,2.57,2.57,0,0,1,1,2.17,1.9,1.9,0,0,1-.43,1.23,2.59,2.59,0,0,1-1.13.83,2.46,2.46,0,0,1,1.66.91,2.79,2.79,0,0,1,.62,1.8,2.69,2.69,0,0,1-1,2.23,3.92,3.92,0,0,1-2.57.78Zm1.44-6.13h2.34a1.9,1.9,0,0,0,1.31-.45,1.54,1.54,0,0,0,.5-1.23,1.57,1.57,0,0,0-.54-1.3,2.53,2.53,0,0,0-1.57-.42h-2Zm0,1.12v3.88H68a2.2,2.2,0,0,0,1.53-.49,1.76,1.76,0,0,0,.55-1.38,1.91,1.91,0,0,0-.56-1.43,2.22,2.22,0,0,0-1.5-.58H65.21Z"/><path d="M78.14,157.21a2.58,2.58,0,0,1-1,1,2.53,2.53,0,0,1-1.36.35,2.57,2.57,0,0,1-2-.83,3.86,3.86,0,0,1-.72-2.58v-4.67h1.44v4.69a3,3,0,0,0,.37,1.74,1.39,1.39,0,0,0,1.17.48,2.44,2.44,0,0,0,1.27-.31,2,2,0,0,0,.76-.89v-5.71h1.44v7.93h-1.3Z"/><path d="M83.19,148.43H81.75V147h1.44Zm0,10H81.75v-7.93h1.44Z"/><path d="M87,158.39H85.53V147H87Z"/><path d="M88.86,154.57a5.24,5.24,0,0,1,.82-3.08A2.62,2.62,0,0,1,92,150.31a2.85,2.85,0,0,1,1.23.26,2.46,2.46,0,0,1,.92.75V147h1.44v11.43h-1.1l-.22-1a2.65,2.65,0,0,1-1,.87,2.93,2.93,0,0,1-1.33.29,2.73,2.73,0,0,1-2.27-1,4.41,4.41,0,0,1-.82-2.77Zm1.44.15a3.37,3.37,0,0,0,.5,1.93,1.7,1.7,0,0,0,1.52.72,1.86,1.86,0,0,0,1.08-.3,2,2,0,0,0,.72-.82v-3.69a2.29,2.29,0,0,0-.72-.79,1.94,1.94,0,0,0-1.07-.28,1.64,1.64,0,0,0-1.53.85,4.44,4.44,0,0,0-.5,2.23Z"/><path d="M99.28,148.43H97.83V147h1.45Zm0,10H97.83v-7.93h1.45Z"/><path d="M102.79,150.46l.1,1.18a2.81,2.81,0,0,1,1-1,2.67,2.67,0,0,1,1.36-.35,2.56,2.56,0,0,1,2,.76,3.28,3.28,0,0,1,.71,2.31v5h-1.45v-5a2.1,2.1,0,0,0-.41-1.48,1.64,1.64,0,0,0-1.26-.44,2.28,2.28,0,0,0-1.13.26,1.91,1.91,0,0,0-.74.75v5.89H101.5v-7.93Z"/><path d="M109.77,154.57a5.32,5.32,0,0,1,.81-3.08,2.62,2.62,0,0,1,2.28-1.18,2.81,2.81,0,0,1,1.33.31,2.65,2.65,0,0,1,1,.87l.17-1h1.15v8a3,3,0,0,1-.88,2.34,3.66,3.66,0,0,1-2.56.82,5.62,5.62,0,0,1-1.23-.16,5.18,5.18,0,0,1-1.17-.43l.22-1.12a4.38,4.38,0,0,0,1,.36,5.16,5.16,0,0,0,1.16.13,2.09,2.09,0,0,0,1.53-.48,2,2,0,0,0,.48-1.46v-.9a2.57,2.57,0,0,1-.93.75,2.91,2.91,0,0,1-1.25.26,2.72,2.72,0,0,1-2.27-1,4.41,4.41,0,0,1-.81-2.77Zm1.44.15a3.33,3.33,0,0,0,.49,1.92,1.69,1.69,0,0,0,1.51.73,1.92,1.92,0,0,0,1.1-.3,2.3,2.3,0,0,0,.72-.84v-3.64a2.27,2.27,0,0,0-.72-.81,2,2,0,0,0-1.08-.29,1.64,1.64,0,0,0-1.53.85,4.44,4.44,0,0,0-.49,2.23Z"/><path d="M180.35,119.7a1.6,1.6,0,0,0-.52-1.22,4.35,4.35,0,0,0-1.83-.83,6.2,6.2,0,0,1-2.54-1.19,2.48,2.48,0,0,1-.91-2,2.66,2.66,0,0,1,1-2.09,3.85,3.85,0,0,1,2.55-.83,3.78,3.78,0,0,1,2.69,1,3,3,0,0,1,1,2.23l0,0h-1.37a1.93,1.93,0,0,0-.64-1.5,2.58,2.58,0,0,0-3.17-.11,1.66,1.66,0,0,0-.54,1.28,1.44,1.44,0,0,0,.59,1.16,5.58,5.58,0,0,0,1.92.82,5.28,5.28,0,0,1,2.45,1.23,2.67,2.67,0,0,1,.84,2,2.5,2.5,0,0,1-1,2.08,4.24,4.24,0,0,1-2.65.78,4.55,4.55,0,0,1-2.73-.86,2.62,2.62,0,0,1-1.14-2.32v0h1.38a1.79,1.79,0,0,0,.76,1.55,2.9,2.9,0,0,0,1.72.54,2.54,2.54,0,0,0,1.62-.46A1.5,1.5,0,0,0,180.35,119.7Z"/><path d="M185.65,112.55v1.91h1.5v1.07h-1.5v4.81a1.08,1.08,0,0,0,.23.79.82.82,0,0,0,.61.22l.28,0,.25-.07.2,1a1.14,1.14,0,0,1-.47.21,2.28,2.28,0,0,1-.63.09,1.9,1.9,0,0,1-1.4-.53,2.35,2.35,0,0,1-.52-1.67v-4.81h-1.26v-1.07h1.26v-1.91Z"/><path d="M193.56,122.39l-.11-.64a5.11,5.11,0,0,1,0-.55,3.47,3.47,0,0,1-1.05,1,2.74,2.74,0,0,1-1.39.38,2.6,2.6,0,0,1-1.89-.63,2.36,2.36,0,0,1-.65-1.75,2.06,2.06,0,0,1,.92-1.78,4.36,4.36,0,0,1,2.5-.64h1.56V117a1.45,1.45,0,0,0-.42-1.1,1.69,1.69,0,0,0-1.2-.41,1.78,1.78,0,0,0-1.14.35,1.06,1.06,0,0,0-.43.84l-1.37,0v0a1.89,1.89,0,0,1,.8-1.58,3.38,3.38,0,0,1,2.23-.72A3.26,3.26,0,0,1,194,115a2.44,2.44,0,0,1,.82,2v3.82a7.27,7.27,0,0,0,0,.82,4.32,4.32,0,0,0,.16.78Zm-2.39-1.06a2.55,2.55,0,0,0,1.41-.4,1.91,1.91,0,0,0,.82-.92v-1.29h-1.62a2.05,2.05,0,0,0-1.39.44,1.29,1.29,0,0,0-.52,1,1.1,1.1,0,0,0,.32.83A1.37,1.37,0,0,0,191.17,121.33Z"/><path d="M198.23,114.46l.1,1.18a3,3,0,0,1,1-1,2.7,2.7,0,0,1,1.36-.35,2.56,2.56,0,0,1,2,.76,3.27,3.27,0,0,1,.7,2.31v5h-1.44v-5a2.09,2.09,0,0,0-.42-1.48,1.61,1.61,0,0,0-1.26-.44,2.33,2.33,0,0,0-1.13.26,2,2,0,0,0-.74.75v5.89h-1.44v-7.93Z"/><path d="M205.14,118.57a5.32,5.32,0,0,1,.81-3.08,2.63,2.63,0,0,1,2.29-1.18,2.86,2.86,0,0,1,1.24.26,2.63,2.63,0,0,1,.92.75V111h1.44v11.43h-1.11l-.22-1a2.65,2.65,0,0,1-1,.87,2.92,2.92,0,0,1-1.32.29,2.71,2.71,0,0,1-2.27-1.05,4.35,4.35,0,0,1-.82-2.77Zm1.44.15a3.37,3.37,0,0,0,.49,1.93,1.71,1.71,0,0,0,1.52.72,1.91,1.91,0,0,0,1.09-.3,2.15,2.15,0,0,0,.72-.82v-3.69a2.31,2.31,0,0,0-.73-.79,1.91,1.91,0,0,0-1.06-.28,1.65,1.65,0,0,0-1.54.85,4.44,4.44,0,0,0-.49,2.23Z"/><path d="M218.86,122.39c-.05-.24-.09-.46-.11-.64a5.11,5.11,0,0,1-.05-.55,3.47,3.47,0,0,1-1,1,2.75,2.75,0,0,1-1.4.38,2.59,2.59,0,0,1-1.88-.63,2.36,2.36,0,0,1-.65-1.75,2.06,2.06,0,0,1,.92-1.78,4.33,4.33,0,0,1,2.49-.64h1.57V117a1.45,1.45,0,0,0-.42-1.1,1.7,1.7,0,0,0-1.21-.41,1.77,1.77,0,0,0-1.13.35,1.06,1.06,0,0,0-.43.84l-1.37,0,0,0a1.92,1.92,0,0,1,.81-1.58,3.38,3.38,0,0,1,2.23-.72,3.24,3.24,0,0,1,2.16.69,2.41,2.41,0,0,1,.82,2v3.82a7.22,7.22,0,0,0,.05.82,4.32,4.32,0,0,0,.16.78Zm-2.39-1.06a2.55,2.55,0,0,0,1.41-.4,2,2,0,0,0,.82-.92v-1.29h-1.62a2.05,2.05,0,0,0-1.39.44,1.3,1.3,0,0,0-.53,1,1.07,1.07,0,0,0,.33.83A1.37,1.37,0,0,0,216.47,121.33Z"/><path d="M226,115.74l-.74,0a1.65,1.65,0,0,0-1,.27,1.71,1.71,0,0,0-.61.76v5.67h-1.44v-7.93h1.29l.14,1.16a2.71,2.71,0,0,1,.83-1,2,2,0,0,1,1.14-.35,1.45,1.45,0,0,1,.3,0l.25,0Z"/><path d="M227,118.57a5.24,5.24,0,0,1,.82-3.08,2.62,2.62,0,0,1,2.29-1.18,2.85,2.85,0,0,1,1.23.26,2.46,2.46,0,0,1,.92.75V111h1.44v11.43h-1.1l-.22-1a2.65,2.65,0,0,1-1,.87,2.93,2.93,0,0,1-1.33.29,2.73,2.73,0,0,1-2.27-1.05,4.35,4.35,0,0,1-.82-2.77Zm1.44.15a3.37,3.37,0,0,0,.5,1.93,1.7,1.7,0,0,0,1.52.72,1.86,1.86,0,0,0,1.08-.3,2.07,2.07,0,0,0,.72-.82v-3.69a2.39,2.39,0,0,0-.72-.79,1.94,1.94,0,0,0-1.07-.28,1.64,1.64,0,0,0-1.53.85,4.44,4.44,0,0,0-.5,2.23Z"/><path d="M247.67,111.72v7.08a3.44,3.44,0,0,1-1.14,2.75,4.37,4.37,0,0,1-2.95,1,4.1,4.1,0,0,1-2.84-1,3.5,3.5,0,0,1-1.11-2.75v-7.08h1.45v7.08a2.56,2.56,0,0,0,.7,1.92,2.43,2.43,0,0,0,1.8.69,2.68,2.68,0,0,0,1.91-.69,2.51,2.51,0,0,0,.74-1.92v-7.08Z"/><path d="M251,114.46l.11,1.18a2.81,2.81,0,0,1,1-1,2.67,2.67,0,0,1,1.36-.35,2.56,2.56,0,0,1,2,.76,3.28,3.28,0,0,1,.71,2.31v5h-1.45v-5a2.1,2.1,0,0,0-.41-1.48,1.64,1.64,0,0,0-1.26-.44,2.34,2.34,0,0,0-1.14.26,2,2,0,0,0-.73.75v5.89h-1.44v-7.93Z"/><path d="M259.84,112.43H258.4V111h1.44Zm0,10H258.4v-7.93h1.44Z"/><path d="M264.07,112.55v1.91h1.5v1.07h-1.5v4.81a1.08,1.08,0,0,0,.23.79.83.83,0,0,0,.61.22l.28,0,.25-.07.2,1a1.14,1.14,0,0,1-.47.21,2.28,2.28,0,0,1-.63.09,1.9,1.9,0,0,1-1.4-.53,2.35,2.35,0,0,1-.52-1.67v-4.81h-1.26v-1.07h1.26v-1.91Z"/><path d="M271.72,120.25a1,1,0,0,0-.36-.77A3.47,3.47,0,0,0,270,119a5.86,5.86,0,0,1-2.16-.84,1.71,1.71,0,0,1-.75-1.45,2.1,2.1,0,0,1,.83-1.66,3.62,3.62,0,0,1,4.32,0,2.07,2.07,0,0,1,.79,1.7v0h-1.38a1.25,1.25,0,0,0-.45-.93,1.61,1.61,0,0,0-1.14-.42,1.67,1.67,0,0,0-1.14.34,1.08,1.08,0,0,0-.37.82.88.88,0,0,0,.32.73,3.64,3.64,0,0,0,1.35.47,5.53,5.53,0,0,1,2.21.87,1.77,1.77,0,0,1,.75,1.47,2.08,2.08,0,0,1-.85,1.72,4.07,4.07,0,0,1-4.62-.1,2.18,2.18,0,0,1-.82-1.79v0h1.38a1.33,1.33,0,0,0,.57,1.13,2.23,2.23,0,0,0,1.25.35,2.07,2.07,0,0,0,1.21-.32A1,1,0,0,0,271.72,120.25Z"/><path d="M189.48,129.57a6.43,6.43,0,0,1,1.24.12,4.24,4.24,0,0,1,1,.32l-.31,1.1a5,5,0,0,0-.88-.29,4.21,4.21,0,0,0-1.07-.12,1.94,1.94,0,0,0-1.63.86,3.55,3.55,0,0,0-.63,2.17v.83a3.24,3.24,0,0,1,1.06-.71,3.39,3.39,0,0,1,1.31-.25,2.71,2.71,0,0,1,2.18.92,3.52,3.52,0,0,1,.81,2.42,3.71,3.71,0,0,1-.9,2.62,3.14,3.14,0,0,1-2.42,1,3.18,3.18,0,0,1-2.48-1.12,4.51,4.51,0,0,1-1-3.08v-2.45a4.56,4.56,0,0,1,1.06-3.1A3.37,3.37,0,0,1,189.48,129.57Zm-.35,5.1A2.24,2.24,0,0,0,188,135a2,2,0,0,0-.75.78v.74a3.49,3.49,0,0,0,.59,2.14,1.75,1.75,0,0,0,1.45.79,1.62,1.62,0,0,0,1.39-.68,3.06,3.06,0,0,0,.48-1.79,2.45,2.45,0,0,0-.52-1.65A1.84,1.84,0,0,0,189.13,134.67Z"/><path d="M198.2,140.39V129.72h3.36a4.39,4.39,0,0,1,4.62,4.61v1.46a4.38,4.38,0,0,1-4.62,4.6Zm1.44-9.53v8.4h1.92a3,3,0,0,0,2.33-1,3.64,3.64,0,0,0,.85-2.49v-1.48a3.63,3.63,0,0,0-.85-2.48,2.94,2.94,0,0,0-2.33-1Z"/><path d="M210.19,137.5l.18,1h0l.19-1,1.58-5h1.16l1.59,5,.2,1.14h.05l.23-1.14,1.17-5h1.51l-2.3,7.93h-1.16l-1.57-4.83-.3-1.26h-.05l-.27,1.26-1.54,4.83h-1.17l-2.3-7.93H209Z"/><path d="M222.8,140.54a3.36,3.36,0,0,1-2.67-1.09,4.25,4.25,0,0,1-.95-2.87v-.32a4.16,4.16,0,0,1,1-2.83,3.12,3.12,0,0,1,2.41-1.12,2.87,2.87,0,0,1,2.38,1,4.08,4.08,0,0,1,.8,2.63v.76h-5.07l0,0a3.3,3.3,0,0,0,.52,1.94,1.87,1.87,0,0,0,1.62.74,3.62,3.62,0,0,0,1.28-.21,2.9,2.9,0,0,0,.95-.57l.56.94a3.45,3.45,0,0,1-1.12.69A4.59,4.59,0,0,1,222.8,140.54Zm-.23-7.09a1.57,1.57,0,0,0-1.25.58,2.75,2.75,0,0,0-.6,1.49v0h3.57v-.12a2.35,2.35,0,0,0-.42-1.43A1.54,1.54,0,0,0,222.57,133.45Z"/><path d="M228.93,140.39h-1.45V129h1.45Z"/><path d="M232.71,140.39h-1.45V129h1.45Z"/><path d="M236.48,130.43H235V129h1.44Zm0,10H235v-7.93h1.44Z"/><path d="M240,132.46l.11,1.18a2.81,2.81,0,0,1,1-1,2.67,2.67,0,0,1,1.36-.35,2.56,2.56,0,0,1,2,.76,3.27,3.27,0,0,1,.7,2.31v5h-1.44v-5a2.15,2.15,0,0,0-.41-1.48,1.65,1.65,0,0,0-1.27-.44,2.33,2.33,0,0,0-1.13.26,2,2,0,0,0-.73.75v5.89H238.7v-7.93Z"/><path d="M247,136.57a5.32,5.32,0,0,1,.82-3.08,2.6,2.6,0,0,1,2.28-1.18,2.84,2.84,0,0,1,1.33.31,2.65,2.65,0,0,1,1,.87l.17-1h1.15v8a3,3,0,0,1-.88,2.34,3.68,3.68,0,0,1-2.56.82,5.78,5.78,0,0,1-1.24-.16,4.92,4.92,0,0,1-1.16-.43l.22-1.12a4.29,4.29,0,0,0,1,.36,5.22,5.22,0,0,0,1.16.13,2.1,2.1,0,0,0,1.54-.48,2,2,0,0,0,.48-1.46v-.9a2.57,2.57,0,0,1-.93.75,2.91,2.91,0,0,1-1.25.26,2.71,2.71,0,0,1-2.27-1,4.41,4.41,0,0,1-.82-2.77Zm1.45.15a3.33,3.33,0,0,0,.49,1.92,1.68,1.68,0,0,0,1.51.73,1.87,1.87,0,0,0,1.09-.3,2.23,2.23,0,0,0,.73-.84v-3.64a2.29,2.29,0,0,0-.73-.81,1.92,1.92,0,0,0-1.07-.29,1.64,1.64,0,0,0-1.53.85,4.44,4.44,0,0,0-.49,2.23Z"/><path d="M260.36,138.25a1,1,0,0,0-.36-.77,3.47,3.47,0,0,0-1.37-.53,5.73,5.73,0,0,1-2.15-.84,1.71,1.71,0,0,1-.75-1.45,2.09,2.09,0,0,1,.82-1.66,3.62,3.62,0,0,1,4.32.05,2.11,2.11,0,0,1,.8,1.7l0,.05h-1.38a1.25,1.25,0,0,0-.45-.93,1.61,1.61,0,0,0-1.14-.42,1.67,1.67,0,0,0-1.14.34,1.08,1.08,0,0,0-.37.82.88.88,0,0,0,.32.73,3.64,3.64,0,0,0,1.35.47,5.53,5.53,0,0,1,2.21.87,1.77,1.77,0,0,1,.75,1.47,2.08,2.08,0,0,1-.85,1.72,4.07,4.07,0,0,1-4.62-.1,2.18,2.18,0,0,1-.82-1.79v0h1.38a1.33,1.33,0,0,0,.57,1.13,2.26,2.26,0,0,0,1.25.35,2.07,2.07,0,0,0,1.21-.32A1,1,0,0,0,260.36,138.25Z"/><path d="M191.3,154.72a4.35,4.35,0,0,1-.82,2.77,2.71,2.71,0,0,1-2.26,1,3.06,3.06,0,0,1-1.29-.25,2.38,2.38,0,0,1-.94-.73v3.87h-1.44v-11h1.1l.23,1a2.55,2.55,0,0,1,1-.88,2.86,2.86,0,0,1,1.35-.3,2.61,2.61,0,0,1,2.28,1.17,5.26,5.26,0,0,1,.82,3.09Zm-1.44-.15a4.24,4.24,0,0,0-.53-2.22,1.73,1.73,0,0,0-1.57-.86,1.91,1.91,0,0,0-1.06.28,2.11,2.11,0,0,0-.71.77v3.83a2.11,2.11,0,0,0,.71.77,2,2,0,0,0,1.08.27,1.77,1.77,0,0,0,1.55-.75,3.32,3.32,0,0,0,.53-1.94Z"/><path d="M196.35,158.54a3.35,3.35,0,0,1-2.66-1.09,4.25,4.25,0,0,1-.95-2.87v-.32a4.12,4.12,0,0,1,1-2.83,3.12,3.12,0,0,1,2.41-1.12,2.87,2.87,0,0,1,2.38,1,4.08,4.08,0,0,1,.8,2.63v.76h-5.07l0,0a3.3,3.3,0,0,0,.52,1.94,1.85,1.85,0,0,0,1.61.74,3.63,3.63,0,0,0,1.29-.21,3,3,0,0,0,1-.57l.56.94a3.45,3.45,0,0,1-1.12.69A4.61,4.61,0,0,1,196.35,158.54Zm-.22-7.09a1.55,1.55,0,0,0-1.25.58,2.83,2.83,0,0,0-.61,1.49l0,0h3.57v-.12a2.35,2.35,0,0,0-.42-1.43A1.54,1.54,0,0,0,196.13,151.45Z"/><path d="M204.67,151.74l-.73-.05a1.66,1.66,0,0,0-1,.27,1.76,1.76,0,0,0-.6.76v5.67h-1.45v-7.93h1.29l.14,1.16a2.81,2.81,0,0,1,.83-1,2,2,0,0,1,1.14-.35,1.55,1.55,0,0,1,.31,0l.24,0Z"/><path d="M210.1,158.39V147.72h3.48a4.25,4.25,0,0,1,2.62.72,2.56,2.56,0,0,1,.94,2.17,2,2,0,0,1-.42,1.23,2.65,2.65,0,0,1-1.13.83,2.49,2.49,0,0,1,1.66.91,2.84,2.84,0,0,1,.61,1.8,2.71,2.71,0,0,1-1,2.23,4,4,0,0,1-2.58.78Zm1.44-6.13h2.34a1.88,1.88,0,0,0,1.31-.45,1.78,1.78,0,0,0,0-2.53,2.53,2.53,0,0,0-1.57-.42h-2Zm0,1.12v3.88h2.79a2.18,2.18,0,0,0,1.53-.49,1.72,1.72,0,0,0,.55-1.38,1.91,1.91,0,0,0-.56-1.43,2.22,2.22,0,0,0-1.5-.58h-2.81Z"/><path d="M224.47,157.21a2.58,2.58,0,0,1-1,1,2.84,2.84,0,0,1-3.37-.48,3.8,3.8,0,0,1-.73-2.58v-4.67h1.44v4.69a2.94,2.94,0,0,0,.38,1.74,1.37,1.37,0,0,0,1.16.48,2.44,2.44,0,0,0,1.27-.31,2,2,0,0,0,.76-.89v-5.71h1.44v7.93h-1.29Z"/><path d="M229.53,148.43h-1.45V147h1.45Zm0,10h-1.45v-7.93h1.45Z"/><path d="M233.31,158.39h-1.45V147h1.45Z"/><path d="M235.2,154.57a5.32,5.32,0,0,1,.81-3.08,2.63,2.63,0,0,1,2.29-1.18,2.89,2.89,0,0,1,1.24.26,2.51,2.51,0,0,1,.91.75V147h1.45v11.43h-1.11l-.22-1a2.65,2.65,0,0,1-1,.87,2.92,2.92,0,0,1-1.32.29,2.71,2.71,0,0,1-2.27-1,4.35,4.35,0,0,1-.82-2.77Zm1.44.15a3.37,3.37,0,0,0,.49,1.93,1.71,1.71,0,0,0,1.52.72,1.91,1.91,0,0,0,1.09-.3,2.05,2.05,0,0,0,.71-.82v-3.69a2.19,2.19,0,0,0-.72-.79,1.91,1.91,0,0,0-1.06-.28,1.65,1.65,0,0,0-1.54.85,4.44,4.44,0,0,0-.49,2.23Z"/><path d="M245.61,148.43h-1.44V147h1.44Zm0,10h-1.44v-7.93h1.44Z"/><path d="M249.12,150.46l.1,1.18a2.9,2.9,0,0,1,1-1,2.67,2.67,0,0,1,1.36-.35,2.56,2.56,0,0,1,2,.76,3.27,3.27,0,0,1,.7,2.31v5h-1.44v-5a2.09,2.09,0,0,0-.42-1.48,1.61,1.61,0,0,0-1.26-.44,2.33,2.33,0,0,0-1.13.26,2,2,0,0,0-.74.75v5.89h-1.44v-7.93Z"/><path d="M256.1,154.57a5.24,5.24,0,0,1,.82-3.08,2.6,2.6,0,0,1,2.28-1.18,2.8,2.8,0,0,1,1.32.31,2.65,2.65,0,0,1,1,.87l.18-1h1.15v8a3,3,0,0,1-.89,2.34,3.65,3.65,0,0,1-2.55.82,5.63,5.63,0,0,1-1.24-.16A5.18,5.18,0,0,1,257,161l.22-1.12a4.56,4.56,0,0,0,1,.36,5.16,5.16,0,0,0,1.16.13,2.09,2.09,0,0,0,1.53-.48,2,2,0,0,0,.48-1.46v-.9a2.42,2.42,0,0,1-.93.75,2.88,2.88,0,0,1-1.25.26,2.69,2.69,0,0,1-2.26-1,4.35,4.35,0,0,1-.82-2.77Zm1.44.15a3.41,3.41,0,0,0,.49,1.92,1.69,1.69,0,0,0,1.52.73,1.89,1.89,0,0,0,1.09-.3,2.3,2.3,0,0,0,.72-.84v-3.64a2.18,2.18,0,0,0-.72-.81,2,2,0,0,0-1.08-.29,1.63,1.63,0,0,0-1.52.85,4.44,4.44,0,0,0-.5,2.23Z"/><path d="M326.91,119v0a3.21,3.21,0,0,1-1.05,2.51,4.07,4.07,0,0,1-2.87,1,3.75,3.75,0,0,1-2.94-1.28,4.72,4.72,0,0,1-1.14-3.25v-1.9a4.75,4.75,0,0,1,1.14-3.26,3.75,3.75,0,0,1,2.94-1.28,4.14,4.14,0,0,1,2.88,1,3.15,3.15,0,0,1,1,2.55v0h-1.39a2.4,2.4,0,0,0-.66-1.78,2.55,2.55,0,0,0-1.86-.65,2.27,2.27,0,0,0-1.92,1,3.94,3.94,0,0,0-.72,2.41V118a4,4,0,0,0,.72,2.43,2.26,2.26,0,0,0,1.92,1,2.55,2.55,0,0,0,1.86-.65,2.39,2.39,0,0,0,.66-1.79Z"/><path d="M328.26,118.35a4.4,4.4,0,0,1,.95-2.9,3.52,3.52,0,0,1,5.19,0,4.34,4.34,0,0,1,1,2.9v.16a4.36,4.36,0,0,1-.95,2.9,3.54,3.54,0,0,1-5.19,0,4.34,4.34,0,0,1-1-2.9Zm1.45.16a3.72,3.72,0,0,0,.53,2.08,1.91,1.91,0,0,0,3.14,0,3.72,3.72,0,0,0,.54-2.08v-.16a3.71,3.71,0,0,0-.54-2.07,1.78,1.78,0,0,0-1.58-.83,1.73,1.73,0,0,0-1.56.83,3.7,3.7,0,0,0-.53,2.07Z"/><path d="M338.41,114.46l.11,1a2.56,2.56,0,0,1,1-.87,2.94,2.94,0,0,1,1.39-.32,2.49,2.49,0,0,1,1.36.37,2.22,2.22,0,0,1,.85,1.1,3.1,3.1,0,0,1,1-1.07,2.56,2.56,0,0,1,1.44-.4,2.37,2.37,0,0,1,1.91.84,3.77,3.77,0,0,1,.7,2.5v4.74H346.7v-4.76a2.64,2.64,0,0,0-.41-1.66,1.46,1.46,0,0,0-1.2-.48,1.51,1.51,0,0,0-1.19.51,2.17,2.17,0,0,0-.54,1.3v5.09h-1.45v-4.76a2.59,2.59,0,0,0-.42-1.63,1.43,1.43,0,0,0-1.19-.51,2,2,0,0,0-1.08.27,1.73,1.73,0,0,0-.65.76v5.87h-1.44v-7.93Z"/><path d="M357,118.72a4.41,4.41,0,0,1-.82,2.77,2.72,2.72,0,0,1-2.27,1.05,3,3,0,0,1-1.28-.25,2.38,2.38,0,0,1-.94-.73v3.87h-1.44v-11h1.1l.23,1a2.55,2.55,0,0,1,1-.88,2.85,2.85,0,0,1,1.34-.3,2.63,2.63,0,0,1,2.29,1.17,5.26,5.26,0,0,1,.82,3.09Zm-1.45-.15a4.15,4.15,0,0,0-.53-2.22,1.7,1.7,0,0,0-1.56-.86,1.91,1.91,0,0,0-1.06.28,2.11,2.11,0,0,0-.71.77v3.83a2.11,2.11,0,0,0,.71.77,2,2,0,0,0,1.07.27,1.78,1.78,0,0,0,1.56-.75,3.32,3.32,0,0,0,.52-1.94Z"/><path d="M363.63,122.39c-.05-.24-.09-.46-.11-.64a3.41,3.41,0,0,1,0-.55,3.47,3.47,0,0,1-1.05,1,2.75,2.75,0,0,1-1.4.38,2.59,2.59,0,0,1-1.88-.63,2.36,2.36,0,0,1-.65-1.75,2.06,2.06,0,0,1,.92-1.78,4.33,4.33,0,0,1,2.49-.64h1.57V117a1.42,1.42,0,0,0-.43-1.1,1.66,1.66,0,0,0-1.2-.41,1.77,1.77,0,0,0-1.13.35,1.06,1.06,0,0,0-.43.84l-1.37,0,0,0a1.92,1.92,0,0,1,.81-1.58,3.37,3.37,0,0,1,2.22-.72,3.25,3.25,0,0,1,2.17.69,2.41,2.41,0,0,1,.82,2v3.82a7.22,7.22,0,0,0,0,.82,4.32,4.32,0,0,0,.16.78Zm-2.39-1.06a2.55,2.55,0,0,0,1.41-.4,2,2,0,0,0,.82-.92v-1.29h-1.62a2,2,0,0,0-1.39.44,1.3,1.3,0,0,0-.53,1,1.07,1.07,0,0,0,.33.83A1.37,1.37,0,0,0,361.24,121.33Z"/><path d="M370.16,121.41a1.71,1.71,0,0,0,1.16-.44,1.42,1.42,0,0,0,.5-1.09h1.3l0,.05a2.3,2.3,0,0,1-.88,1.82,3.16,3.16,0,0,1-2.11.79,3.09,3.09,0,0,1-2.58-1.14,4.34,4.34,0,0,1-.91-2.82v-.31a4.36,4.36,0,0,1,.91-2.82,3.12,3.12,0,0,1,2.58-1.14,3,3,0,0,1,2.17.82,2.63,2.63,0,0,1,.82,2l0,0h-1.31a1.77,1.77,0,0,0-.47-1.23,1.56,1.56,0,0,0-1.19-.51,1.66,1.66,0,0,0-1.55.82,3.83,3.83,0,0,0-.49,2v.31a3.94,3.94,0,0,0,.48,2A1.66,1.66,0,0,0,370.16,121.41Z"/><path d="M376.87,112.55v1.91h1.5v1.07h-1.5v4.81a1.08,1.08,0,0,0,.23.79.83.83,0,0,0,.61.22l.28,0,.25-.07.2,1a1.19,1.19,0,0,1-.48.21,2.21,2.21,0,0,1-.62.09,1.9,1.9,0,0,1-1.4-.53,2.35,2.35,0,0,1-.52-1.67v-4.81h-1.26v-1.07h1.26v-1.91Z"/><path d="M391.71,111.72v7.08a3.45,3.45,0,0,1-1.15,2.75,4.32,4.32,0,0,1-2.94,1,4.08,4.08,0,0,1-2.84-1,3.5,3.5,0,0,1-1.11-2.75v-7.08h1.44v7.08a2.6,2.6,0,0,0,.7,1.92,2.47,2.47,0,0,0,1.81.69,2.68,2.68,0,0,0,1.91-.69,2.5,2.5,0,0,0,.73-1.92v-7.08Z"/><path d="M395.08,114.46l.1,1.18a2.92,2.92,0,0,1,1-1,2.65,2.65,0,0,1,1.36-.35,2.56,2.56,0,0,1,2,.76,3.27,3.27,0,0,1,.7,2.31v5h-1.44v-5a2.15,2.15,0,0,0-.41-1.48,1.65,1.65,0,0,0-1.27-.44,2.33,2.33,0,0,0-1.13.26,2,2,0,0,0-.73.75v5.89h-1.45v-7.93Z"/><path d="M403.88,112.43h-1.44V111h1.44Zm0,10h-1.44v-7.93h1.44Z"/><path d="M408.1,112.55v1.91h1.51v1.07H408.1v4.81a1.13,1.13,0,0,0,.23.79.86.86,0,0,0,.62.22l.27,0,.26-.07.2,1a1.19,1.19,0,0,1-.48.21,2.21,2.21,0,0,1-.62.09,1.88,1.88,0,0,1-1.4-.53,2.31,2.31,0,0,1-.52-1.67v-4.81H405.4v-1.07h1.26v-1.91Z"/><path d="M415.76,120.25a1,1,0,0,0-.36-.77A3.53,3.53,0,0,0,414,119a5.8,5.8,0,0,1-2.15-.84,1.71,1.71,0,0,1-.75-1.45A2.1,2.1,0,0,1,412,115a3.21,3.21,0,0,1,2.13-.69,3.16,3.16,0,0,1,2.18.74,2.05,2.05,0,0,1,.8,1.7v0h-1.38a1.25,1.25,0,0,0-.45-.93,1.61,1.61,0,0,0-1.14-.42,1.64,1.64,0,0,0-1.14.34,1.09,1.09,0,0,0-.38.82.86.86,0,0,0,.33.73,3.65,3.65,0,0,0,1.34.47,5.58,5.58,0,0,1,2.22.87,1.77,1.77,0,0,1,.75,1.47,2.08,2.08,0,0,1-.85,1.72,4.07,4.07,0,0,1-4.62-.1,2.19,2.19,0,0,1-.83-1.79l0,0h1.37a1.36,1.36,0,0,0,.58,1.13,2.23,2.23,0,0,0,1.25.35,2,2,0,0,0,1.2-.32A1,1,0,0,0,415.76,120.25Z"/><path d="M330.09,140.39h-1.45v-9.34l-2.32,0V130l3.77-.39Z"/><path d="M341.06,140.39h-6.62v-1l3.34-4a10.59,10.59,0,0,0,1.22-1.73,2.91,2.91,0,0,0,.31-1.29,1.69,1.69,0,0,0-.43-1.21,1.52,1.52,0,0,0-1.19-.48,1.81,1.81,0,0,0-1.44.58,2.15,2.15,0,0,0-.49,1.44h-1.4v0a2.89,2.89,0,0,1,.87-2.21,3.36,3.36,0,0,1,2.47-.9,3.1,3.1,0,0,1,2.25.79,2.74,2.74,0,0,1,.82,2,3.29,3.29,0,0,1-.47,1.65,18.49,18.49,0,0,1-1.41,2l-2.69,3.15v0h4.86Z"/><path d="M346.76,140.39V129.72h3.35a4.39,4.39,0,0,1,4.63,4.61v1.46a4.49,4.49,0,0,1-1.27,3.32,4.55,4.55,0,0,1-3.36,1.28Zm1.44-9.53v8.4h1.91a2.92,2.92,0,0,0,2.33-1,3.64,3.64,0,0,0,.86-2.49v-1.48a3.63,3.63,0,0,0-.86-2.48,2.91,2.91,0,0,0-2.33-1Z"/><path d="M358.75,137.5l.18,1h0l.19-1,1.59-5h1.15l1.59,5,.21,1.14h0l.24-1.14,1.17-5h1.51l-2.3,7.93h-1.17l-1.56-4.83-.31-1.26h0l-.28,1.26-1.54,4.83H358.3l-2.3-7.93h1.5Z"/><path d="M371.35,140.54a3.34,3.34,0,0,1-2.66-1.09,4.2,4.2,0,0,1-1-2.87v-.32a4.12,4.12,0,0,1,1-2.83,3.11,3.11,0,0,1,2.4-1.12,2.89,2.89,0,0,1,2.39,1,4.08,4.08,0,0,1,.79,2.63v.76h-5.07l0,0a3.3,3.3,0,0,0,.53,1.94,1.85,1.85,0,0,0,1.61.74,3.63,3.63,0,0,0,1.29-.21,3,3,0,0,0,.94-.57l.57.94a3.57,3.57,0,0,1-1.12.69A4.65,4.65,0,0,1,371.35,140.54Zm-.23-7.09a1.55,1.55,0,0,0-1.24.58,2.75,2.75,0,0,0-.61,1.49l0,0h3.57v-.12a2.35,2.35,0,0,0-.42-1.43A1.58,1.58,0,0,0,371.12,133.45Z"/><path d="M377.48,140.39H376V129h1.44Z"/><path d="M381.26,140.39h-1.44V129h1.44Z"/><path d="M385,130.43H383.6V129H385Zm0,10H383.6v-7.93H385Z"/><path d="M388.55,132.46l.1,1.18a2.9,2.9,0,0,1,1-1,2.67,2.67,0,0,1,1.36-.35,2.56,2.56,0,0,1,2,.76,3.27,3.27,0,0,1,.7,2.31v5h-1.44v-5a2.09,2.09,0,0,0-.42-1.48,1.61,1.61,0,0,0-1.26-.44,2.33,2.33,0,0,0-1.13.26,2,2,0,0,0-.74.75v5.89h-1.44v-7.93Z"/><path d="M395.53,136.57a5.32,5.32,0,0,1,.81-3.08,2.63,2.63,0,0,1,2.29-1.18,2.8,2.8,0,0,1,1.32.31,2.65,2.65,0,0,1,1,.87l.18-1h1.15v8a3,3,0,0,1-.89,2.34,3.66,3.66,0,0,1-2.56.82,5.62,5.62,0,0,1-1.23-.16,5.18,5.18,0,0,1-1.17-.43l.22-1.12a4.56,4.56,0,0,0,1,.36,5.16,5.16,0,0,0,1.16.13,2.09,2.09,0,0,0,1.53-.48,2,2,0,0,0,.48-1.46v-.9a2.42,2.42,0,0,1-.93.75,2.88,2.88,0,0,1-1.25.26,2.72,2.72,0,0,1-2.27-1,4.41,4.41,0,0,1-.81-2.77Zm1.44.15a3.33,3.33,0,0,0,.49,1.92,1.69,1.69,0,0,0,1.52.73,1.89,1.89,0,0,0,1.09-.3,2.3,2.3,0,0,0,.72-.84v-3.64a2.18,2.18,0,0,0-.72-.81,2,2,0,0,0-1.08-.29,1.62,1.62,0,0,0-1.52.85,4.44,4.44,0,0,0-.5,2.23Z"/><path d="M408.92,138.25a.94.94,0,0,0-.37-.77,3.4,3.4,0,0,0-1.37-.53,5.8,5.8,0,0,1-2.15-.84,1.71,1.71,0,0,1-.75-1.45,2.12,2.12,0,0,1,.82-1.66,3.24,3.24,0,0,1,2.14-.69,3.16,3.16,0,0,1,2.18.74,2.05,2.05,0,0,1,.8,1.7v.05h-1.38a1.25,1.25,0,0,0-.45-.93,1.61,1.61,0,0,0-1.14-.42,1.64,1.64,0,0,0-1.14.34,1.09,1.09,0,0,0-.38.82.86.86,0,0,0,.33.73,3.57,3.57,0,0,0,1.34.47,5.58,5.58,0,0,1,2.22.87,1.77,1.77,0,0,1,.75,1.47,2.08,2.08,0,0,1-.85,1.72,4.07,4.07,0,0,1-4.62-.1,2.19,2.19,0,0,1-.83-1.79l0,0h1.37a1.38,1.38,0,0,0,.57,1.13,2.29,2.29,0,0,0,1.26.35,2,2,0,0,0,1.2-.32A1,1,0,0,0,408.92,138.25Z"/><path d="M335.63,154.72a4.35,4.35,0,0,1-.82,2.77,2.7,2.7,0,0,1-2.26,1,3,3,0,0,1-1.28-.25,2.41,2.41,0,0,1-.95-.73v3.87h-1.44v-11H330l.22,1a2.55,2.55,0,0,1,1-.88,2.92,2.92,0,0,1,1.35-.3,2.64,2.64,0,0,1,2.29,1.17,5.33,5.33,0,0,1,.81,3.09Zm-1.44-.15a4.24,4.24,0,0,0-.53-2.22,1.7,1.7,0,0,0-1.56-.86,1.88,1.88,0,0,0-1.06.28,2.06,2.06,0,0,0-.72.77v3.83a2.06,2.06,0,0,0,.72.77,2,2,0,0,0,1.07.27,1.77,1.77,0,0,0,1.55-.75,3.25,3.25,0,0,0,.53-1.94Z"/><path d="M340.69,158.54a3.33,3.33,0,0,1-2.66-1.09,4.2,4.2,0,0,1-1-2.87v-.32a4.16,4.16,0,0,1,1-2.83,3.12,3.12,0,0,1,2.41-1.12,2.87,2.87,0,0,1,2.38,1,4,4,0,0,1,.8,2.63v.76h-5.07l0,0a3.23,3.23,0,0,0,.53,1.94,1.84,1.84,0,0,0,1.61.74,3.58,3.58,0,0,0,1.28-.21,2.9,2.9,0,0,0,.95-.57l.57.94a3.68,3.68,0,0,1-1.12.69A4.69,4.69,0,0,1,340.69,158.54Zm-.23-7.09a1.57,1.57,0,0,0-1.25.58,2.75,2.75,0,0,0-.6,1.49v0h3.58v-.12a2.36,2.36,0,0,0-.43-1.43A1.54,1.54,0,0,0,340.46,151.45Z"/><path d="M349,151.74l-.74-.05a1.65,1.65,0,0,0-1,.27,1.71,1.71,0,0,0-.61.76v5.67h-1.44v-7.93h1.29l.14,1.16a2.71,2.71,0,0,1,.83-1,2,2,0,0,1,1.14-.35,1.45,1.45,0,0,1,.3,0l.25,0Z"/><path d="M354.44,158.39V147.72h3.47a4.23,4.23,0,0,1,2.62.72,2.56,2.56,0,0,1,.94,2.17,2,2,0,0,1-.42,1.23,2.59,2.59,0,0,1-1.13.83,2.49,2.49,0,0,1,1.66.91,2.78,2.78,0,0,1,.61,1.8,2.68,2.68,0,0,1-.95,2.23,3.93,3.93,0,0,1-2.58.78Zm1.44-6.13h2.33a1.92,1.92,0,0,0,1.32-.45,1.8,1.8,0,0,0,0-2.53,2.56,2.56,0,0,0-1.58-.42h-2Zm0,1.12v3.88h2.78a2.23,2.23,0,0,0,1.54-.49,1.75,1.75,0,0,0,.54-1.38,1.91,1.91,0,0,0-.55-1.43,2.26,2.26,0,0,0-1.51-.58h-2.8Z"/><path d="M368.81,157.21a2.58,2.58,0,0,1-1,1,2.85,2.85,0,0,1-3.38-.48,3.86,3.86,0,0,1-.73-2.58v-4.67h1.45v4.69a3,3,0,0,0,.37,1.74,1.39,1.39,0,0,0,1.17.48,2.46,2.46,0,0,0,1.27-.31,2,2,0,0,0,.75-.89v-5.71h1.45v7.93h-1.3Z"/><path d="M373.86,148.43h-1.44V147h1.44Zm0,10h-1.44v-7.93h1.44Z"/><path d="M377.64,158.39H376.2V147h1.44Z"/><path d="M379.53,154.57a5.32,5.32,0,0,1,.81-3.08,2.63,2.63,0,0,1,2.29-1.18,2.86,2.86,0,0,1,1.24.26,2.54,2.54,0,0,1,.92.75V147h1.44v11.43h-1.11l-.22-1a2.55,2.55,0,0,1-.95.87,3,3,0,0,1-1.33.29,2.72,2.72,0,0,1-2.27-1,4.35,4.35,0,0,1-.82-2.77Zm1.44.15a3.37,3.37,0,0,0,.49,1.93,1.73,1.73,0,0,0,1.53.72,1.86,1.86,0,0,0,1.08-.3,2.15,2.15,0,0,0,.72-.82v-3.69a2.39,2.39,0,0,0-.72-.79,1.94,1.94,0,0,0-1.07-.28,1.63,1.63,0,0,0-1.53.85,4.44,4.44,0,0,0-.5,2.23Z"/><path d="M389.94,148.43H388.5V147h1.44Zm0,10H388.5v-7.93h1.44Z"/><path d="M393.45,150.46l.1,1.18a2.92,2.92,0,0,1,1-1,2.65,2.65,0,0,1,1.36-.35,2.56,2.56,0,0,1,2,.76,3.27,3.27,0,0,1,.7,2.31v5h-1.44v-5a2.15,2.15,0,0,0-.41-1.48,1.65,1.65,0,0,0-1.27-.44,2.33,2.33,0,0,0-1.13.26,2,2,0,0,0-.73.75v5.89h-1.45v-7.93Z"/><path d="M400.43,154.57a5.24,5.24,0,0,1,.82-3.08,2.6,2.6,0,0,1,2.28-1.18,2.87,2.87,0,0,1,1.33.31,2.55,2.55,0,0,1,.95.87l.18-1h1.15v8a3,3,0,0,1-.89,2.34,3.65,3.65,0,0,1-2.55.82,5.78,5.78,0,0,1-1.24-.16,4.92,4.92,0,0,1-1.16-.43l.22-1.12a4.29,4.29,0,0,0,1,.36,5.22,5.22,0,0,0,1.16.13,2.1,2.1,0,0,0,1.54-.48,2,2,0,0,0,.48-1.46v-.9a2.57,2.57,0,0,1-.93.75,2.91,2.91,0,0,1-1.25.26,2.71,2.71,0,0,1-2.27-1,4.35,4.35,0,0,1-.82-2.77Zm1.45.15a3.33,3.33,0,0,0,.49,1.92,1.68,1.68,0,0,0,1.51.73,1.87,1.87,0,0,0,1.09-.3,2.23,2.23,0,0,0,.73-.84v-3.64a2.29,2.29,0,0,0-.73-.81,1.94,1.94,0,0,0-1.07-.29,1.64,1.64,0,0,0-1.53.85,4.44,4.44,0,0,0-.49,2.23Z"/><line class="cls-1" x1="338.2" y1="64.57" x2="338.19" y2="64.58"/><line class="cls-1" x1="196.89" y1="65.13" x2="196.89" y2="65.12"/><line class="cls-1" x1="366.46" y1="43.56" x2="366.46" y2="43.55"/><line class="cls-1" x1="352.81" y1="82.96" x2="352.8" y2="82.97"/><line class="cls-1" x1="352.81" y1="59.73" x2="352.8" y2="59.74"/><line class="cls-1" x1="352.81" y1="82.96" x2="352.8" y2="82.97"/><line class="cls-1" x1="196.89" y1="65.13" x2="196.89" y2="65.12"/></g><g id="Layer_6" data-name="Layer 6"><polygon class="cls-2" points="366.46 70.93 366.46 80.89 354.24 73.84 352.8 73.01 352.8 63.05 366.46 70.93"/><polygon class="cls-2" points="380.11 63.05 366.46 70.93 352.8 63.05 354.24 62.22 366.46 69.28 378.67 62.22 380.11 63.05"/><polygon class="cls-2" points="414.36 75.91 366.46 103.57 318.55 75.91 338.19 64.58 339.15 65.13 337.71 65.96 337.71 75.91 351.37 83.8 352.8 82.97 352.8 84.63 366.46 92.51 380.11 84.63 380.11 82.97 381.55 83.8 395.2 75.91 395.2 65.96 393.76 65.13 394.72 64.57 394.73 64.57 414.36 75.91"/><polygon class="cls-2" points="81.92 59.32 81.92 69.28 54.62 53.51 53.18 52.68 53.18 42.72 81.92 59.32"/><polygon class="cls-2" points="110.67 54.34 81.92 70.93 53.18 54.34 54.62 53.51 81.92 69.28 109.23 53.51 110.67 54.34"/><polygon class="cls-2" points="354.24 62.22 352.8 63.05 352.8 71.35 351.37 72.18 351.37 62.22 352.8 61.39 354.24 62.22"/><polygon class="cls-2" points="272.09 75.91 224.19 103.57 176.29 75.91 195.92 64.57 195.93 64.57 196.88 65.13 195.45 65.96 195.45 75.91 224.19 92.51 237.83 84.62 237.83 82.96 239.29 83.8 252.93 75.91 252.93 65.96 251.5 65.13 252.45 64.57 252.46 64.57 272.09 75.91"/><polygon class="cls-2" points="110.67 65.96 81.92 82.55 53.18 65.96 54.62 65.13 81.92 80.89 109.23 65.13 110.67 65.96"/><polygon class="cls-2" points="110.67 65.96 110.67 75.91 81.92 92.51 81.92 82.55 110.67 65.96"/><polygon class="cls-2" points="129.83 75.91 81.92 103.57 34.02 75.91 53.65 64.57 53.66 64.57 54.62 65.13 53.18 65.96 53.18 75.91 81.92 92.51 110.67 75.91 110.67 65.96 109.23 65.13 110.19 64.57 110.2 64.57 129.83 75.91"/><polygon class="cls-2" points="252.93 65.96 252.93 75.91 239.29 83.8 239.29 73.84 252.93 65.96"/><polygon class="cls-2" points="351.37 73.84 351.37 83.8 337.71 75.91 337.71 65.96 351.37 73.84"/><polygon class="cls-2" points="81.92 70.93 81.92 80.89 54.62 65.13 53.66 64.57 53.65 64.57 53.18 64.3 53.18 54.34 81.92 70.93"/><polygon class="cls-2" points="380.11 74.67 366.46 82.55 352.8 74.67 354.24 73.84 366.46 80.89 378.67 73.84 380.11 74.67"/><polygon class="cls-2" points="395.2 65.96 395.2 75.91 381.55 83.8 381.55 73.84 395.2 65.96"/><polygon class="cls-2" points="395.2 65.96 381.55 73.84 380.11 73.01 380.11 71.35 381.55 72.18 393.76 65.13 395.2 65.96"/><polygon class="cls-2" points="381.55 73.84 381.55 83.8 380.11 82.97 380.11 74.67 378.67 73.84 380.11 73.01 381.55 73.84"/><polygon class="cls-2" points="380.11 74.67 380.11 84.63 366.46 92.51 366.46 82.55 380.11 74.67"/><polygon class="cls-2" points="366.46 82.55 366.46 92.51 352.8 84.63 352.8 74.67 366.46 82.55"/><polygon class="cls-2" points="354.24 73.84 352.8 74.67 352.8 82.97 351.37 83.8 351.37 73.84 352.8 73.01 354.24 73.84"/><polygon class="cls-2" points="352.8 71.35 352.8 73.01 351.37 73.84 337.71 65.96 339.15 65.13 351.37 72.18 352.8 71.35"/><polygon class="cls-2" points="81.92 82.55 81.92 92.51 53.18 75.91 53.18 65.96 81.92 82.55"/><polygon class="cls-2" points="380.11 63.05 380.11 73.01 378.67 73.84 366.46 80.89 366.46 70.93 380.11 63.05"/><polygon class="cls-2" points="239.29 73.84 239.29 83.8 237.83 82.96 237.83 74.66 236.41 73.84 237.84 73.01 239.29 73.84"/><polygon class="cls-2" points="237.83 74.66 237.83 84.62 224.19 92.51 224.19 82.55 237.83 74.66"/><polygon class="cls-2" points="224.19 82.55 224.19 92.51 195.45 75.91 195.45 65.96 224.19 82.55"/><polygon class="cls-2" points="351.37 50.61 351.37 60.56 339.15 53.51 337.71 52.68 337.71 42.72 351.37 50.61"/><polygon class="cls-2" points="366.46 41.89 366.46 43.55 365.02 44.38 365.02 42.72 352.8 35.67 352.8 34.01 366.46 41.89"/><polygon class="cls-2" points="380.11 34.01 366.46 41.89 352.8 34.01 366.46 26.13 380.11 34.01"/><polygon class="cls-2" points="352.8 59.74 352.8 61.39 351.37 62.22 337.71 54.34 339.15 53.51 351.37 60.56 352.8 59.74"/><polygon class="cls-2" points="237.83 51.43 224.19 59.32 195.45 42.72 209.09 34.84 210.55 35.68 237.83 51.43"/><polygon class="cls-2" points="110.67 42.72 110.67 52.68 109.23 53.51 81.92 69.28 81.92 59.32 110.67 42.72"/><polygon class="cls-2" points="210.54 61.39 209.11 62.22 195.45 54.34 196.89 53.51 210.54 61.39"/><polygon class="cls-2" points="110.67 42.72 81.92 59.32 53.18 42.72 81.92 26.13 110.67 42.72"/><polygon class="cls-2" points="351.37 62.22 351.37 72.18 339.15 65.13 338.19 64.58 337.71 64.3 337.71 54.34 351.37 62.22"/><polygon class="cls-2" points="381.55 62.22 381.55 72.18 380.11 71.35 380.11 63.05 378.67 62.22 380.11 61.39 381.55 62.22"/><polygon class="cls-2" points="381.55 50.61 381.55 60.56 380.11 59.73 380.11 51.44 367.89 44.38 367.89 42.72 381.55 50.61"/><polygon class="cls-2" points="365.02 42.72 351.37 50.61 337.71 42.72 351.37 34.84 352.8 35.67 365.02 42.72"/><polygon class="cls-2" points="365.02 42.72 365.02 44.38 352.8 51.44 352.8 59.74 351.37 60.56 351.37 50.61 365.02 42.72"/><polygon class="cls-2" points="380.11 51.44 366.46 59.32 352.8 51.44 365.02 44.38 366.46 43.55 367.89 44.38 380.11 51.44"/><polygon class="cls-2" points="380.11 34.01 380.11 35.67 367.89 42.72 367.89 44.38 366.46 43.55 366.46 41.89 380.11 34.01"/><polygon class="cls-2" points="395.2 42.72 381.55 50.61 367.89 42.72 380.11 35.67 381.55 34.84 395.2 42.72"/><polygon class="cls-2" points="395.2 42.72 395.2 52.68 393.76 53.51 381.55 60.56 381.55 50.61 395.2 42.72"/><polygon class="cls-2" points="366.46 59.32 366.46 69.28 354.24 62.22 352.8 61.39 352.8 51.44 366.46 59.32"/><polygon class="cls-2" points="380.11 51.44 380.11 61.39 378.67 62.22 366.46 69.28 366.46 59.32 380.11 51.44"/><polygon class="cls-2" points="395.2 54.34 381.55 62.22 380.11 61.39 380.11 59.73 381.55 60.56 393.76 53.51 395.2 54.34"/><polygon class="cls-2" points="395.2 54.34 395.2 64.3 394.73 64.57 394.72 64.57 393.76 65.13 381.55 72.18 381.55 62.22 395.2 54.34"/><polygon class="cls-2" points="110.67 54.34 110.67 64.3 110.2 64.57 110.19 64.57 109.23 65.13 81.92 80.89 81.92 70.93 110.67 54.34"/><polygon class="cls-2" points="252.93 65.96 239.29 73.84 237.84 73.01 251.5 65.13 252.93 65.96"/><polygon class="cls-2" points="252.93 54.34 252.93 64.3 252.46 64.57 252.45 64.57 251.5 65.13 237.84 73.01 236.41 73.84 224.19 80.89 224.19 70.93 252.93 54.34"/><polygon class="cls-2" points="224.19 70.93 224.19 80.89 210.53 73.01 210.53 63.06 210.55 63.07 224.19 70.93"/><polygon class="cls-2" points="237.83 74.66 224.19 82.55 195.45 65.96 196.88 65.13 196.89 65.13 209.11 72.17 210.53 71.35 210.53 73.01 224.19 80.89 236.41 73.84 237.83 74.66"/><polygon class="cls-2" points="252.93 54.34 224.19 70.93 210.55 63.07 210.55 63.05 211.97 62.22 211.98 62.22 224.19 69.28 237.83 61.39 237.83 59.73 239.29 60.57 251.5 53.51 252.93 54.34"/><polygon class="cls-2" points="252.93 42.72 252.93 52.68 251.5 53.51 239.29 60.57 239.29 50.61 252.93 42.72"/><polygon class="cls-2" points="252.93 42.72 239.29 50.61 210.55 34.02 224.19 26.13 252.93 42.72"/><polygon class="cls-2" points="239.29 50.61 239.29 60.57 237.83 59.73 237.83 51.43 210.55 35.68 210.55 34.02 239.29 50.61"/><polygon class="cls-2" points="237.83 51.43 237.83 61.39 224.19 69.28 224.19 59.32 237.83 51.43"/><polygon class="cls-2" points="224.19 59.32 224.19 69.28 211.98 62.22 211.97 62.22 210.54 61.39 196.89 53.51 195.45 52.68 195.45 42.72 224.19 59.32"/><polygon class="cls-2" points="211.97 62.22 210.55 63.05 210.53 63.06 210.53 71.35 209.11 72.17 209.11 62.22 210.54 61.39 211.97 62.22"/><polygon class="cls-2" points="209.11 62.22 209.11 72.17 196.89 65.13 196.88 65.13 195.93 64.57 195.92 64.57 195.45 64.3 195.45 54.34 209.11 62.22"/></g><g id="Layer_5" data-name="Layer 5"><path class="cls-3" d="M213.14,88.11a3.27,3.27,0,0,0,3.39,3.12A3.48,3.48,0,0,0,219.24,90a4.81,4.81,0,0,1-2.61-4.21,4.7,4.7,0,0,1,1.07-3,4,4,0,0,1-.34-1.59,3.88,3.88,0,0,1,.24-1.35,2.47,2.47,0,0,0-1.07-.25,2.25,2.25,0,0,0-2.33,2.13,2,2,0,0,0,.22.89.32.32,0,0,1,0,.36,2.45,2.45,0,0,0-.67,1.68,2.37,2.37,0,0,0,.26,1.1.32.32,0,0,1-.05.36A3,3,0,0,0,213.14,88.11Z"/><path class="cls-3" d="M217.27,85.76a4.6,4.6,0,0,0,9.16,0,4,4,0,0,0-.77-2.34,3.07,3.07,0,0,0-.28-.35.34.34,0,0,1,0-.37,3.24,3.24,0,0,0,.36-1.49,3.36,3.36,0,0,0-.91-2.28.34.34,0,0,1-.05-.37,2.7,2.7,0,0,0,.29-1.21V77.2a3.19,3.19,0,0,0-6.34.15,2.7,2.7,0,0,0,.29,1.21.34.34,0,0,1-.05.37,3.36,3.36,0,0,0-.91,2.28,3.24,3.24,0,0,0,.36,1.49.34.34,0,0,1-.05.37A4.06,4.06,0,0,0,217.27,85.76Z"/><path class="cls-4" d="M212.49,88.11a3.88,3.88,0,0,0,3.73,3.75v4l.65,0v-4a4.1,4.1,0,0,0,3-1.61,5.26,5.26,0,0,0,1.69.36l0,5.25.58,0h.06v-5.3a5,5,0,0,0,4.89-4.85,4.63,4.63,0,0,0-.89-2.72L226,82.8a3.82,3.82,0,0,0,.34-1.59,4,4,0,0,0-.94-2.56,3.26,3.26,0,0,0,.27-1.3,1.09,1.09,0,0,0,0-.18,3.83,3.83,0,0,0-7.63.18,3.26,3.26,0,0,0,.27,1.3,4.83,4.83,0,0,0-.42.62,3.13,3.13,0,0,0-1.35-.3,2.88,2.88,0,0,0-3,2.77,2.55,2.55,0,0,0,.19,1,3.07,3.07,0,0,0-.46,3.14A3.6,3.6,0,0,0,212.49,88.11Zm4.78-2.35a4.06,4.06,0,0,1,1-2.69.34.34,0,0,0,.05-.37,3.24,3.24,0,0,1-.36-1.49,3.36,3.36,0,0,1,.91-2.28.34.34,0,0,0,.05-.37,2.7,2.7,0,0,1-.29-1.21A3.19,3.19,0,0,1,225,77.2v.15a2.7,2.7,0,0,1-.29,1.21.34.34,0,0,0,.05.37,3.36,3.36,0,0,1,.91,2.28,3.24,3.24,0,0,1-.36,1.49.34.34,0,0,0,0,.37,3.07,3.07,0,0,1,.28.35,4,4,0,0,1,.77,2.34,4.6,4.6,0,0,1-9.16,0Zm-4.13,2.35a3,3,0,0,1,.77-2,.32.32,0,0,0,.05-.36,2.37,2.37,0,0,1-.26-1.1,2.45,2.45,0,0,1,.67-1.68.32.32,0,0,0,0-.36,2,2,0,0,1-.22-.89,2.25,2.25,0,0,1,2.33-2.13,2.47,2.47,0,0,1,1.07.25,3.88,3.88,0,0,0-.24,1.35,4,4,0,0,0,.34,1.59,4.7,4.7,0,0,0-1.07,3A4.81,4.81,0,0,0,219.24,90a3.48,3.48,0,0,1-2.71,1.26A3.27,3.27,0,0,1,213.14,88.11Z"/><path class="cls-4" d="M198.28,73.53a2.75,2.75,0,0,0,.19-1,2.59,2.59,0,0,0-.57-1.61,2.17,2.17,0,0,0,.15-.79,2.51,2.51,0,0,0-5-.12s0,.08,0,.12a2.17,2.17,0,0,0,.15.79,2.65,2.65,0,0,0-.56,1.61,2.55,2.55,0,0,0,.19,1l-.08.09a3.08,3.08,0,0,0-.57,1.77,3.26,3.26,0,0,0,3,3.14v2.81l.64,0V78.53a3.25,3.25,0,0,0,3.07-3.14A3,3,0,0,0,198.28,73.53Zm-2.73,4.37a2.64,2.64,0,0,1-2.74-2.51,2.34,2.34,0,0,1,.46-1.39l.17-.21a.32.32,0,0,0,.05-.36,1.82,1.82,0,0,1-.22-.88,2,2,0,0,1,.54-1.34.32.32,0,0,0,.05-.36,1.6,1.6,0,0,1-.17-.7v-.09a1.8,1.8,0,0,1,1.86-1.61,1.78,1.78,0,0,1,1.85,1.7,1.6,1.6,0,0,1-.17.7.32.32,0,0,0,.05.36,2,2,0,0,1,.54,1.34,1.93,1.93,0,0,1-.21.88.34.34,0,0,0,0,.36,2.38,2.38,0,0,1,.63,1.6A2.64,2.64,0,0,1,195.55,77.9Z"/><path class="cls-5" d="M198.28,75.39a2.75,2.75,0,0,1-5.47,0,2.34,2.34,0,0,1,.46-1.39l.17-.21a.32.32,0,0,0,.05-.36,1.82,1.82,0,0,1-.22-.88,2,2,0,0,1,.54-1.34.32.32,0,0,0,.05-.36,1.6,1.6,0,0,1-.17-.7v-.09a1.8,1.8,0,0,1,1.86-1.61,1.78,1.78,0,0,1,1.85,1.7,1.6,1.6,0,0,1-.17.7.32.32,0,0,0,.05.36,2,2,0,0,1,.54,1.34,1.93,1.93,0,0,1-.21.88.34.34,0,0,0,0,.36A2.38,2.38,0,0,1,198.28,75.39Z"/><path class="cls-3" d="M355,88.11a3.27,3.27,0,0,0,3.39,3.12A3.48,3.48,0,0,0,361.05,90a4.81,4.81,0,0,1-2.61-4.21,4.7,4.7,0,0,1,1.07-3,4,4,0,0,1-.34-1.59,3.88,3.88,0,0,1,.24-1.35,2.47,2.47,0,0,0-1.07-.25A2.25,2.25,0,0,0,356,81.74a2,2,0,0,0,.22.89.32.32,0,0,1-.05.36,2.45,2.45,0,0,0-.67,1.68,2.37,2.37,0,0,0,.26,1.1.32.32,0,0,1,0,.36A3,3,0,0,0,355,88.11Z"/><path class="cls-3" d="M359.08,85.76a4.6,4.6,0,0,0,9.16,0,4,4,0,0,0-.77-2.34,3.07,3.07,0,0,0-.28-.35.34.34,0,0,1-.05-.37,3.24,3.24,0,0,0,.36-1.49,3.36,3.36,0,0,0-.91-2.28.34.34,0,0,1,0-.37,2.7,2.7,0,0,0,.29-1.21V77.2a3.19,3.19,0,0,0-6.34.15,2.7,2.7,0,0,0,.29,1.21.34.34,0,0,1,0,.37,3.36,3.36,0,0,0-.91,2.28,3.24,3.24,0,0,0,.36,1.49.34.34,0,0,1-.05.37A4.06,4.06,0,0,0,359.08,85.76Z"/><path class="cls-4" d="M354.3,88.11A3.88,3.88,0,0,0,358,91.86v4l.65,0v-4a4.1,4.1,0,0,0,3-1.61,5.26,5.26,0,0,0,1.69.36l0,5.25.58,0H364v-5.3a5,5,0,0,0,4.89-4.85A4.63,4.63,0,0,0,368,83l-.19-.24a3.82,3.82,0,0,0,.34-1.59,4,4,0,0,0-.94-2.56,3.26,3.26,0,0,0,.27-1.3,1.09,1.09,0,0,0,0-.18,3.83,3.83,0,0,0-7.63.18,3.26,3.26,0,0,0,.27,1.3,4.83,4.83,0,0,0-.42.62,3.13,3.13,0,0,0-1.35-.3,2.88,2.88,0,0,0-3,2.77,2.55,2.55,0,0,0,.19,1,3.07,3.07,0,0,0-.46,3.14A3.6,3.6,0,0,0,354.3,88.11Zm4.78-2.35a4.06,4.06,0,0,1,1.05-2.69.34.34,0,0,0,.05-.37,3.24,3.24,0,0,1-.36-1.49,3.36,3.36,0,0,1,.91-2.28.34.34,0,0,0,0-.37,2.7,2.7,0,0,1-.29-1.21,3.19,3.19,0,0,1,6.34-.15v.15a2.7,2.7,0,0,1-.29,1.21.34.34,0,0,0,0,.37,3.36,3.36,0,0,1,.91,2.28,3.24,3.24,0,0,1-.36,1.49.34.34,0,0,0,.05.37,3.07,3.07,0,0,1,.28.35,4,4,0,0,1,.77,2.34,4.6,4.6,0,0,1-9.16,0ZM355,88.11a3,3,0,0,1,.77-2,.32.32,0,0,0,0-.36,2.37,2.37,0,0,1-.26-1.1,2.45,2.45,0,0,1,.67-1.68.32.32,0,0,0,.05-.36,2,2,0,0,1-.22-.89,2.25,2.25,0,0,1,2.33-2.13,2.47,2.47,0,0,1,1.07.25,3.88,3.88,0,0,0-.24,1.35,4,4,0,0,0,.34,1.59,4.7,4.7,0,0,0-1.07,3A4.81,4.81,0,0,0,361.05,90a3.48,3.48,0,0,1-2.71,1.26A3.27,3.27,0,0,1,355,88.11Z"/><path class="cls-4" d="M340.44,73.58a2.75,2.75,0,0,0,.19-1,2.59,2.59,0,0,0-.57-1.61,2.17,2.17,0,0,0,.15-.79,2.51,2.51,0,0,0-5-.12s0,.08,0,.12a2.17,2.17,0,0,0,.15.79,2.65,2.65,0,0,0-.56,1.61,2.55,2.55,0,0,0,.19,1l-.08.09a3.08,3.08,0,0,0-.57,1.77,3.26,3.26,0,0,0,3,3.14v2.81l.64,0V78.58a3.25,3.25,0,0,0,3.07-3.14A3,3,0,0,0,340.44,73.58ZM337.71,78A2.64,2.64,0,0,1,335,75.44a2.34,2.34,0,0,1,.46-1.39l.17-.21a.32.32,0,0,0,0-.36,1.82,1.82,0,0,1-.22-.88,2,2,0,0,1,.54-1.34.32.32,0,0,0,0-.36,1.6,1.6,0,0,1-.17-.7v-.09a1.8,1.8,0,0,1,1.86-1.61,1.78,1.78,0,0,1,1.85,1.7,1.6,1.6,0,0,1-.17.7.32.32,0,0,0,.05.36A2,2,0,0,1,340,72.6a1.93,1.93,0,0,1-.21.88.34.34,0,0,0,0,.36,2.38,2.38,0,0,1,.63,1.6A2.64,2.64,0,0,1,337.71,78Z"/><path class="cls-5" d="M340.44,75.44a2.75,2.75,0,0,1-5.47,0,2.34,2.34,0,0,1,.46-1.39l.17-.21a.32.32,0,0,0,0-.36,1.82,1.82,0,0,1-.22-.88,2,2,0,0,1,.54-1.34.32.32,0,0,0,0-.36,1.6,1.6,0,0,1-.17-.7v-.09a1.8,1.8,0,0,1,1.86-1.61,1.78,1.78,0,0,1,1.85,1.7,1.6,1.6,0,0,1-.17.7.32.32,0,0,0,.05.36A2,2,0,0,1,340,72.6a1.93,1.93,0,0,1-.21.88.34.34,0,0,0,0,.36A2.38,2.38,0,0,1,340.44,75.44Z"/><path class="cls-4" d="M251.32,75.07a3.55,3.55,0,0,0,.24-1.24,3.3,3.3,0,0,0-.72-2,2.91,2.91,0,0,0,.19-1,3.19,3.19,0,0,0-6.35-.15c0,.05,0,.1,0,.15a2.69,2.69,0,0,0,.19,1,3.36,3.36,0,0,0-.71,2,3.15,3.15,0,0,0,.24,1.24l-.1.11a3.94,3.94,0,0,0-.73,2.25,4.13,4.13,0,0,0,3.86,4V85l.82,0V81.42a4.14,4.14,0,0,0,3.9-4A3.83,3.83,0,0,0,251.32,75.07Zm-3.47,5.55a3.35,3.35,0,0,1-3.47-3.19,3,3,0,0,1,.58-1.76,2.61,2.61,0,0,1,.22-.27.41.41,0,0,0,.06-.46,2.29,2.29,0,0,1-.28-1.11,2.5,2.5,0,0,1,.69-1.71.41.41,0,0,0,.06-.45,2.05,2.05,0,0,1-.22-.89v-.12a2.29,2.29,0,0,1,2.36-2,2.26,2.26,0,0,1,2.35,2.16,2,2,0,0,1-.21.89.39.39,0,0,0,.06.45,2.5,2.5,0,0,1,.69,1.71,2.39,2.39,0,0,1-.27,1.11.43.43,0,0,0,.05.46,3,3,0,0,1,.8,2A3.35,3.35,0,0,1,247.85,80.62Z"/><path class="cls-5" d="M251.32,77.43a3.48,3.48,0,0,1-6.94,0,3,3,0,0,1,.58-1.76,2.61,2.61,0,0,1,.22-.27.41.41,0,0,0,.06-.46,2.29,2.29,0,0,1-.28-1.11,2.5,2.5,0,0,1,.69-1.71.41.41,0,0,0,.06-.45,2.05,2.05,0,0,1-.22-.89v-.12a2.29,2.29,0,0,1,2.36-2,2.26,2.26,0,0,1,2.35,2.16,2,2,0,0,1-.21.89.39.39,0,0,0,.06.45,2.5,2.5,0,0,1,.69,1.71,2.39,2.39,0,0,1-.27,1.11.43.43,0,0,0,.05.46A3,3,0,0,1,251.32,77.43Z"/><path class="cls-4" d="M393,75.07a3.55,3.55,0,0,0,.24-1.24,3.3,3.3,0,0,0-.72-2,2.69,2.69,0,0,0,.19-1,3.19,3.19,0,0,0-6.35-.15c0,.05,0,.1,0,.15a2.69,2.69,0,0,0,.19,1,3.36,3.36,0,0,0-.71,2,3.15,3.15,0,0,0,.24,1.24,1.09,1.09,0,0,1-.1.11,3.94,3.94,0,0,0-.73,2.25,4.13,4.13,0,0,0,3.86,4V85l.82,0V81.42a4.14,4.14,0,0,0,3.9-4A3.83,3.83,0,0,0,393,75.07Zm-3.47,5.55a3.35,3.35,0,0,1-3.47-3.19,3,3,0,0,1,.58-1.76,2.61,2.61,0,0,1,.22-.27.41.41,0,0,0,.06-.46,2.29,2.29,0,0,1-.28-1.11,2.5,2.5,0,0,1,.69-1.71.39.39,0,0,0,.06-.45,2.05,2.05,0,0,1-.22-.89v-.12a2.29,2.29,0,0,1,2.36-2,2.26,2.26,0,0,1,2.35,2.16,2,2,0,0,1-.21.89.39.39,0,0,0,.06.45,2.5,2.5,0,0,1,.69,1.71,2.39,2.39,0,0,1-.27,1.11.43.43,0,0,0,.05.46,3,3,0,0,1,.8,2A3.35,3.35,0,0,1,389.53,80.62Z"/><path class="cls-5" d="M393,77.43a3.48,3.48,0,0,1-6.94,0,3,3,0,0,1,.58-1.76,2.61,2.61,0,0,1,.22-.27.41.41,0,0,0,.06-.46,2.29,2.29,0,0,1-.28-1.11,2.5,2.5,0,0,1,.69-1.71.39.39,0,0,0,.06-.45,2.05,2.05,0,0,1-.22-.89v-.12a2.29,2.29,0,0,1,2.36-2,2.26,2.26,0,0,1,2.35,2.16,2,2,0,0,1-.21.89.39.39,0,0,0,.06.45,2.5,2.5,0,0,1,.69,1.71,2.39,2.39,0,0,1-.27,1.11.43.43,0,0,0,.05.46A3,3,0,0,1,393,77.43Z"/><path class="cls-3" d="M70.34,88.11a3.27,3.27,0,0,0,3.39,3.12A3.48,3.48,0,0,0,76.44,90a4.81,4.81,0,0,1-2.61-4.21,4.7,4.7,0,0,1,1.07-3,4,4,0,0,1-.34-1.59,3.88,3.88,0,0,1,.24-1.35,2.47,2.47,0,0,0-1.07-.25,2.25,2.25,0,0,0-2.33,2.13,2,2,0,0,0,.22.89.32.32,0,0,1-.05.36,2.45,2.45,0,0,0-.67,1.68,2.37,2.37,0,0,0,.26,1.1.32.32,0,0,1,0,.36A3,3,0,0,0,70.34,88.11Z"/><path class="cls-3" d="M74.47,85.76a4.6,4.6,0,0,0,9.16,0,4,4,0,0,0-.77-2.34,3.07,3.07,0,0,0-.28-.35.34.34,0,0,1,0-.37,3.24,3.24,0,0,0,.36-1.49A3.36,3.36,0,0,0,82,78.93a.34.34,0,0,1,0-.37,2.7,2.7,0,0,0,.29-1.21V77.2a3.19,3.19,0,0,0-6.34.15,2.7,2.7,0,0,0,.29,1.21.34.34,0,0,1,0,.37,3.36,3.36,0,0,0-.91,2.28,3.24,3.24,0,0,0,.36,1.49.34.34,0,0,1,0,.37A4.06,4.06,0,0,0,74.47,85.76Z"/><path class="cls-4" d="M69.69,88.11a3.88,3.88,0,0,0,3.73,3.75v4l.65,0v-4a4.1,4.1,0,0,0,3-1.61,5.26,5.26,0,0,0,1.69.36l0,5.25.58,0h.06v-5.3a5,5,0,0,0,4.89-4.85A4.63,4.63,0,0,0,83.39,83l-.19-.24a3.82,3.82,0,0,0,.34-1.59,4,4,0,0,0-.94-2.56,3.26,3.26,0,0,0,.27-1.3,1.09,1.09,0,0,0,0-.18,3.83,3.83,0,0,0-7.63.18,3.26,3.26,0,0,0,.27,1.3,4.83,4.83,0,0,0-.42.62,3.13,3.13,0,0,0-1.35-.3,2.88,2.88,0,0,0-3,2.77,2.55,2.55,0,0,0,.19,1,3.07,3.07,0,0,0-.46,3.14A3.6,3.6,0,0,0,69.69,88.11Zm4.78-2.35a4.06,4.06,0,0,1,1-2.69.34.34,0,0,0,0-.37,3.24,3.24,0,0,1-.36-1.49,3.36,3.36,0,0,1,.91-2.28.34.34,0,0,0,0-.37,2.7,2.7,0,0,1-.29-1.21,3.19,3.19,0,0,1,6.34-.15v.15a2.7,2.7,0,0,1-.29,1.21.34.34,0,0,0,0,.37,3.36,3.36,0,0,1,.91,2.28,3.24,3.24,0,0,1-.36,1.49.34.34,0,0,0,0,.37,3.07,3.07,0,0,1,.28.35,4,4,0,0,1,.77,2.34,4.6,4.6,0,0,1-9.16,0Zm-4.13,2.35a3,3,0,0,1,.77-2,.32.32,0,0,0,0-.36,2.37,2.37,0,0,1-.26-1.1A2.45,2.45,0,0,1,71.57,83a.32.32,0,0,0,.05-.36,2,2,0,0,1-.22-.89,2.25,2.25,0,0,1,2.33-2.13,2.47,2.47,0,0,1,1.07.25,3.88,3.88,0,0,0-.24,1.35,4,4,0,0,0,.34,1.59,4.7,4.7,0,0,0-1.07,3A4.81,4.81,0,0,0,76.44,90a3.48,3.48,0,0,1-2.71,1.26A3.27,3.27,0,0,1,70.34,88.11Z"/><path class="cls-4" d="M55.82,73.58a2.75,2.75,0,0,0,.19-1A2.59,2.59,0,0,0,55.44,71a2.17,2.17,0,0,0,.15-.79,2.51,2.51,0,0,0-5-.12s0,.08,0,.12a2.17,2.17,0,0,0,.15.79,2.65,2.65,0,0,0-.56,1.61,2.55,2.55,0,0,0,.19,1l-.08.09a3.08,3.08,0,0,0-.57,1.77,3.26,3.26,0,0,0,3,3.14v2.81l.64,0V78.58a3.25,3.25,0,0,0,3.07-3.14A3,3,0,0,0,55.82,73.58ZM53.09,78a2.64,2.64,0,0,1-2.74-2.51,2.34,2.34,0,0,1,.46-1.39l.17-.21a.32.32,0,0,0,.05-.36,1.82,1.82,0,0,1-.22-.88,2,2,0,0,1,.54-1.34.32.32,0,0,0,0-.36,1.6,1.6,0,0,1-.17-.7v-.09a1.8,1.8,0,0,1,1.86-1.61,1.78,1.78,0,0,1,1.85,1.7,1.6,1.6,0,0,1-.17.7.32.32,0,0,0,0,.36,2,2,0,0,1,.54,1.34,1.93,1.93,0,0,1-.21.88.34.34,0,0,0,0,.36,2.38,2.38,0,0,1,.63,1.6A2.64,2.64,0,0,1,53.09,78Z"/><path class="cls-5" d="M55.82,75.44a2.75,2.75,0,0,1-5.47,0,2.34,2.34,0,0,1,.46-1.39l.17-.21a.32.32,0,0,0,.05-.36,1.82,1.82,0,0,1-.22-.88,2,2,0,0,1,.54-1.34.32.32,0,0,0,0-.36,1.6,1.6,0,0,1-.17-.7v-.09a1.8,1.8,0,0,1,1.86-1.61,1.78,1.78,0,0,1,1.85,1.7,1.6,1.6,0,0,1-.17.7.32.32,0,0,0,0,.36,2,2,0,0,1,.54,1.34,1.93,1.93,0,0,1-.21.88.34.34,0,0,0,0,.36A2.38,2.38,0,0,1,55.82,75.44Z"/><path class="cls-4" d="M108.39,75.07a3.55,3.55,0,0,0,.24-1.24,3.31,3.31,0,0,0-.73-2,2.69,2.69,0,0,0,.19-1,3.19,3.19,0,0,0-6.35-.15c0,.05,0,.1,0,.15a2.91,2.91,0,0,0,.19,1,3.42,3.42,0,0,0-.71,2,3.34,3.34,0,0,0,.24,1.24,1.09,1.09,0,0,1-.1.11,3.93,3.93,0,0,0-.72,2.25,4.13,4.13,0,0,0,3.86,4V85l.81,0V81.42a4.13,4.13,0,0,0,3.9-4A3.82,3.82,0,0,0,108.39,75.07Zm-3.47,5.55a3.35,3.35,0,0,1-3.48-3.19,3,3,0,0,1,.58-1.76l.22-.27a.41.41,0,0,0,.06-.46,2.29,2.29,0,0,1-.28-1.11,2.55,2.55,0,0,1,.69-1.71.39.39,0,0,0,.06-.45,2,2,0,0,1-.21-.89v-.12a2.37,2.37,0,0,1,4.71.12,2.05,2.05,0,0,1-.22.89.4.4,0,0,0,.07.45,2.54,2.54,0,0,1,.68,1.71,2.39,2.39,0,0,1-.27,1.11.43.43,0,0,0,.06.46,3,3,0,0,1,.8,2A3.36,3.36,0,0,1,104.92,80.62Z"/><path class="cls-5" d="M108.39,77.43a3.49,3.49,0,0,1-7,0,3,3,0,0,1,.58-1.76l.22-.27a.41.41,0,0,0,.06-.46,2.29,2.29,0,0,1-.28-1.11,2.55,2.55,0,0,1,.69-1.71.39.39,0,0,0,.06-.45,2,2,0,0,1-.21-.89v-.12a2.37,2.37,0,0,1,4.71.12,2.05,2.05,0,0,1-.22.89.4.4,0,0,0,.07.45,2.54,2.54,0,0,1,.68,1.71,2.39,2.39,0,0,1-.27,1.11.43.43,0,0,0,.06.46A3,3,0,0,1,108.39,77.43Z"/></g></svg>