<svg id="Layer_1" data-name="Layer 1" xmlns="http://www.w3.org/2000/svg" xmlns:xlink="http://www.w3.org/1999/xlink" width="450" height="450" viewBox="0 0 450 450"><defs><style>.cls-1,.cls-2,.cls-3,.cls-5{fill:none;}.cls-2{stroke:#231f20;stroke-width:2.16px;}.cls-3,.cls-5{stroke:#000;stroke-miterlimit:10;}.cls-3{stroke-width:4.25px;}.cls-4{fill:url(#_10_lpi_30_);}.cls-5{stroke-width:1.42px;}</style><pattern id="_10_lpi_30_" data-name="10 lpi 30%" width="72" height="72" patternTransform="matrix(0.27, -0.27, 0.27, 0.27, 86.16, 114.14)" patternUnits="userSpaceOnUse" viewBox="0 0 72 72"><rect class="cls-1" width="72" height="72"/><line class="cls-2" x1="71.75" y1="68.4" x2="144.25" y2="68.4"/><line class="cls-2" x1="71.75" y1="54" x2="144.25" y2="54"/><line class="cls-2" x1="71.75" y1="39.6" x2="144.25" y2="39.6"/><line class="cls-2" x1="71.75" y1="25.2" x2="144.25" y2="25.2"/><line class="cls-2" x1="71.75" y1="10.8" x2="144.25" y2="10.8"/><line class="cls-2" x1="71.75" y1="61.2" x2="144.25" y2="61.2"/><line class="cls-2" x1="71.75" y1="46.8" x2="144.25" y2="46.8"/><line class="cls-2" x1="71.75" y1="32.4" x2="144.25" y2="32.4"/><line class="cls-2" x1="71.75" y1="18" x2="144.25" y2="18"/><line class="cls-2" x1="71.75" y1="3.6" x2="144.25" y2="3.6"/><line class="cls-2" x1="-0.25" y1="68.4" x2="72.25" y2="68.4"/><line class="cls-2" x1="-0.25" y1="54" x2="72.25" y2="54"/><line class="cls-2" x1="-0.25" y1="39.6" x2="72.25" y2="39.6"/><line class="cls-2" x1="-0.25" y1="25.2" x2="72.25" y2="25.2"/><line class="cls-2" x1="-0.25" y1="10.8" x2="72.25" y2="10.8"/><line class="cls-2" x1="-0.25" y1="61.2" x2="72.25" y2="61.2"/><line class="cls-2" x1="-0.25" y1="46.8" x2="72.25" y2="46.8"/><line class="cls-2" x1="-0.25" y1="32.4" x2="72.25" y2="32.4"/><line class="cls-2" x1="-0.25" y1="18" x2="72.25" y2="18"/><line class="cls-2" x1="-0.25" y1="3.6" x2="72.25" y2="3.6"/><line class="cls-2" x1="-72.25" y1="68.4" x2="0.25" y2="68.4"/><line class="cls-2" x1="-72.25" y1="54" x2="0.25" y2="54"/><line class="cls-2" x1="-72.25" y1="39.6" x2="0.25" y2="39.6"/><line class="cls-2" x1="-72.25" y1="25.2" x2="0.25" y2="25.2"/><line class="cls-2" x1="-72.25" y1="10.8" x2="0.25" y2="10.8"/><line class="cls-2" x1="-72.25" y1="61.2" x2="0.25" y2="61.2"/><line class="cls-2" x1="-72.25" y1="46.8" x2="0.25" y2="46.8"/><line class="cls-2" x1="-72.25" y1="32.4" x2="0.25" y2="32.4"/><line class="cls-2" x1="-72.25" y1="18" x2="0.25" y2="18"/><line class="cls-2" x1="-72.25" y1="3.6" x2="0.25" y2="3.6"/></pattern></defs><title>diagrams</title><path d="M125.72,209.14H122l-.89,2.56h-1.37l3.58-9.95h1.16L128,211.7H126.6ZM122.37,208h3l-1.45-4.27h0Z"/><path d="M135.57,208.29a4.1,4.1,0,0,1-.77,2.58,2.55,2.55,0,0,1-2.12,1,2.72,2.72,0,0,1-1.28-.29,2.46,2.46,0,0,1-.9-.86l-.22,1h-1V201h1.35v4.14a2.38,2.38,0,0,1,.86-.75,2.73,2.73,0,0,1,1.21-.26,2.46,2.46,0,0,1,2.13,1.1,4.88,4.88,0,0,1,.77,2.87Zm-1.35-.15a4.09,4.09,0,0,0-.47-2.07,1.52,1.52,0,0,0-1.42-.8,1.76,1.76,0,0,0-1.05.3,2,2,0,0,0-.68.82v3.2a2.19,2.19,0,0,0,.68.86,1.77,1.77,0,0,0,1.06.3,1.61,1.61,0,0,0,1.42-.67,3.11,3.11,0,0,0,.46-1.79Z"/><path d="M136.89,207.94a4.09,4.09,0,0,1,.89-2.71,3.3,3.3,0,0,1,4.85,0,4.09,4.09,0,0,1,.89,2.71v.15a4.09,4.09,0,0,1-.89,2.71,3.3,3.3,0,0,1-4.84,0,4,4,0,0,1-.9-2.7Zm1.35.15a3.52,3.52,0,0,0,.5,1.94,1.78,1.78,0,0,0,2.93,0,3.52,3.52,0,0,0,.5-1.94v-.15a3.54,3.54,0,0,0-.5-1.94,1.66,1.66,0,0,0-1.47-.77,1.62,1.62,0,0,0-1.46.77,3.54,3.54,0,0,0-.5,1.94Z"/><path d="M147.53,209.52l.12.52h0l.13-.52,1.7-5.21h1.37l-2.72,7.39h-1l-2.75-7.39h1.38Z"/><path d="M155.08,211.85a3.15,3.15,0,0,1-2.49-1,3.94,3.94,0,0,1-.89-2.68v-.3a3.88,3.88,0,0,1,.92-2.64,2.89,2.89,0,0,1,2.25-1,2.69,2.69,0,0,1,2.22.92,3.8,3.8,0,0,1,.74,2.46v.71H153.1l0,0a3.1,3.1,0,0,0,.49,1.81,1.74,1.74,0,0,0,1.51.7,3.43,3.43,0,0,0,1.2-.2,2.61,2.61,0,0,0,.88-.54l.53.88a3.23,3.23,0,0,1-1.05.64A4,4,0,0,1,155.08,211.85Zm-.21-6.62a1.48,1.48,0,0,0-1.17.54,2.53,2.53,0,0,0-.56,1.4v0h3.34v-.11a2.17,2.17,0,0,0-.4-1.33A1.43,1.43,0,0,0,154.87,205.23Z"/><path d="M163.54,208h-4V207h4Z"/><path d="M165.41,208.14a4.88,4.88,0,0,1,.77-2.87,2.43,2.43,0,0,1,2.13-1.1,2.69,2.69,0,0,1,1.23.28,2.52,2.52,0,0,1,.9.82l.16-1h1.08v7.44a2.83,2.83,0,0,1-.83,2.18,3.4,3.4,0,0,1-2.39.76,4.91,4.91,0,0,1-1.15-.15,4.49,4.49,0,0,1-1.09-.39l.21-1.05a3.56,3.56,0,0,0,.94.33,4.43,4.43,0,0,0,1.08.13,2,2,0,0,0,1.43-.45,1.84,1.84,0,0,0,.45-1.36v-.85a2.38,2.38,0,0,1-.87.71,2.72,2.72,0,0,1-1.17.24,2.52,2.52,0,0,1-2.11-1,4.1,4.1,0,0,1-.77-2.58Zm1.35.15a3.11,3.11,0,0,0,.46,1.79,1.58,1.58,0,0,0,1.41.67,1.8,1.8,0,0,0,1-.27,2.12,2.12,0,0,0,.68-.79v-3.4a2.14,2.14,0,0,0-.68-.75,1.8,1.8,0,0,0-1-.27,1.52,1.52,0,0,0-1.43.8,4.07,4.07,0,0,0-.46,2.07Z"/><path d="M177.11,205.5l-.69,0a1.52,1.52,0,0,0-.9.25,1.61,1.61,0,0,0-.56.71v5.28h-1.35v-7.39h1.2l.13,1.08a2.65,2.65,0,0,1,.78-.9,1.84,1.84,0,0,1,1.06-.32l.29,0,.22.06Z"/><path d="M178.06,207.94a4.09,4.09,0,0,1,.89-2.71,3.29,3.29,0,0,1,4.84,0,4,4,0,0,1,.89,2.71v.15a4.09,4.09,0,0,1-.88,2.71,3.31,3.31,0,0,1-4.85,0,4,4,0,0,1-.89-2.7Zm1.35.15a3.51,3.51,0,0,0,.49,1.94,1.79,1.79,0,0,0,2.94,0,3.52,3.52,0,0,0,.5-1.94v-.15a3.46,3.46,0,0,0-.51-1.94,1.78,1.78,0,0,0-2.93,0,3.54,3.54,0,0,0-.49,1.94Z"/><path d="M191,210.61a2.49,2.49,0,0,1-.9.92,2.46,2.46,0,0,1-1.26.32,2.39,2.39,0,0,1-1.89-.77,3.61,3.61,0,0,1-.68-2.41v-4.36h1.35v4.37a2.79,2.79,0,0,0,.35,1.63,1.28,1.28,0,0,0,1.09.44,2.15,2.15,0,0,0,1.18-.29,1.79,1.79,0,0,0,.71-.82v-5.33h1.35v7.39h-1.21Z"/><path d="M195.49,204.31l.1,1.1a2.58,2.58,0,0,1,.92-.91,2.48,2.48,0,0,1,1.27-.33,2.38,2.38,0,0,1,1.85.7,3.08,3.08,0,0,1,.66,2.17v4.66h-1.35v-4.64a2,2,0,0,0-.38-1.38,1.53,1.53,0,0,0-1.18-.41,2.16,2.16,0,0,0-1.06.24,1.72,1.72,0,0,0-.68.71v5.48h-1.35v-7.39Z"/><path d="M201.94,208.14a4.88,4.88,0,0,1,.76-2.87,2.46,2.46,0,0,1,2.14-1.1,2.66,2.66,0,0,1,1.15.24,2.4,2.4,0,0,1,.86.7V201h1.34V211.7h-1l-.2-.93a2.45,2.45,0,0,1-.9.8,2.61,2.61,0,0,1-1.24.28,2.55,2.55,0,0,1-2.12-1,4.1,4.1,0,0,1-.76-2.58Zm1.34.15a3.19,3.19,0,0,0,.46,1.79,1.6,1.6,0,0,0,1.42.67,1.82,1.82,0,0,0,1-.27,2.16,2.16,0,0,0,.67-.76v-3.46a2.27,2.27,0,0,0-.68-.73,1.82,1.82,0,0,0-1-.26,1.51,1.51,0,0,0-1.43.8,4.07,4.07,0,0,0-.47,2.07Z"/><path d="M94.44,226a1.51,1.51,0,0,0-.48-1.14,4.27,4.27,0,0,0-1.71-.78A5.69,5.69,0,0,1,89.88,223a2.3,2.3,0,0,1-.85-1.83,2.45,2.45,0,0,1,.91-1.95,3.57,3.57,0,0,1,2.38-.78,3.46,3.46,0,0,1,2.51.89,2.69,2.69,0,0,1,.9,2.08l0,0H94.43a1.86,1.86,0,0,0-.59-1.4,2.14,2.14,0,0,0-1.52-.55,2,2,0,0,0-1.44.46,1.5,1.5,0,0,0-.5,1.18,1.32,1.32,0,0,0,.55,1.09,5,5,0,0,0,1.78.76A5,5,0,0,1,95,224.11a2.47,2.47,0,0,1,.79,1.87,2.35,2.35,0,0,1-1,1.94,4,4,0,0,1-2.47.73,4.16,4.16,0,0,1-2.54-.81,2.44,2.44,0,0,1-1.07-2.16v0h1.28a1.68,1.68,0,0,0,.72,1.45,2.65,2.65,0,0,0,1.6.51,2.43,2.43,0,0,0,1.52-.44A1.37,1.37,0,0,0,94.44,226Z"/><path d="M99.39,219.32v1.79h1.4v1h-1.4v4.49a1,1,0,0,0,.21.73.77.77,0,0,0,.57.21l.26,0a1,1,0,0,0,.24-.07l.18.93a1.13,1.13,0,0,1-.44.2,2.38,2.38,0,0,1-.58.08,1.76,1.76,0,0,1-1.31-.5A2.16,2.16,0,0,1,98,226.6v-4.49H96.86v-1H98v-1.79Z"/><path d="M105.73,222.3l-.69,0a1.52,1.52,0,0,0-.9.25,1.61,1.61,0,0,0-.56.71v5.28h-1.35v-7.39h1.2l.13,1.08a2.65,2.65,0,0,1,.78-.9,1.84,1.84,0,0,1,1.06-.32l.29,0,.22.06Z"/><path d="M111.83,227.41a2.56,2.56,0,0,1-.9.92,2.46,2.46,0,0,1-1.26.32,2.39,2.39,0,0,1-1.89-.77,3.61,3.61,0,0,1-.68-2.41v-4.36h1.35v4.37a2.79,2.79,0,0,0,.35,1.63,1.28,1.28,0,0,0,1.09.44,2.15,2.15,0,0,0,1.18-.29,1.79,1.79,0,0,0,.71-.82v-5.33h1.35v7.39h-1.21Z"/><path d="M118,227.6a1.56,1.56,0,0,0,1.08-.42,1.29,1.29,0,0,0,.47-1h1.22l0,0a2.17,2.17,0,0,1-.82,1.7,3.14,3.14,0,0,1-4.38-.32,4.14,4.14,0,0,1-.85-2.64v-.29a4.13,4.13,0,0,1,.85-2.63A2.94,2.94,0,0,1,118,221a2.78,2.78,0,0,1,2,.77,2.44,2.44,0,0,1,.77,1.88l0,0h-1.22a1.63,1.63,0,0,0-.44-1.15A1.46,1.46,0,0,0,118,222a1.57,1.57,0,0,0-1.45.77,3.61,3.61,0,0,0-.45,1.86V225a3.76,3.76,0,0,0,.44,1.88A1.57,1.57,0,0,0,118,227.6Z"/><path d="M124.29,219.32v1.79h1.4v1h-1.4v4.49a1,1,0,0,0,.21.73.8.8,0,0,0,.57.21l.26,0a1,1,0,0,0,.24-.07l.19.93a1.18,1.18,0,0,1-.45.2,2.32,2.32,0,0,1-.58.08,1.74,1.74,0,0,1-1.3-.5,2.12,2.12,0,0,1-.49-1.55v-4.49h-1.17v-1h1.17v-1.79Z"/><path d="M131.83,227.41a2.49,2.49,0,0,1-.9.92,2.46,2.46,0,0,1-1.26.32,2.39,2.39,0,0,1-1.89-.77,3.61,3.61,0,0,1-.68-2.41v-4.36h1.35v4.37a2.79,2.79,0,0,0,.35,1.63,1.29,1.29,0,0,0,1.09.44,2.13,2.13,0,0,0,1.18-.29,1.73,1.73,0,0,0,.71-.82v-5.33h1.35v7.39h-1.21Z"/><path d="M138.59,222.3l-.69,0a1.52,1.52,0,0,0-.9.25,1.61,1.61,0,0,0-.56.71v5.28h-1.35v-7.39h1.2l.13,1.08a2.65,2.65,0,0,1,.78-.9,1.84,1.84,0,0,1,1.06-.32l.29,0,.22.06Z"/><path d="M142.92,228.65a3.11,3.11,0,0,1-2.48-1,3.89,3.89,0,0,1-.89-2.68v-.3a3.83,3.83,0,0,1,.92-2.64,2.89,2.89,0,0,1,2.24-1,2.71,2.71,0,0,1,2.23.92,3.86,3.86,0,0,1,.74,2.46v.71H141l0,0a3,3,0,0,0,.49,1.81,1.73,1.73,0,0,0,1.5.7,3.35,3.35,0,0,0,1.2-.2,2.65,2.65,0,0,0,.89-.54l.52.88a3.18,3.18,0,0,1-1,.64A4.09,4.09,0,0,1,142.92,228.65Zm-.21-6.62a1.45,1.45,0,0,0-1.16.54A2.61,2.61,0,0,0,141,224l0,0h3.33v-.11a2.16,2.16,0,0,0-.39-1.33A1.46,1.46,0,0,0,142.71,222Z"/><path d="M146.88,224.94a5,5,0,0,1,.76-2.87,2.46,2.46,0,0,1,2.14-1.1,2.63,2.63,0,0,1,1.15.24,2.32,2.32,0,0,1,.86.7v-4.07h1.35V228.5h-1l-.2-.93a2.38,2.38,0,0,1-.9.8,2.8,2.8,0,0,1-3.35-.7,4.1,4.1,0,0,1-.77-2.58Zm1.35.15a3.11,3.11,0,0,0,.46,1.79,1.59,1.59,0,0,0,1.42.67,1.79,1.79,0,0,0,1-.27,2.07,2.07,0,0,0,.67-.76v-3.46a2.24,2.24,0,0,0-.67-.73,1.8,1.8,0,0,0-1-.26,1.53,1.53,0,0,0-1.43.79,4.13,4.13,0,0,0-.46,2.08Z"/><path d="M160.16,224.51v4h-1.35v-9.95h3.81a3.5,3.5,0,0,1,2.48.82,3.1,3.1,0,0,1,0,4.33,3.54,3.54,0,0,1-2.48.81Zm0-1h2.46a1.8,1.8,0,0,0,2-1.91,2,2,0,0,0-.5-1.39,2,2,0,0,0-1.51-.55h-2.46Z"/><path d="M172,228.5c-.05-.22-.08-.42-.11-.59a4.38,4.38,0,0,1,0-.51,3.24,3.24,0,0,1-1,.89,2.53,2.53,0,0,1-1.31.36,2.45,2.45,0,0,1-1.76-.59,2.2,2.2,0,0,1-.6-1.63,1.89,1.89,0,0,1,.86-1.66,4,4,0,0,1,2.32-.6h1.47v-.73a1.38,1.38,0,0,0-.4-1,1.57,1.57,0,0,0-1.12-.38,1.62,1.62,0,0,0-1.06.33,1,1,0,0,0-.4.79h-1.28l0,0a1.78,1.78,0,0,1,.76-1.48,3.1,3.1,0,0,1,2.07-.67,3,3,0,0,1,2,.64,2.27,2.27,0,0,1,.76,1.84V227c0,.27,0,.52,0,.77a4.18,4.18,0,0,0,.15.72Zm-2.24-1a2.4,2.4,0,0,0,1.32-.38,1.78,1.78,0,0,0,.77-.86v-1.2h-1.51a2,2,0,0,0-1.31.41,1.23,1.23,0,0,0-.49,1,1,1,0,0,0,.31.78A1.31,1.31,0,0,0,169.76,227.52Z"/><path d="M178.65,222.3l-.69,0a1.52,1.52,0,0,0-.9.25,1.62,1.62,0,0,0-.57.71v5.28h-1.34v-7.39h1.2l.13,1.08a2.65,2.65,0,0,1,.78-.9,1.82,1.82,0,0,1,1.06-.32l.29,0,.22.06Z"/><path d="M182.09,225.09h-.69v3.41h-1.34V217.84h1.34V224h.68l2.22-2.91h1.61l-2.68,3.41,2.92,4h-1.6Z"/><path d="M188.68,219.21h-1.34v-1.37h1.34Zm0,9.29h-1.34v-7.39h1.34Z"/><path d="M192,221.11l.09,1.1a2.69,2.69,0,0,1,.93-.91,2.72,2.72,0,0,1,3.12.37,3.08,3.08,0,0,1,.66,2.17v4.66h-1.35v-4.64a2,2,0,0,0-.39-1.38,1.51,1.51,0,0,0-1.18-.41,2.14,2.14,0,0,0-1.05.24,1.81,1.81,0,0,0-.69.71v5.48h-1.35v-7.39Z"/><path d="M198.47,224.94a5,5,0,0,1,.76-2.87,2.46,2.46,0,0,1,2.13-1.1,2.7,2.7,0,0,1,1.24.28,2.6,2.6,0,0,1,.9.82l.16-1h1.07v7.44a2.83,2.83,0,0,1-.82,2.18,3.4,3.4,0,0,1-2.39.76,4.91,4.91,0,0,1-1.15-.15,4.11,4.11,0,0,1-1.09-.4l.2-1a3.69,3.69,0,0,0,.94.33,4.57,4.57,0,0,0,1.09.13,2,2,0,0,0,1.43-.45,1.84,1.84,0,0,0,.45-1.36v-.85a2.38,2.38,0,0,1-.87.71,2.72,2.72,0,0,1-1.17.24,2.55,2.55,0,0,1-2.12-1,4.16,4.16,0,0,1-.76-2.58Zm1.35.15a3.11,3.11,0,0,0,.46,1.79,1.57,1.57,0,0,0,1.41.67,1.8,1.8,0,0,0,1-.27,2.21,2.21,0,0,0,.68-.79v-3.4a2.24,2.24,0,0,0-.68-.75,1.8,1.8,0,0,0-1-.27,1.53,1.53,0,0,0-1.43.79,4.13,4.13,0,0,0-.46,2.08Z"/><path d="M208.14,222.52h-1.35v-1.38h1.35Zm0,6h-1.35v-1.38h1.35Z"/><path d="M100,242.73a1.39,1.39,0,0,0-.43-1,3.8,3.8,0,0,0-1.44-.78,4.91,4.91,0,0,1-2.08-1.12,2.48,2.48,0,0,1-.71-1.85A2.62,2.62,0,0,1,96,236.1a2.82,2.82,0,0,1,1.79-.86v-1.51h1.08v1.52a2.58,2.58,0,0,1,1.77.94,3.25,3.25,0,0,1,.63,2.1H100a2.18,2.18,0,0,0-.43-1.41,1.44,1.44,0,0,0-1.19-.54,1.43,1.43,0,0,0-1.61,1.57,1.45,1.45,0,0,0,.42,1.08,4.08,4.08,0,0,0,1.49.78,5.13,5.13,0,0,1,2.07,1.12,2.44,2.44,0,0,1,.68,1.83,2.5,2.5,0,0,1-.7,1.87,3.12,3.12,0,0,1-1.94.82v1.32H97.67v-1.31a3.14,3.14,0,0,1-1.93-.86,2.8,2.8,0,0,1-.72-2.15v0h1.3a1.88,1.88,0,0,0,.53,1.5,2,2,0,0,0,1.3.45,2.07,2.07,0,0,0,1.38-.42A1.45,1.45,0,0,0,100,242.73Z"/><path d="M106.23,239.64a1.61,1.61,0,0,0,1.28-.44,1.91,1.91,0,0,0,.37-1.26,1.77,1.77,0,0,0-.4-1.21,1.54,1.54,0,0,0-1.21-.46,1.81,1.81,0,0,0-1.29.48,1.59,1.59,0,0,0-.51,1.21h-1.28l0-.05A2.38,2.38,0,0,1,104,236a3.25,3.25,0,0,1,2.26-.79,3.13,3.13,0,0,1,2.17.7,2.6,2.6,0,0,1,.79,2.06,2.27,2.27,0,0,1-.37,1.27,2.49,2.49,0,0,1-1,.9,2.39,2.39,0,0,1,1.15.91,3,3,0,0,1-.48,3.62,3.2,3.2,0,0,1-2.24.78,3.56,3.56,0,0,1-2.24-.75,2.29,2.29,0,0,1-.93-2v0h1.29a1.61,1.61,0,0,0,.52,1.22,1.89,1.89,0,0,0,1.35.5,1.66,1.66,0,0,0,1.29-.51,1.87,1.87,0,0,0,.47-1.33,2,2,0,0,0-.43-1.41,1.84,1.84,0,0,0-1.37-.46h-1.1v-1.05Z"/><path d="M117.27,241.79a3.91,3.91,0,0,1-.86,2.67,3.18,3.18,0,0,1-4.61,0,3.87,3.87,0,0,1-.87-2.67v-2.93a3.94,3.94,0,0,1,.86-2.66,3.18,3.18,0,0,1,4.61,0,3.89,3.89,0,0,1,.87,2.66Zm-1.35-3.21a2.69,2.69,0,0,0-.48-1.69,1.62,1.62,0,0,0-1.35-.62,1.59,1.59,0,0,0-1.34.62,2.76,2.76,0,0,0-.47,1.69v3.48a2.76,2.76,0,0,0,.48,1.71,1.59,1.59,0,0,0,1.34.63,1.57,1.57,0,0,0,1.35-.63,2.82,2.82,0,0,0,.47-1.71Z"/><path d="M120.19,245l-1,2.09h-.8l.48-2.16v-1.12h1.34Z"/><path d="M127.91,241.79a3.86,3.86,0,0,1-.86,2.67,2.89,2.89,0,0,1-2.3,1,2.92,2.92,0,0,1-2.31-1,3.87,3.87,0,0,1-.87-2.67v-2.93a3.94,3.94,0,0,1,.86-2.66,2.89,2.89,0,0,1,2.3-1,2.93,2.93,0,0,1,2.32,1,3.94,3.94,0,0,1,.86,2.66Zm-1.35-3.21a2.69,2.69,0,0,0-.47-1.69,1.62,1.62,0,0,0-1.36-.62,1.6,1.6,0,0,0-1.34.62,2.76,2.76,0,0,0-.47,1.69v3.48a2.76,2.76,0,0,0,.48,1.71,1.6,1.6,0,0,0,1.35.63,1.57,1.57,0,0,0,1.34-.63,2.76,2.76,0,0,0,.47-1.71Z"/><path d="M135.79,241.79a3.91,3.91,0,0,1-.85,2.67,3.19,3.19,0,0,1-4.62,0,3.86,3.86,0,0,1-.86-2.67v-2.93a3.93,3.93,0,0,1,.85-2.66,3.19,3.19,0,0,1,4.62,0,3.89,3.89,0,0,1,.86,2.66Zm-1.34-3.21a2.69,2.69,0,0,0-.48-1.69,1.78,1.78,0,0,0-2.7,0,2.76,2.76,0,0,0-.47,1.69v3.48a2.7,2.7,0,0,0,.49,1.71,1.58,1.58,0,0,0,1.34.63,1.6,1.6,0,0,0,1.35-.63,2.82,2.82,0,0,0,.47-1.71Z"/><path d="M143.68,241.79a3.91,3.91,0,0,1-.86,2.67,3.19,3.19,0,0,1-4.62,0,3.91,3.91,0,0,1-.86-2.67v-2.93a3.89,3.89,0,0,1,.86-2.66,2.89,2.89,0,0,1,2.3-1,2.92,2.92,0,0,1,2.31,1,3.89,3.89,0,0,1,.87,2.66Zm-1.35-3.21a2.69,2.69,0,0,0-.48-1.69,1.62,1.62,0,0,0-1.35-.62,1.59,1.59,0,0,0-1.34.62,2.69,2.69,0,0,0-.47,1.69v3.48a2.76,2.76,0,0,0,.48,1.71,1.75,1.75,0,0,0,2.69,0,2.82,2.82,0,0,0,.47-1.71Z"/><path d="M155.21,241.89a4.1,4.1,0,0,1-.77,2.58,2.53,2.53,0,0,1-2.11,1,3,3,0,0,1-1.2-.23,2.26,2.26,0,0,1-.88-.69v3.62H148.9V237.91h1l.21,1a2.49,2.49,0,0,1,.9-.81,2.66,2.66,0,0,1,1.26-.28,2.45,2.45,0,0,1,2.14,1.09,5,5,0,0,1,.76,2.88Zm-1.35-.15a3.88,3.88,0,0,0-.49-2.06,1.63,1.63,0,0,0-1.46-.82,1.8,1.8,0,0,0-1,.27,1.92,1.92,0,0,0-.66.72v3.57a1.92,1.92,0,0,0,.66.72,1.9,1.9,0,0,0,1,.26,1.66,1.66,0,0,0,1.45-.71,3,3,0,0,0,.49-1.8Z"/><path d="M159.92,245.45a3.11,3.11,0,0,1-2.48-1,3.89,3.89,0,0,1-.89-2.68v-.3a3.83,3.83,0,0,1,.92-2.64,2.89,2.89,0,0,1,2.24-1,2.71,2.71,0,0,1,2.23.92,3.86,3.86,0,0,1,.74,2.46v.71H158l0,0a3,3,0,0,0,.49,1.81,1.73,1.73,0,0,0,1.5.7,3.35,3.35,0,0,0,1.2-.2,2.65,2.65,0,0,0,.89-.54l.53.88a3.55,3.55,0,0,1-1,.65A4.26,4.26,0,0,1,159.92,245.45Zm-.21-6.62a1.45,1.45,0,0,0-1.16.54,2.61,2.61,0,0,0-.57,1.4l0,0h3.33v-.11a2.16,2.16,0,0,0-.39-1.33A1.46,1.46,0,0,0,159.71,238.83Z"/><path d="M167.69,239.1l-.69,0a1.52,1.52,0,0,0-.9.25,1.66,1.66,0,0,0-.56.71v5.28h-1.35v-7.39h1.2l.13,1.08a2.65,2.65,0,0,1,.78-.9,1.84,1.84,0,0,1,1.06-.32,1.36,1.36,0,0,1,.29,0,.9.9,0,0,1,.22,0Z"/><path d="M176.87,243.32a.9.9,0,0,0-.34-.73,3.15,3.15,0,0,0-1.28-.49,5.43,5.43,0,0,1-2-.79,1.6,1.6,0,0,1-.7-1.35,2,2,0,0,1,.77-1.55,3.07,3.07,0,0,1,2-.64,3,3,0,0,1,2,.68,2,2,0,0,1,.75,1.6l0,0h-1.28a1.17,1.17,0,0,0-.42-.87,1.51,1.51,0,0,0-1.06-.39,1.57,1.57,0,0,0-1.07.32,1,1,0,0,0-.35.77.79.79,0,0,0,.3.67,3.43,3.43,0,0,0,1.26.44,5.1,5.1,0,0,1,2.06.82,1.63,1.63,0,0,1,.71,1.37,2,2,0,0,1-.8,1.61,3.3,3.3,0,0,1-2.08.62,3.25,3.25,0,0,1-2.23-.72,2,2,0,0,1-.77-1.67V243h1.29a1.24,1.24,0,0,0,.53,1.05,2.07,2.07,0,0,0,1.17.34,1.84,1.84,0,0,0,1.12-.31A.93.93,0,0,0,176.87,243.32Z"/><path d="M186.19,241.89a4.1,4.1,0,0,1-.76,2.58,2.55,2.55,0,0,1-2.11,1,3,3,0,0,1-1.2-.23,2.19,2.19,0,0,1-.88-.69v3.62h-1.35V237.91h1l.22,1a2.49,2.49,0,0,1,.9-.81,2.66,2.66,0,0,1,1.26-.28,2.45,2.45,0,0,1,2.13,1.09,4.93,4.93,0,0,1,.76,2.88Zm-1.34-.15a3.88,3.88,0,0,0-.5-2.06,1.61,1.61,0,0,0-1.46-.82,1.79,1.79,0,0,0-1,.27,1.92,1.92,0,0,0-.66.72v3.57a1.92,1.92,0,0,0,.66.72,1.9,1.9,0,0,0,1,.26,1.67,1.67,0,0,0,1.45-.71,3.11,3.11,0,0,0,.49-1.8Z"/><path d="M192.4,245.3a5.88,5.88,0,0,1-.11-.59,4.4,4.4,0,0,1,0-.51,3.12,3.12,0,0,1-1,.89,2.47,2.47,0,0,1-1.3.36,2.43,2.43,0,0,1-1.76-.59,2.2,2.2,0,0,1-.6-1.63,1.91,1.91,0,0,1,.85-1.66,4,4,0,0,1,2.33-.6h1.46v-.73a1.37,1.37,0,0,0-.39-1,1.58,1.58,0,0,0-1.12-.38,1.62,1.62,0,0,0-1.06.33,1,1,0,0,0-.41.78L188,240l0,0a1.78,1.78,0,0,1,.76-1.48,3.09,3.09,0,0,1,2.07-.67,3,3,0,0,1,2,.64,2.27,2.27,0,0,1,.76,1.84v3.56a6.4,6.4,0,0,0,0,.77,4.18,4.18,0,0,0,.15.72Zm-2.24-1a2.4,2.4,0,0,0,1.32-.38,1.71,1.71,0,0,0,.76-.86v-1.2h-1.51a2,2,0,0,0-1.3.41,1.23,1.23,0,0,0-.49,1,1,1,0,0,0,.31.78A1.31,1.31,0,0,0,190.16,244.32Z"/><path d="M198.49,244.4a1.56,1.56,0,0,0,1.08-.42,1.29,1.29,0,0,0,.47-1h1.21l0,0a2.11,2.11,0,0,1-.82,1.7,3.13,3.13,0,0,1-4.37-.32,4.08,4.08,0,0,1-.85-2.64v-.29a4.13,4.13,0,0,1,.85-2.63,2.94,2.94,0,0,1,2.41-1.06,2.78,2.78,0,0,1,2,.77,2.4,2.4,0,0,1,.76,1.88v0H200a1.63,1.63,0,0,0-.44-1.15,1.46,1.46,0,0,0-1.11-.48,1.57,1.57,0,0,0-1.45.77,3.61,3.61,0,0,0-.45,1.86v.29a3.66,3.66,0,0,0,.44,1.88A1.57,1.57,0,0,0,198.49,244.4Z"/><path d="M205.94,245.45a3.15,3.15,0,0,1-2.49-1,3.94,3.94,0,0,1-.89-2.68v-.3a3.88,3.88,0,0,1,.92-2.64,2.89,2.89,0,0,1,2.25-1,2.69,2.69,0,0,1,2.22.92,3.86,3.86,0,0,1,.74,2.46v.71H204l0,0a3,3,0,0,0,.49,1.81,1.74,1.74,0,0,0,1.51.7,3.43,3.43,0,0,0,1.2-.2,2.61,2.61,0,0,0,.88-.54l.53.88a3.43,3.43,0,0,1-1.05.65A4.24,4.24,0,0,1,205.94,245.45Zm-.21-6.62a1.48,1.48,0,0,0-1.17.54,2.53,2.53,0,0,0-.56,1.4v0h3.34v-.11a2.17,2.17,0,0,0-.4-1.33A1.44,1.44,0,0,0,205.73,238.83Z"/><path d="M374.53,138V85.15m0-4.24V46.11A2,2,0,0,0,372.41,44H306.63a2,2,0,0,0-2.12,2.12V191.8h2.64a2.12,2.12,0,1,0,0,4.24h67v-4.46h.43V142.23m-4.24,49.57H308.76V48.23h61.53Z"/><path d="M376.68,295.69h-2.54V193.64a1.71,1.71,0,0,0-1.81-1.81H310.9c.22,1.22.48,2.43.74,3.62h58.88v50.06H359.11a6.43,6.43,0,0,0,1.27-2.71H362a1.72,1.72,0,0,0,1.81-1.82V209.83A1.71,1.71,0,0,0,362,208H328.32a1.71,1.71,0,0,0-1.82,1.81V216H326a12.33,12.33,0,0,0-12.32,12.32V241a1.72,1.72,0,0,0,1.82,1.82h2a6.2,6.2,0,0,0,1.27,2.71H307.18v3.63h63.34v46.55H357.66a8.41,8.41,0,0,0,2.9-4.17h1.63a1.71,1.71,0,0,0,1.81-1.81V258.37a1.72,1.72,0,0,0-1.81-1.81H328.32a1.72,1.72,0,0,0-1.82,1.81v6.16H326a12.34,12.34,0,0,0-12.32,12.32v12.68a1.72,1.72,0,0,0,1.82,1.81h2a7.37,7.37,0,0,0,2.9,4.17h-9.91v3.8h66.24a1.72,1.72,0,0,0,1.81-1.81A1.81,1.81,0,0,0,376.68,295.69Zm-52.17-51.08a3.63,3.63,0,1,1,3.62-3.63A3.63,3.63,0,0,1,324.51,244.61Zm5.8.9a13,13,0,0,0,1.27-2.71h15a6.2,6.2,0,0,0,1.27,2.71Zm23.18-.9a3.63,3.63,0,1,1,3.63-3.63A3.63,3.63,0,0,1,353.49,244.61Zm-.18-10.69a7.37,7.37,0,0,0-7.06,5.43h-15a7.37,7.37,0,0,0-7.06-5.43c-3.44,0-5.8,2.17-6.88,5.25V228.31a8.69,8.69,0,0,1,8.69-8.7h2.36a1.71,1.71,0,0,0,1.81-1.81v-6.16h30.06v27.17A7.06,7.06,0,0,0,353.31,233.92Zm-36,54V277a8.69,8.69,0,0,1,8.69-8.69h2.36a1.72,1.72,0,0,0,1.81-1.82v-6.15h30.06v27.17a7.07,7.07,0,0,0-6.88-4.9,7.38,7.38,0,0,0-7.06,5.44h-15a7.38,7.38,0,0,0-7.06-5.44C320.71,282.64,318.35,284.82,317.27,287.9Zm7.24,5.43a3.62,3.62,0,1,1,3.62-3.62A3.63,3.63,0,0,1,324.51,293.33Zm4.17,2.36a8.41,8.41,0,0,0,2.9-4.17h15a7.37,7.37,0,0,0,2.9,4.17Zm24.81-2.36a3.62,3.62,0,1,1,3.63-3.62A3.63,3.63,0,0,1,353.49,293.33Z"/><path d="M371,394.26h2.67V297.17a1.71,1.71,0,0,0-1.81-1.81H310.4c.22,1.23.48,2.43.74,3.62H370v45.1H358.61a6.43,6.43,0,0,0,1.27-2.71h1.63a1.72,1.72,0,0,0,1.81-1.81V308.4a1.71,1.71,0,0,0-1.81-1.81H327.82A1.71,1.71,0,0,0,326,308.4v6.16h-.54a12.33,12.33,0,0,0-12.32,12.32v12.68a1.72,1.72,0,0,0,1.82,1.81h2a6.2,6.2,0,0,0,1.27,2.71H306.56v3.63H370v46.55H357.16a8.41,8.41,0,0,0,2.9-4.17h1.63a1.71,1.71,0,0,0,1.81-1.81V356.94a1.72,1.72,0,0,0-1.81-1.81H327.82a1.72,1.72,0,0,0-1.82,1.81v6.16h-.54a12.34,12.34,0,0,0-12.32,12.32V388.1a1.71,1.71,0,0,0,1.82,1.81h2a7.37,7.37,0,0,0,2.9,4.17H307.17v3.8H371a1.71,1.71,0,0,0,1.81-1.81A1.81,1.81,0,0,0,371,394.26Zm-47-51.08a3.63,3.63,0,1,1,3.62-3.62A3.63,3.63,0,0,1,324,343.18Zm5.8.9a13,13,0,0,0,1.27-2.71h15a6.2,6.2,0,0,0,1.27,2.71Zm23.18-.9a3.63,3.63,0,1,1,3.63-3.62A3.63,3.63,0,0,1,353,343.18Zm-.18-10.69a7.38,7.38,0,0,0-7.06,5.44h-15a7.38,7.38,0,0,0-7.06-5.44c-3.44,0-5.8,2.18-6.88,5.25V326.88a8.7,8.7,0,0,1,8.69-8.7h2.36a1.71,1.71,0,0,0,1.81-1.81v-6.16h30.06v27.17A7.06,7.06,0,0,0,352.81,332.49Zm-36,54V375.6a8.69,8.69,0,0,1,8.69-8.69h2.36a1.72,1.72,0,0,0,1.81-1.81v-6.16h30.06v27.17a7.06,7.06,0,0,0-6.88-4.89,7.37,7.37,0,0,0-7.06,5.43h-15a7.37,7.37,0,0,0-7.06-5.43C320.21,381.22,317.85,383.39,316.77,386.47ZM324,391.9a3.62,3.62,0,1,1,3.62-3.62A3.63,3.63,0,0,1,324,391.9Zm4.17,2.36a8.41,8.41,0,0,0,2.9-4.17h15a7.37,7.37,0,0,0,2.9,4.17ZM353,391.9a3.62,3.62,0,1,1,3.63-3.62A3.63,3.63,0,0,1,353,391.9Z"/><path d="M326.79,56.93h-9.33a2,2,0,0,0-2.13,2.12V76.24a2,2,0,0,0,2.13,2.12h9.33a2,2,0,0,0,2.12-2.12V59.05A2.28,2.28,0,0,0,326.79,56.93Zm-2.12,17.19h-5.09v-13h5.09Z"/><path d="M344,56.93h-9.34a2,2,0,0,0-2.12,2.12V76.24a2,2,0,0,0,2.12,2.12H344a2,2,0,0,0,2.12-2.12V59.05A2.28,2.28,0,0,0,344,56.93Zm-2.12,17.19h-5.1v-13h5.1Z"/><path d="M361,56.93h-9.33a2,2,0,0,0-2.12,2.12V76.24a2,2,0,0,0,2.12,2.12H361a2,2,0,0,0,2.13-2.12V59.05A2.13,2.13,0,0,0,361,56.93Zm-2.12,17.19h-5.09v-13h5.09Z"/><path d="M326.79,82.39h-9.33a2,2,0,0,0-2.13,2.12V101.7a2,2,0,0,0,2.13,2.12h9.33a2,2,0,0,0,2.12-2.12V84.51A2.13,2.13,0,0,0,326.79,82.39Zm-2.12,17.19h-5.09V86.64h5.09Z"/><path d="M344,82.39h-9.34a2,2,0,0,0-2.12,2.12V101.7a2,2,0,0,0,2.12,2.12H344a2,2,0,0,0,2.12-2.12V84.51A2.13,2.13,0,0,0,344,82.39Zm-2.12,17.19h-5.1V86.64h5.1Z"/><path d="M361,82.39h-9.33a2,2,0,0,0-2.12,2.12V101.7a2,2,0,0,0,2.12,2.12H361a2,2,0,0,0,2.13-2.12V84.51A2,2,0,0,0,361,82.39Zm-2.12,17.19h-5.09V86.64h5.09Z"/><path d="M326.79,107.43h-9.33a2,2,0,0,0-2.13,2.12v17.19a2,2,0,0,0,2.13,2.12h9.33a2,2,0,0,0,2.12-2.12V109.55A2.13,2.13,0,0,0,326.79,107.43Zm-2.12,17.19h-5.09v-13h5.09Z"/><path d="M344,107.43h-9.34a2,2,0,0,0-2.12,2.12v17.19a2,2,0,0,0,2.12,2.12H344a2,2,0,0,0,2.12-2.12V109.55A2.13,2.13,0,0,0,344,107.43Zm-2.12,17.19h-5.1v-13h5.1Z"/><path d="M361,107.43h-9.33a2,2,0,0,0-2.12,2.12v17.19a2,2,0,0,0,2.12,2.12H361a2,2,0,0,0,2.13-2.12V109.55A2,2,0,0,0,361,107.43Zm-2.12,17.19h-5.09v-13h5.09Z"/><path d="M326.79,132.68h-9.33a2,2,0,0,0-2.13,2.12V152a2,2,0,0,0,2.13,2.12h9.33a2,2,0,0,0,2.12-2.12V134.8A2.28,2.28,0,0,0,326.79,132.68Zm-2.12,17.19h-5.09v-13h5.09Z"/><path d="M344,132.68h-9.34a2,2,0,0,0-2.12,2.12V152a2,2,0,0,0,2.12,2.12H344A2,2,0,0,0,346.1,152V134.8A2.28,2.28,0,0,0,344,132.68Zm-2.12,17.19h-5.1v-13h5.1Z"/><path d="M361,132.68h-9.33a2,2,0,0,0-2.12,2.12V152a2,2,0,0,0,2.12,2.12H361a2,2,0,0,0,2.13-2.12V134.8A2.13,2.13,0,0,0,361,132.68Zm-2.12,17.19h-5.09v-13h5.09Z"/><path d="M326.79,157.72h-9.33a2,2,0,0,0-2.13,2.12V177a2,2,0,0,0,2.13,2.12h9.33a2,2,0,0,0,2.12-2.12V159.84A2.28,2.28,0,0,0,326.79,157.72Zm-2.12,17.18h-5.09V162h5.09Z"/><path d="M344,157.72h-9.34a2,2,0,0,0-2.12,2.12V177a2,2,0,0,0,2.12,2.12H344A2,2,0,0,0,346.1,177V159.84A2.28,2.28,0,0,0,344,157.72Zm-2.12,17.18h-5.1V162h5.1Z"/><path d="M361,157.72h-9.33a2,2,0,0,0-2.12,2.12V177a2,2,0,0,0,2.12,2.12H361a2,2,0,0,0,2.13-2.12V159.84A2.13,2.13,0,0,0,361,157.72Zm-2.12,17.18h-5.09V162h5.09Z"/><line class="cls-3" x1="433.42" y1="297.54" x2="246.28" y2="297.54"/><line class="cls-3" x1="372.41" y1="179.49" x2="372.41" y2="397.88"/><line class="cls-3" x1="306.63" y1="179.49" x2="306.63" y2="397.61"/><polygon class="cls-4" points="373.28 297.06 373.28 396.07 306.17 396.07 306.17 297.06 246.55 297.06 246.55 429.59 433.52 429.59 433.52 297.06 373.28 297.06"/><line class="cls-5" x1="216.74" y1="225.5" x2="296.66" y2="225.5"/><polygon points="291.97 231.29 291 230.26 296.12 225.5 291 220.74 291.97 219.7 298.2 225.5 291.97 231.29"/><path d="M37.52,65.61h-4l-1,2.75H31.08l3.84-10.67h1.24l3.77,10.67H38.45Zm-3.6-1.21h3.19l-1.56-4.58h0Z"/><path d="M47,58.52v1.91h1.5V61.5H47v4.81a1.13,1.13,0,0,0,.23.79.83.83,0,0,0,.61.22l.28,0,.26-.07.19,1a1.21,1.21,0,0,1-.47.22,2.7,2.7,0,0,1-.62.08,1.87,1.87,0,0,1-1.4-.53,2.31,2.31,0,0,1-.52-1.67V61.5H44.33V60.43h1.26V58.52Z"/><path d="M55,68.36c-.05-.24-.09-.45-.12-.64a4.91,4.91,0,0,1,0-.55,3.47,3.47,0,0,1-1,1,2.78,2.78,0,0,1-1.4.38,2.63,2.63,0,0,1-1.89-.63,2.36,2.36,0,0,1-.64-1.75,2,2,0,0,1,.92-1.78,4.33,4.33,0,0,1,2.49-.64h1.57v-.78a1.42,1.42,0,0,0-.43-1.1,1.66,1.66,0,0,0-1.2-.41,1.73,1.73,0,0,0-1.13.35,1.07,1.07,0,0,0-.44.84l-1.37,0v-.05A1.87,1.87,0,0,1,51,61a3.33,3.33,0,0,1,2.22-.72,3.26,3.26,0,0,1,2.17.69,2.41,2.41,0,0,1,.82,2v3.82a7.27,7.27,0,0,0,0,.82,5.4,5.4,0,0,0,.16.78Zm-2.4-1.06A2.56,2.56,0,0,0,54,66.9a2,2,0,0,0,.82-.92V64.69H53.17a2.08,2.08,0,0,0-1.4.44,1.29,1.29,0,0,0-.52,1,1.07,1.07,0,0,0,.33.83A1.35,1.35,0,0,0,52.55,67.3Z"/><path d="M59.88,68.36H58.44V56.93h1.44Z"/><path d="M63.66,68.36H62.22V56.93h1.44Z"/><path d="M69.16,68.51a3.35,3.35,0,0,1-2.66-1.09,4.2,4.2,0,0,1-1-2.87v-.32a4.12,4.12,0,0,1,1-2.83,3.12,3.12,0,0,1,2.41-1.12,2.87,2.87,0,0,1,2.38,1,4.08,4.08,0,0,1,.8,2.63v.76H67.05l0,0a3.3,3.3,0,0,0,.52,1.94,1.85,1.85,0,0,0,1.61.74,3.63,3.63,0,0,0,1.29-.21,3,3,0,0,0,1-.57l.56.94a3.45,3.45,0,0,1-1.12.69A4.41,4.41,0,0,1,69.16,68.51Zm-.22-7.09a1.55,1.55,0,0,0-1.25.58,2.83,2.83,0,0,0-.61,1.49l0,0h3.57v-.12A2.35,2.35,0,0,0,70.25,62,1.56,1.56,0,0,0,68.94,61.42Z"/><path d="M77.48,61.71l-.74-.05a1.65,1.65,0,0,0-1,.27,1.76,1.76,0,0,0-.6.76v5.67H73.73V60.43H75l.14,1.16a2.81,2.81,0,0,1,.83-1,2,2,0,0,1,1.14-.35,1.55,1.55,0,0,1,.31,0l.24,0Z"/><path d="M89.48,64.69a4.35,4.35,0,0,1-.82,2.77,2.73,2.73,0,0,1-2.27,1.05A2.83,2.83,0,0,1,85,68.2a2.66,2.66,0,0,1-1-.92l-.23,1.08H82.71V56.93h1.45v4.44a2.55,2.55,0,0,1,.92-.81,2.93,2.93,0,0,1,1.3-.28,2.65,2.65,0,0,1,2.28,1.18,5.24,5.24,0,0,1,.82,3.08ZM88,64.54a4.4,4.4,0,0,0-.5-2.22A1.65,1.65,0,0,0,86,61.46a1.92,1.92,0,0,0-1.12.32,2.26,2.26,0,0,0-.73.88v3.43a2.34,2.34,0,0,0,.73.92,1.87,1.87,0,0,0,1.13.33,1.71,1.71,0,0,0,1.52-.73,3.33,3.33,0,0,0,.5-1.92Z"/><path d="M96.27,67.18a2.69,2.69,0,0,1-1,1,2.6,2.6,0,0,1-1.35.34,2.54,2.54,0,0,1-2-.83,3.8,3.8,0,0,1-.73-2.58V60.43h1.44v4.69A2.94,2.94,0,0,0,93,66.86a1.37,1.37,0,0,0,1.16.48A2.44,2.44,0,0,0,95.46,67a1.9,1.9,0,0,0,.76-.89V60.43h1.44v7.93H96.37Z"/><path d="M101.32,58.4H99.88V56.93h1.44Zm0,10H99.88V60.43h1.44Z"/><path d="M105.1,68.36h-1.44V56.93h1.44Z"/><path d="M107,64.54a5.32,5.32,0,0,1,.82-3.08,2.64,2.64,0,0,1,2.29-1.18,2.85,2.85,0,0,1,1.23.26,2.46,2.46,0,0,1,.92.75V56.93h1.45V68.36h-1.11l-.22-1a2.65,2.65,0,0,1-1,.87,2.93,2.93,0,0,1-1.33.29,2.73,2.73,0,0,1-2.27-1.05,4.41,4.41,0,0,1-.82-2.77Zm1.45.15a3.37,3.37,0,0,0,.49,1.93,1.7,1.7,0,0,0,1.52.72,1.86,1.86,0,0,0,1.08-.3,2,2,0,0,0,.72-.82V62.53a2.08,2.08,0,0,0-.72-.78,1.83,1.83,0,0,0-1.06-.29,1.65,1.65,0,0,0-1.54.85,4.44,4.44,0,0,0-.49,2.23Z"/><path d="M117.41,58.4H116V56.93h1.44Zm0,10H116V60.43h1.44Z"/><path d="M120.92,60.43l.1,1.18a2.81,2.81,0,0,1,1-1,2.67,2.67,0,0,1,1.36-.35,2.56,2.56,0,0,1,2,.76,3.32,3.32,0,0,1,.7,2.31v5h-1.44v-5a2.09,2.09,0,0,0-.42-1.48,1.62,1.62,0,0,0-1.26-.44,2.3,2.3,0,0,0-1.13.26,2,2,0,0,0-.74.75v5.89h-1.44V60.43Z"/><path d="M127.9,64.54a5.32,5.32,0,0,1,.81-3.08A2.65,2.65,0,0,1,131,60.28a2.8,2.8,0,0,1,1.32.31,2.65,2.65,0,0,1,1,.87l.18-1h1.15v8a3,3,0,0,1-.89,2.34,3.66,3.66,0,0,1-2.56.82,5.62,5.62,0,0,1-1.23-.16,5.18,5.18,0,0,1-1.17-.43l.22-1.12a4.38,4.38,0,0,0,1,.36,5.16,5.16,0,0,0,1.16.13,2.09,2.09,0,0,0,1.53-.48,2,2,0,0,0,.48-1.46v-.9a2.57,2.57,0,0,1-.93.75,2.91,2.91,0,0,1-1.25.26,2.72,2.72,0,0,1-2.27-1.05,4.41,4.41,0,0,1-.81-2.77Zm1.44.15a3.33,3.33,0,0,0,.49,1.92,1.69,1.69,0,0,0,1.52.73,1.89,1.89,0,0,0,1.09-.3,2.3,2.3,0,0,0,.72-.84V62.56a2.18,2.18,0,0,0-.72-.81,2,2,0,0,0-1.08-.29,1.64,1.64,0,0,0-1.53.85,4.44,4.44,0,0,0-.49,2.23Z"/><path d="M142.44,65.47l.18,1h0l.19-1,1.59-5h1.15l1.59,5,.21,1.14h0l.24-1.14,1.17-5h1.51l-2.3,7.93h-1.17l-1.57-4.83-.3-1.26h0l-.28,1.26-1.54,4.83H142l-2.3-7.93h1.5Z"/><path d="M153.32,58.4h-1.44V56.93h1.44Zm0,10h-1.44V60.43h1.44Z"/><path d="M157.55,58.52v1.91h1.5V61.5h-1.5v4.81a1.08,1.08,0,0,0,.23.79.82.82,0,0,0,.61.22l.28,0,.25-.07.2,1a1.34,1.34,0,0,1-.48.22,2.64,2.64,0,0,1-.62.08,1.9,1.9,0,0,1-1.4-.53,2.35,2.35,0,0,1-.52-1.67V61.5h-1.26V60.43h1.26V58.52Z"/><path d="M162,61.49a2.94,2.94,0,0,1,1-.89,2.8,2.8,0,0,1,1.32-.32,2.56,2.56,0,0,1,2,.77,3.34,3.34,0,0,1,.7,2.34v5H165.6v-5a2.11,2.11,0,0,0-.42-1.45,1.58,1.58,0,0,0-1.26-.47,2.37,2.37,0,0,0-1.12.25,2,2,0,0,0-.76.71v5.94h-1.45V56.93H162Z"/><path d="M174.13,60.43l.11,1a2.64,2.64,0,0,1,1-.87,2.94,2.94,0,0,1,1.39-.32,2.49,2.49,0,0,1,1.36.37,2.22,2.22,0,0,1,.85,1.1,3.1,3.1,0,0,1,1-1.07,2.64,2.64,0,0,1,1.44-.4,2.37,2.37,0,0,1,1.91.84,3.77,3.77,0,0,1,.7,2.5v4.74h-1.44V63.6a2.71,2.71,0,0,0-.4-1.66,1.49,1.49,0,0,0-1.21-.48,1.51,1.51,0,0,0-1.19.51,2.17,2.17,0,0,0-.54,1.3v5.09h-1.45V63.6a2.59,2.59,0,0,0-.42-1.63,1.43,1.43,0,0,0-1.19-.51,2,2,0,0,0-1.08.27,1.73,1.73,0,0,0-.65.76v5.87h-1.44V60.43Z"/><path d="M190.83,68.36c-.05-.24-.09-.45-.12-.64a4.91,4.91,0,0,1,0-.55,3.39,3.39,0,0,1-1.06,1,2.71,2.71,0,0,1-1.39.38,2.61,2.61,0,0,1-1.89-.63,2.36,2.36,0,0,1-.64-1.75,2.05,2.05,0,0,1,.91-1.78,4.39,4.39,0,0,1,2.5-.64h1.57v-.78a1.45,1.45,0,0,0-.43-1.1,1.66,1.66,0,0,0-1.2-.41,1.78,1.78,0,0,0-1.14.35,1.09,1.09,0,0,0-.43.84l-1.37,0v-.05A1.87,1.87,0,0,1,186.9,61a3.33,3.33,0,0,1,2.22-.72,3.26,3.26,0,0,1,2.17.69,2.44,2.44,0,0,1,.82,2v3.82a7.27,7.27,0,0,0,0,.82,5.4,5.4,0,0,0,.16.78Zm-2.4-1.06a2.58,2.58,0,0,0,1.42-.4,2,2,0,0,0,.82-.92V64.69h-1.62a2.08,2.08,0,0,0-1.4.44,1.29,1.29,0,0,0-.52,1,1.07,1.07,0,0,0,.33.83A1.35,1.35,0,0,0,188.43,67.3Z"/><path d="M195.49,60.43l.1,1.18a2.92,2.92,0,0,1,1-1,2.65,2.65,0,0,1,1.36-.35,2.56,2.56,0,0,1,2,.76,3.27,3.27,0,0,1,.7,2.31v5h-1.44v-5a2.15,2.15,0,0,0-.41-1.48,1.65,1.65,0,0,0-1.27-.44,2.33,2.33,0,0,0-1.13.26,2,2,0,0,0-.73.75v5.89H194.2V60.43Z"/><path d="M205.15,65.42l.26,1h0l2-6H209l-3.34,9.14a4,4,0,0,1-.86,1.39,2,2,0,0,1-1.51.6c-.12,0-.27,0-.45,0l-.41-.08.14-1.14.26,0,.39,0a.89.89,0,0,0,.75-.41,4,4,0,0,0,.49-.91l.35-.83-2.95-7.76h1.61Z"/><path d="M36.23,85.18a2.69,2.69,0,0,1-1,1,2.62,2.62,0,0,1-1.36.34,2.55,2.55,0,0,1-2-.83,3.86,3.86,0,0,1-.72-2.58V78.43h1.44v4.69A3,3,0,0,0,33,84.86a1.39,1.39,0,0,0,1.17.48A2.46,2.46,0,0,0,35.42,85a2,2,0,0,0,.76-.89V78.43h1.44v7.93h-1.3Z"/><path d="M41,78.43l.1,1.18a3,3,0,0,1,1-1,2.7,2.7,0,0,1,1.36-.35,2.56,2.56,0,0,1,2,.76,3.27,3.27,0,0,1,.7,2.31v5H44.71v-5a2.09,2.09,0,0,0-.42-1.48A1.61,1.61,0,0,0,43,79.46a2.33,2.33,0,0,0-1.13.26,2,2,0,0,0-.74.75v5.89H39.72V78.43Z"/><path d="M49.81,76.4H48.36V74.93h1.45Zm0,10H48.36V78.43h1.45Z"/><path d="M54,76.52v1.91h1.5V79.5H54v4.81a1.13,1.13,0,0,0,.23.79.85.85,0,0,0,.61.22l.28,0,.26-.07.2,1a1.34,1.34,0,0,1-.48.22,2.7,2.7,0,0,1-.62.08,1.88,1.88,0,0,1-1.4-.53,2.31,2.31,0,0,1-.52-1.67V79.5H51.33V78.43h1.26V76.52Z"/><path d="M61.69,84.22a1,1,0,0,0-.37-.77A3.47,3.47,0,0,0,60,82.92a5.8,5.8,0,0,1-2.15-.84,1.71,1.71,0,0,1-.75-1.45A2.09,2.09,0,0,1,57.87,79,3.22,3.22,0,0,1,60,78.28a3.18,3.18,0,0,1,2.18.74,2.09,2.09,0,0,1,.8,1.7v0H61.6a1.25,1.25,0,0,0-.45-.93A1.61,1.61,0,0,0,60,79.42a1.64,1.64,0,0,0-1.14.34,1.09,1.09,0,0,0-.38.82.86.86,0,0,0,.33.73,3.57,3.57,0,0,0,1.34.47,5.53,5.53,0,0,1,2.21.87,1.75,1.75,0,0,1,.76,1.47,2.1,2.1,0,0,1-.85,1.72,4.07,4.07,0,0,1-4.62-.1A2.19,2.19,0,0,1,56.83,84v0h1.38A1.38,1.38,0,0,0,58.79,85a2.29,2.29,0,0,0,1.26.35,2,2,0,0,0,1.2-.32A1,1,0,0,0,61.69,84.22Z"/><path d="M70.21,76.4H68.77V74.93h1.44Zm0,10H68.77V78.43h1.44Z"/><path d="M77,84.22a1,1,0,0,0-.36-.77,3.53,3.53,0,0,0-1.38-.53,5.8,5.8,0,0,1-2.15-.84,1.71,1.71,0,0,1-.75-1.45A2.1,2.1,0,0,1,73.23,79a3.61,3.61,0,0,1,4.31,0,2.06,2.06,0,0,1,.8,1.7v0H77a1.25,1.25,0,0,0-.45-.93,1.61,1.61,0,0,0-1.14-.42,1.64,1.64,0,0,0-1.14.34,1.09,1.09,0,0,0-.38.82.86.86,0,0,0,.33.73,3.65,3.65,0,0,0,1.34.47,5.58,5.58,0,0,1,2.22.87,1.77,1.77,0,0,1,.75,1.47,2.08,2.08,0,0,1-.85,1.72,4.07,4.07,0,0,1-4.62-.1A2.19,2.19,0,0,1,72.18,84l0,0h1.37A1.38,1.38,0,0,0,74.14,85a2.29,2.29,0,0,0,1.26.35,2,2,0,0,0,1.2-.32A1,1,0,0,0,77,84.22Z"/><path d="M86,76.52v1.91h1.5V79.5H86v4.81a1.13,1.13,0,0,0,.23.79.83.83,0,0,0,.61.22l.28,0,.26-.07.19,1a1.21,1.21,0,0,1-.47.22,2.7,2.7,0,0,1-.62.08,1.87,1.87,0,0,1-1.4-.53,2.31,2.31,0,0,1-.52-1.67V79.5H83.31V78.43h1.26V76.52Z"/><path d="M91.48,83.42l.26,1h0l2-6h1.6L92,87.57A4.12,4.12,0,0,1,91.14,89a2,2,0,0,1-1.51.6c-.12,0-.27,0-.45,0l-.42-.08.15-1.14.26,0,.38,0a.91.91,0,0,0,.76-.41A4.39,4.39,0,0,0,90.8,87l.34-.83L88.2,78.43h1.61Z"/><path d="M103.35,82.69a4.35,4.35,0,0,1-.82,2.77,2.7,2.7,0,0,1-2.26,1.05A3.06,3.06,0,0,1,99,86.26a2.45,2.45,0,0,1-.94-.73V89.4H96.6v-11h1.11l.22,1a2.63,2.63,0,0,1,1-.88,2.92,2.92,0,0,1,1.35-.3,2.64,2.64,0,0,1,2.29,1.17,5.33,5.33,0,0,1,.81,3.09Zm-1.44-.15a4.24,4.24,0,0,0-.53-2.22,1.73,1.73,0,0,0-1.56-.86,1.94,1.94,0,0,0-1.07.28,2.11,2.11,0,0,0-.71.77v3.83a2.11,2.11,0,0,0,.71.77,2.06,2.06,0,0,0,1.08.27,1.77,1.77,0,0,0,1.55-.75,3.3,3.3,0,0,0,.53-1.94Z"/><path d="M106.69,76.4h-1.45V74.93h1.45Zm0,10h-1.45V78.43h1.45Z"/><path d="M112.05,85.38a1.72,1.72,0,0,0,1.17-.44,1.42,1.42,0,0,0,.5-1.09H115l0,.05a2.27,2.27,0,0,1-.88,1.82,3.12,3.12,0,0,1-2.11.79,3.09,3.09,0,0,1-2.57-1.14,4.32,4.32,0,0,1-.91-2.82v-.31a4.36,4.36,0,0,1,.91-2.82,3.11,3.11,0,0,1,2.57-1.14,3,3,0,0,1,2.18.83,2.58,2.58,0,0,1,.81,2v0h-1.31a1.73,1.73,0,0,0-.48-1.23,1.54,1.54,0,0,0-1.19-.51,1.65,1.65,0,0,0-1.54.82,3.83,3.83,0,0,0-.49,2v.31a3.94,3.94,0,0,0,.48,2A1.66,1.66,0,0,0,112.05,85.38Z"/><path d="M121.63,86.36c0-.24-.09-.45-.12-.64a4.91,4.91,0,0,1,0-.55,3.47,3.47,0,0,1-1,1,2.78,2.78,0,0,1-1.4.38,2.61,2.61,0,0,1-1.89-.63,2.36,2.36,0,0,1-.64-1.75,2.05,2.05,0,0,1,.91-1.78,4.39,4.39,0,0,1,2.5-.64h1.57v-.78a1.45,1.45,0,0,0-.43-1.1,1.66,1.66,0,0,0-1.2-.41,1.73,1.73,0,0,0-1.13.35,1.07,1.07,0,0,0-.44.84l-1.37,0v0A1.87,1.87,0,0,1,117.7,79a3.33,3.33,0,0,1,2.22-.72,3.26,3.26,0,0,1,2.17.69,2.41,2.41,0,0,1,.82,2v3.82a7.27,7.27,0,0,0,0,.82,5.4,5.4,0,0,0,.16.78Zm-2.4-1.06a2.58,2.58,0,0,0,1.42-.4,2,2,0,0,0,.82-.92V82.69h-1.62a2.08,2.08,0,0,0-1.4.44,1.29,1.29,0,0,0-.52,1,1.07,1.07,0,0,0,.33.83A1.35,1.35,0,0,0,119.23,85.3Z"/><path d="M126.56,86.36h-1.44V74.93h1.44Z"/><path d="M130.34,86.36H128.9V74.93h1.44Z"/><path d="M135,83.42l.25,1h0l2-6h1.6l-3.33,9.14a4.12,4.12,0,0,1-.86,1.39,2,2,0,0,1-1.52.6c-.11,0-.26,0-.44,0l-.42-.08.15-1.14.26,0,.38,0a.88.88,0,0,0,.75-.41,4.42,4.42,0,0,0,.5-.91l.34-.83-2.94-7.76h1.61Z"/><path d="M145.12,78.43l.11,1.18a2.81,2.81,0,0,1,1-1,2.67,2.67,0,0,1,1.36-.35,2.56,2.56,0,0,1,2,.76,3.28,3.28,0,0,1,.71,2.31v5h-1.45v-5a2.15,2.15,0,0,0-.41-1.48,1.64,1.64,0,0,0-1.26-.44,2.34,2.34,0,0,0-1.14.26,2,2,0,0,0-.73.75v5.89h-1.45V78.43Z"/><path d="M155.64,86.51A3.34,3.34,0,0,1,153,85.42a4.2,4.2,0,0,1-1-2.87v-.32a4.12,4.12,0,0,1,1-2.83,3.1,3.1,0,0,1,2.4-1.12,2.89,2.89,0,0,1,2.39,1,4.08,4.08,0,0,1,.79,2.63v.76h-5.07l0,0a3.3,3.3,0,0,0,.53,1.94,1.85,1.85,0,0,0,1.61.74,3.63,3.63,0,0,0,1.29-.21,3.12,3.12,0,0,0,.95-.57l.56.94a3.57,3.57,0,0,1-1.12.69A4.44,4.44,0,0,1,155.64,86.51Zm-.23-7.09a1.55,1.55,0,0,0-1.24.58,2.75,2.75,0,0,0-.61,1.49l0,0h3.57v-.12a2.35,2.35,0,0,0-.42-1.43A1.58,1.58,0,0,0,155.41,79.42Z"/><path d="M163.49,86.51a3.34,3.34,0,0,1-2.66-1.09,4.2,4.2,0,0,1-1-2.87v-.32a4.12,4.12,0,0,1,1-2.83,3.12,3.12,0,0,1,2.41-1.12,2.87,2.87,0,0,1,2.38,1,4.08,4.08,0,0,1,.79,2.63v.76h-5.06l0,0a3.3,3.3,0,0,0,.53,1.94,1.85,1.85,0,0,0,1.61.74,3.63,3.63,0,0,0,1.29-.21,3,3,0,0,0,.95-.57l.56.94a3.57,3.57,0,0,1-1.12.69A4.41,4.41,0,0,1,163.49,86.51Zm-.22-7.09A1.55,1.55,0,0,0,162,80a2.83,2.83,0,0,0-.61,1.49l0,0H165v-.12a2.35,2.35,0,0,0-.42-1.43A1.56,1.56,0,0,0,163.27,79.42Z"/><path d="M167.73,82.54a5.32,5.32,0,0,1,.82-3.08,2.64,2.64,0,0,1,2.29-1.18,2.85,2.85,0,0,1,1.23.26,2.46,2.46,0,0,1,.92.75V74.93h1.45V86.36h-1.11l-.22-1a2.65,2.65,0,0,1-1,.87,2.93,2.93,0,0,1-1.33.29,2.73,2.73,0,0,1-2.27-1.05,4.41,4.41,0,0,1-.82-2.77Zm1.45.15a3.37,3.37,0,0,0,.49,1.93,1.7,1.7,0,0,0,1.52.72,1.86,1.86,0,0,0,1.08-.3,2,2,0,0,0,.72-.82V80.53a2.08,2.08,0,0,0-.72-.78,1.83,1.83,0,0,0-1.06-.29,1.65,1.65,0,0,0-1.54.85,4.44,4.44,0,0,0-.49,2.23Z"/><path d="M179.87,86.51a3.33,3.33,0,0,1-2.66-1.09,4.2,4.2,0,0,1-1-2.87v-.32a4.12,4.12,0,0,1,1-2.83,3.1,3.1,0,0,1,2.4-1.12,2.89,2.89,0,0,1,2.39,1,4.08,4.08,0,0,1,.79,2.63v.76h-5.07l0,0a3.3,3.3,0,0,0,.53,1.94,1.85,1.85,0,0,0,1.61.74,3.63,3.63,0,0,0,1.29-.21,3,3,0,0,0,.94-.57l.57.94a3.68,3.68,0,0,1-1.12.69A4.48,4.48,0,0,1,179.87,86.51Zm-.23-7.09a1.57,1.57,0,0,0-1.25.58,2.75,2.75,0,0,0-.6,1.49v0h3.58v-.12A2.29,2.29,0,0,0,181,80,1.54,1.54,0,0,0,179.64,79.42Z"/><path d="M184.11,82.54a5.24,5.24,0,0,1,.82-3.08,2.63,2.63,0,0,1,2.29-1.18,2.85,2.85,0,0,1,1.23.26,2.46,2.46,0,0,1,.92.75V74.93h1.44V86.36h-1.1l-.22-1a2.65,2.65,0,0,1-1,.87,3,3,0,0,1-1.33.29,2.72,2.72,0,0,1-2.27-1.05,4.35,4.35,0,0,1-.82-2.77Zm1.44.15a3.45,3.45,0,0,0,.49,1.93,1.73,1.73,0,0,0,1.53.72,1.86,1.86,0,0,0,1.08-.3,2.15,2.15,0,0,0,.72-.82V80.53a2.26,2.26,0,0,0-.72-.78,1.86,1.86,0,0,0-1.07-.29,1.64,1.64,0,0,0-1.53.85,4.44,4.44,0,0,0-.5,2.23Z"/><path d="M198.7,76.52v1.91h1.5V79.5h-1.5v4.81a1.13,1.13,0,0,0,.23.79.83.83,0,0,0,.61.22l.28,0,.26-.07.19,1a1.21,1.21,0,0,1-.47.22,2.7,2.7,0,0,1-.62.08,1.87,1.87,0,0,1-1.4-.53,2.31,2.31,0,0,1-.52-1.67V79.5H196V78.43h1.26V76.52Z"/><path d="M201.41,82.32a4.4,4.4,0,0,1,1-2.9,3.52,3.52,0,0,1,5.19,0,4.34,4.34,0,0,1,1,2.9v.16a4.36,4.36,0,0,1-.95,2.9,3.54,3.54,0,0,1-5.19,0,4.34,4.34,0,0,1-1-2.9Zm1.44.16a3.8,3.8,0,0,0,.53,2.08,1.92,1.92,0,0,0,3.15,0,3.72,3.72,0,0,0,.53-2.08v-.16a3.7,3.7,0,0,0-.53-2.07,1.91,1.91,0,0,0-3.15,0,3.79,3.79,0,0,0-.53,2.07Z"/><path d="M31.58,103.38a1.72,1.72,0,0,0,1.17-.44,1.42,1.42,0,0,0,.5-1.09h1.3l0,.05a2.27,2.27,0,0,1-.88,1.82,3.14,3.14,0,0,1-2.11.79A3.09,3.09,0,0,1,29,103.37a4.32,4.32,0,0,1-.91-2.82v-.31A4.36,4.36,0,0,1,29,97.42a3.11,3.11,0,0,1,2.57-1.14,3,3,0,0,1,2.17.83,2.56,2.56,0,0,1,.82,2v0H33.25a1.73,1.73,0,0,0-.48-1.23,1.54,1.54,0,0,0-1.19-.51,1.68,1.68,0,0,0-1.55.82,3.92,3.92,0,0,0-.48,2v.31a3.94,3.94,0,0,0,.48,2A1.66,1.66,0,0,0,31.58,103.38Z"/><path d="M36,100.32a4.4,4.4,0,0,1,.95-2.9,3.52,3.52,0,0,1,5.19,0,4.34,4.34,0,0,1,1,2.9v.16a4.32,4.32,0,0,1-1,2.9,3.22,3.22,0,0,1-2.59,1.13,3.25,3.25,0,0,1-2.6-1.13,4.38,4.38,0,0,1-.95-2.9Zm1.44.16a3.8,3.8,0,0,0,.53,2.08,1.92,1.92,0,0,0,3.15,0,3.8,3.8,0,0,0,.53-2.08v-.16a3.71,3.71,0,0,0-.54-2.07,1.9,1.9,0,0,0-3.14,0,3.79,3.79,0,0,0-.53,2.07Z"/><path d="M47.35,102l.12.56h0l.14-.56,1.83-5.59H51L48,104.36H46.94L44,96.43h1.48Z"/><path d="M55.43,104.51a3.34,3.34,0,0,1-2.66-1.09,4.2,4.2,0,0,1-1-2.87v-.32a4.12,4.12,0,0,1,1-2.83,3.1,3.1,0,0,1,2.4-1.12,2.89,2.89,0,0,1,2.39,1,4.08,4.08,0,0,1,.79,2.63v.76H53.31l0,0a3.3,3.3,0,0,0,.53,1.94,1.85,1.85,0,0,0,1.61.74,3.63,3.63,0,0,0,1.29-.21,3.12,3.12,0,0,0,1-.57l.56.94a3.57,3.57,0,0,1-1.12.69A4.44,4.44,0,0,1,55.43,104.51Zm-.23-7.09A1.55,1.55,0,0,0,54,98a2.75,2.75,0,0,0-.61,1.49l0,0h3.57v-.12A2.35,2.35,0,0,0,56.52,98,1.58,1.58,0,0,0,55.2,97.42Z"/><path d="M63.75,97.71l-.74,0a1.65,1.65,0,0,0-1,.27,1.86,1.86,0,0,0-.61.76v5.67H60V96.43h1.29l.14,1.16a2.71,2.71,0,0,1,.83-1,2,2,0,0,1,1.14-.35,1.55,1.55,0,0,1,.31,0l.24,0Z"/><path d="M71,94.52v1.91h1.5V97.5H71v4.81a1.08,1.08,0,0,0,.23.79.83.83,0,0,0,.61.22l.28,0,.25-.07.2,1a1.21,1.21,0,0,1-.47.22,2.72,2.72,0,0,1-.63.08,1.9,1.9,0,0,1-1.4-.53,2.35,2.35,0,0,1-.52-1.67V97.5H68.29V96.43h1.25V94.52Z"/><path d="M75.48,97.49a3,3,0,0,1,1-.89,2.81,2.81,0,0,1,1.33-.32,2.55,2.55,0,0,1,2,.77,3.34,3.34,0,0,1,.71,2.34v5H79v-5a2.11,2.11,0,0,0-.42-1.45,1.57,1.57,0,0,0-1.25-.47,2.32,2.32,0,0,0-1.12.25,2,2,0,0,0-.77.71v5.94H74V92.93h1.45Z"/><path d="M85.84,104.51a3.34,3.34,0,0,1-2.66-1.09,4.2,4.2,0,0,1-1-2.87v-.32a4.12,4.12,0,0,1,1-2.83,3.1,3.1,0,0,1,2.4-1.12,2.89,2.89,0,0,1,2.39,1,4.08,4.08,0,0,1,.79,2.63v.76H83.72l0,0a3.3,3.3,0,0,0,.53,1.94,1.85,1.85,0,0,0,1.61.74,3.63,3.63,0,0,0,1.29-.21,3,3,0,0,0,1-.57l.56.94a3.57,3.57,0,0,1-1.12.69A4.44,4.44,0,0,1,85.84,104.51Zm-.23-7.09a1.55,1.55,0,0,0-1.24.58,2.75,2.75,0,0,0-.61,1.49l0,0h3.57v-.12A2.35,2.35,0,0,0,86.93,98,1.56,1.56,0,0,0,85.61,97.42Z"/><path d="M97.29,103.38a1.71,1.71,0,0,0,1.16-.44,1.39,1.39,0,0,0,.5-1.09h1.31l0,.05a2.3,2.3,0,0,1-.88,1.82,3.16,3.16,0,0,1-2.11.79,3.12,3.12,0,0,1-2.58-1.14,4.38,4.38,0,0,1-.91-2.82v-.31a4.42,4.42,0,0,1,.91-2.82,3.12,3.12,0,0,1,2.58-1.14,3,3,0,0,1,2.17.83,2.59,2.59,0,0,1,.82,2l0,0H99a1.77,1.77,0,0,0-.47-1.23,1.56,1.56,0,0,0-1.19-.51,1.66,1.66,0,0,0-1.55.82,3.92,3.92,0,0,0-.49,2v.31a3.94,3.94,0,0,0,.48,2A1.66,1.66,0,0,0,97.29,103.38Z"/><path d="M101.65,100.32a4.35,4.35,0,0,1,1-2.9,3.17,3.17,0,0,1,2.58-1.14,3.23,3.23,0,0,1,2.61,1.14,4.38,4.38,0,0,1,1,2.9v.16a4.36,4.36,0,0,1-1,2.9,3.54,3.54,0,0,1-5.19,0,4.34,4.34,0,0,1-1-2.9Zm1.45.16a3.72,3.72,0,0,0,.53,2.08,1.75,1.75,0,0,0,1.58.82,1.73,1.73,0,0,0,1.56-.82,3.72,3.72,0,0,0,.54-2.08v-.16a3.71,3.71,0,0,0-.54-2.07,1.77,1.77,0,0,0-1.58-.83,1.73,1.73,0,0,0-1.56.83,3.7,3.7,0,0,0-.53,2.07Z"/><path d="M115.12,102.22a1,1,0,0,0-.36-.77,3.47,3.47,0,0,0-1.37-.53,5.8,5.8,0,0,1-2.15-.84,1.71,1.71,0,0,1-.75-1.45,2.09,2.09,0,0,1,.82-1.66,3.62,3.62,0,0,1,4.32,0,2.09,2.09,0,0,1,.8,1.7l0,0H115a1.25,1.25,0,0,0-.45-.93,1.9,1.9,0,0,0-2.28-.08,1.09,1.09,0,0,0-.38.82.86.86,0,0,0,.33.73,3.5,3.5,0,0,0,1.34.47,5.53,5.53,0,0,1,2.21.87,1.78,1.78,0,0,1,.76,1.47,2.09,2.09,0,0,1-.86,1.72,4.05,4.05,0,0,1-4.61-.1,2.16,2.16,0,0,1-.83-1.79v0h1.38a1.33,1.33,0,0,0,.57,1.13,2.26,2.26,0,0,0,1.25.35,2,2,0,0,0,1.21-.32A1,1,0,0,0,115.12,102.22Z"/><path d="M120.37,94.52v1.91h1.5V97.5h-1.5v4.81a1.08,1.08,0,0,0,.23.79.83.83,0,0,0,.61.22l.28,0,.25-.07.2,1a1.29,1.29,0,0,1-.47.22,2.72,2.72,0,0,1-.63.08,1.9,1.9,0,0,1-1.4-.53,2.35,2.35,0,0,1-.52-1.67V97.5h-1.25V96.43h1.25V94.52Z"/><path d="M126.81,100.32a4.35,4.35,0,0,1,1-2.9,3.17,3.17,0,0,1,2.58-1.14A3.23,3.23,0,0,1,133,97.42a4.38,4.38,0,0,1,1,2.9v.16a4.31,4.31,0,0,1-1,2.9,3.54,3.54,0,0,1-5.19,0,4.33,4.33,0,0,1-1-2.9Zm1.44.16a3.8,3.8,0,0,0,.53,2.08,1.92,1.92,0,0,0,3.15,0,3.8,3.8,0,0,0,.53-2.08v-.16a3.71,3.71,0,0,0-.54-2.07,1.77,1.77,0,0,0-1.58-.83,1.73,1.73,0,0,0-1.56.83,3.79,3.79,0,0,0-.53,2.07Z"/><path d="M136.27,104.36V97.5H135V96.43h1.24v-1a2.72,2.72,0,0,1,.66-2,2.44,2.44,0,0,1,1.85-.69,2.81,2.81,0,0,1,.5,0,4.58,4.58,0,0,1,.56.11l-.17,1.1-.32,0a2.55,2.55,0,0,0-.39,0,1.14,1.14,0,0,0-.94.37,1.68,1.68,0,0,0-.31,1.1v1h1.44V97.5h-1.44v6.86Z"/><path d="M151.1,100.69a4.35,4.35,0,0,1-.82,2.77,2.73,2.73,0,0,1-2.27,1.05,2.8,2.8,0,0,1-1.37-.31,2.66,2.66,0,0,1-1-.92l-.23,1.08h-1.11V92.93h1.45v4.44a2.47,2.47,0,0,1,.92-.81,2.92,2.92,0,0,1,1.29-.28,2.65,2.65,0,0,1,2.29,1.18,5.24,5.24,0,0,1,.82,3.08Zm-1.44-.15a4.4,4.4,0,0,0-.5-2.22,1.65,1.65,0,0,0-1.53-.86,2,2,0,0,0-1.13.32,2.33,2.33,0,0,0-.72.88v3.43a2.32,2.32,0,0,0,.72.92,1.88,1.88,0,0,0,1.14.33,1.71,1.71,0,0,0,1.52-.73,3.33,3.33,0,0,0,.5-1.92Z"/><path d="M157.89,103.18a2.69,2.69,0,0,1-1,1,2.6,2.6,0,0,1-1.35.34,2.57,2.57,0,0,1-2-.83,3.86,3.86,0,0,1-.72-2.58V96.43h1.44v4.69a2.94,2.94,0,0,0,.38,1.74,1.36,1.36,0,0,0,1.16.48,2.44,2.44,0,0,0,1.27-.31,2,2,0,0,0,.76-.89V96.43h1.44v7.93H158Z"/><path d="M162.94,94.4H161.5V92.93h1.44Zm0,10H161.5V96.43h1.44Z"/><path d="M166.72,104.36h-1.44V92.93h1.44Z"/><path d="M168.61,100.54a5.24,5.24,0,0,1,.82-3.08,2.64,2.64,0,0,1,2.29-1.18,2.85,2.85,0,0,1,1.23.26,2.46,2.46,0,0,1,.92.75V92.93h1.44v11.43h-1.1l-.22-1a2.65,2.65,0,0,1-1,.87,2.93,2.93,0,0,1-1.33.29,2.73,2.73,0,0,1-2.27-1.05,4.41,4.41,0,0,1-.82-2.77Zm1.45.15a3.37,3.37,0,0,0,.49,1.93,1.7,1.7,0,0,0,1.52.72,1.86,1.86,0,0,0,1.08-.3,2,2,0,0,0,.72-.82V98.53a2.17,2.17,0,0,0-.72-.78,1.86,1.86,0,0,0-1.07-.29,1.64,1.64,0,0,0-1.53.85,4.44,4.44,0,0,0-.49,2.23Z"/><path d="M179,94.4h-1.45V92.93H179Zm0,10h-1.45V96.43H179Z"/><path d="M182.54,96.43l.1,1.18a2.81,2.81,0,0,1,1-1,2.67,2.67,0,0,1,1.36-.35,2.54,2.54,0,0,1,2,.76,3.28,3.28,0,0,1,.71,2.31v5h-1.45v-5a2.1,2.1,0,0,0-.41-1.48,1.64,1.64,0,0,0-1.26-.44,2.3,2.3,0,0,0-1.13.26,2,2,0,0,0-.74.75v5.89h-1.44V96.43Z"/><path d="M189.52,100.54a5.32,5.32,0,0,1,.81-3.08,2.65,2.65,0,0,1,2.28-1.18,2.81,2.81,0,0,1,1.33.31,2.65,2.65,0,0,1,1,.87l.17-1h1.15v8a3,3,0,0,1-.88,2.34,3.66,3.66,0,0,1-2.56.82,5.62,5.62,0,0,1-1.23-.16,5.18,5.18,0,0,1-1.17-.43l.22-1.12a4.38,4.38,0,0,0,1,.36,5.16,5.16,0,0,0,1.16.13,2.09,2.09,0,0,0,1.53-.48,2,2,0,0,0,.48-1.46v-.9a2.57,2.57,0,0,1-.93.75,2.91,2.91,0,0,1-1.25.26,2.72,2.72,0,0,1-2.27-1.05,4.41,4.41,0,0,1-.81-2.77Zm1.44.15a3.33,3.33,0,0,0,.49,1.92,1.69,1.69,0,0,0,1.52.73,1.91,1.91,0,0,0,1.09-.3,2.3,2.3,0,0,0,.72-.84V98.56a2.27,2.27,0,0,0-.72-.81,2,2,0,0,0-1.08-.29,1.64,1.64,0,0,0-1.53.85,4.44,4.44,0,0,0-.49,2.23Z"/><path d="M206.9,104.36c-.05-.24-.09-.45-.12-.64s0-.36-.05-.55a3.25,3.25,0,0,1-1,1,2.71,2.71,0,0,1-1.39.38,2.6,2.6,0,0,1-1.89-.63,2.36,2.36,0,0,1-.65-1.75,2.06,2.06,0,0,1,.92-1.78,4.39,4.39,0,0,1,2.5-.64h1.56v-.78a1.45,1.45,0,0,0-.42-1.1,1.66,1.66,0,0,0-1.2-.41,1.78,1.78,0,0,0-1.14.35,1.09,1.09,0,0,0-.43.84l-1.37,0v0A1.87,1.87,0,0,1,203,97a3.33,3.33,0,0,1,2.22-.72,3.26,3.26,0,0,1,2.17.69,2.44,2.44,0,0,1,.82,2v3.82a7.27,7.27,0,0,0,0,.82,4.32,4.32,0,0,0,.16.78Zm-2.4-1.06a2.55,2.55,0,0,0,1.41-.4,1.91,1.91,0,0,0,.82-.92v-1.29h-1.61a2.08,2.08,0,0,0-1.4.44,1.29,1.29,0,0,0-.52,1,1.07,1.07,0,0,0,.33.83A1.35,1.35,0,0,0,204.5,103.3Z"/><path d="M33.47,118.54a5.32,5.32,0,0,1,.82-3.08,2.64,2.64,0,0,1,2.29-1.18,2.85,2.85,0,0,1,1.23.26,2.46,2.46,0,0,1,.92.75v-4.36h1.44v11.43h-1.1l-.22-1a2.65,2.65,0,0,1-1,.87,2.93,2.93,0,0,1-1.33.29,2.73,2.73,0,0,1-2.27-1.05,4.41,4.41,0,0,1-.82-2.77Zm1.45.15a3.37,3.37,0,0,0,.49,1.93,1.7,1.7,0,0,0,1.52.72A1.86,1.86,0,0,0,38,121a2,2,0,0,0,.72-.82v-3.69a2.08,2.08,0,0,0-.72-.78,1.86,1.86,0,0,0-1.07-.29,1.64,1.64,0,0,0-1.53.85,4.44,4.44,0,0,0-.49,2.23Z"/><path d="M45.61,122.51A3.33,3.33,0,0,1,43,121.42a4.2,4.2,0,0,1-1-2.87v-.32a4.12,4.12,0,0,1,1-2.83,3.1,3.1,0,0,1,2.4-1.12,2.89,2.89,0,0,1,2.39,1,4.08,4.08,0,0,1,.79,2.63v.76H43.49l0,0a3.3,3.3,0,0,0,.53,1.94,1.85,1.85,0,0,0,1.61.74,3.63,3.63,0,0,0,1.29-.21,3,3,0,0,0,.94-.57l.57.94a3.68,3.68,0,0,1-1.12.69A4.48,4.48,0,0,1,45.61,122.51Zm-.23-7.09a1.57,1.57,0,0,0-1.25.58,2.75,2.75,0,0,0-.6,1.49v0h3.58v-.12a2.29,2.29,0,0,0-.43-1.43A1.54,1.54,0,0,0,45.38,115.42Z"/><path d="M54.79,120.22a.94.94,0,0,0-.37-.77,3.47,3.47,0,0,0-1.37-.53,5.8,5.8,0,0,1-2.15-.84,1.71,1.71,0,0,1-.75-1.45A2.12,2.12,0,0,1,51,115a3.24,3.24,0,0,1,2.14-.69,3.16,3.16,0,0,1,2.18.74,2.09,2.09,0,0,1,.8,1.7v0H54.7a1.25,1.25,0,0,0-.45-.93,1.61,1.61,0,0,0-1.14-.42,1.64,1.64,0,0,0-1.14.34,1.09,1.09,0,0,0-.38.82.86.86,0,0,0,.33.73,3.57,3.57,0,0,0,1.34.47,5.64,5.64,0,0,1,2.22.87,1.77,1.77,0,0,1,.75,1.47,2.1,2.1,0,0,1-.85,1.72,4.07,4.07,0,0,1-4.62-.1,2.19,2.19,0,0,1-.83-1.79l0,0h1.37a1.38,1.38,0,0,0,.57,1.13,2.29,2.29,0,0,0,1.26.35,2,2,0,0,0,1.2-.32A1,1,0,0,0,54.79,120.22Z"/><path d="M59.58,112.4H58.14v-1.47h1.44Zm0,10H58.14v-7.93h1.44Z"/><path d="M65.55,115.71l-.74,0a1.65,1.65,0,0,0-1,.27,1.76,1.76,0,0,0-.6.76v5.67H61.8v-7.93h1.29l.14,1.16a2.81,2.81,0,0,1,.83-1,2,2,0,0,1,1.14-.35,1.55,1.55,0,0,1,.31,0l.24,0Z"/><path d="M70.2,122.51a3.36,3.36,0,0,1-2.67-1.09,4.25,4.25,0,0,1-1-2.87v-.32a4.16,4.16,0,0,1,1-2.83A3.12,3.12,0,0,1,70,114.28a2.87,2.87,0,0,1,2.38,1,4.08,4.08,0,0,1,.8,2.63v.76H68.08l0,0a3.23,3.23,0,0,0,.53,1.94,1.84,1.84,0,0,0,1.61.74,3.58,3.58,0,0,0,1.28-.21,2.9,2.9,0,0,0,1-.57l.56.94a3.45,3.45,0,0,1-1.12.69A4.39,4.39,0,0,1,70.2,122.51ZM70,115.42a1.57,1.57,0,0,0-1.25.58,2.75,2.75,0,0,0-.6,1.49v0h3.58v-.12a2.36,2.36,0,0,0-.43-1.43A1.54,1.54,0,0,0,70,115.42Z"/><path d="M74.44,118.54a5.32,5.32,0,0,1,.81-3.08,2.65,2.65,0,0,1,2.29-1.18,2.86,2.86,0,0,1,1.24.26,2.54,2.54,0,0,1,.92.75v-4.36h1.44v11.43H80l-.22-1a2.65,2.65,0,0,1-1,.87,2.92,2.92,0,0,1-1.32.29,2.71,2.71,0,0,1-2.27-1.05,4.35,4.35,0,0,1-.82-2.77Zm1.44.15a3.37,3.37,0,0,0,.49,1.93,1.72,1.72,0,0,0,1.52.72A1.89,1.89,0,0,0,79,121a2.15,2.15,0,0,0,.72-.82v-3.69a2.19,2.19,0,0,0-.73-.78,1.83,1.83,0,0,0-1.06-.29,1.63,1.63,0,0,0-1.53.85,4.33,4.33,0,0,0-.5,2.23Z"/><path d="M88.31,114.43l.1,1.18a3,3,0,0,1,1-1,2.7,2.7,0,0,1,1.36-.35,2.56,2.56,0,0,1,2,.76,3.27,3.27,0,0,1,.7,2.31v5H92v-5a2.09,2.09,0,0,0-.42-1.48,1.61,1.61,0,0,0-1.26-.44,2.33,2.33,0,0,0-1.13.26,2,2,0,0,0-.74.75v5.89H87v-7.93Z"/><path d="M100.58,121.18a2.69,2.69,0,0,1-1,1,2.62,2.62,0,0,1-1.36.34,2.57,2.57,0,0,1-2-.83,3.86,3.86,0,0,1-.72-2.58v-4.67H97v4.69a3,3,0,0,0,.37,1.74,1.39,1.39,0,0,0,1.17.48,2.46,2.46,0,0,0,1.27-.31,2,2,0,0,0,.76-.89v-5.71H102v7.93h-1.3Z"/><path d="M105.36,114.43l.1,1a2.67,2.67,0,0,1,1-.87,2.94,2.94,0,0,1,1.39-.32,2.46,2.46,0,0,1,1.35.37,2.24,2.24,0,0,1,.86,1.1,2.92,2.92,0,0,1,1-1.07,2.63,2.63,0,0,1,1.43-.4,2.34,2.34,0,0,1,1.91.84,3.77,3.77,0,0,1,.71,2.5v4.74h-1.45V117.6a2.64,2.64,0,0,0-.4-1.66,1.48,1.48,0,0,0-1.2-.48,1.55,1.55,0,0,0-1.2.51,2.29,2.29,0,0,0-.54,1.3v5.09h-1.45V117.6a2.59,2.59,0,0,0-.41-1.63,1.45,1.45,0,0,0-1.19-.51,2,2,0,0,0-1.08.27,1.75,1.75,0,0,0-.66.76v5.87h-1.44v-7.93Z"/><path d="M124,118.69a4.41,4.41,0,0,1-.82,2.77,2.73,2.73,0,0,1-2.27,1.05,2.87,2.87,0,0,1-1.38-.31,2.72,2.72,0,0,1-1-.92l-.23,1.08h-1.11V110.93h1.44v4.44a2.58,2.58,0,0,1,.93-.81,2.92,2.92,0,0,1,1.29-.28,2.65,2.65,0,0,1,2.29,1.18,5.24,5.24,0,0,1,.82,3.08Zm-1.44-.15a4.29,4.29,0,0,0-.51-2.22,1.63,1.63,0,0,0-1.52-.86,2,2,0,0,0-1.13.32,2.45,2.45,0,0,0-.73.88v3.43a2.43,2.43,0,0,0,.73.92,1.88,1.88,0,0,0,1.14.33,1.71,1.71,0,0,0,1.52-.73,3.33,3.33,0,0,0,.5-1.92Z"/><path d="M129,122.51a3.33,3.33,0,0,1-2.66-1.09,4.2,4.2,0,0,1-1-2.87v-.32a4.16,4.16,0,0,1,1-2.83,3.12,3.12,0,0,1,2.41-1.12,2.89,2.89,0,0,1,2.39,1,4.14,4.14,0,0,1,.79,2.63v.76h-5.07l0,0a3.3,3.3,0,0,0,.53,1.94,1.85,1.85,0,0,0,1.61.74,3.58,3.58,0,0,0,1.28-.21,2.9,2.9,0,0,0,.95-.57l.57.94a3.68,3.68,0,0,1-1.12.69A4.48,4.48,0,0,1,129,122.51Zm-.23-7.09a1.57,1.57,0,0,0-1.25.58,2.75,2.75,0,0,0-.6,1.49v0h3.58v-.12a2.29,2.29,0,0,0-.43-1.43A1.54,1.54,0,0,0,128.76,115.42Z"/><path d="M137.31,115.71l-.74,0a1.65,1.65,0,0,0-1,.27,1.71,1.71,0,0,0-.61.76v5.67h-1.44v-7.93h1.29l.14,1.16a2.71,2.71,0,0,1,.83-1,2,2,0,0,1,1.14-.35,1.45,1.45,0,0,1,.3,0l.25,0Z"/><path d="M142.2,118.32a4.4,4.4,0,0,1,1-2.9,3.52,3.52,0,0,1,5.19,0,4.34,4.34,0,0,1,1,2.9v.16a4.36,4.36,0,0,1-1,2.9,3.54,3.54,0,0,1-5.19,0,4.34,4.34,0,0,1-1-2.9Zm1.44.16a3.72,3.72,0,0,0,.54,2.08,1.91,1.91,0,0,0,3.14,0,3.72,3.72,0,0,0,.54-2.08v-.16a3.71,3.71,0,0,0-.54-2.07,1.78,1.78,0,0,0-1.58-.83,1.73,1.73,0,0,0-1.56.83,3.71,3.71,0,0,0-.54,2.07Z"/><path d="M151.66,122.36V115.5h-1.23v-1.07h1.23v-1a2.68,2.68,0,0,1,.67-2,2.44,2.44,0,0,1,1.85-.69,2.89,2.89,0,0,1,.5,0,5,5,0,0,1,.56.11l-.18,1.1a2.16,2.16,0,0,0-.32,0,2.42,2.42,0,0,0-.39,0,1.15,1.15,0,0,0-.94.37,1.74,1.74,0,0,0-.3,1.1v1h1.43v1.07h-1.43v6.86Z"/><path d="M166.48,118.69a4.35,4.35,0,0,1-.82,2.77,2.71,2.71,0,0,1-2.26,1.05,3.06,3.06,0,0,1-1.29-.25,2.38,2.38,0,0,1-.94-.73v3.87h-1.44v-11h1.1l.23,1a2.63,2.63,0,0,1,1-.88,2.86,2.86,0,0,1,1.35-.3,2.61,2.61,0,0,1,2.28,1.17,5.26,5.26,0,0,1,.82,3.09Zm-1.44-.15a4.24,4.24,0,0,0-.53-2.22,1.75,1.75,0,0,0-1.57-.86,1.91,1.91,0,0,0-1.06.28,2.11,2.11,0,0,0-.71.77v3.83a2.11,2.11,0,0,0,.71.77,2,2,0,0,0,1.08.27,1.77,1.77,0,0,0,1.55-.75,3.3,3.3,0,0,0,.53-1.94Z"/><path d="M173.12,122.36c0-.24-.08-.45-.11-.64a4.89,4.89,0,0,1,0-.55,3.47,3.47,0,0,1-1.05,1,2.74,2.74,0,0,1-1.39.38,2.6,2.6,0,0,1-1.89-.63,2.36,2.36,0,0,1-.65-1.75,2.06,2.06,0,0,1,.92-1.78,4.36,4.36,0,0,1,2.5-.64H173v-.78a1.45,1.45,0,0,0-.42-1.1,1.69,1.69,0,0,0-1.2-.41,1.78,1.78,0,0,0-1.14.35,1.06,1.06,0,0,0-.43.84l-1.37,0v0a1.89,1.89,0,0,1,.8-1.58,3.38,3.38,0,0,1,2.23-.72,3.26,3.26,0,0,1,2.17.69,2.44,2.44,0,0,1,.82,2v3.82a7.27,7.27,0,0,0,0,.82,4.32,4.32,0,0,0,.16.78Zm-2.39-1.06a2.55,2.55,0,0,0,1.41-.4A1.91,1.91,0,0,0,173,120v-1.29h-1.62a2.05,2.05,0,0,0-1.39.44,1.29,1.29,0,0,0-.52,1,1.1,1.1,0,0,0,.32.83A1.37,1.37,0,0,0,170.73,121.3Z"/><path d="M180.25,115.71l-.74,0a1.65,1.65,0,0,0-1,.27,1.78,1.78,0,0,0-.61.76v5.67H176.5v-7.93h1.29l.14,1.16a2.71,2.71,0,0,1,.83-1,2,2,0,0,1,1.14-.35,1.55,1.55,0,0,1,.31,0l.24,0Z"/><path d="M183.94,118.7h-.74v3.66h-1.44V110.93h1.44v6.62h.73l2.38-3.12H188l-2.88,3.66,3.13,4.27h-1.71Z"/><path d="M191,112.4h-1.44v-1.47H191Zm0,10h-1.44v-7.93H191Z"/><path d="M194.51,114.43l.1,1.18a2.92,2.92,0,0,1,1-1,2.64,2.64,0,0,1,1.35-.35,2.56,2.56,0,0,1,2,.76,3.27,3.27,0,0,1,.7,2.31v5h-1.44v-5a2.15,2.15,0,0,0-.41-1.48,1.65,1.65,0,0,0-1.27-.44,2.33,2.33,0,0,0-1.13.26,2,2,0,0,0-.74.75v5.89h-1.44v-7.93Z"/><path d="M201.49,118.54a5.24,5.24,0,0,1,.82-3.08,2.62,2.62,0,0,1,2.28-1.18,2.8,2.8,0,0,1,1.32.31,2.5,2.5,0,0,1,1,.87l.18-1h1.15v8a3,3,0,0,1-.89,2.34,3.65,3.65,0,0,1-2.55.82,5.7,5.7,0,0,1-1.24-.16,5.18,5.18,0,0,1-1.17-.43l.22-1.12a4.56,4.56,0,0,0,1,.36,5.16,5.16,0,0,0,1.16.13,2.1,2.1,0,0,0,1.54-.48,2,2,0,0,0,.48-1.46v-.9a2.57,2.57,0,0,1-.93.75,2.92,2.92,0,0,1-1.26.26,2.7,2.7,0,0,1-2.26-1.05,4.35,4.35,0,0,1-.82-2.77Zm1.44.15a3.41,3.41,0,0,0,.49,1.92,1.71,1.71,0,0,0,1.52.73A1.87,1.87,0,0,0,206,121a2.32,2.32,0,0,0,.73-.84v-3.64a2.29,2.29,0,0,0-.73-.81,1.94,1.94,0,0,0-1.07-.29,1.64,1.64,0,0,0-1.53.85,4.44,4.44,0,0,0-.5,2.23Z"/><path d="M166.72,138.22a1,1,0,0,0-.37-.77,3.47,3.47,0,0,0-1.37-.53,5.8,5.8,0,0,1-2.15-.84,1.71,1.71,0,0,1-.75-1.45,2.09,2.09,0,0,1,.82-1.66,3.22,3.22,0,0,1,2.14-.69,3.18,3.18,0,0,1,2.18.74,2.09,2.09,0,0,1,.8,1.7l0,.05h-1.37a1.25,1.25,0,0,0-.45-.93,1.61,1.61,0,0,0-1.14-.42,1.64,1.64,0,0,0-1.14.34,1.09,1.09,0,0,0-.38.82.86.86,0,0,0,.33.73,3.5,3.5,0,0,0,1.34.47,5.53,5.53,0,0,1,2.21.87,1.75,1.75,0,0,1,.76,1.47,2.1,2.1,0,0,1-.85,1.72,3.51,3.51,0,0,1-2.24.67,3.48,3.48,0,0,1-2.38-.77,2.19,2.19,0,0,1-.83-1.79v0h1.38a1.38,1.38,0,0,0,.57,1.13,2.28,2.28,0,0,0,1.25.35,2,2,0,0,0,1.21-.32A1,1,0,0,0,166.72,138.22Z"/><path d="M176.71,136.69a4.41,4.41,0,0,1-.82,2.77,2.73,2.73,0,0,1-2.27,1,3,3,0,0,1-1.28-.25,2.31,2.31,0,0,1-.94-.73v3.87H170v-11h1.11l.23,1a2.6,2.6,0,0,1,1-.88,2.92,2.92,0,0,1,1.35-.3,2.64,2.64,0,0,1,2.29,1.17,5.33,5.33,0,0,1,.82,3.09Zm-1.45-.15a4.15,4.15,0,0,0-.53-2.22,1.72,1.72,0,0,0-1.56-.86,1.88,1.88,0,0,0-1.06.28,2,2,0,0,0-.71.77v3.83a2,2,0,0,0,.71.77,2,2,0,0,0,1.07.27,1.79,1.79,0,0,0,1.56-.75,3.3,3.3,0,0,0,.52-1.94Z"/><path d="M183.35,140.36c0-.24-.09-.45-.11-.64a3.31,3.31,0,0,1-.05-.55,3.47,3.47,0,0,1-1.05,1,2.78,2.78,0,0,1-1.4.38,2.59,2.59,0,0,1-1.88-.63,2.32,2.32,0,0,1-.65-1.75,2,2,0,0,1,.92-1.78,4.33,4.33,0,0,1,2.49-.64h1.57v-.78a1.42,1.42,0,0,0-.43-1.1,1.66,1.66,0,0,0-1.2-.41,1.73,1.73,0,0,0-1.13.35,1.07,1.07,0,0,0-.44.84l-1.37,0v0a1.92,1.92,0,0,1,.81-1.58,3.33,3.33,0,0,1,2.22-.72,3.26,3.26,0,0,1,2.17.69,2.41,2.41,0,0,1,.82,2v3.82c0,.28,0,.56,0,.82a4.36,4.36,0,0,0,.17.78ZM181,139.3a2.56,2.56,0,0,0,1.42-.4,2,2,0,0,0,.82-.92v-1.29h-1.62a2.08,2.08,0,0,0-1.4.44,1.29,1.29,0,0,0-.52,1,1.07,1.07,0,0,0,.33.83A1.35,1.35,0,0,0,181,139.3Z"/><path d="M189.87,139.38a1.72,1.72,0,0,0,1.17-.44,1.42,1.42,0,0,0,.5-1.09h1.3l0,.05a2.27,2.27,0,0,1-.88,1.82,3.12,3.12,0,0,1-2.11.79,3.09,3.09,0,0,1-2.57-1.14,4.32,4.32,0,0,1-.91-2.82v-.31a4.36,4.36,0,0,1,.91-2.82,3.11,3.11,0,0,1,2.57-1.14,3,3,0,0,1,2.18.83,2.58,2.58,0,0,1,.81,2v0h-1.31a1.73,1.73,0,0,0-.48-1.23,1.54,1.54,0,0,0-1.19-.51,1.65,1.65,0,0,0-1.54.82,3.83,3.83,0,0,0-.49,2v.31a3.94,3.94,0,0,0,.48,2A1.66,1.66,0,0,0,189.87,139.38Z"/><path d="M197.86,140.51a3.33,3.33,0,0,1-2.66-1.09,4.2,4.2,0,0,1-1-2.87v-.32a4.16,4.16,0,0,1,1-2.83,3.12,3.12,0,0,1,2.41-1.12,2.87,2.87,0,0,1,2.38,1,4.08,4.08,0,0,1,.8,2.63v.76h-5.07l0,0a3.3,3.3,0,0,0,.53,1.94,1.85,1.85,0,0,0,1.61.74,3.58,3.58,0,0,0,1.28-.21,2.9,2.9,0,0,0,1-.57l.57.94a3.68,3.68,0,0,1-1.12.69A4.48,4.48,0,0,1,197.86,140.51Zm-.23-7.09a1.57,1.57,0,0,0-1.25.58,2.75,2.75,0,0,0-.6,1.49v0h3.58v-.12a2.29,2.29,0,0,0-.43-1.43A1.54,1.54,0,0,0,197.63,133.42Z"/><path d="M207,138.22a1,1,0,0,0-.37-.77,3.47,3.47,0,0,0-1.37-.53,5.8,5.8,0,0,1-2.15-.84,1.71,1.71,0,0,1-.75-1.45,2.09,2.09,0,0,1,.82-1.66,3.22,3.22,0,0,1,2.14-.69,3.18,3.18,0,0,1,2.18.74,2.09,2.09,0,0,1,.8,1.7l0,.05H207a1.25,1.25,0,0,0-.45-.93,1.61,1.61,0,0,0-1.14-.42,1.64,1.64,0,0,0-1.14.34,1.09,1.09,0,0,0-.38.82.86.86,0,0,0,.33.73,3.5,3.5,0,0,0,1.34.47,5.53,5.53,0,0,1,2.21.87,1.75,1.75,0,0,1,.76,1.47,2.1,2.1,0,0,1-.85,1.72,3.51,3.51,0,0,1-2.24.67,3.48,3.48,0,0,1-2.38-.77,2.19,2.19,0,0,1-.83-1.79v0h1.38a1.38,1.38,0,0,0,.57,1.13,2.28,2.28,0,0,0,1.25.35,2,2,0,0,0,1.21-.32A1,1,0,0,0,207,138.22Z"/><line class="cls-5" x1="216.74" y1="103.82" x2="296.66" y2="103.82"/><polygon points="291.97 109.62 291 108.58 296.12 103.82 291 99.06 291.97 98.03 298.2 103.82 291.97 109.62"/><path d="M104.87,268.12h-3.75l-.89,2.56H98.86l3.59-9.95h1.15l3.52,9.95h-1.38ZM101.51,267h3L103,262.72H103Z"/><path d="M110.15,261.5v1.79h1.4v1h-1.4v4.5a1,1,0,0,0,.22.73.77.77,0,0,0,.57.21l.26,0,.24-.07.18.93a1.2,1.2,0,0,1-.44.2,2.38,2.38,0,0,1-.58.08,1.75,1.75,0,0,1-1.31-.5,2.16,2.16,0,0,1-.48-1.55v-4.5h-1.18v-1h1.18V261.5Z"/><path d="M117.19,267h-4V266h4Z"/><path d="M119.07,267.12a4.93,4.93,0,0,1,.76-2.88,2.45,2.45,0,0,1,2.13-1.09,2.43,2.43,0,0,1,2.13,1.1l.16-1h1.08v7.43a2.84,2.84,0,0,1-.83,2.19,3.4,3.4,0,0,1-2.39.76,5,5,0,0,1-1.15-.15,4.25,4.25,0,0,1-1.09-.4l.21-1a4.45,4.45,0,0,0,.94.33,5.06,5.06,0,0,0,1.08.13,2,2,0,0,0,1.43-.45,1.87,1.87,0,0,0,.45-1.37v-.84a2.38,2.38,0,0,1-.87.71,2.66,2.66,0,0,1-1.17.24,2.53,2.53,0,0,1-2.11-1,4.1,4.1,0,0,1-.76-2.58Zm1.34.15a3.19,3.19,0,0,0,.46,1.79,1.6,1.6,0,0,0,1.42.67,1.79,1.79,0,0,0,1-.27,2.12,2.12,0,0,0,.68-.79v-3.4a2,2,0,0,0-.68-.75,1.78,1.78,0,0,0-1-.28,1.55,1.55,0,0,0-1.43.8,4.24,4.24,0,0,0-.46,2.08Z"/><path d="M130.76,264.48l-.69,0a1.56,1.56,0,0,0-.9.25,1.61,1.61,0,0,0-.56.71v5.28h-1.35v-7.39h1.21l.13,1.08a2.44,2.44,0,0,1,.77-.9,1.84,1.84,0,0,1,1.06-.32l.29,0,.23.06Z"/><path d="M136.71,270.68c-.05-.22-.08-.42-.11-.59a4.38,4.38,0,0,1,0-.51,3.24,3.24,0,0,1-1,.89,2.52,2.52,0,0,1-1.3.36,2.43,2.43,0,0,1-1.76-.59,2.16,2.16,0,0,1-.61-1.63,1.92,1.92,0,0,1,.86-1.66,4,4,0,0,1,2.33-.6h1.46v-.73a1.33,1.33,0,0,0-.4-1,1.57,1.57,0,0,0-1.12-.38,1.62,1.62,0,0,0-1.06.33,1,1,0,0,0-.4.78l-1.28,0v0a1.76,1.76,0,0,1,.75-1.48,3.13,3.13,0,0,1,2.08-.67,3,3,0,0,1,2,.64,2.27,2.27,0,0,1,.77,1.84v3.56a6.4,6.4,0,0,0,0,.77,3,3,0,0,0,.15.72Zm-2.24-1a2.4,2.4,0,0,0,1.32-.38,1.78,1.78,0,0,0,.77-.86v-1.2h-1.51a2,2,0,0,0-1.3.41,1.2,1.2,0,0,0-.49,1,1,1,0,0,0,.3.78A1.31,1.31,0,0,0,134.47,269.7Z"/><path d="M139.55,267.12a4.93,4.93,0,0,1,.77-2.88,2.44,2.44,0,0,1,2.13-1.09,2.63,2.63,0,0,1,1.15.24,2.32,2.32,0,0,1,.86.7V260h1.35v10.66h-1l-.21-.93a2.42,2.42,0,0,1-.89.8,2.61,2.61,0,0,1-1.24.28,2.55,2.55,0,0,1-2.12-1,4.1,4.1,0,0,1-.77-2.58Zm1.35.15a3.11,3.11,0,0,0,.46,1.79,1.59,1.59,0,0,0,1.42.67,1.79,1.79,0,0,0,1-.27,2,2,0,0,0,.67-.77v-3.45a2.14,2.14,0,0,0-.67-.73,1.8,1.8,0,0,0-1-.27,1.55,1.55,0,0,0-1.43.8,4.13,4.13,0,0,0-.46,2.08Z"/><path d="M150.88,270.83a3.11,3.11,0,0,1-2.48-1,3.9,3.9,0,0,1-.9-2.68v-.3a3.88,3.88,0,0,1,.92-2.64,2.91,2.91,0,0,1,2.25-1,2.68,2.68,0,0,1,2.22.92,3.8,3.8,0,0,1,.75,2.46v.71H148.9l0,0a3.05,3.05,0,0,0,.5,1.81,1.71,1.71,0,0,0,1.5.69,3.36,3.36,0,0,0,1.2-.19A2.76,2.76,0,0,0,153,269l.52.88a3.18,3.18,0,0,1-1,.64A4.12,4.12,0,0,1,150.88,270.83Zm-.21-6.62a1.48,1.48,0,0,0-1.17.54,2.65,2.65,0,0,0-.56,1.39v0h3.34v-.11a2.1,2.1,0,0,0-.4-1.33A1.4,1.4,0,0,0,150.67,264.21Z"/><path d="M160.16,266.69v4h-1.35v-9.95h3.81a3.5,3.5,0,0,1,2.48.82,3.1,3.1,0,0,1,0,4.33,3.54,3.54,0,0,1-2.48.81Zm0-1.05h2.46a1.82,1.82,0,0,0,2-1.92,2,2,0,0,0-.5-1.38,1.94,1.94,0,0,0-1.51-.55h-2.46Z"/><path d="M172,270.68c-.05-.22-.08-.42-.11-.59a4.38,4.38,0,0,1,0-.51,3.24,3.24,0,0,1-1,.89,2.53,2.53,0,0,1-1.31.36,2.45,2.45,0,0,1-1.76-.59,2.2,2.2,0,0,1-.6-1.63,1.89,1.89,0,0,1,.86-1.66,4,4,0,0,1,2.32-.6h1.47v-.73a1.36,1.36,0,0,0-.4-1,1.57,1.57,0,0,0-1.12-.38,1.62,1.62,0,0,0-1.06.33,1,1,0,0,0-.4.78l-1.28,0,0,0a1.78,1.78,0,0,1,.76-1.48,3.1,3.1,0,0,1,2.07-.67,3,3,0,0,1,2,.64,2.27,2.27,0,0,1,.76,1.84v3.56c0,.27,0,.52,0,.77a4.38,4.38,0,0,0,.15.72Zm-2.24-1a2.4,2.4,0,0,0,1.32-.38,1.83,1.83,0,0,0,.77-.86v-1.2h-1.51a2,2,0,0,0-1.31.41,1.23,1.23,0,0,0-.49,1,1,1,0,0,0,.31.78A1.31,1.31,0,0,0,169.76,269.7Z"/><path d="M178.65,264.48l-.69,0a1.52,1.52,0,0,0-.9.25,1.62,1.62,0,0,0-.57.71v5.28h-1.34v-7.39h1.2l.13,1.08a2.56,2.56,0,0,1,.78-.9,1.82,1.82,0,0,1,1.06-.32l.29,0,.22.06Z"/><path d="M182.09,267.27h-.69v3.41h-1.34V260h1.34v6.18h.68l2.22-2.91h1.61l-2.68,3.41,2.92,4h-1.6Z"/><path d="M188.68,261.39h-1.34V260h1.34Zm0,9.29h-1.34v-7.39h1.34Z"/><path d="M192,263.29l.09,1.1a2.72,2.72,0,0,1,.93-.92,2.52,2.52,0,0,1,1.27-.32,2.41,2.41,0,0,1,1.85.7,3.07,3.07,0,0,1,.66,2.16v4.67h-1.35V266a2,2,0,0,0-.39-1.39,1.55,1.55,0,0,0-1.18-.41,2.15,2.15,0,0,0-1.05.25,1.86,1.86,0,0,0-.69.7v5.49h-1.35v-7.39Z"/><path d="M198.47,267.12a5,5,0,0,1,.76-2.88,2.45,2.45,0,0,1,2.13-1.09,2.43,2.43,0,0,1,2.14,1.1l.16-1h1.07v7.43a2.84,2.84,0,0,1-.82,2.19,3.4,3.4,0,0,1-2.39.76,4.91,4.91,0,0,1-1.15-.15,4.11,4.11,0,0,1-1.09-.4l.2-1a4.66,4.66,0,0,0,.94.33,5.15,5.15,0,0,0,1.09.13,2,2,0,0,0,1.43-.45,1.87,1.87,0,0,0,.45-1.37v-.84a2.38,2.38,0,0,1-.87.71,2.72,2.72,0,0,1-1.17.24,2.55,2.55,0,0,1-2.12-1,4.16,4.16,0,0,1-.76-2.58Zm1.35.15a3.11,3.11,0,0,0,.46,1.79,1.57,1.57,0,0,0,1.41.67,1.8,1.8,0,0,0,1-.27,2.21,2.21,0,0,0,.68-.79v-3.4a2.06,2.06,0,0,0-.68-.75,1.81,1.81,0,0,0-1-.28,1.54,1.54,0,0,0-1.43.8,4.13,4.13,0,0,0-.46,2.08Z"/><path d="M208.14,264.69h-1.35v-1.38h1.35Zm0,6h-1.35V269.3h1.35Z"/><path d="M107.92,284.91a1.44,1.44,0,0,0-.44-1.05,3.8,3.8,0,0,0-1.44-.77A4.91,4.91,0,0,1,104,282a2.49,2.49,0,0,1-.71-1.86,2.61,2.61,0,0,1,.65-1.83,2.82,2.82,0,0,1,1.79-.86v-1.51h1.08v1.52a2.61,2.61,0,0,1,1.77.93,3.29,3.29,0,0,1,.63,2.11h-1.34a2.18,2.18,0,0,0-.43-1.41,1.42,1.42,0,0,0-1.19-.54,1.62,1.62,0,0,0-1.21.42,1.64,1.64,0,0,0-.4,1.15,1.46,1.46,0,0,0,.42,1.08,4.15,4.15,0,0,0,1.5.78,5.2,5.2,0,0,1,2.07,1.12,2.47,2.47,0,0,1,.67,1.83,2.5,2.5,0,0,1-.7,1.87,3.12,3.12,0,0,1-1.94.82v1.31h-1.07v-1.3a3.16,3.16,0,0,1-1.93-.86,2.81,2.81,0,0,1-.72-2.16v0h1.3a1.88,1.88,0,0,0,.53,1.5,2,2,0,0,0,1.3.45,2.07,2.07,0,0,0,1.38-.42A1.45,1.45,0,0,0,107.92,284.91Z"/><path d="M111.35,283.06l.58-5.53h5v1.2h-3.85l-.32,2.86a3.06,3.06,0,0,1,.71-.39,2.28,2.28,0,0,1,.89-.16,2.75,2.75,0,0,1,2.17.86,4.07,4.07,0,0,1,0,4.82,3,3,0,0,1-2.35.91,3.2,3.2,0,0,1-2.1-.69,2.4,2.4,0,0,1-.81-2l0-.05h1.21a1.68,1.68,0,0,0,.47,1.27,1.71,1.71,0,0,0,1.21.44,1.59,1.59,0,0,0,1.33-.6,2.63,2.63,0,0,0,.47-1.65,2.39,2.39,0,0,0-.47-1.53,1.6,1.6,0,0,0-1.33-.59,2.08,2.08,0,0,0-1.14.24,1.35,1.35,0,0,0-.53.74Z"/><path d="M120.19,287.15l-1,2.1h-.8l.48-2.16V286h1.34Z"/><path d="M127.91,284a3.88,3.88,0,0,1-.86,2.67,2.89,2.89,0,0,1-2.3,1,2.92,2.92,0,0,1-2.31-1,3.88,3.88,0,0,1-.87-2.67V281a3.94,3.94,0,0,1,.86-2.66,2.89,2.89,0,0,1,2.3-1,2.93,2.93,0,0,1,2.32,1,3.94,3.94,0,0,1,.86,2.66Zm-1.35-3.21a2.69,2.69,0,0,0-.47-1.69,1.6,1.6,0,0,0-1.36-.62,1.57,1.57,0,0,0-1.34.62,2.76,2.76,0,0,0-.47,1.69v3.48a2.71,2.71,0,0,0,.48,1.7,1.76,1.76,0,0,0,2.69,0,2.76,2.76,0,0,0,.47-1.71Z"/><path d="M135.79,284a3.93,3.93,0,0,1-.85,2.67,3.19,3.19,0,0,1-4.62,0,3.88,3.88,0,0,1-.86-2.67V281a3.93,3.93,0,0,1,.85-2.66,3.19,3.19,0,0,1,4.62,0,3.89,3.89,0,0,1,.86,2.66Zm-1.34-3.21a2.69,2.69,0,0,0-.48-1.69,1.78,1.78,0,0,0-2.7,0,2.76,2.76,0,0,0-.47,1.69v3.48a2.65,2.65,0,0,0,.49,1.7,1.58,1.58,0,0,0,1.34.63A1.62,1.62,0,0,0,134,286a2.82,2.82,0,0,0,.47-1.71Z"/><path d="M143.68,284a3.93,3.93,0,0,1-.86,2.67,3.19,3.19,0,0,1-4.62,0,3.93,3.93,0,0,1-.86-2.67V281a3.89,3.89,0,0,1,.86-2.66,2.89,2.89,0,0,1,2.3-1,2.92,2.92,0,0,1,2.31,1,3.89,3.89,0,0,1,.87,2.66Zm-1.35-3.21a2.69,2.69,0,0,0-.48-1.69,1.59,1.59,0,0,0-1.35-.62,1.56,1.56,0,0,0-1.34.62,2.69,2.69,0,0,0-.47,1.69v3.48a2.71,2.71,0,0,0,.48,1.7,1.59,1.59,0,0,0,1.34.63,1.62,1.62,0,0,0,1.35-.62,2.82,2.82,0,0,0,.47-1.71Z"/><path d="M155.21,284.07a4.1,4.1,0,0,1-.77,2.58,2.53,2.53,0,0,1-2.11,1,3,3,0,0,1-1.2-.23,2.35,2.35,0,0,1-.88-.69v3.62H148.9V280.09h1l.21,1a2.49,2.49,0,0,1,.9-.81,2.66,2.66,0,0,1,1.26-.28,2.45,2.45,0,0,1,2.14,1.09,5,5,0,0,1,.76,2.88Zm-1.35-.15a3.92,3.92,0,0,0-.49-2.07,1.62,1.62,0,0,0-1.46-.81,1.8,1.8,0,0,0-1,.27,1.92,1.92,0,0,0-.66.72v3.57a1.92,1.92,0,0,0,.66.72,1.89,1.89,0,0,0,1,.25,1.65,1.65,0,0,0,1.45-.7,3,3,0,0,0,.49-1.8Z"/><path d="M159.92,287.63a3.11,3.11,0,0,1-2.48-1,3.89,3.89,0,0,1-.89-2.68v-.3a3.83,3.83,0,0,1,.92-2.64,2.89,2.89,0,0,1,2.24-1,2.71,2.71,0,0,1,2.23.92,3.86,3.86,0,0,1,.74,2.46V284H158l0,0a3.05,3.05,0,0,0,.49,1.81,1.72,1.72,0,0,0,1.5.69,3.36,3.36,0,0,0,1.2-.19,2.65,2.65,0,0,0,.89-.54l.53.88a3.34,3.34,0,0,1-1,.64A4.05,4.05,0,0,1,159.92,287.63Zm-.21-6.62a1.45,1.45,0,0,0-1.16.54,2.58,2.58,0,0,0-.57,1.39l0,0h3.33v-.11a2.16,2.16,0,0,0-.39-1.33A1.43,1.43,0,0,0,159.71,281Z"/><path d="M167.69,281.28l-.69,0a1.52,1.52,0,0,0-.9.25,1.61,1.61,0,0,0-.56.71v5.28h-1.35v-7.39h1.2l.13,1.08a2.56,2.56,0,0,1,.78-.9,1.84,1.84,0,0,1,1.06-.32l.29,0,.22.06Z"/><path d="M176.87,285.49a.89.89,0,0,0-.34-.72,3.15,3.15,0,0,0-1.28-.49,5.43,5.43,0,0,1-2-.79,1.61,1.61,0,0,1-.7-1.35,2,2,0,0,1,.77-1.55,3.41,3.41,0,0,1,4,0,2,2,0,0,1,.75,1.6l0,0h-1.28a1.17,1.17,0,0,0-.42-.87,1.51,1.51,0,0,0-1.06-.39,1.57,1.57,0,0,0-1.07.32,1,1,0,0,0-.35.77.81.81,0,0,0,.3.67,3.43,3.43,0,0,0,1.26.44,5.26,5.26,0,0,1,2.06.81,1.65,1.65,0,0,1,.71,1.38,1.94,1.94,0,0,1-.8,1.6,3.78,3.78,0,0,1-4.31-.09,2.05,2.05,0,0,1-.77-1.68v0h1.29a1.24,1.24,0,0,0,.53,1.05,2.06,2.06,0,0,0,1.17.33,1.84,1.84,0,0,0,1.12-.3A.93.93,0,0,0,176.87,285.49Z"/><path d="M186.19,284.07a4.1,4.1,0,0,1-.76,2.58,2.55,2.55,0,0,1-2.11,1,3,3,0,0,1-1.2-.23,2.28,2.28,0,0,1-.88-.69v3.62h-1.35V280.09h1l.22,1a2.49,2.49,0,0,1,.9-.81,2.66,2.66,0,0,1,1.26-.28,2.45,2.45,0,0,1,2.13,1.09,4.93,4.93,0,0,1,.76,2.88Zm-1.34-.15a3.92,3.92,0,0,0-.5-2.07,1.6,1.6,0,0,0-1.46-.81,1.79,1.79,0,0,0-1,.27,1.92,1.92,0,0,0-.66.72v3.57a1.92,1.92,0,0,0,.66.72,1.89,1.89,0,0,0,1,.25,1.66,1.66,0,0,0,1.45-.7,3.11,3.11,0,0,0,.49-1.8Z"/><path d="M192.4,287.48a5.88,5.88,0,0,1-.11-.59,4.4,4.4,0,0,1,0-.51,3.12,3.12,0,0,1-1,.89,2.47,2.47,0,0,1-1.3.36,2.39,2.39,0,0,1-1.76-.6,2.17,2.17,0,0,1-.6-1.63,1.9,1.9,0,0,1,.85-1.65,4,4,0,0,1,2.33-.6h1.46v-.73a1.36,1.36,0,0,0-.39-1,1.58,1.58,0,0,0-1.12-.38,1.62,1.62,0,0,0-1.06.33,1,1,0,0,0-.41.78l-1.27,0,0,0a1.78,1.78,0,0,1,.76-1.48,3.09,3.09,0,0,1,2.07-.67,3,3,0,0,1,2,.64,2.27,2.27,0,0,1,.76,1.84V286a6.4,6.4,0,0,0,0,.77,4.38,4.38,0,0,0,.15.72Zm-2.24-1a2.4,2.4,0,0,0,1.32-.38,1.75,1.75,0,0,0,.76-.86v-1.2h-1.51a1.93,1.93,0,0,0-1.3.41,1.23,1.23,0,0,0-.49,1,1,1,0,0,0,.31.78A1.31,1.31,0,0,0,190.16,286.5Z"/><path d="M198.49,286.57a1.55,1.55,0,0,0,1.08-.41,1.31,1.31,0,0,0,.47-1h1.21l0,0a2.09,2.09,0,0,1-.82,1.69,2.86,2.86,0,0,1-2,.75,2.92,2.92,0,0,1-2.41-1.06,4.08,4.08,0,0,1-.85-2.64v-.29a4.13,4.13,0,0,1,.85-2.63,2.91,2.91,0,0,1,2.41-1.06,2.74,2.74,0,0,1,2,.77,2.4,2.4,0,0,1,.76,1.88v0H200a1.68,1.68,0,0,0-.44-1.16,1.49,1.49,0,0,0-1.11-.47,1.57,1.57,0,0,0-1.45.77,3.61,3.61,0,0,0-.45,1.86v.29a3.66,3.66,0,0,0,.44,1.88A1.56,1.56,0,0,0,198.49,286.57Z"/><path d="M205.94,287.63a3.15,3.15,0,0,1-2.49-1,3.94,3.94,0,0,1-.89-2.68v-.3a3.88,3.88,0,0,1,.92-2.64,2.89,2.89,0,0,1,2.25-1,2.69,2.69,0,0,1,2.22.92,3.86,3.86,0,0,1,.74,2.46V284H204l0,0a3.05,3.05,0,0,0,.49,1.81,1.73,1.73,0,0,0,1.51.69,3.44,3.44,0,0,0,1.2-.19,2.61,2.61,0,0,0,.88-.54l.53.88a3.23,3.23,0,0,1-1.05.64A4,4,0,0,1,205.94,287.63Zm-.21-6.62a1.48,1.48,0,0,0-1.17.54,2.49,2.49,0,0,0-.56,1.39v0h3.34v-.11a2.17,2.17,0,0,0-.4-1.33A1.41,1.41,0,0,0,205.73,281Z"/><line class="cls-5" x1="216.74" y1="276.79" x2="296.66" y2="276.79"/><polygon points="291.97 282.58 291 281.55 296.12 276.79 291 272.03 291.97 270.99 298.2 276.79 291.97 282.58"/><path d="M84.17,306.8v6.61A3.21,3.21,0,0,1,83.1,316a4,4,0,0,1-2.75.93A3.81,3.81,0,0,1,77.7,316a3.26,3.26,0,0,1-1-2.56V306.8H78v6.61a2.39,2.39,0,0,0,.65,1.79,2.28,2.28,0,0,0,1.68.64,2.48,2.48,0,0,0,1.78-.64,2.34,2.34,0,0,0,.69-1.79V306.8Z"/><path d="M87.32,309.36l.1,1.1a2.58,2.58,0,0,1,.92-.91,2.45,2.45,0,0,1,1.27-.33,2.4,2.4,0,0,1,1.85.7,3.07,3.07,0,0,1,.66,2.16v4.67H90.77v-4.64a2.06,2.06,0,0,0-.38-1.39,1.56,1.56,0,0,0-1.18-.41,2.16,2.16,0,0,0-1.06.25,1.86,1.86,0,0,0-.69.7v5.49H86.12v-7.39Z"/><path d="M93.77,313.19a4.93,4.93,0,0,1,.76-2.88,2.47,2.47,0,0,1,2.13-1.09,2.67,2.67,0,0,1,1.16.24,2.29,2.29,0,0,1,.85.7v-4.07H100v10.66H99l-.21-.93a2.42,2.42,0,0,1-.89.8,2.61,2.61,0,0,1-1.24.28,2.55,2.55,0,0,1-2.12-1,4.1,4.1,0,0,1-.76-2.58Zm1.34.15a3.19,3.19,0,0,0,.46,1.79,1.6,1.6,0,0,0,1.42.67,1.79,1.79,0,0,0,1-.27,2,2,0,0,0,.67-.77v-3.45a2,2,0,0,0-.67-.73,1.77,1.77,0,0,0-1-.27,1.56,1.56,0,0,0-1.44.8,4.24,4.24,0,0,0-.46,2.08Z"/><path d="M105.09,316.9a3.11,3.11,0,0,1-2.48-1,3.89,3.89,0,0,1-.89-2.68v-.3a3.83,3.83,0,0,1,.92-2.64,2.89,2.89,0,0,1,2.24-1,2.71,2.71,0,0,1,2.23.92,3.86,3.86,0,0,1,.74,2.46v.71h-4.73l0,0a3,3,0,0,0,.49,1.81,1.72,1.72,0,0,0,1.5.69,3.36,3.36,0,0,0,1.2-.19,2.65,2.65,0,0,0,.89-.54l.52.88a3.18,3.18,0,0,1-1,.64A4.09,4.09,0,0,1,105.09,316.9Zm-.21-6.62a1.45,1.45,0,0,0-1.16.54,2.61,2.61,0,0,0-.57,1.39l0,0h3.33v-.11a2.1,2.1,0,0,0-.4-1.33A1.43,1.43,0,0,0,104.88,310.28Z"/><path d="M112.86,310.55l-.69,0a1.52,1.52,0,0,0-.9.25,1.61,1.61,0,0,0-.56.71v5.28h-1.35v-7.39h1.2l.13,1.08a2.56,2.56,0,0,1,.78-.9,1.84,1.84,0,0,1,1.06-.32l.29,0,.22.06Z"/><path d="M113.89,313.19a5,5,0,0,1,.76-2.88,2.47,2.47,0,0,1,2.13-1.09,2.73,2.73,0,0,1,1.24.28,2.6,2.6,0,0,1,.9.82l.16-1h1.07v7.43a2.84,2.84,0,0,1-.82,2.19,3.41,3.41,0,0,1-2.39.76,4.85,4.85,0,0,1-1.15-.15,4.11,4.11,0,0,1-1.09-.4l.2-1a4.12,4.12,0,0,0,.94.33,5.15,5.15,0,0,0,1.09.13,2,2,0,0,0,1.43-.45,1.85,1.85,0,0,0,.45-1.37V316a2.46,2.46,0,0,1-.87.71,2.72,2.72,0,0,1-1.17.24,2.55,2.55,0,0,1-2.12-1,4.16,4.16,0,0,1-.76-2.58Zm1.35.15a3.11,3.11,0,0,0,.46,1.79,1.57,1.57,0,0,0,1.41.67,1.8,1.8,0,0,0,1-.27,2.21,2.21,0,0,0,.68-.79v-3.4a2.24,2.24,0,0,0-.68-.75,1.82,1.82,0,0,0-1-.28,1.54,1.54,0,0,0-1.42.8,4.13,4.13,0,0,0-.46,2.08Z"/><path d="M125.59,310.55l-.69,0a1.52,1.52,0,0,0-.9.25,1.62,1.62,0,0,0-.57.71v5.28h-1.34v-7.39h1.2l.13,1.08a2.56,2.56,0,0,1,.78-.9,1.82,1.82,0,0,1,1.06-.32l.29,0,.22.06Z"/><path d="M126.54,313a4,4,0,0,1,.89-2.71,3,3,0,0,1,2.41-1.06,3,3,0,0,1,2.43,1.06,4.09,4.09,0,0,1,.89,2.71v.15a4,4,0,0,1-.89,2.7,3.29,3.29,0,0,1-4.84,0,4,4,0,0,1-.89-2.7Zm1.34.15a3.52,3.52,0,0,0,.5,1.94,1.8,1.8,0,0,0,2.94,0,3.51,3.51,0,0,0,.49-1.94V313a3.46,3.46,0,0,0-.5-1.94,1.78,1.78,0,0,0-2.93,0,3.54,3.54,0,0,0-.5,1.94Z"/><path d="M139.51,315.66a2.65,2.65,0,0,1-.9.92,2.48,2.48,0,0,1-1.26.32,2.37,2.37,0,0,1-1.89-.78,3.56,3.56,0,0,1-.68-2.4v-4.36h1.35v4.37a2.71,2.71,0,0,0,.35,1.63,1.27,1.27,0,0,0,1.08.44,2.17,2.17,0,0,0,1.19-.29,1.84,1.84,0,0,0,.71-.82v-5.33h1.34v7.39h-1.21Z"/><path d="M144,309.36l.09,1.1a2.69,2.69,0,0,1,.93-.91,2.45,2.45,0,0,1,1.27-.33,2.4,2.4,0,0,1,1.85.7,3.07,3.07,0,0,1,.66,2.16v4.67h-1.35v-4.64a2.06,2.06,0,0,0-.38-1.39,1.58,1.58,0,0,0-1.18-.41,2.16,2.16,0,0,0-1.06.25,1.86,1.86,0,0,0-.69.7v5.49h-1.34v-7.39Z"/><path d="M150.42,313.19a4.93,4.93,0,0,1,.76-2.88,2.47,2.47,0,0,1,2.13-1.09,2.67,2.67,0,0,1,1.16.24,2.29,2.29,0,0,1,.85.7v-4.07h1.35v10.66h-1l-.21-.93a2.42,2.42,0,0,1-.89.8,2.61,2.61,0,0,1-1.24.28,2.55,2.55,0,0,1-2.12-1,4.1,4.1,0,0,1-.76-2.58Zm1.34.15a3.19,3.19,0,0,0,.46,1.79,1.6,1.6,0,0,0,1.42.67,1.79,1.79,0,0,0,1-.27,2,2,0,0,0,.67-.77v-3.45a2,2,0,0,0-.67-.73,1.79,1.79,0,0,0-1-.27,1.56,1.56,0,0,0-1.44.8,4.24,4.24,0,0,0-.46,2.08Z"/><path d="M163.69,312.76v4h-1.35V306.8h3.81a3.5,3.5,0,0,1,2.48.82,3.08,3.08,0,0,1,0,4.33,3.54,3.54,0,0,1-2.48.81Zm0-1.05h2.46a1.8,1.8,0,0,0,2-1.92,2,2,0,0,0-.5-1.38,1.94,1.94,0,0,0-1.51-.55h-2.46Z"/><path d="M175.53,316.75l-.11-.59a4.38,4.38,0,0,1,0-.51,3.24,3.24,0,0,1-1,.89,2.5,2.5,0,0,1-1.3.36,2.43,2.43,0,0,1-1.76-.59,2.16,2.16,0,0,1-.61-1.63,1.92,1.92,0,0,1,.86-1.66,4,4,0,0,1,2.33-.6h1.46v-.73a1.34,1.34,0,0,0-.4-1,1.55,1.55,0,0,0-1.12-.38,1.64,1.64,0,0,0-1.06.33,1,1,0,0,0-.4.78l-1.28,0v0a1.79,1.79,0,0,1,.75-1.48,3.13,3.13,0,0,1,2.08-.67,3,3,0,0,1,2,.64,2.27,2.27,0,0,1,.77,1.84v3.56a6.4,6.4,0,0,0,0,.77,4.18,4.18,0,0,0,.15.72Zm-2.23-1a2.39,2.39,0,0,0,1.31-.38,1.73,1.73,0,0,0,.77-.86v-1.2h-1.51a2,2,0,0,0-1.3.41,1.2,1.2,0,0,0-.49,1,1,1,0,0,0,.31.78A1.27,1.27,0,0,0,173.3,315.77Z"/><path d="M182.18,310.55l-.69,0a1.56,1.56,0,0,0-.9.25,1.61,1.61,0,0,0-.56.71v5.28h-1.35v-7.39h1.21l.13,1.08a2.44,2.44,0,0,1,.77-.9,1.84,1.84,0,0,1,1.06-.32l.29,0,.23.06Z"/><path d="M185.63,313.34h-.69v3.41h-1.35V306.09h1.35v6.18h.67l2.23-2.91h1.61l-2.69,3.41,2.92,4h-1.59Z"/><path d="M192.22,307.46h-1.35v-1.37h1.35Zm0,9.29h-1.35v-7.39h1.35Z"/><path d="M195.49,309.36l.1,1.1a2.58,2.58,0,0,1,.92-.91,2.48,2.48,0,0,1,1.27-.33,2.38,2.38,0,0,1,1.85.7,3.07,3.07,0,0,1,.66,2.16v4.67h-1.35v-4.64a2.06,2.06,0,0,0-.38-1.39,1.56,1.56,0,0,0-1.18-.41,2.16,2.16,0,0,0-1.06.25,1.76,1.76,0,0,0-.68.7v5.49h-1.35v-7.39Z"/><path d="M202,313.19a4.93,4.93,0,0,1,.76-2.88,2.47,2.47,0,0,1,2.13-1.09,2.73,2.73,0,0,1,1.24.28,2.58,2.58,0,0,1,.89.82l.16-1h1.08v7.43a2.84,2.84,0,0,1-.83,2.19,3.39,3.39,0,0,1-2.38.76,5,5,0,0,1-1.16-.15,4.25,4.25,0,0,1-1.09-.4l.21-1a4,4,0,0,0,.94.33,5.06,5.06,0,0,0,1.08.13,1.93,1.93,0,0,0,1.43-.45,1.85,1.85,0,0,0,.45-1.37V316a2.38,2.38,0,0,1-.87.71,2.66,2.66,0,0,1-1.17.24,2.53,2.53,0,0,1-2.11-1,4.1,4.1,0,0,1-.76-2.58Zm1.34.15a3.19,3.19,0,0,0,.46,1.79,1.6,1.6,0,0,0,1.42.67,1.79,1.79,0,0,0,1-.27,2.12,2.12,0,0,0,.68-.79v-3.4a2.14,2.14,0,0,0-.68-.75,1.78,1.78,0,0,0-1-.28,1.55,1.55,0,0,0-1.43.8,4.24,4.24,0,0,0-.46,2.08Z"/><path d="M137.54,329.51a9.21,9.21,0,0,1,1.09-4.6,6.28,6.28,0,0,1,2.28-2.54h0l.26.79a6,6,0,0,0-1.63,2.34,10.19,10.19,0,0,0-.69,4v.09a10.11,10.11,0,0,0,.69,4,6.43,6.43,0,0,0,1.63,2.41l-.26.74h0a6.35,6.35,0,0,1-2.28-2.54,9.19,9.19,0,0,1-1.09-4.61Z"/><path d="M150.05,329.47a4.25,4.25,0,0,1-1.13,3A3.85,3.85,0,0,1,146,333.7a3.61,3.61,0,0,1-2.83-1.21,4.31,4.31,0,0,1-1.09-3v-1.78a4.31,4.31,0,0,1,1.09-3,3.61,3.61,0,0,1,2.83-1.21,3.87,3.87,0,0,1,2.94,1.2,4.29,4.29,0,0,1,1.13,3Zm-1.35-1.79a3.36,3.36,0,0,0-.74-2.24,2.47,2.47,0,0,0-2-.88,2.31,2.31,0,0,0-1.88.88,3.51,3.51,0,0,0-.7,2.24v1.79a3.52,3.52,0,0,0,.7,2.25,2.28,2.28,0,0,0,1.88.88,2.44,2.44,0,0,0,2-.87,3.42,3.42,0,0,0,.74-2.26Z"/><path d="M153,326.16l.09,1.1a2.69,2.69,0,0,1,.93-.91,2.72,2.72,0,0,1,3.12.37,3.07,3.07,0,0,1,.66,2.16v4.67h-1.35v-4.64a2,2,0,0,0-.39-1.39,1.56,1.56,0,0,0-1.18-.41,2.15,2.15,0,0,0-1,.25,1.86,1.86,0,0,0-.69.7v5.49H151.8v-7.39Z"/><path d="M162.82,333.7a3.11,3.11,0,0,1-2.48-1,3.89,3.89,0,0,1-.89-2.68v-.3a3.83,3.83,0,0,1,.92-2.64,2.89,2.89,0,0,1,2.24-1,2.71,2.71,0,0,1,2.23.92,3.86,3.86,0,0,1,.74,2.46v.71h-4.73l0,0a3,3,0,0,0,.49,1.81,1.72,1.72,0,0,0,1.5.69,3.36,3.36,0,0,0,1.2-.19,2.65,2.65,0,0,0,.89-.54l.52.88a3.18,3.18,0,0,1-1,.64A4.09,4.09,0,0,1,162.82,333.7Zm-.21-6.62a1.45,1.45,0,0,0-1.16.54,2.61,2.61,0,0,0-.57,1.39l0,0h3.33v-.11a2.1,2.1,0,0,0-.4-1.33A1.43,1.43,0,0,0,162.61,327.08Z"/><path d="M171.29,329.88h-4v-1.06h4Z"/><path d="M174.85,333.55h-1.34V322.89h1.34Z"/><path d="M180,333.7a3.15,3.15,0,0,1-2.49-1,3.94,3.94,0,0,1-.89-2.68v-.3a3.88,3.88,0,0,1,.92-2.64,2.89,2.89,0,0,1,2.25-1,2.69,2.69,0,0,1,2.22.92,3.8,3.8,0,0,1,.74,2.46v.71H178l0,0a3.1,3.1,0,0,0,.49,1.81,1.73,1.73,0,0,0,1.51.69,3.44,3.44,0,0,0,1.2-.19,2.61,2.61,0,0,0,.88-.54l.53.88a3.23,3.23,0,0,1-1,.64A4,4,0,0,1,180,333.7Zm-.21-6.62a1.48,1.48,0,0,0-1.17.54,2.52,2.52,0,0,0-.56,1.39v0h3.34v-.11a2.17,2.17,0,0,0-.4-1.33A1.43,1.43,0,0,0,179.78,327.08Z"/><path d="M186.63,331.37l.12.52h0l.13-.52,1.7-5.21H190l-2.73,7.39h-1l-2.76-7.39h1.38Z"/><path d="M194.18,333.7a3.15,3.15,0,0,1-2.49-1,3.94,3.94,0,0,1-.89-2.68v-.3a3.88,3.88,0,0,1,.92-2.64,2.89,2.89,0,0,1,2.25-1,2.68,2.68,0,0,1,2.22.92,3.8,3.8,0,0,1,.74,2.46v.71H192.2l0,0a3,3,0,0,0,.5,1.81,1.7,1.7,0,0,0,1.5.69,3.44,3.44,0,0,0,1.2-.19,2.61,2.61,0,0,0,.88-.54l.53.88a3.13,3.13,0,0,1-1,.64A4,4,0,0,1,194.18,333.7Zm-.21-6.62a1.48,1.48,0,0,0-1.17.54,2.6,2.6,0,0,0-.56,1.39v0h3.34v-.11a2.1,2.1,0,0,0-.4-1.33A1.43,1.43,0,0,0,194,327.08Z"/><path d="M199.9,333.55h-1.35V322.89h1.35Z"/><path d="M204.71,329.57a9.19,9.19,0,0,1-1.09,4.61,6.42,6.42,0,0,1-2.28,2.54h0L201,336a5.94,5.94,0,0,0,1.62-2.36,10.25,10.25,0,0,0,.7-4v-.09a10,10,0,0,0-.72-4,6.66,6.66,0,0,0-1.6-2.4l.26-.74h0a6.35,6.35,0,0,1,2.28,2.54,9.21,9.21,0,0,1,1.09,4.6Z"/><path d="M208.14,327.57h-1.35v-1.39h1.35Zm0,6h-1.35v-1.38h1.35Z"/><path d="M100,347.78a1.43,1.43,0,0,0-.43-1,3.8,3.8,0,0,0-1.44-.77,4.91,4.91,0,0,1-2.08-1.12,2.48,2.48,0,0,1-.71-1.85,2.62,2.62,0,0,1,.65-1.84,2.82,2.82,0,0,1,1.79-.86v-1.51h1.08v1.52a2.58,2.58,0,0,1,1.77.94,3.25,3.25,0,0,1,.63,2.1H100a2.18,2.18,0,0,0-.43-1.41,1.44,1.44,0,0,0-1.19-.54A1.43,1.43,0,0,0,96.72,343a1.45,1.45,0,0,0,.42,1.08,4.08,4.08,0,0,0,1.49.78,5.13,5.13,0,0,1,2.07,1.12,2.44,2.44,0,0,1,.68,1.83,2.5,2.5,0,0,1-.7,1.87,3.12,3.12,0,0,1-1.94.82v1.32H97.67v-1.31a3.14,3.14,0,0,1-1.93-.86,2.8,2.8,0,0,1-.72-2.15v0h1.3a1.88,1.88,0,0,0,.53,1.5,2,2,0,0,0,1.3.45,2.07,2.07,0,0,0,1.38-.42A1.45,1.45,0,0,0,100,347.78Z"/><path d="M108.38,347h1.38v1.06h-1.38v2.29H107v-2.29h-4.27v-.76l4.19-6.9h1.42Zm-4.17,0H107v-4.66h0l-.13.34Z"/><path d="M117.27,346.84a3.91,3.91,0,0,1-.86,2.67,3.18,3.18,0,0,1-4.61,0,3.87,3.87,0,0,1-.87-2.67v-2.93a3.94,3.94,0,0,1,.86-2.66,3.18,3.18,0,0,1,4.61,0,3.89,3.89,0,0,1,.87,2.66Zm-1.35-3.21a2.69,2.69,0,0,0-.48-1.69,1.59,1.59,0,0,0-1.35-.62,1.56,1.56,0,0,0-1.34.62,2.76,2.76,0,0,0-.47,1.69v3.48a2.76,2.76,0,0,0,.48,1.71,1.59,1.59,0,0,0,1.34.62,1.57,1.57,0,0,0,1.35-.62,2.82,2.82,0,0,0,.47-1.71Z"/><path d="M120.19,350l-1,2.09h-.8l.48-2.16v-1.12h1.34Z"/><path d="M127.91,346.84a3.86,3.86,0,0,1-.86,2.67,2.89,2.89,0,0,1-2.3,1,2.92,2.92,0,0,1-2.31-1,3.87,3.87,0,0,1-.87-2.67v-2.93a3.94,3.94,0,0,1,.86-2.66,2.89,2.89,0,0,1,2.3-1,2.93,2.93,0,0,1,2.32,1,3.94,3.94,0,0,1,.86,2.66Zm-1.35-3.21a2.69,2.69,0,0,0-.47-1.69,1.6,1.6,0,0,0-1.36-.62,1.57,1.57,0,0,0-1.34.62,2.76,2.76,0,0,0-.47,1.69v3.48a2.76,2.76,0,0,0,.48,1.71,1.59,1.59,0,0,0,1.35.62,1.56,1.56,0,0,0,1.34-.62,2.76,2.76,0,0,0,.47-1.71Z"/><path d="M135.79,346.84a3.91,3.91,0,0,1-.85,2.67,3.19,3.19,0,0,1-4.62,0,3.86,3.86,0,0,1-.86-2.67v-2.93a3.93,3.93,0,0,1,.85-2.66,3.19,3.19,0,0,1,4.62,0,3.89,3.89,0,0,1,.86,2.66Zm-1.34-3.21a2.69,2.69,0,0,0-.48-1.69,1.78,1.78,0,0,0-2.7,0,2.76,2.76,0,0,0-.47,1.69v3.48a2.7,2.7,0,0,0,.49,1.71,1.57,1.57,0,0,0,1.34.62,1.59,1.59,0,0,0,1.35-.62,2.82,2.82,0,0,0,.47-1.71Z"/><path d="M143.68,346.84a3.91,3.91,0,0,1-.86,2.67,3.19,3.19,0,0,1-4.62,0,3.91,3.91,0,0,1-.86-2.67v-2.93a3.89,3.89,0,0,1,.86-2.66,2.89,2.89,0,0,1,2.3-1,2.92,2.92,0,0,1,2.31,1,3.89,3.89,0,0,1,.87,2.66Zm-1.35-3.21a2.69,2.69,0,0,0-.48-1.69,1.59,1.59,0,0,0-1.35-.62,1.56,1.56,0,0,0-1.34.62,2.69,2.69,0,0,0-.47,1.69v3.48a2.76,2.76,0,0,0,.48,1.71,1.77,1.77,0,0,0,2.69,0,2.82,2.82,0,0,0,.47-1.71Z"/><path d="M155.21,346.94a4.1,4.1,0,0,1-.77,2.58,2.53,2.53,0,0,1-2.11,1,3,3,0,0,1-1.2-.23,2.26,2.26,0,0,1-.88-.69v3.62H148.9V343h1l.21,1a2.49,2.49,0,0,1,.9-.81,2.66,2.66,0,0,1,1.26-.28,2.45,2.45,0,0,1,2.14,1.09,5,5,0,0,1,.76,2.88Zm-1.35-.15a3.92,3.92,0,0,0-.49-2.07,1.62,1.62,0,0,0-1.46-.81,1.8,1.8,0,0,0-1,.27,1.92,1.92,0,0,0-.66.72v3.57a1.92,1.92,0,0,0,.66.72,1.89,1.89,0,0,0,1,.25,1.65,1.65,0,0,0,1.45-.7,3,3,0,0,0,.49-1.8Z"/><path d="M159.92,350.5a3.11,3.11,0,0,1-2.48-1,3.89,3.89,0,0,1-.89-2.68v-.3a3.83,3.83,0,0,1,.92-2.64,2.89,2.89,0,0,1,2.24-1,2.71,2.71,0,0,1,2.23.92,3.86,3.86,0,0,1,.74,2.46v.71H158l0,0a3,3,0,0,0,.49,1.81,1.72,1.72,0,0,0,1.5.69,3.36,3.36,0,0,0,1.2-.19,2.65,2.65,0,0,0,.89-.54l.53.88a3.34,3.34,0,0,1-1,.64A4.05,4.05,0,0,1,159.92,350.5Zm-.21-6.62a1.45,1.45,0,0,0-1.16.54,2.61,2.61,0,0,0-.57,1.4l0,0h3.33v-.11a2.16,2.16,0,0,0-.39-1.33A1.46,1.46,0,0,0,159.71,343.88Z"/><path d="M167.69,344.15l-.69,0a1.52,1.52,0,0,0-.9.25,1.61,1.61,0,0,0-.56.71v5.28h-1.35V343h1.2l.13,1.08a2.56,2.56,0,0,1,.78-.9,1.84,1.84,0,0,1,1.06-.32l.29,0,.22.06Z"/><path d="M176.87,348.36a.89.89,0,0,0-.34-.72,3.15,3.15,0,0,0-1.28-.49,5.43,5.43,0,0,1-2-.79,1.61,1.61,0,0,1-.7-1.35,2,2,0,0,1,.77-1.55,3.41,3.41,0,0,1,4,0,2,2,0,0,1,.75,1.6l0,0h-1.28a1.17,1.17,0,0,0-.42-.87,1.51,1.51,0,0,0-1.06-.39,1.57,1.57,0,0,0-1.07.32,1,1,0,0,0-.35.77.81.81,0,0,0,.3.67,3.43,3.43,0,0,0,1.26.44,5.1,5.1,0,0,1,2.06.82,1.63,1.63,0,0,1,.71,1.37,2,2,0,0,1-.8,1.61,3.3,3.3,0,0,1-2.08.62,3.25,3.25,0,0,1-2.23-.72,2,2,0,0,1-.77-1.67v-.05h1.29a1.24,1.24,0,0,0,.53,1.05,2.06,2.06,0,0,0,1.17.33,1.84,1.84,0,0,0,1.12-.3A.93.93,0,0,0,176.87,348.36Z"/><path d="M186.19,346.94a4.1,4.1,0,0,1-.76,2.58,2.55,2.55,0,0,1-2.11,1,3,3,0,0,1-1.2-.23,2.19,2.19,0,0,1-.88-.69v3.62h-1.35V343h1l.22,1a2.49,2.49,0,0,1,.9-.81,2.66,2.66,0,0,1,1.26-.28,2.45,2.45,0,0,1,2.13,1.09,4.93,4.93,0,0,1,.76,2.88Zm-1.34-.15a3.92,3.92,0,0,0-.5-2.07,1.6,1.6,0,0,0-1.46-.81,1.79,1.79,0,0,0-1,.27,1.92,1.92,0,0,0-.66.72v3.57a1.92,1.92,0,0,0,.66.72,1.89,1.89,0,0,0,1,.25,1.66,1.66,0,0,0,1.45-.7,3.11,3.11,0,0,0,.49-1.8Z"/><path d="M192.4,350.35a5.88,5.88,0,0,1-.11-.59,4.4,4.4,0,0,1,0-.51,3.12,3.12,0,0,1-1,.89,2.47,2.47,0,0,1-1.3.36,2.43,2.43,0,0,1-1.76-.59,2.2,2.2,0,0,1-.6-1.63,1.91,1.91,0,0,1,.85-1.66,4,4,0,0,1,2.33-.6h1.46v-.73a1.37,1.37,0,0,0-.39-1,1.58,1.58,0,0,0-1.12-.38,1.62,1.62,0,0,0-1.06.33,1,1,0,0,0-.41.78L188,345l0,0a1.78,1.78,0,0,1,.76-1.48,3.09,3.09,0,0,1,2.07-.67,3,3,0,0,1,2,.64,2.27,2.27,0,0,1,.76,1.84v3.56a6.4,6.4,0,0,0,0,.77,4.18,4.18,0,0,0,.15.72Zm-2.24-1a2.4,2.4,0,0,0,1.32-.38,1.71,1.71,0,0,0,.76-.86v-1.2h-1.51a2,2,0,0,0-1.3.41,1.23,1.23,0,0,0-.49,1,1,1,0,0,0,.31.78A1.31,1.31,0,0,0,190.16,349.37Z"/><path d="M198.49,349.44a1.55,1.55,0,0,0,1.08-.41,1.29,1.29,0,0,0,.47-1h1.21l0,0a2.12,2.12,0,0,1-.82,1.7,3.13,3.13,0,0,1-4.37-.32,4.08,4.08,0,0,1-.85-2.64v-.29a4.13,4.13,0,0,1,.85-2.63,2.94,2.94,0,0,1,2.41-1.06,2.78,2.78,0,0,1,2,.77,2.4,2.4,0,0,1,.76,1.88v0H200a1.63,1.63,0,0,0-.44-1.15,1.46,1.46,0,0,0-1.11-.48,1.57,1.57,0,0,0-1.45.77,3.61,3.61,0,0,0-.45,1.86v.29a3.66,3.66,0,0,0,.44,1.88A1.56,1.56,0,0,0,198.49,349.44Z"/><path d="M205.94,350.5a3.15,3.15,0,0,1-2.49-1,3.94,3.94,0,0,1-.89-2.68v-.3a3.88,3.88,0,0,1,.92-2.64,2.89,2.89,0,0,1,2.25-1,2.69,2.69,0,0,1,2.22.92,3.86,3.86,0,0,1,.74,2.46v.71H204l0,0a3,3,0,0,0,.49,1.81,1.73,1.73,0,0,0,1.51.69,3.44,3.44,0,0,0,1.2-.19,2.61,2.61,0,0,0,.88-.54l.53.88a3.23,3.23,0,0,1-1.05.64A4,4,0,0,1,205.94,350.5Zm-.21-6.62a1.48,1.48,0,0,0-1.17.54,2.53,2.53,0,0,0-.56,1.4v0h3.34v-.11a2.17,2.17,0,0,0-.4-1.33A1.44,1.44,0,0,0,205.73,343.88Z"/><line class="cls-5" x1="217.16" y1="324.07" x2="297.09" y2="324.07"/><polygon points="292.39 329.87 291.42 328.83 296.54 324.07 291.42 319.31 292.39 318.27 298.62 324.07 292.39 329.87"/><path d="M84.17,373.5v6.61a3.23,3.23,0,0,1-1.07,2.57,4.06,4.06,0,0,1-2.75.92,3.81,3.81,0,0,1-2.65-.93,3.24,3.24,0,0,1-1-2.56V373.5H78v6.61a2.37,2.37,0,0,0,.65,1.79,2.29,2.29,0,0,0,1.68.65,2.48,2.48,0,0,0,1.78-.65,2.32,2.32,0,0,0,.69-1.79V373.5Z"/><path d="M87.32,376.06l.1,1.1a2.67,2.67,0,0,1,.92-.91,2.72,2.72,0,0,1,3.12.37,3.08,3.08,0,0,1,.66,2.17v4.67H90.77v-4.64a2,2,0,0,0-.38-1.39,1.53,1.53,0,0,0-1.18-.41,2.05,2.05,0,0,0-1.06.25,1.79,1.79,0,0,0-.69.7v5.49H86.12v-7.4Z"/><path d="M93.77,379.9a4.93,4.93,0,0,1,.76-2.88,2.46,2.46,0,0,1,2.13-1.1,2.67,2.67,0,0,1,1.16.24,2.39,2.39,0,0,1,.85.7v-4.07H100v10.67H99l-.21-.94a2.37,2.37,0,0,1-.89.81,2.73,2.73,0,0,1-1.24.27,2.55,2.55,0,0,1-2.12-1,4.06,4.06,0,0,1-.76-2.58Zm1.34.14a3.14,3.14,0,0,0,.46,1.79,1.61,1.61,0,0,0,1.42.68,1.72,1.72,0,0,0,1-.28,1.92,1.92,0,0,0,.67-.76V378a2,2,0,0,0-.67-.73,1.77,1.77,0,0,0-1-.27,1.54,1.54,0,0,0-1.44.8,4.19,4.19,0,0,0-.46,2.08Z"/><path d="M105.09,383.6a3.11,3.11,0,0,1-2.48-1,3.89,3.89,0,0,1-.89-2.68v-.3a3.79,3.79,0,0,1,.92-2.63,2.87,2.87,0,0,1,2.24-1.05,2.69,2.69,0,0,1,2.23.93,3.81,3.81,0,0,1,.74,2.45V380h-4.73l0,0a3,3,0,0,0,.49,1.8,1.71,1.71,0,0,0,1.5.7,3.35,3.35,0,0,0,1.2-.2,2.81,2.81,0,0,0,.89-.53l.52.87a3.19,3.19,0,0,1-1,.65A4.3,4.3,0,0,1,105.09,383.6Zm-.21-6.62a1.43,1.43,0,0,0-1.16.55,2.54,2.54,0,0,0-.57,1.39l0,0h3.33v-.11a2.12,2.12,0,0,0-.4-1.33A1.43,1.43,0,0,0,104.88,377Z"/><path d="M112.86,377.25l-.69,0a1.52,1.52,0,0,0-.9.25,1.66,1.66,0,0,0-.56.71v5.29h-1.35v-7.4h1.2l.13,1.08a2.52,2.52,0,0,1,.78-.89,1.78,1.78,0,0,1,1.06-.33,1.36,1.36,0,0,1,.29,0,1,1,0,0,1,.22.05Z"/><path d="M113.89,379.9a5,5,0,0,1,.76-2.88,2.46,2.46,0,0,1,2.13-1.1,2.61,2.61,0,0,1,1.24.29,2.51,2.51,0,0,1,.9.82l.16-1h1.07v7.44a2.81,2.81,0,0,1-.82,2.18,3.41,3.41,0,0,1-2.39.76,4.81,4.81,0,0,1-1.15-.14,4.5,4.5,0,0,1-1.09-.4l.2-1a3.69,3.69,0,0,0,.94.33,4.57,4.57,0,0,0,1.09.13,2,2,0,0,0,1.43-.45,1.84,1.84,0,0,0,.45-1.36v-.84a2.43,2.43,0,0,1-.87.7,2.72,2.72,0,0,1-1.17.24,2.55,2.55,0,0,1-2.12-1,4.12,4.12,0,0,1-.76-2.58Zm1.35.14a3.11,3.11,0,0,0,.46,1.79,1.58,1.58,0,0,0,1.41.68,1.8,1.8,0,0,0,1-.28,2.17,2.17,0,0,0,.68-.78V378a2.24,2.24,0,0,0-.68-.75,1.81,1.81,0,0,0-1-.27,1.52,1.52,0,0,0-1.42.8,4.08,4.08,0,0,0-.46,2.08Z"/><path d="M125.59,377.25l-.69,0a1.52,1.52,0,0,0-.9.25,1.68,1.68,0,0,0-.57.71v5.29h-1.34v-7.4h1.2l.13,1.08a2.52,2.52,0,0,1,.78-.89,1.76,1.76,0,0,1,1.06-.33,1.36,1.36,0,0,1,.29,0,1,1,0,0,1,.22.05Z"/><path d="M126.54,379.69a4,4,0,0,1,.89-2.7,3,3,0,0,1,2.41-1.07,3,3,0,0,1,2.43,1.06,4.09,4.09,0,0,1,.89,2.71v.15a4,4,0,0,1-.89,2.71,3.3,3.3,0,0,1-4.84,0,4,4,0,0,1-.89-2.7Zm1.34.15a3.52,3.52,0,0,0,.5,1.94,1.79,1.79,0,0,0,2.94,0,3.51,3.51,0,0,0,.49-1.94v-.15a3.42,3.42,0,0,0-.5-1.93,1.77,1.77,0,0,0-2.93,0,3.5,3.5,0,0,0-.5,1.93Z"/><path d="M139.51,382.36a2.56,2.56,0,0,1-.9.92,2.48,2.48,0,0,1-1.26.32,2.39,2.39,0,0,1-1.89-.77,3.61,3.61,0,0,1-.68-2.41v-4.36h1.35v4.38a2.67,2.67,0,0,0,.35,1.62,1.27,1.27,0,0,0,1.08.45,2.25,2.25,0,0,0,1.19-.29,1.86,1.86,0,0,0,.71-.83v-5.33h1.34v7.4h-1.21Z"/><path d="M144,376.06l.09,1.1a2.78,2.78,0,0,1,.93-.91,2.72,2.72,0,0,1,3.12.37,3.08,3.08,0,0,1,.66,2.17v4.67h-1.35v-4.64a2,2,0,0,0-.38-1.39,1.54,1.54,0,0,0-1.18-.41,2.05,2.05,0,0,0-1.06.25,1.79,1.79,0,0,0-.69.7v5.49h-1.34v-7.4Z"/><path d="M150.42,379.9a4.93,4.93,0,0,1,.76-2.88,2.46,2.46,0,0,1,2.13-1.1,2.67,2.67,0,0,1,1.16.24,2.39,2.39,0,0,1,.85.7v-4.07h1.35v10.67h-1l-.21-.94a2.37,2.37,0,0,1-.89.81,2.73,2.73,0,0,1-1.24.27,2.55,2.55,0,0,1-2.12-1,4.06,4.06,0,0,1-.76-2.58Zm1.34.14a3.14,3.14,0,0,0,.46,1.79,1.61,1.61,0,0,0,1.42.68,1.72,1.72,0,0,0,1-.28,1.92,1.92,0,0,0,.67-.76V378a2,2,0,0,0-.67-.73,1.79,1.79,0,0,0-1-.27,1.54,1.54,0,0,0-1.44.8,4.19,4.19,0,0,0-.46,2.08Z"/><path d="M163.69,379.47v4h-1.35v-10h3.81a3.55,3.55,0,0,1,2.48.82,2.83,2.83,0,0,1,.89,2.17,2.79,2.79,0,0,1-.89,2.16,3.55,3.55,0,0,1-2.48.82Zm0-1.06h2.46a2,2,0,0,0,1.51-.54,1.91,1.91,0,0,0,.5-1.37,2,2,0,0,0-.5-1.38,2,2,0,0,0-1.51-.56h-2.46Z"/><path d="M175.53,383.46c0-.23-.08-.42-.11-.59a4.73,4.73,0,0,1,0-.52,3.11,3.11,0,0,1-1,.89,2.5,2.5,0,0,1-1.3.36,2.43,2.43,0,0,1-1.76-.59,2.15,2.15,0,0,1-.61-1.63,1.92,1.92,0,0,1,.86-1.66,4,4,0,0,1,2.33-.6h1.46v-.73a1.36,1.36,0,0,0-.4-1,1.55,1.55,0,0,0-1.12-.38,1.64,1.64,0,0,0-1.06.33,1,1,0,0,0-.4.79h-1.28v0a1.79,1.79,0,0,1,.75-1.48,3.19,3.19,0,0,1,2.08-.67,3.07,3.07,0,0,1,2,.64,2.28,2.28,0,0,1,.77,1.85V382a6.23,6.23,0,0,0,0,.76,4.5,4.5,0,0,0,.15.73Zm-2.23-1a2.38,2.38,0,0,0,1.31-.37,1.78,1.78,0,0,0,.77-.86V380h-1.51a2,2,0,0,0-1.3.41,1.24,1.24,0,0,0-.49,1,1,1,0,0,0,.31.78A1.27,1.27,0,0,0,173.3,382.47Z"/><path d="M182.18,377.25l-.69,0a1.56,1.56,0,0,0-.9.25,1.66,1.66,0,0,0-.56.71v5.29h-1.35v-7.4h1.21l.13,1.08a2.41,2.41,0,0,1,.77-.89,1.78,1.78,0,0,1,1.06-.33,1.36,1.36,0,0,1,.29,0l.23.05Z"/><path d="M185.63,380.05h-.69v3.41h-1.35V372.79h1.35V379h.67l2.23-2.91h1.61l-2.69,3.41,2.92,4h-1.59Z"/><path d="M192.22,374.17h-1.35v-1.38h1.35Zm0,9.29h-1.35v-7.4h1.35Z"/><path d="M195.49,376.06l.1,1.1a2.67,2.67,0,0,1,.92-.91,2.48,2.48,0,0,1,1.27-.33,2.42,2.42,0,0,1,1.85.7,3.08,3.08,0,0,1,.66,2.17v4.67h-1.35v-4.64a2,2,0,0,0-.38-1.39,1.53,1.53,0,0,0-1.18-.41,2.05,2.05,0,0,0-1.06.25,1.7,1.7,0,0,0-.68.7v5.49h-1.35v-7.4Z"/><path d="M202,379.9a4.93,4.93,0,0,1,.76-2.88,2.46,2.46,0,0,1,2.13-1.1,2.61,2.61,0,0,1,1.24.29,2.48,2.48,0,0,1,.89.82l.16-1h1.08v7.44a2.82,2.82,0,0,1-.83,2.18,3.39,3.39,0,0,1-2.38.76,5,5,0,0,1-1.16-.14,4.66,4.66,0,0,1-1.09-.4l.21-1a3.56,3.56,0,0,0,.94.33,4.49,4.49,0,0,0,1.08.13,1.93,1.93,0,0,0,1.43-.45,1.84,1.84,0,0,0,.45-1.36v-.84a2.35,2.35,0,0,1-.87.7,2.66,2.66,0,0,1-1.17.24,2.53,2.53,0,0,1-2.11-1A4.06,4.06,0,0,1,202,380Zm1.34.14a3.19,3.19,0,0,0,.46,1.79,1.61,1.61,0,0,0,1.42.68,1.79,1.79,0,0,0,1-.28,2.08,2.08,0,0,0,.68-.78V378a2.14,2.14,0,0,0-.68-.75,1.78,1.78,0,0,0-1-.27,1.53,1.53,0,0,0-1.43.8,4.19,4.19,0,0,0-.46,2.08Z"/><path d="M130.48,396.22a9.08,9.08,0,0,1,1.09-4.6,6.32,6.32,0,0,1,2.28-2.55h0l.26.79a5.86,5.86,0,0,0-1.63,2.35,10.11,10.11,0,0,0-.69,4v.09a10.19,10.19,0,0,0,.69,4,6.35,6.35,0,0,0,1.63,2.4l-.26.74h0a6.21,6.21,0,0,1-2.28-2.54,9.08,9.08,0,0,1-1.09-4.6Z"/><path d="M140.32,398.39h0l3.18-8.09h1.67v10h-1.34V392.8h0l-3,7.47h-.94l-3.1-7.71h0v7.71h-1.35v-10h1.77Z"/><path d="M152.06,399.16a2.56,2.56,0,0,1-.9.92,2.48,2.48,0,0,1-1.26.32,2.39,2.39,0,0,1-1.89-.77,3.61,3.61,0,0,1-.68-2.41v-4.36h1.35v4.38a2.75,2.75,0,0,0,.35,1.62,1.27,1.27,0,0,0,1.08.45,2.25,2.25,0,0,0,1.19-.29,1.86,1.86,0,0,0,.71-.83v-5.33h1.34v7.4h-1.2Z"/><path d="M156.77,400.26h-1.34V389.59h1.34Z"/><path d="M160.72,391.08v1.78h1.4v1h-1.4v4.49a1,1,0,0,0,.21.73.8.8,0,0,0,.57.21l.26,0,.24-.06.19.92a1.18,1.18,0,0,1-.45.2,2.32,2.32,0,0,1-.58.08,1.69,1.69,0,0,1-1.3-.5,2.1,2.1,0,0,1-.49-1.55v-4.49h-1.18v-1h1.18v-1.78Z"/><path d="M165,391h-1.35v-1.38H165Zm0,9.29h-1.35v-7.4H165Z"/><path d="M171.29,396.58h-4v-1.05h4Z"/><path d="M174.85,400.26h-1.34V389.59h1.34Z"/><path d="M180,400.4a3.15,3.15,0,0,1-2.49-1,3.94,3.94,0,0,1-.89-2.68v-.3a3.83,3.83,0,0,1,.92-2.63,2.87,2.87,0,0,1,2.25-1,2.67,2.67,0,0,1,2.22.93,3.75,3.75,0,0,1,.74,2.45v.71H178l0,0a3.09,3.09,0,0,0,.49,1.8,1.71,1.71,0,0,0,1.51.7,3.43,3.43,0,0,0,1.2-.2,2.76,2.76,0,0,0,.88-.53l.53.87a3.24,3.24,0,0,1-1,.65A4.24,4.24,0,0,1,180,400.4Zm-.21-6.62a1.46,1.46,0,0,0-1.17.55,2.46,2.46,0,0,0-.56,1.39v0h3.34v-.11a2.19,2.19,0,0,0-.4-1.33A1.43,1.43,0,0,0,179.78,393.78Z"/><path d="M186.63,398.08l.12.52h0l.13-.52,1.7-5.22H190l-2.73,7.4h-1l-2.76-7.4h1.38Z"/><path d="M194.18,400.4a3.15,3.15,0,0,1-2.49-1,3.94,3.94,0,0,1-.89-2.68v-.3a3.83,3.83,0,0,1,.92-2.63,2.87,2.87,0,0,1,2.25-1,2.66,2.66,0,0,1,2.22.93,3.75,3.75,0,0,1,.74,2.45v.71H192.2l0,0a3,3,0,0,0,.5,1.8,1.68,1.68,0,0,0,1.5.7,3.43,3.43,0,0,0,1.2-.2,2.76,2.76,0,0,0,.88-.53l.53.87a3.14,3.14,0,0,1-1,.65A4.24,4.24,0,0,1,194.18,400.4Zm-.21-6.62a1.46,1.46,0,0,0-1.17.55,2.54,2.54,0,0,0-.56,1.39v0h3.34v-.11a2.12,2.12,0,0,0-.4-1.33A1.43,1.43,0,0,0,194,393.78Z"/><path d="M199.9,400.26h-1.35V389.59h1.35Z"/><path d="M204.71,396.28a9.18,9.18,0,0,1-1.09,4.6,6.35,6.35,0,0,1-2.28,2.54h0l-.26-.74a5.8,5.8,0,0,0,1.62-2.36,10.21,10.21,0,0,0,.7-4v-.09a10,10,0,0,0-.72-4,6.66,6.66,0,0,0-1.6-2.4l.26-.74h0a6.46,6.46,0,0,1,2.28,2.55,9.18,9.18,0,0,1,1.09,4.6Z"/><path d="M208.14,394.27h-1.35v-1.38h1.35Zm0,6h-1.35v-1.38h1.35Z"/><path d="M90.81,411.7h2.72v1.22H90.81v3.14H89.46v-3.14H86.71V411.7h2.75v-2.89h1.35Z"/><path d="M100,414.49a1.43,1.43,0,0,0-.43-1.05,3.8,3.8,0,0,0-1.44-.78,5,5,0,0,1-2.08-1.11,2.52,2.52,0,0,1-.71-1.86,2.63,2.63,0,0,1,.65-1.84,2.87,2.87,0,0,1,1.79-.86v-1.51h1.08V407a2.58,2.58,0,0,1,1.77.94,3.25,3.25,0,0,1,.63,2.1H100a2.17,2.17,0,0,0-.43-1.4,1.44,1.44,0,0,0-1.19-.54,1.6,1.6,0,0,0-1.21.42,1.58,1.58,0,0,0-.4,1.15,1.42,1.42,0,0,0,.42,1.07,4.08,4.08,0,0,0,1.49.78,5.13,5.13,0,0,1,2.07,1.13,2.4,2.4,0,0,1,.68,1.82,2.49,2.49,0,0,1-.7,1.87,3.13,3.13,0,0,1-1.94.83v1.31H97.67v-1.31a3.13,3.13,0,0,1-1.93-.85,2.81,2.81,0,0,1-.72-2.16v0h1.3a1.89,1.89,0,0,0,.53,1.51,2,2,0,0,0,1.3.44,2.07,2.07,0,0,0,1.38-.42A1.44,1.44,0,0,0,100,414.49Z"/><path d="M103.47,412.63l.58-5.53h5v1.2h-3.85l-.32,2.86a3.48,3.48,0,0,1,.71-.39,2.94,2.94,0,0,1,3.05.71,3.43,3.43,0,0,1,.79,2.41,3.47,3.47,0,0,1-.81,2.4,2.93,2.93,0,0,1-2.34.91,3.2,3.2,0,0,1-2.1-.69,2.4,2.4,0,0,1-.81-2v0h1.22a1.58,1.58,0,0,0,1.68,1.71,1.6,1.6,0,0,0,1.33-.6,2.63,2.63,0,0,0,.47-1.65,2.36,2.36,0,0,0-.48-1.54,1.59,1.59,0,0,0-1.32-.59,2.12,2.12,0,0,0-1.15.24,1.42,1.42,0,0,0-.52.74Z"/><path d="M111.35,412.63l.58-5.53h5v1.2h-3.85l-.32,2.86a3.48,3.48,0,0,1,.71-.39,3,3,0,0,1,3.06.71,3.48,3.48,0,0,1,.78,2.41,3.51,3.51,0,0,1-.8,2.4,3,3,0,0,1-2.35.91,3.2,3.2,0,0,1-2.1-.69,2.4,2.4,0,0,1-.81-2l0,0h1.21a1.58,1.58,0,0,0,1.68,1.71,1.59,1.59,0,0,0,1.33-.6,2.63,2.63,0,0,0,.47-1.65,2.42,2.42,0,0,0-.47-1.54,1.63,1.63,0,0,0-1.33-.59A2.08,2.08,0,0,0,113,412a1.38,1.38,0,0,0-.53.74Z"/><path d="M120.19,416.73l-1,2.09h-.8l.48-2.16v-1.11h1.34Z"/><path d="M127.91,413.54a3.91,3.91,0,0,1-.86,2.68,2.91,2.91,0,0,1-2.3,1,3,3,0,0,1-2.31-1,3.91,3.91,0,0,1-.87-2.68v-2.92a4,4,0,0,1,.86-2.67,2.89,2.89,0,0,1,2.3-1,2.93,2.93,0,0,1,2.32,1,4,4,0,0,1,.86,2.67Zm-1.35-3.2a2.72,2.72,0,0,0-.47-1.7,1.62,1.62,0,0,0-1.36-.62,1.6,1.6,0,0,0-1.34.62,2.79,2.79,0,0,0-.47,1.7v3.48a2.74,2.74,0,0,0,.48,1.7,1.6,1.6,0,0,0,1.35.63,1.57,1.57,0,0,0,1.34-.63,2.7,2.7,0,0,0,.47-1.7Z"/><path d="M135.79,413.54a4,4,0,0,1-.85,2.68,3.21,3.21,0,0,1-4.62,0,3.91,3.91,0,0,1-.86-2.68v-2.92a3.94,3.94,0,0,1,.85-2.67,3.19,3.19,0,0,1,4.62,0,3.9,3.9,0,0,1,.86,2.67Zm-1.34-3.2a2.73,2.73,0,0,0-.48-1.7,1.78,1.78,0,0,0-2.7,0,2.79,2.79,0,0,0-.47,1.7v3.48a2.68,2.68,0,0,0,.49,1.7,1.58,1.58,0,0,0,1.34.63,1.6,1.6,0,0,0,1.35-.63,2.77,2.77,0,0,0,.47-1.7Z"/><path d="M143.68,413.54a4,4,0,0,1-.86,2.68,3.21,3.21,0,0,1-4.62,0,4,4,0,0,1-.86-2.68v-2.92a3.9,3.9,0,0,1,.86-2.67,2.89,2.89,0,0,1,2.3-1,2.92,2.92,0,0,1,2.31,1,3.9,3.9,0,0,1,.87,2.67Zm-1.35-3.2a2.73,2.73,0,0,0-.48-1.7,1.62,1.62,0,0,0-1.35-.62,1.59,1.59,0,0,0-1.34.62,2.72,2.72,0,0,0-.47,1.7v3.48a2.74,2.74,0,0,0,.48,1.7,1.75,1.75,0,0,0,2.69,0,2.77,2.77,0,0,0,.47-1.7Z"/><path d="M155.21,413.64a4.06,4.06,0,0,1-.77,2.58,2.53,2.53,0,0,1-2.11,1,3,3,0,0,1-1.2-.23,2.26,2.26,0,0,1-.88-.69v3.62H148.9V409.66h1l.21,1a2.43,2.43,0,0,1,.9-.82,2.78,2.78,0,0,1,1.26-.28,2.48,2.48,0,0,1,2.14,1.09,5,5,0,0,1,.76,2.89Zm-1.35-.14a3.92,3.92,0,0,0-.49-2.07,1.62,1.62,0,0,0-1.46-.81,1.88,1.88,0,0,0-1,.26,2.08,2.08,0,0,0-.66.72v3.58a2,2,0,0,0,.66.71,1.9,1.9,0,0,0,1,.26,1.68,1.68,0,0,0,1.45-.7,3.07,3.07,0,0,0,.49-1.81Z"/><path d="M159.92,417.2a3.11,3.11,0,0,1-2.48-1,3.89,3.89,0,0,1-.89-2.68v-.3a3.79,3.79,0,0,1,.92-2.63,2.87,2.87,0,0,1,2.24-1.05,2.69,2.69,0,0,1,2.23.93,3.81,3.81,0,0,1,.74,2.45v.71H158l0,0a3,3,0,0,0,.49,1.8,1.71,1.71,0,0,0,1.5.7,3.35,3.35,0,0,0,1.2-.2,2.63,2.63,0,0,0,.89-.53l.53.87a3.36,3.36,0,0,1-1,.65A4.26,4.26,0,0,1,159.92,417.2Zm-.21-6.62a1.45,1.45,0,0,0-1.16.55,2.54,2.54,0,0,0-.57,1.39l0,0h3.33v-.11a2.18,2.18,0,0,0-.39-1.33A1.46,1.46,0,0,0,159.71,410.58Z"/><path d="M167.69,410.85l-.69,0a1.52,1.52,0,0,0-.9.25,1.66,1.66,0,0,0-.56.71v5.29h-1.35v-7.4h1.2l.13,1.08a2.52,2.52,0,0,1,.78-.89,1.78,1.78,0,0,1,1.06-.33,1.36,1.36,0,0,1,.29,0,.9.9,0,0,1,.22.05Z"/><path d="M176.87,415.07a.9.9,0,0,0-.34-.73,3.3,3.3,0,0,0-1.28-.49,5.61,5.61,0,0,1-2-.78,1.61,1.61,0,0,1-.7-1.36,2,2,0,0,1,.77-1.54,3,3,0,0,1,2-.65,3,3,0,0,1,2,.69,2,2,0,0,1,.75,1.59l0,0h-1.28a1.17,1.17,0,0,0-.42-.87,1.51,1.51,0,0,0-1.06-.39,1.57,1.57,0,0,0-1.07.32,1,1,0,0,0-.35.77.83.83,0,0,0,.3.68,3.46,3.46,0,0,0,1.26.43,5.41,5.41,0,0,1,2.06.82,1.64,1.64,0,0,1,.71,1.37,2,2,0,0,1-.8,1.61,3.3,3.3,0,0,1-2.08.62,3.25,3.25,0,0,1-2.23-.72,2,2,0,0,1-.77-1.67v0h1.29a1.24,1.24,0,0,0,.53,1.05,2.06,2.06,0,0,0,1.17.33,1.78,1.78,0,0,0,1.12-.31A.93.93,0,0,0,176.87,415.07Z"/><path d="M186.19,413.64a4.06,4.06,0,0,1-.76,2.58,2.55,2.55,0,0,1-2.11,1,3,3,0,0,1-1.2-.23,2.19,2.19,0,0,1-.88-.69v3.62h-1.35V409.66h1l.22,1a2.43,2.43,0,0,1,.9-.82,2.78,2.78,0,0,1,1.26-.28,2.47,2.47,0,0,1,2.13,1.09,4.94,4.94,0,0,1,.76,2.89Zm-1.34-.14a3.92,3.92,0,0,0-.5-2.07,1.6,1.6,0,0,0-1.46-.81,1.87,1.87,0,0,0-1,.26,2.08,2.08,0,0,0-.66.72v3.58a2,2,0,0,0,.66.71,1.9,1.9,0,0,0,1,.26,1.69,1.69,0,0,0,1.45-.7,3.15,3.15,0,0,0,.49-1.81Z"/><path d="M192.4,417.06c-.05-.23-.09-.42-.11-.59a4.57,4.57,0,0,1,0-.52,3,3,0,0,1-1,.89,2.47,2.47,0,0,1-1.3.36,2.43,2.43,0,0,1-1.76-.59,2.18,2.18,0,0,1-.6-1.63,1.91,1.91,0,0,1,.85-1.66,4,4,0,0,1,2.33-.6h1.46V412a1.39,1.39,0,0,0-.39-1,1.58,1.58,0,0,0-1.12-.38,1.62,1.62,0,0,0-1.06.33,1,1,0,0,0-.41.79H188l0,0a1.78,1.78,0,0,1,.76-1.48,3.14,3.14,0,0,1,2.07-.67,3.1,3.1,0,0,1,2,.64,2.27,2.27,0,0,1,.76,1.85v3.56a6.23,6.23,0,0,0,0,.76,4.5,4.5,0,0,0,.15.73Zm-2.24-1a2.39,2.39,0,0,0,1.32-.37,1.75,1.75,0,0,0,.76-.86v-1.21h-1.51a2,2,0,0,0-1.3.41,1.27,1.27,0,0,0-.49,1,1.06,1.06,0,0,0,.31.78A1.31,1.31,0,0,0,190.16,416.07Z"/><path d="M198.49,416.15a1.6,1.6,0,0,0,1.08-.41,1.33,1.33,0,0,0,.47-1h1.21l0,0a2.11,2.11,0,0,1-.82,1.7,3.13,3.13,0,0,1-4.37-.32,4,4,0,0,1-.85-2.64v-.28a4.11,4.11,0,0,1,.85-2.63,2.91,2.91,0,0,1,2.41-1.07,2.78,2.78,0,0,1,2,.77,2.41,2.41,0,0,1,.76,1.88v0H200a1.65,1.65,0,0,0-.44-1.15,1.46,1.46,0,0,0-1.11-.48,1.57,1.57,0,0,0-1.45.77,3.67,3.67,0,0,0-.45,1.87v.28a3.63,3.63,0,0,0,.44,1.88A1.57,1.57,0,0,0,198.49,416.15Z"/><path d="M205.94,417.2a3.15,3.15,0,0,1-2.49-1,3.94,3.94,0,0,1-.89-2.68v-.3a3.83,3.83,0,0,1,.92-2.63,2.87,2.87,0,0,1,2.25-1.05,2.67,2.67,0,0,1,2.22.93,3.81,3.81,0,0,1,.74,2.45v.71H204l0,0a3,3,0,0,0,.49,1.8,1.71,1.71,0,0,0,1.51.7,3.43,3.43,0,0,0,1.2-.2,2.59,2.59,0,0,0,.88-.53l.53.87a3.24,3.24,0,0,1-1.05.65A4.24,4.24,0,0,1,205.94,417.2Zm-.21-6.62a1.49,1.49,0,0,0-1.17.55,2.46,2.46,0,0,0-.56,1.39v0h3.34v-.11a2.19,2.19,0,0,0-.4-1.33A1.44,1.44,0,0,0,205.73,410.58Z"/><line class="cls-5" x1="216.74" y1="379.11" x2="296.66" y2="379.11"/><polygon points="291.97 384.9 291 383.87 296.12 379.11 291 374.35 291.97 373.31 298.2 379.11 291.97 384.9"/></svg>