<svg id="Layer_1" data-name="Layer 1" xmlns="http://www.w3.org/2000/svg" width="450" height="120" viewBox="0 0 450 120"><defs><style>.cls-1,.cls-2,.cls-3,.cls-5,.cls-6{stroke:#000;}.cls-1,.cls-2,.cls-3,.cls-4,.cls-5,.cls-6{stroke-miterlimit:10;}.cls-1{stroke-width:0.43px;}.cls-2{stroke-width:0.57px;}.cls-3{stroke-width:0.56px;}.cls-4{stroke:#fff;stroke-width:0.28px;}.cls-5{stroke-width:0.71px;}.cls-6{fill:none;stroke-width:2.83px;}</style></defs><title>diagrams</title><path d="M21,47.47a.7.7,0,0,0-.74.74v1.26a.74.74,0,0,0,1.48,0V48.21A.74.74,0,0,0,21,47.47Z"/><path d="M27.55,47.47a.69.69,0,0,0-.74.74v1.26a.74.74,0,1,0,1.48,0V48.21A.74.74,0,0,0,27.55,47.47Z"/><path d="M34.15,47.47a.69.69,0,0,0-.74.74v1.26a.74.74,0,1,0,1.48,0V48.21A.8.8,0,0,0,34.15,47.47Z"/><path d="M21,52.66a.7.7,0,0,0-.74.74v1.26a.74.74,0,0,0,1.48,0V53.4A.69.69,0,0,0,21,52.66Z"/><path d="M27.55,52.66a.69.69,0,0,0-.74.74v1.26a.74.74,0,1,0,1.48,0V53.4A.7.7,0,0,0,27.55,52.66Z"/><path d="M34.15,52.66a.69.69,0,0,0-.74.74v1.26a.74.74,0,1,0,1.48,0V53.4A.74.74,0,0,0,34.15,52.66Z"/><path d="M21,57.77a.71.71,0,0,0-.74.75v1.26a.74.74,0,0,0,1.48,0V58.52A.7.7,0,0,0,21,57.77Z"/><path d="M27.55,57.77a.7.7,0,0,0-.74.75v1.26a.74.74,0,0,0,1.48,0V58.52A.71.71,0,0,0,27.55,57.77Z"/><path d="M34.15,57.77a.7.7,0,0,0-.74.75v1.26a.74.74,0,1,0,1.48,0V58.52A.75.75,0,0,0,34.15,57.77Z"/><path d="M21,62.89a.7.7,0,0,0-.74.74v1.26a.74.74,0,1,0,1.48,0V63.63A.74.74,0,0,0,21,62.89Z"/><path d="M27.55,62.89a.7.7,0,0,0-.74.74v1.26a.74.74,0,0,0,1.48,0V63.63A.74.74,0,0,0,27.55,62.89Z"/><path d="M34.15,62.89a.7.7,0,0,0-.74.74v1.26a.74.74,0,0,0,1.48,0V63.63A.8.8,0,0,0,34.15,62.89Z"/><path d="M21,68.08a.7.7,0,0,0-.74.74v1.26a.74.74,0,1,0,1.48,0V68.82A.7.7,0,0,0,21,68.08Z"/><path d="M27.55,68.08a.7.7,0,0,0-.74.74v1.26a.74.74,0,0,0,1.48,0V68.82A.7.7,0,0,0,27.55,68.08Z"/><path d="M34.15,68.08a.7.7,0,0,0-.74.74v1.26a.74.74,0,0,0,1.48,0V68.82A.74.74,0,0,0,34.15,68.08Z"/><path d="M40.75,47.47a.7.7,0,0,0-.75.74v1.26a.75.75,0,0,0,1.49,0V48.21A.8.8,0,0,0,40.75,47.47Z"/><path d="M47.27,47.47a.7.7,0,0,0-.74.74v1.26a.74.74,0,0,0,1.48,0V48.21A.74.74,0,0,0,47.27,47.47Z"/><path d="M40.75,52.66a.7.7,0,0,0-.75.74v1.26a.75.75,0,0,0,1.49,0V53.4A.74.74,0,0,0,40.75,52.66Z"/><path d="M47.27,52.66a.7.7,0,0,0-.74.74v1.26a.74.74,0,1,0,1.48,0V53.4A.69.69,0,0,0,47.27,52.66Z"/><path d="M40.75,57.77a.71.71,0,0,0-.75.75v1.26a.75.75,0,0,0,1.49,0V58.52A.75.75,0,0,0,40.75,57.77Z"/><path d="M47.27,57.77a.71.71,0,0,0-.74.75v1.26a.74.74,0,1,0,1.48,0V58.52A.7.7,0,0,0,47.27,57.77Z"/><path d="M40.75,62.89a.71.71,0,0,0-.75.74v1.26a.75.75,0,0,0,1.49,0V63.63A.8.8,0,0,0,40.75,62.89Z"/><path d="M47.27,62.89a.7.7,0,0,0-.74.74v1.26a.74.74,0,0,0,1.48,0V63.63A.74.74,0,0,0,47.27,62.89Z"/><path d="M40.75,68.08a.71.71,0,0,0-.75.74v1.26a.75.75,0,0,0,1.49,0V68.82A.74.74,0,0,0,40.75,68.08Z"/><path d="M47.27,68.08a.7.7,0,0,0-.74.74v1.26a.74.74,0,0,0,1.48,0V68.82A.7.7,0,0,0,47.27,68.08Z"/><path d="M64.47,72.68h-3L59.8,26.56a.8.8,0,0,0-.74-.74H52.91a.75.75,0,0,0-.75.74L51.5,44.87l-2.6-1.63-.59-13.72a.8.8,0,0,0-.74-.74H43.86a.74.74,0,0,0-.74.74l-.45,9.86-2.74-1.7a.66.66,0,0,0-.74,0,.79.79,0,0,0-.37.67v5.71l-1.48-.89-.6-13.65a.8.8,0,0,0-.74-.74H32.29a.74.74,0,0,0-.74.74l-.44,9.94-3-1.78a.66.66,0,0,0-.74,0,.89.89,0,0,0-.37.67V44l-1.26-.74-.6-13.72a.8.8,0,0,0-.74-.74h-3.7a.75.75,0,0,0-.75.74l-.44,10-3.12-1.85a.66.66,0,0,0-.74,0,.79.79,0,0,0-.37.67V72.68h-3a.74.74,0,1,0,0,1.48H64.47a.74.74,0,1,0,0-1.48ZM53.65,27.3h4.74L60,72.68H52Zm-9.12,3h2.22l.52,12-3.19-2Zm-11.5,0h2.23l.52,11.94-3.26-1.93Zm-11.56,0h2.22l.52,12L21,40.42ZM16.8,39.68,27.4,46a.66.66,0,0,0,.74,0,.77.77,0,0,0,.37-.66V39.68L39.11,46a.68.68,0,0,0,.75,0,.75.75,0,0,0,.37-.59l.07-1.7v-4l11.2,6.9-1,26.1H16.8Z"/><path d="M56,24.18a2.52,2.52,0,1,0-2.52-2.52A2.5,2.5,0,0,0,56,24.18Zm0-3.55a1,1,0,1,1-1,1A1,1,0,0,1,56,20.63Z"/><path d="M49.5,21.59a3,3,0,1,0-3-3A3,3,0,0,0,49.5,21.59Zm0-4.45A1.49,1.49,0,1,1,48,18.62,1.49,1.49,0,0,1,49.5,17.14Z"/><path class="cls-1" d="M378.93,70.07h-1.36V48h1a.5.5,0,0,0,.5-.5V44.8a.5.5,0,0,0-.5-.5H360.94V40.74h.85a.5.5,0,0,0,.5-.5V37.56a.5.5,0,0,0-.5-.5H359.3V34.35a.51.51,0,0,0-.5-.5h-3.59a.51.51,0,0,0-.5.5v2.71h-6.89V34.35a.5.5,0,0,0-.5-.5h-3.59a.51.51,0,0,0-.5.5v2.71h-2.82a.5.5,0,0,0-.5.5v2.68a.51.51,0,0,0,.5.5h.8V70.07H340a.5.5,0,0,0-.5.5v2.68a.5.5,0,0,0,.5.5h38.89a.5.5,0,0,0,.5-.5V70.57A.5.5,0,0,0,378.93,70.07Zm-.87-24.77V47H360.94V45.3ZM376.57,48v22.1H360.94V48ZM355.71,34.85h2.59v2.21h-2.59Zm-11.48,0h2.59v2.21h-2.59Zm-3.32,4.89V38.06h20.38v1.68Zm12.94,19.5h-5.5a.5.5,0,0,0-.5.5V70.07h-5.64V40.74h17.73V70.07h-5.59V59.74A.5.5,0,0,0,353.85,59.24Zm-.5,1v9.83h-4.5V60.24Zm25.08,12.51H340.54V71.06h37.89Z"/><path class="cls-1" d="M370.7,65H374a.5.5,0,0,0,.5-.5V59.77a.51.51,0,0,0-.5-.5H370.7a.5.5,0,0,0-.49.5v4.71A.49.49,0,0,0,370.7,65Zm.5-4.71h2.34V64H371.2Z"/><path class="cls-1" d="M363.62,65H367a.5.5,0,0,0,.5-.5V59.77a.51.51,0,0,0-.5-.5h-3.34a.5.5,0,0,0-.49.5v4.71A.49.49,0,0,0,363.62,65Zm.5-4.71h2.34V64h-2.34Z"/><path class="cls-1" d="M370.7,57.24H374a.5.5,0,0,0,.5-.5V52a.51.51,0,0,0-.5-.5H370.7a.5.5,0,0,0-.49.5v4.71A.49.49,0,0,0,370.7,57.24Zm.5-4.71h2.34v3.71H371.2Z"/><path class="cls-1" d="M363.62,57.24H367a.5.5,0,0,0,.5-.5V52a.51.51,0,0,0-.5-.5h-3.34a.5.5,0,0,0-.49.5v4.71A.49.49,0,0,0,363.62,57.24Zm.5-4.71h2.34v3.71h-2.34Z"/><path class="cls-1" d="M357.1,56.72V52a.5.5,0,0,0-.5-.5h-3.33a.5.5,0,0,0-.5.5v4.71a.5.5,0,0,0,.5.5h3.33A.5.5,0,0,0,357.1,56.72Zm-1-.5h-2.33V52.51h2.33Z"/><path class="cls-1" d="M353.27,49.48h3.33a.5.5,0,0,0,.5-.5V44.27a.5.5,0,0,0-.5-.5h-3.33a.5.5,0,0,0-.5.5V49A.5.5,0,0,0,353.27,49.48Zm.5-4.71h2.33v3.71h-2.33Z"/><path class="cls-1" d="M348.93,51.51H345.6a.5.5,0,0,0-.5.5v4.71a.5.5,0,0,0,.5.5h3.33a.5.5,0,0,0,.5-.5V52A.5.5,0,0,0,348.93,51.51Zm-.5,4.71H346.1V52.51h2.33Z"/><path class="cls-1" d="M348.93,43.77H345.6a.5.5,0,0,0-.5.5V49a.5.5,0,0,0,.5.5h3.33a.5.5,0,0,0,.5-.5V44.27A.5.5,0,0,0,348.93,43.77Zm-.5,4.71H346.1V44.77h2.33Z"/><path class="cls-2" d="M191.06,42.08a3.45,3.45,0,1,0,3.45-3.45A3.45,3.45,0,0,0,191.06,42.08Zm1,0a2.46,2.46,0,1,1,2.46,2.46A2.46,2.46,0,0,1,192.05,42.08Z"/><path class="cls-2" d="M194,36.46V35a.49.49,0,1,1,1,0v1.5a.49.49,0,1,1-1,0Z"/><path class="cls-2" d="M192.06,35.38l.61,1.36a.49.49,0,0,1-.25.65.45.45,0,0,1-.2,0,.51.51,0,0,1-.45-.29l-.6-1.36a.49.49,0,0,1,.25-.65A.48.48,0,0,1,192.06,35.38Z"/><path class="cls-2" d="M190.33,38.81a.48.48,0,0,1-.33-.13l-1.11-1a.48.48,0,0,1,0-.69.49.49,0,0,1,.69,0l1.11,1a.49.49,0,0,1,0,.69A.5.5,0,0,1,190.33,38.81Z"/><path class="cls-2" d="M189.63,40.49a.49.49,0,0,1-.47.34l-.15,0-1.42-.46a.49.49,0,1,1,.3-.94l1.42.46A.5.5,0,0,1,189.63,40.49Z"/><path class="cls-2" d="M188.87,42.18a.49.49,0,1,1,.1,1l-1.49.15h0a.49.49,0,0,1-.05-1Z"/><path class="cls-2" d="M188.35,46.13a.49.49,0,0,1-.25-.92l1.29-.74a.49.49,0,1,1,.49.85l-1.29.74A.44.44,0,0,1,188.35,46.13Z"/><path class="cls-2" d="M190.81,46.34a.48.48,0,0,1,.68-.11.5.5,0,0,1,.11.69l-.88,1.21a.47.47,0,0,1-.39.2.43.43,0,0,1-.29-.1.48.48,0,0,1-.11-.68Z"/><path class="cls-2" d="M193.44,47.1a.49.49,0,0,1,.38.58l-.31,1.46a.49.49,0,0,1-.48.39h-.1a.48.48,0,0,1-.38-.58l.31-1.46A.49.49,0,0,1,193.44,47.1Z"/><path class="cls-2" d="M196.16,47.48l.31,1.46a.48.48,0,0,1-.38.58H196a.49.49,0,0,1-.48-.39l-.31-1.46a.49.49,0,0,1,1-.2Z"/><path class="cls-2" d="M198.69,48.33a.47.47,0,0,1-.39-.2l-.88-1.21a.5.5,0,0,1,.11-.69.48.48,0,0,1,.68.11l.88,1.21a.48.48,0,0,1-.11.68A.45.45,0,0,1,198.69,48.33Z"/><path class="cls-2" d="M200.67,46.13a.44.44,0,0,1-.24-.07l-1.3-.74a.49.49,0,0,1-.17-.67.48.48,0,0,1,.67-.18l1.29.74a.48.48,0,0,1,.18.67A.5.5,0,0,1,200.67,46.13Z"/><path class="cls-2" d="M202.08,42.87a.49.49,0,0,1-.49.44h-.05l-1.49-.15a.49.49,0,0,1-.43-.54.48.48,0,0,1,.53-.44l1.49.16A.48.48,0,0,1,202.08,42.87Z"/><path class="cls-2" d="M201.75,39.73a.5.5,0,0,1-.32.62l-1.42.46-.15,0a.49.49,0,0,1-.47-.34.5.5,0,0,1,.32-.62l1.42-.46A.5.5,0,0,1,201.75,39.73Z"/><path class="cls-2" d="M198.69,38.81a.51.51,0,0,1-.37-.17.49.49,0,0,1,0-.69l1.11-1a.49.49,0,0,1,.69,0,.48.48,0,0,1,0,.69l-1.11,1A.48.48,0,0,1,198.69,38.81Z"/><path class="cls-2" d="M196.8,37.43a.45.45,0,0,1-.2,0,.49.49,0,0,1-.25-.65l.61-1.36a.48.48,0,0,1,.64-.25.49.49,0,0,1,.25.65l-.6,1.36A.5.5,0,0,1,196.8,37.43Z"/><path class="cls-2" d="M186.91,73.28a.49.49,0,0,0,.49.49h38.29a.49.49,0,0,0,0-1h-5.17l0-6.24a5.88,5.88,0,0,0,5.64-5.68A5.49,5.49,0,0,0,225,57.45a4.68,4.68,0,0,0,.37-1.8,4.75,4.75,0,0,0-1.06-3,3.94,3.94,0,0,0,.29-1.48,4.37,4.37,0,0,0-4.5-4.21,4.78,4.78,0,0,0-2,.47,6.5,6.5,0,0,0-.64-.94,5,5,0,0,0,.4-2,5.81,5.81,0,0,0-11.56-.28c0,.09,0,.18,0,.28a5,5,0,0,0,.41,2,6.08,6.08,0,0,0-1.43,3.88,5.86,5.86,0,0,0,.52,2.4l-.29.37a7,7,0,0,0-1.34,4.11,7.63,7.63,0,0,0,7.4,7.36l0,8.14H195.12v-5A4.92,4.92,0,0,0,199.78,63a4.59,4.59,0,0,0-1-2.82,3.75,3.75,0,0,0,.3-1.47,3.94,3.94,0,0,0-.87-2.45,3.32,3.32,0,0,0,.23-1.2,3.81,3.81,0,0,0-7.58-.18v.18a3.31,3.31,0,0,0,.22,1.2,3.9,3.9,0,0,0-.57,3.92l-.11.15a4.55,4.55,0,0,0-.87,2.67,4.91,4.91,0,0,0,4.61,4.76v5H187.4A.49.49,0,0,0,186.91,73.28Zm7.75-6.43A4,4,0,0,1,190.52,63a3.65,3.65,0,0,1,.68-2.1c.08-.11.17-.21.26-.32a.47.47,0,0,0,.07-.55,2.92,2.92,0,0,1-.32-1.32,3,3,0,0,1,.82-2,.5.5,0,0,0,.07-.55,2.36,2.36,0,0,1-.25-1.06V55a2.83,2.83,0,0,1,5.62.13,2.34,2.34,0,0,1-.26,1.06.49.49,0,0,0,.08.55,3,3,0,0,1,.81,2,2.92,2.92,0,0,1-.32,1.32.5.5,0,0,0,.07.55,3.64,3.64,0,0,1,1,2.42A4,4,0,0,1,194.66,66.85ZM216.44,47a5.11,5.11,0,0,1,1.38,3.46,5,5,0,0,1-.55,2.26.5.5,0,0,0,.07.55,6.08,6.08,0,0,1,1.59,4.08,7,7,0,0,1-13.87,0,6,6,0,0,1,1.16-3.54,5.66,5.66,0,0,1,.43-.54.49.49,0,0,0,.08-.55,4.9,4.9,0,0,1-.55-2.26A5.09,5.09,0,0,1,207.56,47a.5.5,0,0,0,.08-.56,4,4,0,0,1-.44-1.83v-.23a4.83,4.83,0,0,1,9.6.23,4.08,4.08,0,0,1-.44,1.83A.5.5,0,0,0,216.44,47Zm3.63,18.64A5.29,5.29,0,0,1,216,63.68a7.31,7.31,0,0,0,4-6.38,7.08,7.08,0,0,0-1.63-4.48,5.93,5.93,0,0,0,.51-2.41,5.76,5.76,0,0,0-.37-2,3.86,3.86,0,0,1,1.64-.37,3.39,3.39,0,0,1,3.52,3.22,2.86,2.86,0,0,1-.33,1.34.5.5,0,0,0,.08.56,3.73,3.73,0,0,1,1,2.54,3.64,3.64,0,0,1-.41,1.66.49.49,0,0,0,.08.55,4.53,4.53,0,0,1,1.17,3A4.94,4.94,0,0,1,220.07,65.59Zm-.53,7.2h-7.09V64.65a8.29,8.29,0,0,0,2.57-.54,6.22,6.22,0,0,0,4.53,2.43Z"/><path d="M10.46,94.17H9.11v-10h1.35Z"/><path d="M14,86.78l.09,1.1A2.69,2.69,0,0,1,15,87a2.43,2.43,0,0,1,1.27-.33,2.43,2.43,0,0,1,1.85.7,3.08,3.08,0,0,1,.66,2.17v4.66H17.4V89.53A2,2,0,0,0,17,88.15a1.51,1.51,0,0,0-1.18-.41,2.14,2.14,0,0,0-1.05.24,1.81,1.81,0,0,0-.69.71v5.48H12.75V86.78Z"/><path d="M20.39,90.61a4.88,4.88,0,0,1,.77-2.87,2.46,2.46,0,0,1,2.13-1.1,2.6,2.6,0,0,1,1.15.24,2.24,2.24,0,0,1,.86.7V83.51h1.35V94.17h-1l-.21-.93a2.42,2.42,0,0,1-.89.8,2.61,2.61,0,0,1-1.24.28,2.55,2.55,0,0,1-2.12-1,4.1,4.1,0,0,1-.77-2.58Zm1.35.15a3.11,3.11,0,0,0,.46,1.79,1.59,1.59,0,0,0,1.42.67,1.79,1.79,0,0,0,1-.27,2,2,0,0,0,.67-.76V88.73a2,2,0,0,0-.67-.72,1.8,1.8,0,0,0-1-.27,1.53,1.53,0,0,0-1.43.8,4.17,4.17,0,0,0-.46,2.07Z"/><path d="M33.36,93.08a2.65,2.65,0,0,1-.9.92,2.48,2.48,0,0,1-1.26.32,2.39,2.39,0,0,1-1.89-.77,3.61,3.61,0,0,1-.68-2.41V86.78H30v4.37a2.71,2.71,0,0,0,.35,1.63,1.27,1.27,0,0,0,1.08.44,2.17,2.17,0,0,0,1.19-.29,1.79,1.79,0,0,0,.71-.82V86.78h1.34v7.39H33.44Z"/><path d="M40.92,92.19a.93.93,0,0,0-.34-.73A3.28,3.28,0,0,0,39.3,91a5.43,5.43,0,0,1-2-.79,1.57,1.57,0,0,1-.7-1.35,2,2,0,0,1,.77-1.55,3,3,0,0,1,2-.64,3,3,0,0,1,2,.69,1.91,1.91,0,0,1,.74,1.59v0H40.83a1.17,1.17,0,0,0-.42-.87,1.49,1.49,0,0,0-1.06-.39,1.54,1.54,0,0,0-1.06.32,1,1,0,0,0-.35.77.79.79,0,0,0,.3.67,3.29,3.29,0,0,0,1.25.44,5.15,5.15,0,0,1,2.07.82,1.62,1.62,0,0,1,.7,1.37,2,2,0,0,1-.79,1.61,3.33,3.33,0,0,1-2.09.62,3.22,3.22,0,0,1-2.22-.72,2.06,2.06,0,0,1-.78-1.67l0-.05h1.28a1.25,1.25,0,0,0,.54,1.05,2,2,0,0,0,1.16.34A1.87,1.87,0,0,0,40.51,93,.93.93,0,0,0,40.92,92.19Z"/><path d="M45.81,85v1.79h1.4v1h-1.4v4.49A1,1,0,0,0,46,93a.77.77,0,0,0,.57.21l.26,0,.24-.06.18.92a1.2,1.2,0,0,1-.44.2,2.39,2.39,0,0,1-.59.08,1.74,1.74,0,0,1-1.3-.5,2.16,2.16,0,0,1-.49-1.55V87.78H43.29v-1h1.17V85Z"/><path d="M52.15,88l-.69,0a1.56,1.56,0,0,0-.9.25,1.66,1.66,0,0,0-.56.71v5.28H48.65V86.78h1.21L50,87.86a2.74,2.74,0,0,1,.77-.9,1.87,1.87,0,0,1,1.07-.32,1.27,1.27,0,0,1,.28,0l.23,0Z"/><path d="M55,84.88H53.67V83.51H55Zm0,9.29H53.67V86.78H55Z"/><path d="M61.63,94.17c-.05-.22-.08-.42-.11-.59a4.38,4.38,0,0,1,0-.51,3.24,3.24,0,0,1-1,.89,2.52,2.52,0,0,1-1.3.36,2.43,2.43,0,0,1-1.76-.59,2.16,2.16,0,0,1-.61-1.63,1.92,1.92,0,0,1,.86-1.66,4,4,0,0,1,2.33-.6h1.46v-.73a1.34,1.34,0,0,0-.4-1A1.57,1.57,0,0,0,60,87.7,1.62,1.62,0,0,0,58.9,88a1,1,0,0,0-.4.79H57.22v0A1.76,1.76,0,0,1,58,87.31,3.13,3.13,0,0,1,60,86.64a3,3,0,0,1,2,.64,2.27,2.27,0,0,1,.77,1.84v3.56a6.4,6.4,0,0,0,0,.77,2.88,2.88,0,0,0,.15.72Zm-2.24-1a2.4,2.4,0,0,0,1.32-.38,1.78,1.78,0,0,0,.77-.86v-1.2H60a2,2,0,0,0-1.3.41,1.2,1.2,0,0,0-.49,1,1,1,0,0,0,.3.78A1.31,1.31,0,0,0,59.39,93.19Z"/><path d="M66.24,94.17H64.89V83.51h1.35Z"/><path d="M175.42,89.86v4.31h-1.35V84.23h3.4A3.8,3.8,0,0,1,180,85a2.63,2.63,0,0,1,.86,2.11,2.23,2.23,0,0,1-.4,1.33,2.67,2.67,0,0,1-1.16.9,2,2,0,0,1,1.17.87,2.82,2.82,0,0,1,.36,1.48v.94a3,3,0,0,0,.11.83,1.13,1.13,0,0,0,.35.6v.16h-1.39a1.13,1.13,0,0,1-.34-.68,5.65,5.65,0,0,1-.07-.93v-.91a1.78,1.78,0,0,0-.48-1.3,1.68,1.68,0,0,0-1.26-.49Zm0-1.06h1.92a2.48,2.48,0,0,0,1.64-.43,1.64,1.64,0,0,0,.5-1.33,1.72,1.72,0,0,0-.48-1.3,2.22,2.22,0,0,0-1.53-.46h-2.05Z"/><path d="M185.85,94.32a3.11,3.11,0,0,1-2.48-1,3.94,3.94,0,0,1-.89-2.68v-.3a3.83,3.83,0,0,1,.92-2.64,2.89,2.89,0,0,1,2.24-1,2.71,2.71,0,0,1,2.23.92,3.86,3.86,0,0,1,.74,2.46v.71h-4.73l0,0a3,3,0,0,0,.49,1.81,1.73,1.73,0,0,0,1.5.7,3.35,3.35,0,0,0,1.2-.2,2.65,2.65,0,0,0,.89-.54l.53.88a3.55,3.55,0,0,1-1.05.65A4.26,4.26,0,0,1,185.85,94.32Zm-.21-6.62a1.46,1.46,0,0,0-1.16.54,2.61,2.61,0,0,0-.57,1.4l0,0h3.33v-.11a2.16,2.16,0,0,0-.39-1.33A1.46,1.46,0,0,0,185.64,87.7Z"/><path d="M193.06,93.27a1.59,1.59,0,0,0,1.09-.42,1.28,1.28,0,0,0,.46-1h1.22l0,0a2.14,2.14,0,0,1-.82,1.7,3.14,3.14,0,0,1-4.38-.32,4.13,4.13,0,0,1-.84-2.64v-.29a4.07,4.07,0,0,1,.85-2.63,2.92,2.92,0,0,1,2.4-1.06,2.82,2.82,0,0,1,2,.77,2.43,2.43,0,0,1,.76,1.88v0h-1.23a1.63,1.63,0,0,0-.44-1.15,1.43,1.43,0,0,0-1.11-.48,1.58,1.58,0,0,0-1.45.77,3.61,3.61,0,0,0-.45,1.86v.29a3.66,3.66,0,0,0,.45,1.88A1.55,1.55,0,0,0,193.06,93.27Z"/><path d="M201,88l-.69,0a1.52,1.52,0,0,0-.9.25,1.66,1.66,0,0,0-.56.71v5.28h-1.35V86.78h1.2l.13,1.08a2.65,2.65,0,0,1,.78-.9,1.84,1.84,0,0,1,1.06-.32,1.36,1.36,0,0,1,.29,0,1,1,0,0,1,.22,0Z"/><path d="M205.28,94.32a3.11,3.11,0,0,1-2.48-1,3.89,3.89,0,0,1-.89-2.68v-.3a3.83,3.83,0,0,1,.92-2.64,2.89,2.89,0,0,1,2.24-1,2.71,2.71,0,0,1,2.23.92A3.86,3.86,0,0,1,208,90v.71h-4.73l0,0a3,3,0,0,0,.49,1.81,1.73,1.73,0,0,0,1.5.7,3.35,3.35,0,0,0,1.2-.2,2.65,2.65,0,0,0,.89-.54l.52.88a3.37,3.37,0,0,1-1,.65A4.3,4.3,0,0,1,205.28,94.32Zm-.21-6.62a1.45,1.45,0,0,0-1.16.54,2.61,2.61,0,0,0-.57,1.4v0h3.34v-.11a2.1,2.1,0,0,0-.4-1.33A1.43,1.43,0,0,0,205.07,87.7Z"/><path d="M214.09,94.17c0-.22-.08-.42-.1-.59a4.4,4.4,0,0,1-.05-.51,3.12,3.12,0,0,1-1,.89,2.47,2.47,0,0,1-1.3.36,2.43,2.43,0,0,1-1.76-.59,2.2,2.2,0,0,1-.6-1.63,1.91,1.91,0,0,1,.85-1.66,4,4,0,0,1,2.33-.6h1.46v-.73a1.37,1.37,0,0,0-.39-1,1.58,1.58,0,0,0-1.12-.38,1.62,1.62,0,0,0-1.06.33,1,1,0,0,0-.41.79h-1.27l0,0a1.78,1.78,0,0,1,.76-1.48,3.09,3.09,0,0,1,2.07-.67,3,3,0,0,1,2,.64,2.24,2.24,0,0,1,.77,1.84v3.56a6.4,6.4,0,0,0,0,.77,4.18,4.18,0,0,0,.15.72Zm-2.23-1a2.4,2.4,0,0,0,1.32-.38,1.71,1.71,0,0,0,.76-.86v-1.2h-1.51a2,2,0,0,0-1.3.41,1.23,1.23,0,0,0-.49,1,1,1,0,0,0,.31.78A1.29,1.29,0,0,0,211.86,93.19Z"/><path d="M219.12,85v1.79h1.4v1h-1.4v4.49a1,1,0,0,0,.21.73.8.8,0,0,0,.57.21l.26,0,.24-.06.19.92a1.18,1.18,0,0,1-.45.2,2.32,2.32,0,0,1-.58.08,1.74,1.74,0,0,1-1.3-.5,2.12,2.12,0,0,1-.49-1.55V87.78H216.6v-1h1.17V85Z"/><path d="M223.42,84.88h-1.35V83.51h1.35Zm0,9.29h-1.35V86.78h1.35Z"/><path d="M225.18,90.41a4.09,4.09,0,0,1,.88-2.71,3.3,3.3,0,0,1,4.85,0,4.09,4.09,0,0,1,.89,2.71v.15a4.09,4.09,0,0,1-.89,2.71,3.3,3.3,0,0,1-4.84,0,4,4,0,0,1-.89-2.7Zm1.34.15a3.52,3.52,0,0,0,.5,1.94,1.78,1.78,0,0,0,2.93,0,3.43,3.43,0,0,0,.5-1.94v-.15a3.46,3.46,0,0,0-.5-1.94,1.65,1.65,0,0,0-1.47-.77,1.62,1.62,0,0,0-1.46.77,3.54,3.54,0,0,0-.5,1.94Z"/><path d="M234.65,86.78l.1,1.1a2.58,2.58,0,0,1,.92-.91,2.72,2.72,0,0,1,3.12.37,3.08,3.08,0,0,1,.66,2.17v4.66H238.1V89.53a2,2,0,0,0-.38-1.38,1.53,1.53,0,0,0-1.18-.41,2.16,2.16,0,0,0-1.06.24,1.81,1.81,0,0,0-.69.71v5.48h-1.34V86.78Z"/><path d="M92.07,91l0,0a3,3,0,0,1-1,2.35,3.78,3.78,0,0,1-2.67.94,3.5,3.5,0,0,1-2.75-1.2,4.39,4.39,0,0,1-1.06-3V88.32a4.4,4.4,0,0,1,1.06-3,3.5,3.5,0,0,1,2.75-1.2,3.87,3.87,0,0,1,2.69.9,3,3,0,0,1,1,2.38l0,0H90.78a2.2,2.2,0,0,0-.61-1.65,2.35,2.35,0,0,0-1.74-.61,2.12,2.12,0,0,0-1.8.91A3.71,3.71,0,0,0,86,88.3v1.79a3.79,3.79,0,0,0,.67,2.27,2.15,2.15,0,0,0,1.8.91,2.39,2.39,0,0,0,1.74-.61A2.23,2.23,0,0,0,90.78,91Z"/><path d="M93.34,90.41a4,4,0,0,1,.89-2.71,3.29,3.29,0,0,1,4.84,0,4.09,4.09,0,0,1,.89,2.71v.15a4,4,0,0,1-.89,2.71,3.3,3.3,0,0,1-4.84,0,4,4,0,0,1-.89-2.7Zm1.34.15a3.52,3.52,0,0,0,.5,1.94,1.79,1.79,0,0,0,2.94,0,3.52,3.52,0,0,0,.5-1.94v-.15a3.46,3.46,0,0,0-.51-1.94,1.78,1.78,0,0,0-2.93,0,3.54,3.54,0,0,0-.5,1.94Z"/><path d="M102.81,86.78l.1,1a2.59,2.59,0,0,1,.92-.82,2.79,2.79,0,0,1,1.29-.29,2.33,2.33,0,0,1,1.27.34,2.11,2.11,0,0,1,.8,1,2.62,2.62,0,0,1,.92-1,2.39,2.39,0,0,1,1.34-.37,2.19,2.19,0,0,1,1.78.78,3.5,3.5,0,0,1,.66,2.33v4.42h-1.35V89.74a2.46,2.46,0,0,0-.37-1.55,1.38,1.38,0,0,0-1.12-.45,1.45,1.45,0,0,0-1.12.47,2.07,2.07,0,0,0-.5,1.21v4.75h-1.36V89.74a2.48,2.48,0,0,0-.38-1.52,1.35,1.35,0,0,0-1.11-.48,1.88,1.88,0,0,0-1,.25,1.62,1.62,0,0,0-.6.71v5.47h-1.35V86.78Z"/><path d="M115.05,86.78l.09,1a2.68,2.68,0,0,1,.92-.82,2.86,2.86,0,0,1,1.3-.29,2.38,2.38,0,0,1,1.27.34,2,2,0,0,1,.79,1,2.72,2.72,0,0,1,.93-1,2.39,2.39,0,0,1,1.34-.37,2.21,2.21,0,0,1,1.78.78,3.5,3.5,0,0,1,.66,2.33v4.42h-1.35V89.74a2.46,2.46,0,0,0-.38-1.55,1.37,1.37,0,0,0-1.12-.45,1.43,1.43,0,0,0-1.11.47,2.08,2.08,0,0,0-.51,1.21v4.75h-1.35V89.74a2.41,2.41,0,0,0-.39-1.52,1.32,1.32,0,0,0-1.11-.48,1.82,1.82,0,0,0-1,.25,1.64,1.64,0,0,0-.61.71v5.47h-1.34V86.78Z"/><path d="M129.14,94.32a3.11,3.11,0,0,1-2.48-1,3.89,3.89,0,0,1-.89-2.68v-.3a3.83,3.83,0,0,1,.92-2.64,2.89,2.89,0,0,1,2.24-1,2.71,2.71,0,0,1,2.23.92A3.86,3.86,0,0,1,131.9,90v.71h-4.73l0,0a3,3,0,0,0,.49,1.81,1.73,1.73,0,0,0,1.5.7,3.35,3.35,0,0,0,1.2-.2,2.65,2.65,0,0,0,.89-.54l.53.88a3.55,3.55,0,0,1-1,.65A4.26,4.26,0,0,1,129.14,94.32Zm-.21-6.62a1.45,1.45,0,0,0-1.16.54,2.61,2.61,0,0,0-.57,1.4l0,0h3.33v-.11a2.16,2.16,0,0,0-.39-1.33A1.46,1.46,0,0,0,128.93,87.7Z"/><path d="M136.91,88l-.69,0a1.52,1.52,0,0,0-.9.25,1.66,1.66,0,0,0-.56.71v5.28h-1.35V86.78h1.2l.13,1.08a2.65,2.65,0,0,1,.78-.9,1.84,1.84,0,0,1,1.06-.32,1.36,1.36,0,0,1,.29,0,.9.9,0,0,1,.22,0Z"/><path d="M141.12,93.27a1.57,1.57,0,0,0,1.09-.42,1.28,1.28,0,0,0,.46-1h1.22l0,0a2.14,2.14,0,0,1-.82,1.7,3.14,3.14,0,0,1-4.38-.32,4.13,4.13,0,0,1-.84-2.64v-.29a4.07,4.07,0,0,1,.85-2.63,2.93,2.93,0,0,1,2.4-1.06,2.8,2.8,0,0,1,2,.77,2.43,2.43,0,0,1,.76,1.88v0h-1.23a1.59,1.59,0,0,0-.44-1.15,1.43,1.43,0,0,0-1.11-.48,1.55,1.55,0,0,0-1.44.77,3.52,3.52,0,0,0-.46,1.86v.29a3.66,3.66,0,0,0,.45,1.88A1.55,1.55,0,0,0,141.12,93.27Z"/><path d="M147,84.88h-1.35V83.51H147Zm0,9.29h-1.35V86.78H147Z"/><path d="M153.58,94.17c0-.22-.08-.42-.1-.59a4.4,4.4,0,0,1,0-.51,3.24,3.24,0,0,1-1,.89,2.5,2.5,0,0,1-1.3.36,2.43,2.43,0,0,1-1.76-.59,2.2,2.2,0,0,1-.61-1.63,1.92,1.92,0,0,1,.86-1.66,4,4,0,0,1,2.33-.6h1.46v-.73a1.37,1.37,0,0,0-.39-1,1.58,1.58,0,0,0-1.12-.38,1.6,1.6,0,0,0-1.06.33,1,1,0,0,0-.41.79h-1.28v0a1.78,1.78,0,0,1,.76-1.48,3.09,3.09,0,0,1,2.07-.67,3,3,0,0,1,2,.64,2.27,2.27,0,0,1,.77,1.84v3.56a6.4,6.4,0,0,0,0,.77,4.18,4.18,0,0,0,.15.72Zm-2.23-1a2.42,2.42,0,0,0,1.32-.38,1.76,1.76,0,0,0,.76-.86v-1.2h-1.51a2,2,0,0,0-1.3.41,1.2,1.2,0,0,0-.49,1,1,1,0,0,0,.31.78A1.29,1.29,0,0,0,151.35,93.19Z"/><path d="M158.19,94.17h-1.35V83.51h1.35Z"/><path d="M259.23,92.31h0l3.18-8.09h1.67v10h-1.35V86.72h0l-3,7.46h-.94l-3.1-7.71h0v7.7h-1.35v-10h1.77Z"/><path d="M267.72,84.88h-1.34V83.51h1.34Zm0,9.29h-1.34V86.78h1.34Z"/><path d="M272.3,89.51l1.58-2.73h1.57l-2.4,3.66,2.47,3.73H274l-1.64-2.79-1.64,2.79h-1.56l2.47-3.73-2.4-3.66h1.55Z"/><path d="M279.76,94.32a3.11,3.11,0,0,1-2.48-1,3.9,3.9,0,0,1-.9-2.68v-.3a3.88,3.88,0,0,1,.92-2.64,2.92,2.92,0,0,1,2.25-1,2.68,2.68,0,0,1,2.22.92,3.8,3.8,0,0,1,.75,2.46v.71h-4.73l0,0a3,3,0,0,0,.49,1.81,1.73,1.73,0,0,0,1.5.7,3.35,3.35,0,0,0,1.2-.2,2.65,2.65,0,0,0,.89-.54l.52.88a3.37,3.37,0,0,1-1,.65A4.34,4.34,0,0,1,279.76,94.32Zm-.21-6.62a1.48,1.48,0,0,0-1.17.54,2.68,2.68,0,0,0-.56,1.4v0h3.34v-.11a2.1,2.1,0,0,0-.4-1.33A1.43,1.43,0,0,0,279.55,87.7Z"/><path d="M283.72,90.61a4.88,4.88,0,0,1,.76-2.87,2.46,2.46,0,0,1,2.14-1.1,2.66,2.66,0,0,1,1.15.24,2.4,2.4,0,0,1,.86.7V83.51H290V94.17h-1l-.2-.93a2.38,2.38,0,0,1-.9.8,2.58,2.58,0,0,1-1.24.28,2.53,2.53,0,0,1-2.11-1,4,4,0,0,1-.77-2.58Zm1.35.15a3.19,3.19,0,0,0,.45,1.79,1.61,1.61,0,0,0,1.43.67,1.81,1.81,0,0,0,1-.27,2.16,2.16,0,0,0,.67-.76V88.73A2.14,2.14,0,0,0,288,88a1.74,1.74,0,0,0-1-.27,1.51,1.51,0,0,0-1.43.8,4.07,4.07,0,0,0-.46,2.07Z"/><path d="M296.18,90.5h-4V89.44h4Z"/><path d="M305.82,84.22v6.61a3.23,3.23,0,0,1-1.07,2.57,4.05,4.05,0,0,1-2.74.92,3.83,3.83,0,0,1-2.66-.93,3.29,3.29,0,0,1-1-2.56V84.22h1.35v6.61a2.43,2.43,0,0,0,.65,1.79,2.32,2.32,0,0,0,1.69.65,2.52,2.52,0,0,0,1.78-.65,2.37,2.37,0,0,0,.68-1.79V84.22Z"/><path d="M312.07,92.19a.9.9,0,0,0-.34-.73,3.21,3.21,0,0,0-1.28-.49,5.43,5.43,0,0,1-2-.79,1.57,1.57,0,0,1-.7-1.35,2,2,0,0,1,.77-1.55,3,3,0,0,1,2-.64,3,3,0,0,1,2,.69,2,2,0,0,1,.75,1.59l0,0H312a1.17,1.17,0,0,0-.42-.87,1.52,1.52,0,0,0-1.07-.39,1.54,1.54,0,0,0-1.06.32,1,1,0,0,0-.35.77.79.79,0,0,0,.3.67,3.28,3.28,0,0,0,1.26.44,5.16,5.16,0,0,1,2.06.82,1.63,1.63,0,0,1,.71,1.37,2,2,0,0,1-.8,1.61,3.32,3.32,0,0,1-2.08.62,3.23,3.23,0,0,1-2.23-.72,2,2,0,0,1-.77-1.67v-.05h1.28a1.27,1.27,0,0,0,.54,1.05,2,2,0,0,0,1.17.34,1.84,1.84,0,0,0,1.12-.31A.93.93,0,0,0,312.07,92.19Z"/><path d="M318.15,94.32a3.11,3.11,0,0,1-2.48-1,3.89,3.89,0,0,1-.89-2.68v-.3a3.87,3.87,0,0,1,.91-2.64,2.92,2.92,0,0,1,2.25-1,2.71,2.71,0,0,1,2.23.92,3.86,3.86,0,0,1,.74,2.46v.71h-4.73l0,0a3,3,0,0,0,.49,1.81,1.73,1.73,0,0,0,1.5.7,3.35,3.35,0,0,0,1.2-.2,2.65,2.65,0,0,0,.89-.54l.52.88a3.37,3.37,0,0,1-1,.65A4.34,4.34,0,0,1,318.15,94.32Zm-.21-6.62a1.48,1.48,0,0,0-1.17.54,2.68,2.68,0,0,0-.56,1.4v0h3.34v-.11a2.1,2.1,0,0,0-.4-1.33A1.43,1.43,0,0,0,317.94,87.7Z"/><path d="M345,92.31h0l3.18-8.09h1.67v10H348.5V86.72h0l-3,7.46h-.94l-3.1-7.71h0v7.7H340v-10h1.77Z"/><path d="M356.69,93.08a2.36,2.36,0,0,1-2.16,1.24,2.38,2.38,0,0,1-1.88-.77,3.61,3.61,0,0,1-.68-2.41V86.78h1.35v4.37a2.71,2.71,0,0,0,.35,1.63,1.27,1.27,0,0,0,1.08.44,2.17,2.17,0,0,0,1.19-.29,1.79,1.79,0,0,0,.71-.82V86.78H358v7.39h-1.21Z"/><path d="M361.41,94.17h-1.35V83.51h1.35Z"/><path d="M365.35,85v1.79h1.41v1h-1.41v4.49a1,1,0,0,0,.22.73.77.77,0,0,0,.57.21l.26,0,.24-.06.18.92a1.13,1.13,0,0,1-.44.2,2.38,2.38,0,0,1-.58.08,1.76,1.76,0,0,1-1.31-.5,2.16,2.16,0,0,1-.48-1.55V87.78h-1.18v-1H364V85Z"/><path d="M369.65,84.88h-1.34V83.51h1.34Zm0,9.29h-1.34V86.78h1.34Z"/><path d="M375.92,90.5h-4V89.44h4Z"/><path d="M340.18,111v-6.39H339v-1h1.16v-.94a2.51,2.51,0,0,1,.62-1.83,2.26,2.26,0,0,1,1.72-.64,3.71,3.71,0,0,1,.47,0l.52.11-.16,1a1.86,1.86,0,0,0-.3,0,2.11,2.11,0,0,0-.36,0,1,1,0,0,0-.88.35,1.57,1.57,0,0,0-.29,1v.94h1.34v1h-1.34V111Z"/><path d="M348.77,111c0-.22-.08-.42-.11-.59s0-.34,0-.51a3.24,3.24,0,0,1-1,.89,2.5,2.5,0,0,1-1.3.36,2.43,2.43,0,0,1-1.76-.59,2.16,2.16,0,0,1-.61-1.63,1.92,1.92,0,0,1,.86-1.66,4,4,0,0,1,2.33-.6h1.46v-.73a1.34,1.34,0,0,0-.4-1,1.55,1.55,0,0,0-1.12-.38,1.64,1.64,0,0,0-1.06.33,1,1,0,0,0-.4.79h-1.28v0a1.79,1.79,0,0,1,.75-1.48,3.13,3.13,0,0,1,2.08-.67,3,3,0,0,1,2,.64,2.27,2.27,0,0,1,.77,1.84v3.56a6.4,6.4,0,0,0,0,.77,4.18,4.18,0,0,0,.15.72Zm-2.23-1a2.39,2.39,0,0,0,1.31-.38,1.73,1.73,0,0,0,.77-.86v-1.2h-1.51a2,2,0,0,0-1.3.41,1.2,1.2,0,0,0-.49,1,1,1,0,0,0,.31.78A1.27,1.27,0,0,0,346.54,110Z"/><path d="M353.13,103.58l.09,1a2.59,2.59,0,0,1,.92-.82,2.8,2.8,0,0,1,1.3-.29,2.32,2.32,0,0,1,1.26.34,2.05,2.05,0,0,1,.8,1,2.72,2.72,0,0,1,.93-1,2.35,2.35,0,0,1,1.33-.37,2.23,2.23,0,0,1,1.79.78,3.56,3.56,0,0,1,.65,2.33V111h-1.34v-4.43a2.46,2.46,0,0,0-.38-1.55,1.37,1.37,0,0,0-1.12-.45,1.43,1.43,0,0,0-1.12.47,2.14,2.14,0,0,0-.5,1.21V111h-1.35v-4.43A2.41,2.41,0,0,0,356,105a1.35,1.35,0,0,0-1.11-.48,1.82,1.82,0,0,0-1,.25,1.57,1.57,0,0,0-.61.71V111h-1.35v-7.39Z"/><path d="M365.61,101.68h-1.34v-1.37h1.34Zm0,9.29h-1.34v-7.39h1.34Z"/><path d="M369.14,111h-1.35V100.31h1.35Z"/><path d="M373.48,108.23l.23.93h.05l1.81-5.58h1.5L374,112.11a3.84,3.84,0,0,1-.8,1.3,1.85,1.85,0,0,1-1.41.55,2.43,2.43,0,0,1-.42,0,2.14,2.14,0,0,1-.39-.07l.14-1.06.24,0,.36,0a.83.83,0,0,0,.7-.39,3.77,3.77,0,0,0,.46-.84l.32-.78-2.75-7.24h1.51Z"/><path d="M402.49,91.67a1.48,1.48,0,0,0-.49-1.14,4.14,4.14,0,0,0-1.71-.78,5.69,5.69,0,0,1-2.37-1.11,2.33,2.33,0,0,1-.85-1.83,2.46,2.46,0,0,1,.92-2,3.54,3.54,0,0,1,2.38-.78,3.47,3.47,0,0,1,2.5.89,2.67,2.67,0,0,1,.91,2.08l0,0h-1.29a1.82,1.82,0,0,0-.59-1.4,2.11,2.11,0,0,0-1.51-.55,2.07,2.07,0,0,0-1.45.46,1.54,1.54,0,0,0-.5,1.19,1.32,1.32,0,0,0,.55,1.08,5.09,5.09,0,0,0,1.79.76,5.08,5.08,0,0,1,2.29,1.15,2.51,2.51,0,0,1,.78,1.87,2.34,2.34,0,0,1-.94,1.94,4,4,0,0,1-2.47.73,4.19,4.19,0,0,1-2.55-.81,2.46,2.46,0,0,1-1.07-2.16v0h1.29a1.66,1.66,0,0,0,.71,1.45,2.68,2.68,0,0,0,1.61.51,2.4,2.4,0,0,0,1.51-.44A1.38,1.38,0,0,0,402.49,91.67Z"/><path d="M407,84.88h-1.34V83.51H407Zm0,9.29h-1.34V86.78H407Z"/><path d="M410.29,86.78l.09,1.1a2.69,2.69,0,0,1,.93-.91,2.72,2.72,0,0,1,3.12.37,3.08,3.08,0,0,1,.66,2.17v4.66h-1.35V89.53a2,2,0,0,0-.39-1.38,1.51,1.51,0,0,0-1.18-.41,2.14,2.14,0,0,0-1.05.24,1.81,1.81,0,0,0-.69.71v5.48h-1.35V86.78Z"/><path d="M416.8,90.61a5,5,0,0,1,.76-2.87,2.46,2.46,0,0,1,2.13-1.1,2.58,2.58,0,0,1,1.24.29,2.48,2.48,0,0,1,.9.81l.16-1h1.07v7.44a2.83,2.83,0,0,1-.82,2.18,3.41,3.41,0,0,1-2.39.76A5.45,5.45,0,0,1,418.7,97a5,5,0,0,1-1.09-.4l.2-1.05a3.69,3.69,0,0,0,.94.33,4.57,4.57,0,0,0,1.09.13,2,2,0,0,0,1.43-.45,1.84,1.84,0,0,0,.45-1.36v-.84a2.43,2.43,0,0,1-.87.7,2.72,2.72,0,0,1-1.17.24,2.55,2.55,0,0,1-2.12-1,4.16,4.16,0,0,1-.76-2.58Zm1.35.15a3.11,3.11,0,0,0,.46,1.79,1.57,1.57,0,0,0,1.41.67,1.8,1.8,0,0,0,1-.27,2.26,2.26,0,0,0,.68-.78V88.76A2.24,2.24,0,0,0,421,88a1.8,1.8,0,0,0-1-.27,1.52,1.52,0,0,0-1.43.8,4.07,4.07,0,0,0-.46,2.07Z"/><path d="M426.45,94.17h-1.34V83.51h1.34Z"/><path d="M431.59,94.32a3.15,3.15,0,0,1-2.49-1,3.94,3.94,0,0,1-.89-2.68v-.3a3.88,3.88,0,0,1,.92-2.64,2.89,2.89,0,0,1,2.25-1,2.69,2.69,0,0,1,2.22.92,3.8,3.8,0,0,1,.74,2.46v.71h-4.73l0,0a3.1,3.1,0,0,0,.49,1.81,1.74,1.74,0,0,0,1.51.7,3.43,3.43,0,0,0,1.2-.2,2.61,2.61,0,0,0,.88-.54l.53.88a3.43,3.43,0,0,1-1.05.65A4.24,4.24,0,0,1,431.59,94.32Zm-.21-6.62a1.48,1.48,0,0,0-1.17.54,2.53,2.53,0,0,0-.56,1.4v0H433v-.11a2.17,2.17,0,0,0-.4-1.33A1.44,1.44,0,0,0,431.38,87.7Z"/><path d="M440.05,90.5h-4V89.44h4Z"/><path d="M400.82,111v-6.39h-1.15v-1h1.15v-.94a2.55,2.55,0,0,1,.62-1.83,2.28,2.28,0,0,1,1.73-.64l.47,0,.52.11-.17,1-.29,0a2.23,2.23,0,0,0-.37,0,1,1,0,0,0-.87.35,1.51,1.51,0,0,0-.29,1v.94h1.34v1h-1.34V111Z"/><path d="M409.42,111a5.88,5.88,0,0,1-.11-.59,4.4,4.4,0,0,1-.05-.51,3.12,3.12,0,0,1-1,.89,2.47,2.47,0,0,1-1.3.36,2.45,2.45,0,0,1-1.76-.59,2.2,2.2,0,0,1-.6-1.63,1.91,1.91,0,0,1,.85-1.66,4,4,0,0,1,2.33-.6h1.46v-.73a1.37,1.37,0,0,0-.39-1,1.58,1.58,0,0,0-1.12-.38,1.62,1.62,0,0,0-1.06.33,1,1,0,0,0-.41.79H405l0,0a1.78,1.78,0,0,1,.76-1.48,3.09,3.09,0,0,1,2.07-.67,3,3,0,0,1,2,.64,2.27,2.27,0,0,1,.76,1.84v3.56c0,.27,0,.52,0,.77a4.18,4.18,0,0,0,.15.72Zm-2.24-1a2.4,2.4,0,0,0,1.32-.38,1.71,1.71,0,0,0,.76-.86v-1.2h-1.51a2,2,0,0,0-1.3.41,1.23,1.23,0,0,0-.49,1,1,1,0,0,0,.31.78A1.31,1.31,0,0,0,407.18,110Z"/><path d="M413.77,103.58l.1,1a2.51,2.51,0,0,1,.92-.82,2.79,2.79,0,0,1,1.29-.29,2.36,2.36,0,0,1,1.27.34,2,2,0,0,1,.79,1,2.72,2.72,0,0,1,.93-1,2.39,2.39,0,0,1,1.34-.37,2.21,2.21,0,0,1,1.78.78,3.5,3.5,0,0,1,.66,2.33V111H421.5v-4.43a2.46,2.46,0,0,0-.37-1.55,1.59,1.59,0,0,0-2.24,0,2.08,2.08,0,0,0-.51,1.21V111H417v-4.43a2.41,2.41,0,0,0-.39-1.52,1.32,1.32,0,0,0-1.11-.48,1.85,1.85,0,0,0-1,.25,1.64,1.64,0,0,0-.61.71V111h-1.34v-7.39Z"/><path d="M426.26,101.68h-1.35v-1.37h1.35Zm0,9.29h-1.35v-7.39h1.35Z"/><path d="M429.79,111h-1.35V100.31h1.35Z"/><path d="M434.12,108.23l.24.93h0l1.82-5.58h1.5l-3.11,8.53a3.86,3.86,0,0,1-.81,1.3,1.85,1.85,0,0,1-1.41.55,2.43,2.43,0,0,1-.42,0,2.53,2.53,0,0,1-.39-.07l.14-1.06.24,0,.36,0a.84.84,0,0,0,.71-.39,3.74,3.74,0,0,0,.45-.84l.33-.78-2.75-7.24h1.5Z"/><path class="cls-3" d="M431.94,55.18a.44.44,0,0,0-.09-.61l-13-9.49a.41.41,0,0,0-.51,0l-5.42,4V46.64a.44.44,0,0,0-.43-.44h-2.23a.44.44,0,0,0-.43.44v4.57s0,0,0,.07l-4.49,3.29a.44.44,0,1,0,.52.7l1.21-.88V73a.44.44,0,0,0,.43.44h22.16a.44.44,0,0,0,.44-.44V54.39l1.21.88a.43.43,0,0,0,.26.09A.42.42,0,0,0,431.94,55.18Zm-15.47,7.61h4.27v9.72h-4.27Zm-4.41-13.12-1.35,1V47.08h1.35Zm17.19,4.08V72.51h-7.64V62.36a.43.43,0,0,0-.43-.44H416a.44.44,0,0,0-.44.44V72.51H408V53.75L418.6,46Z"/><path class="cls-2" d="M413.71,69.15V64.44a1.9,1.9,0,0,0-3.7,0v4.71a.44.44,0,0,0,.44.44h2.82A.44.44,0,0,0,413.71,69.15Zm-.88-.44h-1.94v-4.2c0-.36.45-.66,1-.66s1,.3,1,.66v4.2Z"/><path class="cls-2" d="M427.19,69.15V64.5s0,0,0-.06a1.89,1.89,0,0,0-3.69,0,.13.13,0,0,0,0,.06v4.65a.44.44,0,0,0,.44.44h2.82A.45.45,0,0,0,427.19,69.15Zm-.89-.44h-1.93v-4.2c0-.36.45-.66,1-.66s1,.3,1,.66v4.2Z"/><path class="cls-2" d="M421.8,56.84V55.13a3.18,3.18,0,0,0-6.17,0v1.71a.44.44,0,0,0,.44.44h5.29A.44.44,0,0,0,421.8,56.84Zm-3.53-3.2V56.4h-1.76V55.21A1.87,1.87,0,0,1,418.27,53.64Zm2.65,2.76h-1.77V53.64a1.87,1.87,0,0,1,1.77,1.57V56.4Z"/><path class="cls-4" d="M319.06,72.59h-.92V30.52a.89.89,0,0,0,.67-.83V26.34a.88.88,0,0,0-.67-.84V23.33a.79.79,0,0,0-.83-.84H302.59a.79.79,0,0,0-.84.84V25.5a.9.9,0,0,0-.67.84v3.35a.81.81,0,0,0,.59.75V72.59H298.9v-.92a3,3,0,0,0,2.1-2.76,2.91,2.91,0,0,0-1.09-2.25,2.34,2.34,0,0,0,.42-1.34,2.26,2.26,0,0,0-4.52,0,2.55,2.55,0,0,0,.42,1.34,2.8,2.8,0,0,0-1.09,2.25,2.88,2.88,0,0,0,2.09,2.76v.92H292.3v-2a3.86,3.86,0,0,0,3-3.77,3.82,3.82,0,0,0-1.67-3.18,3.08,3.08,0,0,0,.75-1.92,2.93,2.93,0,0,0-5.86,0,2.62,2.62,0,0,0,.76,1.92,3.8,3.8,0,0,0-1.68,3.18,3.86,3.86,0,0,0,3,3.77v2h-3.68V34.29a.81.81,0,0,0,.59-.76V29.85a.72.72,0,0,0-.59-.75V26.59a.79.79,0,0,0-.83-.84H271.64a.8.8,0,0,0-.84.84V29.1a.8.8,0,0,0-.58.75v3.68a.74.74,0,0,0,.58.76v1.59H259.26a.79.79,0,0,0-.84.83V38.8a.89.89,0,0,0-.83.84v3.6a.83.83,0,0,0,.83.83V72.59h-.58a.84.84,0,1,0,0,1.68h61.31a.79.79,0,0,0,.83-.84A.86.86,0,0,0,319.06,72.59ZM272.47,27.34h12.88V29H272.47ZM260.09,37.55H270.8V38.8H260.09Zm-.83,2.84h11.62v2H259.26Zm11.66,18.74h1.55V34.29h12.88v38.3H260.18V44.07h10.7M286,32.7H271.89v-2H286Zm5.52,27.85a1.26,1.26,0,1,1-1.25,1.25A1.29,1.29,0,0,1,291.54,60.55Zm-2.17,6.36a2.18,2.18,0,1,1,2.17,2.17A2.22,2.22,0,0,1,289.37,66.91Zm8.7-2.18a.59.59,0,1,1-.59.59A.57.57,0,0,1,298.07,64.73Zm-1.17,4.18a1.26,1.26,0,0,1,2.51,0,1.26,1.26,0,1,1-2.51,0Zm6.52-44.58h13.05v1.26H303.42Zm13.05,48.35H303.34V30.61h13.13Zm.67-43.75h-14.3V27.26h14.3Z"/><path class="cls-4" d="M282.76,44.42h-2.34a.8.8,0,0,0-.84.84v3.59a.79.79,0,0,0,.84.84h2.34a.79.79,0,0,0,.84-.84V45.26A.9.9,0,0,0,282.76,44.42Zm-.83,3.6h-.67V46.09h.67Z"/><path class="cls-4" d="M277.66,44.42h-2.34a.8.8,0,0,0-.84.84v3.59a.79.79,0,0,0,.84.84h2.34a.79.79,0,0,0,.84-.84V45.26A.9.9,0,0,0,277.66,44.42Zm-.84,3.6h-.67V46.09h.67Z"/><path class="cls-4" d="M266.87,51h2.34a.79.79,0,0,0,.84-.83v-3.6a.8.8,0,0,0-.84-.84h-2.34a.8.8,0,0,0-.84.84v3.6A.84.84,0,0,0,266.87,51Zm.84-3.59h.67v1.92h-.67Z"/><path class="cls-4" d="M261.77,51h2.34a.79.79,0,0,0,.84-.83v-3.6a.8.8,0,0,0-.84-.84h-2.34a.8.8,0,0,0-.84.84v3.6A.89.89,0,0,0,261.77,51Zm.83-3.59h.67v1.92h-.67Z"/><path class="cls-4" d="M282.76,52.44h-2.34a.79.79,0,0,0-.84.83v3.6a.8.8,0,0,0,.84.84h2.34a.8.8,0,0,0,.84-.84v-3.6A.89.89,0,0,0,282.76,52.44ZM281.93,56h-.67V54.11h.67Z"/><path class="cls-4" d="M277.66,52.44h-2.34a.79.79,0,0,0-.84.83v3.6a.8.8,0,0,0,.84.84h2.34a.8.8,0,0,0,.84-.84v-3.6A.89.89,0,0,0,277.66,52.44ZM276.82,56h-.67V54.11h.67Z"/><path class="cls-4" d="M266.87,57.71h2.34a.8.8,0,0,0,.84-.84v-3.6a.79.79,0,0,0-.84-.83h-2.34a.79.79,0,0,0-.84.83v3.6A.84.84,0,0,0,266.87,57.71Zm.84-3.6h.67V56h-.67Z"/><path class="cls-4" d="M261.77,57.71h2.34a.8.8,0,0,0,.84-.84v-3.6a.79.79,0,0,0-.84-.83h-2.34a.79.79,0,0,0-.84.83v3.6A.9.9,0,0,0,261.77,57.71Zm.83-3.6h.67V56h-.67Z"/><path class="cls-4" d="M282.76,36.71h-2.34a.8.8,0,0,0-.84.84v3.59a.79.79,0,0,0,.84.84h2.34a.79.79,0,0,0,.84-.84V37.55A.9.9,0,0,0,282.76,36.71Zm-.83,3.6h-.67V38.38h.67Z"/><path class="cls-4" d="M277.66,36.71h-2.34a.8.8,0,0,0-.84.84v3.59a.79.79,0,0,0,.84.84h2.34a.79.79,0,0,0,.84-.84V37.55A.9.9,0,0,0,277.66,36.71Zm-.84,3.6h-.67V38.38h.67Z"/><path class="cls-4" d="M313.79,45.91h-2.34a.8.8,0,0,0-.84.84v3.18a.79.79,0,0,0,.84.83h2.34a.78.78,0,0,0,.84-.83V46.75A.9.9,0,0,0,313.79,45.91ZM313,49.17h-.67v-1.5H313Z"/><path class="cls-4" d="M308.61,45.91h-2.34a.79.79,0,0,0-.84.84v3.18a.78.78,0,0,0,.84.83h2.34a.78.78,0,0,0,.83-.83V46.75A.84.84,0,0,0,308.61,45.91Zm-.84,3.26h-.67v-1.5h.67Z"/><path class="cls-4" d="M313.79,54.78h-2.34a.79.79,0,0,0-.84.83v3.18a.79.79,0,0,0,.84.84h2.34a.79.79,0,0,0,.84-.84V55.61A.9.9,0,0,0,313.79,54.78ZM313,58h-.67V56.53H313Z"/><path class="cls-4" d="M308.61,54.78h-2.34a.78.78,0,0,0-.84.83v3.18a.79.79,0,0,0,.84.84h2.34a.78.78,0,0,0,.83-.84V55.61A.83.83,0,0,0,308.61,54.78ZM307.77,58h-.67V56.53h.67Z"/><path class="cls-4" d="M313.79,64.56h-2.34a.8.8,0,0,0-.84.84v3.18a.8.8,0,0,0,.84.84h2.34a.79.79,0,0,0,.84-.84V65.4A.9.9,0,0,0,313.79,64.56ZM313,67.83h-.67V66.32H313Z"/><path class="cls-4" d="M308.61,64.56h-2.34a.79.79,0,0,0-.84.84v3.18a.79.79,0,0,0,.84.84h2.34a.79.79,0,0,0,.83-.84V65.4A.84.84,0,0,0,308.61,64.56Zm-.84,3.27h-.67V66.32h.67Z"/><path class="cls-4" d="M313.79,37.13h-2.34a.79.79,0,0,0-.84.84v3.17a.79.79,0,0,0,.84.84h2.34a.79.79,0,0,0,.84-.84V38A.9.9,0,0,0,313.79,37.13ZM313,40.39h-.67v-1.5H313Z"/><path class="cls-4" d="M308.61,37.13h-2.34a.79.79,0,0,0-.84.84v3.17a.79.79,0,0,0,.84.84h2.34a.78.78,0,0,0,.83-.84V38A.84.84,0,0,0,308.61,37.13Zm-.84,3.26h-.67v-1.5h.67Z"/><path class="cls-5" d="M285.28,59.09,258.84,59V72.76a.35.35,0,0,0,.35.35h26.44a.35.35,0,0,0,.35-.35V59.1m-18.5.69h1.94v2.27a1,1,0,1,1-1.94,0Zm-2.65,0h1.94v2.27a1,1,0,0,1-1.94,0Zm-2.64,0h1.94v2.27a1,1,0,0,1-1.94,0Zm-2.65,0h1.94v2.27a1,1,0,1,1-1.94,0Zm8,12.62H264V65.55h3.52Zm4.5,0h-3.8V65.2a.35.35,0,0,0-.35-.36h-4.22a.36.36,0,0,0-.35.36v7.21h-3.8v-9a1.72,1.72,0,0,0,1,.31,1.68,1.68,0,0,0,1.33-.66,1.65,1.65,0,0,0,2.64,0,1.65,1.65,0,0,0,2.64,0,1.68,1.68,0,0,0,1.33.66,1.65,1.65,0,0,1,2.64,0,1.7,1.7,0,0,0,1-.31Zm0-10.35a1,1,0,1,1-1.94,0V59.79h1.94Zm8.64-2.27h1.94v2.27a1,1,0,0,1-1.94,0Zm-2.65,0H280v2.27a1,1,0,1,1-1.94,0Zm-2.64,0h1.94v2.27a1,1,0,1,1-1.94,0Zm-2.65,0h1.94v2.27a1,1,0,0,1-1.94,0Zm8,12.62h-3.52V65.55h3.52Zm4.5,0h-3.8V65.2a.35.35,0,0,0-.35-.36h-4.22a.36.36,0,0,0-.35.36v7.21h-3.8v-9a1.72,1.72,0,0,0,1,.31,1.68,1.68,0,0,0,1.33-.66,4.49,4.49,0,0,1,4,.66,1.65,1.65,0,0,0,1.32-.66,1.68,1.68,0,0,0,1.33.66,1.65,1.65,0,0,1,2.64,0,1.7,1.7,0,0,0,1-.31Zm0-10.35a1,1,0,0,1-1.94,0V59.79h1.94Z"/><path d="M113.25,39a.84.84,0,0,0-.89.89v1.51a.89.89,0,0,0,1.78,0V39.87A1,1,0,0,0,113.25,39Z"/><path d="M109,39a.84.84,0,0,0-.89.89v1.51a.9.9,0,0,0,1.79,0V39.87A.89.89,0,0,0,109,39Z"/><path d="M104.7,39a.83.83,0,0,0-.89.89v1.51a.89.89,0,0,0,1.78,0V39.87A.89.89,0,0,0,104.7,39Z"/><path d="M113.25,45.21a.85.85,0,0,0-.89.89v1.52a.89.89,0,1,0,1.78,0V46.1A.89.89,0,0,0,113.25,45.21Z"/><path d="M109,45.21a.85.85,0,0,0-.89.89v1.52a.9.9,0,0,0,1.79,0V46.1A.85.85,0,0,0,109,45.21Z"/><path d="M104.7,45.21a.84.84,0,0,0-.89.89v1.52a.89.89,0,0,0,1.78,0V46.1A.85.85,0,0,0,104.7,45.21Z"/><path d="M113.25,51.36a.85.85,0,0,0-.89.89v1.52a.89.89,0,1,0,1.78,0V52.25A1,1,0,0,0,113.25,51.36Z"/><path d="M109,51.36a.85.85,0,0,0-.89.89v1.52a.9.9,0,0,0,1.79,0V52.25A.9.9,0,0,0,109,51.36Z"/><path d="M104.7,51.36a.84.84,0,0,0-.89.89v1.52a.89.89,0,1,0,1.78,0V52.25A.9.9,0,0,0,104.7,51.36Z"/><path d="M113.25,57.6a.85.85,0,0,0-.89.89V60a.89.89,0,0,0,1.78,0V58.49A.89.89,0,0,0,113.25,57.6Z"/><path d="M109,57.6a.85.85,0,0,0-.89.89V60a.9.9,0,0,0,1.79,0V58.49A.85.85,0,0,0,109,57.6Z"/><path d="M104.7,57.6a.84.84,0,0,0-.89.89V60a.89.89,0,0,0,1.78,0V58.49A.85.85,0,0,0,104.7,57.6Z"/><path d="M113.25,63.75a.85.85,0,0,0-.89.89v1.52a.89.89,0,0,0,1.78,0V64.64A1,1,0,0,0,113.25,63.75Z"/><path d="M109,63.75a.85.85,0,0,0-.89.89v1.52a.9.9,0,0,0,1.79,0V64.64A.89.89,0,0,0,109,63.75Z"/><path d="M104.7,63.75a.84.84,0,0,0-.89.89v1.52a.89.89,0,0,0,1.78,0V64.64A.89.89,0,0,0,104.7,63.75Z"/><path d="M140.88,42.27a.84.84,0,0,0,.89-.89V39.87a.89.89,0,1,0-1.78,0v1.51A.83.83,0,0,0,140.88,42.27Z"/><path d="M136.6,42.27a.84.84,0,0,0,.89-.89V39.87a.89.89,0,1,0-1.78,0v1.51A.84.84,0,0,0,136.6,42.27Z"/><path d="M132.32,42.27a.83.83,0,0,0,.89-.89V39.87a.89.89,0,1,0-1.78,0v1.51A.89.89,0,0,0,132.32,42.27Z"/><path d="M140.88,48.51a.85.85,0,0,0,.89-.89V46.1a.89.89,0,1,0-1.78,0v1.52A.88.88,0,0,0,140.88,48.51Z"/><path d="M136.6,48.51a.85.85,0,0,0,.89-.89V46.1a.89.89,0,1,0-1.78,0v1.52A.89.89,0,0,0,136.6,48.51Z"/><path d="M132.32,48.51a.84.84,0,0,0,.89-.89V46.1a.89.89,0,1,0-1.78,0v1.52A1,1,0,0,0,132.32,48.51Z"/><path d="M140.88,54.66a.85.85,0,0,0,.89-.89V52.25a.89.89,0,1,0-1.78,0v1.52A.84.84,0,0,0,140.88,54.66Z"/><path d="M136.6,54.66a.85.85,0,0,0,.89-.89V52.25a.89.89,0,1,0-1.78,0v1.52A.85.85,0,0,0,136.6,54.66Z"/><path d="M132.32,54.66a.84.84,0,0,0,.89-.89V52.25a.89.89,0,1,0-1.78,0v1.52A.9.9,0,0,0,132.32,54.66Z"/><path d="M140.88,60.9a.85.85,0,0,0,.89-.89V58.49a.89.89,0,1,0-1.78,0V60A.89.89,0,0,0,140.88,60.9Z"/><path d="M136.6,60.9a.85.85,0,0,0,.89-.89V58.49a.89.89,0,1,0-1.78,0V60A.9.9,0,0,0,136.6,60.9Z"/><path d="M132.32,60.9a.84.84,0,0,0,.89-.89V58.49a.89.89,0,1,0-1.78,0V60A1,1,0,0,0,132.32,60.9Z"/><path d="M140.88,67.05a.85.85,0,0,0,.89-.89V64.64a.89.89,0,1,0-1.78,0v1.52A.84.84,0,0,0,140.88,67.05Z"/><path d="M136.6,67.05a.85.85,0,0,0,.89-.89V64.64a.89.89,0,1,0-1.78,0v1.52A.85.85,0,0,0,136.6,67.05Z"/><path d="M132.32,67.05a.84.84,0,0,0,.89-.89V64.64a.89.89,0,1,0-1.78,0v1.52A.9.9,0,0,0,132.32,67.05Z"/><path d="M96,74.44h54.27a.89.89,0,1,0,0-1.78h-3.29v-38a.84.84,0,0,0-.89-.89h-9.18V12.24a.85.85,0,0,0-.89-.89H118.69a.84.84,0,0,0-.89.89V26.86L99.08,35.32a.87.87,0,0,0-.53.8V72.66H95.87a.85.85,0,0,0-.89.89A.91.91,0,0,0,96,74.44Zm49.2-1.78H128V35.5h17.2ZM135.09,13.13V33.81h-7.94a.84.84,0,0,0-.89.89v2.85h-3.65a.89.89,0,1,0,0,1.78h3.65V44.5h-3.65a.89.89,0,0,0,0,1.78h3.65v5.17h-3.65a.89.89,0,0,0,0,1.78h3.65V58.4h-3.65a.89.89,0,1,0,0,1.78h3.65v5.17h-3.65a.9.9,0,0,0,0,1.79h3.65v5.61h-6.59V13.13ZM100.33,36.66l17.2-7.84V72.57h-17.2Z"/><path d="M122.61,18.48h9.8a.89.89,0,0,0,0-1.78h-9.8a.89.89,0,1,0,0,1.78Z"/><path d="M122.61,25.43h9.8a.89.89,0,0,0,0-1.78h-9.8a.89.89,0,1,0,0,1.78Z"/><path d="M122.61,32.38h9.8a.89.89,0,0,0,0-1.78h-9.8a.89.89,0,1,0,0,1.78Z"/><line class="cls-6" x1="462" y1="74.01" x2="-13" y2="74.01"/></svg>