<svg id="Layer_1" data-name="Layer 1" xmlns="http://www.w3.org/2000/svg" width="450" height="180" viewBox="0 0 450 180"><defs><style>.cls-1,.cls-2,.cls-3{fill:none;stroke:#000;stroke-linecap:round;stroke-linejoin:round;stroke-width:2.83px;}.cls-2{stroke-dasharray:0.03 4.36;}.cls-3{stroke-dasharray:0.03 4.42;}</style></defs><title>diagrams</title><path d="M110.61,123.07h1.47v1.13h-1.47v2.46h-1.43V124.2H104.6v-.82l4.49-7.39h1.52Zm-4.47,0h3v-5h-.05l-.14.37Z"/><path d="M116.25,121.65l1.69-2.92h1.68l-2.57,3.92,2.64,4H118l-1.76-3-1.76,3h-1.67l2.65-4-2.57-3.92h1.66Z"/><path d="M126.48,122.38v4.28H125V116h4.08a3.81,3.81,0,0,1,2.66.88,3.31,3.31,0,0,1,0,4.64,3.81,3.81,0,0,1-2.66.87Zm0-1.13h2.63a1.94,1.94,0,0,0,2.16-2,2.13,2.13,0,0,0-.54-1.48,2.1,2.1,0,0,0-1.62-.59h-2.63Z"/><path d="M139.16,126.66c0-.24-.09-.45-.11-.64a3.31,3.31,0,0,1-.05-.55,3.47,3.47,0,0,1-1.05,1,2.75,2.75,0,0,1-1.4.38,2.59,2.59,0,0,1-1.88-.63,2.35,2.35,0,0,1-.65-1.75,2.06,2.06,0,0,1,.92-1.78,4.33,4.33,0,0,1,2.49-.64H139v-.78a1.46,1.46,0,0,0-.42-1.1,1.7,1.7,0,0,0-1.21-.41,1.77,1.77,0,0,0-1.13.35,1.06,1.06,0,0,0-.43.85h-1.37l0,0a1.93,1.93,0,0,1,.81-1.59,3.42,3.42,0,0,1,2.22-.71,3.3,3.3,0,0,1,2.17.68,2.43,2.43,0,0,1,.82,2v3.82a7.22,7.22,0,0,0,.05.82,4.15,4.15,0,0,0,.16.78Zm-2.39-1.06a2.55,2.55,0,0,0,1.41-.4,2,2,0,0,0,.82-.92V123h-1.62a2,2,0,0,0-1.39.44,1.32,1.32,0,0,0-.53,1,1.11,1.11,0,0,0,.33.84A1.42,1.42,0,0,0,136.77,125.6Z"/><path d="M146.29,120l-.74-.05a1.7,1.7,0,0,0-1,.27,1.73,1.73,0,0,0-.6.77v5.66h-1.44v-7.93h1.29l.14,1.16a2.71,2.71,0,0,1,.83-1,1.94,1.94,0,0,1,1.14-.34l.3,0,.25.06Z"/><path d="M150,123h-.74v3.66H147.8V115.23h1.44v6.62H150l2.38-3.12h1.73l-2.88,3.66,3.13,4.27h-1.7Z"/><path d="M157,116.7H155.6v-1.47H157Zm0,10H155.6v-7.93H157Z"/><path d="M160.55,118.73l.1,1.18a2.9,2.9,0,0,1,1-1,2.67,2.67,0,0,1,1.36-.34,2.59,2.59,0,0,1,2,.75,3.27,3.27,0,0,1,.7,2.31v5h-1.44v-5a2.11,2.11,0,0,0-.42-1.48,1.61,1.61,0,0,0-1.26-.44,2.22,2.22,0,0,0-1.13.27,1.84,1.84,0,0,0-.74.75v5.88h-1.44v-7.93Z"/><path d="M167.53,122.84a5.32,5.32,0,0,1,.81-3.08,2.64,2.64,0,0,1,2.29-1.17,2.79,2.79,0,0,1,1.32.3,2.6,2.6,0,0,1,1,.88l.18-1h1.15v8a3,3,0,0,1-.89,2.34,3.61,3.61,0,0,1-2.56.82,5.07,5.07,0,0,1-1.23-.16,4.74,4.74,0,0,1-1.17-.43l.22-1.12a4.1,4.1,0,0,0,1,.36,5.16,5.16,0,0,0,1.16.13,2.09,2.09,0,0,0,1.53-.48,2,2,0,0,0,.48-1.46v-.9a2.54,2.54,0,0,1-.93.76,2.91,2.91,0,0,1-1.25.25,2.72,2.72,0,0,1-2.27-1,4.4,4.4,0,0,1-.81-2.76ZM169,123a3.32,3.32,0,0,0,.49,1.91,1.69,1.69,0,0,0,1.52.73,1.89,1.89,0,0,0,1.09-.3,2.14,2.14,0,0,0,.72-.84v-3.64a2.07,2.07,0,0,0-.72-.8,1.9,1.9,0,0,0-1.08-.3,1.62,1.62,0,0,0-1.52.85,4.46,4.46,0,0,0-.5,2.23Z"/><path d="M121.85,142a1.61,1.61,0,0,0-.52-1.22,4.47,4.47,0,0,0-1.83-.83,6.2,6.2,0,0,1-2.54-1.19,2.48,2.48,0,0,1-.91-2,2.66,2.66,0,0,1,1-2.09,3.85,3.85,0,0,1,2.55-.83,3.7,3.7,0,0,1,2.68,1,2.87,2.87,0,0,1,1,2.23l0,0h-1.37a2,2,0,0,0-.64-1.5,2.25,2.25,0,0,0-1.62-.59,2.22,2.22,0,0,0-1.55.49,1.63,1.63,0,0,0-.54,1.27,1.44,1.44,0,0,0,.59,1.16,5.58,5.58,0,0,0,1.92.82,5.47,5.47,0,0,1,2.45,1.23,2.67,2.67,0,0,1,.84,2,2.49,2.49,0,0,1-1,2.08,4.24,4.24,0,0,1-2.65.78,4.55,4.55,0,0,1-2.73-.86,2.62,2.62,0,0,1-1.14-2.32v0h1.38a1.79,1.79,0,0,0,.76,1.55,2.9,2.9,0,0,0,1.72.54,2.56,2.56,0,0,0,1.62-.46A1.49,1.49,0,0,0,121.85,142Z"/><path d="M131.89,141a4.34,4.34,0,0,1-.82,2.76,2.71,2.71,0,0,1-2.26,1.05,3.23,3.23,0,0,1-1.29-.24,2.5,2.5,0,0,1-.94-.74v3.87h-1.44v-11h1.11l.22,1a2.6,2.6,0,0,1,1-.87,2.86,2.86,0,0,1,1.35-.3,2.66,2.66,0,0,1,2.29,1.16,5.33,5.33,0,0,1,.81,3.09Zm-1.44-.16a4.18,4.18,0,0,0-.53-2.21,1.73,1.73,0,0,0-1.57-.87,1.93,1.93,0,0,0-1.06.28,2.2,2.2,0,0,0-.71.77v3.83a1.89,1.89,0,0,0,1.79,1,1.77,1.77,0,0,0,1.55-.75,3.29,3.29,0,0,0,.53-1.93Z"/><path d="M138.54,144.66c0-.24-.09-.45-.12-.64a4.89,4.89,0,0,1,0-.55,3.36,3.36,0,0,1-1.05,1,2.71,2.71,0,0,1-1.39.38,2.6,2.6,0,0,1-1.89-.63,2.35,2.35,0,0,1-.65-1.75,2.06,2.06,0,0,1,.92-1.78,4.39,4.39,0,0,1,2.5-.64h1.56v-.78a1.46,1.46,0,0,0-.42-1.1,1.66,1.66,0,0,0-1.2-.41,1.78,1.78,0,0,0-1.14.35,1.06,1.06,0,0,0-.43.85h-1.37v0a1.88,1.88,0,0,1,.81-1.59,3.38,3.38,0,0,1,2.22-.71,3.31,3.31,0,0,1,2.17.68,2.46,2.46,0,0,1,.82,2v3.82a7.27,7.27,0,0,0,0,.82,4.15,4.15,0,0,0,.16.78Zm-2.4-1.06a2.55,2.55,0,0,0,1.41-.4,1.91,1.91,0,0,0,.82-.92V141h-1.61a2.06,2.06,0,0,0-1.4.44,1.31,1.31,0,0,0-.52,1,1.11,1.11,0,0,0,.33.84A1.39,1.39,0,0,0,136.14,143.6Z"/><path d="M145.06,143.68a1.69,1.69,0,0,0,1.17-.44,1.41,1.41,0,0,0,.49-1.09H148l0,0a2.27,2.27,0,0,1-.88,1.82,3.37,3.37,0,0,1-4.69-.34,4.42,4.42,0,0,1-.91-2.83v-.31a4.34,4.34,0,0,1,.92-2.81,3.09,3.09,0,0,1,2.57-1.14,3,3,0,0,1,2.17.82,2.56,2.56,0,0,1,.82,2l0,0h-1.31a1.72,1.72,0,0,0-.47-1.23,1.54,1.54,0,0,0-1.19-.51,1.67,1.67,0,0,0-1.55.83,3.89,3.89,0,0,0-.49,2v.31a3.88,3.88,0,0,0,.48,2A1.66,1.66,0,0,0,145.06,143.68Z"/><path d="M153,144.81a3.35,3.35,0,0,1-2.66-1.09,4.23,4.23,0,0,1-.95-2.87v-.32a4.12,4.12,0,0,1,1-2.83,3.11,3.11,0,0,1,2.41-1.11,2.89,2.89,0,0,1,2.38,1,4.08,4.08,0,0,1,.8,2.63V141h-5.07l0,0a3.3,3.3,0,0,0,.52,1.94,1.83,1.83,0,0,0,1.61.74,3.88,3.88,0,0,0,1.29-.2,3,3,0,0,0,.95-.58l.56.94a3.45,3.45,0,0,1-1.12.69A4.41,4.41,0,0,1,153,144.81Zm-.22-7.09a1.58,1.58,0,0,0-1.25.58,2.83,2.83,0,0,0-.61,1.49l0,0h3.57v-.12a2.3,2.3,0,0,0-.42-1.42A1.52,1.52,0,0,0,152.82,137.72Z"/><path d="M162.22,142.53a1,1,0,0,0-.36-.78,3.47,3.47,0,0,0-1.37-.53,5.73,5.73,0,0,1-2.15-.84,1.69,1.69,0,0,1-.75-1.45,2.07,2.07,0,0,1,.82-1.65,3.64,3.64,0,0,1,4.32,0,2.14,2.14,0,0,1,.8,1.71l0,0h-1.38a1.25,1.25,0,0,0-.45-.93,1.61,1.61,0,0,0-1.14-.42,1.63,1.63,0,0,0-1.13.35,1,1,0,0,0-.38.82.88.88,0,0,0,.32.72,3.64,3.64,0,0,0,1.35.47,5.68,5.68,0,0,1,2.21.87,1.77,1.77,0,0,1,.75,1.47,2.09,2.09,0,0,1-.85,1.73,3.54,3.54,0,0,1-2.23.66,3.45,3.45,0,0,1-2.39-.77,2.18,2.18,0,0,1-.82-1.79v-.05h1.38a1.32,1.32,0,0,0,.57,1.13,2.18,2.18,0,0,0,1.25.35,2,2,0,0,0,1.21-.32A1,1,0,0,0,162.22,142.53Z"/><path d="M96.52,162.66c0-.24-.09-.45-.11-.64a3.31,3.31,0,0,1,0-.55,3.47,3.47,0,0,1-1,1,2.75,2.75,0,0,1-1.4.38,2.59,2.59,0,0,1-1.88-.63,2.31,2.31,0,0,1-.65-1.75,2,2,0,0,1,.92-1.78,4.33,4.33,0,0,1,2.49-.64h1.57v-.78a1.43,1.43,0,0,0-.43-1.1,1.66,1.66,0,0,0-1.2-.41,1.75,1.75,0,0,0-1.13.35,1.06,1.06,0,0,0-.43.85H91.8l0,0a1.93,1.93,0,0,1,.81-1.59,3.38,3.38,0,0,1,2.22-.71,3.31,3.31,0,0,1,2.17.68,2.43,2.43,0,0,1,.82,2v3.82a7.22,7.22,0,0,0,0,.82,3.49,3.49,0,0,0,.16.78Zm-2.4-1.06a2.56,2.56,0,0,0,1.42-.4,2,2,0,0,0,.82-.92V159H94.74a2.08,2.08,0,0,0-1.4.44,1.34,1.34,0,0,0-.52,1,1.11,1.11,0,0,0,.33.84A1.39,1.39,0,0,0,94.12,161.6Z"/><path d="M106.65,159a4.34,4.34,0,0,1-.82,2.76,2.71,2.71,0,0,1-2.26,1.05,3.23,3.23,0,0,1-1.29-.24,2.5,2.5,0,0,1-.94-.74v3.87H99.9v-11H101l.23,1a2.6,2.6,0,0,1,1-.87,2.85,2.85,0,0,1,1.34-.3,2.65,2.65,0,0,1,2.29,1.16,5.26,5.26,0,0,1,.82,3.09Zm-1.44-.16a4.09,4.09,0,0,0-.54-2.21,1.71,1.71,0,0,0-1.56-.87,1.91,1.91,0,0,0-1.06.28,2.2,2.2,0,0,0-.71.77v3.83a2,2,0,0,0,.71.77,2,2,0,0,0,1.08.27,1.77,1.77,0,0,0,1.55-.75,3.29,3.29,0,0,0,.53-1.93Z"/><path d="M115.17,159a4.34,4.34,0,0,1-.82,2.76,2.7,2.7,0,0,1-2.26,1.05,3.14,3.14,0,0,1-1.28-.24,2.53,2.53,0,0,1-1-.74v3.87h-1.44v-11h1.11l.22,1a2.68,2.68,0,0,1,1-.87,2.92,2.92,0,0,1,1.35-.3,2.66,2.66,0,0,1,2.29,1.16,5.33,5.33,0,0,1,.81,3.09Zm-1.44-.16a4.18,4.18,0,0,0-.53-2.21,1.71,1.71,0,0,0-1.56-.87,1.94,1.94,0,0,0-1.07.28,2.2,2.2,0,0,0-.71.77v3.83a2,2,0,0,0,.71.77,2.06,2.06,0,0,0,1.08.27,1.77,1.77,0,0,0,1.55-.75,3.21,3.21,0,0,0,.53-1.93Z"/><path d="M120.7,156l-.74,0a1.68,1.68,0,0,0-1,.27,1.73,1.73,0,0,0-.6.77v5.66H117v-7.93h1.29l.14,1.16a2.71,2.71,0,0,1,.83-1,1.94,1.94,0,0,1,1.14-.34l.3,0,.24.06Z"/><path d="M121.71,158.62a4.33,4.33,0,0,1,1-2.89,3.17,3.17,0,0,1,2.58-1.14,3.23,3.23,0,0,1,2.61,1.13,4.38,4.38,0,0,1,1,2.9v.16a4.36,4.36,0,0,1-1,2.9,3.19,3.19,0,0,1-2.59,1.13,3.24,3.24,0,0,1-2.6-1.13,4.32,4.32,0,0,1-1-2.9Zm1.45.16a3.69,3.69,0,0,0,.53,2.08,1.75,1.75,0,0,0,1.58.82,1.73,1.73,0,0,0,1.56-.82,3.69,3.69,0,0,0,.54-2.08v-.16a3.71,3.71,0,0,0-.54-2.07,1.77,1.77,0,0,0-1.58-.83,1.73,1.73,0,0,0-1.56.83,3.7,3.7,0,0,0-.53,2.07Z"/><path d="M133.11,157.65l1.69-2.92h1.68l-2.57,3.92,2.64,4H134.9l-1.76-3-1.76,3h-1.67l2.65-4-2.57-3.92h1.66Z"/><path d="M139.54,162.66H138.1v-1.48h1.44Z"/><path d="M152.06,154.72a2.43,2.43,0,0,1-.47,1.47,2.87,2.87,0,0,1-1.24.95,3.09,3.09,0,0,1,1.45,1,2.46,2.46,0,0,1,.55,1.59,2.84,2.84,0,0,1-.95,2.28,3.69,3.69,0,0,1-2.44.8,4,4,0,0,1-2.56-.8,2.78,2.78,0,0,1-1-2.28,2.47,2.47,0,0,1,.56-1.59,3.19,3.19,0,0,1,1.51-1,2.79,2.79,0,0,1-1.29-.94,2.38,2.38,0,0,1-.48-1.47,2.61,2.61,0,0,1,.9-2.14,3.55,3.55,0,0,1,2.34-.74,3.35,3.35,0,0,1,2.23.74A2.64,2.64,0,0,1,152.06,154.72Zm-1.14,5a1.93,1.93,0,0,0-2-2,2.14,2.14,0,0,0-1.51.56,1.93,1.93,0,0,0-.59,1.44,1.87,1.87,0,0,0,.59,1.44,2.16,2.16,0,0,0,1.52.54,1.88,1.88,0,0,0,2-2Zm-.3-5a1.78,1.78,0,0,0-.48-1.27A1.59,1.59,0,0,0,149,153a1.81,1.81,0,0,0-1.29.47,1.7,1.7,0,0,0-.51,1.29,1.73,1.73,0,0,0,1.81,1.82,1.53,1.53,0,0,0,1.18-.5A1.85,1.85,0,0,0,150.62,154.74Z"/><path d="M160.72,158.89a4.19,4.19,0,0,1-.92,2.87,3.43,3.43,0,0,1-4.94,0,4.2,4.2,0,0,1-.93-2.87v-3.13a4.24,4.24,0,0,1,.92-2.86,3.42,3.42,0,0,1,5,0,4.24,4.24,0,0,1,.92,2.86Zm-1.44-3.43a2.94,2.94,0,0,0-.51-1.82,1.73,1.73,0,0,0-1.45-.66,1.71,1.71,0,0,0-1.44.66,3,3,0,0,0-.5,1.82v3.73a3,3,0,0,0,.51,1.82,1.72,1.72,0,0,0,1.44.67,1.7,1.7,0,0,0,1.45-.67,3,3,0,0,0,.5-1.82Z"/><path d="M169.17,158.89a4.25,4.25,0,0,1-.92,2.87,3.43,3.43,0,0,1-4.94,0,4.2,4.2,0,0,1-.93-2.87v-3.13a4.24,4.24,0,0,1,.92-2.86,3.07,3.07,0,0,1,2.46-1.06,3.12,3.12,0,0,1,2.48,1.06,4.19,4.19,0,0,1,.93,2.86Zm-1.44-3.43a2.94,2.94,0,0,0-.52-1.82,1.72,1.72,0,0,0-1.45-.66,1.68,1.68,0,0,0-1.43.66,2.94,2.94,0,0,0-.51,1.82v3.73a2.89,2.89,0,0,0,.52,1.82,1.88,1.88,0,0,0,2.88,0,2.92,2.92,0,0,0,.51-1.82Z"/><path d="M175.37,162.66V155.8h-1.24v-1.07h1.24v-1a2.72,2.72,0,0,1,.66-2,2.46,2.46,0,0,1,1.85-.69,2.92,2.92,0,0,1,.51,0l.56.11-.18,1.1a2.16,2.16,0,0,0-.32-.05,2.42,2.42,0,0,0-.39,0,1.15,1.15,0,0,0-.94.37,1.76,1.76,0,0,0-.31,1.1v1h1.44v1.07h-1.44v6.86Z"/><path d="M181.71,152.82v1.91h1.51v1.07h-1.51v4.81a1.05,1.05,0,0,0,.24.79.82.82,0,0,0,.61.22l.28,0a1.26,1.26,0,0,0,.25-.07l.2,1a1.34,1.34,0,0,1-.48.22,2.64,2.64,0,0,1-.62.08,1.88,1.88,0,0,1-1.4-.53,2.33,2.33,0,0,1-.52-1.67V155.8H179v-1.07h1.26v-1.91Z"/><path d="M188.39,157.66h-4.18v-.81l1.93-2.18a4.87,4.87,0,0,0,.61-.86,1.46,1.46,0,0,0,.18-.65.91.91,0,0,0-.19-.61.69.69,0,0,0-.57-.23.73.73,0,0,0-.63.29,1.21,1.21,0,0,0-.22.75H184.1v0a1.85,1.85,0,0,1,.55-1.4,2.07,2.07,0,0,1,1.53-.57,2.13,2.13,0,0,1,1.48.48,1.73,1.73,0,0,1,.53,1.32,1.84,1.84,0,0,1-.3,1,9.58,9.58,0,0,1-1,1.27l-1,1.23v0h2.54Z"/><path d="M276.53,126.66h-6.62v-1l3.34-4a10.59,10.59,0,0,0,1.22-1.73,2.88,2.88,0,0,0,.31-1.29,1.71,1.71,0,0,0-.43-1.21,1.51,1.51,0,0,0-1.19-.47,1.8,1.8,0,0,0-1.44.57,2.16,2.16,0,0,0-.5,1.45h-1.39v0a2.85,2.85,0,0,1,.87-2.21,3.35,3.35,0,0,1,2.47-.9,3.1,3.1,0,0,1,2.25.79,2.74,2.74,0,0,1,.82,2,3.26,3.26,0,0,1-.47,1.65,17.47,17.47,0,0,1-1.42,2l-2.68,3.15v0h4.86Z"/><path d="M282.8,122.72h-4.32v-1.13h4.32Z"/><path d="M285.26,126.66V116h3.48a4.15,4.15,0,0,1,2.61.73,2.55,2.55,0,0,1,.95,2.16,2,2,0,0,1-.43,1.23,2.59,2.59,0,0,1-1.13.83,2.53,2.53,0,0,1,1.66.91,2.78,2.78,0,0,1,.61,1.8,2.72,2.72,0,0,1-.95,2.24,4,4,0,0,1-2.58.77Zm1.44-6.13H289a1.91,1.91,0,0,0,1.31-.45,1.79,1.79,0,0,0,0-2.52,2.49,2.49,0,0,0-1.57-.43h-2Zm0,1.12v3.88h2.78A2.23,2.23,0,0,0,291,125a1.75,1.75,0,0,0,.54-1.38,1.92,1.92,0,0,0-.55-1.43,2.22,2.22,0,0,0-1.5-.58H286.7Z"/><path d="M297.88,126.81a3.36,3.36,0,0,1-2.67-1.09,4.23,4.23,0,0,1-.95-2.87v-.32a4.16,4.16,0,0,1,1-2.83,3.11,3.11,0,0,1,2.41-1.11,2.89,2.89,0,0,1,2.38,1,4.08,4.08,0,0,1,.8,2.63V123h-5.07l0,0a3.23,3.23,0,0,0,.53,1.94,1.82,1.82,0,0,0,1.61.74,3.82,3.82,0,0,0,1.28-.2,2.92,2.92,0,0,0,.95-.58l.57.94a3.62,3.62,0,0,1-1.13.69A4.39,4.39,0,0,1,297.88,126.81Zm-.23-7.09a1.6,1.6,0,0,0-1.25.58,2.75,2.75,0,0,0-.6,1.49v0h3.58v-.12a2.31,2.31,0,0,0-.43-1.42A1.52,1.52,0,0,0,297.65,119.72Z"/><path d="M302.12,122.84a5.32,5.32,0,0,1,.81-3.08,2.64,2.64,0,0,1,2.29-1.17,2.86,2.86,0,0,1,1.24.25,2.54,2.54,0,0,1,.92.75v-4.36h1.44v11.43h-1.11l-.22-1a2.55,2.55,0,0,1-.95.87,3,3,0,0,1-1.33.29,2.72,2.72,0,0,1-2.27-1,4.34,4.34,0,0,1-.82-2.76Zm1.44.16a3.33,3.33,0,0,0,.49,1.92,1.73,1.73,0,0,0,1.53.72,2,2,0,0,0,1.08-.29,2.31,2.31,0,0,0,.72-.82v-3.7a2.26,2.26,0,0,0-.72-.78,2,2,0,0,0-1.07-.29,1.63,1.63,0,0,0-1.53.85,4.46,4.46,0,0,0-.5,2.23Z"/><path d="M314.72,120,314,120a1.65,1.65,0,0,0-1,.27,1.73,1.73,0,0,0-.6.77v5.66H311v-7.93h1.29l.14,1.16a2.81,2.81,0,0,1,.83-1,1.94,1.94,0,0,1,1.14-.34l.31,0,.24.06Z"/><path d="M315.74,122.62a4.37,4.37,0,0,1,.95-2.89,3.53,3.53,0,0,1,5.19,0,4.34,4.34,0,0,1,1,2.9v.16a4.36,4.36,0,0,1-.95,2.9,3.54,3.54,0,0,1-5.19,0,4.32,4.32,0,0,1-1-2.9Zm1.44.16a3.78,3.78,0,0,0,.53,2.08,1.92,1.92,0,0,0,3.15,0,3.69,3.69,0,0,0,.54-2.08v-.16a3.71,3.71,0,0,0-.54-2.07,1.91,1.91,0,0,0-3.15,0,3.79,3.79,0,0,0-.53,2.07Z"/><path d="M324.27,122.62a4.32,4.32,0,0,1,1-2.89,3.17,3.17,0,0,1,2.58-1.14,3.23,3.23,0,0,1,2.61,1.13,4.38,4.38,0,0,1,.95,2.9v.16a4.31,4.31,0,0,1-.95,2.9,3.19,3.19,0,0,1-2.59,1.13,3.24,3.24,0,0,1-2.6-1.13,4.36,4.36,0,0,1-1-2.9Zm1.44.16a3.78,3.78,0,0,0,.53,2.08,1.92,1.92,0,0,0,3.15,0,3.78,3.78,0,0,0,.53-2.08v-.16a3.71,3.71,0,0,0-.54-2.07,1.77,1.77,0,0,0-1.58-.83,1.74,1.74,0,0,0-1.56.83,3.79,3.79,0,0,0-.53,2.07Z"/><path d="M334.42,118.73l.1,1a2.76,2.76,0,0,1,1-.87,2.9,2.9,0,0,1,1.38-.31,2.49,2.49,0,0,1,1.36.36,2.24,2.24,0,0,1,.86,1.1,2.92,2.92,0,0,1,1-1.07,2.6,2.6,0,0,1,1.43-.39,2.35,2.35,0,0,1,1.91.83,3.79,3.79,0,0,1,.7,2.5v4.74H342.7V121.9a2.59,2.59,0,0,0-.4-1.65,1.46,1.46,0,0,0-1.2-.49,1.54,1.54,0,0,0-1.2.51,2.23,2.23,0,0,0-.54,1.3v5.09h-1.45V121.9a2.6,2.6,0,0,0-.41-1.62,1.42,1.42,0,0,0-1.19-.52,2,2,0,0,0-1.09.27,1.73,1.73,0,0,0-.65.76v5.87h-1.44v-7.93Z"/><path d="M278.14,141.91h-4l-1,2.75H271.7L275.55,134h1.23l3.77,10.67h-1.47Zm-3.6-1.21h3.19l-1.55-4.58h-.05Z"/><path d="M288.67,141a4.34,4.34,0,0,1-.82,2.76,2.71,2.71,0,0,1-2.26,1.05,3.23,3.23,0,0,1-1.29-.24,2.5,2.5,0,0,1-.94-.74v3.87h-1.44v-11H283l.23,1a2.6,2.6,0,0,1,1-.87,2.86,2.86,0,0,1,1.35-.3,2.63,2.63,0,0,1,2.28,1.16,5.26,5.26,0,0,1,.82,3.09Zm-1.44-.16a4.18,4.18,0,0,0-.53-2.21,1.73,1.73,0,0,0-1.57-.87,1.91,1.91,0,0,0-1.06.28,2.2,2.2,0,0,0-.71.77v3.83a2,2,0,0,0,.71.77,2,2,0,0,0,1.08.27,1.77,1.77,0,0,0,1.55-.75,3.29,3.29,0,0,0,.53-1.93Z"/><path d="M295.31,144.66c0-.24-.08-.45-.11-.64a4.89,4.89,0,0,1-.05-.55,3.47,3.47,0,0,1-1,1,2.71,2.71,0,0,1-1.39.38,2.6,2.6,0,0,1-1.89-.63,2.35,2.35,0,0,1-.65-1.75,2.06,2.06,0,0,1,.92-1.78,4.36,4.36,0,0,1,2.5-.64h1.56v-.78a1.46,1.46,0,0,0-.42-1.1,1.68,1.68,0,0,0-1.2-.41,1.78,1.78,0,0,0-1.14.35,1.06,1.06,0,0,0-.43.85h-1.37v0a1.89,1.89,0,0,1,.8-1.59,3.42,3.42,0,0,1,2.23-.71,3.31,3.31,0,0,1,2.17.68,2.46,2.46,0,0,1,.82,2v3.82a7.27,7.27,0,0,0,0,.82,4.15,4.15,0,0,0,.16.78Zm-2.39-1.06a2.55,2.55,0,0,0,1.41-.4,1.91,1.91,0,0,0,.82-.92V141h-1.62a2.05,2.05,0,0,0-1.39.44,1.31,1.31,0,0,0-.52,1,1.07,1.07,0,0,0,.33.84A1.37,1.37,0,0,0,292.92,143.6Z"/><path d="M302.44,138l-.74,0a1.65,1.65,0,0,0-1,.27,1.82,1.82,0,0,0-.61.77v5.66h-1.44v-7.93H300l.14,1.16a2.71,2.71,0,0,1,.83-1,1.94,1.94,0,0,1,1.14-.34l.31,0,.24.06Z"/><path d="M306.07,134.82v1.91h1.5v1.07h-1.5v4.81a1.1,1.1,0,0,0,.23.79.86.86,0,0,0,.62.22l.27,0a1.2,1.2,0,0,0,.26-.07l.2,1a1.34,1.34,0,0,1-.48.22,2.7,2.7,0,0,1-.62.08,1.88,1.88,0,0,1-1.4-.53,2.29,2.29,0,0,1-.52-1.67V137.8h-1.26v-1.07h1.26v-1.91Z"/><path d="M310.41,136.73l.1,1a2.76,2.76,0,0,1,1-.87,2.9,2.9,0,0,1,1.38-.31,2.46,2.46,0,0,1,1.36.36,2.24,2.24,0,0,1,.86,1.1,2.92,2.92,0,0,1,1-1.07,2.6,2.6,0,0,1,1.43-.39,2.35,2.35,0,0,1,1.91.83,3.79,3.79,0,0,1,.71,2.5v4.74h-1.45V139.9a2.59,2.59,0,0,0-.4-1.65,1.46,1.46,0,0,0-1.2-.49,1.55,1.55,0,0,0-1.2.51,2.29,2.29,0,0,0-.54,1.3v5.09H313.9V139.9a2.6,2.6,0,0,0-.41-1.62,1.42,1.42,0,0,0-1.19-.52,2,2,0,0,0-1.09.27,1.73,1.73,0,0,0-.65.76v5.87h-1.44v-7.93Z"/><path d="M325.51,144.81a3.34,3.34,0,0,1-2.66-1.09,4.18,4.18,0,0,1-1-2.87v-.32a4.12,4.12,0,0,1,1-2.83,3.11,3.11,0,0,1,2.41-1.11,2.9,2.9,0,0,1,2.38,1,4.08,4.08,0,0,1,.79,2.63V141h-5.07l0,0a3.3,3.3,0,0,0,.53,1.94,1.83,1.83,0,0,0,1.61.74,3.88,3.88,0,0,0,1.29-.2,3,3,0,0,0,.95-.58l.56.94a3.57,3.57,0,0,1-1.12.69A4.44,4.44,0,0,1,325.51,144.81Zm-.22-7.09a1.58,1.58,0,0,0-1.25.58,2.75,2.75,0,0,0-.61,1.49l0,0H327v-.12a2.3,2.3,0,0,0-.42-1.42A1.54,1.54,0,0,0,325.29,137.72Z"/><path d="M331.37,136.73l.1,1.18a3,3,0,0,1,1-1,2.63,2.63,0,0,1,1.35-.34,2.59,2.59,0,0,1,2,.75,3.27,3.27,0,0,1,.7,2.31v5h-1.44v-5a2.16,2.16,0,0,0-.41-1.48,1.65,1.65,0,0,0-1.27-.44,2.22,2.22,0,0,0-1.13.27,1.82,1.82,0,0,0-.73.75v5.88h-1.45v-7.93Z"/><path d="M340.61,134.82v1.91h1.51v1.07h-1.51v4.81a1.05,1.05,0,0,0,.24.79.82.82,0,0,0,.61.22l.27,0a1.2,1.2,0,0,0,.26-.07l.2,1a1.34,1.34,0,0,1-.48.22,2.7,2.7,0,0,1-.62.08,1.88,1.88,0,0,1-1.4-.53,2.29,2.29,0,0,1-.52-1.67V137.8h-1.26v-1.07h1.26v-1.91Z"/><path d="M263.85,162.66c-.05-.24-.08-.45-.11-.64a4.89,4.89,0,0,1-.05-.55,3.47,3.47,0,0,1-1.05,1,2.74,2.74,0,0,1-1.39.38,2.6,2.6,0,0,1-1.89-.63,2.35,2.35,0,0,1-.65-1.75,2.06,2.06,0,0,1,.92-1.78,4.34,4.34,0,0,1,2.5-.64h1.56v-.78a1.46,1.46,0,0,0-.42-1.1,1.69,1.69,0,0,0-1.2-.41,1.78,1.78,0,0,0-1.14.35,1.06,1.06,0,0,0-.43.85h-1.37l0,0a1.93,1.93,0,0,1,.81-1.59,3.42,3.42,0,0,1,2.23-.71,3.29,3.29,0,0,1,2.16.68,2.43,2.43,0,0,1,.82,2v3.82a7.22,7.22,0,0,0,.05.82,4.15,4.15,0,0,0,.16.78Zm-2.39-1.06a2.55,2.55,0,0,0,1.41-.4,2,2,0,0,0,.82-.92V159h-1.62a2.05,2.05,0,0,0-1.39.44,1.32,1.32,0,0,0-.53,1,1.11,1.11,0,0,0,.33.84A1.42,1.42,0,0,0,261.46,161.6Z"/><path d="M274,159a4.34,4.34,0,0,1-.82,2.76,2.7,2.7,0,0,1-2.26,1.05,3.23,3.23,0,0,1-1.29-.24,2.5,2.5,0,0,1-.94-.74v3.87h-1.44v-11h1.11l.22,1a2.6,2.6,0,0,1,1-.87,2.89,2.89,0,0,1,1.35-.3,2.66,2.66,0,0,1,2.29,1.16,5.33,5.33,0,0,1,.81,3.09Zm-1.44-.16a4.18,4.18,0,0,0-.53-2.21,1.73,1.73,0,0,0-1.56-.87,1.94,1.94,0,0,0-1.07.28,2.2,2.2,0,0,0-.71.77v3.83a2,2,0,0,0,.71.77,2.06,2.06,0,0,0,1.08.27,1.77,1.77,0,0,0,1.55-.75,3.29,3.29,0,0,0,.53-1.93Z"/><path d="M282.51,159a4.4,4.4,0,0,1-.82,2.76,2.72,2.72,0,0,1-2.27,1.05,3.21,3.21,0,0,1-1.28-.24,2.5,2.5,0,0,1-.94-.74v3.87h-1.45v-11h1.11l.23,1a2.65,2.65,0,0,1,1-.87,2.92,2.92,0,0,1,1.35-.3,2.65,2.65,0,0,1,2.29,1.16,5.26,5.26,0,0,1,.82,3.09Zm-1.45-.16a4.09,4.09,0,0,0-.53-2.21,1.71,1.71,0,0,0-1.56-.87,1.88,1.88,0,0,0-1.06.28,2.2,2.2,0,0,0-.71.77v3.83a2,2,0,0,0,.71.77,2,2,0,0,0,1.07.27,1.78,1.78,0,0,0,1.56-.75,3.28,3.28,0,0,0,.52-1.93Z"/><path d="M288,156l-.74,0a1.65,1.65,0,0,0-1,.27,1.82,1.82,0,0,0-.61.77v5.66h-1.44v-7.93h1.29l.14,1.16a2.71,2.71,0,0,1,.83-1,1.94,1.94,0,0,1,1.14-.34l.31,0,.24.06Z"/><path d="M289.05,158.62a4.37,4.37,0,0,1,.95-2.89,3.53,3.53,0,0,1,5.19,0,4.34,4.34,0,0,1,1,2.9v.16a4.32,4.32,0,0,1-1,2.9,3.19,3.19,0,0,1-2.59,1.13,3.25,3.25,0,0,1-2.6-1.13,4.36,4.36,0,0,1-.95-2.9Zm1.44.16a3.78,3.78,0,0,0,.53,2.08,1.92,1.92,0,0,0,3.15,0,3.78,3.78,0,0,0,.53-2.08v-.16a3.71,3.71,0,0,0-.54-2.07,1.9,1.9,0,0,0-3.14,0,3.79,3.79,0,0,0-.53,2.07Z"/><path d="M300.45,157.65l1.68-2.92h1.68l-2.57,3.92,2.65,4h-1.66l-1.76-3-1.75,3h-1.67l2.64-4-2.57-3.92h1.66Z"/><path d="M306.88,162.66h-1.45v-1.48h1.45Z"/><path d="M319.39,154.72a2.37,2.37,0,0,1-.47,1.47,2.82,2.82,0,0,1-1.24.95,3.17,3.17,0,0,1,1.46,1,2.52,2.52,0,0,1,.55,1.59,2.82,2.82,0,0,1-1,2.28,3.69,3.69,0,0,1-2.44.8,4,4,0,0,1-2.56-.8,2.78,2.78,0,0,1-1-2.28,2.47,2.47,0,0,1,.56-1.59,3.23,3.23,0,0,1,1.51-1,2.89,2.89,0,0,1-1.29-.94,2.38,2.38,0,0,1-.48-1.47,2.61,2.61,0,0,1,.9-2.14,3.58,3.58,0,0,1,2.34-.74,3.38,3.38,0,0,1,2.24.74A2.67,2.67,0,0,1,319.39,154.72Zm-1.14,5a2,2,0,0,0-.57-1.44,1.92,1.92,0,0,0-1.4-.56,2.09,2.09,0,0,0-1.5.56,1.89,1.89,0,0,0-.59,1.44,1.86,1.86,0,0,0,.58,1.44,2.17,2.17,0,0,0,1.52.54,1.93,1.93,0,0,0,1.4-.54A2,2,0,0,0,318.25,159.7Zm-.3-5a1.78,1.78,0,0,0-.48-1.27,1.59,1.59,0,0,0-1.19-.49,1.84,1.84,0,0,0-1.29.47,1.7,1.7,0,0,0-.5,1.29,1.79,1.79,0,0,0,.51,1.32,1.74,1.74,0,0,0,1.29.5,1.55,1.55,0,0,0,1.19-.5A1.89,1.89,0,0,0,318,154.74Z"/><path d="M328.06,158.89a4.25,4.25,0,0,1-.92,2.87,3.12,3.12,0,0,1-2.47,1.05,3.15,3.15,0,0,1-2.48-1.05,4.25,4.25,0,0,1-.92-2.87v-3.13a4.19,4.19,0,0,1,.92-2.86,3.07,3.07,0,0,1,2.46-1.06,3.12,3.12,0,0,1,2.48,1.06,4.19,4.19,0,0,1,.93,2.86Zm-1.45-3.43a2.94,2.94,0,0,0-.51-1.82,1.72,1.72,0,0,0-1.45-.66,1.68,1.68,0,0,0-1.43.66,2.94,2.94,0,0,0-.51,1.82v3.73a2.89,2.89,0,0,0,.52,1.82,1.88,1.88,0,0,0,2.88,0,2.92,2.92,0,0,0,.5-1.82Z"/><path d="M336.5,158.89a4.19,4.19,0,0,1-.92,2.87,3.43,3.43,0,0,1-4.94,0,4.2,4.2,0,0,1-.93-2.87v-3.13a4.24,4.24,0,0,1,.92-2.86,3.09,3.09,0,0,1,2.47-1.06,3.13,3.13,0,0,1,2.48,1.06,4.24,4.24,0,0,1,.92,2.86Zm-1.44-3.43a2.94,2.94,0,0,0-.51-1.82,1.73,1.73,0,0,0-1.45-.66,1.71,1.71,0,0,0-1.44.66,2.93,2.93,0,0,0-.5,1.82v3.73a3,3,0,0,0,.51,1.82,1.72,1.72,0,0,0,1.44.67,1.67,1.67,0,0,0,1.44-.67,2.92,2.92,0,0,0,.51-1.82Z"/><path d="M342.71,162.66V155.8h-1.24v-1.07h1.24v-1a2.72,2.72,0,0,1,.66-2,2.44,2.44,0,0,1,1.85-.69,2.89,2.89,0,0,1,.5,0l.56.11-.18,1.1-.31-.05a2.61,2.61,0,0,0-.4,0,1.12,1.12,0,0,0-.93.37,1.7,1.7,0,0,0-.31,1.1v1h1.43v1.07h-1.43v6.86Z"/><path d="M349.05,152.82v1.91h1.5v1.07h-1.5v4.81a1.1,1.1,0,0,0,.23.79.83.83,0,0,0,.61.22l.28,0a1.38,1.38,0,0,0,.26-.07l.19,1a1.21,1.21,0,0,1-.47.22,2.72,2.72,0,0,1-.63.08,1.86,1.86,0,0,1-1.39-.53,2.29,2.29,0,0,1-.52-1.67V155.8h-1.26v-1.07h1.26v-1.91Z"/><path d="M355.72,157.66h-4.17v-.81l1.92-2.18a5.64,5.64,0,0,0,.62-.86,1.46,1.46,0,0,0,.18-.65,1,1,0,0,0-.19-.61.71.71,0,0,0-.58-.23.73.73,0,0,0-.63.29,1.21,1.21,0,0,0-.22.75h-1.21v0a1.85,1.85,0,0,1,.54-1.4,2.07,2.07,0,0,1,1.53-.57,2.11,2.11,0,0,1,1.48.48,1.7,1.7,0,0,1,.53,1.32,1.83,1.83,0,0,1-.29,1,11.6,11.6,0,0,1-1,1.27l-1,1.23v0h2.54Z"/><path d="M232.65,61.76H214.08V58.18h18.57Zm0,9.24H214.08V67.44h18.57Z"/><path d="M120.15,73a40.61,40.61,0,0,0-5.74.41,2.07,2.07,0,0,0-1.79,2V81.6l-4.8,3.85a.49.49,0,0,0-.08.7.5.5,0,0,0,.4.18.66.66,0,0,0,.32-.1l4.18-3.37V94.38a2.52,2.52,0,0,0,2.15,2.48l1,.14a31.33,31.33,0,0,0,8.65,0l1-.14a2.52,2.52,0,0,0,2.15-2.48V82.88l4.18,3.37a.47.47,0,0,0,.32.1.55.55,0,0,0,.41-.18.49.49,0,0,0-.08-.7l-4.83-3.87V75.45a2.07,2.07,0,0,0-1.79-2A40.57,40.57,0,0,0,120.15,73Zm0,1c1.34,0,2.7.08,4,.2l.56,5.15a.48.48,0,0,0,.5.44h.06a.5.5,0,0,0,.44-.56l-.54-4.93a5,5,0,0,1,.54.08,1.08,1.08,0,0,1,.93,1.06V94.38a1.51,1.51,0,0,1-1.29,1.48l-1,.14A29.2,29.2,0,0,1,116,96l-1-.14a1.5,1.5,0,0,1-1.29-1.48V75.45h0a1.09,1.09,0,0,1,.92-1.06l.56-.08-.58,4.93a.5.5,0,0,0,.44.56h.06a.5.5,0,0,0,.5-.44l.6-5.15A38.59,38.59,0,0,1,120.16,74Zm0,5.83a15.19,15.19,0,0,0-5.29,1,.5.5,0,0,0-.32.46V92.92a1.51,1.51,0,0,0,1.5,1.5h8.21a1.51,1.51,0,0,0,1.5-1.5V81.3a.48.48,0,0,0-.32-.46A15.09,15.09,0,0,0,120.16,79.84Zm0,1a13.9,13.9,0,0,1,4.6.82V92.92a.5.5,0,0,1-.5.5h-8.21a.5.5,0,0,1-.5-.5V81.66A13.91,13.91,0,0,1,120.16,80.84Z"/><path d="M340.81,103.5H266.52a1.85,1.85,0,0,1-1.85-1.86V73.79a1.86,1.86,0,1,1,3.71,0v26H339V29.22H268.38v26a1.86,1.86,0,0,1-3.71,0V27.36a1.85,1.85,0,0,1,1.85-1.86h74.29a1.86,1.86,0,0,1,1.86,1.86v74.28A1.86,1.86,0,0,1,340.81,103.5Z"/><path d="M340.81,62.64H303.67a1.85,1.85,0,0,1-1.86-1.85V45.93a1.86,1.86,0,1,1,3.71,0v13h35.29a1.86,1.86,0,1,1,0,3.71Z"/><path d="M303.67,38.5a1.86,1.86,0,0,1-1.86-1.86V27.36a1.86,1.86,0,1,1,3.71,0v9.28A1.85,1.85,0,0,1,303.67,38.5Z"/><path d="M297.17,103.5H266.52a1.85,1.85,0,0,1-1.85-1.86V79.36a1.85,1.85,0,0,1,1.85-1.86h30.65A1.85,1.85,0,0,1,299,79.36v3.71a1.86,1.86,0,1,1-3.71,0V81.22H268.38V99.79h26.93V92.36a1.86,1.86,0,1,1,3.71,0v9.28A1.85,1.85,0,0,1,297.17,103.5Z"/><path d="M340.81,103.5H311.1a1.86,1.86,0,0,1-1.86-1.86V92.36a1.86,1.86,0,1,1,3.71,0v7.43h26V62.64H313V83.07a1.86,1.86,0,1,1-3.71,0V60.79a1.86,1.86,0,0,1,1.86-1.86h29.71a1.86,1.86,0,0,1,1.86,1.86v40.85A1.86,1.86,0,0,1,340.81,103.5Z"/><path d="M159.65,73a40.61,40.61,0,0,0-5.74.41,2.07,2.07,0,0,0-1.79,2V81.6l-4.8,3.85a.49.49,0,0,0-.08.7.5.5,0,0,0,.4.18.66.66,0,0,0,.32-.1l4.18-3.37V94.38a2.52,2.52,0,0,0,2.15,2.48l1,.14A31.33,31.33,0,0,0,164,97l1-.14a2.52,2.52,0,0,0,2.15-2.48V82.88l4.18,3.37a.47.47,0,0,0,.32.1.55.55,0,0,0,.41-.18.49.49,0,0,0-.08-.7l-4.83-3.87V75.45a2.07,2.07,0,0,0-1.79-2A40.57,40.57,0,0,0,159.65,73Zm0,1c1.34,0,2.7.08,4,.2l.56,5.15a.48.48,0,0,0,.5.44h.06a.5.5,0,0,0,.44-.56l-.54-4.93a5,5,0,0,1,.54.08,1.08,1.08,0,0,1,.93,1.06V94.38a1.51,1.51,0,0,1-1.29,1.48l-1,.14a29.2,29.2,0,0,1-8.35,0l-1-.14a1.5,1.5,0,0,1-1.29-1.48V75.45h0a1.09,1.09,0,0,1,.92-1.06l.56-.08-.58,4.93a.5.5,0,0,0,.44.56h.06a.5.5,0,0,0,.5-.44l.6-5.15A38.59,38.59,0,0,1,159.66,74Zm0,5.83a15.19,15.19,0,0,0-5.29,1,.5.5,0,0,0-.32.46V92.92a1.51,1.51,0,0,0,1.5,1.5h8.21a1.51,1.51,0,0,0,1.5-1.5V81.3a.48.48,0,0,0-.32-.46A15.09,15.09,0,0,0,159.66,79.84Zm0,1a13.9,13.9,0,0,1,4.6.82V92.92a.5.5,0,0,1-.5.5h-8.21a.5.5,0,0,1-.5-.5V81.66A13.91,13.91,0,0,1,159.66,80.84Z"/><path d="M120.13,33a40.72,40.72,0,0,0-5.74.41,2.07,2.07,0,0,0-1.78,2V41.6l-4.81,3.85a.49.49,0,0,0-.08.7.5.5,0,0,0,.4.18.66.66,0,0,0,.32-.1l4.19-3.37V54.38a2.52,2.52,0,0,0,2.14,2.48l1,.14a31.29,31.29,0,0,0,4.33.3,31.62,31.62,0,0,0,4.33-.3l1-.14a2.52,2.52,0,0,0,2.14-2.48V42.88l4.19,3.37a.47.47,0,0,0,.32.1.53.53,0,0,0,.4-.18.49.49,0,0,0-.08-.7l-4.83-3.87V35.45a2.07,2.07,0,0,0-1.78-2A40.82,40.82,0,0,0,120.13,33Zm0,1c1.34,0,2.7.08,4,.2l.56,5.15a.48.48,0,0,0,.5.44h.06a.5.5,0,0,0,.44-.56l-.54-4.93a5,5,0,0,1,.54.08,1.08,1.08,0,0,1,.92,1.06V54.38a1.51,1.51,0,0,1-1.28,1.48l-1,.14A29.27,29.27,0,0,1,116,56l-1-.14a1.49,1.49,0,0,1-1.28-1.48V35.45h0a1.09,1.09,0,0,1,.92-1.06l.56-.08-.58,4.93a.5.5,0,0,0,.44.56H115a.5.5,0,0,0,.5-.44l.6-5.15A38.73,38.73,0,0,1,120.14,34Zm0,5.83a15.23,15.23,0,0,0-5.29,1,.5.5,0,0,0-.32.46V52.92a1.51,1.51,0,0,0,1.5,1.5h8.22a1.51,1.51,0,0,0,1.5-1.5V41.3a.48.48,0,0,0-.32-.46A15.19,15.19,0,0,0,120.14,39.84Zm0,1a14,14,0,0,1,4.61.82V52.92a.5.5,0,0,1-.5.5H116a.5.5,0,0,1-.5-.5V41.66A14,14,0,0,1,120.14,40.84Z"/><path d="M159.52,33a40.82,40.82,0,0,0-5.74.41,2.07,2.07,0,0,0-1.78,2V41.6l-4.81,3.85a.49.49,0,0,0-.08.7.5.5,0,0,0,.4.18.66.66,0,0,0,.32-.1L152,42.86V54.38a2.52,2.52,0,0,0,2.14,2.48l1.05.14a31.33,31.33,0,0,0,8.65,0l1-.14A2.52,2.52,0,0,0,167,54.38V42.88l4.19,3.37a.47.47,0,0,0,.32.1.53.53,0,0,0,.4-.18.49.49,0,0,0-.08-.7L167,41.6V35.45a2.07,2.07,0,0,0-1.78-2A40.61,40.61,0,0,0,159.52,33Zm0,1c1.34,0,2.71.08,4.05.2l.56,5.15a.48.48,0,0,0,.5.44h.06a.5.5,0,0,0,.44-.56l-.54-4.93a5,5,0,0,1,.54.08,1.08,1.08,0,0,1,.92,1.06V54.38a1.51,1.51,0,0,1-1.28,1.48l-1,.14a29.2,29.2,0,0,1-8.35,0l-1-.14a1.49,1.49,0,0,1-1.28-1.48V35.45h0a1.09,1.09,0,0,1,.92-1.06l.56-.08-.58,4.93a.5.5,0,0,0,.44.56h.06a.5.5,0,0,0,.51-.44l.6-5.15A38.54,38.54,0,0,1,159.53,34Zm0,5.83a15.27,15.27,0,0,0-5.29,1,.5.5,0,0,0-.32.46V52.92a1.51,1.51,0,0,0,1.51,1.5h8.21a1.51,1.51,0,0,0,1.5-1.5V41.3a.48.48,0,0,0-.32-.46A15.1,15.1,0,0,0,159.53,39.84Zm0,1a13.91,13.91,0,0,1,4.61.82V52.92a.5.5,0,0,1-.5.5h-8.21a.5.5,0,0,1-.5-.5V41.66A13.9,13.9,0,0,1,159.53,40.84Z"/><polyline class="cls-1" points="140.24 104.32 140.24 104.33 140.22 104.33"/><line class="cls-2" x1="135.86" y1="104.33" x2="102.93" y2="104.33"/><polyline class="cls-1" points="100.75 104.33 100.74 104.33 100.74 104.32"/><line class="cls-3" x1="100.74" y1="99.9" x2="100.74" y2="66.55"/><polyline class="cls-1" points="100.74 64.35 100.74 64.33 100.75 64.33"/><line class="cls-2" x1="105.11" y1="64.33" x2="138.04" y2="64.33"/><polyline class="cls-1" points="140.22 64.33 140.24 64.33 140.24 64.35"/><line class="cls-3" x1="140.24" y1="68.76" x2="140.24" y2="102.11"/><polyline class="cls-1" points="179.74 104.32 179.74 104.33 179.72 104.33"/><line class="cls-2" x1="175.36" y1="104.33" x2="142.43" y2="104.33"/><polyline class="cls-1" points="140.25 104.33 140.24 104.33 140.24 104.32"/><line class="cls-3" x1="140.24" y1="99.9" x2="140.24" y2="66.55"/><polyline class="cls-1" points="140.24 64.35 140.24 64.33 140.25 64.33"/><line class="cls-2" x1="144.61" y1="64.33" x2="177.54" y2="64.33"/><polyline class="cls-1" points="179.72 64.33 179.74 64.33 179.74 64.35"/><line class="cls-3" x1="179.74" y1="68.76" x2="179.74" y2="102.11"/><polyline class="cls-1" points="140.22 64.32 140.22 64.33 140.21 64.33"/><line class="cls-2" x1="135.85" y1="64.33" x2="102.92" y2="64.33"/><polyline class="cls-1" points="100.74 64.33 100.72 64.33 100.72 64.32"/><line class="cls-3" x1="100.72" y1="59.9" x2="100.72" y2="26.55"/><polyline class="cls-1" points="100.72 24.35 100.72 24.33 100.74 24.33"/><line class="cls-2" x1="105.1" y1="24.33" x2="138.03" y2="24.33"/><polyline class="cls-1" points="140.21 24.33 140.22 24.33 140.22 24.35"/><line class="cls-3" x1="140.22" y1="28.76" x2="140.22" y2="62.11"/><polyline class="cls-1" points="179.62 64.32 179.62 64.33 179.6 64.33"/><line class="cls-2" x1="175.24" y1="64.33" x2="142.31" y2="64.33"/><polyline class="cls-1" points="140.13 64.33 140.12 64.33 140.12 64.32"/><line class="cls-3" x1="140.12" y1="59.9" x2="140.12" y2="26.55"/><polyline class="cls-1" points="140.12 24.35 140.12 24.33 140.13 24.33"/><line class="cls-2" x1="144.49" y1="24.33" x2="177.42" y2="24.33"/><polyline class="cls-1" points="179.6 24.33 179.62 24.33 179.62 24.35"/><line class="cls-3" x1="179.62" y1="28.76" x2="179.62" y2="62.11"/></svg>