<svg xmlns="http://www.w3.org/2000/svg" width="24" height="24" viewBox="0 0 24 24"><title>icons</title><g id="Layer_2" data-name="Layer 2"><path d="M12,10.78c.56,0,1,.33,1,.73s-.47.73-1,.73a1.06,1.06,0,0,1-1-.55.81.81,0,0,0-1.52.58,2.53,2.53,0,0,0,1.71,1.48v.58a.81.81,0,0,0,1.62,0v-.58a2.41,2.41,0,0,0,1.85-2.24A2.52,2.52,0,0,0,12,9.16c-.56,0-1-.34-1-.73s.47-.73,1-.73a1,1,0,0,1,1,.61.82.82,0,0,0,1.58-.41,2.47,2.47,0,0,0-1.78-1.71V5.61a.81.81,0,1,0-1.62,0v.58A2.4,2.4,0,0,0,9.34,8.43,2.52,2.52,0,0,0,12,10.78Z"/><path d="M20.66,10.44h0l-.48-.56-.72-2.76a3.1,3.1,0,0,0-3-2.33H15.1v0a1,1,0,0,0-.92,1,1,1,0,0,0,.92,1v0h1.36a1.11,1.11,0,0,1,1.08.84l.77,3a1,1,0,0,0,.21.4l.63.74a1,1,0,0,1,.24.65l0,6.08-2.68,0V17.21a1,1,0,0,0-1-1H8.32a1,1,0,0,0-1,1l0,1.26-2.68,0v-6a1,1,0,0,1,.31-.74h0l.68-.64a1.08,1.08,0,0,0,.28-.47l.76-3a1.12,1.12,0,0,1,1.09-.84h1.1a1,1,0,0,0,0-2H7.75a3.11,3.11,0,0,0-3,2.33L4,9.83l-.48.45,0,.05a3,3,0,0,0-.88,2.13v6a2,2,0,0,0,2,2H7.3a2,2,0,0,0,2-2v-.23H14.7v.23a2,2,0,0,0,2,2h2.65a2,2,0,0,0,2-2V12.39A3,3,0,0,0,20.66,10.44Z"/></g></svg>