<svg xmlns="http://www.w3.org/2000/svg" width="24" height="24" viewBox="0 0 24 24"><title>icons</title><g id="Layer_2" data-name="Layer 2"><path d="M3,11.1a1,1,0,0,0-.58.9,1,1,0,0,0,.59.91,1,1,0,0,0,1.29-.45,1,1,0,0,0,0-.88A1,1,0,0,0,3,11.1Z"/><path d="M6.71,12.54A1,1,0,0,0,5.39,13a1,1,0,0,0,.44,1.34,1,1,0,0,0,.46.11,1,1,0,0,0,.45-1.87Z"/><path d="M9.58,14h0a1,1,0,0,0-1.31.48,1,1,0,0,0,.49,1.33,1,1,0,0,0,.42.09A1,1,0,0,0,9.58,14Z"/><path d="M12.3,15.35a1,1,0,0,0-1.18.47,1,1,0,0,0,.41,1.35.93.93,0,0,0,.47.11,1,1,0,0,0,.48-.12,1,1,0,0,0,.4-1.34A1,1,0,0,0,12.3,15.35Z"/><path d="M14.42,14l0,0A1,1,0,0,0,14,15.32a1,1,0,0,0,.89.53,1,1,0,0,0,.46-.11A1,1,0,0,0,14.42,14Z"/><path d="M17.31,12.53h0a1,1,0,0,0-.45,1.32,1,1,0,0,0,.9.56,1.13,1.13,0,0,0,.44-.1,1,1,0,0,0-.86-1.79Z"/><path d="M21,11.09a1,1,0,0,0-1.29.45A1,1,0,0,0,20.59,13a1,1,0,0,0,1-1A1,1,0,0,0,21,11.09Z"/><path d="M18.17,9.68a1,1,0,1,0-.91,1.76l0,0A1,1,0,0,0,18.61,11,1,1,0,0,0,18.17,9.68Z"/><path d="M16.45,9.4a1,1,0,0,0-.56-.89l-3.46-1.7h0a.93.93,0,0,0-.4-.09h0a.85.85,0,0,0-.38.09h0L5.65,9.75a1,1,0,0,0-.55.89,1,1,0,0,0,.56.89l3.45,1.7a1,1,0,0,0,.88,0l5.91-2.94A1,1,0,0,0,16.45,9.4Z"/></g></svg>