<svg xmlns="http://www.w3.org/2000/svg" viewBox="0 0 24 24"><title>icons</title><path d="M20.66,10.44l-.48-.56-.72-2.76a3.1,3.1,0,0,0-3-2.33H7.75a3.11,3.11,0,0,0-3,2.33L4,9.83l-.48.45,0,.05a3,3,0,0,0-.88,2.13v6a2,2,0,0,0,2,2H7.3a2,2,0,0,0,2-2v-.23H14.7v.23a2,2,0,0,0,2,2h2.65a2,2,0,0,0,2-2V12.39a3,3,0,0,0-.72-2Zm-1.3,8-2.68,0V17.21a1,1,0,0,0-1-1H8.32a1,1,0,0,0-1,1l0,1.26-2.68,0v-6a1,1,0,0,1,.31-.74h0l.68-.64a1.08,1.08,0,0,0,.28-.47l.76-3a1.12,1.12,0,0,1,1.09-.84h8.71a1.11,1.11,0,0,1,1.08.84l.77,3a1,1,0,0,0,.21.4l.63.74a1,1,0,0,1,.24.65Z"/></svg>