<svg id="Layer_1" data-name="Layer 1" xmlns="http://www.w3.org/2000/svg" width="84" height="84" viewBox="0 0 84 84"><defs><style>.cls-1{fill:#00a6b3;}.cls-2{fill:#fff;}</style></defs><title>betaSticker-01</title><path class="cls-1" d="M42,0,36.09,4.67,29,2.06,24.84,8.32,17.31,8l-2,7.25L8,17.31l.3,7.53L2.06,29l2.61,7.07L0,42l4.67,5.91L2.06,55l6.26,4.18L8,66.69l7.25,2,2,7.25,7.53-.3L29,81.94l7.07-2.61L42,84l5.91-4.67L55,81.94l4.18-6.26,7.53.3,2-7.25,7.25-2-.3-7.53L81.94,55l-2.61-7.07L84,42l-4.67-5.91L81.94,29l-6.26-4.18.3-7.53-7.25-2L66.69,8l-7.53.3L55,2.06,47.91,4.67Z"/><path class="cls-2" d="M32.58,49.83A9.17,9.17,0,0,1,34,55.28a5.06,5.06,0,0,1-2.76,3.92,4.26,4.26,0,0,1-2.11.6A4.63,4.63,0,0,1,27,59.26l.64,1.66-3.54,2L13.36,44.24l4.06-2.33,4,7a4.61,4.61,0,0,1,.62-1.84,3.81,3.81,0,0,1,1.42-1.33,5,5,0,0,1,4.85-.35,9.8,9.8,0,0,1,4.1,4.19ZM28.39,51.9a7.59,7.59,0,0,0-2-2.43,1.84,1.84,0,0,0-2.15,0,2.84,2.84,0,0,0-1,.9,2.1,2.1,0,0,0-.33,1.14l3.14,5.46a2.09,2.09,0,0,0,1.11.18,3.35,3.35,0,0,0,1.26-.46,1.85,1.85,0,0,0,1.13-1.76,6.81,6.81,0,0,0-1-2.74Z"/><path class="cls-2" d="M43.84,52a7,7,0,0,1-5.65.87,7.36,7.36,0,0,1-4.28-3.56l-.26-.46a8.39,8.39,0,0,1-1.21-5.75,6.5,6.5,0,0,1,3.5-4.49,6.05,6.05,0,0,1,5-.77,7,7,0,0,1,3.93,3.48l1.22,2.12-7.44,4.28,0,.08A2.88,2.88,0,0,0,40.34,49a3.05,3.05,0,0,0,2.26-.46,9.24,9.24,0,0,0,1.83-1.31,13.91,13.91,0,0,0,1.42-1.63l2.39,1.92a8.83,8.83,0,0,1-1.66,2.33A12.33,12.33,0,0,1,43.84,52ZM37.73,41.69a1.92,1.92,0,0,0-1.08,1.44,3.55,3.55,0,0,0,.43,2l.06,0,3.5-2-.18-.32a3.06,3.06,0,0,0-1.23-1.32A1.58,1.58,0,0,0,37.73,41.69Z"/><path class="cls-2" d="M46.11,28.75,48,32,50,30.79l1.61,2.81-2.05,1.18L53,40.73a1.66,1.66,0,0,0,.86.84,1.14,1.14,0,0,0,.94-.13,3.69,3.69,0,0,0,.48-.31,4,4,0,0,0,.42-.37l2,2.84a11.36,11.36,0,0,1-1,.86,10.15,10.15,0,0,1-1.13.73,4.63,4.63,0,0,1-3.65.68,5.41,5.41,0,0,1-3-2.78l-3.44-6-1.81,1L42.1,35.35l1.81-1-1.86-3.23Z"/><path class="cls-2" d="M66.94,38.32a6.23,6.23,0,0,1-.92-.7,9.87,9.87,0,0,1-.87-.94,5.62,5.62,0,0,1-.35,2.4,3.6,3.6,0,0,1-1.67,1.78,5.14,5.14,0,0,1-3.77.77,4.26,4.26,0,0,1-2.78-2.2,4,4,0,0,1-.26-3.82A8.63,8.63,0,0,1,60.11,32l1.67-1-.53-.93a2.11,2.11,0,0,0-1.13-1,1.79,1.79,0,0,0-1.46.25,1.66,1.66,0,0,0-.86.94A1.6,1.6,0,0,0,58,31.51L54.1,33.76,54,33.7a3.88,3.88,0,0,1-.23-3.82,7.66,7.66,0,0,1,3.45-3.57,7,7,0,0,1,4.59-1,4.8,4.8,0,0,1,3.47,2.58l2.82,4.89a11.68,11.68,0,0,0,1.27,1.82A11.49,11.49,0,0,0,71,36Zm-4.36-1a2.86,2.86,0,0,0,1.11-1.1A2.29,2.29,0,0,0,64,34.94l-1-1.71-1.63.94a2.11,2.11,0,0,0-1.13,1.27,1.92,1.92,0,0,0,.25,1.44,1.3,1.3,0,0,0,.89.67A1.6,1.6,0,0,0,62.58,37.33Z"/></svg>
