<svg xmlns="http://www.w3.org/2000/svg" width="450" height="180" viewBox="0 0 450 180"><defs><style>.cls-1,.cls-2{fill:none;}.cls-1,.cls-2,.cls-4{stroke:#000;}.cls-1,.cls-2,.cls-3,.cls-4{stroke-linecap:round;stroke-linejoin:round;}.cls-1{stroke-width:0.28px;}.cls-2,.cls-4{stroke-width:0.99px;}.cls-3{stroke:#fff;stroke-width:0.21px;}.cls-4{fill:#fff;}</style></defs><title>diagrams</title><g id="Layer_1" data-name="Layer 1"><path d="M52.73,132.82H51.28v-9.33l-2.32,0V122.4l3.77-.4Z"/><path d="M62.39,128.54v4.28H61V122.16H65a3.75,3.75,0,0,1,2.66.88,3.3,3.3,0,0,1,0,4.63,3.79,3.79,0,0,1-2.66.87Zm0-1.12H65a2.12,2.12,0,0,0,1.62-3.53,2.07,2.07,0,0,0-1.62-.6H62.39Z"/><path d="M73.47,133a3.33,3.33,0,0,1-2.66-1.1,4.17,4.17,0,0,1-1-2.87v-.32a4.08,4.08,0,0,1,1-2.82,3.06,3.06,0,0,1,2.4-1.12,2.89,2.89,0,0,1,2.39,1,4.06,4.06,0,0,1,.79,2.63v.76H71.35l0,0a3.26,3.26,0,0,0,.53,1.93,1.84,1.84,0,0,0,1.61.75,3.63,3.63,0,0,0,1.29-.21,2.81,2.81,0,0,0,.94-.58l.57.94a3.5,3.5,0,0,1-1.12.69A4.47,4.47,0,0,1,73.47,133Zm-.23-7.09a1.57,1.57,0,0,0-1.25.58,2.71,2.71,0,0,0-.6,1.49v0H75v-.12a2.27,2.27,0,0,0-.43-1.43A1.52,1.52,0,0,0,73.24,125.89Z"/><path d="M81.79,126.17l-.74,0a1.65,1.65,0,0,0-1,.27,1.72,1.72,0,0,0-.61.76v5.66H78V124.9h1.29l.14,1.15a2.59,2.59,0,0,1,.83-1,2,2,0,0,1,1.14-.35,1.55,1.55,0,0,1,.31,0l.24,0Z"/><path d="M87.9,130.69a1,1,0,0,0-.36-.78,3.55,3.55,0,0,0-1.38-.52,5.63,5.63,0,0,1-2.15-.85,1.69,1.69,0,0,1-.75-1.44,2.1,2.1,0,0,1,.83-1.66,3.63,3.63,0,0,1,4.31,0,2.08,2.08,0,0,1,.8,1.71v0H87.81a1.25,1.25,0,0,0-.45-.93,1.6,1.6,0,0,0-1.14-.41,1.64,1.64,0,0,0-1.14.34,1.07,1.07,0,0,0-.37.82.88.88,0,0,0,.32.73,3.68,3.68,0,0,0,1.35.46,5.74,5.74,0,0,1,2.21.88,1.74,1.74,0,0,1,.75,1.47,2.09,2.09,0,0,1-.85,1.72,3.54,3.54,0,0,1-2.23.67,3.5,3.5,0,0,1-2.39-.77,2.21,2.21,0,0,1-.83-1.8l0,0h1.37a1.33,1.33,0,0,0,.58,1.12,2.16,2.16,0,0,0,1.25.36,1.94,1.94,0,0,0,1.2-.33A1,1,0,0,0,87.9,130.69Z"/><path d="M90.8,128.79a4.38,4.38,0,0,1,1-2.9,3.52,3.52,0,0,1,5.19,0,4.32,4.32,0,0,1,1,2.9V129a4.32,4.32,0,0,1-1,2.9A3.22,3.22,0,0,1,94.35,133a3.25,3.25,0,0,1-2.6-1.13,4.4,4.4,0,0,1-1-2.9Zm1.44.16a3.8,3.8,0,0,0,.53,2.08,1.92,1.92,0,0,0,3.15,0,3.8,3.8,0,0,0,.53-2.08v-.16a3.74,3.74,0,0,0-.54-2.08,1.91,1.91,0,0,0-3.14,0,3.82,3.82,0,0,0-.53,2.08Z"/><path d="M101,124.9l.1,1.18a2.92,2.92,0,0,1,1-1,2.64,2.64,0,0,1,1.35-.35,2.59,2.59,0,0,1,2,.75,3.29,3.29,0,0,1,.7,2.32v5h-1.44v-5a2.14,2.14,0,0,0-.42-1.49,1.65,1.65,0,0,0-1.26-.44,2.22,2.22,0,0,0-1.13.27,2,2,0,0,0-.74.75v5.88H99.66V124.9Z"/><path d="M43.58,147.16a4.39,4.39,0,0,1-.82,2.77,2.71,2.71,0,0,1-2.26,1,3.22,3.22,0,0,1-1.29-.25,2.4,2.4,0,0,1-.94-.74v3.88H36.83v-11h1.1l.23,1a2.6,2.6,0,0,1,1-.87,2.85,2.85,0,0,1,1.34-.3,2.62,2.62,0,0,1,2.29,1.17,5.26,5.26,0,0,1,.82,3.09ZM42.14,147a4.24,4.24,0,0,0-.53-2.22,1.73,1.73,0,0,0-1.57-.87,2,2,0,0,0-1.06.28,2.14,2.14,0,0,0-.71.78v3.83a2,2,0,0,0,.71.76,1.93,1.93,0,0,0,1.08.28,1.77,1.77,0,0,0,1.55-.75,3.32,3.32,0,0,0,.53-1.94Z"/><path d="M48.63,151a3.36,3.36,0,0,1-2.66-1.1A4.16,4.16,0,0,1,45,147v-.32a4.07,4.07,0,0,1,1-2.82,3.08,3.08,0,0,1,2.41-1.12,2.87,2.87,0,0,1,2.38,1,4.06,4.06,0,0,1,.79,2.63v.76H46.52l0,0A3.26,3.26,0,0,0,47,149.1a1.84,1.84,0,0,0,1.61.75,3.63,3.63,0,0,0,1.29-.21,2.86,2.86,0,0,0,.95-.58l.56.94a3.39,3.39,0,0,1-1.12.69A4.4,4.4,0,0,1,48.63,151Zm-.22-7.09a1.55,1.55,0,0,0-1.25.58,2.8,2.8,0,0,0-.61,1.49l0,0h3.57v-.12a2.33,2.33,0,0,0-.42-1.43A1.53,1.53,0,0,0,48.41,143.89Z"/><path d="M57,144.17l-.74,0a1.65,1.65,0,0,0-1,.27,1.7,1.7,0,0,0-.6.76v5.66H53.2V142.9h1.29l.14,1.15a2.68,2.68,0,0,1,.83-1,2,2,0,0,1,1.14-.35,1.55,1.55,0,0,1,.31,0,1.11,1.11,0,0,1,.24.05Z"/><path d="M62.38,150.82V140.16h3.36a4.38,4.38,0,0,1,4.62,4.6v1.46a4.38,4.38,0,0,1-4.62,4.6Zm1.44-9.53v8.4h1.92a2.94,2.94,0,0,0,2.33-1,3.64,3.64,0,0,0,.85-2.5v-1.47a3.61,3.61,0,0,0-.85-2.48,3,3,0,0,0-2.33-1Z"/><path d="M74.37,147.94l.18,1h0l.19-1,1.58-5h1.16l1.59,5,.2,1.13h.05l.23-1.13,1.17-5h1.51L80,150.82H78.82L77.25,146l-.3-1.26h0L76.63,146l-1.54,4.82H73.92l-2.3-7.92h1.51Z"/><path d="M87,151a3.37,3.37,0,0,1-2.67-1.1,4.21,4.21,0,0,1-1-2.87v-.32a4.12,4.12,0,0,1,1-2.82,3.08,3.08,0,0,1,2.41-1.12,2.87,2.87,0,0,1,2.38,1,4.07,4.07,0,0,1,.8,2.63v.76H84.86l0,0a3.26,3.26,0,0,0,.52,1.93,1.85,1.85,0,0,0,1.62.75,3.62,3.62,0,0,0,1.28-.21,2.76,2.76,0,0,0,.95-.58l.56.94a3.29,3.29,0,0,1-1.12.69A4.38,4.38,0,0,1,87,151Zm-.23-7.09a1.57,1.57,0,0,0-1.25.58,2.71,2.71,0,0,0-.6,1.49v0h3.57v-.12a2.33,2.33,0,0,0-.42-1.43A1.52,1.52,0,0,0,86.75,143.89Z"/><path d="M93.11,150.82H91.66V139.4h1.45Z"/><path d="M96.89,150.82H95.44V139.4h1.45Z"/><path d="M100.66,140.87H99.22V139.4h1.44Zm0,9.95H99.22V142.9h1.44Z"/><path d="M104.17,142.9l.11,1.18a2.81,2.81,0,0,1,1-1,2.67,2.67,0,0,1,1.36-.35,2.59,2.59,0,0,1,2,.75,3.29,3.29,0,0,1,.7,2.32v5h-1.44v-5a2.19,2.19,0,0,0-.41-1.49,1.69,1.69,0,0,0-1.27-.44,2.22,2.22,0,0,0-1.13.27,2,2,0,0,0-.73.75v5.88h-1.45V142.9Z"/><path d="M111.15,147a5.26,5.26,0,0,1,.82-3.09,2.61,2.61,0,0,1,2.28-1.17,2.83,2.83,0,0,1,1.33.3,2.78,2.78,0,0,1,1,.88l.17-1h1.15v8a3,3,0,0,1-.88,2.34,3.69,3.69,0,0,1-2.56.81,5.07,5.07,0,0,1-1.23-.16,4.46,4.46,0,0,1-1.17-.42l.22-1.12a4.48,4.48,0,0,0,1,.35,5.25,5.25,0,0,0,1.16.14,2.1,2.1,0,0,0,1.54-.48,2,2,0,0,0,.48-1.46V150a2.57,2.57,0,0,1-.93.75,2.91,2.91,0,0,1-1.25.26,2.71,2.71,0,0,1-2.27-1,4.39,4.39,0,0,1-.82-2.77Zm1.45.15a3.33,3.33,0,0,0,.49,1.92,1.69,1.69,0,0,0,1.51.72,1.94,1.94,0,0,0,1.09-.29,2.23,2.23,0,0,0,.73-.84V145a2.26,2.26,0,0,0-.73-.8,1.85,1.85,0,0,0-1.07-.3,1.65,1.65,0,0,0-1.53.86,4.41,4.41,0,0,0-.49,2.23Z"/><path d="M199.43,132.82H198v-9.33l-2.32,0V122.4l3.77-.39Z"/><path d="M215.25,129.41l0,0a3.21,3.21,0,0,1-1.06,2.52,4,4,0,0,1-2.86,1,3.76,3.76,0,0,1-2.95-1.29,4.69,4.69,0,0,1-1.14-3.25v-1.89a4.73,4.73,0,0,1,1.14-3.26,3.76,3.76,0,0,1,2.95-1.28,4.14,4.14,0,0,1,2.88,1,3.18,3.18,0,0,1,1,2.55l0,0h-1.38a2.39,2.39,0,0,0-.66-1.77,2.55,2.55,0,0,0-1.86-.65,2.31,2.31,0,0,0-1.93,1,4,4,0,0,0-.71,2.42v1.91a4,4,0,0,0,.71,2.43,2.29,2.29,0,0,0,1.93,1,2.55,2.55,0,0,0,1.86-.65,2.39,2.39,0,0,0,.66-1.79Z"/><path d="M216.61,128.79a4.4,4.4,0,0,1,.95-2.9,3.52,3.52,0,0,1,5.19,0,4.32,4.32,0,0,1,1,2.9V129a4.32,4.32,0,0,1-1,2.9,3.53,3.53,0,0,1-5.18,0,4.34,4.34,0,0,1-1-2.9Zm1.44.16a3.8,3.8,0,0,0,.53,2.08,1.92,1.92,0,0,0,3.15,0,3.72,3.72,0,0,0,.53-2.08v-.16a3.85,3.85,0,0,0-.53-2.08,1.92,1.92,0,0,0-3.15,0,3.85,3.85,0,0,0-.53,2.08Z"/><path d="M230.5,131.65a2.58,2.58,0,0,1-1,1,2.61,2.61,0,0,1-1.35.35,2.55,2.55,0,0,1-2-.83,3.8,3.8,0,0,1-.73-2.58V124.9h1.45v4.69a3,3,0,0,0,.37,1.74,1.38,1.38,0,0,0,1.16.48,2.32,2.32,0,0,0,1.27-.32,1.88,1.88,0,0,0,.76-.88V124.9h1.45v7.92h-1.3Z"/><path d="M240.75,129.16a4.37,4.37,0,0,1-.82,2.77,2.71,2.71,0,0,1-2.26,1,3.22,3.22,0,0,1-1.29-.25,2.47,2.47,0,0,1-.94-.73v3.87H234v-11h1.1l.23,1a2.6,2.6,0,0,1,1-.87,2.86,2.86,0,0,1,1.35-.3,2.61,2.61,0,0,1,2.28,1.17,5.26,5.26,0,0,1,.82,3.09Zm-1.44-.15a4.24,4.24,0,0,0-.53-2.22,1.73,1.73,0,0,0-1.57-.87,1.91,1.91,0,0,0-1.06.29,2,2,0,0,0-.71.77v3.83a2,2,0,0,0,.71.76,1.93,1.93,0,0,0,1.08.28,1.77,1.77,0,0,0,1.55-.75,3.32,3.32,0,0,0,.53-1.94Z"/><path d="M244.08,132.82h-1.44V121.4h1.44Z"/><path d="M249.58,133a3.39,3.39,0,0,1-2.66-1.09A4.21,4.21,0,0,1,246,129v-.32a4.07,4.07,0,0,1,1-2.82,3.08,3.08,0,0,1,2.41-1.12,2.87,2.87,0,0,1,2.38,1,4.08,4.08,0,0,1,.8,2.63v.76h-5.07l0,0a3.26,3.26,0,0,0,.52,1.93,1.84,1.84,0,0,0,1.61.75,3.63,3.63,0,0,0,1.29-.21,3,3,0,0,0,.95-.57l.56.93a3.24,3.24,0,0,1-1.12.69A4.4,4.4,0,0,1,249.58,133Zm-.22-7.09a1.55,1.55,0,0,0-1.25.58,2.8,2.8,0,0,0-.61,1.49l0,0h3.57v-.12a2.33,2.33,0,0,0-.42-1.43A1.56,1.56,0,0,0,249.36,125.89Z"/><path d="M189.91,147.16a4.37,4.37,0,0,1-.82,2.77,2.7,2.7,0,0,1-2.26,1,3.22,3.22,0,0,1-1.29-.25,2.55,2.55,0,0,1-.94-.73v3.87h-1.44v-11h1.11l.22,1a2.6,2.6,0,0,1,1-.87,2.89,2.89,0,0,1,1.35-.3,2.64,2.64,0,0,1,2.29,1.17,5.33,5.33,0,0,1,.81,3.09Zm-1.44-.15a4.24,4.24,0,0,0-.53-2.22,1.73,1.73,0,0,0-1.56-.87,1.94,1.94,0,0,0-1.07.29,2,2,0,0,0-.71.77v3.83a2,2,0,0,0,.71.76,2,2,0,0,0,1.08.28,1.77,1.77,0,0,0,1.55-.75,3.32,3.32,0,0,0,.53-1.94Z"/><path d="M195,151a3.39,3.39,0,0,1-2.67-1.09,4.26,4.26,0,0,1-1-2.88v-.32a4.12,4.12,0,0,1,1-2.82,3.08,3.08,0,0,1,2.41-1.12,2.87,2.87,0,0,1,2.38,1,4.08,4.08,0,0,1,.8,2.63v.76h-5.07l0,0a3.19,3.19,0,0,0,.53,1.93,1.82,1.82,0,0,0,1.61.75,3.58,3.58,0,0,0,1.28-.21,2.9,2.9,0,0,0,.95-.57l.56.93a3.14,3.14,0,0,1-1.12.69A4.38,4.38,0,0,1,195,151Zm-.23-7.09a1.57,1.57,0,0,0-1.25.58,2.71,2.71,0,0,0-.6,1.49v0h3.58v-.12a2.34,2.34,0,0,0-.43-1.43A1.54,1.54,0,0,0,194.74,143.89Z"/><path d="M203.29,144.17l-.74,0a1.59,1.59,0,0,0-1.57,1v5.66h-1.44V142.9h1.29l.14,1.16a2.71,2.71,0,0,1,.83-1,2,2,0,0,1,1.14-.35,1.45,1.45,0,0,1,.3,0,1.11,1.11,0,0,1,.24.05Z"/><path d="M208.71,150.82V140.16h3.36a4.38,4.38,0,0,1,4.63,4.61v1.45a4.38,4.38,0,0,1-4.63,4.6Zm1.45-9.53v8.4h1.91a2.93,2.93,0,0,0,2.33-1,3.64,3.64,0,0,0,.85-2.5v-1.47a3.63,3.63,0,0,0-.85-2.48,2.93,2.93,0,0,0-2.33-1Z"/><path d="M220.7,147.94l.19,1h0l.19-1,1.58-5h1.16l1.59,5,.21,1.13h0l.23-1.13,1.18-5h1.5l-2.3,7.92h-1.16L223.58,146l-.3-1.26h0L223,146l-1.54,4.82h-1.16L218,142.9h1.5Z"/><path d="M233.31,151a3.36,3.36,0,0,1-2.66-1.09,4.21,4.21,0,0,1-1-2.88v-.32a4.08,4.08,0,0,1,1-2.82,3,3,0,0,1,2.4-1.12,2.89,2.89,0,0,1,2.39,1,4.08,4.08,0,0,1,.79,2.63v.76h-5.07l0,0a3.26,3.26,0,0,0,.53,1.93,1.84,1.84,0,0,0,1.61.75,3.54,3.54,0,0,0,1.28-.21,2.9,2.9,0,0,0,.95-.57l.57.93a3.33,3.33,0,0,1-1.12.69A4.47,4.47,0,0,1,233.31,151Zm-.23-7.09a1.57,1.57,0,0,0-1.25.58,2.71,2.71,0,0,0-.6,1.49v0h3.58v-.12a2.27,2.27,0,0,0-.43-1.43A1.54,1.54,0,0,0,233.08,143.89Z"/><path d="M239.44,150.82H238V139.4h1.44Z"/><path d="M243.22,150.82h-1.44V139.4h1.44Z"/><path d="M247,140.87h-1.44V139.4H247Zm0,9.95h-1.44V142.9H247Z"/><path d="M250.51,142.9l.1,1.18a2.81,2.81,0,0,1,1-1,2.67,2.67,0,0,1,1.36-.35,2.61,2.61,0,0,1,2,.75,3.35,3.35,0,0,1,.7,2.32v5h-1.44v-5a2.14,2.14,0,0,0-.42-1.49,1.66,1.66,0,0,0-1.26-.44,2.2,2.2,0,0,0-1.13.27,2,2,0,0,0-.74.75v5.88h-1.44V142.9Z"/><path d="M257.49,147a5.33,5.33,0,0,1,.81-3.09,2.64,2.64,0,0,1,2.28-1.17,2.7,2.7,0,0,1,1.33.31,2.65,2.65,0,0,1,1,.87l.18-1h1.15v8a3,3,0,0,1-.89,2.34,3.66,3.66,0,0,1-2.56.81,5.57,5.57,0,0,1-1.23-.15,5.18,5.18,0,0,1-1.17-.43l.22-1.12a4.4,4.4,0,0,0,1,.35,5.18,5.18,0,0,0,1.16.14,2.09,2.09,0,0,0,1.53-.48,2,2,0,0,0,.48-1.46V150a2.57,2.57,0,0,1-.93.75,2.91,2.91,0,0,1-1.25.26,2.72,2.72,0,0,1-2.27-1,4.43,4.43,0,0,1-.81-2.77Zm1.44.15a3.33,3.33,0,0,0,.49,1.92,1.72,1.72,0,0,0,1.52.73,1.91,1.91,0,0,0,1.09-.3,2.3,2.3,0,0,0,.72-.84V145a2.15,2.15,0,0,0-.72-.8,1.9,1.9,0,0,0-1.08-.3,1.65,1.65,0,0,0-1.53.86,4.41,4.41,0,0,0-.49,2.23Z"/><path d="M344.87,132.82h-1.45v-9.33l-2.32,0V122.4l3.77-.39Z"/><path d="M359,128.11h-4.5v4.71h-1.44V122.16h6.69v1.13h-5.25V127H359Z"/><path d="M365.79,132.82q-.07-.36-.12-.63a5.09,5.09,0,0,1,0-.55,3.32,3.32,0,0,1-1.05,1,2.69,2.69,0,0,1-1.4.39,2.59,2.59,0,0,1-1.89-.64,2.32,2.32,0,0,1-.64-1.74,2,2,0,0,1,.92-1.78,4.25,4.25,0,0,1,2.49-.64h1.57v-.78a1.44,1.44,0,0,0-.43-1.11,1.66,1.66,0,0,0-1.2-.4,1.68,1.68,0,0,0-1.13.35,1,1,0,0,0-.44.84l-1.37,0v0a1.92,1.92,0,0,1,.81-1.58,3.33,3.33,0,0,1,2.22-.72,3.26,3.26,0,0,1,2.17.69,2.4,2.4,0,0,1,.82,2v3.82a7.38,7.38,0,0,0,0,.82,4.08,4.08,0,0,0,.17.77Zm-2.4-1a2.64,2.64,0,0,0,1.42-.4,1.93,1.93,0,0,0,.82-.93v-1.29H364a2.13,2.13,0,0,0-1.4.44,1.32,1.32,0,0,0-.52,1,1.07,1.07,0,0,0,.33.83A1.35,1.35,0,0,0,363.39,131.77Z"/><path d="M370.45,124.9l.11,1a2.59,2.59,0,0,1,1-.88,3.06,3.06,0,0,1,1.39-.31,2.41,2.41,0,0,1,1.36.37,2.18,2.18,0,0,1,.85,1.1,3,3,0,0,1,1-1.08,2.63,2.63,0,0,1,1.44-.39,2.39,2.39,0,0,1,1.91.83,3.8,3.8,0,0,1,.7,2.5v4.74h-1.44v-4.75a2.64,2.64,0,0,0-.41-1.66,1.46,1.46,0,0,0-1.2-.49,1.52,1.52,0,0,0-1.19.52,2.16,2.16,0,0,0-.54,1.29v5.09H374v-4.75a2.57,2.57,0,0,0-.42-1.63,1.44,1.44,0,0,0-1.19-.52,2,2,0,0,0-1.08.27,1.82,1.82,0,0,0-.65.77v5.86h-1.45V124.9Z"/><path d="M383.83,122.87h-1.44V121.4h1.44Zm0,9.95h-1.44V124.9h1.44Z"/><path d="M387.61,132.82h-1.44V121.4h1.44Z"/><path d="M392.26,129.89l.25,1h.05l1.95-6h1.6L392.78,134a4.22,4.22,0,0,1-.86,1.39,2,2,0,0,1-1.52.59,2.73,2.73,0,0,1-.44,0c-.18,0-.32,0-.42-.07l.15-1.14.26,0,.38,0a.91.91,0,0,0,.76-.41,4.67,4.67,0,0,0,.49-.91l.34-.83L389,124.9h1.61Z"/><path d="M334.25,147.16a4.43,4.43,0,0,1-.82,2.77,2.72,2.72,0,0,1-2.27,1,3.18,3.18,0,0,1-1.28-.25,2.47,2.47,0,0,1-.94-.73v3.87h-1.45v-11h1.11l.23,1a2.65,2.65,0,0,1,1-.87,2.92,2.92,0,0,1,1.35-.3,2.64,2.64,0,0,1,2.29,1.17,5.33,5.33,0,0,1,.82,3.09ZM332.8,147a4.15,4.15,0,0,0-.53-2.22,1.71,1.71,0,0,0-1.56-.87,1.89,1.89,0,0,0-1.06.29,2,2,0,0,0-.71.77v3.83a1.93,1.93,0,0,0,1.78,1,1.79,1.79,0,0,0,1.56-.75,3.32,3.32,0,0,0,.52-1.94Z"/><path d="M339.3,151a3.37,3.37,0,0,1-2.66-1.09,4.21,4.21,0,0,1-1-2.88v-.32a4.08,4.08,0,0,1,1-2.82,3.06,3.06,0,0,1,2.4-1.12,2.89,2.89,0,0,1,2.39,1,4.08,4.08,0,0,1,.79,2.63v.76h-5.07l0,0a3.26,3.26,0,0,0,.53,1.93,1.84,1.84,0,0,0,1.61.75,3.63,3.63,0,0,0,1.29-.21,3,3,0,0,0,.94-.57l.57.93a3.33,3.33,0,0,1-1.12.69A4.43,4.43,0,0,1,339.3,151Zm-.23-7.09a1.57,1.57,0,0,0-1.25.58,2.79,2.79,0,0,0-.6,1.49v0h3.58v-.12a2.27,2.27,0,0,0-.43-1.43A1.54,1.54,0,0,0,339.07,143.89Z"/><path d="M347.62,144.17l-.74,0a1.65,1.65,0,0,0-1,.27,1.79,1.79,0,0,0-.61.76v5.66h-1.44V142.9h1.29l.14,1.16a2.71,2.71,0,0,1,.83-1,2,2,0,0,1,1.14-.35,1.55,1.55,0,0,1,.31,0l.24.05Z"/><path d="M353.05,150.82V140.16h3.35a4.38,4.38,0,0,1,4.63,4.61v1.45a4.38,4.38,0,0,1-4.63,4.6Zm1.44-9.53v8.4h1.91a3,3,0,0,0,2.34-1,3.69,3.69,0,0,0,.85-2.5v-1.47a3.68,3.68,0,0,0-.85-2.48,3,3,0,0,0-2.34-1Z"/><path d="M365,147.94l.18,1h0l.2-1,1.58-5h1.15l1.59,5,.21,1.13h0l.24-1.13,1.17-5H373l-2.3,7.92h-1.17L367.92,146l-.3-1.26h-.05l-.28,1.26-1.53,4.82h-1.17l-2.3-7.92h1.5Z"/><path d="M377.64,151a3.37,3.37,0,0,1-2.66-1.09,4.21,4.21,0,0,1-1-2.88v-.32a4.08,4.08,0,0,1,1-2.82,3.08,3.08,0,0,1,2.41-1.12,2.88,2.88,0,0,1,2.38,1,4.08,4.08,0,0,1,.79,2.63v.76h-5.06l0,0a3.26,3.26,0,0,0,.53,1.93,1.84,1.84,0,0,0,1.61.75,3.63,3.63,0,0,0,1.29-.21,3,3,0,0,0,.95-.57l.56.93a3.24,3.24,0,0,1-1.12.69A4.4,4.4,0,0,1,377.64,151Zm-.22-7.09a1.55,1.55,0,0,0-1.25.58,2.8,2.8,0,0,0-.61,1.49l0,0h3.57v-.12a2.33,2.33,0,0,0-.42-1.43A1.56,1.56,0,0,0,377.42,143.89Z"/><path d="M383.77,150.82h-1.44V139.4h1.44Z"/><path d="M387.55,150.82h-1.44V139.4h1.44Z"/><path d="M391.33,140.87h-1.44V139.4h1.44Zm0,9.95h-1.44V142.9h1.44Z"/><path d="M394.84,142.9l.1,1.18a2.92,2.92,0,0,1,1-1,2.64,2.64,0,0,1,1.35-.35,2.59,2.59,0,0,1,2,.75,3.3,3.3,0,0,1,.7,2.32v5h-1.44v-5a2.19,2.19,0,0,0-.41-1.49,1.69,1.69,0,0,0-1.27-.44,2.22,2.22,0,0,0-1.13.27,2,2,0,0,0-.74.75v5.88h-1.44V142.9Z"/><path d="M401.82,147a5.26,5.26,0,0,1,.82-3.09,2.61,2.61,0,0,1,2.28-1.17,2.68,2.68,0,0,1,1.32.31,2.58,2.58,0,0,1,1,.87l.18-1h1.15v8a3,3,0,0,1-.89,2.34,3.65,3.65,0,0,1-2.55.81,5.66,5.66,0,0,1-1.24-.15,5.18,5.18,0,0,1-1.17-.43l.22-1.12a4.57,4.57,0,0,0,1,.35,5.18,5.18,0,0,0,1.16.14,2.1,2.1,0,0,0,1.54-.48,2,2,0,0,0,.48-1.46V150a2.57,2.57,0,0,1-.93.75,3,3,0,0,1-1.26.26,2.7,2.7,0,0,1-2.26-1,4.37,4.37,0,0,1-.82-2.77Zm1.44.15a3.41,3.41,0,0,0,.49,1.92,1.73,1.73,0,0,0,1.52.73,1.89,1.89,0,0,0,1.09-.3,2.32,2.32,0,0,0,.73-.84V145a2.26,2.26,0,0,0-.73-.8,1.9,1.9,0,0,0-1.08-.3,1.65,1.65,0,0,0-1.52.86,4.41,4.41,0,0,0-.5,2.23Z"/></g><g id="Layer_7" data-name="Layer 7"><polygon class="cls-1" points="252.71 75.13 244.1 80.1 224 68.5 224 58.55 252.71 75.13"/><polygon class="cls-1" points="244.1 80.1 224 91.71 203.9 80.1 224 68.5 244.1 80.1"/><polygon class="cls-1" points="224 58.55 224 68.5 203.9 80.1 195.28 75.13 224 58.55"/><polygon class="cls-1" points="101.97 80.1 81.87 91.71 61.78 80.1 81.87 68.5 101.97 80.1"/><polygon class="cls-2" points="255.58 75.13 255.58 85.07 224 103.31 224 93.36 255.58 75.13"/><polygon class="cls-2" points="224 93.36 224 103.31 192.41 85.07 192.41 75.13 224 93.36"/><path class="cls-2" d="M81.87,56.89,50.29,75.13,81.87,93.36l31.59-18.23Zm0,34.82L61.78,80.1l-8.62-5L81.87,58.55l28.72,16.58-8.62,5Z"/><polygon class="cls-1" points="81.87 58.55 81.87 68.5 61.78 80.1 53.16 75.13 81.87 58.55"/><polygon class="cls-1" points="110.59 75.13 101.97 80.1 81.87 68.5 81.87 58.55 110.59 75.13"/><polygon class="cls-2" points="113.46 75.13 113.46 85.07 81.87 103.31 81.87 93.36 113.46 75.13"/><polygon class="cls-1" points="386.22 80.1 366.12 91.71 346.02 80.1 366.12 68.5 386.22 80.1"/><polygon class="cls-1" points="366.12 58.55 366.12 68.5 346.02 80.1 337.4 75.13 366.12 58.55"/><polygon class="cls-1" points="394.83 75.13 386.22 80.1 366.12 68.5 366.12 58.55 394.83 75.13"/><polygon class="cls-2" points="81.87 93.36 81.87 103.31 50.29 85.07 50.29 75.13 81.87 93.36"/><polygon class="cls-2" points="271.85 85.07 224 112.7 176.14 85.07 192.41 75.68 192.41 85.07 224 103.31 255.58 85.07 255.58 75.68 271.85 85.07"/><polygon class="cls-2" points="413.97 85.07 366.12 112.7 318.26 85.07 334.53 75.69 334.53 85.07 366.12 103.31 397.7 85.07 397.7 75.68 413.97 85.07"/><polygon class="cls-2" points="129.73 85.07 81.87 112.7 34.02 85.07 50.29 75.68 50.29 85.07 81.87 103.31 113.46 85.07 113.46 75.68 129.73 85.07"/></g><g id="Layer_8" data-name="Layer 8"><path class="cls-3" d="M78,69.87a3,3,0,0,1,2.81-2.71H82.4a3,3,0,0,1,2.79,2.71c.1.65.43,2.3.61,3.18a6.35,6.35,0,0,1,.13.67.82.82,0,0,1-.64.94h-.06l-.12,0a.82.82,0,0,1-.8-.67l0-.11c-.19-.91-.34-1.69-.46-2.32,0,.5-.08,1-.1,1.3a1.15,1.15,0,0,0,.1.57L84.92,76a.93.93,0,0,1-.07.86.9.9,0,0,1-.75.39h-.27l.42,4.93a1,1,0,0,1-1.71.91,1.05,1.05,0,0,1-.38-.72l-.45-5.12h-.27c-.15,1.7-.31,3.41-.46,5.11a1.07,1.07,0,0,1-1,1h-.09a1.07,1.07,0,0,1-.94-1.18l.44-4.87h-.27A.89.89,0,0,1,78.26,76l1.11-2.48a1.23,1.23,0,0,0,.1-.56c0-.39-.06-.88-.09-1.34-.12.63-.28,1.42-.47,2.35l0,.11a.82.82,0,0,1-.81.67.49.49,0,0,1-.19,0,.83.83,0,0,1-.51-.37.78.78,0,0,1-.1-.61c0-.06,0-.22.17-.84.19-1,.49-2.38.58-3Z"/><path class="cls-3" d="M84.22,65.34a2.58,2.58,0,0,1-.36-.5l0,0a2.21,2.21,0,1,1-.26-1.33A2.78,2.78,0,0,1,85,63.6a2.17,2.17,0,0,1,.53.52,2.56,2.56,0,0,0,.78.72.34.34,0,0,1,.19.34.36.36,0,0,1-.23.31c-1,.26-1.62.22-2-.15Z"/><path class="cls-3" d="M222.65,71.62a2.83,2.83,0,0,0-2.07-2.36l-.09,0-.07.06a2.36,2.36,0,0,1-1.34.44,2.14,2.14,0,0,1-1.34-.44l-.07-.06-.09,0a2.82,2.82,0,0,0-2.07,2.36c0,.31-.14.88-.23,1.49s-.2,1.33-.28,1.8l0,.27.27-.05a1.18,1.18,0,0,1,.27,0,1.44,1.44,0,0,1,1,.39l.26.25.05-.36c.05-.32.12-.78.19-1.27,0,.83,0,1.66.05,2.49l-.63,6.87a1.13,1.13,0,0,0,.26.82,1.07,1.07,0,0,0,.75.39h.1a1.1,1.1,0,0,0,1.11-1c.16-1.67.31-3.35.46-5l.45,5a1.12,1.12,0,0,0,.4.76,1.13,1.13,0,0,0,1.57-.14,1.17,1.17,0,0,0,.26-.82l-.64-6.89,0-2.44a14.49,14.49,0,0,0,.33,1.77.21.21,0,0,1-.06-.1.9.9,0,0,0,.9.76h.11a.93.93,0,0,0,.8-1s-.51-3.4-.59-3.93"/><path class="cls-3" d="M222.65,71.62a2.83,2.83,0,0,0-2.07-2.36l-.09,0-.07.06a2.36,2.36,0,0,1-1.34.44,2.14,2.14,0,0,1-1.34-.44l-.07-.06-.09,0a2.82,2.82,0,0,0-2.07,2.36c0,.31-.14.88-.23,1.49s-.2,1.33-.28,1.8l0,.27.27-.05a1.18,1.18,0,0,1,.27,0,1.44,1.44,0,0,1,1,.39l.26.25.05-.36c.05-.32.12-.78.19-1.27,0,.83,0,1.66.05,2.49l-.63,6.87a1.13,1.13,0,0,0,.26.82,1.07,1.07,0,0,0,.75.39h.1a1.1,1.1,0,0,0,1.11-1c.16-1.67.31-3.35.46-5l.45,5a1.12,1.12,0,0,0,.4.76,1.13,1.13,0,0,0,1.57-.14,1.17,1.17,0,0,0,.26-.82l-.64-6.89,0-2.44a14.49,14.49,0,0,0,.33,1.77.21.21,0,0,1-.06-.1.9.9,0,0,0,.9.76h.11a.93.93,0,0,0,.8-1S222.73,72.15,222.65,71.62Z"/><path class="cls-3" d="M215.48,75.22a1.26,1.26,0,0,0-1.26,1.26v7.65a.55.55,0,0,0,1.1,0V76.48a.16.16,0,0,1,.16-.17.18.18,0,0,1,.17.17.56.56,0,0,0,.55.54.55.55,0,0,0,.54-.54,1.16,1.16,0,0,0-.34-.87,1.27,1.27,0,0,0-.92-.39"/><path class="cls-3" d="M215.48,75.22a1.26,1.26,0,0,0-1.26,1.26v7.65a.55.55,0,0,0,1.1,0V76.48a.16.16,0,0,1,.16-.17.18.18,0,0,1,.17.17.56.56,0,0,0,.55.54.55.55,0,0,0,.54-.54,1.16,1.16,0,0,0-.34-.87A1.27,1.27,0,0,0,215.48,75.22Z"/><path class="cls-3" d="M216.89,67.46a2.18,2.18,0,0,0,4.35,0,.89.89,0,0,0,0-.27l0-.13h-4.28v.4Z"/><path class="cls-3" d="M216.89,67.46a2.18,2.18,0,0,0,4.35,0,.89.89,0,0,0,0-.27l0-.13h-4.28v.4Z"/><path class="cls-3" d="M216.56,67.19h5a.44.44,0,1,0,0-.88H221l-.15-1a1,1,0,0,0-.44-.7,1,1,0,0,0-.85-.12l-.34.1a.77.77,0,0,1-.37,0l-.33-.1a1,1,0,0,0-1.3.83c-.05.33-.1.66-.14,1h-.55a.45.45,0,0,0-.45.44.48.48,0,0,0,.45.44"/><path class="cls-3" d="M216.56,67.19h5a.44.44,0,1,0,0-.88H221l-.15-1a1,1,0,0,0-.44-.7,1,1,0,0,0-.85-.12l-.34.1a.77.77,0,0,1-.37,0l-.33-.1a1,1,0,0,0-1.3.83c-.05.33-.1.66-.14,1h-.55a.45.45,0,0,0-.45.44A.48.48,0,0,0,216.56,67.19Z"/><path class="cls-3" d="M230.68,75.72l.12-2.12c.12.65.26,1.35.37,1.84l.07.35.24-.25a1.43,1.43,0,0,1,1-.43h.29l-.05-.22c0-.26-.11-.59-.18-.92-.15-.78-.33-1.67-.4-2.1a3.05,3.05,0,0,0-2.1-2.53l-.08,0-.07,0a2.15,2.15,0,0,1-1.24.37,2.25,2.25,0,0,1-1.24-.37l-.07,0-.08,0a3.09,3.09,0,0,0-2.1,2.53c-.1.71-.49,2.6-.64,3.32a3.24,3.24,0,0,0-.07.36v0a.82.82,0,0,0,.12.61.78.78,0,0,0,.51.34h0l.12,0a.81.81,0,0,0,.8-.66l0-.11c.19-.9.33-1.59.43-2.12l.12,2.11-1.38,4.46a.88.88,0,0,0,.14.79.86.86,0,0,0,.69.34h.15L226,83.63a1,1,0,0,0,2,.18c.07-.83.14-1.67.22-2.5h.66l.21,2.5a1,1,0,0,0,1,.93h.09a1,1,0,0,0,.71-.37,1,1,0,0,0,.23-.74L231,81.31h.15a.85.85,0,0,0,.69-.34.87.87,0,0,0,.14-.78l-1.29-4.47"/><path class="cls-3" d="M230.68,75.72l.12-2.12c.12.65.26,1.35.37,1.84l.07.35.24-.25a1.43,1.43,0,0,1,1-.43h.29l-.05-.22c0-.26-.11-.59-.18-.92-.15-.78-.33-1.67-.4-2.1a3.05,3.05,0,0,0-2.1-2.53l-.08,0-.07,0a2.15,2.15,0,0,1-1.24.37,2.25,2.25,0,0,1-1.24-.37l-.07,0-.08,0a3.09,3.09,0,0,0-2.1,2.53c-.1.71-.49,2.6-.64,3.32a3.24,3.24,0,0,0-.07.36v0a.82.82,0,0,0,.12.61.78.78,0,0,0,.51.34h0l.12,0a.81.81,0,0,0,.8-.66l0-.11c.19-.9.33-1.59.43-2.12l.12,2.11-1.38,4.46a.88.88,0,0,0,.14.79.86.86,0,0,0,.69.34h.15L226,83.63a1,1,0,0,0,2,.18c.07-.83.14-1.67.22-2.5h.66l.21,2.5a1,1,0,0,0,1,.93h.09a1,1,0,0,0,.71-.37,1,1,0,0,0,.23-.74L231,81.31h.15a.85.85,0,0,0,.69-.34.87.87,0,0,0,.14-.78Z"/><path class="cls-3" d="M228.68,69.63a2.18,2.18,0,0,0,1.1-4.07,1.18,1.18,0,0,0,.08-.43.76.76,0,0,0-.76-.76h-.86a.76.76,0,0,0-.76.76,1.06,1.06,0,0,0,.09.42,2.19,2.19,0,0,0-1.09,1.89,2.22,2.22,0,0,0,2.2,2.19"/><path class="cls-3" d="M228.68,69.63a2.18,2.18,0,0,0,1.1-4.07,1.18,1.18,0,0,0,.08-.43.76.76,0,0,0-.76-.76h-.86a.76.76,0,0,0-.76.76,1.06,1.06,0,0,0,.09.42,2.19,2.19,0,0,0-1.09,1.89A2.22,2.22,0,0,0,228.68,69.63Z"/><path class="cls-3" d="M232.51,75.22a1.25,1.25,0,0,0-1.26,1.26.55.55,0,0,0,.54.54.56.56,0,0,0,.55-.54.16.16,0,0,1,.17-.17.17.17,0,0,1,.16.17v7.65a.55.55,0,0,0,1.1,0V76.48a1.26,1.26,0,0,0-1.26-1.26"/><path class="cls-3" d="M232.51,75.22a1.25,1.25,0,0,0-1.26,1.26.55.55,0,0,0,.54.54.56.56,0,0,0,.55-.54.16.16,0,0,1,.17-.17.17.17,0,0,1,.16.17v7.65a.55.55,0,0,0,1.1,0V76.48A1.26,1.26,0,0,0,232.51,75.22Z"/><path class="cls-3" d="M367.55,69.13c0-.66.07-1.32.11-2l.34,1.71.07.32.23-.23a1.28,1.28,0,0,1,.93-.4h.27l0-.21-.17-.85c-.15-.73-.31-1.55-.38-2A2.83,2.83,0,0,0,367,63.2l-.08,0-.06,0a2,2,0,0,1-1.16.34,2.09,2.09,0,0,1-1.15-.34l-.07,0-.07,0a2.88,2.88,0,0,0-1.95,2.35c-.09.66-.46,2.42-.6,3.08a3.2,3.2,0,0,0-.06.34v0a.76.76,0,0,0,.11.57.73.73,0,0,0,.48.32h0l.12,0a.76.76,0,0,0,.74-.61l0-.1.4-2c0,.66.07,1.31.11,2l-1.28,4.15a.81.81,0,0,0,.77,1h.14c-.06.72-.13,1.44-.2,2.15a1,1,0,1,0,1.9.17c.06-.77.13-1.54.2-2.32h.61c.07.78.14,1.55.2,2.32a1,1,0,0,0,1,.87h.08a1,1,0,0,0,.66-.34,1,1,0,0,0,.22-.7c-.07-.71-.14-1.43-.2-2.15H368a.78.78,0,0,0,.64-.32.8.8,0,0,0,.13-.72l-1.2-4.15"/><path class="cls-3" d="M367.55,69.13c0-.66.07-1.32.11-2l.34,1.71.07.32.23-.23a1.28,1.28,0,0,1,.93-.4h.27l0-.21-.17-.85c-.15-.73-.31-1.55-.38-2A2.83,2.83,0,0,0,367,63.2l-.08,0-.06,0a2,2,0,0,1-1.16.34,2.09,2.09,0,0,1-1.15-.34l-.07,0-.07,0a2.88,2.88,0,0,0-1.95,2.35c-.09.66-.46,2.42-.6,3.08a3.2,3.2,0,0,0-.06.34v0a.76.76,0,0,0,.11.57.73.73,0,0,0,.48.32h0l.12,0a.76.76,0,0,0,.74-.61l0-.1.4-2c0,.66.07,1.31.11,2l-1.28,4.15a.81.81,0,0,0,.77,1h.14c-.06.72-.13,1.44-.2,2.15a1,1,0,1,0,1.9.17c.06-.77.13-1.54.2-2.32h.61c.07.78.14,1.55.2,2.32a1,1,0,0,0,1,.87h.08a1,1,0,0,0,.66-.34,1,1,0,0,0,.22-.7c-.07-.71-.14-1.43-.2-2.15H368a.78.78,0,0,0,.64-.32.8.8,0,0,0,.13-.72Z"/><path class="cls-3" d="M365.69,63.47a2,2,0,0,0,2-2,2.06,2.06,0,0,0-1-1.76,1,1,0,0,0,.08-.39.71.71,0,0,0-.71-.71h-.8a.71.71,0,0,0-.7.71,1.09,1.09,0,0,0,.08.39,2,2,0,0,0-1,1.76,2.08,2.08,0,0,0,2.05,2"/><path class="cls-3" d="M365.69,63.47a2,2,0,0,0,2-2,2.06,2.06,0,0,0-1-1.76,1,1,0,0,0,.08-.39.71.71,0,0,0-.71-.71h-.8a.71.71,0,0,0-.7.71,1.09,1.09,0,0,0,.08.39,2,2,0,0,0-1,1.76A2.08,2.08,0,0,0,365.69,63.47Z"/><path class="cls-3" d="M369.25,68.66a1.17,1.17,0,0,0-1.17,1.17.52.52,0,0,0,.5.51.53.53,0,0,0,.51-.51.15.15,0,0,1,.16-.15.15.15,0,0,1,.15.15v7.11a.51.51,0,1,0,1,0V69.83a1.18,1.18,0,0,0-1.17-1.17"/><path class="cls-3" d="M369.25,68.66a1.17,1.17,0,0,0-1.17,1.17.52.52,0,0,0,.5.51.53.53,0,0,0,.51-.51.15.15,0,0,1,.16-.15.15.15,0,0,1,.15.15v7.11a.51.51,0,1,0,1,0V69.83A1.18,1.18,0,0,0,369.25,68.66Z"/><path class="cls-3" d="M370.57,79.61A1.8,1.8,0,0,0,368.75,78h-.93A1.84,1.84,0,0,0,366,79.61c-.09.57-.37,2.4-.37,2.4a.64.64,0,0,0,.53.73h.11a.64.64,0,0,0,.63-.51c0,.14,0,.28,0,.42l-.39,4.2a.78.78,0,1,0,1.55.12c.07-.73.14-1.46.2-2.19l.21,2.2a.78.78,0,0,0,.77.71h.05a.77.77,0,0,0,.73-.84l-.39-4.22v-.4a.62.62,0,0,0,.63.51h.11a.63.63,0,0,0,.52-.74.17.17,0,0,1-.05.18c.08-.09.08-.09-.12-1.41-.07-.45-.14-.92-.17-1.15h0Z"/><path class="cls-3" d="M369.92,76.16a1.59,1.59,0,0,0-.25-.75,1.66,1.66,0,0,0-1.37-.74,1.65,1.65,0,1,0,1.64,1.64A.77.77,0,0,0,369.92,76.16Z"/><path class="cls-3" d="M357.77,78.77v0Z"/><polygon class="cls-3" points="357.77 78.77 357.77 78.77 357.77 78.76 357.77 78.77"/><path class="cls-3" d="M379.57,78.55a38.59,38.59,0,0,1-1.18-3.78,2.59,2.59,0,0,0-2.78-2.24h-1.39a12.74,12.74,0,0,1-2.87-.2c-.92-.19-1.62-.39-2-.51a.93.93,0,0,0-.89-.19c.15.6.34,1.19.54,1.8h0c.43.12,1.15.32,2,.5a12.58,12.58,0,0,0,1.83.22c.07,1.31.15,2.61.22,3.92l-1.17,2.62a.88.88,0,0,0,.81,1.24h.23l-.42,4.66a1,1,0,0,0,.94,1.13,1,1,0,0,0,1.14-.93c.14-1.61.29-3.22.44-4.83h.19c.15,1.61.29,3.22.44,4.82a1.05,1.05,0,0,0,1,.94h.07a1,1,0,0,0,.72-.37,1,1,0,0,0,.24-.76c-.14-1.55-.28-3.11-.41-4.66h.23a.87.87,0,0,0,.8-1.24c-.39-.88-.78-1.75-1.16-2.62,0-.45.05-.89.08-1.34.23.78.5,1.59.64,2,.06.16.09.27.1.3a.88.88,0,0,0,1.06.55A.84.84,0,0,0,379.57,78.55Z"/><path class="cls-3" d="M379.59,70.22a2.33,2.33,0,0,1-.74-.69,2.09,2.09,0,0,0-.48-.5,2.64,2.64,0,0,0-1.39-.14,2.17,2.17,0,1,0,.25,1.41,2.26,2.26,0,0,0,.31.44c.4.37,1,.42,2,.17a.38.38,0,0,0,.27-.37A.35.35,0,0,0,379.59,70.22Z"/></g><g id="Layer_9" data-name="Layer 9"><path class="cls-4" d="M224,56.89,192.41,75.13,224,93.36l31.58-18.23Zm0,34.82L203.9,80.1l-8.62-5L224,58.55l28.71,16.58-8.61,5Z"/><path class="cls-4" d="M366.12,56.89,334.53,75.13l31.59,18.23L397.7,75.13Zm0,34.82L346,80.1l-8.62-5,28.72-16.58,28.71,16.58-8.61,5Z"/><polygon class="cls-4" points="397.7 75.13 397.7 85.07 366.12 103.31 366.12 93.36 397.7 75.13"/><polygon class="cls-4" points="366.12 93.36 366.12 103.31 334.53 85.07 334.53 75.13 366.12 93.36"/><path class="cls-3" d="M354.31,68a1.17,1.17,0,0,0-1.18,1.17v7.1a.51.51,0,1,0,1,0v-7.1a.16.16,0,0,1,.16-.16.17.17,0,0,1,.15.16.51.51,0,0,0,1,0,1.12,1.12,0,0,0-.32-.81A1.2,1.2,0,0,0,354.31,68Z"/><path class="cls-3" d="M361,64.61A2.62,2.62,0,0,0,359,62.42l-.08,0-.07,0a2.14,2.14,0,0,1-1.25.42,2,2,0,0,1-1.23-.41l-.07-.06-.09,0a2.62,2.62,0,0,0-1.92,2.19c-.05.29-.13.82-.21,1.38s-.19,1.24-.26,1.68l0,.25.25,0h.26a1.26,1.26,0,0,1,.89.36l.25.23,0-.33c.05-.3.11-.73.18-1.18,0,.77,0,1.54,0,2.31l-.58,6.38a1,1,0,0,0,.24.76,1,1,0,0,0,.7.37h.09a1,1,0,0,0,1-.94l.42-4.67c.15,1.56.29,3.11.43,4.67a1,1,0,0,0,.37.7,1,1,0,0,0,.75.24,1,1,0,0,0,.7-.37,1,1,0,0,0,.24-.76l-.58-6.4,0-2.27a16.14,16.14,0,0,0,.3,1.65.31.31,0,0,1-.05-.1.85.85,0,0,0,.84.71h.1a.85.85,0,0,0,.74-1S361,65.11,361,64.61Z"/><path class="cls-3" d="M355.61,60.75a2,2,0,0,0,4.05,0,.74.74,0,0,0,0-.25l0-.12h-4v.37Z"/><path class="cls-3" d="M355.3,60.5H360a.42.42,0,0,0,.41-.41.41.41,0,0,0-.41-.41h-.51c0-.31-.09-.62-.14-.93a.87.87,0,0,0-.41-.65.92.92,0,0,0-.79-.12l-.31.1a.69.69,0,0,1-.35,0l-.31-.09a.89.89,0,0,0-.79.11.87.87,0,0,0-.41.66c-.05.3-.09.61-.14.92h-.51a.41.41,0,0,0-.41.41A.45.45,0,0,0,355.3,60.5Z"/><path class="cls-3" d="M368.39,71.63a22.8,22.8,0,0,1-2.32.61,13.69,13.69,0,0,1-3,.2h-1.44a3.06,3.06,0,0,0-3.18,2.43c-.09.51-.31,1.69-.48,2.61s-.22,1.22-.23,1.29a.91.91,0,0,0,.15.68.85.85,0,0,0,.59.37h0a.35.35,0,0,0,.14,0,.94.94,0,0,0,.91-.76v0s.1-.57.23-1.24c.05-.3.11-.63.17-1l.06,2.76-.64,6.82a1.07,1.07,0,0,0,.26.82,1,1,0,0,0,.77.4,1.1,1.1,0,0,0,.82-.25,1.12,1.12,0,0,0,.4-.78l.45-4.85c.15,1.62.3,3.24.44,4.86a1.14,1.14,0,0,0,1.12,1h.09a1.15,1.15,0,0,0,1.05-1.22l-.64-6.84c0-1.78.07-3.56.11-5.34a11.82,11.82,0,0,0,2.21-.23,19.77,19.77,0,0,0,2.41-.62l.06,0c-.2-.61-.39-1.2-.54-1.8Z"/><path class="cls-3" d="M362.1,67.79A2.17,2.17,0,1,1,359.93,70,2.17,2.17,0,0,1,362.1,67.79Z"/></g></svg>