<svg id="Layer_1" data-name="Layer 1" xmlns="http://www.w3.org/2000/svg" xmlns:xlink="http://www.w3.org/1999/xlink" width="450" height="180" viewBox="0 0 450 180"><title>diagrams</title><path d="M56.91,120.21H52.42v4.72H51V114.26h6.69v1.14H52.42v3.67h4.49Z"/><path d="M64.33,122.18h-4l-1,2.75H57.89l3.84-10.67H63l3.77,10.67H65.26ZM60.73,121h3.19l-1.56-4.58h0Z"/><path d="M69.75,120.31v4.62H68.3V114.27H72a4,4,0,0,1,2.67.78,2.76,2.76,0,0,1,.93,2.25,2.47,2.47,0,0,1-.43,1.43,2.89,2.89,0,0,1-1.25,1,2.16,2.16,0,0,1,1.26.92,3,3,0,0,1,.39,1.59v1a3.17,3.17,0,0,0,.11.9,1.34,1.34,0,0,0,.38.64v.18H74.52a1.18,1.18,0,0,1-.36-.74,5.36,5.36,0,0,1-.09-1v-1a1.91,1.91,0,0,0-.5-1.39,1.8,1.8,0,0,0-1.36-.52Zm0-1.14h2a2.7,2.7,0,0,0,1.77-.47,1.79,1.79,0,0,0,.53-1.41,1.83,1.83,0,0,0-.52-1.4A2.3,2.3,0,0,0,72,115.4h-2.2Z"/><path d="M79.22,118.51H77.78V117h1.44Zm0,6.42H77.78v-1.48h1.44Z"/><path d="M89.32,124.93H87.87V115.6l-2.33,0V114.5l3.78-.39Z"/><path d="M31.35,142.93H29.91v-4.71H24.73v4.71H23.29V132.26h1.44v4.82h5.18v-4.82h1.44Z"/><path d="M35.21,133H33.76V131.5h1.45Zm0,10H33.76V135h1.45Z"/><path d="M37.17,139.11A5.32,5.32,0,0,1,38,136a2.65,2.65,0,0,1,2.29-1.18,2.8,2.8,0,0,1,1.32.31,2.65,2.65,0,0,1,1,.87l.18-1h1.15v8a3,3,0,0,1-.89,2.34,3.66,3.66,0,0,1-2.56.82A5.62,5.62,0,0,1,39.2,146a5.18,5.18,0,0,1-1.17-.43l.22-1.12a4.56,4.56,0,0,0,1,.36,5.16,5.16,0,0,0,1.16.13,2.09,2.09,0,0,0,1.53-.48,2,2,0,0,0,.48-1.46v-.9a2.42,2.42,0,0,1-.93.75,2.88,2.88,0,0,1-1.25.26A2.72,2.72,0,0,1,38,142a4.41,4.41,0,0,1-.81-2.77Zm1.44.15a3.33,3.33,0,0,0,.49,1.92,1.69,1.69,0,0,0,1.52.73,1.89,1.89,0,0,0,1.09-.3,2.3,2.3,0,0,0,.72-.84v-3.64a2.18,2.18,0,0,0-.72-.81,2,2,0,0,0-1.08-.29,1.62,1.62,0,0,0-1.52.85,4.46,4.46,0,0,0-.5,2.23Z"/><path d="M47.39,136.06a3.07,3.07,0,0,1,1-.89,2.8,2.8,0,0,1,1.32-.32,2.58,2.58,0,0,1,2,.77,3.34,3.34,0,0,1,.7,2.34v5H51v-5a2.11,2.11,0,0,0-.42-1.45,1.58,1.58,0,0,0-1.26-.47,2.34,2.34,0,0,0-1.12.25,2,2,0,0,0-.77.71v5.94H46V131.5h1.44Z"/><path d="M66,139.51l0,.05A3.24,3.24,0,0,1,65,142.07a4,4,0,0,1-2.86,1,3.77,3.77,0,0,1-3-1.28A4.72,4.72,0,0,1,58,138.55v-1.9a4.75,4.75,0,0,1,1.14-3.26,3.77,3.77,0,0,1,3-1.28,4.18,4.18,0,0,1,2.88,1,3.22,3.22,0,0,1,1,2.55l0,0H64.63A2.36,2.36,0,0,0,64,133.9a2.52,2.52,0,0,0-1.86-.66,2.28,2.28,0,0,0-1.93,1,4,4,0,0,0-.72,2.42v1.91a4,4,0,0,0,.72,2.43,2.27,2.27,0,0,0,1.93,1A2.51,2.51,0,0,0,64,141.3a2.39,2.39,0,0,0,.66-1.79Z"/><path d="M67.37,138.89a4.35,4.35,0,0,1,.95-2.9,3.17,3.17,0,0,1,2.58-1.14A3.23,3.23,0,0,1,73.51,136a4.38,4.38,0,0,1,.95,2.9v.16a4.31,4.31,0,0,1-.95,2.9,3.54,3.54,0,0,1-5.19,0,4.33,4.33,0,0,1-.95-2.9Zm1.44.16a3.78,3.78,0,0,0,.53,2.08,1.92,1.92,0,0,0,3.15,0,3.78,3.78,0,0,0,.53-2.08v-.16a3.71,3.71,0,0,0-.54-2.07A1.77,1.77,0,0,0,70.9,136a1.73,1.73,0,0,0-1.56.83,3.79,3.79,0,0,0-.53,2.07Z"/><path d="M78.76,140.59l.13.56h0l.14-.56L80.89,135h1.48l-2.92,7.93H78.36l-3-7.93h1.48Z"/><path d="M86.85,143.08A3.33,3.33,0,0,1,84.19,142a4.2,4.2,0,0,1-1-2.87v-.32a4.16,4.16,0,0,1,1-2.83,3.12,3.12,0,0,1,2.41-1.12,2.85,2.85,0,0,1,2.38,1,4.08,4.08,0,0,1,.8,2.63v.76H84.73l0,0a3.3,3.3,0,0,0,.53,1.94,1.85,1.85,0,0,0,1.61.74,3.58,3.58,0,0,0,1.28-.21,2.9,2.9,0,0,0,1-.57l.57.94a3.68,3.68,0,0,1-1.12.69A4.48,4.48,0,0,1,86.85,143.08ZM86.62,136a1.57,1.57,0,0,0-1.25.58,2.75,2.75,0,0,0-.6,1.49v0h3.58V138a2.29,2.29,0,0,0-.43-1.43A1.54,1.54,0,0,0,86.62,136Z"/><path d="M95.17,136.28l-.74-.05a1.65,1.65,0,0,0-1,.27,1.71,1.71,0,0,0-.61.76v5.67H91.42V135h1.29l.14,1.16a2.71,2.71,0,0,1,.83-1,2,2,0,0,1,1.14-.35,1.45,1.45,0,0,1,.3,0l.25.06Z"/><path d="M101.54,142.93c-.05-.24-.09-.45-.11-.64a3.31,3.31,0,0,1-.05-.55,3.47,3.47,0,0,1-1,1,2.75,2.75,0,0,1-1.4.38,2.59,2.59,0,0,1-1.88-.63,2.32,2.32,0,0,1-.65-1.75,2.06,2.06,0,0,1,.92-1.78,4.33,4.33,0,0,1,2.49-.64h1.57v-.78a1.43,1.43,0,0,0-.43-1.1,1.66,1.66,0,0,0-1.2-.41,1.75,1.75,0,0,0-1.13.35,1.06,1.06,0,0,0-.43.84l-1.37,0,0,0a1.92,1.92,0,0,1,.81-1.58,3.35,3.35,0,0,1,2.22-.72,3.25,3.25,0,0,1,2.17.69,2.41,2.41,0,0,1,.82,2v3.82a7.22,7.22,0,0,0,.05.82,4.32,4.32,0,0,0,.16.78Zm-2.39-1.06a2.55,2.55,0,0,0,1.41-.4,2,2,0,0,0,.82-.92v-1.29H99.76a2,2,0,0,0-1.39.44,1.3,1.3,0,0,0-.53,1,1.07,1.07,0,0,0,.33.83A1.37,1.37,0,0,0,99.15,141.87Z"/><path d="M104.66,139.11a5.24,5.24,0,0,1,.82-3.08,2.62,2.62,0,0,1,2.28-1.18,2.8,2.8,0,0,1,1.32.31,2.5,2.5,0,0,1,1,.87l.18-1h1.15v8a3,3,0,0,1-.89,2.34,3.65,3.65,0,0,1-2.55.82,5.7,5.7,0,0,1-1.24-.16,5.18,5.18,0,0,1-1.17-.43l.22-1.12a4.56,4.56,0,0,0,1,.36,5.16,5.16,0,0,0,1.16.13,2.1,2.1,0,0,0,1.54-.48,2,2,0,0,0,.48-1.46v-.9a2.57,2.57,0,0,1-.93.75,2.92,2.92,0,0,1-1.26.26,2.7,2.7,0,0,1-2.26-1.05,4.35,4.35,0,0,1-.82-2.77Zm1.44.15a3.41,3.41,0,0,0,.49,1.92,1.71,1.71,0,0,0,1.52.73,1.89,1.89,0,0,0,1.09-.3,2.32,2.32,0,0,0,.73-.84v-3.64a2.29,2.29,0,0,0-.73-.81,2,2,0,0,0-1.07-.29,1.64,1.64,0,0,0-1.53.85,4.46,4.46,0,0,0-.5,2.23Z"/><path d="M116.72,143.08a3.35,3.35,0,0,1-2.66-1.09,4.2,4.2,0,0,1-1-2.87v-.32a4.12,4.12,0,0,1,1-2.83,3.12,3.12,0,0,1,2.41-1.12,2.87,2.87,0,0,1,2.38,1,4.08,4.08,0,0,1,.8,2.63v.76h-5.07l0,0a3.3,3.3,0,0,0,.53,1.94,1.85,1.85,0,0,0,1.61.74,3.63,3.63,0,0,0,1.29-.21,3,3,0,0,0,.95-.57l.56.94a3.57,3.57,0,0,1-1.12.69A4.41,4.41,0,0,1,116.72,143.08ZM116.5,136a1.55,1.55,0,0,0-1.25.58,2.83,2.83,0,0,0-.61,1.49l0,0h3.57V138a2.35,2.35,0,0,0-.42-1.43A1.56,1.56,0,0,0,116.5,136Z"/><path d="M29.12,156.31v4.62H27.68V150.27h3.64a4.06,4.06,0,0,1,2.68.78,2.78,2.78,0,0,1,.92,2.25,2.4,2.4,0,0,1-.43,1.43,2.89,2.89,0,0,1-1.25,1,2.22,2.22,0,0,1,1.27.92,3.12,3.12,0,0,1,.38,1.59v1a3.58,3.58,0,0,0,.11.9,1.34,1.34,0,0,0,.38.64v.18H33.89a1.18,1.18,0,0,1-.36-.74,5.37,5.37,0,0,1-.08-1v-1a1.92,1.92,0,0,0-.51-1.39,1.79,1.79,0,0,0-1.35-.52Zm0-1.14h2.06a2.69,2.69,0,0,0,1.76-.47,1.76,1.76,0,0,0,.54-1.41,1.84,1.84,0,0,0-.53-1.4,2.3,2.3,0,0,0-1.63-.49h-2.2Z"/><path d="M36.68,156.89a4.35,4.35,0,0,1,1-2.9,3.17,3.17,0,0,1,2.58-1.14A3.23,3.23,0,0,1,42.83,154a4.38,4.38,0,0,1,1,2.9v.16a4.36,4.36,0,0,1-1,2.9,3.54,3.54,0,0,1-5.19,0,4.34,4.34,0,0,1-1-2.9Zm1.45.16a3.69,3.69,0,0,0,.53,2.08,1.91,1.91,0,0,0,3.14,0,3.69,3.69,0,0,0,.54-2.08v-.16a3.71,3.71,0,0,0-.54-2.07,1.77,1.77,0,0,0-1.58-.83,1.73,1.73,0,0,0-1.56.83,3.7,3.7,0,0,0-.53,2.07Z"/><path d="M47.58,158l.18,1h0l.19-1,1.58-5h1.16l1.59,5,.21,1.14h0L52.8,158,54,153h1.51l-2.3,7.93H52l-1.57-4.83-.3-1.26h0l-.28,1.26-1.54,4.83H47.13L44.83,153h1.5Z"/><path d="M68.89,160.93H67.45v-4.71H62.27v4.71H60.82V150.26h1.45v4.82h5.18v-4.82h1.44Z"/><path d="M70.84,156.89a4.35,4.35,0,0,1,1-2.9,3.17,3.17,0,0,1,2.58-1.14A3.23,3.23,0,0,1,77,154a4.38,4.38,0,0,1,1,2.9v.16a4.36,4.36,0,0,1-1,2.9,3.54,3.54,0,0,1-5.19,0,4.34,4.34,0,0,1-1-2.9Zm1.45.16a3.69,3.69,0,0,0,.53,2.08,1.91,1.91,0,0,0,3.14,0,3.69,3.69,0,0,0,.54-2.08v-.16a3.71,3.71,0,0,0-.54-2.07,1.77,1.77,0,0,0-1.58-.83,1.73,1.73,0,0,0-1.56.83,3.7,3.7,0,0,0-.53,2.07Z"/><path d="M84.74,159.75a2.69,2.69,0,0,1-1,1,2.62,2.62,0,0,1-1.36.34,2.57,2.57,0,0,1-2-.83,3.86,3.86,0,0,1-.72-2.58V153h1.44v4.69a3,3,0,0,0,.37,1.74,1.39,1.39,0,0,0,1.17.48,2.37,2.37,0,0,0,1.27-.31,2,2,0,0,0,.76-.89V153h1.44v7.93h-1.3Z"/><path d="M92.84,158.8a1,1,0,0,0-.36-.78,3.53,3.53,0,0,0-1.38-.53,5.8,5.8,0,0,1-2.15-.84,1.71,1.71,0,0,1-.75-1.45,2.1,2.1,0,0,1,.83-1.66,3.21,3.21,0,0,1,2.13-.69,3.16,3.16,0,0,1,2.18.74,2.06,2.06,0,0,1,.8,1.7v.05H92.75a1.25,1.25,0,0,0-.45-.93,1.61,1.61,0,0,0-1.14-.42,1.64,1.64,0,0,0-1.14.34,1.08,1.08,0,0,0-.37.82.86.86,0,0,0,.32.73,3.64,3.64,0,0,0,1.35.47,5.59,5.59,0,0,1,2.21.87,1.77,1.77,0,0,1,.75,1.47,2.06,2.06,0,0,1-.85,1.72,4.07,4.07,0,0,1-4.62-.1,2.19,2.19,0,0,1-.83-1.79l0-.05h1.37A1.35,1.35,0,0,0,90,159.6a2.23,2.23,0,0,0,1.25.35,2,2,0,0,0,1.2-.32A1,1,0,0,0,92.84,158.8Z"/><path d="M97.64,151H96.19V149.5h1.45Zm0,10H96.19V153h1.45Z"/><path d="M101.14,153l.11,1.18a2.81,2.81,0,0,1,1-1,2.67,2.67,0,0,1,1.36-.35,2.59,2.59,0,0,1,2,.76,3.28,3.28,0,0,1,.71,2.31v5h-1.45v-5a2.11,2.11,0,0,0-.41-1.48,1.64,1.64,0,0,0-1.26-.44,2.34,2.34,0,0,0-1.14.26,1.91,1.91,0,0,0-.73.76v5.88H99.86V153Z"/><path d="M108.12,157.11a5.32,5.32,0,0,1,.82-3.08,2.65,2.65,0,0,1,2.28-1.18,2.81,2.81,0,0,1,1.33.31,2.65,2.65,0,0,1,1,.87l.17-1h1.15v8a3,3,0,0,1-.88,2.34,3.68,3.68,0,0,1-2.56.82,5.62,5.62,0,0,1-1.23-.16,5,5,0,0,1-1.17-.43l.22-1.12a4.38,4.38,0,0,0,1,.36,5.16,5.16,0,0,0,1.16.13,2.09,2.09,0,0,0,1.53-.48,2,2,0,0,0,.48-1.46v-.9a2.57,2.57,0,0,1-.93.75,2.91,2.91,0,0,1-1.25.26,2.72,2.72,0,0,1-2.27-1.05,4.41,4.41,0,0,1-.82-2.77Zm1.45.15a3.33,3.33,0,0,0,.49,1.92,1.69,1.69,0,0,0,1.51.73,1.92,1.92,0,0,0,1.1-.3,2.3,2.3,0,0,0,.72-.84v-3.64a2.27,2.27,0,0,0-.72-.81,2,2,0,0,0-1.08-.29,1.64,1.64,0,0,0-1.53.85,4.46,4.46,0,0,0-.49,2.23Z"/><path d="M209.44,120.21h-4.5v4.72H203.5V114.26h6.68v1.14h-5.24v3.67h4.5Z"/><path d="M216.85,122.18h-4l-1,2.75h-1.47l3.84-10.67h1.24l3.77,10.67h-1.47Zm-3.6-1.21h3.19l-1.56-4.58h0Z"/><path d="M222.27,120.31v4.62h-1.45V114.27h3.65a4.06,4.06,0,0,1,2.68.78,2.78,2.78,0,0,1,.92,2.25,2.4,2.4,0,0,1-.43,1.43,2.89,2.89,0,0,1-1.25,1,2.22,2.22,0,0,1,1.27.92,3.12,3.12,0,0,1,.38,1.59v1a3.58,3.58,0,0,0,.11.9,1.34,1.34,0,0,0,.38.64v.18H227a1.18,1.18,0,0,1-.36-.74,5.37,5.37,0,0,1-.08-1v-1a1.92,1.92,0,0,0-.51-1.39,1.79,1.79,0,0,0-1.35-.52Zm0-1.14h2.06a2.69,2.69,0,0,0,1.76-.47,1.76,1.76,0,0,0,.54-1.41,1.84,1.84,0,0,0-.53-1.4,2.3,2.3,0,0,0-1.63-.49h-2.2Z"/><path d="M231.75,118.51H230.3V117h1.45Zm0,6.42H230.3v-1.48h1.45Z"/><path d="M241.84,124.93h-1.45V115.6l-2.32,0V114.5l3.77-.39Z"/><path d="M169.38,140.93h0l3.41-8.67h1.79v10.67h-1.44v-8h0l-3.23,8h-1l-3.32-8.27h-.05v8.26h-1.44V132.26H166Z"/><path d="M180.2,143.08a3.35,3.35,0,0,1-2.66-1.09,4.25,4.25,0,0,1-.95-2.87v-.32a4.12,4.12,0,0,1,1-2.83,3.12,3.12,0,0,1,2.41-1.12,2.87,2.87,0,0,1,2.38,1,4.08,4.08,0,0,1,.8,2.63v.76h-5.07l0,0a3.3,3.3,0,0,0,.52,1.94,1.85,1.85,0,0,0,1.61.74,3.63,3.63,0,0,0,1.29-.21,3,3,0,0,0,.95-.57l.56.94a3.45,3.45,0,0,1-1.12.69A4.41,4.41,0,0,1,180.2,143.08ZM180,136a1.55,1.55,0,0,0-1.25.58,2.83,2.83,0,0,0-.61,1.49l0,0h3.57V138a2.35,2.35,0,0,0-.42-1.43A1.54,1.54,0,0,0,180,136Z"/><path d="M184.45,139.11a5.32,5.32,0,0,1,.81-3.08,2.65,2.65,0,0,1,2.29-1.18,2.89,2.89,0,0,1,1.24.26,2.51,2.51,0,0,1,.91.75V131.5h1.45v11.43H190l-.22-1a2.65,2.65,0,0,1-1,.87,2.92,2.92,0,0,1-1.32.29,2.71,2.71,0,0,1-2.27-1.05,4.35,4.35,0,0,1-.82-2.77Zm1.44.15a3.37,3.37,0,0,0,.49,1.93,1.71,1.71,0,0,0,1.52.72,2,2,0,0,0,1.09-.29,2.19,2.19,0,0,0,.71-.82v-3.7a2.08,2.08,0,0,0-.72-.78,1.83,1.83,0,0,0-1.06-.29,1.65,1.65,0,0,0-1.54.85,4.46,4.46,0,0,0-.49,2.23Z"/><path d="M194.86,133h-1.44V131.5h1.44Zm0,10h-1.44V135h1.44Z"/><path d="M202.11,141.75a2.69,2.69,0,0,1-1,1,2.6,2.6,0,0,1-1.35.34,2.54,2.54,0,0,1-2-.83,3.8,3.8,0,0,1-.73-2.58V135h1.44v4.69a2.94,2.94,0,0,0,.38,1.74,1.37,1.37,0,0,0,1.16.48,2.34,2.34,0,0,0,1.27-.31,1.9,1.9,0,0,0,.76-.89V135h1.44v7.93h-1.29Z"/><path d="M206.89,135l.11,1a2.64,2.64,0,0,1,1-.87,2.94,2.94,0,0,1,1.39-.32,2.49,2.49,0,0,1,1.36.37,2.22,2.22,0,0,1,.85,1.1,3.1,3.1,0,0,1,1-1.07,2.64,2.64,0,0,1,1.44-.4,2.37,2.37,0,0,1,1.91.84,3.77,3.77,0,0,1,.7,2.5v4.74h-1.44v-4.76a2.64,2.64,0,0,0-.41-1.66,1.46,1.46,0,0,0-1.2-.48,1.51,1.51,0,0,0-1.19.51,2.17,2.17,0,0,0-.54,1.3v5.09h-1.45v-4.76a2.59,2.59,0,0,0-.42-1.63,1.43,1.43,0,0,0-1.19-.51,2,2,0,0,0-1.08.27,1.73,1.73,0,0,0-.65.76v5.87H205.6V135Z"/><path d="M230.25,139.51l0,.05a3.21,3.21,0,0,1-1.06,2.51,4,4,0,0,1-2.86,1,3.77,3.77,0,0,1-2.95-1.28,4.72,4.72,0,0,1-1.14-3.25v-1.9a4.75,4.75,0,0,1,1.14-3.26,3.77,3.77,0,0,1,2.95-1.28,4.18,4.18,0,0,1,2.88,1,3.18,3.18,0,0,1,1,2.55l0,0h-1.38a2.36,2.36,0,0,0-.66-1.77,2.52,2.52,0,0,0-1.86-.66,2.28,2.28,0,0,0-1.93,1,4,4,0,0,0-.72,2.42v1.91a4,4,0,0,0,.72,2.43,2.27,2.27,0,0,0,1.93,1,2.51,2.51,0,0,0,1.86-.65,2.39,2.39,0,0,0,.66-1.79Z"/><path d="M231.61,138.89a4.35,4.35,0,0,1,.95-2.9,3.17,3.17,0,0,1,2.58-1.14,3.23,3.23,0,0,1,2.61,1.14,4.38,4.38,0,0,1,.95,2.9v.16a4.31,4.31,0,0,1-.95,2.9,3.54,3.54,0,0,1-5.19,0,4.33,4.33,0,0,1-.95-2.9Zm1.44.16a3.78,3.78,0,0,0,.53,2.08,1.92,1.92,0,0,0,3.15,0,3.78,3.78,0,0,0,.53-2.08v-.16a3.71,3.71,0,0,0-.54-2.07,1.77,1.77,0,0,0-1.58-.83,1.74,1.74,0,0,0-1.56.83,3.79,3.79,0,0,0-.53,2.07Z"/><path d="M243,140.59l.13.56h0l.14-.56,1.82-5.59h1.48l-2.92,7.93H242.6L239.65,135h1.48Z"/><path d="M251.09,143.08a3.33,3.33,0,0,1-2.66-1.09,4.2,4.2,0,0,1-1-2.87v-.32a4.12,4.12,0,0,1,1-2.83,3.08,3.08,0,0,1,2.4-1.12,2.89,2.89,0,0,1,2.39,1,4.08,4.08,0,0,1,.79,2.63v.76H249l0,0a3.3,3.3,0,0,0,.53,1.94,1.85,1.85,0,0,0,1.61.74,3.58,3.58,0,0,0,1.28-.21,2.9,2.9,0,0,0,.95-.57l.57.94a3.68,3.68,0,0,1-1.12.69A4.48,4.48,0,0,1,251.09,143.08Zm-.23-7.09a1.57,1.57,0,0,0-1.25.58,2.75,2.75,0,0,0-.6,1.49v0h3.58V138a2.29,2.29,0,0,0-.43-1.43A1.54,1.54,0,0,0,250.86,136Z"/><path d="M259.41,136.28l-.74-.05a1.65,1.65,0,0,0-1,.27,1.71,1.71,0,0,0-.61.76v5.67h-1.44V135H257l.14,1.16a2.71,2.71,0,0,1,.83-1,2,2,0,0,1,1.14-.35,1.55,1.55,0,0,1,.31,0l.24.06Z"/><path d="M265.78,142.93c0-.24-.09-.45-.11-.64a4.89,4.89,0,0,1-.05-.55,3.47,3.47,0,0,1-1.05,1,2.75,2.75,0,0,1-1.4.38,2.59,2.59,0,0,1-1.88-.63,2.36,2.36,0,0,1-.65-1.75,2.06,2.06,0,0,1,.92-1.78,4.33,4.33,0,0,1,2.49-.64h1.57v-.78a1.46,1.46,0,0,0-.42-1.1A1.7,1.7,0,0,0,264,136a1.77,1.77,0,0,0-1.13.35,1.06,1.06,0,0,0-.43.84l-1.37,0,0,0a1.92,1.92,0,0,1,.81-1.58,3.35,3.35,0,0,1,2.22-.72,3.25,3.25,0,0,1,2.17.69,2.41,2.41,0,0,1,.82,2v3.82a7.22,7.22,0,0,0,.05.82,4.32,4.32,0,0,0,.16.78Zm-2.39-1.06a2.55,2.55,0,0,0,1.41-.4,2,2,0,0,0,.82-.92v-1.29H264a2.05,2.05,0,0,0-1.39.44,1.3,1.3,0,0,0-.53,1,1.07,1.07,0,0,0,.33.83A1.37,1.37,0,0,0,263.39,141.87Z"/><path d="M268.9,139.11a5.24,5.24,0,0,1,.82-3.08,2.62,2.62,0,0,1,2.28-1.18,2.87,2.87,0,0,1,1.33.31,2.55,2.55,0,0,1,.95.87l.18-1h1.15v8a3,3,0,0,1-.89,2.34,3.65,3.65,0,0,1-2.55.82,5.78,5.78,0,0,1-1.24-.16,4.92,4.92,0,0,1-1.16-.43l.22-1.12a4.29,4.29,0,0,0,1,.36,5.16,5.16,0,0,0,1.16.13,2.1,2.1,0,0,0,1.54-.48,2,2,0,0,0,.48-1.46v-.9a2.57,2.57,0,0,1-.93.75,2.92,2.92,0,0,1-1.26.26,2.7,2.7,0,0,1-2.26-1.05,4.35,4.35,0,0,1-.82-2.77Zm1.44.15a3.41,3.41,0,0,0,.49,1.92,1.71,1.71,0,0,0,1.52.73,1.87,1.87,0,0,0,1.09-.3,2.23,2.23,0,0,0,.73-.84v-3.64a2.29,2.29,0,0,0-.73-.81,1.94,1.94,0,0,0-1.07-.29,1.64,1.64,0,0,0-1.53.85,4.46,4.46,0,0,0-.5,2.23Z"/><path d="M281,143.08A3.35,3.35,0,0,1,278.3,142a4.25,4.25,0,0,1-.95-2.87v-.32a4.12,4.12,0,0,1,1-2.83,3.12,3.12,0,0,1,2.41-1.12,2.87,2.87,0,0,1,2.38,1,4.08,4.08,0,0,1,.8,2.63v.76h-5.07l0,0a3.3,3.3,0,0,0,.52,1.94A1.85,1.85,0,0,0,281,142a3.63,3.63,0,0,0,1.29-.21,3,3,0,0,0,.95-.57l.56.94a3.45,3.45,0,0,1-1.12.69A4.41,4.41,0,0,1,281,143.08Zm-.22-7.09a1.55,1.55,0,0,0-1.25.58,2.83,2.83,0,0,0-.61,1.49l0,0h3.57V138a2.35,2.35,0,0,0-.42-1.43A1.56,1.56,0,0,0,280.74,136Z"/><path d="M150,151.4h-3.51v9.53H145V151.4h-3.47v-1.14H150Z"/><path d="M150.26,156.89a4.4,4.4,0,0,1,1-2.9,3.52,3.52,0,0,1,5.19,0,4.34,4.34,0,0,1,1,2.9v.16a4.32,4.32,0,0,1-1,2.9,3.53,3.53,0,0,1-5.18,0,4.34,4.34,0,0,1-1-2.9Zm1.44.16a3.78,3.78,0,0,0,.53,2.08,1.92,1.92,0,0,0,3.15,0,3.69,3.69,0,0,0,.53-2.08v-.16a3.79,3.79,0,0,0-.53-2.07,1.91,1.91,0,0,0-3.15,0,3.79,3.79,0,0,0-.53,2.07Z"/><path d="M161.15,158l.18,1h0l.19-1,1.58-5h1.16l1.59,5,.2,1.14h.05l.23-1.14,1.17-5h1.51l-2.3,7.93H165.6L164,156.1l-.3-1.26h0l-.28,1.26-1.54,4.83H160.7L158.4,153h1.51Z"/><path d="M171.76,153l.11,1.18a2.81,2.81,0,0,1,1-1,2.67,2.67,0,0,1,1.36-.35,2.59,2.59,0,0,1,2,.76,3.28,3.28,0,0,1,.71,2.31v5h-1.45v-5a2.16,2.16,0,0,0-.41-1.48,1.64,1.64,0,0,0-1.26-.44,2.34,2.34,0,0,0-1.14.26,1.91,1.91,0,0,0-.73.76v5.88h-1.45V153Z"/><path d="M188.61,158.24a1.61,1.61,0,0,0-.52-1.22,4.47,4.47,0,0,0-1.83-.83,6.13,6.13,0,0,1-2.54-1.19,2.48,2.48,0,0,1-.91-2,2.66,2.66,0,0,1,1-2.09,3.82,3.82,0,0,1,2.55-.83,3.73,3.73,0,0,1,2.68.95,2.88,2.88,0,0,1,1,2.23l0,.05h-1.38a2,2,0,0,0-.63-1.5,2.58,2.58,0,0,0-3.17-.11,1.66,1.66,0,0,0-.54,1.28,1.44,1.44,0,0,0,.59,1.16,5.49,5.49,0,0,0,1.92.82,5.37,5.37,0,0,1,2.45,1.23,2.67,2.67,0,0,1,.84,2,2.53,2.53,0,0,1-1,2.08,4.24,4.24,0,0,1-2.65.78,4.55,4.55,0,0,1-2.73-.86,2.62,2.62,0,0,1-1.14-2.32v0h1.38a1.79,1.79,0,0,0,.76,1.55,2.9,2.9,0,0,0,1.72.54,2.58,2.58,0,0,0,1.62-.46A1.49,1.49,0,0,0,188.61,158.24Z"/><path d="M191.57,157.11a5.32,5.32,0,0,1,.81-3.08,2.65,2.65,0,0,1,2.29-1.18,2.86,2.86,0,0,1,1.27.28,2.64,2.64,0,0,1,.94.79l.2-.92h1.11v11h-1.44v-3.79a2.53,2.53,0,0,1-.9.67,3,3,0,0,1-1.19.23,2.72,2.72,0,0,1-2.27-1.05,4.35,4.35,0,0,1-.82-2.77Zm1.44.15a3.48,3.48,0,0,0,.5,2A1.69,1.69,0,0,0,195,160a1.92,1.92,0,0,0,1-.26,2.19,2.19,0,0,0,.71-.74v-4a2.16,2.16,0,0,0-.71-.7,1.88,1.88,0,0,0-1-.26,1.63,1.63,0,0,0-1.53.88,4.5,4.5,0,0,0-.5,2.24Z"/><path d="M205.46,159.75a2.53,2.53,0,0,1-2.32,1.33,2.55,2.55,0,0,1-2-.83,3.86,3.86,0,0,1-.73-2.58V153h1.45v4.69a3,3,0,0,0,.37,1.74,1.39,1.39,0,0,0,1.17.48,2.37,2.37,0,0,0,1.27-.31,1.94,1.94,0,0,0,.75-.89V153h1.45v7.93h-1.3Z"/><path d="M213.82,160.93c0-.24-.09-.45-.11-.64a3.31,3.31,0,0,1-.05-.55,3.47,3.47,0,0,1-1,1,2.78,2.78,0,0,1-1.4.38,2.59,2.59,0,0,1-1.88-.63,2.32,2.32,0,0,1-.65-1.75,2,2,0,0,1,.92-1.78,4.33,4.33,0,0,1,2.49-.64h1.57v-.78a1.43,1.43,0,0,0-.43-1.1A1.66,1.66,0,0,0,212,154a1.75,1.75,0,0,0-1.13.35,1.07,1.07,0,0,0-.44.84l-1.36,0,0,0a1.92,1.92,0,0,1,.81-1.58,3.33,3.33,0,0,1,2.22-.72,3.26,3.26,0,0,1,2.17.69,2.41,2.41,0,0,1,.82,2v3.82a7.22,7.22,0,0,0,.05.82,3.61,3.61,0,0,0,.16.78Zm-2.4-1.06a2.56,2.56,0,0,0,1.42-.4,2,2,0,0,0,.82-.92v-1.29H212a2.08,2.08,0,0,0-1.4.44,1.29,1.29,0,0,0-.52,1,1.07,1.07,0,0,0,.33.83A1.35,1.35,0,0,0,211.42,159.87Z"/><path d="M221,154.28l-.74-.05a1.68,1.68,0,0,0-1,.27,1.76,1.76,0,0,0-.6.76v5.67H217.2V153h1.28l.14,1.16a2.83,2.83,0,0,1,.84-1,1.92,1.92,0,0,1,1.13-.35,1.55,1.55,0,0,1,.31,0l.24.06Z"/><path d="M225.59,161.08a3.33,3.33,0,0,1-2.66-1.09,4.2,4.2,0,0,1-1-2.87v-.32a4.12,4.12,0,0,1,1-2.83,3.1,3.1,0,0,1,2.4-1.12,2.89,2.89,0,0,1,2.39,1,4.08,4.08,0,0,1,.79,2.63v.76h-5.07l0,0a3.3,3.3,0,0,0,.53,1.94,1.85,1.85,0,0,0,1.61.74,3.63,3.63,0,0,0,1.29-.21,3,3,0,0,0,.94-.57l.57.94a3.68,3.68,0,0,1-1.12.69A4.48,4.48,0,0,1,225.59,161.08Zm-.23-7.09a1.57,1.57,0,0,0-1.25.58,2.75,2.75,0,0,0-.6,1.49v0h3.58V156a2.29,2.29,0,0,0-.43-1.43A1.54,1.54,0,0,0,225.36,154Z"/><path d="M239.37,158.93h0l3.4-8.67h1.8v10.67h-1.45v-8h0l-3.23,8h-1l-3.33-8.27h0v8.26h-1.44V150.26H236Z"/><path d="M248.48,151H247V149.5h1.44Zm0,10H247V153h1.44Z"/><path d="M253.38,155.92l1.69-2.92h1.68l-2.57,3.92,2.65,4h-1.66l-1.76-3-1.75,3H250l2.64-4L250.06,153h1.66Z"/><path d="M261.38,161.08a3.36,3.36,0,0,1-2.67-1.09,4.25,4.25,0,0,1-.95-2.87v-.32a4.16,4.16,0,0,1,1-2.83,3.12,3.12,0,0,1,2.41-1.12,2.87,2.87,0,0,1,2.38,1,4.08,4.08,0,0,1,.8,2.63v.76h-5.07l0,0a3.3,3.3,0,0,0,.52,1.94,1.87,1.87,0,0,0,1.62.74,3.62,3.62,0,0,0,1.28-.21,2.9,2.9,0,0,0,.95-.57l.56.94a3.45,3.45,0,0,1-1.12.69A4.39,4.39,0,0,1,261.38,161.08Zm-.23-7.09a1.57,1.57,0,0,0-1.25.58,2.75,2.75,0,0,0-.6,1.49v0h3.57V156a2.35,2.35,0,0,0-.42-1.43A1.54,1.54,0,0,0,261.15,154Z"/><path d="M265.62,157.11a5.32,5.32,0,0,1,.81-3.08,2.65,2.65,0,0,1,2.29-1.18,2.86,2.86,0,0,1,1.24.26,2.63,2.63,0,0,1,.92.75V149.5h1.44v11.43h-1.11l-.22-1a2.65,2.65,0,0,1-1,.87,2.92,2.92,0,0,1-1.32.29,2.71,2.71,0,0,1-2.27-1.05,4.35,4.35,0,0,1-.82-2.77Zm1.44.15a3.37,3.37,0,0,0,.49,1.93,1.71,1.71,0,0,0,1.52.72,2,2,0,0,0,1.09-.29,2.31,2.31,0,0,0,.72-.82v-3.7a2.19,2.19,0,0,0-.73-.78,1.83,1.83,0,0,0-1.06-.29,1.65,1.65,0,0,0-1.54.85,4.46,4.46,0,0,0-.49,2.23Z"/><path d="M279,157h-4.32v-1.13H279Z"/><path d="M289.3,150.26v7.09a3.41,3.41,0,0,1-1.15,2.74,4.32,4.32,0,0,1-2.94,1,4.08,4.08,0,0,1-2.84-1,3.49,3.49,0,0,1-1.11-2.74v-7.09h1.44v7.09a2.59,2.59,0,0,0,.7,1.91,2.47,2.47,0,0,0,1.81.69,2.68,2.68,0,0,0,1.91-.69,2.49,2.49,0,0,0,.73-1.91v-7.09Z"/><path d="M296,158.8a1,1,0,0,0-.36-.78,3.46,3.46,0,0,0-1.38-.53,5.8,5.8,0,0,1-2.15-.84,1.71,1.71,0,0,1-.75-1.45,2.1,2.1,0,0,1,.83-1.66,3.62,3.62,0,0,1,4.32.05,2.08,2.08,0,0,1,.79,1.7v.05H295.9a1.25,1.25,0,0,0-.45-.93,1.61,1.61,0,0,0-1.14-.42,1.64,1.64,0,0,0-1.14.34,1.08,1.08,0,0,0-.37.82.88.88,0,0,0,.32.73,3.64,3.64,0,0,0,1.35.47,5.53,5.53,0,0,1,2.21.87,1.77,1.77,0,0,1,.75,1.47,2.06,2.06,0,0,1-.85,1.72,4.07,4.07,0,0,1-4.62-.1,2.19,2.19,0,0,1-.83-1.79l0-.05h1.38a1.32,1.32,0,0,0,.57,1.13,2.23,2.23,0,0,0,1.25.35,2,2,0,0,0,1.2-.32A1,1,0,0,0,296,158.8Z"/><path d="M302.51,161.08a3.33,3.33,0,0,1-2.66-1.09,4.2,4.2,0,0,1-1-2.87v-.32a4.12,4.12,0,0,1,1-2.83,3.08,3.08,0,0,1,2.4-1.12,2.89,2.89,0,0,1,2.39,1,4.08,4.08,0,0,1,.79,2.63v.76h-5.07l0,0a3.3,3.3,0,0,0,.53,1.94,1.85,1.85,0,0,0,1.61.74,3.58,3.58,0,0,0,1.28-.21,2.9,2.9,0,0,0,.95-.57l.57.94a3.68,3.68,0,0,1-1.12.69A4.48,4.48,0,0,1,302.51,161.08Zm-.23-7.09a1.57,1.57,0,0,0-1.25.58,2.75,2.75,0,0,0-.6,1.49v0H304V156a2.29,2.29,0,0,0-.43-1.43A1.54,1.54,0,0,0,302.28,154Z"/><path d="M359.05,120.21h-4.49v4.72h-1.45V114.26h6.69v1.14h-5.24v3.67h4.49Z"/><path d="M366.47,122.18h-4l-.95,2.75H360l3.84-10.67h1.24l3.77,10.67H367.4Zm-3.6-1.21h3.19l-1.56-4.58h0Z"/><path d="M371.89,120.31v4.62h-1.45V114.27h3.65a4,4,0,0,1,2.67.78,2.76,2.76,0,0,1,.93,2.25,2.47,2.47,0,0,1-.43,1.43,2.89,2.89,0,0,1-1.25,1,2.16,2.16,0,0,1,1.26.92,3,3,0,0,1,.39,1.59v1a3.17,3.17,0,0,0,.11.9,1.34,1.34,0,0,0,.38.64v.18h-1.49a1.24,1.24,0,0,1-.37-.74,6.4,6.4,0,0,1-.08-1v-1a1.91,1.91,0,0,0-.5-1.39,1.8,1.8,0,0,0-1.36-.52Zm0-1.14h2.05a2.7,2.7,0,0,0,1.77-.47,1.79,1.79,0,0,0,.53-1.41,1.83,1.83,0,0,0-.52-1.4,2.3,2.3,0,0,0-1.63-.49h-2.2Z"/><path d="M381.36,118.51h-1.44V117h1.44Zm0,6.42h-1.44v-1.48h1.44Z"/><path d="M391.46,124.93H390V115.6l-2.33,0V114.5l3.78-.39Z"/><path d="M328.5,141.8h5.2v1.13h-6.64V132.26h1.44Z"/><path d="M334.77,138.89a4.4,4.4,0,0,1,1-2.9,3.52,3.52,0,0,1,5.19,0,4.34,4.34,0,0,1,1,2.9v.16a4.36,4.36,0,0,1-.95,2.9,3.54,3.54,0,0,1-5.19,0,4.34,4.34,0,0,1-1-2.9Zm1.44.16a3.69,3.69,0,0,0,.54,2.08,1.91,1.91,0,0,0,3.14,0,3.69,3.69,0,0,0,.53-2.08v-.16a3.7,3.7,0,0,0-.53-2.07,1.78,1.78,0,0,0-1.58-.83,1.73,1.73,0,0,0-1.56.83,3.71,3.71,0,0,0-.54,2.07Z"/><path d="M345.66,140l.18,1h.05l.19-1,1.58-5h1.16l1.59,5,.2,1.14h.05l.23-1.14,1.17-5h1.51l-2.3,7.93h-1.16l-1.57-4.83-.3-1.26h0l-.28,1.26-1.54,4.83h-1.17L342.92,135h1.5Z"/><path d="M366.52,139.51l0,.05a3.21,3.21,0,0,1-1.06,2.51,4,4,0,0,1-2.86,1,3.77,3.77,0,0,1-2.95-1.28,4.72,4.72,0,0,1-1.14-3.25v-1.9a4.75,4.75,0,0,1,1.14-3.26,3.77,3.77,0,0,1,2.95-1.28,4.18,4.18,0,0,1,2.88,1,3.18,3.18,0,0,1,1,2.55l0,0h-1.38a2.36,2.36,0,0,0-.66-1.77,2.52,2.52,0,0,0-1.86-.66,2.28,2.28,0,0,0-1.93,1,4,4,0,0,0-.72,2.42v1.91a4,4,0,0,0,.72,2.43,2.27,2.27,0,0,0,1.93,1,2.51,2.51,0,0,0,1.86-.65,2.39,2.39,0,0,0,.66-1.79Z"/><path d="M367.88,138.89a4.35,4.35,0,0,1,.95-2.9,3.19,3.19,0,0,1,2.58-1.14A3.23,3.23,0,0,1,374,136a4.33,4.33,0,0,1,1,2.9v.16a4.31,4.31,0,0,1-1,2.9,3.54,3.54,0,0,1-5.19,0,4.38,4.38,0,0,1-.95-2.9Zm1.44.16a3.78,3.78,0,0,0,.53,2.08,1.92,1.92,0,0,0,3.15,0,3.78,3.78,0,0,0,.53-2.08v-.16a3.71,3.71,0,0,0-.54-2.07,1.77,1.77,0,0,0-1.58-.83,1.74,1.74,0,0,0-1.56.83,3.79,3.79,0,0,0-.53,2.07Z"/><path d="M379.27,140.59l.13.56h0l.14-.56L381.4,135h1.48L380,142.93h-1.09L375.92,135h1.48Z"/><path d="M387.36,143.08A3.33,3.33,0,0,1,384.7,142a4.2,4.2,0,0,1-1-2.87v-.32a4.12,4.12,0,0,1,1-2.83,3.08,3.08,0,0,1,2.4-1.12,2.89,2.89,0,0,1,2.39,1,4.14,4.14,0,0,1,.79,2.63v.76h-5.07l0,0a3.3,3.3,0,0,0,.53,1.94,1.85,1.85,0,0,0,1.61.74,3.54,3.54,0,0,0,1.28-.21,2.9,2.9,0,0,0,.95-.57l.57.94a3.68,3.68,0,0,1-1.12.69A4.48,4.48,0,0,1,387.36,143.08Zm-.23-7.09a1.57,1.57,0,0,0-1.25.58,2.75,2.75,0,0,0-.6,1.49v0h3.58V138a2.29,2.29,0,0,0-.43-1.43A1.54,1.54,0,0,0,387.13,136Z"/><path d="M395.68,136.28l-.74-.05a1.65,1.65,0,0,0-1,.27,1.71,1.71,0,0,0-.61.76v5.67h-1.44V135h1.29l.14,1.16a2.71,2.71,0,0,1,.83-1,2,2,0,0,1,1.14-.35,1.45,1.45,0,0,1,.3,0l.25.06Z"/><path d="M402.05,142.93c-.05-.24-.09-.45-.11-.64a3.31,3.31,0,0,1-.05-.55,3.47,3.47,0,0,1-1.05,1,2.75,2.75,0,0,1-1.4.38,2.59,2.59,0,0,1-1.88-.63,2.36,2.36,0,0,1-.65-1.75,2.06,2.06,0,0,1,.92-1.78,4.33,4.33,0,0,1,2.49-.64h1.57v-.78a1.43,1.43,0,0,0-.43-1.1,1.66,1.66,0,0,0-1.2-.41,1.75,1.75,0,0,0-1.13.35,1.06,1.06,0,0,0-.43.84l-1.37,0,0,0a1.92,1.92,0,0,1,.81-1.58,3.37,3.37,0,0,1,2.22-.72,3.25,3.25,0,0,1,2.17.69,2.41,2.41,0,0,1,.82,2v3.82a7.22,7.22,0,0,0,.05.82,4.32,4.32,0,0,0,.16.78Zm-2.39-1.06a2.55,2.55,0,0,0,1.41-.4,2,2,0,0,0,.82-.92v-1.29h-1.62a2,2,0,0,0-1.39.44,1.3,1.3,0,0,0-.53,1,1.07,1.07,0,0,0,.33.83A1.37,1.37,0,0,0,399.66,141.87Z"/><path d="M405.17,139.11A5.24,5.24,0,0,1,406,136a2.62,2.62,0,0,1,2.28-1.18,2.8,2.8,0,0,1,1.32.31,2.5,2.5,0,0,1,1,.87l.18-1h1.15v8a3,3,0,0,1-.89,2.34,3.65,3.65,0,0,1-2.55.82,5.78,5.78,0,0,1-1.24-.16,4.92,4.92,0,0,1-1.16-.43l.21-1.12a4.56,4.56,0,0,0,1,.36,5.22,5.22,0,0,0,1.16.13,2.1,2.1,0,0,0,1.54-.48,2,2,0,0,0,.48-1.46v-.9a2.57,2.57,0,0,1-.93.75,2.92,2.92,0,0,1-1.26.26A2.7,2.7,0,0,1,406,142a4.35,4.35,0,0,1-.82-2.77Zm1.44.15a3.41,3.41,0,0,0,.49,1.92,1.71,1.71,0,0,0,1.52.73,1.87,1.87,0,0,0,1.09-.3,2.32,2.32,0,0,0,.73-.84v-3.64a2.29,2.29,0,0,0-.73-.81,1.94,1.94,0,0,0-1.07-.29,1.64,1.64,0,0,0-1.53.85,4.46,4.46,0,0,0-.5,2.23Z"/><path d="M417.23,143.08a3.35,3.35,0,0,1-2.66-1.09,4.2,4.2,0,0,1-.95-2.87v-.32a4.12,4.12,0,0,1,1-2.83,3.12,3.12,0,0,1,2.41-1.12,2.87,2.87,0,0,1,2.38,1,4.08,4.08,0,0,1,.8,2.63v.76h-5.07l0,0a3.3,3.3,0,0,0,.52,1.94,1.85,1.85,0,0,0,1.61.74,3.63,3.63,0,0,0,1.29-.21,3,3,0,0,0,1-.57l.56.94a3.45,3.45,0,0,1-1.12.69A4.41,4.41,0,0,1,417.23,143.08ZM417,136a1.55,1.55,0,0,0-1.25.58,2.83,2.83,0,0,0-.61,1.49l0,0h3.57V138a2.35,2.35,0,0,0-.42-1.43A1.54,1.54,0,0,0,417,136Z"/><path d="M336.17,151.4h-3.52v9.53h-1.44V151.4h-3.47v-1.14h8.43Z"/><path d="M336.43,156.89a4.35,4.35,0,0,1,.95-2.9,3.19,3.19,0,0,1,2.58-1.14,3.23,3.23,0,0,1,2.61,1.14,4.33,4.33,0,0,1,.95,2.9v.16a4.31,4.31,0,0,1-.95,2.9,3.54,3.54,0,0,1-5.19,0,4.38,4.38,0,0,1-.95-2.9Zm1.44.16a3.78,3.78,0,0,0,.53,2.08,1.92,1.92,0,0,0,3.15,0,3.78,3.78,0,0,0,.53-2.08v-.16a3.71,3.71,0,0,0-.54-2.07A1.77,1.77,0,0,0,340,154a1.74,1.74,0,0,0-1.56.83,3.79,3.79,0,0,0-.53,2.07Z"/><path d="M347.32,158l.18,1h0l.19-1,1.59-5h1.15l1.59,5,.21,1.14h0l.24-1.14,1.17-5h1.51l-2.3,7.93h-1.17l-1.56-4.83-.3-1.26h0l-.28,1.26L348,160.93h-1.17l-2.3-7.93h1.5Z"/><path d="M359.92,161.08a3.34,3.34,0,0,1-2.66-1.09,4.2,4.2,0,0,1-1-2.87v-.32a4.12,4.12,0,0,1,1-2.83,3.12,3.12,0,0,1,2.41-1.12,2.88,2.88,0,0,1,2.38,1,4.08,4.08,0,0,1,.79,2.63v.76h-5.06l0,0a3.3,3.3,0,0,0,.53,1.94,1.85,1.85,0,0,0,1.61.74,3.63,3.63,0,0,0,1.29-.21,3,3,0,0,0,1-.57l.56.94a3.57,3.57,0,0,1-1.12.69A4.41,4.41,0,0,1,359.92,161.08ZM359.7,154a1.55,1.55,0,0,0-1.25.58,2.83,2.83,0,0,0-.61,1.49l0,0h3.57V156a2.35,2.35,0,0,0-.42-1.43A1.56,1.56,0,0,0,359.7,154Z"/><path d="M368.24,154.28l-.74-.05a1.65,1.65,0,0,0-1,.27,1.76,1.76,0,0,0-.6.76v5.67h-1.45V153h1.29l.14,1.16a2.81,2.81,0,0,1,.83-1,2,2,0,0,1,1.14-.35,1.55,1.55,0,0,1,.31,0l.24.06Z"/><path d="M375,151h-1.44V149.5H375Zm0,10h-1.44V153H375Z"/><path d="M378.54,153l.1,1.18a2.92,2.92,0,0,1,1-1,2.64,2.64,0,0,1,1.35-.35,2.6,2.6,0,0,1,2,.76,3.27,3.27,0,0,1,.7,2.31v5h-1.44v-5a2.16,2.16,0,0,0-.41-1.48,1.65,1.65,0,0,0-1.27-.44,2.33,2.33,0,0,0-1.13.26,2,2,0,0,0-.74.76v5.88h-1.44V153Z"/><path d="M391.15,156.65v4.28H389.7V150.26h4.08a3.81,3.81,0,0,1,2.66.88,3.31,3.31,0,0,1,0,4.64,3.81,3.81,0,0,1-2.66.87Zm0-1.13h2.63a1.94,1.94,0,0,0,2.16-2.05,2.13,2.13,0,0,0-.54-1.48,2.1,2.1,0,0,0-1.62-.59h-2.63Z"/><path d="M403.83,160.93c-.05-.24-.09-.45-.11-.64a3.31,3.31,0,0,1-.05-.55,3.47,3.47,0,0,1-1.05,1,2.75,2.75,0,0,1-1.4.38,2.59,2.59,0,0,1-1.88-.63,2.36,2.36,0,0,1-.65-1.75,2.06,2.06,0,0,1,.92-1.78,4.33,4.33,0,0,1,2.49-.64h1.57v-.78a1.46,1.46,0,0,0-.42-1.1A1.7,1.7,0,0,0,402,154a1.77,1.77,0,0,0-1.13.35,1.06,1.06,0,0,0-.43.84l-1.37,0,0,0a1.92,1.92,0,0,1,.81-1.58,3.35,3.35,0,0,1,2.22-.72,3.25,3.25,0,0,1,2.17.69,2.41,2.41,0,0,1,.82,2v3.82a7.22,7.22,0,0,0,.05.82,4.32,4.32,0,0,0,.16.78Zm-2.39-1.06a2.55,2.55,0,0,0,1.41-.4,2,2,0,0,0,.82-.92v-1.29h-1.62a2,2,0,0,0-1.39.44,1.3,1.3,0,0,0-.53,1,1.07,1.07,0,0,0,.33.83A1.37,1.37,0,0,0,401.44,159.87Z"/><path d="M411,154.28l-.74-.05a1.7,1.7,0,0,0-1,.27,1.76,1.76,0,0,0-.6.76v5.67h-1.44V153h1.29l.14,1.16a2.71,2.71,0,0,1,.83-1,2,2,0,0,1,1.14-.35,1.45,1.45,0,0,1,.3,0l.25.06Z"/><path d="M414.65,157.27h-.74v3.66h-1.44V149.5h1.44v6.62h.72L417,153h1.73l-2.88,3.66,3.13,4.27h-1.7Z"/><image width="2508" height="645" transform="matrix(-0.16, 0, 0, 0.16, 422.83, 5.1)" xlink:href="spacematrix univariate.jpg"/></svg>