<svg xmlns="http://www.w3.org/2000/svg" width="360" height="450" viewBox="0 0 360 450"><defs><style>.cls-1{fill:#4d4d4d;}.cls-2{fill:#00a6b3;}.cls-3{fill:#ef4423;}.cls-11,.cls-12,.cls-4,.cls-9{fill:none;}.cls-4{stroke:gray;}.cls-11,.cls-13,.cls-14,.cls-4,.cls-9{stroke-miterlimit:10;}.cls-4,.cls-9{stroke-width:1.42px;}.cls-5{fill:gray;}.cls-6{fill:#ffc432;}.cls-7{fill:#003d50;}.cls-8{fill:#03ad54;}.cls-11,.cls-9{stroke:#00a6b3;}.cls-9{stroke-dasharray:1.42 1.42;}.cls-10,.cls-13,.cls-14{fill:#fff;}.cls-11{stroke-width:1.22px;stroke-dasharray:1.22 1.22;}.cls-12{stroke:#666;stroke-linejoin:round;stroke-width:2.83px;stroke-dasharray:2.85 2.85;}.cls-13{stroke:#fff;stroke-width:0.71px;}.cls-14{stroke:#003d50;stroke-width:0.14px;}</style></defs><title>diagrams</title><g id="Layer_1" data-name="Layer 1"><path class="cls-1" d="M84.19,129.29H80.66l-.77,2.33H78.18l3.47-10h1.58l3.43,10H84.94Zm-3.07-1.39h2.61L82.46,124h0Z"/><path class="cls-1" d="M93.87,128.16a4.15,4.15,0,0,1-.76,2.61,2.5,2.5,0,0,1-2.11,1,2.59,2.59,0,0,1-1.11-.23,2.33,2.33,0,0,1-.84-.66v3.59H87.39V124.22h1.4l.17.93a2.32,2.32,0,0,1,2-1.07,2.45,2.45,0,0,1,2.13,1.09,4.83,4.83,0,0,1,.76,2.85ZM92.22,128a3.58,3.58,0,0,0-.43-1.86,1.38,1.38,0,0,0-1.27-.72,1.68,1.68,0,0,0-.89.23,1.62,1.62,0,0,0-.58.61v3.35a1.5,1.5,0,0,0,.58.59,1.79,1.79,0,0,0,.9.21,1.45,1.45,0,0,0,1.27-.62,2.93,2.93,0,0,0,.42-1.65Z"/><path class="cls-1" d="M101.8,128.16a4.15,4.15,0,0,1-.76,2.61,2.5,2.5,0,0,1-2.11,1,2.59,2.59,0,0,1-1.11-.23,2.25,2.25,0,0,1-.84-.66v3.59H95.32V124.22h1.4l.17.93a2.32,2.32,0,0,1,2-1.07,2.45,2.45,0,0,1,2.13,1.09,4.83,4.83,0,0,1,.76,2.85Zm-1.65-.14a3.68,3.68,0,0,0-.43-1.86,1.38,1.38,0,0,0-1.27-.72,1.66,1.66,0,0,0-.89.23,1.62,1.62,0,0,0-.58.61v3.35a1.5,1.5,0,0,0,.58.59,1.76,1.76,0,0,0,.9.21,1.45,1.45,0,0,0,1.27-.62,2.93,2.93,0,0,0,.42-1.65Z"/><path class="cls-1" d="M105,131.62h-1.66V121H105Z"/><path class="cls-1" d="M108.65,122.41H107V121h1.66Zm0,9.21H107v-7.4h1.66Z"/><path class="cls-1" d="M113.53,130.43a1.44,1.44,0,0,0,1-.35,1.17,1.17,0,0,0,.39-.9h1.5l0,0a2.25,2.25,0,0,1-.83,1.79,3.29,3.29,0,0,1-4.51-.31,4,4,0,0,1-.87-2.66v-.24a4.05,4.05,0,0,1,.87-2.66,3,3,0,0,1,2.46-1.06,2.9,2.9,0,0,1,2.1.78,2.59,2.59,0,0,1,.78,2l0,0h-1.5a1.51,1.51,0,0,0-.38-1,1.26,1.26,0,0,0-1-.42,1.35,1.35,0,0,0-1.28.68,3.42,3.42,0,0,0-.39,1.7V128a3.38,3.38,0,0,0,.39,1.71A1.34,1.34,0,0,0,113.53,130.43Z"/><path class="cls-1" d="M122.25,131.62c-.06-.19-.11-.37-.15-.55a5.24,5.24,0,0,1-.08-.53,3,3,0,0,1-.89.87,2.36,2.36,0,0,1-1.25.35,2.46,2.46,0,0,1-1.78-.6,2.15,2.15,0,0,1-.62-1.63,2,2,0,0,1,.85-1.67,4.1,4.1,0,0,1,2.39-.6H122v-.65a1.19,1.19,0,0,0-.34-.91,1.35,1.35,0,0,0-1-.33,1.38,1.38,0,0,0-.9.27.86.86,0,0,0-.34.71h-1.6v0a1.79,1.79,0,0,1,.78-1.55,3.3,3.3,0,0,1,2.16-.68,3.17,3.17,0,0,1,2.09.66,2.31,2.31,0,0,1,.79,1.89v3.28a6.19,6.19,0,0,0,.06.88,4.78,4.78,0,0,0,.2.83Zm-2-1.19a2.06,2.06,0,0,0,1.12-.32,1.57,1.57,0,0,0,.67-.72V128.3h-1.32a1.69,1.69,0,0,0-1.14.36,1.1,1.1,0,0,0-.41.84.89.89,0,0,0,.28.68A1.2,1.2,0,0,0,120.22,130.43Z"/><path class="cls-1" d="M127.53,122.42v1.8h1.33v1.23h-1.33v4.09a.9.9,0,0,0,.2.65.72.72,0,0,0,.53.2,1.09,1.09,0,0,0,.26,0,1.83,1.83,0,0,0,.25-.06l.18,1.21a1.69,1.69,0,0,1-.51.18,2.35,2.35,0,0,1-.6.07,1.92,1.92,0,0,1-1.44-.54,2.33,2.33,0,0,1-.52-1.68v-4.09h-1.13v-1.23h1.13v-1.8Z"/><path class="cls-1" d="M132,122.41h-1.66V121H132Zm0,9.21h-1.66v-7.4H132Z"/><path class="cls-1" d="M133.52,127.85a4,4,0,0,1,.91-2.71,3.44,3.44,0,0,1,5,0,4,4,0,0,1,.91,2.71V128a4,4,0,0,1-.91,2.72,3.47,3.47,0,0,1-5,0,4,4,0,0,1-.91-2.72Zm1.66.14a3.22,3.22,0,0,0,.43,1.77,1.6,1.6,0,0,0,2.61,0,3.21,3.21,0,0,0,.43-1.76v-.14a3.22,3.22,0,0,0-.43-1.75,1.45,1.45,0,0,0-1.32-.68,1.41,1.41,0,0,0-1.29.68,3.22,3.22,0,0,0-.43,1.75Z"/><path class="cls-1" d="M143.26,124.22l.1,1.07a2.58,2.58,0,0,1,.91-.89,2.46,2.46,0,0,1,1.24-.32,2.32,2.32,0,0,1,1.8.71A3.26,3.26,0,0,1,148,127v4.6H146.3V127a1.78,1.78,0,0,0-.34-1.22,1.28,1.28,0,0,0-1-.37,2,2,0,0,0-.92.2,1.6,1.6,0,0,0-.62.56v5.42h-1.67v-7.4Z"/><path class="cls-1" d="M159,127.37h-4v4.25h-1.67v-10h6.38V123H155v3h4Z"/><path class="cls-1" d="M162.7,122.41H161V121h1.66Zm0,9.21H161v-7.4h1.66Z"/><path class="cls-1" d="M166.33,131.62h-1.66V121h1.66Z"/><path class="cls-1" d="M170,122.41h-1.67V121H170Zm0,9.21h-1.67v-7.4H170Z"/><path class="cls-1" d="M173.32,124.22l.1,1.07a2.58,2.58,0,0,1,.91-.89,2.44,2.44,0,0,1,1.24-.32,2.32,2.32,0,0,1,1.8.71A3.26,3.26,0,0,1,178,127v4.6h-1.67V127a1.78,1.78,0,0,0-.33-1.22,1.28,1.28,0,0,0-1-.37,2.06,2.06,0,0,0-.93.2,1.75,1.75,0,0,0-.62.56v5.42H171.8v-7.4Z"/><path class="cls-1" d="M179.49,128a4.9,4.9,0,0,1,.75-2.85,2.45,2.45,0,0,1,2.14-1.09,2.29,2.29,0,0,1,1.16.29,2.43,2.43,0,0,1,.85.81l.17-1h1.38v7.4a2.8,2.8,0,0,1-.88,2.2,3.68,3.68,0,0,1-2.51.78,5.41,5.41,0,0,1-2.29-.56l.26-1.3a4.43,4.43,0,0,0,.95.33,4.81,4.81,0,0,0,1.07.12,1.89,1.89,0,0,0,1.32-.39,1.53,1.53,0,0,0,.42-1.18v-.76a2.41,2.41,0,0,1-.83.67,2.5,2.5,0,0,1-1.09.23,2.53,2.53,0,0,1-2.12-1,4.21,4.21,0,0,1-.75-2.61Zm1.65.14a2.93,2.93,0,0,0,.4,1.64,1.39,1.39,0,0,0,1.25.61,1.72,1.72,0,0,0,.9-.23,1.6,1.6,0,0,0,.59-.64V126.3a1.91,1.91,0,0,0-.6-.63,1.65,1.65,0,0,0-.88-.23,1.35,1.35,0,0,0-1.26.72,3.72,3.72,0,0,0-.4,1.86Z"/><path class="cls-1" d="M190.71,128.93a2.29,2.29,0,0,1,.46-1.43,6,6,0,0,1,1.39-1.24,5.78,5.78,0,0,1-.74-1.16,2.53,2.53,0,0,1-.24-1.07,2.38,2.38,0,0,1,.7-1.85,2.65,2.65,0,0,1,1.9-.66,2.46,2.46,0,0,1,1.77.65,2.13,2.13,0,0,1,.68,1.58,2.16,2.16,0,0,1-.33,1.2,4.09,4.09,0,0,1-1,1l-.71.51,2.06,2.45a3.49,3.49,0,0,0,.43-.94,3.88,3.88,0,0,0,.16-1.09h1.39a5.38,5.38,0,0,1-.26,1.74,4,4,0,0,1-.77,1.41l1.32,1.56,0,0h-1.87l-.55-.65a4.78,4.78,0,0,1-1.2.59,4.64,4.64,0,0,1-1.35.2,3.41,3.41,0,0,1-2.37-.79A2.59,2.59,0,0,1,190.71,128.93Zm3.29,1.5a3.06,3.06,0,0,0,.85-.12,3.11,3.11,0,0,0,.79-.36l-2.22-2.63-.18.13a2.35,2.35,0,0,0-.7.74,1.66,1.66,0,0,0-.17.68,1.55,1.55,0,0,0,.43,1.13A1.62,1.62,0,0,0,194,130.43Zm-.86-6.42a1.5,1.5,0,0,0,.16.67,3.43,3.43,0,0,0,.49.76l.74-.5a1.24,1.24,0,0,0,.52-.53,1.34,1.34,0,0,0,.14-.61,1,1,0,0,0-.29-.66,1,1,0,0,0-.74-.29.9.9,0,0,0-.75.34A1.28,1.28,0,0,0,193.14,124Z"/><path class="cls-1" d="M86.28,145.16v0a3,3,0,0,1-1,2.43,3.83,3.83,0,0,1-2.71.93,3.66,3.66,0,0,1-2.82-1.17,4.27,4.27,0,0,1-1.08-3V142.5a4.29,4.29,0,0,1,1.07-3,3.56,3.56,0,0,1,2.78-1.18,4.08,4.08,0,0,1,2.77.89,3.05,3.05,0,0,1,1,2.46l0,0h-1.6a2,2,0,0,0-.54-1.53,2.19,2.19,0,0,0-1.59-.53,1.88,1.88,0,0,0-1.6.81,3.27,3.27,0,0,0-.59,2v1.91a3.33,3.33,0,0,0,.6,2,1.93,1.93,0,0,0,1.64.8,2.08,2.08,0,0,0,1.55-.53,2.12,2.12,0,0,0,.53-1.54Z"/><path class="cls-1" d="M87.41,144.65a4,4,0,0,1,.91-2.71,3.44,3.44,0,0,1,5,0,4,4,0,0,1,.91,2.71v.14a4,4,0,0,1-.91,2.72,3.47,3.47,0,0,1-5,0,4,4,0,0,1-.91-2.72Zm1.66.14a3.25,3.25,0,0,0,.43,1.77,1.6,1.6,0,0,0,2.61,0,3.21,3.21,0,0,0,.44-1.76v-.14a3.22,3.22,0,0,0-.44-1.75,1.44,1.44,0,0,0-1.31-.68,1.42,1.42,0,0,0-1.3.68,3.31,3.31,0,0,0-.43,1.75Z"/><path class="cls-1" d="M97.17,141l.09,1a2.44,2.44,0,0,1,.91-.81,2.66,2.66,0,0,1,1.26-.29,2.25,2.25,0,0,1,1.24.33,2,2,0,0,1,.78,1,2.55,2.55,0,0,1,.91-1,2.44,2.44,0,0,1,1.31-.35,2.17,2.17,0,0,1,1.76.78,3.62,3.62,0,0,1,.64,2.35v4.41h-1.66V144a2.2,2.2,0,0,0-.32-1.36,1.18,1.18,0,0,0-1-.4,1.45,1.45,0,0,0-.9.29,1.64,1.64,0,0,0-.53.77,1,1,0,0,0,0,.18v4.94H100V144a2.19,2.19,0,0,0-.33-1.35,1.19,1.19,0,0,0-1-.41,1.74,1.74,0,0,0-.86.2,1.41,1.41,0,0,0-.56.55v5.43H95.65V141Z"/><path class="cls-1" d="M109.34,141l.09,1a2.44,2.44,0,0,1,.91-.81,2.69,2.69,0,0,1,1.26-.29,2.28,2.28,0,0,1,1.25.33,2.09,2.09,0,0,1,.78,1,2.6,2.6,0,0,1,.9-1,2.44,2.44,0,0,1,1.31-.35,2.17,2.17,0,0,1,1.76.78,3.62,3.62,0,0,1,.65,2.35v4.41h-1.66V144a2.13,2.13,0,0,0-.33-1.36,1.16,1.16,0,0,0-1-.4,1.41,1.41,0,0,0-.9.29,1.59,1.59,0,0,0-.54.77c0,.07,0,.13,0,.18s0,.1,0,.14v4.8h-1.66V144a2.12,2.12,0,0,0-.34-1.35,1.18,1.18,0,0,0-1-.41,1.76,1.76,0,0,0-.86.2,1.39,1.39,0,0,0-.55.55v5.43h-1.67V141Z"/><path class="cls-1" d="M124.61,147.32a2.51,2.51,0,0,1-.88.92,2.38,2.38,0,0,1-1.24.32,2.33,2.33,0,0,1-1.86-.78,3.75,3.75,0,0,1-.67-2.43V141h1.66v4.34a2.41,2.41,0,0,0,.31,1.45,1.13,1.13,0,0,0,.95.4,2.19,2.19,0,0,0,1-.22,1.5,1.5,0,0,0,.64-.63V141h1.66v7.4h-1.43Z"/><path class="cls-1" d="M129.43,141l.1,1.07a2.58,2.58,0,0,1,.91-.89,2.46,2.46,0,0,1,1.24-.32,2.32,2.32,0,0,1,1.8.71,3.25,3.25,0,0,1,.65,2.22v4.61h-1.66v-4.59a1.77,1.77,0,0,0-.34-1.23,1.31,1.31,0,0,0-1-.36,2,2,0,0,0-.92.2,1.6,1.6,0,0,0-.62.56v5.42h-1.66V141Z"/><path class="cls-1" d="M137.63,139.21H136v-1.46h1.66Zm0,9.21H136V141h1.66Z"/><path class="cls-1" d="M141.61,139.22V141h1.33v1.23h-1.33v4.09a.9.9,0,0,0,.2.65.72.72,0,0,0,.53.2,1.24,1.24,0,0,0,.27,0,2.1,2.1,0,0,0,.24-.06l.18,1.21a1.73,1.73,0,0,1-.5.18,2.48,2.48,0,0,1-.61.07,1.92,1.92,0,0,1-1.44-.54,2.33,2.33,0,0,1-.52-1.68v-4.09h-1.13V141H140v-1.8Z"/><path class="cls-1" d="M146.73,145.45l.17.74h0l1.62-5.17h1.82l-3.06,8.52a4.06,4.06,0,0,1-.83,1.32,2,2,0,0,1-1.51.54,2.25,2.25,0,0,1-.44,0l-.46-.09.19-1.29.25,0,.25,0a.93.93,0,0,0,.72-.31,2.83,2.83,0,0,0,.44-.71l.27-.67L143.51,141h1.82Z"/><path class="cls-1" d="M160.07,146.12h0l2.88-7.66h2.12v10h-1.66v-7.15h0l-2.74,7.16h-1.15l-2.78-7.3-.05,0v7.28H155v-10h2.18Z"/><path class="cls-1" d="M170.17,148.56a3.22,3.22,0,0,1-2.53-1,3.83,3.83,0,0,1-.91-2.65v-.28a4,4,0,0,1,.91-2.68,3,3,0,0,1,2.36-1.05,2.77,2.77,0,0,1,2.25.92,3.72,3.72,0,0,1,.77,2.46v.89h-4.57l0,0a2.47,2.47,0,0,0,.48,1.48,1.65,1.65,0,0,0,1.36.56,3.72,3.72,0,0,0,1.17-.16,3.48,3.48,0,0,0,.92-.47l.54,1.08a3.39,3.39,0,0,1-1.12.63A4.9,4.9,0,0,1,170.17,148.56Zm-.17-6.34a1.28,1.28,0,0,0-1,.46,2.41,2.41,0,0,0-.49,1.22l0,0h2.89v-.13a1.85,1.85,0,0,0-.33-1.15A1.21,1.21,0,0,0,170,142.22Z"/><path class="cls-1" d="M177.5,148.56a3.22,3.22,0,0,1-2.53-1,3.83,3.83,0,0,1-.91-2.65v-.28a4,4,0,0,1,.91-2.68,3,3,0,0,1,2.36-1.05,2.77,2.77,0,0,1,2.25.92,3.72,3.72,0,0,1,.77,2.46v.89h-4.58v0a2.47,2.47,0,0,0,.48,1.48,1.65,1.65,0,0,0,1.36.56,3.72,3.72,0,0,0,1.17-.16,3.48,3.48,0,0,0,.92-.47l.54,1.08a3.5,3.5,0,0,1-1.12.63A5,5,0,0,1,177.5,148.56Zm-.17-6.34a1.28,1.28,0,0,0-1,.46,2.32,2.32,0,0,0-.49,1.22v0h2.9v-.13a1.79,1.79,0,0,0-.34-1.15A1.2,1.2,0,0,0,177.33,142.22Z"/><path class="cls-1" d="M183.82,139.22V141h1.33v1.23h-1.33v4.09a.86.86,0,0,0,.2.65.72.72,0,0,0,.52.2,1.24,1.24,0,0,0,.27,0,1.83,1.83,0,0,0,.25-.06l.17,1.21a1.63,1.63,0,0,1-.5.18,2.35,2.35,0,0,1-.6.07,1.92,1.92,0,0,1-1.44-.54,2.33,2.33,0,0,1-.52-1.68v-4.09H181V141h1.13v-1.8Z"/><path class="cls-1" d="M188.26,139.21h-1.67v-1.46h1.67Zm0,9.21h-1.67V141h1.67Z"/><path class="cls-1" d="M191.62,141l.09,1.07a2.69,2.69,0,0,1,.92-.89,2.44,2.44,0,0,1,1.24-.32,2.32,2.32,0,0,1,1.8.71,3.25,3.25,0,0,1,.65,2.22v4.61h-1.67v-4.59a1.83,1.83,0,0,0-.33-1.23,1.31,1.31,0,0,0-1-.36,2.06,2.06,0,0,0-.93.2,1.75,1.75,0,0,0-.62.56v5.42H190.1V141Z"/><path class="cls-1" d="M197.79,144.82a4.9,4.9,0,0,1,.75-2.85,2.45,2.45,0,0,1,2.14-1.09,2.29,2.29,0,0,1,1.16.29,2.35,2.35,0,0,1,.85.81l.17-1h1.38v7.4a2.8,2.8,0,0,1-.88,2.2,3.68,3.68,0,0,1-2.51.78,5.41,5.41,0,0,1-2.29-.56l.26-1.3a4.43,4.43,0,0,0,1,.33,4.81,4.81,0,0,0,1.07.12,1.89,1.89,0,0,0,1.32-.39,1.53,1.53,0,0,0,.42-1.18v-.76a2.41,2.41,0,0,1-.83.67,2.5,2.5,0,0,1-1.09.23,2.53,2.53,0,0,1-2.12-1,4.21,4.21,0,0,1-.75-2.61Zm1.65.14a2.93,2.93,0,0,0,.4,1.64,1.39,1.39,0,0,0,1.25.61,1.72,1.72,0,0,0,.9-.23,1.6,1.6,0,0,0,.59-.64V143.1a1.82,1.82,0,0,0-.6-.63,1.65,1.65,0,0,0-.88-.23,1.35,1.35,0,0,0-1.26.72,3.72,3.72,0,0,0-.4,1.86Z"/><path class="cls-1" d="M210.13,146.39a.79.79,0,0,0-.32-.63,3.3,3.3,0,0,0-1.23-.45,5.15,5.15,0,0,1-2-.78,1.68,1.68,0,0,1-.69-1.4,2,2,0,0,1,.79-1.59,3.1,3.1,0,0,1,2.07-.66,3.25,3.25,0,0,1,2.14.68,2,2,0,0,1,.77,1.64v0h-1.59a1,1,0,0,0-.36-.78,1.34,1.34,0,0,0-.95-.33,1.38,1.38,0,0,0-.92.27.85.85,0,0,0-.31.67.73.73,0,0,0,.29.6,3.12,3.12,0,0,0,1.21.4,5,5,0,0,1,2,.81,1.69,1.69,0,0,1,.69,1.42,2,2,0,0,1-.82,1.63,3.47,3.47,0,0,1-2.17.63,3.34,3.34,0,0,1-2.28-.74,2.09,2.09,0,0,1-.79-1.69v0h1.55a1.11,1.11,0,0,0,.46.94,1.86,1.86,0,0,0,1.07.29,1.69,1.69,0,0,0,1-.25A.8.8,0,0,0,210.13,146.39Z"/><path class="cls-1" d="M80.51,209.31h5.06v1.32h-7v-1L83.42,202H78.6v-1.33h6.79v1Z"/><path class="cls-1" d="M86.56,206.87a4,4,0,0,1,.9-2.71,3.45,3.45,0,0,1,5,0,4,4,0,0,1,.91,2.71V207a4,4,0,0,1-.91,2.72A3.1,3.1,0,0,1,90,210.78a3.15,3.15,0,0,1-2.5-1.06,4,4,0,0,1-.9-2.71Zm1.66.14a3.3,3.3,0,0,0,.42,1.76,1.6,1.6,0,0,0,2.62,0,3.21,3.21,0,0,0,.43-1.76v-.14a3.22,3.22,0,0,0-.43-1.75,1.45,1.45,0,0,0-1.32-.69,1.41,1.41,0,0,0-1.29.69,3.22,3.22,0,0,0-.43,1.75Z"/><path class="cls-1" d="M96.3,203.24l.09,1.06a2.66,2.66,0,0,1,.92-.88,2.44,2.44,0,0,1,1.24-.32,2.32,2.32,0,0,1,1.8.71A3.22,3.22,0,0,1,101,206v4.6H99.33V206a1.8,1.8,0,0,0-.33-1.22,1.31,1.31,0,0,0-1-.36,2.06,2.06,0,0,0-.93.2,1.59,1.59,0,0,0-.62.56v5.41H94.78v-7.39Z"/><path class="cls-1" d="M104.5,201.42h-1.67V200h1.67Zm0,9.21h-1.67v-7.39h1.67Z"/><path class="cls-1" d="M107.86,203.24l.09,1.06a2.66,2.66,0,0,1,.92-.88,2.44,2.44,0,0,1,1.24-.32,2.32,2.32,0,0,1,1.8.71,3.22,3.22,0,0,1,.64,2.22v4.6h-1.66V206a1.8,1.8,0,0,0-.33-1.22,1.32,1.32,0,0,0-1-.36,2.06,2.06,0,0,0-.93.2,1.59,1.59,0,0,0-.62.56v5.41h-1.66v-7.39Z"/><path class="cls-1" d="M114,207a4.94,4.94,0,0,1,.76-2.86,2.47,2.47,0,0,1,2.14-1.08,2.29,2.29,0,0,1,1.16.28,2.38,2.38,0,0,1,.85.82l.17-1h1.38v7.39a2.83,2.83,0,0,1-.88,2.21,3.68,3.68,0,0,1-2.51.78,4.93,4.93,0,0,1-1.16-.15,5.54,5.54,0,0,1-1.13-.41l.26-1.31a4.43,4.43,0,0,0,1,.33,4.74,4.74,0,0,0,1.07.12,1.89,1.89,0,0,0,1.32-.38,1.54,1.54,0,0,0,.42-1.19v-.76a2.44,2.44,0,0,1-.83.68,2.73,2.73,0,0,1-3.21-.77,4.18,4.18,0,0,1-.76-2.6Zm1.66.14a2.89,2.89,0,0,0,.4,1.63,1.37,1.37,0,0,0,1.25.61,1.66,1.66,0,0,0,.89-.22,1.61,1.61,0,0,0,.6-.64v-3.24a1.82,1.82,0,0,0-.6-.63,1.67,1.67,0,0,0-.88-.23,1.36,1.36,0,0,0-1.26.71,3.79,3.79,0,0,0-.4,1.87Z"/><path class="cls-1" d="M125.87,210.63v-9.95h3.26a4.32,4.32,0,0,1,2.58.68,2.35,2.35,0,0,1,.93,2,2.09,2.09,0,0,1-.37,1.19,2.41,2.41,0,0,1-1,.8,2.21,2.21,0,0,1,1.47.82,2.47,2.47,0,0,1,.52,1.57,2.55,2.55,0,0,1-.92,2.13,3.93,3.93,0,0,1-2.53.73Zm1.66-5.76h1.78a1.85,1.85,0,0,0,1.22-.37,1.24,1.24,0,0,0,.45-1,1.31,1.31,0,0,0-.47-1.1,2.27,2.27,0,0,0-1.38-.36h-1.6Zm0,1.24v3.2h2.24a2,2,0,0,0,1.33-.4,1.41,1.41,0,0,0,.47-1.14,1.6,1.6,0,0,0-.46-1.19,1.88,1.88,0,0,0-1.29-.47h-2.29Z"/><path class="cls-1" d="M134.31,206.87a4,4,0,0,1,.9-2.71,3.45,3.45,0,0,1,5,0,4,4,0,0,1,.9,2.71V207a4,4,0,0,1-.9,2.72,3.47,3.47,0,0,1-5,0,4,4,0,0,1-.9-2.71ZM136,207a3.3,3.3,0,0,0,.42,1.76,1.44,1.44,0,0,0,1.31.68,1.46,1.46,0,0,0,1.31-.68,3.21,3.21,0,0,0,.43-1.76v-.14a3.22,3.22,0,0,0-.43-1.75,1.45,1.45,0,0,0-1.32-.69,1.43,1.43,0,0,0-1.3.69,3.31,3.31,0,0,0-.42,1.75Z"/><path class="cls-1" d="M147,210.63a5.62,5.62,0,0,1-.15-.55,4.51,4.51,0,0,1-.07-.53,2.88,2.88,0,0,1-.9.87,2.25,2.25,0,0,1-1.25.36,2.47,2.47,0,0,1-1.78-.6,2.16,2.16,0,0,1-.61-1.63,1.92,1.92,0,0,1,.84-1.67,4.1,4.1,0,0,1,2.39-.6h1.29v-.65a1.19,1.19,0,0,0-.34-.91,1.33,1.33,0,0,0-1-.33,1.38,1.38,0,0,0-.9.27.86.86,0,0,0-.33.7h-1.6v0a1.83,1.83,0,0,1,.78-1.55,3.27,3.27,0,0,1,2.16-.68,3.2,3.2,0,0,1,2.09.65,2.31,2.31,0,0,1,.79,1.89v3.29a6.19,6.19,0,0,0,.06.88,5.77,5.77,0,0,0,.2.82Zm-2-1.19a2.05,2.05,0,0,0,1.12-.31,1.57,1.57,0,0,0,.67-.72v-1.09h-1.32a1.65,1.65,0,0,0-1.13.36,1.07,1.07,0,0,0-.41.84.86.86,0,0,0,.27.67A1.15,1.15,0,0,0,145,209.44Z"/><path class="cls-1" d="M153.84,204.73l-.71,0a1.48,1.48,0,0,0-.81.2,1.42,1.42,0,0,0-.5.58v5.14h-1.66v-7.39h1.52l.11,1.07a2.22,2.22,0,0,1,.72-.89,1.69,1.69,0,0,1,1-.32l.28,0,.24.06Z"/><path class="cls-1" d="M154.64,207a4.86,4.86,0,0,1,.76-2.86,2.44,2.44,0,0,1,2.13-1.08,2.3,2.3,0,0,1,1.9.94V200h1.66v10.66h-1.35l-.2-.93a2.34,2.34,0,0,1-2,1.08,2.48,2.48,0,0,1-2.11-1,4.12,4.12,0,0,1-.76-2.6Zm1.66.14a3,3,0,0,0,.39,1.63,1.37,1.37,0,0,0,1.25.61,1.66,1.66,0,0,0,.89-.22,1.8,1.8,0,0,0,.6-.65v-3.22a1.77,1.77,0,0,0-.6-.64,1.67,1.67,0,0,0-.88-.23,1.35,1.35,0,0,0-1.25.71,3.79,3.79,0,0,0-.4,1.87Z"/><path class="cls-1" d="M166.05,206.87a4,4,0,0,1,.91-2.71,3.44,3.44,0,0,1,5,0,4,4,0,0,1,.91,2.71V207a4,4,0,0,1-.91,2.72,3.45,3.45,0,0,1-5,0,4,4,0,0,1-.91-2.71Zm1.66.14a3.21,3.21,0,0,0,.43,1.76,1.59,1.59,0,0,0,2.61,0,3.21,3.21,0,0,0,.44-1.76v-.14a3.22,3.22,0,0,0-.44-1.75,1.45,1.45,0,0,0-1.31-.69,1.43,1.43,0,0,0-1.3.69,3.31,3.31,0,0,0-.43,1.75Z"/><path class="cls-1" d="M174.83,210.63v-6.16H173.7v-1.23h1.13v-.87a2.33,2.33,0,0,1,2.54-2.55,3.88,3.88,0,0,1,.48,0l.56.11-.18,1.28-.3,0a2,2,0,0,0-.36,0,1,1,0,0,0-.81.31,1.3,1.3,0,0,0-.27.88v.87h1.38v1.23h-1.38v6.16Z"/><path class="cls-1" d="M187.87,208.31h-3.53l-.77,2.32h-1.71l3.47-9.95h1.58l3.43,9.95h-1.71Zm-3.07-1.39h2.62L186.14,203h0Z"/><path class="cls-1" d="M197.55,207.18a4.12,4.12,0,0,1-.76,2.6,2.48,2.48,0,0,1-2.11,1,2.59,2.59,0,0,1-1.11-.23,2.33,2.33,0,0,1-.84-.66v3.59h-1.66V203.24h1.4l.17.93a2.34,2.34,0,0,1,.86-.8,2.39,2.39,0,0,1,1.16-.27,2.46,2.46,0,0,1,2.13,1.08,4.86,4.86,0,0,1,.76,2.86ZM195.9,207a3.56,3.56,0,0,0-.43-1.86,1.38,1.38,0,0,0-1.27-.72,1.68,1.68,0,0,0-.89.22,1.73,1.73,0,0,0-.58.62v3.34a1.59,1.59,0,0,0,.58.6,1.79,1.79,0,0,0,.9.21,1.42,1.42,0,0,0,1.27-.63,2.87,2.87,0,0,0,.42-1.64Z"/><path class="cls-1" d="M205.48,207.18a4.12,4.12,0,0,1-.76,2.6,2.48,2.48,0,0,1-2.11,1,2.59,2.59,0,0,1-1.11-.23,2.33,2.33,0,0,1-.84-.66v3.59H199V203.24h1.4l.17.93a2.34,2.34,0,0,1,.86-.8,2.39,2.39,0,0,1,1.16-.27,2.46,2.46,0,0,1,2.13,1.08,4.86,4.86,0,0,1,.76,2.86Zm-1.65-.14a3.56,3.56,0,0,0-.43-1.86,1.38,1.38,0,0,0-1.27-.72,1.68,1.68,0,0,0-.89.22,1.73,1.73,0,0,0-.58.62v3.34a1.59,1.59,0,0,0,.58.6,1.79,1.79,0,0,0,.9.21,1.42,1.42,0,0,0,1.27-.63,2.87,2.87,0,0,0,.42-1.64Z"/><path class="cls-1" d="M210.07,210.78a3.21,3.21,0,0,1-2.53-1,3.82,3.82,0,0,1-.92-2.65v-.27a4,4,0,0,1,.92-2.68,2.9,2.9,0,0,1,2.35-1.05,2.79,2.79,0,0,1,2.26.92,3.71,3.71,0,0,1,.76,2.46v.89h-4.57v0a2.37,2.37,0,0,0,.47,1.47,1.66,1.66,0,0,0,1.37.57,4,4,0,0,0,1.17-.16,3.37,3.37,0,0,0,.92-.48l.54,1.09a3.6,3.6,0,0,1-1.12.62A4.69,4.69,0,0,1,210.07,210.78Zm-.18-6.35a1.3,1.3,0,0,0-1,.47,2.28,2.28,0,0,0-.48,1.22v0h2.89V206a1.89,1.89,0,0,0-.33-1.15A1.24,1.24,0,0,0,209.89,204.43Z"/><path class="cls-1" d="M218.72,210.63a5.62,5.62,0,0,1-.15-.55,3.08,3.08,0,0,1-.08-.53,2.74,2.74,0,0,1-.89.87,2.31,2.31,0,0,1-1.26.36,2.43,2.43,0,0,1-1.77-.6,2.17,2.17,0,0,1-.62-1.63,1.9,1.9,0,0,1,.85-1.67,4.1,4.1,0,0,1,2.39-.6h1.29v-.65a1.19,1.19,0,0,0-.34-.91,1.35,1.35,0,0,0-1-.33,1.38,1.38,0,0,0-.9.27.84.84,0,0,0-.34.7h-1.6v0a1.82,1.82,0,0,1,.79-1.55,3.73,3.73,0,0,1,4.25,0,2.34,2.34,0,0,1,.79,1.89v3.29a6.19,6.19,0,0,0,.06.88,4.67,4.67,0,0,0,.2.82Zm-2-1.19a2.05,2.05,0,0,0,1.12-.31,1.57,1.57,0,0,0,.67-.72v-1.09h-1.32a1.68,1.68,0,0,0-1.14.36,1.1,1.1,0,0,0-.41.84.87.87,0,0,0,.28.67A1.13,1.13,0,0,0,216.69,209.44Z"/><path class="cls-1" d="M223.65,210.63H222V200h1.67Z"/><path class="cls-1" d="M229.66,208.61a.76.76,0,0,0-.32-.63,3.3,3.3,0,0,0-1.23-.45,5,5,0,0,1-2-.79,1.64,1.64,0,0,1-.69-1.39,2,2,0,0,1,.79-1.59,3.1,3.1,0,0,1,2.07-.66,3.25,3.25,0,0,1,2.14.68,2,2,0,0,1,.77,1.64v0h-1.59a1.06,1.06,0,0,0-.36-.79,1.59,1.59,0,0,0-1.87,0,.84.84,0,0,0-.31.67.73.73,0,0,0,.29.6,3.3,3.3,0,0,0,1.21.4,5,5,0,0,1,2,.8,1.71,1.71,0,0,1,.69,1.42,2,2,0,0,1-.82,1.63,3.48,3.48,0,0,1-2.17.64A3.34,3.34,0,0,1,226,210a2.11,2.11,0,0,1-.79-1.7l0,0h1.54a1.12,1.12,0,0,0,.46.94,1.94,1.94,0,0,0,1.07.29,1.67,1.67,0,0,0,1-.25A.8.8,0,0,0,229.66,208.61Z"/><path class="cls-1" d="M238.1,206.86v3.77h-1.66v-9.95h3.82a3.68,3.68,0,0,1,2.58.85,3.16,3.16,0,0,1,0,4.48,3.68,3.68,0,0,1-2.58.85Zm0-1.33h2.16a1.81,1.81,0,0,0,1.38-.5,1.73,1.73,0,0,0,.47-1.25,1.8,1.8,0,0,0-.47-1.26,1.77,1.77,0,0,0-1.38-.51H238.1Z"/><path class="cls-1" d="M248.87,204.73l-.71,0a1.48,1.48,0,0,0-.81.2,1.29,1.29,0,0,0-.5.58v5.14h-1.66v-7.39h1.51l.11,1.07a2.4,2.4,0,0,1,.72-.89,1.74,1.74,0,0,1,1-.32l.28,0,.24.06Z"/><path class="cls-1" d="M249.66,206.87a4,4,0,0,1,.9-2.71,3.45,3.45,0,0,1,5,0,4,4,0,0,1,.9,2.71V207a4,4,0,0,1-.9,2.72,3.47,3.47,0,0,1-5,0,4,4,0,0,1-.9-2.71Zm1.66.14a3.3,3.3,0,0,0,.42,1.76,1.44,1.44,0,0,0,1.31.68,1.46,1.46,0,0,0,1.31-.68,3.21,3.21,0,0,0,.43-1.76v-.14a3.22,3.22,0,0,0-.43-1.75,1.45,1.45,0,0,0-1.32-.69,1.41,1.41,0,0,0-1.29.69,3.22,3.22,0,0,0-.43,1.75Z"/><path class="cls-1" d="M260.91,209.45a1.36,1.36,0,0,0,1-.36,1.14,1.14,0,0,0,.39-.9h1.51v0A2.23,2.23,0,0,1,263,210a3,3,0,0,1-2,.76,3,3,0,0,1-2.47-1.06,4,4,0,0,1-.87-2.66v-.24a4.05,4.05,0,0,1,.87-2.66,3,3,0,0,1,2.46-1.06,2.9,2.9,0,0,1,2.1.78,2.5,2.5,0,0,1,.78,2v0h-1.51a1.48,1.48,0,0,0-.37-1,1.25,1.25,0,0,0-1-.43,1.36,1.36,0,0,0-1.28.69,3.39,3.39,0,0,0-.39,1.7v.24a3.38,3.38,0,0,0,.39,1.71A1.38,1.38,0,0,0,260.91,209.45Z"/><path class="cls-1" d="M268.31,210.78a3.23,3.23,0,0,1-2.53-1,3.81,3.81,0,0,1-.91-2.65v-.27a3.94,3.94,0,0,1,.91-2.68,2.91,2.91,0,0,1,2.35-1.05,2.78,2.78,0,0,1,2.26.92,3.72,3.72,0,0,1,.77,2.46v.89h-4.58v0a2.44,2.44,0,0,0,.48,1.47,1.62,1.62,0,0,0,1.36.57,4,4,0,0,0,1.17-.16,3.23,3.23,0,0,0,.92-.48l.54,1.09a3.49,3.49,0,0,1-1.12.62A4.69,4.69,0,0,1,268.31,210.78Zm-.18-6.35a1.3,1.3,0,0,0-1,.47,2.28,2.28,0,0,0-.48,1.22v0h2.89V206a1.89,1.89,0,0,0-.33-1.15A1.24,1.24,0,0,0,268.13,204.43Z"/><path class="cls-1" d="M276.66,208.61a.74.74,0,0,0-.33-.63,3.17,3.17,0,0,0-1.22-.45,5,5,0,0,1-2-.79,1.64,1.64,0,0,1-.69-1.39,2,2,0,0,1,.79-1.59,3.1,3.1,0,0,1,2.07-.66,3.22,3.22,0,0,1,2.13.68,2,2,0,0,1,.78,1.64v0h-1.6a1.09,1.09,0,0,0-.35-.79,1.36,1.36,0,0,0-1-.33,1.33,1.33,0,0,0-.92.28.84.84,0,0,0-.31.67.7.7,0,0,0,.29.6,3.3,3.3,0,0,0,1.21.4,5,5,0,0,1,2.05.8,1.71,1.71,0,0,1,.69,1.42,2,2,0,0,1-.82,1.63,3.48,3.48,0,0,1-2.17.64A3.34,3.34,0,0,1,273,210a2.11,2.11,0,0,1-.79-1.7v0h1.55a1.12,1.12,0,0,0,.46.94,1.92,1.92,0,0,0,1.07.29,1.69,1.69,0,0,0,1-.25A.8.8,0,0,0,276.66,208.61Z"/><path class="cls-1" d="M283.94,208.61a.74.74,0,0,0-.33-.63,3.17,3.17,0,0,0-1.22-.45,5,5,0,0,1-2-.79,1.64,1.64,0,0,1-.69-1.39,2,2,0,0,1,.79-1.59,3.1,3.1,0,0,1,2.07-.66,3.22,3.22,0,0,1,2.13.68,2,2,0,0,1,.78,1.64v0h-1.6a1.05,1.05,0,0,0-.35-.79,1.36,1.36,0,0,0-.95-.33,1.33,1.33,0,0,0-.92.28.84.84,0,0,0-.31.67.7.7,0,0,0,.29.6,3.3,3.3,0,0,0,1.21.4,5,5,0,0,1,2.05.8,1.71,1.71,0,0,1,.69,1.42,2,2,0,0,1-.82,1.63,3.48,3.48,0,0,1-2.17.64,3.34,3.34,0,0,1-2.28-.74,2.11,2.11,0,0,1-.79-1.7v0h1.55a1.12,1.12,0,0,0,.46.94,1.92,1.92,0,0,0,1.07.29,1.69,1.69,0,0,0,1-.25A.8.8,0,0,0,283.94,208.61Z"/><path class="cls-1" d="M78.83,223.38a9.21,9.21,0,0,1,1.07-4.58,5.71,5.71,0,0,1,2.32-2.47h0l.31.91A5.27,5.27,0,0,0,81,219.49a9.87,9.87,0,0,0-.66,3.88v.14a10.07,10.07,0,0,0,.65,3.88,5.67,5.67,0,0,0,1.58,2.28l-.31.88h0a5.63,5.63,0,0,1-2.32-2.48,9.15,9.15,0,0,1-1.07-4.58Z"/><path class="cls-1" d="M85.35,218.22H83.69v-1.45h1.66Zm0,9.21H83.69V220h1.66Z"/><path class="cls-1" d="M87.75,227.43v-6.16H86.63V220h1.12v-.87a2.33,2.33,0,0,1,2.54-2.55,4.22,4.22,0,0,1,.49,0l.55.11-.17,1.28-.31-.05-.35,0a1.06,1.06,0,0,0-.82.31,1.3,1.3,0,0,0-.26.88V220h1.37v1.23H89.42v6.16Z"/><path class="cls-1" d="M99.12,221.53l-.71,0a1.48,1.48,0,0,0-.81.21,1.35,1.35,0,0,0-.5.58v5.14H95.44V220H97l.1,1.07a2.32,2.32,0,0,1,.73-.89,1.69,1.69,0,0,1,1-.32l.28,0,.24.06Z"/><path class="cls-1" d="M103.36,227.58a3.23,3.23,0,0,1-2.53-1,3.81,3.81,0,0,1-.91-2.65v-.27a3.94,3.94,0,0,1,.91-2.68,2.91,2.91,0,0,1,2.35-1,2.78,2.78,0,0,1,2.26.92,3.71,3.71,0,0,1,.76,2.46v.89h-4.57v0a2.31,2.31,0,0,0,.48,1.47,1.62,1.62,0,0,0,1.36.57,3.7,3.7,0,0,0,1.17-.17,3.08,3.08,0,0,0,.92-.47l.54,1.09a3.6,3.6,0,0,1-1.12.62A4.69,4.69,0,0,1,103.36,227.58Zm-.18-6.35a1.3,1.3,0,0,0-1,.47,2.28,2.28,0,0,0-.48,1.22v0h2.89v-.13a1.89,1.89,0,0,0-.33-1.15A1.24,1.24,0,0,0,103.18,221.23Z"/><path class="cls-1" d="M107.24,223.84A4.94,4.94,0,0,1,108,221a2.46,2.46,0,0,1,2.13-1.08,2.32,2.32,0,0,1,2,1l.19-.89h1.35v10.24H112v-3.55a2.23,2.23,0,0,1-.81.63,2.54,2.54,0,0,1-1.06.22,2.5,2.5,0,0,1-2.12-1,4.18,4.18,0,0,1-.76-2.6Zm1.66.14a3.1,3.1,0,0,0,.4,1.65,1.36,1.36,0,0,0,1.24.62,1.74,1.74,0,0,0,.86-.2,1.67,1.67,0,0,0,.59-.59V222a1.72,1.72,0,0,0-.59-.58,1.64,1.64,0,0,0-.84-.21,1.32,1.32,0,0,0-1.25.73,3.85,3.85,0,0,0-.41,1.88Z"/><path class="cls-1" d="M120.09,226.34a2.46,2.46,0,0,1-.87.91,2.35,2.35,0,0,1-1.24.33,2.31,2.31,0,0,1-1.86-.79,3.65,3.65,0,0,1-.67-2.43V220h1.65v4.34a2.43,2.43,0,0,0,.31,1.45,1.13,1.13,0,0,0,1,.39,2.15,2.15,0,0,0,1-.21,1.62,1.62,0,0,0,.64-.63V220h1.66v7.39h-1.42Z"/><path class="cls-1" d="M125.18,218.22h-1.66v-1.45h1.66Zm0,9.21h-1.66V220h1.66Z"/><path class="cls-1" d="M130.72,221.53l-.71,0a1.48,1.48,0,0,0-.81.21,1.42,1.42,0,0,0-.5.58v5.14H127V220h1.52l.11,1.07a2.22,2.22,0,0,1,.72-.89,1.69,1.69,0,0,1,1-.32l.28,0,.24.06Z"/><path class="cls-1" d="M135,227.58a3.23,3.23,0,0,1-2.53-1,3.81,3.81,0,0,1-.91-2.65v-.27a3.94,3.94,0,0,1,.91-2.68,2.92,2.92,0,0,1,2.36-1,2.77,2.77,0,0,1,2.25.92,3.72,3.72,0,0,1,.77,2.46v.89h-4.58v0a2.44,2.44,0,0,0,.48,1.47,1.62,1.62,0,0,0,1.36.57,3.7,3.7,0,0,0,1.17-.17,3,3,0,0,0,.92-.47l.54,1.09a3.49,3.49,0,0,1-1.12.62A4.69,4.69,0,0,1,135,227.58Zm-.17-6.35a1.28,1.28,0,0,0-1,.47,2.29,2.29,0,0,0-.49,1.22v0h2.9v-.13a1.83,1.83,0,0,0-.34-1.15A1.23,1.23,0,0,0,134.79,221.23Z"/><path class="cls-1" d="M138.85,223.84a4.94,4.94,0,0,1,.75-2.86,2.47,2.47,0,0,1,2.14-1.08,2.31,2.31,0,0,1,1.07.24,2.38,2.38,0,0,1,.83.69v-4.06h1.66v10.66H144l-.2-.93a2.34,2.34,0,0,1-2,1.08,2.52,2.52,0,0,1-2.12-1,4.18,4.18,0,0,1-.75-2.6Zm1.66.14a3,3,0,0,0,.39,1.63,1.37,1.37,0,0,0,1.25.61A1.66,1.66,0,0,0,143,226a1.8,1.8,0,0,0,.6-.65v-3.22a1.77,1.77,0,0,0-.6-.64,1.58,1.58,0,0,0-.88-.23,1.35,1.35,0,0,0-1.25.71,3.79,3.79,0,0,0-.4,1.87Z"/><path class="cls-1" d="M150.11,223.49a9,9,0,0,1-1.09,4.57,5.8,5.8,0,0,1-2.34,2.49h0l-.32-.88a5.36,5.36,0,0,0,1.57-2.25,10.07,10.07,0,0,0,.66-3.91v-.14a9.77,9.77,0,0,0-.68-3.88,5.83,5.83,0,0,0-1.55-2.28l.32-.88h0a5.69,5.69,0,0,1,2.34,2.49,9,9,0,0,1,1.09,4.56Z"/><path class="cls-1" d="M79.38,34.85v3.46H77V28.23h3.85a4.24,4.24,0,0,1,2.85.91,3,3,0,0,1,1.05,2.41,3,3,0,0,1-1.05,2.39,4.19,4.19,0,0,1-2.85.91Zm0-1.8h1.51a1.42,1.42,0,0,0,1.57-1.49,1.58,1.58,0,0,0-.4-1.1A1.52,1.52,0,0,0,80.89,30H79.38Z"/><path class="cls-1" d="M90.08,32.81h-.76a1.29,1.29,0,0,0-.66.14,1,1,0,0,0-.38.42v4.94H85.94V30.82h2.2l.09,1.1a2.13,2.13,0,0,1,.62-.91,1.36,1.36,0,0,1,.91-.33l.28,0,.26.06Z"/><path class="cls-1" d="M94.13,38.45a3.49,3.49,0,0,1-2.67-1,3.69,3.69,0,0,1-1-2.61v-.26a4.19,4.19,0,0,1,.91-2.8A3.23,3.23,0,0,1,94,30.68a3,3,0,0,1,2.35.91,3.49,3.49,0,0,1,.83,2.48V35.3H92.93v0a1.44,1.44,0,0,0,.44.95,1.51,1.51,0,0,0,1.09.36,4.46,4.46,0,0,0,1.12-.11,7.31,7.31,0,0,0,1-.35l.56,1.43a4.39,4.39,0,0,1-1.3.59A6.11,6.11,0,0,1,94.13,38.45Zm-.09-6a1,1,0,0,0-.83.36,1.76,1.76,0,0,0-.3,1v0h2v-.18a1.61,1.61,0,0,0-.2-.88A.79.79,0,0,0,94,32.48Z"/><path class="cls-1" d="M102.56,34.87H98.48V33.06h4.08Z"/><path class="cls-1" d="M104.8,38.31V32.44h-1.08V30.82h1.08v-.36a2.87,2.87,0,0,1,.92-2.29,3.86,3.86,0,0,1,2.62-.8,6.49,6.49,0,0,1,1.16.1c.38.07.8.17,1.28.3l-.32,1.84c-.4-.1-.73-.18-1-.23a5.3,5.3,0,0,0-1-.08,1.46,1.46,0,0,0-1,.3,1.1,1.1,0,0,0-.35.86v.36h1.47v1.62h-1.47v5.87Zm7,0H109.5V30.82h2.35Z"/><path class="cls-1" d="M115.73,38.31h-2.35V27.51h2.35Z"/><path class="cls-1" d="M119.61,29.08h-2.34V27.51h2.34Zm0,9.23h-2.34V30.82h2.34Z"/><path class="cls-1" d="M123.2,30.82l.09,1.05a2.61,2.61,0,0,1,.91-.87,2.32,2.32,0,0,1,1.2-.32,2.11,2.11,0,0,1,1.72.75,3.71,3.71,0,0,1,.62,2.37v4.51H125.4V33.79a1.73,1.73,0,0,0-.23-1,.77.77,0,0,0-.66-.3,1.65,1.65,0,0,0-.68.13,1.3,1.3,0,0,0-.49.38v5.32H121V30.82Z"/><path class="cls-1" d="M128.69,34.58a4.79,4.79,0,0,1,.77-2.83,2.5,2.5,0,0,1,2.15-1.07,1.88,1.88,0,0,1,1,.28,2.56,2.56,0,0,1,.78.79l.15-.93h2.06v7.4a2.79,2.79,0,0,1-1,2.3,4.37,4.37,0,0,1-2.79.81,4.82,4.82,0,0,1-1.22-.16,6.3,6.3,0,0,1-1.22-.43l.4-1.73a5.3,5.3,0,0,0,1,.33,4.64,4.64,0,0,0,1,.11,1.71,1.71,0,0,0,1.11-.3,1.15,1.15,0,0,0,.37-.94v-.58a2.07,2.07,0,0,1-1.7.82,2.51,2.51,0,0,1-2.14-1,4.42,4.42,0,0,1-.77-2.71Zm2.34.14a3,3,0,0,0,.26,1.42.94.94,0,0,0,.91.51,1.8,1.8,0,0,0,.65-.11,1.13,1.13,0,0,0,.45-.36V33a1.26,1.26,0,0,0-.45-.41,1.41,1.41,0,0,0-.64-.14.92.92,0,0,0-.9.58,3.44,3.44,0,0,0-.28,1.52Z"/><path class="cls-1" d="M146,35.28h0l2.28-7h3.09V38.31H149V31.82h0l-2.22,6.5h-1.57L143,31.91H143v6.4h-2.33V28.23h3.06Z"/><path class="cls-1" d="M156.17,38.45a3.46,3.46,0,0,1-2.67-1,3.7,3.7,0,0,1-1-2.61v-.26a4.24,4.24,0,0,1,.91-2.8,3.26,3.26,0,0,1,2.64-1.07,3,3,0,0,1,2.35.91,3.54,3.54,0,0,1,.83,2.48V35.3H155v0a1.43,1.43,0,0,0,.43.95,1.55,1.55,0,0,0,1.1.36,4.37,4.37,0,0,0,1.11-.11,7,7,0,0,0,1-.35l.56,1.43a4.46,4.46,0,0,1-1.31.59A6,6,0,0,1,156.17,38.45Zm-.09-6a1,1,0,0,0-.83.36,1.76,1.76,0,0,0-.31,1l0,0h2v-.18a1.52,1.52,0,0,0-.21-.88A.76.76,0,0,0,156.08,32.48Z"/><path class="cls-1" d="M163.57,38.45a3.45,3.45,0,0,1-2.66-1,3.65,3.65,0,0,1-1-2.61v-.26a4.19,4.19,0,0,1,.91-2.8,3.24,3.24,0,0,1,2.63-1.07,3,3,0,0,1,2.35.91,3.5,3.5,0,0,1,.84,2.48V35.3h-4.29l0,0a1.44,1.44,0,0,0,.44.95,1.52,1.52,0,0,0,1.09.36,4.46,4.46,0,0,0,1.12-.11,6.53,6.53,0,0,0,1-.35l.56,1.43a4.39,4.39,0,0,1-1.3.59A6.06,6.06,0,0,1,163.57,38.45Zm-.09-6a.94.94,0,0,0-.82.36,1.76,1.76,0,0,0-.31,1v0h2v-.18a1.61,1.61,0,0,0-.2-.88A.79.79,0,0,0,163.48,32.48Z"/><path class="cls-1" d="M170.34,29v1.86h1.19v1.62h-1.19v3.43a.89.89,0,0,0,.16.58.57.57,0,0,0,.44.18l.29,0,.27,0,.16,1.73a4.3,4.3,0,0,1-.63.12,4.47,4.47,0,0,1-.67,0,2.34,2.34,0,0,1-1.76-.61,2.72,2.72,0,0,1-.6-2V32.44h-1V30.82h1V29Z"/><path class="cls-1" d="M175.11,29.08h-2.35V27.51h2.35Zm0,9.23h-2.35V30.82h2.35Z"/><path class="cls-1" d="M178.7,30.82l.09,1.05a2.67,2.67,0,0,1,.9-.87,2.35,2.35,0,0,1,1.21-.32,2.12,2.12,0,0,1,1.72.75,3.71,3.71,0,0,1,.62,2.37v4.51H180.9V33.79a1.73,1.73,0,0,0-.23-1,.79.79,0,0,0-.67-.3,1.6,1.6,0,0,0-.67.13,1.33,1.33,0,0,0-.5.38v5.32H176.5V30.82Z"/><path class="cls-1" d="M184.19,34.58a4.79,4.79,0,0,1,.77-2.83,2.48,2.48,0,0,1,2.15-1.07,1.91,1.91,0,0,1,1,.28,2.43,2.43,0,0,1,.77.79l.16-.93h2.06v7.4a2.79,2.79,0,0,1-1,2.3,4.38,4.38,0,0,1-2.8.81,4.93,4.93,0,0,1-1.22-.16,6.21,6.21,0,0,1-1.21-.43l.4-1.73a5.22,5.22,0,0,0,1,.33,4.8,4.8,0,0,0,1.06.11,1.71,1.71,0,0,0,1.11-.3,1.15,1.15,0,0,0,.36-.94v-.58a2.09,2.09,0,0,1-.73.61,2.12,2.12,0,0,1-1,.21,2.52,2.52,0,0,1-2.15-1,4.42,4.42,0,0,1-.76-2.71Zm2.33.14a3,3,0,0,0,.27,1.42.94.94,0,0,0,.9.51,1.86,1.86,0,0,0,.66-.11,1,1,0,0,0,.44-.36V33a1.15,1.15,0,0,0-.44-.41,1.41,1.41,0,0,0-.64-.14.94.94,0,0,0-.91.58,3.59,3.59,0,0,0-.28,1.52Z"/><path class="cls-1" d="M196.38,36.2a.61.61,0,0,0-.32-.49,3.18,3.18,0,0,0-1.14-.39,4.47,4.47,0,0,1-2-.8,1.76,1.76,0,0,1-.67-1.47,2.12,2.12,0,0,1,.83-1.68,3.44,3.44,0,0,1,2.25-.69,3.82,3.82,0,0,1,2.38.67,2,2,0,0,1,.85,1.73l0,0H196.3a.9.9,0,0,0-.22-.67,1,1,0,0,0-.73-.23.9.9,0,0,0-.61.2.61.61,0,0,0-.25.51.6.6,0,0,0,.29.51,3.36,3.36,0,0,0,1.16.37,4.66,4.66,0,0,1,2,.81,1.82,1.82,0,0,1,.66,1.51,2,2,0,0,1-.9,1.67,4,4,0,0,1-2.37.65,3.6,3.6,0,0,1-2.42-.77,2.18,2.18,0,0,1-.85-1.73l0,0h2.12a.91.91,0,0,0,.32.76,1.37,1.37,0,0,0,.87.24,1.21,1.21,0,0,0,.72-.18A.64.64,0,0,0,196.38,36.2Z"/><path class="cls-2" d="M85.3,103.51V110a3.35,3.35,0,0,1-1.15,2.71,4.46,4.46,0,0,1-3,1,4.5,4.5,0,0,1-3-1A3.35,3.35,0,0,1,77,110v-6.53h2.35V110a1.88,1.88,0,0,0,.48,1.41,2.11,2.11,0,0,0,2.67,0A1.92,1.92,0,0,0,83,110v-6.53Z"/><path class="cls-2" d="M88.86,106.1l.09,1.05a2.82,2.82,0,0,1,.91-.88,2.34,2.34,0,0,1,1.21-.31,2.12,2.12,0,0,1,1.72.75,3.7,3.7,0,0,1,.61,2.37v4.51H91.07v-4.52a1.73,1.73,0,0,0-.23-1,.81.81,0,0,0-.67-.3,1.6,1.6,0,0,0-.67.13,1.42,1.42,0,0,0-.5.37v5.33H86.67V106.1Z"/><path class="cls-2" d="M94.37,109.86a4.79,4.79,0,0,1,.76-2.83A2.51,2.51,0,0,1,97.29,106a1.81,1.81,0,0,1,.93.24,2.54,2.54,0,0,1,.76.68v-4.09h2.33v10.8h-2l-.16-.92a2.51,2.51,0,0,1-.8.79,2,2,0,0,1-1,.27,2.52,2.52,0,0,1-2.14-1,4.44,4.44,0,0,1-.76-2.71Zm2.34.14a3.08,3.08,0,0,0,.26,1.42.94.94,0,0,0,.9.51,1.51,1.51,0,0,0,.65-.13,1.26,1.26,0,0,0,.46-.4v-3a1.32,1.32,0,0,0-.46-.45,1.24,1.24,0,0,0-.64-.16.94.94,0,0,0-.9.57,3.65,3.65,0,0,0-.27,1.53Z"/><path class="cls-2" d="M106,113.73a3.46,3.46,0,0,1-2.67-1,3.65,3.65,0,0,1-1-2.61v-.26a4.23,4.23,0,0,1,.91-2.8,3.23,3.23,0,0,1,2.64-1.07,3,3,0,0,1,2.35.91,3.54,3.54,0,0,1,.83,2.48v1.23h-4.29l0,0a1.49,1.49,0,0,0,.44.95,1.52,1.52,0,0,0,1.09.36,5,5,0,0,0,1.12-.11,6.53,6.53,0,0,0,1-.35l.56,1.42a4,4,0,0,1-1.3.6A6,6,0,0,1,106,113.73Zm-.09-6a1,1,0,0,0-.83.35,1.8,1.8,0,0,0-.31,1v0h2v-.17a1.5,1.5,0,0,0-.21-.88A.77.77,0,0,0,105.88,107.76Z"/><path class="cls-2" d="M114.19,108.09h-.76a1.29,1.29,0,0,0-.66.15.91.91,0,0,0-.38.42v4.94h-2.34V106.1h2.2l.08,1.1a2.35,2.35,0,0,1,.63-.92,1.38,1.38,0,0,1,.9-.32l.29,0,.26.06Z"/><path class="cls-2" d="M121.05,109.72v3.87h-2.34V103.51h3.51a4.38,4.38,0,0,1,2.78.81,2.67,2.67,0,0,1,1,2.21,2.27,2.27,0,0,1-.41,1.35,3,3,0,0,1-1.21.91,2.25,2.25,0,0,1,1.33.88,2.67,2.67,0,0,1,.4,1.52v.64a4,4,0,0,0,.12.9,1.21,1.21,0,0,0,.41.72v.14h-2.42a1.21,1.21,0,0,1-.36-.76,7.47,7.47,0,0,1-.08-1v-.61a1.33,1.33,0,0,0-1.49-1.48Zm0-1.8h1.19a1.58,1.58,0,0,0,1.08-.32,1.14,1.14,0,0,0,.37-.92,1.34,1.34,0,0,0-.38-1,1.46,1.46,0,0,0-1.09-.38h-1.17Z"/><path class="cls-2" d="M130.94,113.73a3.46,3.46,0,0,1-2.67-1,3.65,3.65,0,0,1-1-2.61v-.26a4.23,4.23,0,0,1,.91-2.8,3.23,3.23,0,0,1,2.64-1.07,3,3,0,0,1,2.35.91,3.54,3.54,0,0,1,.83,2.48v1.23h-4.29l0,0a1.49,1.49,0,0,0,.44.95,1.52,1.52,0,0,0,1.09.36,5,5,0,0,0,1.12-.11,6.53,6.53,0,0,0,1-.35l.56,1.42a4,4,0,0,1-1.3.6A6,6,0,0,1,130.94,113.73Zm-.09-6a1,1,0,0,0-.83.35,1.8,1.8,0,0,0-.31,1v0h2v-.17a1.5,1.5,0,0,0-.21-.88A.77.77,0,0,0,130.85,107.76Z"/><path class="cls-2" d="M137.73,110.5l.14.79h0l.15-.8,1-4.4h2.46l-2.44,7.49H136.7l-2.44-7.49h2.47Z"/><path class="cls-2" d="M144.67,104.36h-2.35v-1.57h2.35Zm0,9.23h-2.35V106.1h2.35Z"/><path class="cls-2" d="M149.42,113.73a3.49,3.49,0,0,1-2.67-1,3.69,3.69,0,0,1-1-2.61v-.26a4.17,4.17,0,0,1,.91-2.8,3.2,3.2,0,0,1,2.63-1.07,3,3,0,0,1,2.35.91,3.49,3.49,0,0,1,.83,2.48v1.23h-4.29v0a1.44,1.44,0,0,0,.44.95,1.51,1.51,0,0,0,1.09.36,5,5,0,0,0,1.12-.11,7.31,7.31,0,0,0,1-.35l.56,1.42a4.15,4.15,0,0,1-1.3.6A6.11,6.11,0,0,1,149.42,113.73Zm-.09-6a1,1,0,0,0-.83.35,1.8,1.8,0,0,0-.3,1v0h2v-.17a1.59,1.59,0,0,0-.2-.88A.79.79,0,0,0,149.33,107.76Z"/><path class="cls-2" d="M159.93,110.28h0l.75-4.18h2.22l-1.75,7.49h-2L158,109.75h0l-1.23,3.84h-2L153,106.1h2.22l.75,4.21h0l1.23-4.21h1.47Z"/><path class="cls-3" d="M82.32,191.2h-3l-.58,2H76.28l3.28-10.08h2.52l3.29,10.08H82.91Zm-2.46-1.8h1.92l-.94-3.13h0Z"/><path class="cls-3" d="M92.55,189.57a4.4,4.4,0,0,1-.76,2.71,2.52,2.52,0,0,1-2.14,1,2.12,2.12,0,0,1-1-.21,2.2,2.2,0,0,1-.73-.6V196H85.62V185.67h2.21l.07.81a2.14,2.14,0,0,1,.74-.7,1.92,1.92,0,0,1,1-.25,2.51,2.51,0,0,1,2.16,1.07,4.77,4.77,0,0,1,.76,2.82Zm-2.33-.15a3.47,3.47,0,0,0-.28-1.52.92.92,0,0,0-.88-.57,1.48,1.48,0,0,0-.67.14,1,1,0,0,0-.43.43V191a.87.87,0,0,0,.44.36,1.64,1.64,0,0,0,.67.12A.91.91,0,0,0,90,191a3.06,3.06,0,0,0,.27-1.42Z"/><path class="cls-3" d="M100.52,189.57a4.47,4.47,0,0,1-.76,2.71,2.52,2.52,0,0,1-2.15,1,2.12,2.12,0,0,1-1-.21,2.2,2.2,0,0,1-.73-.6V196H93.58V185.67h2.21l.07.81a2.26,2.26,0,0,1,.75-.7,1.87,1.87,0,0,1,1-.25,2.49,2.49,0,0,1,2.15,1.07,4.78,4.78,0,0,1,.77,2.82Zm-2.33-.15a3.62,3.62,0,0,0-.28-1.52.93.93,0,0,0-.89-.57,1.46,1.46,0,0,0-.66.14,1.07,1.07,0,0,0-.44.43V191a.91.91,0,0,0,.44.36,1.69,1.69,0,0,0,.68.12.92.92,0,0,0,.88-.51,3.06,3.06,0,0,0,.27-1.42Z"/><path class="cls-3" d="M105.69,187.66h-.76a1.29,1.29,0,0,0-.66.15.91.91,0,0,0-.38.42v4.94h-2.34v-7.49h2.2l.08,1.1a2.35,2.35,0,0,1,.63-.92,1.38,1.38,0,0,1,.9-.32l.29,0,.26.06Z"/><path class="cls-3" d="M106.1,189.34a4,4,0,0,1,1-2.75,3.89,3.89,0,0,1,5.34,0,4,4,0,0,1,1,2.75v.15a4,4,0,0,1-1,2.75,3.89,3.89,0,0,1-5.34,0,4,4,0,0,1-1-2.75Zm2.34.15a3,3,0,0,0,.29,1.47,1,1,0,0,0,1,.54,1,1,0,0,0,1-.54,3,3,0,0,0,.3-1.47v-.15a3,3,0,0,0-.3-1.46,1.17,1.17,0,0,0-2,0,3.08,3.08,0,0,0-.29,1.46Z"/><path class="cls-3" d="M117.07,190.07l.14.79h0l.16-.8,1-4.4h2.45l-2.43,7.49H116l-2.43-7.49h2.46Z"/><path class="cls-3" d="M125.78,193.15a3.68,3.68,0,0,1-.23-.53,5.82,5.82,0,0,1-.14-.63,2.69,2.69,0,0,1-.75.95,1.79,1.79,0,0,1-1.16.36,2.59,2.59,0,0,1-1.83-.6A2.15,2.15,0,0,1,121,191a2,2,0,0,1,.84-1.71,4.29,4.29,0,0,1,2.54-.61h1v-.53a1.09,1.09,0,0,0-.23-.74.88.88,0,0,0-.7-.25.82.82,0,0,0-.6.19.78.78,0,0,0-.2.59h-2.27v0a1.94,1.94,0,0,1,.85-1.71,3.83,3.83,0,0,1,2.39-.69,3.51,3.51,0,0,1,2.25.69,2.4,2.4,0,0,1,.86,2V191a5.52,5.52,0,0,0,.1,1.11,7,7,0,0,0,.3,1Zm-1.65-1.52a1.37,1.37,0,0,0,.76-.2,1.11,1.11,0,0,0,.46-.48v-1h-.94a1.07,1.07,0,0,0-.81.27,1,1,0,0,0-.25.69.67.67,0,0,0,.22.52A.79.79,0,0,0,124.13,191.63Z"/><path class="cls-3" d="M131.42,193.16h-2.35v-10.8h2.35Z"/><path class="cls-3" d="M136.76,191.05a.61.61,0,0,0-.32-.49,3.18,3.18,0,0,0-1.14-.39,4.51,4.51,0,0,1-2-.8,1.79,1.79,0,0,1-.66-1.47,2.12,2.12,0,0,1,.83-1.68,3.4,3.4,0,0,1,2.25-.69,3.82,3.82,0,0,1,2.38.67,2,2,0,0,1,.84,1.72v0h-2.27a.93.93,0,0,0-.22-.67,1,1,0,0,0-.73-.22.9.9,0,0,0-.61.2.61.61,0,0,0-.25.51.6.6,0,0,0,.28.5,3.26,3.26,0,0,0,1.16.38,4.78,4.78,0,0,1,2,.8A1.85,1.85,0,0,1,139,191a2,2,0,0,1-.89,1.67,4,4,0,0,1-2.37.65,3.58,3.58,0,0,1-2.42-.77,2.16,2.16,0,0,1-.85-1.74l0,0h2.11a.92.92,0,0,0,.33.77,1.37,1.37,0,0,0,.87.24,1.11,1.11,0,0,0,.71-.19A.61.61,0,0,0,136.76,191.05Z"/><line class="cls-4" x1="43.86" y1="61.08" x2="43.86" y2="81.74"/><polygon class="cls-5" points="38.06 77.04 39.1 76.07 43.86 81.19 48.62 76.07 49.66 77.04 43.86 83.28 38.06 77.04"/><line class="cls-4" x1="43.86" y1="138.71" x2="43.86" y2="159.37"/><polygon class="cls-5" points="38.06 154.67 39.1 153.7 43.86 158.82 48.62 153.7 49.66 154.67 43.86 160.9 38.06 154.67"/><path class="cls-6" d="M79.52,271.32H77.19V261.24h2.33Z"/><path class="cls-6" d="M83.29,263.83l.09,1.05a2.7,2.7,0,0,1,.9-.88,2.34,2.34,0,0,1,1.21-.31,2.12,2.12,0,0,1,1.72.75,3.71,3.71,0,0,1,.62,2.37v4.51H85.49V266.8a1.73,1.73,0,0,0-.23-1,.79.79,0,0,0-.67-.3,1.63,1.63,0,0,0-.67.13,1.42,1.42,0,0,0-.5.37v5.33H81.09v-7.49Z"/><path class="cls-6" d="M93,269.21a.6.6,0,0,0-.31-.49,3.17,3.17,0,0,0-1.15-.39,4.47,4.47,0,0,1-2-.8,1.79,1.79,0,0,1-.66-1.47,2.09,2.09,0,0,1,.83-1.68,3.4,3.4,0,0,1,2.25-.69,3.84,3.84,0,0,1,2.38.67,2,2,0,0,1,.84,1.72v.05H92.93a1,1,0,0,0-.22-.67,1,1,0,0,0-.73-.23.92.92,0,0,0-.62.2.63.63,0,0,0-.25.51.59.59,0,0,0,.29.5,3.18,3.18,0,0,0,1.16.38,4.68,4.68,0,0,1,2,.8,1.86,1.86,0,0,1,.66,1.52,2,2,0,0,1-.89,1.67,4,4,0,0,1-2.37.65,3.58,3.58,0,0,1-2.42-.77,2.12,2.12,0,0,1-.85-1.73v0h2.12a.94.94,0,0,0,.32.76,1.42,1.42,0,0,0,.88.24,1.18,1.18,0,0,0,.71-.18A.64.64,0,0,0,93,269.21Z"/><path class="cls-6" d="M103.29,267.73a4.47,4.47,0,0,1-.76,2.71,2.54,2.54,0,0,1-2.15,1,2.12,2.12,0,0,1-1-.21,2,2,0,0,1-.73-.6v3.55H96.35V263.83h2.21l.07.82a2.27,2.27,0,0,1,.74-.71,1.93,1.93,0,0,1,1-.25,2.5,2.5,0,0,1,2.15,1.07,4.79,4.79,0,0,1,.77,2.83Zm-2.33-.14a3.64,3.64,0,0,0-.28-1.53.93.93,0,0,0-.89-.57,1.46,1.46,0,0,0-.66.14,1.07,1.07,0,0,0-.44.43v3.12a.91.91,0,0,0,.44.36,1.69,1.69,0,0,0,.68.12.92.92,0,0,0,.88-.51,3.06,3.06,0,0,0,.27-1.42Z"/><path class="cls-6" d="M107.64,271.46a3.49,3.49,0,0,1-2.67-1,3.69,3.69,0,0,1-1-2.61v-.26a4.17,4.17,0,0,1,.91-2.8,3.23,3.23,0,0,1,2.63-1.07,3,3,0,0,1,2.35.91,3.49,3.49,0,0,1,.83,2.48v1.23h-4.29v0a1.44,1.44,0,0,0,.44.95,1.51,1.51,0,0,0,1.09.36,4.46,4.46,0,0,0,1.12-.11,7.31,7.31,0,0,0,1-.35l.56,1.42a4.26,4.26,0,0,1-1.3.6A6.11,6.11,0,0,1,107.64,271.46Zm-.09-6a1,1,0,0,0-.83.36,1.76,1.76,0,0,0-.3,1v0h2v-.18a1.61,1.61,0,0,0-.2-.88A.79.79,0,0,0,107.55,265.49Z"/><path class="cls-6" d="M114.93,269.66a.89.89,0,0,0,.71-.26,1.06,1.06,0,0,0,.24-.75H118v0a2.43,2.43,0,0,1-.85,2,3.23,3.23,0,0,1-2.24.77,3.34,3.34,0,0,1-2.64-1,4.06,4.06,0,0,1-.92-2.75v-.16a4.06,4.06,0,0,1,.92-2.75,3.29,3.29,0,0,1,2.62-1.06,3.2,3.2,0,0,1,2.28.79,2.73,2.73,0,0,1,.83,2.17v0h-2.13a1.37,1.37,0,0,0-.25-.86.82.82,0,0,0-.72-.34,1,1,0,0,0-.94.54,3.33,3.33,0,0,0-.27,1.47v.16a3.33,3.33,0,0,0,.27,1.47A1,1,0,0,0,114.93,269.66Z"/><path class="cls-6" d="M121.66,262v1.86h1.19v1.62h-1.19v3.43a.89.89,0,0,0,.16.58.57.57,0,0,0,.44.17h.29l.27-.05.16,1.73a4.3,4.3,0,0,1-.63.12,4.47,4.47,0,0,1-.67,0,2.35,2.35,0,0,1-1.76-.61,2.72,2.72,0,0,1-.6-2v-3.44h-1v-1.62h1V262Z"/><path class="cls-6" d="M126.43,262.09h-2.35v-1.57h2.35Zm0,9.23h-2.35v-7.49h2.35Z"/><path class="cls-6" d="M127.55,267.5a4,4,0,0,1,1-2.75,3.88,3.88,0,0,1,5.33,0,4,4,0,0,1,1,2.75v.15a3.92,3.92,0,0,1-1,2.75,3.36,3.36,0,0,1-2.65,1.06,3.4,3.4,0,0,1-2.68-1.06,3.92,3.92,0,0,1-1-2.75Zm2.34.15a3.05,3.05,0,0,0,.3,1.48,1.18,1.18,0,0,0,2,0,3,3,0,0,0,.3-1.47v-.15a3,3,0,0,0-.3-1.46,1,1,0,0,0-1-.55,1,1,0,0,0-1,.55,3.08,3.08,0,0,0-.3,1.46Z"/><path class="cls-6" d="M138,263.83l.09,1.05A2.82,2.82,0,0,1,139,264a2.33,2.33,0,0,1,1.2-.31,2.1,2.1,0,0,1,1.72.75,3.65,3.65,0,0,1,.62,2.37v4.51h-2.34V266.8a1.65,1.65,0,0,0-.23-1,.77.77,0,0,0-.66-.3,1.6,1.6,0,0,0-.67.13,1.34,1.34,0,0,0-.5.37v5.33h-2.33v-7.49Z"/><path class="cls-6" d="M148.12,271.31a2.81,2.81,0,0,1-.22-.53,4.14,4.14,0,0,1-.15-.63,2.82,2.82,0,0,1-.75,1,1.82,1.82,0,0,1-1.16.35,2.59,2.59,0,0,1-1.83-.6,2.15,2.15,0,0,1-.66-1.65,2,2,0,0,1,.84-1.72,4.29,4.29,0,0,1,2.54-.61h1v-.53a1,1,0,0,0-.23-.74.88.88,0,0,0-.7-.25.82.82,0,0,0-.6.19.78.78,0,0,0-.2.59h-2.27v0a2,2,0,0,1,.85-1.71,3.83,3.83,0,0,1,2.39-.69,3.51,3.51,0,0,1,2.25.69,2.4,2.4,0,0,1,.86,2v2.82a5.52,5.52,0,0,0,.1,1.11,7,7,0,0,0,.3,1Zm-1.65-1.52a1.37,1.37,0,0,0,.76-.2,1.15,1.15,0,0,0,.46-.47v-1h-.94a1.07,1.07,0,0,0-.81.27.94.94,0,0,0-.25.68.67.67,0,0,0,.22.52A.79.79,0,0,0,146.47,269.79Z"/><path class="cls-6" d="M153.76,271.32h-2.34v-10.8h2.34Z"/><path class="cls-6" d="M164.06,268.65a1,1,0,0,0-.35-.83,4.62,4.62,0,0,0-1.28-.61,9.75,9.75,0,0,1-2.79-1.3,2.33,2.33,0,0,1-.91-2,2.41,2.41,0,0,1,1.06-2,4.4,4.4,0,0,1,2.69-.79,4.46,4.46,0,0,1,2.78.81,2.6,2.6,0,0,1,1,2.27v.05H164a1.28,1.28,0,0,0-.39-1,1.83,1.83,0,0,0-1.17-.32,1.48,1.48,0,0,0-1,.31,1,1,0,0,0-.37.77.84.84,0,0,0,.38.71,7.24,7.24,0,0,0,1.41.67,7.44,7.44,0,0,1,2.65,1.26,2.52,2.52,0,0,1,.9,2.05,2.43,2.43,0,0,1-1,2.08,4.59,4.59,0,0,1-2.75.75,5.1,5.1,0,0,1-2.9-.8,2.77,2.77,0,0,1-1.15-2.54v0h2.28a1.58,1.58,0,0,0,.43,1.25,2,2,0,0,0,1.33.37,1.75,1.75,0,0,0,1.09-.29A.94.94,0,0,0,164.06,268.65Z"/><path class="cls-6" d="M170.85,271.46a3.45,3.45,0,0,1-2.66-1,3.65,3.65,0,0,1-1-2.61v-.26a4.17,4.17,0,0,1,.91-2.8,3.25,3.25,0,0,1,2.63-1.07,3,3,0,0,1,2.35.91,3.5,3.5,0,0,1,.84,2.48v1.23h-4.29l0,0a1.49,1.49,0,0,0,.44.95,1.52,1.52,0,0,0,1.09.36,4.46,4.46,0,0,0,1.12-.11,6.53,6.53,0,0,0,1-.35l.56,1.42a4,4,0,0,1-1.3.6A6.06,6.06,0,0,1,170.85,271.46Zm-.09-6a1,1,0,0,0-.82.36,1.76,1.76,0,0,0-.31,1v0h2v-.18a1.53,1.53,0,0,0-.2-.88A.79.79,0,0,0,170.76,265.49Z"/><path class="cls-6" d="M179.08,265.82h-.76a1.29,1.29,0,0,0-.66.15.91.91,0,0,0-.38.42v4.94h-2.34v-7.49h2.2l.08,1.1a2.32,2.32,0,0,1,.62-.91,1.38,1.38,0,0,1,.91-.33l.29,0,.26.06Z"/><path class="cls-6" d="M182.86,268.23l.14.8h0l.16-.8,1-4.4h2.46l-2.43,7.49h-2.38l-2.43-7.49h2.46Z"/><path class="cls-6" d="M189.8,262.09h-2.35v-1.57h2.35Zm0,9.23h-2.35v-7.49h2.35Z"/><path class="cls-6" d="M194.43,269.66a.91.91,0,0,0,.72-.26,1.1,1.1,0,0,0,.23-.75h2.13l0,0a2.46,2.46,0,0,1-.85,2,3.24,3.24,0,0,1-2.25.77,3.32,3.32,0,0,1-2.63-1,4,4,0,0,1-.92-2.75v-.16a4,4,0,0,1,.92-2.75,3.27,3.27,0,0,1,2.62-1.06,3.21,3.21,0,0,1,2.28.79,2.73,2.73,0,0,1,.83,2.17l0,0h-2.13a1.43,1.43,0,0,0-.24-.86.82.82,0,0,0-.72-.34,1,1,0,0,0-.94.54,3.33,3.33,0,0,0-.27,1.47v.16a3.33,3.33,0,0,0,.27,1.47A1,1,0,0,0,194.43,269.66Z"/><path class="cls-6" d="M201.8,271.46a3.45,3.45,0,0,1-2.66-1,3.65,3.65,0,0,1-1-2.61v-.26a4.17,4.17,0,0,1,.91-2.8,3.25,3.25,0,0,1,2.63-1.07,3,3,0,0,1,2.35.91,3.5,3.5,0,0,1,.84,2.48v1.23h-4.29l0,0a1.49,1.49,0,0,0,.44.95,1.52,1.52,0,0,0,1.09.36,4.46,4.46,0,0,0,1.12-.11,6.53,6.53,0,0,0,1-.35l.56,1.42a4,4,0,0,1-1.3.6A6.06,6.06,0,0,1,201.8,271.46Zm-.09-6a1,1,0,0,0-.82.36,1.76,1.76,0,0,0-.31,1v0h2v-.18a1.53,1.53,0,0,0-.2-.88A.79.79,0,0,0,201.71,265.49Z"/><path class="cls-6" d="M209.79,269.21a.6.6,0,0,0-.31-.49,3.25,3.25,0,0,0-1.15-.39,4.47,4.47,0,0,1-2-.8,1.79,1.79,0,0,1-.67-1.47,2.12,2.12,0,0,1,.83-1.68,3.44,3.44,0,0,1,2.25-.69,3.82,3.82,0,0,1,2.38.67,1.93,1.93,0,0,1,.85,1.72v.05h-2.28a.9.9,0,0,0-.22-.67,1.15,1.15,0,0,0-1.34,0,.63.63,0,0,0-.25.51.59.59,0,0,0,.29.5,3.18,3.18,0,0,0,1.16.38,4.73,4.73,0,0,1,2,.8,1.86,1.86,0,0,1,.66,1.52,2,2,0,0,1-.9,1.67,3.94,3.94,0,0,1-2.37.65,3.56,3.56,0,0,1-2.41-.77,2.12,2.12,0,0,1-.85-1.73v0h2.12a.91.91,0,0,0,.32.76,1.42,1.42,0,0,0,.88.24,1.18,1.18,0,0,0,.71-.18A.64.64,0,0,0,209.79,269.21Z"/><path class="cls-6" d="M216.81,271.32V261.24h3.69a4.12,4.12,0,0,1,3,1.16,3.94,3.94,0,0,1,1.2,3v1.81a4,4,0,0,1-1.2,3,4.12,4.12,0,0,1-3,1.16Zm2.34-8.28v6.48h1.35a1.62,1.62,0,0,0,1.31-.65,2.68,2.68,0,0,0,.51-1.69v-1.82a2.62,2.62,0,0,0-.51-1.67,1.62,1.62,0,0,0-1.31-.65Z"/><path class="cls-6" d="M229.25,271.46a3.49,3.49,0,0,1-2.67-1,3.69,3.69,0,0,1-1-2.61v-.26a4.17,4.17,0,0,1,.91-2.8,3.23,3.23,0,0,1,2.63-1.07,3,3,0,0,1,2.35.91,3.5,3.5,0,0,1,.84,2.48v1.23h-4.3v0a1.44,1.44,0,0,0,.44.95,1.51,1.51,0,0,0,1.09.36,4.46,4.46,0,0,0,1.12-.11,6.53,6.53,0,0,0,1-.35l.56,1.42a4.15,4.15,0,0,1-1.3.6A6.11,6.11,0,0,1,229.25,271.46Zm-.09-6a1,1,0,0,0-.83.36,1.76,1.76,0,0,0-.3,1v0h2v-.18a1.61,1.61,0,0,0-.2-.88A.79.79,0,0,0,229.16,265.49Z"/><path class="cls-6" d="M240.27,267.73a4.4,4.4,0,0,1-.76,2.71,2.52,2.52,0,0,1-2.15,1,2.12,2.12,0,0,1-1-.21,2.06,2.06,0,0,1-.73-.6v3.55h-2.34V263.83h2.21l.07.82a2.3,2.3,0,0,1,.75-.71,1.89,1.89,0,0,1,1-.25,2.48,2.48,0,0,1,2.15,1.07,4.79,4.79,0,0,1,.77,2.83Zm-2.33-.14a3.64,3.64,0,0,0-.28-1.53.92.92,0,0,0-.89-.57,1.46,1.46,0,0,0-.66.14,1.07,1.07,0,0,0-.44.43v3.12a1,1,0,0,0,.44.36,1.72,1.72,0,0,0,.68.12.92.92,0,0,0,.88-.51,3.06,3.06,0,0,0,.27-1.42Z"/><path class="cls-6" d="M245.63,271.31a2.83,2.83,0,0,1-.23-.53,4.13,4.13,0,0,1-.14-.63,2.82,2.82,0,0,1-.75,1,1.87,1.87,0,0,1-1.17.35,2.62,2.62,0,0,1-1.83-.6,2.18,2.18,0,0,1-.65-1.65,2,2,0,0,1,.84-1.72,4.26,4.26,0,0,1,2.54-.61h1v-.53a1.09,1.09,0,0,0-.23-.74.89.89,0,0,0-.7-.25.86.86,0,0,0-.61.19.78.78,0,0,0-.19.59H241.2l0,0a2,2,0,0,1,.86-1.71,3.8,3.8,0,0,1,2.38-.69,3.47,3.47,0,0,1,2.25.69,2.38,2.38,0,0,1,.87,2v2.82a5.52,5.52,0,0,0,.1,1.11,5.19,5.19,0,0,0,.3,1ZM244,269.79a1.37,1.37,0,0,0,.76-.2,1.15,1.15,0,0,0,.46-.47v-1h-.94a1,1,0,0,0-.81.27.94.94,0,0,0-.25.68.67.67,0,0,0,.22.52A.79.79,0,0,0,244,269.79Z"/><path class="cls-6" d="M253,265.82h-.77a1.28,1.28,0,0,0-.65.15.91.91,0,0,0-.38.42v4.94h-2.34v-7.49H251l.08,1.1a2.22,2.22,0,0,1,.62-.91,1.36,1.36,0,0,1,.91-.33l.28,0,.27.06Z"/><path class="cls-6" d="M256.62,262v1.86h1.18v1.62h-1.18v3.43a.84.84,0,0,0,.16.58.55.55,0,0,0,.44.17h.29l.27-.05.16,1.73a4.68,4.68,0,0,1-.64.12,4.38,4.38,0,0,1-.67,0,2.31,2.31,0,0,1-1.75-.61,2.72,2.72,0,0,1-.6-2v-3.44h-1.05v-1.62h1.05V262Z"/><path class="cls-6" d="M261.14,263.83l.08,1a2.47,2.47,0,0,1,.89-.84,2.6,2.6,0,0,1,1.23-.29,2.32,2.32,0,0,1,1.2.3,1.91,1.91,0,0,1,.76.93,2.59,2.59,0,0,1,.89-.91,2.49,2.49,0,0,1,1.27-.32,2.07,2.07,0,0,1,1.72.79,3.82,3.82,0,0,1,.63,2.41v4.43h-2.35v-4.43a2,2,0,0,0-.22-1.1.8.8,0,0,0-.68-.3,1.43,1.43,0,0,0-.6.12,1.22,1.22,0,0,0-.44.34c0,.07,0,.14,0,.2a1,1,0,0,1,0,.17v5H263.2v-4.43a2,2,0,0,0-.22-1.1.81.81,0,0,0-.69-.3,1.4,1.4,0,0,0-.58.12,1.22,1.22,0,0,0-.44.34v5.37h-2.34v-7.49Z"/><path class="cls-6" d="M274.46,271.46a3.45,3.45,0,0,1-2.66-1,3.65,3.65,0,0,1-1-2.61v-.26a4.17,4.17,0,0,1,.91-2.8,3.26,3.26,0,0,1,2.64-1.07,3,3,0,0,1,2.34.91,3.5,3.5,0,0,1,.84,2.48v1.23h-4.29l0,0a1.49,1.49,0,0,0,.44.95,1.52,1.52,0,0,0,1.09.36,4.46,4.46,0,0,0,1.12-.11,6.53,6.53,0,0,0,1-.35l.56,1.42a4,4,0,0,1-1.3.6A6.06,6.06,0,0,1,274.46,271.46Zm-.08-6a1,1,0,0,0-.83.36,1.76,1.76,0,0,0-.31,1v0h2v-.18a1.53,1.53,0,0,0-.2-.88A.78.78,0,0,0,274.38,265.49Z"/><path class="cls-6" d="M280.7,263.83l.09,1.05a2.82,2.82,0,0,1,.91-.88,2.33,2.33,0,0,1,1.2-.31,2.11,2.11,0,0,1,1.72.75,3.71,3.71,0,0,1,.62,2.37v4.51H282.9V266.8a1.65,1.65,0,0,0-.23-1,.77.77,0,0,0-.66-.3,1.6,1.6,0,0,0-.67.13,1.34,1.34,0,0,0-.5.37v5.33h-2.33v-7.49Z"/><path class="cls-6" d="M289.2,262v1.86h1.18v1.62H289.2v3.43a.84.84,0,0,0,.16.58.57.57,0,0,0,.44.17h.29l.27-.05.16,1.73a4.42,4.42,0,0,1-.64.12,4.3,4.3,0,0,1-.67,0,2.33,2.33,0,0,1-1.75-.61,2.72,2.72,0,0,1-.6-2v-3.44h-1v-1.62h1V262Z"/><path class="cls-6" d="M77.07,284.23a9.33,9.33,0,0,1,1-4.57,4.91,4.91,0,0,1,2.4-2.4h0l.42,1.1a4.59,4.59,0,0,0-1.46,2.1,10.4,10.4,0,0,0-.58,3.75v.22a10.42,10.42,0,0,0,.58,3.76,4.59,4.59,0,0,0,1.46,2.1l-.42,1.1h0a4.91,4.91,0,0,1-2.4-2.4,9.33,9.33,0,0,1-1-4.57Z"/><path class="cls-6" d="M84.55,288.32H82.22V278.25h2.33Z"/><path class="cls-6" d="M91.5,285.65a1,1,0,0,0-.35-.82,4.44,4.44,0,0,0-1.28-.62,9.63,9.63,0,0,1-2.79-1.29,2.36,2.36,0,0,1-.91-2,2.47,2.47,0,0,1,1.06-2.05,5.1,5.1,0,0,1,5.47,0,2.62,2.62,0,0,1,1,2.27l0,0H91.43a1.26,1.26,0,0,0-.39-1,1.73,1.73,0,0,0-1.16-.32,1.51,1.51,0,0,0-1,.31,1,1,0,0,0-.37.77.84.84,0,0,0,.38.71,7.37,7.37,0,0,0,1.41.66,7.52,7.52,0,0,1,2.65,1.27,2.52,2.52,0,0,1,.9,2.05,2.44,2.44,0,0,1-1,2.08,4.59,4.59,0,0,1-2.75.75,5,5,0,0,1-2.9-.81A2.77,2.77,0,0,1,86,285.13v-.05h2.28a1.55,1.55,0,0,0,.43,1.25,2,2,0,0,0,1.33.38,1.67,1.67,0,0,0,1.09-.3A.92.92,0,0,0,91.5,285.65Z"/><path class="cls-6" d="M95.11,288.32V278.25H98.8a4.09,4.09,0,0,1,3,1.16,3.93,3.93,0,0,1,1.19,3v1.81a3.94,3.94,0,0,1-1.19,3,4.12,4.12,0,0,1-3,1.15Zm2.34-8.27v6.47H98.8a1.58,1.58,0,0,0,1.31-.65,2.58,2.58,0,0,0,.52-1.68v-1.82a2.57,2.57,0,0,0-.52-1.67,1.58,1.58,0,0,0-1.31-.65Z"/><path class="cls-6" d="M107.93,284.42a9,9,0,0,1-1.09,4.52,5.09,5.09,0,0,1-2.5,2.45h0l-.42-1.1a4.83,4.83,0,0,0,1.45-2.11,10.11,10.11,0,0,0,.58-3.75v-.22a10.18,10.18,0,0,0-.58-3.75,4.73,4.73,0,0,0-1.45-2.1l.42-1.1h0a5.09,5.09,0,0,1,2.5,2.45,9,9,0,0,1,1.09,4.52Z"/><path class="cls-6" d="M115.27,284.87v3.45h-2.34V278.25h3.84a4.19,4.19,0,0,1,2.85.91,3.27,3.27,0,0,1,0,4.8,4.19,4.19,0,0,1-2.85.91Zm0-1.8h1.5a1.55,1.55,0,0,0,1.17-.42,1.48,1.48,0,0,0,.4-1.07,1.52,1.52,0,0,0-.4-1.1,1.49,1.49,0,0,0-1.17-.43h-1.5Z"/><path class="cls-6" d="M125.06,288.47a3.46,3.46,0,0,1-2.67-1,3.7,3.7,0,0,1-1-2.61v-.26a4.23,4.23,0,0,1,.91-2.8A3.23,3.23,0,0,1,125,280.7a3.05,3.05,0,0,1,2.35.9,3.58,3.58,0,0,1,.83,2.49v1.22h-4.29v.05a1.45,1.45,0,0,0,.43.95,1.55,1.55,0,0,0,1.1.36,4.88,4.88,0,0,0,1.11-.11,7,7,0,0,0,1-.35l.56,1.42a4.21,4.21,0,0,1-1.31.6A6,6,0,0,1,125.06,288.47Zm-.09-6a1,1,0,0,0-.83.35,1.8,1.8,0,0,0-.31,1l0,0h2v-.18a1.55,1.55,0,0,0-.21-.88A.78.78,0,0,0,125,282.5Z"/><path class="cls-6" d="M133.28,282.83h-.76a1.29,1.29,0,0,0-.66.15.91.91,0,0,0-.38.42v4.93h-2.34v-7.48h2.2l.09,1.1a2.17,2.17,0,0,1,.62-.92,1.4,1.4,0,0,1,.91-.32l.28,0,.26.06Z"/><path class="cls-6" d="M136.34,280.84l.08,1a2.55,2.55,0,0,1,.89-.84,2.6,2.6,0,0,1,1.23-.29,2.27,2.27,0,0,1,1.2.3,1.94,1.94,0,0,1,.77.93,2.43,2.43,0,0,1,.89-.91,2.37,2.37,0,0,1,1.27-.32,2.07,2.07,0,0,1,1.71.78,3.85,3.85,0,0,1,.63,2.42v4.42h-2.34V283.9a1.93,1.93,0,0,0-.23-1.1.78.78,0,0,0-.67-.3,1.4,1.4,0,0,0-.6.12,1.22,1.22,0,0,0-.44.33v.21a1,1,0,0,1,0,.17v5H138.4V283.9a2,2,0,0,0-.22-1.11.82.82,0,0,0-.68-.29,1.34,1.34,0,0,0-.58.12,1.22,1.22,0,0,0-.44.33v5.37h-2.34v-7.48Z"/><path class="cls-6" d="M148.8,279.1h-2.35v-1.57h2.35Zm0,9.22h-2.35v-7.48h2.35Z"/><path class="cls-6" d="M152.92,279v1.87h1.18v1.62h-1.18v3.43a.84.84,0,0,0,.16.58.59.59,0,0,0,.44.17h.28l.28-.06.16,1.73a4.85,4.85,0,0,1-.64.13,4.38,4.38,0,0,1-.67,0,2.36,2.36,0,0,1-1.76-.62,2.76,2.76,0,0,1-.59-2v-3.44h-1.05v-1.62h1.05V279Z"/><path class="cls-6" d="M157.92,279v1.87h1.18v1.62h-1.18v3.43a.84.84,0,0,0,.16.58.6.6,0,0,0,.44.17h.29l.27-.06.16,1.73a4.54,4.54,0,0,1-.64.13,4.3,4.3,0,0,1-.67,0,2.33,2.33,0,0,1-1.75-.62,2.71,2.71,0,0,1-.6-2v-3.44h-1v-1.62h1V279Z"/><path class="cls-6" d="M162.69,279.1h-2.35v-1.57h2.35Zm0,9.22h-2.35v-7.48h2.35Z"/><path class="cls-6" d="M166.27,280.84l.09,1.05a2.72,2.72,0,0,1,.91-.88,2.33,2.33,0,0,1,1.2-.31,2.1,2.1,0,0,1,1.72.75,3.62,3.62,0,0,1,.62,2.37v4.5h-2.34v-4.51a1.74,1.74,0,0,0-.22-1,.81.81,0,0,0-.67-.3,1.6,1.6,0,0,0-.67.13,1.34,1.34,0,0,0-.5.37v5.32h-2.33v-7.48Z"/><path class="cls-6" d="M171.77,284.59a4.77,4.77,0,0,1,.76-2.82,2.51,2.51,0,0,1,2.16-1.07,1.91,1.91,0,0,1,1,.28,2.53,2.53,0,0,1,.77.79l.15-.93h2.07v7.4a2.78,2.78,0,0,1-1,2.3,4.33,4.33,0,0,1-2.79.81,5.38,5.38,0,0,1-1.22-.16,7.35,7.35,0,0,1-1.22-.43l.41-1.73a5,5,0,0,0,1,.33,4.8,4.8,0,0,0,1.06.11,1.75,1.75,0,0,0,1.11-.3,1.15,1.15,0,0,0,.36-.94v-.58a2.14,2.14,0,0,1-.74.61,2.12,2.12,0,0,1-1,.21,2.52,2.52,0,0,1-2.14-1,4.44,4.44,0,0,1-.76-2.71Zm2.33.15a3.06,3.06,0,0,0,.27,1.42.92.92,0,0,0,.9.51,1.6,1.6,0,0,0,.65-.12,1,1,0,0,0,.45-.35v-3.15a1.15,1.15,0,0,0-.44-.41,1.33,1.33,0,0,0-.65-.14.94.94,0,0,0-.9.58,3.42,3.42,0,0,0-.28,1.51Z"/><line class="cls-4" x1="43.86" y1="216.87" x2="43.86" y2="237.53"/><polygon class="cls-5" points="38.06 232.83 39.1 231.87 43.86 236.99 48.62 231.87 49.66 232.83 43.86 239.07 38.06 232.83"/><path class="cls-7" d="M85.3,340.3v6.53a3.36,3.36,0,0,1-1.15,2.71,4.46,4.46,0,0,1-3,1,4.5,4.5,0,0,1-3-1A3.37,3.37,0,0,1,77,346.83V340.3h2.35v6.53a1.91,1.91,0,0,0,.48,1.41,2.11,2.11,0,0,0,2.67,0,1.92,1.92,0,0,0,.47-1.42V340.3Z"/><path class="cls-7" d="M88.86,342.88l.09,1.06a2.72,2.72,0,0,1,.91-.88,2.34,2.34,0,0,1,1.21-.31,2.15,2.15,0,0,1,1.72.74,3.73,3.73,0,0,1,.61,2.38v4.5H91.07v-4.51a1.73,1.73,0,0,0-.23-1,.81.81,0,0,0-.67-.3,1.6,1.6,0,0,0-.67.13,1.42,1.42,0,0,0-.5.37v5.32H86.67v-7.49Z"/><path class="cls-7" d="M94.37,346.64a4.75,4.75,0,0,1,.76-2.82,2.48,2.48,0,0,1,2.16-1.07,1.81,1.81,0,0,1,.93.24,2.41,2.41,0,0,1,.76.68v-4.09h2.33v10.79h-2l-.16-.91a2.61,2.61,0,0,1-.8.79,2,2,0,0,1-1,.27,2.5,2.5,0,0,1-2.14-1,4.39,4.39,0,0,1-.76-2.7Zm2.34.15a3.08,3.08,0,0,0,.26,1.42.94.94,0,0,0,.9.51,1.51,1.51,0,0,0,.65-.14,1.23,1.23,0,0,0,.46-.39v-3a1.25,1.25,0,0,0-1.1-.61.94.94,0,0,0-.9.57,3.6,3.6,0,0,0-.27,1.52Z"/><path class="cls-7" d="M106,350.52a3.49,3.49,0,0,1-2.67-1,3.65,3.65,0,0,1-1-2.61v-.26a4.23,4.23,0,0,1,.91-2.8,3.23,3.23,0,0,1,2.64-1.07,3.05,3.05,0,0,1,2.35.9,3.58,3.58,0,0,1,.83,2.49v1.22h-4.29l0,0a1.38,1.38,0,0,0,1.53,1.32,5,5,0,0,0,1.12-.11,6.67,6.67,0,0,0,1-.36l.56,1.43a4.27,4.27,0,0,1-1.3.6A6,6,0,0,1,106,350.52Zm-.09-6a1,1,0,0,0-.83.35,1.8,1.8,0,0,0-.31,1v0h2v-.18a1.52,1.52,0,0,0-.21-.88A.79.79,0,0,0,105.88,344.55Z"/><path class="cls-7" d="M114.19,344.88h-.76a1.29,1.29,0,0,0-.66.15.91.91,0,0,0-.38.42v4.93h-2.34v-7.49h2.2l.08,1.11a2.28,2.28,0,0,1,.63-.92,1.38,1.38,0,0,1,.9-.32,1.32,1.32,0,0,1,.29,0l.26.06Z"/><path class="cls-7" d="M126.45,347v0a3.21,3.21,0,0,1-1,2.61,4.12,4.12,0,0,1-2.83.89,3.9,3.9,0,0,1-4.13-4.13v-2.11a4.13,4.13,0,0,1,1.09-3,3.75,3.75,0,0,1,2.88-1.15,4.43,4.43,0,0,1,3,.89,3.18,3.18,0,0,1,1,2.6l0,0h-2.27a1.82,1.82,0,0,0-.4-1.33,1.73,1.73,0,0,0-1.29-.4,1.36,1.36,0,0,0-1.21.63,3,3,0,0,0-.42,1.69v2.12a2.8,2.8,0,0,0,.46,1.69,1.78,1.78,0,0,0,2.49.24,2,2,0,0,0,.35-1.35Z"/><path class="cls-7" d="M127.31,346.56a4,4,0,0,1,.95-2.75,3.89,3.89,0,0,1,5.34,0,3.93,3.93,0,0,1,1,2.75v.15a3.93,3.93,0,0,1-1,2.75,3.89,3.89,0,0,1-5.34,0,4,4,0,0,1-.95-2.75Zm2.34.15a3.14,3.14,0,0,0,.29,1.47,1,1,0,0,0,1,.54,1,1,0,0,0,1-.54,3,3,0,0,0,.3-1.47v-.15a3,3,0,0,0-.3-1.46,1.17,1.17,0,0,0-2,0,3.21,3.21,0,0,0-.29,1.46Z"/><path class="cls-7" d="M137.74,342.88l.09,1.06a2.64,2.64,0,0,1,.91-.88,2.31,2.31,0,0,1,1.2-.31,2.13,2.13,0,0,1,1.72.74,3.73,3.73,0,0,1,.62,2.38v4.5h-2.34v-4.51a1.73,1.73,0,0,0-.23-1,.77.77,0,0,0-.66-.3,1.57,1.57,0,0,0-.67.13,1.34,1.34,0,0,0-.5.37v5.32h-2.34v-7.49Z"/><path class="cls-7" d="M147.46,348.27a.62.62,0,0,0-.32-.5,3.63,3.63,0,0,0-1.14-.39,4.52,4.52,0,0,1-2-.79,1.8,1.8,0,0,1-.66-1.48,2.06,2.06,0,0,1,.83-1.67,3.4,3.4,0,0,1,2.25-.69,3.91,3.91,0,0,1,2.38.66,2,2,0,0,1,.84,1.73v0h-2.27a.92.92,0,0,0-.22-.67,1,1,0,0,0-.73-.23,1,1,0,0,0-.61.2.64.64,0,0,0-.25.52.61.61,0,0,0,.28.5,3.39,3.39,0,0,0,1.16.38,4.54,4.54,0,0,1,2,.8,1.84,1.84,0,0,1,.65,1.52,2,2,0,0,1-.89,1.66,3.91,3.91,0,0,1-2.37.66,3.54,3.54,0,0,1-2.42-.78,2.13,2.13,0,0,1-.85-1.73l0,0h2.11a.93.93,0,0,0,.33.77,1.37,1.37,0,0,0,.87.24,1.18,1.18,0,0,0,.71-.19A.61.61,0,0,0,147.46,348.27Z"/><path class="cls-7" d="M153.49,341v1.86h1.18v1.62h-1.18v3.44a.79.79,0,0,0,.16.57.57.57,0,0,0,.44.18h.29l.27-.06.16,1.73a4.54,4.54,0,0,1-.64.13,4.3,4.3,0,0,1-.67,0,2.33,2.33,0,0,1-1.75-.62,2.71,2.71,0,0,1-.6-1.95V344.5h-1v-1.62h1V341Z"/><path class="cls-7" d="M160,344.88h-.76a1.29,1.29,0,0,0-.66.15.91.91,0,0,0-.38.42v4.93h-2.34v-7.49H158l.08,1.11a2.28,2.28,0,0,1,.63-.92,1.38,1.38,0,0,1,.9-.32,1.32,1.32,0,0,1,.29,0l.26.06Z"/><path class="cls-7" d="M165.32,349.25a2.45,2.45,0,0,1-.86.94,2.28,2.28,0,0,1-1.22.33,2.21,2.21,0,0,1-1.83-.82,4,4,0,0,1-.66-2.52v-4.3h2.33v4.31a2.22,2.22,0,0,0,.23,1.2.78.78,0,0,0,.69.33,2.18,2.18,0,0,0,.66-.1,1.34,1.34,0,0,0,.49-.32v-5.42h2.33v7.49H165.6Z"/><path class="cls-7" d="M172,348.72a.94.94,0,0,0,.71-.26,1.05,1.05,0,0,0,.23-.75h2.14v0a2.45,2.45,0,0,1-.85,2,3.28,3.28,0,0,1-2.24.77,3.31,3.31,0,0,1-2.64-1.06,4,4,0,0,1-.92-2.75v-.16a4,4,0,0,1,.92-2.74,3.27,3.27,0,0,1,2.62-1.06,3.21,3.21,0,0,1,2.28.79,2.73,2.73,0,0,1,.83,2.17v0h-2.14a1.47,1.47,0,0,0-.24-.87.83.83,0,0,0-.72-.33,1,1,0,0,0-.94.54,3.31,3.31,0,0,0-.27,1.46v.16a3.34,3.34,0,0,0,.27,1.48A1,1,0,0,0,172,348.72Z"/><path class="cls-7" d="M178.71,341v1.86h1.18v1.62h-1.18v3.44a.79.79,0,0,0,.16.57.57.57,0,0,0,.44.18h.29l.27-.06.16,1.73a4.54,4.54,0,0,1-.64.13,4.3,4.3,0,0,1-.67,0,2.33,2.33,0,0,1-1.75-.62,2.71,2.71,0,0,1-.6-1.95V344.5h-1v-1.62h1V341Z"/><path class="cls-7" d="M183.48,341.15h-2.35v-1.57h2.35Zm0,9.22h-2.35v-7.49h2.35Z"/><path class="cls-7" d="M184.6,346.56a4,4,0,0,1,1-2.75,3.89,3.89,0,0,1,5.34,0,3.94,3.94,0,0,1,1,2.75v.15a3.94,3.94,0,0,1-1,2.75,3.89,3.89,0,0,1-5.34,0,4,4,0,0,1-1-2.75Zm2.34.15a3.14,3.14,0,0,0,.29,1.47,1.19,1.19,0,0,0,2,0,3.17,3.17,0,0,0,.29-1.47v-.15a3.15,3.15,0,0,0-.29-1.46,1.18,1.18,0,0,0-2,0,3.21,3.21,0,0,0-.29,1.46Z"/><path class="cls-7" d="M195,342.88l.09,1.06a2.64,2.64,0,0,1,.91-.88,2.33,2.33,0,0,1,1.2-.31,2.13,2.13,0,0,1,1.72.74,3.73,3.73,0,0,1,.62,2.38v4.5h-2.34v-4.51a1.73,1.73,0,0,0-.23-1,.77.77,0,0,0-.66-.3,1.57,1.57,0,0,0-.67.13,1.34,1.34,0,0,0-.5.37v5.32h-2.33v-7.49Z"/><line class="cls-4" x1="43.86" y1="295.93" x2="43.86" y2="316.58"/><polygon class="cls-5" points="38.06 311.89 39.1 310.92 43.86 316.04 48.62 310.92 49.66 311.89 43.86 318.12 38.06 311.89"/><path class="cls-8" d="M84.78,424.64v0a3.25,3.25,0,0,1-1,2.62,4.12,4.12,0,0,1-2.83.89,3.91,3.91,0,0,1-4.13-4.14V422A4.15,4.15,0,0,1,78,419a3.78,3.78,0,0,1,2.88-1.14,4.43,4.43,0,0,1,3,.89,3.18,3.18,0,0,1,1,2.6l0,0H82.52a1.82,1.82,0,0,0-.4-1.33,1.73,1.73,0,0,0-1.29-.4,1.36,1.36,0,0,0-1.21.63,3,3,0,0,0-.42,1.69v2.11a2.81,2.81,0,0,0,.46,1.7,1.56,1.56,0,0,0,1.33.64,1.52,1.52,0,0,0,1.16-.4,2,2,0,0,0,.35-1.35Z"/><path class="cls-8" d="M85.64,424.23a4,4,0,0,1,1-2.75,3.89,3.89,0,0,1,5.34,0,3.93,3.93,0,0,1,.95,2.75v.14a4,4,0,0,1-.95,2.76,3.89,3.89,0,0,1-5.34,0,4,4,0,0,1-1-2.76Zm2.34.14a3.19,3.19,0,0,0,.29,1.48,1,1,0,0,0,1,.54,1,1,0,0,0,1-.54,3.05,3.05,0,0,0,.3-1.48v-.14a3.09,3.09,0,0,0-.3-1.47,1.16,1.16,0,0,0-2,0,3.18,3.18,0,0,0-.29,1.46Z"/><path class="cls-8" d="M96.07,420.55l.09,1.05a2.7,2.7,0,0,1,.91-.87,2.31,2.31,0,0,1,1.2-.31,2.1,2.1,0,0,1,1.72.74,3.73,3.73,0,0,1,.62,2.38V428H98.27v-4.51a1.76,1.76,0,0,0-.23-1,.77.77,0,0,0-.66-.3,1.57,1.57,0,0,0-.67.14,1.24,1.24,0,0,0-.5.37V428H93.88v-7.49Z"/><path class="cls-8" d="M105.79,425.94a.62.62,0,0,0-.32-.5,3.63,3.63,0,0,0-1.14-.39,4.52,4.52,0,0,1-2-.79,1.8,1.8,0,0,1-.66-1.48,2.09,2.09,0,0,1,.83-1.68,3.4,3.4,0,0,1,2.25-.68,3.91,3.91,0,0,1,2.38.66,2,2,0,0,1,.84,1.73v0h-2.27a.92.92,0,0,0-.22-.67,1,1,0,0,0-.73-.23,1,1,0,0,0-.61.2.63.63,0,0,0-.25.51.61.61,0,0,0,.28.51,3.3,3.3,0,0,0,1.16.37,4.65,4.65,0,0,1,2,.81,1.84,1.84,0,0,1,.65,1.52,2,2,0,0,1-.89,1.66,3.91,3.91,0,0,1-2.37.66,3.54,3.54,0,0,1-2.42-.78,2.14,2.14,0,0,1-.85-1.73l0,0h2.11a.93.93,0,0,0,.33.77,1.43,1.43,0,0,0,.87.23,1.18,1.18,0,0,0,.71-.18A.63.63,0,0,0,105.79,425.94Z"/><path class="cls-8" d="M111.82,418.69v1.86H113v1.62h-1.18v3.44a.81.81,0,0,0,.16.57.57.57,0,0,0,.44.18h.29l.27-.06.16,1.73c-.23.06-.45.1-.64.13a6,6,0,0,1-.67,0,2.33,2.33,0,0,1-1.75-.62,2.71,2.71,0,0,1-.6-1.95v-3.45h-1v-1.62h1v-1.86Z"/><path class="cls-8" d="M118.28,422.55h-.76a1.29,1.29,0,0,0-.66.15.91.91,0,0,0-.38.42V428h-2.34v-7.49h2.2l.08,1.1a2.31,2.31,0,0,1,.63-.91,1.54,1.54,0,0,1,1.19-.3l.26.06Z"/><path class="cls-8" d="M123.65,426.92a2.45,2.45,0,0,1-.86.94,2.28,2.28,0,0,1-1.22.33,2.24,2.24,0,0,1-1.83-.82,4,4,0,0,1-.66-2.53v-4.29h2.33v4.31a2.27,2.27,0,0,0,.23,1.2.78.78,0,0,0,.69.33,1.9,1.9,0,0,0,.66-.11,1.32,1.32,0,0,0,.49-.31v-5.42h2.33V428h-1.88Z"/><path class="cls-8" d="M130.31,426.39a.94.94,0,0,0,.71-.26,1.09,1.09,0,0,0,.23-.75h2.14v0a2.46,2.46,0,0,1-.85,2,3.28,3.28,0,0,1-2.24.77,3.35,3.35,0,0,1-2.64-1.06,4,4,0,0,1-.92-2.75v-.16a4.08,4.08,0,0,1,.92-2.75,3.3,3.3,0,0,1,2.62-1.05,3.21,3.21,0,0,1,2.28.79,2.73,2.73,0,0,1,.83,2.17v0h-2.14a1.45,1.45,0,0,0-.24-.87.84.84,0,0,0-.72-.34,1,1,0,0,0-.94.55,3.31,3.31,0,0,0-.27,1.46v.16a3.27,3.27,0,0,0,.27,1.47A1,1,0,0,0,130.31,426.39Z"/><path class="cls-8" d="M137,418.69v1.86h1.18v1.62H137v3.44a.81.81,0,0,0,.16.57.57.57,0,0,0,.44.18h.29l.27-.06.16,1.73c-.23.06-.45.1-.64.13a6,6,0,0,1-.67,0,2.33,2.33,0,0,1-1.75-.62,2.71,2.71,0,0,1-.6-1.95v-3.45h-1v-1.62h1v-1.86Z"/><path class="cls-8" d="M141.81,418.82h-2.35v-1.57h2.35Zm0,9.22h-2.35v-7.49h2.35Z"/><path class="cls-8" d="M142.93,424.23a4,4,0,0,1,.95-2.75,3.89,3.89,0,0,1,5.34,0,3.94,3.94,0,0,1,1,2.75v.14a4,4,0,0,1-1,2.76,3.42,3.42,0,0,1-2.66,1.06,3.46,3.46,0,0,1-2.68-1.06,4,4,0,0,1-.95-2.76Zm2.34.14a3.19,3.19,0,0,0,.29,1.48,1.19,1.19,0,0,0,2,0,3.19,3.19,0,0,0,.29-1.48v-.14a3.23,3.23,0,0,0-.29-1.47,1.06,1.06,0,0,0-1-.55,1,1,0,0,0-1,.56,3.18,3.18,0,0,0-.29,1.46Z"/><path class="cls-8" d="M153.36,420.55l.09,1.05a2.7,2.7,0,0,1,.91-.87,2.33,2.33,0,0,1,1.2-.31,2.1,2.1,0,0,1,1.72.74,3.73,3.73,0,0,1,.62,2.38V428h-2.34v-4.51a1.76,1.76,0,0,0-.23-1,.77.77,0,0,0-.66-.3,1.57,1.57,0,0,0-.67.14,1.24,1.24,0,0,0-.5.37V428h-2.33v-7.49Z"/><path class="cls-8" d="M170.58,424.64v0a3.25,3.25,0,0,1-1,2.62,4.14,4.14,0,0,1-2.83.89,3.93,3.93,0,0,1-4.14-4.14V422a4.2,4.2,0,0,1,1.09-3,3.82,3.82,0,0,1,2.89-1.14,4.47,4.47,0,0,1,3,.89,3.15,3.15,0,0,1,1,2.6l0,0h-2.27a1.87,1.87,0,0,0-.4-1.33,1.73,1.73,0,0,0-1.29-.4,1.36,1.36,0,0,0-1.21.63,2.94,2.94,0,0,0-.43,1.69v2.11a2.81,2.81,0,0,0,.47,1.7,1.56,1.56,0,0,0,1.33.64,1.48,1.48,0,0,0,1.15-.4,2,2,0,0,0,.36-1.35Z"/><path class="cls-8" d="M171.44,424.23a3.93,3.93,0,0,1,.95-2.75,3.89,3.89,0,0,1,5.34,0,4,4,0,0,1,1,2.75v.14a4,4,0,0,1-1,2.76,3.89,3.89,0,0,1-5.34,0,4,4,0,0,1-.95-2.76Zm2.34.14a3.06,3.06,0,0,0,.29,1.48,1,1,0,0,0,1,.54,1,1,0,0,0,1-.54,3.05,3.05,0,0,0,.3-1.48v-.14a3.09,3.09,0,0,0-.3-1.47,1.05,1.05,0,0,0-1-.55,1,1,0,0,0-1,.56,3.06,3.06,0,0,0-.29,1.46Z"/><path class="cls-8" d="M181.91,420.55l.09,1a2.42,2.42,0,0,1,2.11-1.12,2.34,2.34,0,0,1,1.21.3,1.82,1.82,0,0,1,.76.93,2.43,2.43,0,0,1,.89-.91,2.37,2.37,0,0,1,1.27-.32,2.09,2.09,0,0,1,1.72.78,3.83,3.83,0,0,1,.62,2.42V428h-2.34v-4.42a2,2,0,0,0-.23-1.11.78.78,0,0,0-.67-.3,1.4,1.4,0,0,0-.6.12,1.48,1.48,0,0,0-.44.34,1.34,1.34,0,0,0,0,.21c0,.05,0,.11,0,.16v5H184v-4.42a2,2,0,0,0-.23-1.11.78.78,0,0,0-.68-.3,1.4,1.4,0,0,0-.58.12,1.48,1.48,0,0,0-.44.34V428h-2.34v-7.49Z"/><path class="cls-8" d="M198.86,424.46a4.42,4.42,0,0,1-.77,2.71,2.51,2.51,0,0,1-2.14,1,2.12,2.12,0,0,1-1-.21,2.2,2.2,0,0,1-.73-.6v3.54h-2.34V420.55h2.21l.07.82a2.38,2.38,0,0,1,.74-.71,2,2,0,0,1,1-.24,2.48,2.48,0,0,1,2.15,1.07,4.73,4.73,0,0,1,.77,2.82Zm-2.34-.15a3.6,3.6,0,0,0-.27-1.52.94.94,0,0,0-.89-.58,1.41,1.41,0,0,0-.67.15,1.15,1.15,0,0,0-.43.42v3.13a1,1,0,0,0,.44.36,1.69,1.69,0,0,0,.68.12.92.92,0,0,0,.88-.51,3.21,3.21,0,0,0,.26-1.42Z"/><path class="cls-8" d="M202.34,428H200V417.25h2.35Z"/><path class="cls-8" d="M207.09,428.19a3.52,3.52,0,0,1-2.67-1,3.69,3.69,0,0,1-1-2.61v-.27a4.16,4.16,0,0,1,.91-2.79,3.2,3.2,0,0,1,2.63-1.07,3.05,3.05,0,0,1,2.35.9,3.52,3.52,0,0,1,.84,2.49V425h-4.3v0a1.44,1.44,0,0,0,.44.95,1.47,1.47,0,0,0,1.09.37,5,5,0,0,0,1.12-.11,8,8,0,0,0,1-.36l.56,1.43a4.39,4.39,0,0,1-1.3.59A5.77,5.77,0,0,1,207.09,428.19Zm-.09-6a1,1,0,0,0-.83.36,1.8,1.8,0,0,0-.3,1v0h2v-.18a1.61,1.61,0,0,0-.2-.88A.79.79,0,0,0,207,422.21Z"/><path class="cls-8" d="M213.86,418.69v1.86H215v1.62h-1.18v3.44a.81.81,0,0,0,.16.57.57.57,0,0,0,.44.18h.29l.27-.06.16,1.73c-.23.06-.45.1-.64.13a6,6,0,0,1-.67,0,2.33,2.33,0,0,1-1.75-.62,2.71,2.71,0,0,1-.6-1.95v-3.45h-1v-1.62h1v-1.86Z"/><path class="cls-8" d="M219.5,428.19a3.52,3.52,0,0,1-2.67-1,3.69,3.69,0,0,1-1-2.61v-.27a4.16,4.16,0,0,1,.91-2.79,3.2,3.2,0,0,1,2.63-1.07,3.05,3.05,0,0,1,2.35.9,3.52,3.52,0,0,1,.83,2.49V425H218.3v0a1.44,1.44,0,0,0,.44.95,1.47,1.47,0,0,0,1.09.37,5,5,0,0,0,1.12-.11,9.19,9.19,0,0,0,1-.36l.56,1.43a4.39,4.39,0,0,1-1.3.59A5.77,5.77,0,0,1,219.5,428.19Zm-.09-6a1,1,0,0,0-.83.36,1.8,1.8,0,0,0-.3,1v0h2v-.18a1.61,1.61,0,0,0-.2-.88A.79.79,0,0,0,219.41,422.21Z"/><line class="cls-4" x1="43.86" y1="373.6" x2="43.86" y2="394.25"/><polygon class="cls-5" points="38.06 389.56 39.1 388.59 43.86 393.71 48.62 388.59 49.66 389.56 43.86 395.79 38.06 389.56"/><path class="cls-9" d="M140.77,154.25v7.4c0,4.07,4,7.4,9,7.4h130a9,9,0,0,0,9-9v-90a9,9,0,0,0-9-9h-130a9,9,0,0,0-9,9v22"/><polygon class="cls-2" points="134.97 87.42 136.01 86.46 140.76 91.58 145.52 86.46 146.56 87.42 140.76 93.66 134.97 87.42"/><circle class="cls-10" cx="288.15" cy="112.27" r="35.84"/><circle class="cls-11" cx="288.15" cy="112.27" r="35.84" transform="translate(5.01 236.64) rotate(-45)"/><path class="cls-2" d="M271.21,102.1h-1.42l.95-6.34h1.42Zm1.18-7.89H271l.19-1.25h1.42Z"/><path class="cls-2" d="M273.27,102.1l.79-5.28h-1l.16-1.06h1l.11-.73a2.46,2.46,0,0,1,.81-1.64,2.49,2.49,0,0,1,1.69-.55,2,2,0,0,1,.41,0l.46.08-.31,1.11-.25,0h-.31a1.05,1.05,0,0,0-.73.26,1.32,1.32,0,0,0-.35.76l-.11.73h1.18l-.16,1.06h-1.18l-.79,5.28Z"/><path class="cls-2" d="M282.06,96.56a2.64,2.64,0,0,1,.88-.68,2.7,2.7,0,0,1,1.12-.23,1.69,1.69,0,0,1,1,.28,1.4,1.4,0,0,1,.56.83,2.71,2.71,0,0,1,.9-.82,2.42,2.42,0,0,1,1.17-.29,1.59,1.59,0,0,1,1.4.67,2.8,2.8,0,0,1,.27,2l-.57,3.77h-1.42l.56-3.78a1.74,1.74,0,0,0-.1-1.19.9.9,0,0,0-.79-.32,1.36,1.36,0,0,0-.8.26,1.8,1.8,0,0,0-.56.68l0,.25-.62,4.1h-1.42l.57-3.78a1.76,1.76,0,0,0-.11-1.17.9.9,0,0,0-.79-.34,1.54,1.54,0,0,0-.75.18,1.67,1.67,0,0,0-.56.5l-.69,4.61h-1.43l.95-6.34h1.3Z"/><path class="cls-2" d="M290.51,98.88a4,4,0,0,1,1.12-2.35,3.08,3.08,0,0,1,2.26-.88,2.3,2.3,0,0,1,2,.91,3.05,3.05,0,0,1,.46,2.32l0,.12a4,4,0,0,1-1.12,2.35,3.11,3.11,0,0,1-2.27.88,2.3,2.3,0,0,1-2-.91,3,3,0,0,1-.46-2.32Zm1.41.12a2.55,2.55,0,0,0,.13,1.53,1.05,1.05,0,0,0,1,.56,1.48,1.48,0,0,0,1.19-.59,3.08,3.08,0,0,0,.61-1.5l0-.12a2.52,2.52,0,0,0-.14-1.52,1.07,1.07,0,0,0-1-.57,1.44,1.44,0,0,0-1.18.6,2.94,2.94,0,0,0-.6,1.49Z"/><path class="cls-2" d="M301,97.05l-.6,0a1.43,1.43,0,0,0-.72.19,1.5,1.5,0,0,0-.51.52l-.66,4.37h-1.42l1-6.34h1.3l0,.9a2.49,2.49,0,0,1,.73-.75,1.73,1.73,0,0,1,.92-.26.86.86,0,0,1,.23,0l.21,0Z"/><path class="cls-2" d="M303.86,102.23a2.41,2.41,0,0,1-2-.89,2.82,2.82,0,0,1-.46-2.26l0-.23a3.9,3.9,0,0,1,1.13-2.33,2.91,2.91,0,0,1,2.15-.87,2,2,0,0,1,1.79.79,2.84,2.84,0,0,1,.37,2.1l-.11.77h-4a2,2,0,0,0,.24,1.3,1.22,1.22,0,0,0,1.1.48,3.64,3.64,0,0,0,1-.14,3.75,3.75,0,0,0,.86-.4l.32.93a3.49,3.49,0,0,1-1,.53A4.17,4.17,0,0,1,303.86,102.23Zm.66-5.44a1.27,1.27,0,0,0-.93.4,2.47,2.47,0,0,0-.59,1l0,0h2.46l0-.11a1.48,1.48,0,0,0-.13-1A.92.92,0,0,0,304.52,96.79Z"/><path class="cls-2" d="M258.72,116.5H257.3l.95-6.34h1.42Zm1.19-7.89h-1.43l.19-1.25h1.42Z"/><path class="cls-2" d="M262.5,111a2.84,2.84,0,0,1,.9-.73,2.29,2.29,0,0,1,1.1-.26,1.69,1.69,0,0,1,1.43.61,2.46,2.46,0,0,1,.29,1.9l-.59,3.94h-1.42l.59-3.93a1.43,1.43,0,0,0-.13-1.06,1,1,0,0,0-.83-.3,1.77,1.77,0,0,0-.8.18,1.88,1.88,0,0,0-.62.5l-.69,4.61H260.3l.95-6.34h1.3Z"/><path class="cls-2" d="M267.58,116.5l.79-5.28h-1l.16-1.06h1l.12-.73a2.49,2.49,0,0,1,.8-1.64,2.54,2.54,0,0,1,1.7-.55,2,2,0,0,1,.41,0l.46.08-.31,1.11-.25,0h-.31a1.05,1.05,0,0,0-.73.26,1.26,1.26,0,0,0-.35.76l-.11.73h1.18l-.16,1.06h-1.18L269,116.5Z"/><path class="cls-2" d="M271.4,113.28a3.94,3.94,0,0,1,1.11-2.35,3.11,3.11,0,0,1,2.27-.88,2.27,2.27,0,0,1,2,.91,3,3,0,0,1,.46,2.32v.12a4,4,0,0,1-1.13,2.35,3.09,3.09,0,0,1-2.27.88,2.3,2.3,0,0,1-2-.91,3,3,0,0,1-.45-2.32Zm1.4.12a2.63,2.63,0,0,0,.13,1.53,1.05,1.05,0,0,0,1,.56,1.46,1.46,0,0,0,1.19-.59,3.19,3.19,0,0,0,.62-1.5l0-.12a2.59,2.59,0,0,0-.15-1.52,1.06,1.06,0,0,0-1-.57,1.45,1.45,0,0,0-1.19.6,3.13,3.13,0,0,0-.6,1.49Z"/><path class="cls-2" d="M281.88,111.45l-.6,0a1.37,1.37,0,0,0-.71.19,1.44,1.44,0,0,0-.52.52l-.66,4.37H278l.95-6.34h1.3l0,.9a2.49,2.49,0,0,1,.73-.75,1.69,1.69,0,0,1,.91-.26,1,1,0,0,1,.24,0l.2.05Z"/><path class="cls-2" d="M284.39,111a2.71,2.71,0,0,1,.87-.68,2.78,2.78,0,0,1,1.13-.23,1.71,1.71,0,0,1,1,.28,1.4,1.4,0,0,1,.56.83,2.68,2.68,0,0,1,.89-.82,2.48,2.48,0,0,1,1.18-.29,1.6,1.6,0,0,1,1.4.67,2.8,2.8,0,0,1,.27,2l-.57,3.77h-1.43l.57-3.78a1.8,1.8,0,0,0-.1-1.19.9.9,0,0,0-.79-.32,1.36,1.36,0,0,0-.8.26,1.8,1.8,0,0,0-.56.68l0,.25-.62,4.1h-1.42l.57-3.78a1.75,1.75,0,0,0-.11-1.17.91.91,0,0,0-.79-.34,1.54,1.54,0,0,0-.75.18,1.67,1.67,0,0,0-.56.5l-.69,4.61h-1.43l.95-6.34h1.3Z"/><path class="cls-2" d="M296.44,116.5a3.4,3.4,0,0,1-.06-.46,2.36,2.36,0,0,1,0-.46,3.26,3.26,0,0,1-.89.75,2.2,2.2,0,0,1-1.11.3,1.83,1.83,0,0,1-1.43-.52,1.61,1.61,0,0,1-.34-1.39,2,2,0,0,1,.94-1.45,4,4,0,0,1,2.13-.5h1.11l.08-.55a.94.94,0,0,0-.17-.79,1,1,0,0,0-.8-.28,1.36,1.36,0,0,0-.81.24.84.84,0,0,0-.38.6h-1.36l0,0a1.91,1.91,0,0,1,.87-1.35,3.32,3.32,0,0,1,2-.56,2.37,2.37,0,0,1,1.68.57,1.71,1.71,0,0,1,.46,1.61l-.43,2.82a5.1,5.1,0,0,0-.05.76,4,4,0,0,0,.06.69Zm-1.59-1a2,2,0,0,0,1-.27,1.69,1.69,0,0,0,.67-.62l.14-.93h-1.13a1.68,1.68,0,0,0-1,.31,1.13,1.13,0,0,0-.47.72.67.67,0,0,0,.14.59A.9.9,0,0,0,294.85,115.48Z"/><path class="cls-2" d="M302.15,108.62l-.23,1.54h1.13l-.15,1.06h-1.14l-.52,3.5a.69.69,0,0,0,.07.57.57.57,0,0,0,.44.16l.23,0a.9.9,0,0,0,.22-.06v1a2.37,2.37,0,0,1-.45.15,2.33,2.33,0,0,1-.53.06,1.43,1.43,0,0,1-1.15-.47,1.77,1.77,0,0,1-.24-1.44l.52-3.5h-1l.16-1.06h1l.23-1.54Z"/><path class="cls-2" d="M304.77,116.5h-1.42l.95-6.34h1.42Zm1.18-7.89h-1.42l.19-1.25h1.42Z"/><path class="cls-2" d="M306.59,113.28a3.94,3.94,0,0,1,1.11-2.35,3.11,3.11,0,0,1,2.27-.88,2.27,2.27,0,0,1,2,.91,3.05,3.05,0,0,1,.47,2.32l0,.12a4,4,0,0,1-1.13,2.35,3.07,3.07,0,0,1-2.26.88,2.32,2.32,0,0,1-2-.91,3,3,0,0,1-.45-2.32Zm1.4.12a2.72,2.72,0,0,0,.13,1.53,1.07,1.07,0,0,0,1.05.56,1.46,1.46,0,0,0,1.18-.59,3.09,3.09,0,0,0,.62-1.5l0-.12a2.59,2.59,0,0,0-.15-1.52,1.05,1.05,0,0,0-1-.57,1.46,1.46,0,0,0-1.19.6,3.13,3.13,0,0,0-.6,1.49Z"/><path class="cls-2" d="M315.35,111a2.7,2.7,0,0,1,.89-.73,2.32,2.32,0,0,1,1.1-.26,1.71,1.71,0,0,1,1.44.61,2.5,2.5,0,0,1,.29,1.9l-.59,3.94h-1.43l.59-3.93a1.39,1.39,0,0,0-.12-1.06,1,1,0,0,0-.83-.3,1.71,1.71,0,0,0-.8.18,2,2,0,0,0-.63.5l-.69,4.61h-1.42l1-6.34h1.3Z"/><path class="cls-2" d="M270.36,125.85l-.6,0a1.37,1.37,0,0,0-.71.19,1.44,1.44,0,0,0-.52.52l-.66,4.37h-1.42l.95-6.34h1.3l0,.9a2.47,2.47,0,0,1,.72-.75,1.73,1.73,0,0,1,.92-.26.86.86,0,0,1,.23,0l.21,0Z"/><path class="cls-2" d="M273.22,131a2.37,2.37,0,0,1-2-.89,2.83,2.83,0,0,1-.47-2.26l0-.23a4,4,0,0,1,1.13-2.33,2.91,2.91,0,0,1,2.15-.87,2,2,0,0,1,1.79.79,2.84,2.84,0,0,1,.37,2.1l-.11.77h-4a2,2,0,0,0,.24,1.3,1.22,1.22,0,0,0,1.1.48,3.64,3.64,0,0,0,1-.14,3.56,3.56,0,0,0,.86-.4l.32.93a3.49,3.49,0,0,1-1,.53A4.17,4.17,0,0,1,273.22,131Zm.66-5.44a1.27,1.27,0,0,0-.93.4,2.35,2.35,0,0,0-.58,1v0h2.46l0-.11a1.48,1.48,0,0,0-.13-1A.92.92,0,0,0,273.88,125.59Z"/><path class="cls-2" d="M277,127.82a4.82,4.82,0,0,1,1-2.47,2.5,2.5,0,0,1,2-.9,1.79,1.79,0,0,1,.92.23,1.76,1.76,0,0,1,.63.69l.29-.81H283l-1.32,8.78h-1.42l.45-3a2.34,2.34,0,0,1-.77.54,2.18,2.18,0,0,1-.93.19,1.84,1.84,0,0,1-1.67-.86A3.22,3.22,0,0,1,277,128Zm1.41.13a2.4,2.4,0,0,0,.11,1.43,1,1,0,0,0,1,.51,1.54,1.54,0,0,0,.75-.18,1.71,1.71,0,0,0,.59-.52l.44-2.93a1.21,1.21,0,0,0-.43-.49,1.27,1.27,0,0,0-.69-.18,1.39,1.39,0,0,0-1.16.63,3.72,3.72,0,0,0-.6,1.6Z"/><path class="cls-2" d="M287.71,130.9V130a2.48,2.48,0,0,1-.86.76,2.34,2.34,0,0,1-1.11.27,1.72,1.72,0,0,1-1.48-.68,2.81,2.81,0,0,1-.28-2.08l.56-3.71H286l-.55,3.73a2,2,0,0,0,.07,1.26.87.87,0,0,0,.78.32,1.93,1.93,0,0,0,.88-.2,1.86,1.86,0,0,0,.64-.55l.68-4.56h1.42l-.94,6.34Z"/><path class="cls-2" d="M291.94,130.9h-1.42l1-6.34h1.42Zm1.19-7.89H291.7l.19-1.25h1.42Z"/><path class="cls-2" d="M297.45,125.85l-.6,0a1.43,1.43,0,0,0-.72.19,1.5,1.5,0,0,0-.51.52L295,130.9h-1.42l.94-6.34h1.31l-.05.9a2.49,2.49,0,0,1,.73-.75,1.72,1.72,0,0,1,.91-.26.9.9,0,0,1,.24,0l.2,0Z"/><path class="cls-2" d="M300.31,131a2.41,2.41,0,0,1-2-.89,2.86,2.86,0,0,1-.47-2.26l0-.23a4,4,0,0,1,1.12-2.33,3,3,0,0,1,2.16-.87,2,2,0,0,1,1.79.79,2.84,2.84,0,0,1,.37,2.1l-.11.77h-4a2,2,0,0,0,.24,1.3,1.22,1.22,0,0,0,1.1.48,3.64,3.64,0,0,0,1-.14,3.75,3.75,0,0,0,.86-.4l.32.93a3.62,3.62,0,0,1-1,.53A4.17,4.17,0,0,1,300.31,131Zm.66-5.44a1.27,1.27,0,0,0-.93.4,2.37,2.37,0,0,0-.59,1v0h2.47l0-.11a1.42,1.42,0,0,0-.14-1A.9.9,0,0,0,301,125.59Z"/><path class="cls-2" d="M304.12,127.82a4.73,4.73,0,0,1,1-2.47,2.5,2.5,0,0,1,2-.9,1.67,1.67,0,0,1,1.5.84l.53-3.53h1.43l-1.37,9.14H308l0-.8a2.72,2.72,0,0,1-.84.69,2.24,2.24,0,0,1-1,.24,1.84,1.84,0,0,1-1.66-.86,3.16,3.16,0,0,1-.34-2.22Zm1.4.13a2.39,2.39,0,0,0,.12,1.41,1,1,0,0,0,1,.51,1.56,1.56,0,0,0,.78-.2,2,2,0,0,0,.61-.56l.41-2.75a1.2,1.2,0,0,0-.43-.55,1.25,1.25,0,0,0-.72-.2,1.37,1.37,0,0,0-1.15.62,3.44,3.44,0,0,0-.6,1.59Z"/></g><g id="Layer_9" data-name="Layer 9"><circle class="cls-10" cx="43.45" cy="32.52" r="19.08"/><circle class="cls-12" cx="43.45" cy="32.52" r="19.08" transform="translate(4.39 70.2) rotate(-80.78)"/><circle class="cls-2" cx="43.45" cy="109.09" r="19.08"/><circle class="cls-3" cx="43.45" cy="188.14" r="19.08"/><path class="cls-13" d="M51.71,101.76a6.76,6.76,0,0,0-11.53,4.79,6.66,6.66,0,0,0,1.55,4.29l-1,1-.24-.23a.63.63,0,0,0-.87,0l-5.26,5.25a1.58,1.58,0,0,0,0,2.22,1.56,1.56,0,0,0,2.22,0l5.26-5.25a.65.65,0,0,0,0-.88l-.24-.23,1.05-1a6.74,6.74,0,0,0,9.08-.44,6.69,6.69,0,0,0,2-4.79A6.77,6.77,0,0,0,51.71,101.76Zm-1.05,8.53a5.28,5.28,0,1,1,1.55-3.74A5.27,5.27,0,0,1,50.66,110.29Z"/><path class="cls-10" d="M36.24,187.78c-1.61-1.54-3.1-.31-1.82,2.08a23.87,23.87,0,0,1,2.45,7c.33,3.11,1.84,2.75,3.21-.25,2.78-5.75,5.72-11.24,12.38-15.21,1.32-1,1.07-2.19-1.2-1.74a32.73,32.73,0,0,0-12.49,11.3,15.17,15.17,0,0,0-2.53-3.16Z"/><circle class="cls-6" cx="43.45" cy="266.3" r="19.08"/><circle class="cls-7" cx="43.45" cy="345.35" r="19.08"/><circle class="cls-8" cx="43.45" cy="423.02" r="19.08"/><path class="cls-10" d="M52.4,268.79h-6v-1.33a.67.67,0,0,0-.66-.66h-.24v-2.75a5,5,0,1,0-4.14,0v2.75h-.25a.67.67,0,0,0-.66.66v1.33h-6a1.91,1.91,0,0,0-1.9,1.9v2.63a1.91,1.91,0,0,0,1.9,1.9h.06v0a1.91,1.91,0,0,0,1.9,1.9h14a1.91,1.91,0,0,0,1.9-1.9v0h0a1.9,1.9,0,0,0,1.9-1.9v-2.63A1.9,1.9,0,0,0,52.4,268.79ZM42.25,263a3.68,3.68,0,1,1,2.39,0,.66.66,0,0,0-.44.62v3.2H42.69v-3.2A.66.66,0,0,0,42.25,263ZM53,273.32a.59.59,0,0,1-.58.59H34.49a.59.59,0,0,1-.58-.59v-2.63a.59.59,0,0,1,.58-.59H52.4a.59.59,0,0,1,.58.59Z"/><path class="cls-14" d="M40.25,336.9v1.62l-2-1.62Zm-2.66.37,2.17,1.78H37.59Zm0,3,2.17,1.78H37.59Zm2.66-.53v1.78l-2.18-1.78Zm-2.66,3.56,2.17,1.78H37.59Zm2.66-.53v1.78l-2.18-1.78Zm-2.66,3.56,2.17,1.78H37.59Zm.48-.53h2.18v1.78Zm-.48,3.56,2,1.62h-2Zm.48-.53h2.18v1.78Zm10.91-8v-2.65H41.3v-2.36H36.54v2.36H34v2.65h2.54V351H34v3.36h9.83V351H41.3V340.86h5.1v.53h-.65v2h.65v.39a1.12,1.12,0,0,0-.75,1.06A1.11,1.11,0,0,0,46.77,346a1.09,1.09,0,0,0,1.11-1l-.71-.06a.39.39,0,0,1-.4.34.4.4,0,0,1,0-.8.36.36,0,0,0,.36-.36v-.69h.65v-2h-.65v-.53Z"/><path class="cls-14" d="M49,342.84v3.41H45.52v8.12H53.3V342.84Zm0,9.83H47.55v-2.43H49Zm0-3.15H47.55v-2.43H49Zm2.3,3.15H49.84v-2.43h1.44Zm0-3.15H49.84v-2.43h1.44Z"/><path class="cls-10" d="M53,432.34H51.11v-2.12a2.29,2.29,0,1,0-1.62-4.09V415.85h.22a.24.24,0,0,0,.24-.24V414.2a.24.24,0,0,0-.24-.24H37.89a.24.24,0,0,0-.24.24v1.41a.24.24,0,0,0,.24.24H38v10.29a2.23,2.23,0,0,0-1.4-.49,2.29,2.29,0,0,0-.25,4.57v2.12H34.57a.23.23,0,0,0-.23.23.23.23,0,0,0,.23.24H53a.23.23,0,0,0,.23-.24A.23.23,0,0,0,53,432.34ZM38.12,414.43H49.49v.95H38.12ZM49,429.28V431H45.78v-5a.23.23,0,0,0-.24-.23H42a.23.23,0,0,0-.24.23v5H38.5v-1.76a2.23,2.23,0,0,0,0-2.63V415.85H49v10.76a2.25,2.25,0,0,0,0,2.67Zm-3.72-3V431h-3.1v-4.75Zm-8.68,1a.23.23,0,0,0-.24.23v.69l-.31-.34a.24.24,0,1,0-.34.34l.65.67v.88A1.81,1.81,0,1,1,38.45,428a1.83,1.83,0,0,1-1.6,1.8v-.92l.63-.64a.24.24,0,0,0,0-.34.24.24,0,0,0-.33,0l-.29.3v-.64A.23.23,0,0,0,36.63,427.27ZM38,431h-.1a.23.23,0,0,0-.23.23v1.09h-.85v-2.12a2.21,2.21,0,0,0,1.18-.47Zm11.46,1.32H38.17v-.85H49.49Zm1.15,0H50v-1.09a.23.23,0,0,0-.24-.23H49.5v-1.26a2.21,2.21,0,0,0,1.15.46Zm.25-5.07a.23.23,0,0,0-.23.23v.68l-.32-.33a.24.24,0,0,0-.33,0,.24.24,0,0,0,0,.34l.65.67v.88a1.79,1.79,0,1,1,.47,0v-.92l.63-.64a.24.24,0,1,0-.34-.34l-.28.3v-.64A.24.24,0,0,0,50.89,427.27Z"/><path class="cls-10" d="M49,415.85H38.5v10.78a2.23,2.23,0,0,1,0,2.63V431h3.24v-5a.23.23,0,0,1,.24-.23h3.56a.23.23,0,0,1,.24.23v5H49v-1.74a2.25,2.25,0,0,1,0-2.67Zm-8,12a.25.25,0,0,1-.25.24H39.58a.23.23,0,0,1-.23-.24V426a.23.23,0,0,1,.23-.23h1.18A.24.24,0,0,1,41,426Zm0-3a.25.25,0,0,1-.25.24H39.58a.23.23,0,0,1-.23-.24v-1.81a.23.23,0,0,1,.23-.24h1.18a.25.25,0,0,1,.25.24Zm0-3a.25.25,0,0,1-.25.24H39.58a.23.23,0,0,1-.23-.24v-1.81a.23.23,0,0,1,.23-.24h1.18a.25.25,0,0,1,.25.24Zm0-3a.25.25,0,0,1-.25.24H39.58a.23.23,0,0,1-.23-.24v-1.81a.23.23,0,0,1,.23-.24h1.18a.25.25,0,0,1,.25.24Zm2.38,6a.23.23,0,0,1-.23.24H42a.24.24,0,0,1-.24-.24v-1.81a.24.24,0,0,1,.24-.24h1.18a.23.23,0,0,1,.23.24Zm0-3a.23.23,0,0,1-.23.24H42a.24.24,0,0,1-.24-.24v-1.81a.24.24,0,0,1,.24-.24h1.18a.23.23,0,0,1,.23.24Zm0-3a.23.23,0,0,1-.23.24H42a.24.24,0,0,1-.24-.24v-1.81a.24.24,0,0,1,.24-.24h1.18a.23.23,0,0,1,.23.24Zm2.39,6a.24.24,0,0,1-.24.24H44.36a.23.23,0,0,1-.23-.24v-1.81a.23.23,0,0,1,.23-.24h1.18a.24.24,0,0,1,.24.24Zm0-3a.24.24,0,0,1-.24.24H44.36a.23.23,0,0,1-.23-.24v-1.81a.23.23,0,0,1,.23-.24h1.18a.24.24,0,0,1,.24.24Zm0-3a.24.24,0,0,1-.24.24H44.36a.23.23,0,0,1-.23-.24v-1.81a.23.23,0,0,1,.23-.24h1.18a.24.24,0,0,1,.24.24Zm2.39,9a.23.23,0,0,1-.23.24H46.76a.25.25,0,0,1-.25-.24V426a.24.24,0,0,1,.25-.23h1.18a.23.23,0,0,1,.23.23Zm0-3a.23.23,0,0,1-.23.24H46.76a.25.25,0,0,1-.25-.24v-1.81a.25.25,0,0,1,.25-.24h1.18a.23.23,0,0,1,.23.24Zm0-3a.23.23,0,0,1-.23.24H46.76a.25.25,0,0,1-.25-.24v-1.81a.25.25,0,0,1,.25-.24h1.18a.23.23,0,0,1,.23.24Zm0-3a.23.23,0,0,1-.23.24H46.76a.25.25,0,0,1-.25-.24v-1.81a.25.25,0,0,1,.25-.24h1.18a.23.23,0,0,1,.23.24Z"/></g></svg>