<svg xmlns="http://www.w3.org/2000/svg" width="450" height="180" viewBox="0 0 450 180"><defs><style>.cls-1{fill:none;stroke-linecap:round;stroke-linejoin:round;stroke-width:0.99px;}.cls-1,.cls-3,.cls-4{stroke:#000;}.cls-2,.cls-4{fill:#fff;}.cls-3,.cls-4{stroke-miterlimit:10;stroke-width:0.57px;}</style></defs><title>diagrams</title><g id="Layer_1" data-name="Layer 1"><path d="M63.1,136.35H58.61v4.71H57.16V130.4h6.69v1.13H58.61v3.68H63.1Z"/><path d="M70.51,138.32h-4l-1,2.74H64.08l3.84-10.66h1.24l3.76,10.66H71.45Zm-3.59-1.21H70.1l-1.55-4.58h0Z"/><path d="M75.93,136.44v4.62H74.49V130.41h3.65a4.07,4.07,0,0,1,2.67.77,2.78,2.78,0,0,1,.93,2.26,2.47,2.47,0,0,1-.43,1.43,3,3,0,0,1-1.25,1,2.2,2.2,0,0,1,1.26.93,3,3,0,0,1,.39,1.59v1a3.06,3.06,0,0,0,.11.89,1.33,1.33,0,0,0,.38.65v.17H80.71a1.21,1.21,0,0,1-.37-.73,6.43,6.43,0,0,1-.08-1v-1a1.94,1.94,0,0,0-.5-1.39,1.81,1.81,0,0,0-1.36-.53Zm0-1.13H78a2.65,2.65,0,0,0,1.76-.47,1.77,1.77,0,0,0,.54-1.42,1.81,1.81,0,0,0-.52-1.39,2.3,2.3,0,0,0-1.63-.5H75.93Z"/><path d="M85.41,134.65H84v-1.48h1.44Zm0,6.41H84v-1.48h1.44Z"/><path d="M95.5,141.06H94.05v-9.33l-2.32,0v-1.11l3.77-.39Z"/><path d="M32.73,155.65l0,0a3.21,3.21,0,0,1-1.06,2.52,4,4,0,0,1-2.86,1,3.75,3.75,0,0,1-2.95-1.29,4.69,4.69,0,0,1-1.14-3.25v-1.89a4.73,4.73,0,0,1,1.14-3.26,3.74,3.74,0,0,1,2.95-1.28,4.18,4.18,0,0,1,2.88,1,3.18,3.18,0,0,1,1,2.55l0,0H31.35a2.39,2.39,0,0,0-.66-1.77,2.55,2.55,0,0,0-1.86-.65,2.29,2.29,0,0,0-1.93,1,4,4,0,0,0-.72,2.42v1.91a4,4,0,0,0,.72,2.43,2.28,2.28,0,0,0,1.93,1,2.55,2.55,0,0,0,1.86-.65,2.39,2.39,0,0,0,.66-1.79Z"/><path d="M34.09,155a4.35,4.35,0,0,1,.95-2.9A3.19,3.19,0,0,1,37.63,151a3.23,3.23,0,0,1,2.6,1.14,4.31,4.31,0,0,1,1,2.9v.16a4.31,4.31,0,0,1-1,2.9,3.53,3.53,0,0,1-5.19,0,4.34,4.34,0,0,1-.95-2.89Zm1.44.16a3.8,3.8,0,0,0,.53,2.08,1.92,1.92,0,0,0,3.15,0,3.8,3.8,0,0,0,.53-2.08V155A3.76,3.76,0,0,0,39.2,153a1.91,1.91,0,0,0-3.14,0,3.85,3.85,0,0,0-.53,2.08Z"/><path d="M45.48,156.73l.13.55h0l.14-.55,1.83-5.59h1.47l-2.92,7.92H45.08l-2.95-7.92h1.48Z"/><path d="M53.57,159.22a3.36,3.36,0,0,1-2.66-1.09,4.21,4.21,0,0,1-1-2.88v-.32a4.08,4.08,0,0,1,1-2.82,3.06,3.06,0,0,1,2.4-1.12,2.89,2.89,0,0,1,2.39,1,4.08,4.08,0,0,1,.79,2.63v.76H51.45l0,0a3.26,3.26,0,0,0,.53,1.93,1.84,1.84,0,0,0,1.61.75,3.63,3.63,0,0,0,1.29-.21,2.81,2.81,0,0,0,.94-.58l.57.94a3.33,3.33,0,0,1-1.12.69A4.47,4.47,0,0,1,53.57,159.22Zm-.23-7.09a1.57,1.57,0,0,0-1.25.58,2.71,2.71,0,0,0-.6,1.49v0h3.58v-.12a2.27,2.27,0,0,0-.43-1.43A1.52,1.52,0,0,0,53.34,152.13Z"/><path d="M61.89,152.41l-.74,0a1.65,1.65,0,0,0-1,.27,1.72,1.72,0,0,0-.61.76v5.66H58.14v-7.92h1.29l.14,1.15a2.67,2.67,0,0,1,.83-.95,2,2,0,0,1,1.14-.35,1.55,1.55,0,0,1,.31,0l.24,0Z"/><path d="M68.26,159.06c-.05-.24-.08-.45-.11-.63a5.11,5.11,0,0,1-.05-.55,3.32,3.32,0,0,1-1,1,2.67,2.67,0,0,1-1.4.39,2.55,2.55,0,0,1-1.88-.64,2.32,2.32,0,0,1-.65-1.74,2.06,2.06,0,0,1,.92-1.78,4.25,4.25,0,0,1,2.49-.64H68.1v-.78a1.47,1.47,0,0,0-.42-1.11,1.69,1.69,0,0,0-1.2-.4,1.73,1.73,0,0,0-1.14.35,1,1,0,0,0-.43.84H63.54l0,0a1.91,1.91,0,0,1,.81-1.58,3.38,3.38,0,0,1,2.23-.72,3.24,3.24,0,0,1,2.16.69,2.4,2.4,0,0,1,.82,2v3.82a7.37,7.37,0,0,0,0,.82,4.05,4.05,0,0,0,.16.77ZM65.87,158a2.63,2.63,0,0,0,1.41-.4,1.93,1.93,0,0,0,.82-.93v-1.29H66.48a2.1,2.1,0,0,0-1.39.44,1.34,1.34,0,0,0-.53,1,1.07,1.07,0,0,0,.33.83A1.37,1.37,0,0,0,65.87,158Z"/><path d="M71.38,155.25a5.26,5.26,0,0,1,.82-3.09A2.61,2.61,0,0,1,74.48,151a2.83,2.83,0,0,1,1.33.3,2.78,2.78,0,0,1,1,.88l.17-1h1.15v8a3,3,0,0,1-.88,2.34,3.69,3.69,0,0,1-2.56.81,5.73,5.73,0,0,1-1.24-.15,4.92,4.92,0,0,1-1.16-.43l.22-1.12a4.31,4.31,0,0,0,1,.35,5.25,5.25,0,0,0,1.16.14,2.1,2.1,0,0,0,1.54-.48,2,2,0,0,0,.48-1.46v-.9a2.57,2.57,0,0,1-.93.75,2.91,2.91,0,0,1-1.25.26,2.71,2.71,0,0,1-2.27-1.05,4.39,4.39,0,0,1-.82-2.77Zm1.45.15a3.33,3.33,0,0,0,.49,1.92,1.69,1.69,0,0,0,1.51.72,1.87,1.87,0,0,0,1.09-.29,2.23,2.23,0,0,0,.73-.84v-3.65a2.26,2.26,0,0,0-.73-.8,1.85,1.85,0,0,0-1.07-.3,1.65,1.65,0,0,0-1.53.86,4.41,4.41,0,0,0-.49,2.23Z"/><path d="M83.45,159.22a3.39,3.39,0,0,1-2.67-1.09,4.26,4.26,0,0,1-1-2.88v-.32a4.12,4.12,0,0,1,1-2.82A3.08,3.08,0,0,1,83.22,151a2.87,2.87,0,0,1,2.38,1,4.08,4.08,0,0,1,.8,2.63v.76H81.33l0,0a3.26,3.26,0,0,0,.52,1.93,1.85,1.85,0,0,0,1.62.75,3.62,3.62,0,0,0,1.28-.21,2.76,2.76,0,0,0,1-.58l.56.94a3.14,3.14,0,0,1-1.12.69A4.38,4.38,0,0,1,83.45,159.22Zm-.23-7.09a1.57,1.57,0,0,0-1.25.58,2.71,2.71,0,0,0-.6,1.49v0H85v-.12a2.33,2.33,0,0,0-.42-1.43A1.52,1.52,0,0,0,83.22,152.13Z"/><path d="M89.59,152.65H88.15v-1.48h1.44Zm0,6.41H88.15v-1.48h1.44Z"/><path d="M99.68,159.06H98.23v-9.33l-2.32,0v-1.11l3.77-.39Z"/><path d="M110.54,155.3a4.21,4.21,0,0,1-.91,2.86,3.42,3.42,0,0,1-4.95,0,4.17,4.17,0,0,1-.92-2.86v-3.14a4.2,4.2,0,0,1,.91-2.85,3.42,3.42,0,0,1,5,0,4.16,4.16,0,0,1,.92,2.85Zm-1.44-3.44a2.9,2.9,0,0,0-.51-1.81,1.71,1.71,0,0,0-1.45-.67,1.7,1.7,0,0,0-1.44.67,3,3,0,0,0-.5,1.81v3.73a3,3,0,0,0,.51,1.83,1.75,1.75,0,0,0,1.44.67,1.7,1.7,0,0,0,1.45-.67,3,3,0,0,0,.5-1.83Z"/><path d="M119,155.3a4.22,4.22,0,0,1-.92,2.86,3.41,3.41,0,0,1-4.94,0,4.17,4.17,0,0,1-.93-2.86v-3.14a4.21,4.21,0,0,1,.92-2.85,3.41,3.41,0,0,1,4.94,0,4.16,4.16,0,0,1,.93,2.85Zm-1.44-3.44a2.84,2.84,0,0,0-.52-1.81,1.7,1.7,0,0,0-1.45-.67,1.68,1.68,0,0,0-1.43.67,2.9,2.9,0,0,0-.51,1.81v3.73a2.91,2.91,0,0,0,.52,1.83,1.72,1.72,0,0,0,1.44.67,1.7,1.7,0,0,0,1.44-.67,3,3,0,0,0,.51-1.83Z"/><path d="M120.58,150.45a2.22,2.22,0,0,1,.6-1.57,2.1,2.1,0,0,1,1.6-.63,2.12,2.12,0,0,1,1.61.63,2.18,2.18,0,0,1,.6,1.57V151a2.17,2.17,0,0,1-.6,1.56,2.09,2.09,0,0,1-1.59.63,2.15,2.15,0,0,1-1.62-.63,2.17,2.17,0,0,1-.6-1.56Zm1.07.56a1.41,1.41,0,0,0,.3.92,1.13,1.13,0,0,0,1.68,0,1.49,1.49,0,0,0,.29-.93v-.56a1.48,1.48,0,0,0-.3-.93,1,1,0,0,0-.84-.38,1,1,0,0,0-.84.38,1.54,1.54,0,0,0-.29.93Zm1.52,7.25-.8-.49,5.21-8.34.8.49Zm2.57-1.81a2.22,2.22,0,0,1,.6-1.57,2.36,2.36,0,0,1,3.21,0,2.22,2.22,0,0,1,.6,1.57V157a2.2,2.2,0,0,1-.6,1.57,2.09,2.09,0,0,1-1.59.63,2.12,2.12,0,0,1-1.61-.63,2.16,2.16,0,0,1-.61-1.57Zm1.07.57a1.46,1.46,0,0,0,.3.93,1,1,0,0,0,.85.37,1,1,0,0,0,.83-.37,1.52,1.52,0,0,0,.29-.93v-.57a1.43,1.43,0,0,0-.3-.92,1.09,1.09,0,0,0-1.67,0,1.43,1.43,0,0,0-.3.92Z"/><path d="M209.44,136.35h-4.5v4.71H203.5V130.4h6.68v1.13h-5.24v3.68h4.5Z"/><path d="M216.85,138.32h-4l-1,2.74h-1.47l3.84-10.66h1.24l3.77,10.66h-1.47Zm-3.6-1.21h3.19l-1.56-4.58h0Z"/><path d="M222.27,136.44v4.62h-1.45V130.41h3.65a4.12,4.12,0,0,1,2.68.77,2.8,2.8,0,0,1,.92,2.26,2.4,2.4,0,0,1-.43,1.43,3,3,0,0,1-1.25,1,2.19,2.19,0,0,1,1.27.93,3.12,3.12,0,0,1,.38,1.59v1a3.44,3.44,0,0,0,.11.89,1.33,1.33,0,0,0,.38.65v.17H227a1.16,1.16,0,0,1-.36-.73,5.4,5.4,0,0,1-.08-1v-1a1.9,1.9,0,0,0-.51-1.39,1.8,1.8,0,0,0-1.35-.53Zm0-1.13h2.06a2.69,2.69,0,0,0,1.76-.47,1.77,1.77,0,0,0,.54-1.42,1.82,1.82,0,0,0-.53-1.39,2.3,2.3,0,0,0-1.63-.5h-2.2Z"/><path d="M231.75,134.65H230.3v-1.48h1.45Zm0,6.41H230.3v-1.48h1.45Z"/><path d="M241.84,141.06h-1.45v-9.33l-2.32,0v-1.11l3.77-.39Z"/><path d="M183.29,155.65v0a3.23,3.23,0,0,1-1.05,2.52,4.05,4.05,0,0,1-2.87,1,3.74,3.74,0,0,1-2.94-1.29,4.69,4.69,0,0,1-1.14-3.25v-1.89a4.73,4.73,0,0,1,1.14-3.26,3.73,3.73,0,0,1,2.94-1.28,4.14,4.14,0,0,1,2.88,1,3.15,3.15,0,0,1,1,2.55v0H181.9a2.39,2.39,0,0,0-.66-1.77,2.52,2.52,0,0,0-1.86-.65,2.29,2.29,0,0,0-1.92,1,4,4,0,0,0-.72,2.42v1.91a4,4,0,0,0,.72,2.43,2.27,2.27,0,0,0,1.92,1,2.52,2.52,0,0,0,1.86-.65,2.39,2.39,0,0,0,.66-1.79Z"/><path d="M184.64,155a4.35,4.35,0,0,1,1-2.9,3.51,3.51,0,0,1,5.18,0,4.32,4.32,0,0,1,1,2.9v.16a4.36,4.36,0,0,1-1,2.9,3.53,3.53,0,0,1-5.19,0,4.29,4.29,0,0,1-1-2.89Zm1.45.16a3.72,3.72,0,0,0,.53,2.08,1.91,1.91,0,0,0,3.14,0,3.72,3.72,0,0,0,.54-2.08V155a3.76,3.76,0,0,0-.54-2.08,1.77,1.77,0,0,0-1.58-.82,1.73,1.73,0,0,0-1.56.82,3.76,3.76,0,0,0-.53,2.08Z"/><path d="M196,156.73l.12.55h.05l.14-.55,1.82-5.59h1.47l-2.91,7.92h-1.09l-2.95-7.92h1.47Z"/><path d="M204.13,159.22a3.39,3.39,0,0,1-2.67-1.09,4.26,4.26,0,0,1-1-2.88v-.32a4.12,4.12,0,0,1,1-2.82A3.08,3.08,0,0,1,203.9,151a2.87,2.87,0,0,1,2.38,1,4.08,4.08,0,0,1,.8,2.63v.76H202l0,0a3.26,3.26,0,0,0,.52,1.93,1.85,1.85,0,0,0,1.62.75,3.62,3.62,0,0,0,1.28-.21,2.76,2.76,0,0,0,1-.58l.56.94a3.14,3.14,0,0,1-1.12.69A4.38,4.38,0,0,1,204.13,159.22Zm-.23-7.09a1.57,1.57,0,0,0-1.25.58,2.71,2.71,0,0,0-.6,1.49v0h3.57v-.12a2.33,2.33,0,0,0-.42-1.43A1.52,1.52,0,0,0,203.9,152.13Z"/><path d="M212.45,152.41l-.74,0a1.68,1.68,0,0,0-1,.27,1.7,1.7,0,0,0-.6.76v5.66H208.7v-7.92H210l.14,1.15a2.79,2.79,0,0,1,.84-.95,1.92,1.92,0,0,1,1.13-.35,1.55,1.55,0,0,1,.31,0,1.11,1.11,0,0,1,.24,0Z"/><path d="M218.82,159.06q-.07-.36-.12-.63a5.09,5.09,0,0,1,0-.55,3.32,3.32,0,0,1-1,1,2.69,2.69,0,0,1-1.4.39,2.59,2.59,0,0,1-1.89-.64,2.32,2.32,0,0,1-.64-1.74,2,2,0,0,1,.92-1.78,4.25,4.25,0,0,1,2.49-.64h1.57v-.78a1.44,1.44,0,0,0-.43-1.11,1.66,1.66,0,0,0-1.2-.4,1.68,1.68,0,0,0-1.13.35,1,1,0,0,0-.44.84h-1.37v0a1.86,1.86,0,0,1,.81-1.58,3.33,3.33,0,0,1,2.22-.72,3.26,3.26,0,0,1,2.17.69,2.4,2.4,0,0,1,.82,2v3.82a7.38,7.38,0,0,0,0,.82,5,5,0,0,0,.16.77Zm-2.4-1.05a2.64,2.64,0,0,0,1.42-.4,1.93,1.93,0,0,0,.82-.93v-1.29H217a2.13,2.13,0,0,0-1.4.44,1.32,1.32,0,0,0-.52,1,1.07,1.07,0,0,0,.33.83A1.35,1.35,0,0,0,216.42,158Z"/><path d="M221.94,155.25a5.33,5.33,0,0,1,.81-3.09A2.64,2.64,0,0,1,225,151a2.59,2.59,0,0,1,2.28,1.18l.18-1h1.15v8a3,3,0,0,1-.89,2.34,3.66,3.66,0,0,1-2.56.81,5.57,5.57,0,0,1-1.23-.15,5.18,5.18,0,0,1-1.17-.43l.22-1.12a4.57,4.57,0,0,0,1,.35,5.18,5.18,0,0,0,1.16.14,2.09,2.09,0,0,0,1.53-.48,2,2,0,0,0,.48-1.46v-.9a2.42,2.42,0,0,1-.93.75,2.88,2.88,0,0,1-1.25.26,2.72,2.72,0,0,1-2.27-1.05,4.45,4.45,0,0,1-.81-2.77Zm1.44.15a3.33,3.33,0,0,0,.49,1.92,1.71,1.71,0,0,0,1.52.72,1.89,1.89,0,0,0,1.09-.29,2.3,2.3,0,0,0,.72-.84v-3.65a2.15,2.15,0,0,0-.72-.8,1.9,1.9,0,0,0-1.08-.3,1.63,1.63,0,0,0-1.52.86,4.41,4.41,0,0,0-.5,2.23Z"/><path d="M234,159.22a3.37,3.37,0,0,1-2.66-1.09,4.21,4.21,0,0,1-1-2.88v-.32a4.08,4.08,0,0,1,1-2.82,3.06,3.06,0,0,1,2.4-1.12,2.89,2.89,0,0,1,2.39,1,4.08,4.08,0,0,1,.79,2.63v.76h-5.07l0,0a3.26,3.26,0,0,0,.53,1.93,1.84,1.84,0,0,0,1.61.75,3.63,3.63,0,0,0,1.29-.21,2.86,2.86,0,0,0,1-.58l.56.94a3.24,3.24,0,0,1-1.12.69A4.43,4.43,0,0,1,234,159.22Zm-.23-7.09a1.55,1.55,0,0,0-1.24.58,2.72,2.72,0,0,0-.61,1.49l0,0h3.57v-.12a2.27,2.27,0,0,0-.43-1.43A1.51,1.51,0,0,0,233.77,152.13Z"/><path d="M240.15,152.65H238.7v-1.48h1.45Zm0,6.41H238.7v-1.48h1.45Z"/><path d="M246.32,154.32l.62-5.92h5.34v1.28h-4.13l-.34,3.07a3.29,3.29,0,0,1,.76-.42,2.59,2.59,0,0,1,1-.17,2.92,2.92,0,0,1,2.32.92,4.34,4.34,0,0,1,0,5.16,3.18,3.18,0,0,1-2.51,1,3.47,3.47,0,0,1-2.26-.74,2.56,2.56,0,0,1-.86-2.18v0h1.31a1.76,1.76,0,0,0,.5,1.35,1.8,1.8,0,0,0,1.3.48,1.71,1.71,0,0,0,1.42-.65,2.75,2.75,0,0,0,.51-1.76,2.54,2.54,0,0,0-.51-1.65,1.73,1.73,0,0,0-1.42-.63,2.25,2.25,0,0,0-1.23.26,1.5,1.5,0,0,0-.57.79Z"/><path d="M261.1,155.3a4.22,4.22,0,0,1-.92,2.86,3.41,3.41,0,0,1-4.94,0,4.17,4.17,0,0,1-.93-2.86v-3.14a4.21,4.21,0,0,1,.92-2.85,3.41,3.41,0,0,1,4.94,0,4.16,4.16,0,0,1,.93,2.85Zm-1.44-3.44a2.9,2.9,0,0,0-.51-1.81,1.73,1.73,0,0,0-1.45-.67,1.7,1.7,0,0,0-1.44.67,2.9,2.9,0,0,0-.51,1.81v3.73a3,3,0,0,0,.52,1.83,1.72,1.72,0,0,0,1.44.67,1.68,1.68,0,0,0,1.44-.67,3,3,0,0,0,.51-1.83Z"/><path d="M262.69,150.45a2.22,2.22,0,0,1,.6-1.57,2.36,2.36,0,0,1,3.21,0,2.18,2.18,0,0,1,.6,1.57V151a2.17,2.17,0,0,1-.6,1.56,2.09,2.09,0,0,1-1.59.63,2.11,2.11,0,0,1-2.22-2.19Zm1.07.56a1.41,1.41,0,0,0,.3.92,1,1,0,0,0,.85.38,1,1,0,0,0,.83-.37A1.49,1.49,0,0,0,266,151v-.56a1.48,1.48,0,0,0-.3-.93,1,1,0,0,0-.84-.38,1,1,0,0,0-.84.38,1.54,1.54,0,0,0-.29.93Zm1.52,7.25-.8-.49,5.21-8.34.8.49Zm2.57-1.81a2.22,2.22,0,0,1,.6-1.57,2.36,2.36,0,0,1,3.21,0,2.22,2.22,0,0,1,.6,1.57V157a2.2,2.2,0,0,1-.6,1.57,2.09,2.09,0,0,1-1.59.63,2.12,2.12,0,0,1-1.61-.63,2.21,2.21,0,0,1-.61-1.57Zm1.07.57a1.46,1.46,0,0,0,.3.93,1,1,0,0,0,.85.37,1,1,0,0,0,.83-.37,1.45,1.45,0,0,0,.29-.93v-.57a1.43,1.43,0,0,0-.3-.92,1,1,0,0,0-.83-.39,1,1,0,0,0-.84.39,1.43,1.43,0,0,0-.3.92Z"/><path d="M353.77,136.35h-4.5v4.71h-1.44V130.4h6.69v1.13h-5.25v3.68h4.5Z"/><path d="M361.18,138.32h-4l-1,2.74h-1.47l3.85-10.66h1.24l3.76,10.66h-1.47Zm-3.6-1.21h3.19l-1.55-4.58h-.05Z"/><path d="M366.6,136.44v4.62h-1.44V130.41h3.65a4.1,4.1,0,0,1,2.67.77,2.8,2.8,0,0,1,.92,2.26,2.4,2.4,0,0,1-.43,1.43,2.89,2.89,0,0,1-1.25,1,2.19,2.19,0,0,1,1.27.93,3.12,3.12,0,0,1,.38,1.59v1a3.44,3.44,0,0,0,.11.89,1.41,1.41,0,0,0,.38.65v.17h-1.48a1.16,1.16,0,0,1-.37-.73,6.43,6.43,0,0,1-.08-1v-1a1.9,1.9,0,0,0-.51-1.39,1.77,1.77,0,0,0-1.35-.53Zm0-1.13h2.06a2.69,2.69,0,0,0,1.76-.47,1.77,1.77,0,0,0,.54-1.42,1.85,1.85,0,0,0-.52-1.39,2.32,2.32,0,0,0-1.63-.5H366.6Z"/><path d="M376.08,134.65h-1.44v-1.48h1.44Zm0,6.41h-1.44v-1.48h1.44Z"/><path d="M386.17,141.06h-1.45v-9.33l-2.32,0v-1.11l3.77-.39Z"/><path d="M327.62,155.65l0,0a3.24,3.24,0,0,1-1.06,2.52,4,4,0,0,1-2.86,1,3.75,3.75,0,0,1-3-1.29,4.69,4.69,0,0,1-1.14-3.25v-1.89a4.73,4.73,0,0,1,1.14-3.26,3.74,3.74,0,0,1,3-1.28,4.18,4.18,0,0,1,2.88,1,3.18,3.18,0,0,1,1,2.55l0,0h-1.38a2.39,2.39,0,0,0-.66-1.77,2.55,2.55,0,0,0-1.86-.65,2.29,2.29,0,0,0-1.93,1,4,4,0,0,0-.72,2.42v1.91a4,4,0,0,0,.72,2.43,2.28,2.28,0,0,0,1.93,1,2.55,2.55,0,0,0,1.86-.65,2.39,2.39,0,0,0,.66-1.79Z"/><path d="M329,155a4.35,4.35,0,0,1,.95-2.9,3.19,3.19,0,0,1,2.58-1.14,3.23,3.23,0,0,1,2.61,1.14,4.31,4.31,0,0,1,.95,2.9v.16a4.31,4.31,0,0,1-.95,2.9,3.53,3.53,0,0,1-5.19,0,4.28,4.28,0,0,1-.95-2.89Zm1.44.16a3.8,3.8,0,0,0,.53,2.08,1.92,1.92,0,0,0,3.15,0,3.8,3.8,0,0,0,.53-2.08V155a3.76,3.76,0,0,0-.54-2.08,1.76,1.76,0,0,0-1.58-.82A1.74,1.74,0,0,0,331,153a3.85,3.85,0,0,0-.53,2.08Z"/><path d="M340.37,156.73l.13.55h0l.14-.55,1.82-5.59H344l-2.92,7.92H340l-3-7.92h1.48Z"/><path d="M348.46,159.22a3.36,3.36,0,0,1-2.66-1.09,4.21,4.21,0,0,1-1-2.88v-.32a4.08,4.08,0,0,1,1-2.82,3.06,3.06,0,0,1,2.4-1.12,2.89,2.89,0,0,1,2.39,1,4.08,4.08,0,0,1,.79,2.63v.76h-5.07l0,0a3.26,3.26,0,0,0,.53,1.93,1.84,1.84,0,0,0,1.61.75,3.54,3.54,0,0,0,1.28-.21,2.76,2.76,0,0,0,.95-.58l.57.94a3.33,3.33,0,0,1-1.12.69A4.47,4.47,0,0,1,348.46,159.22Zm-.23-7.09a1.57,1.57,0,0,0-1.25.58,2.71,2.71,0,0,0-.6,1.49v0H350v-.12a2.27,2.27,0,0,0-.43-1.43A1.52,1.52,0,0,0,348.23,152.13Z"/><path d="M356.78,152.41l-.74,0a1.62,1.62,0,0,0-1.57,1v5.66H353v-7.92h1.29l.14,1.15a2.67,2.67,0,0,1,.83-.95,2,2,0,0,1,1.14-.35,1.55,1.55,0,0,1,.31,0l.24,0Z"/><path d="M363.15,159.06c0-.24-.09-.45-.11-.63a5.11,5.11,0,0,1-.05-.55,3.32,3.32,0,0,1-1.05,1,2.67,2.67,0,0,1-1.4.39,2.55,2.55,0,0,1-1.88-.64,2.32,2.32,0,0,1-.65-1.74,2.06,2.06,0,0,1,.92-1.78,4.25,4.25,0,0,1,2.49-.64H363v-.78a1.47,1.47,0,0,0-.42-1.11,2,2,0,0,0-2.34-.05,1,1,0,0,0-.43.84h-1.37l0,0a1.91,1.91,0,0,1,.81-1.58,3.36,3.36,0,0,1,2.23-.72,3.24,3.24,0,0,1,2.16.69,2.4,2.4,0,0,1,.82,2v3.82a7.37,7.37,0,0,0,.05.82,4.05,4.05,0,0,0,.16.77ZM360.76,158a2.63,2.63,0,0,0,1.41-.4,1.93,1.93,0,0,0,.82-.93v-1.29h-1.62a2.1,2.1,0,0,0-1.39.44,1.34,1.34,0,0,0-.53,1,1.07,1.07,0,0,0,.33.83A1.37,1.37,0,0,0,360.76,158Z"/><path d="M366.27,155.25a5.26,5.26,0,0,1,.82-3.09,2.61,2.61,0,0,1,2.28-1.17,2.86,2.86,0,0,1,1.33.3,2.66,2.66,0,0,1,.95.88l.18-1H373v8a3,3,0,0,1-.89,2.34,3.65,3.65,0,0,1-2.55.81,5.73,5.73,0,0,1-1.24-.15,4.92,4.92,0,0,1-1.16-.43l.22-1.12a4.31,4.31,0,0,0,1,.35,5.25,5.25,0,0,0,1.16.14,2.1,2.1,0,0,0,1.54-.48,2,2,0,0,0,.48-1.46v-.9a2.57,2.57,0,0,1-.93.75,2.91,2.91,0,0,1-1.25.26,2.71,2.71,0,0,1-2.27-1.05,4.39,4.39,0,0,1-.82-2.77Zm1.44.15a3.33,3.33,0,0,0,.5,1.92,1.69,1.69,0,0,0,1.51.72,1.87,1.87,0,0,0,1.09-.29,2.23,2.23,0,0,0,.73-.84v-3.65a2.26,2.26,0,0,0-.73-.8,1.87,1.87,0,0,0-1.07-.3,1.65,1.65,0,0,0-1.53.86,4.41,4.41,0,0,0-.5,2.23Z"/><path d="M378.33,159.22a3.39,3.39,0,0,1-2.66-1.09,4.26,4.26,0,0,1-.95-2.88v-.32a4.07,4.07,0,0,1,1-2.82,3.08,3.08,0,0,1,2.41-1.12,2.87,2.87,0,0,1,2.38,1,4.08,4.08,0,0,1,.8,2.63v.76h-5.07l0,0a3.26,3.26,0,0,0,.52,1.93,1.84,1.84,0,0,0,1.61.75,3.63,3.63,0,0,0,1.29-.21,2.86,2.86,0,0,0,.95-.58l.56.94a3.14,3.14,0,0,1-1.12.69A4.4,4.4,0,0,1,378.33,159.22Zm-.22-7.09a1.55,1.55,0,0,0-1.25.58,2.8,2.8,0,0,0-.61,1.49l0,0h3.57v-.12a2.33,2.33,0,0,0-.42-1.43A1.53,1.53,0,0,0,378.11,152.13Z"/><path d="M384.48,152.65H383v-1.48h1.44Zm0,6.41H383v-1.48h1.44Z"/><path d="M397.09,159.06h-6.62v-1l3.35-4a10,10,0,0,0,1.21-1.72,2.93,2.93,0,0,0,.32-1.3,1.72,1.72,0,0,0-.43-1.21,1.57,1.57,0,0,0-1.2-.47,1.78,1.78,0,0,0-1.44.58,2.13,2.13,0,0,0-.49,1.44H390.4l0,0a2.91,2.91,0,0,1,.87-2.21,3.36,3.36,0,0,1,2.47-.9A3.1,3.1,0,0,1,396,149a2.67,2.67,0,0,1,.82,2,3.27,3.27,0,0,1-.46,1.65,19.87,19.87,0,0,1-1.42,2l-2.69,3.15,0,0h4.85Z"/><path d="M399.1,154.32l.61-5.92h5.34v1.28h-4.12l-.34,3.07a3.1,3.1,0,0,1,.76-.42,2.55,2.55,0,0,1,.95-.17,2.92,2.92,0,0,1,2.32.92,4.34,4.34,0,0,1,0,5.16,3.18,3.18,0,0,1-2.51,1,3.45,3.45,0,0,1-2.26-.74,2.56,2.56,0,0,1-.86-2.18v0h1.31a1.76,1.76,0,0,0,.5,1.35,1.78,1.78,0,0,0,1.3.48,1.71,1.71,0,0,0,1.42-.65,2.81,2.81,0,0,0,.5-1.76,2.54,2.54,0,0,0-.51-1.65,1.71,1.71,0,0,0-1.41-.63,2.25,2.25,0,0,0-1.23.26,1.45,1.45,0,0,0-.57.79Z"/><path d="M407,150.45a2.22,2.22,0,0,1,.6-1.57,2.12,2.12,0,0,1,1.61-.63,2.1,2.1,0,0,1,1.6.63,2.18,2.18,0,0,1,.6,1.57V151a2.21,2.21,0,0,1-.59,1.56,2.1,2.1,0,0,1-1.6.63A2.12,2.12,0,0,1,407,151Zm1.07.56a1.41,1.41,0,0,0,.3.92,1,1,0,0,0,.85.38,1,1,0,0,0,.83-.37,1.44,1.44,0,0,0,.29-.93v-.56a1.54,1.54,0,0,0-.29-.93,1,1,0,0,0-.84-.38,1,1,0,0,0-.84.38,1.48,1.48,0,0,0-.3.93Zm1.53,7.25-.8-.49,5.21-8.34.79.49Zm2.57-1.81a2.22,2.22,0,0,1,.6-1.57,2.35,2.35,0,0,1,3.2,0,2.22,2.22,0,0,1,.61,1.57V157a2.2,2.2,0,0,1-.6,1.57,2.09,2.09,0,0,1-1.59.63,2.13,2.13,0,0,1-1.62-.63,2.2,2.2,0,0,1-.6-1.57Zm1.07.57a1.52,1.52,0,0,0,.29.93,1,1,0,0,0,.86.37,1,1,0,0,0,.82-.37,1.46,1.46,0,0,0,.3-.93v-.57a1.43,1.43,0,0,0-.3-.92,1.1,1.1,0,0,0-1.68,0,1.49,1.49,0,0,0-.29.92Z"/></g><g id="Layer_4" data-name="Layer 4"><polygon class="cls-1" points="268.5 81.43 268.5 91.39 246.94 103.83 246.94 93.88 268.5 81.43"/><polygon class="cls-1" points="224.19 80.74 224.19 90.7 202.63 78.25 202.63 68.3 224.19 80.74"/><polygon class="cls-1" points="127.43 81.43 127.43 91.39 105.87 103.83 105.87 93.88 127.43 81.43"/><polygon class="cls-1" points="81.92 80.05 81.92 82.82 79.53 84.2 79.53 81.43 60.37 70.37 60.37 67.6 81.92 80.05"/><polygon class="cls-1" points="103.48 95.26 81.92 107.71 60.37 95.26 79.53 84.2 81.92 82.82 84.32 84.2 103.48 95.26"/><polygon class="cls-1" points="103.48 67.6 103.48 70.37 84.32 81.43 84.32 84.2 81.92 82.82 81.92 80.05 103.48 67.6"/><polygon class="cls-1" points="79.53 81.43 57.97 93.88 36.42 81.43 57.97 68.99 60.37 70.37 79.53 81.43"/><polygon class="cls-1" points="224.19 69.68 224.19 79.63 203.59 67.74 202.63 67.19 202.63 57.23 224.19 69.68"/><polygon class="cls-1" points="245.74 57.23 224.19 69.68 202.63 57.23 224.19 44.79 245.74 57.23"/><polygon class="cls-1" points="268.5 70.37 268.5 80.33 267.54 80.88 246.94 92.77 246.94 82.82 268.5 70.37"/><polygon class="cls-1" points="246.94 93.88 246.94 103.83 225.39 91.39 225.39 81.43 246.94 93.88"/><polygon class="cls-1" points="268.5 70.37 246.94 82.82 225.39 70.37 245.74 58.62 246.94 57.92 268.5 70.37"/><polygon class="cls-1" points="246.94 82.82 246.94 92.77 226.35 80.88 225.39 80.33 225.39 70.37 246.94 82.82"/><polygon class="cls-1" points="103.48 67.6 81.92 80.05 60.37 67.6 81.92 55.16 103.48 67.6"/><polygon class="cls-1" points="105.87 93.88 105.87 103.83 103.48 102.45 103.48 95.26 84.32 84.2 84.32 81.43 105.87 93.88"/><polygon class="cls-1" points="127.43 81.43 105.87 93.88 84.32 81.43 103.48 70.37 105.87 68.99 127.43 81.43"/><polygon class="cls-1" points="81.92 107.71 81.92 117.66 60.37 105.22 60.37 95.26 81.92 107.71"/><polygon class="cls-1" points="103.48 95.26 103.48 105.22 81.92 117.66 81.92 107.71 103.48 95.26"/><polygon class="cls-1" points="79.53 81.43 79.53 84.2 60.37 95.26 60.37 102.45 57.97 103.83 57.97 93.88 79.53 81.43"/><polygon class="cls-1" points="129.83 91.94 81.92 119.6 34.02 91.94 36.06 90.77 36.42 91.39 57.97 103.83 60.37 102.45 60.37 105.22 81.92 117.66 103.48 105.22 103.48 102.45 105.87 103.83 127.43 91.39 127.43 90.56 129.83 91.94"/><polygon class="cls-1" points="272.09 91.94 224.19 119.6 176.28 91.94 202.63 76.73 202.63 78.25 224.19 90.7 225.39 90.01 225.39 91.39 246.94 103.83 268.5 91.39 268.5 89.87 272.09 91.94"/><polygon class="cls-1" points="366.45 80.05 366.45 90.01 344.9 77.56 344.9 67.6 366.45 80.05"/><polygon class="cls-1" points="57.97 93.88 57.97 103.83 36.42 91.39 36.42 81.43 57.97 93.88"/><polygon class="cls-1" points="388.01 56.54 388.01 66.5 387.05 67.05 366.45 78.94 366.45 68.99 388.01 56.54"/><polygon class="cls-1" points="245.74 57.23 245.74 58.62 225.39 70.37 225.39 78.94 224.19 79.63 224.19 69.68 245.74 57.23"/><polygon class="cls-1" points="268.5 81.43 246.94 93.88 225.39 81.43 226.35 80.88 246.94 92.77 267.54 80.88 268.5 81.43"/><polygon class="cls-1" points="388.01 67.6 388.01 77.56 366.45 90.01 366.45 80.05 388.01 67.6"/><polygon class="cls-1" points="388.01 67.6 366.45 80.05 344.9 67.6 345.85 67.05 345.86 67.05 366.45 78.94 387.05 67.05 388.01 67.6"/><polygon class="cls-1" points="226.35 80.88 225.39 81.43 225.39 90.01 224.19 90.7 224.19 80.74 225.39 80.05 225.39 80.33 226.35 80.88"/><polygon class="cls-1" points="225.39 78.94 225.39 80.05 224.19 80.74 202.63 68.3 203.59 67.74 224.19 79.63 225.39 78.94"/><polygon class="cls-1" points="388.01 34.42 388.01 44.37 387.05 44.92 366.45 56.82 366.45 46.86 388.01 34.42"/><polygon class="cls-1" points="366.45 46.86 366.45 56.82 345.85 44.93 344.9 44.37 344.9 34.42 366.45 46.86"/><polygon class="cls-1" points="388.01 34.42 366.45 46.86 344.9 34.42 366.45 21.97 388.01 34.42"/><polygon class="cls-1" points="388.01 45.48 388.01 55.43 387.05 55.99 366.45 67.88 366.45 57.92 388.01 45.48"/><polygon class="cls-1" points="366.45 68.99 366.45 78.94 345.86 67.05 345.85 67.05 344.9 66.5 344.9 56.54 366.45 68.99"/><polygon class="cls-1" points="388.01 56.54 366.45 68.99 344.9 56.54 345.86 55.99 366.45 67.88 387.05 55.99 388.01 56.54"/><polygon class="cls-1" points="366.45 57.92 366.45 67.88 345.86 55.99 344.9 55.43 344.9 45.48 366.45 57.92"/><polygon class="cls-1" points="388.01 45.48 366.45 57.92 344.9 45.48 345.85 44.93 366.45 56.82 387.05 44.92 387.05 44.93 388.01 45.48"/><polygon class="cls-1" points="414.36 91.94 366.45 119.6 318.55 91.94 344.9 76.73 344.9 77.56 366.45 90.01 388.01 77.56 388.01 76.73 414.36 91.94"/></g><g id="Layer_5" data-name="Layer 5"><path class="cls-2" d="M213.14,98a3.27,3.27,0,0,0,3.39,3.12,3.48,3.48,0,0,0,2.71-1.26,4.81,4.81,0,0,1-2.61-4.21,4.7,4.7,0,0,1,1.07-3,4,4,0,0,1-.34-1.59,3.88,3.88,0,0,1,.24-1.35,2.47,2.47,0,0,0-1.07-.25,2.25,2.25,0,0,0-2.33,2.13,2,2,0,0,0,.22.89.32.32,0,0,1,0,.36,2.45,2.45,0,0,0-.67,1.68,2.37,2.37,0,0,0,.26,1.1.32.32,0,0,1-.05.36A3,3,0,0,0,213.14,98Z"/><path class="cls-2" d="M217.27,95.68a4.6,4.6,0,0,0,9.16,0,4,4,0,0,0-.77-2.34,3.07,3.07,0,0,0-.28-.35.34.34,0,0,1,0-.37,3.24,3.24,0,0,0,.36-1.49,3.36,3.36,0,0,0-.91-2.28.34.34,0,0,1-.05-.37,2.7,2.7,0,0,0,.29-1.21v-.15a3.19,3.19,0,0,0-6.34.15,2.7,2.7,0,0,0,.29,1.21.34.34,0,0,1-.05.37,3.36,3.36,0,0,0-.91,2.28,3.24,3.24,0,0,0,.36,1.49.34.34,0,0,1-.05.37A4.06,4.06,0,0,0,217.27,95.68Z"/><path class="cls-3" d="M212.49,98a3.88,3.88,0,0,0,3.73,3.75v4l.65,0v-4a4.1,4.1,0,0,0,3-1.61,5.26,5.26,0,0,0,1.69.36l0,5.25.58,0h.06v-5.3a5,5,0,0,0,4.89-4.85,4.63,4.63,0,0,0-.89-2.72l-.19-.24a3.82,3.82,0,0,0,.34-1.59,4,4,0,0,0-.94-2.56,3.26,3.26,0,0,0,.27-1.3,1.09,1.09,0,0,0,0-.18,3.83,3.83,0,0,0-7.63.18,3.26,3.26,0,0,0,.27,1.3,4.83,4.83,0,0,0-.42.62,3.13,3.13,0,0,0-1.35-.3,2.88,2.88,0,0,0-3,2.77,2.55,2.55,0,0,0,.19,1,3.07,3.07,0,0,0-.46,3.14A3.6,3.6,0,0,0,212.49,98Zm4.78-2.35a4.06,4.06,0,0,1,1-2.69.34.34,0,0,0,.05-.37,3.24,3.24,0,0,1-.36-1.49,3.36,3.36,0,0,1,.91-2.28.34.34,0,0,0,.05-.37,2.7,2.7,0,0,1-.29-1.21,3.19,3.19,0,0,1,6.34-.15v.15a2.7,2.7,0,0,1-.29,1.21.34.34,0,0,0,.05.37,3.36,3.36,0,0,1,.91,2.28,3.24,3.24,0,0,1-.36,1.49.34.34,0,0,0,0,.37,3.07,3.07,0,0,1,.28.35,4,4,0,0,1,.77,2.34,4.6,4.6,0,0,1-9.16,0ZM213.14,98a3,3,0,0,1,.77-2,.32.32,0,0,0,.05-.36,2.37,2.37,0,0,1-.26-1.1,2.45,2.45,0,0,1,.67-1.68.32.32,0,0,0,0-.36,2,2,0,0,1-.22-.89,2.25,2.25,0,0,1,2.33-2.13,2.47,2.47,0,0,1,1.07.25,3.88,3.88,0,0,0-.24,1.35,4,4,0,0,0,.34,1.59,4.7,4.7,0,0,0-1.07,3,4.81,4.81,0,0,0,2.61,4.21,3.48,3.48,0,0,1-2.71,1.26A3.27,3.27,0,0,1,213.14,98Z"/><path class="cls-3" d="M201,83.44a2.75,2.75,0,0,0,.19-1,2.59,2.59,0,0,0-.57-1.61,2.17,2.17,0,0,0,.15-.79,2.51,2.51,0,0,0-5-.12s0,.08,0,.12a2.17,2.17,0,0,0,.15.79,2.65,2.65,0,0,0-.56,1.61,2.55,2.55,0,0,0,.19,1l-.08.09a3.08,3.08,0,0,0-.57,1.77,3.26,3.26,0,0,0,3,3.14v2.81l.64,0V88.44a3.25,3.25,0,0,0,3.07-3.14A3,3,0,0,0,201,83.44Zm-2.73,4.37a2.64,2.64,0,0,1-2.74-2.51,2.34,2.34,0,0,1,.46-1.39l.17-.21a.32.32,0,0,0,0-.36,1.82,1.82,0,0,1-.22-.88,2,2,0,0,1,.54-1.34.32.32,0,0,0,0-.36,1.6,1.6,0,0,1-.17-.7V80a1.8,1.8,0,0,1,1.86-1.61,1.78,1.78,0,0,1,1.85,1.7,1.6,1.6,0,0,1-.17.7.32.32,0,0,0,.05.36,2,2,0,0,1,.54,1.34,1.93,1.93,0,0,1-.21.88.34.34,0,0,0,0,.36,2.38,2.38,0,0,1,.63,1.6A2.64,2.64,0,0,1,198.29,87.81Z"/><path class="cls-4" d="M201,85.3a2.75,2.75,0,0,1-5.47,0,2.34,2.34,0,0,1,.46-1.39l.17-.21a.32.32,0,0,0,0-.36,1.82,1.82,0,0,1-.22-.88,2,2,0,0,1,.54-1.34.32.32,0,0,0,0-.36,1.6,1.6,0,0,1-.17-.7V80a1.8,1.8,0,0,1,1.86-1.61,1.78,1.78,0,0,1,1.85,1.7,1.6,1.6,0,0,1-.17.7.32.32,0,0,0,.05.36,2,2,0,0,1,.54,1.34,1.93,1.93,0,0,1-.21.88.34.34,0,0,0,0,.36A2.38,2.38,0,0,1,201,85.3Z"/><path class="cls-2" d="M355.46,96.6a3.27,3.27,0,0,0,3.39,3.12,3.48,3.48,0,0,0,2.71-1.26A4.81,4.81,0,0,1,359,94.25a4.7,4.7,0,0,1,1.07-3,4,4,0,0,1-.34-1.59,3.88,3.88,0,0,1,.24-1.35,2.47,2.47,0,0,0-1.07-.25,2.25,2.25,0,0,0-2.33,2.13,2,2,0,0,0,.22.89.32.32,0,0,1-.05.36,2.45,2.45,0,0,0-.67,1.68,2.37,2.37,0,0,0,.26,1.1.32.32,0,0,1,0,.36A3,3,0,0,0,355.46,96.6Z"/><path class="cls-2" d="M359.59,94.25a4.6,4.6,0,0,0,9.16,0,4,4,0,0,0-.77-2.34,3.07,3.07,0,0,0-.28-.35.34.34,0,0,1-.05-.37A3.24,3.24,0,0,0,368,89.7a3.36,3.36,0,0,0-.91-2.28.34.34,0,0,1-.05-.37,2.7,2.7,0,0,0,.29-1.21v-.15a3.19,3.19,0,0,0-6.34.15,2.7,2.7,0,0,0,.29,1.21.34.34,0,0,1-.05.37,3.36,3.36,0,0,0-.91,2.28,3.24,3.24,0,0,0,.36,1.49.34.34,0,0,1-.05.37A4.06,4.06,0,0,0,359.59,94.25Z"/><path class="cls-3" d="M354.81,96.6a3.88,3.88,0,0,0,3.73,3.75v4l.65,0v-4a4.1,4.1,0,0,0,3-1.61,5.26,5.26,0,0,0,1.69.36l0,5.25.58.05h.06V99.1a5,5,0,0,0,4.89-4.85,4.63,4.63,0,0,0-.89-2.72l-.19-.24a3.82,3.82,0,0,0,.34-1.59,4,4,0,0,0-.94-2.56,3.26,3.26,0,0,0,.27-1.3,1.09,1.09,0,0,0,0-.18,3.83,3.83,0,0,0-7.63.18,3.26,3.26,0,0,0,.27,1.3,4.83,4.83,0,0,0-.42.62,3.13,3.13,0,0,0-1.35-.3,2.88,2.88,0,0,0-3,2.77,2.55,2.55,0,0,0,.19,1,3.07,3.07,0,0,0-.46,3.14A3.6,3.6,0,0,0,354.81,96.6Zm4.78-2.35a4.06,4.06,0,0,1,1.05-2.69.34.34,0,0,0,.05-.37,3.24,3.24,0,0,1-.36-1.49,3.36,3.36,0,0,1,.91-2.28.34.34,0,0,0,.05-.37,2.7,2.7,0,0,1-.29-1.21,3.19,3.19,0,0,1,6.34-.15v.15a2.7,2.7,0,0,1-.29,1.21.34.34,0,0,0,.05.37A3.36,3.36,0,0,1,368,89.7a3.24,3.24,0,0,1-.36,1.49.34.34,0,0,0,.05.37,3.07,3.07,0,0,1,.28.35,4,4,0,0,1,.77,2.34,4.6,4.6,0,0,1-9.16,0Zm-4.13,2.35a3,3,0,0,1,.77-2,.32.32,0,0,0,0-.36,2.37,2.37,0,0,1-.26-1.1,2.45,2.45,0,0,1,.67-1.68.32.32,0,0,0,.05-.36,2,2,0,0,1-.22-.89,2.25,2.25,0,0,1,2.33-2.13,2.47,2.47,0,0,1,1.07.25,3.88,3.88,0,0,0-.24,1.35,4,4,0,0,0,.34,1.59,4.7,4.7,0,0,0-1.07,3,4.81,4.81,0,0,0,2.61,4.21,3.48,3.48,0,0,1-2.71,1.26A3.27,3.27,0,0,1,355.46,96.6Z"/><path class="cls-3" d="M342.18,83.44a2.75,2.75,0,0,0,.19-1,2.59,2.59,0,0,0-.57-1.61,2.17,2.17,0,0,0,.15-.79,2.51,2.51,0,0,0-5-.12s0,.08,0,.12a2.17,2.17,0,0,0,.15.79,2.65,2.65,0,0,0-.56,1.61,2.55,2.55,0,0,0,.19,1l-.08.09a3.08,3.08,0,0,0-.57,1.77,3.26,3.26,0,0,0,3,3.14v2.81l.64,0V88.44a3.25,3.25,0,0,0,3.07-3.14A3,3,0,0,0,342.18,83.44Zm-2.73,4.37a2.64,2.64,0,0,1-2.74-2.51,2.34,2.34,0,0,1,.46-1.39l.17-.21a.32.32,0,0,0,.05-.36,1.82,1.82,0,0,1-.22-.88,2,2,0,0,1,.54-1.34.32.32,0,0,0,.05-.36,1.6,1.6,0,0,1-.17-.7V80a1.8,1.8,0,0,1,1.86-1.61,1.78,1.78,0,0,1,1.85,1.7,1.6,1.6,0,0,1-.17.7.32.32,0,0,0,.05.36,2,2,0,0,1,.54,1.34,1.93,1.93,0,0,1-.21.88.34.34,0,0,0,0,.36,2.38,2.38,0,0,1,.63,1.6A2.64,2.64,0,0,1,339.45,87.81Z"/><path class="cls-4" d="M342.18,85.3a2.75,2.75,0,0,1-5.47,0,2.34,2.34,0,0,1,.46-1.39l.17-.21a.32.32,0,0,0,.05-.36,1.82,1.82,0,0,1-.22-.88,2,2,0,0,1,.54-1.34.32.32,0,0,0,.05-.36,1.6,1.6,0,0,1-.17-.7V80a1.8,1.8,0,0,1,1.86-1.61,1.78,1.78,0,0,1,1.85,1.7,1.6,1.6,0,0,1-.17.7.32.32,0,0,0,.05.36,2,2,0,0,1,.54,1.34,1.93,1.93,0,0,1-.21.88.34.34,0,0,0,0,.36A2.38,2.38,0,0,1,342.18,85.3Z"/><path class="cls-3" d="M386.85,88.11a2.75,2.75,0,0,0,.19-1,2.59,2.59,0,0,0-.57-1.61,2.17,2.17,0,0,0,.15-.79,2.51,2.51,0,0,0-5-.12s0,.08,0,.12a2.17,2.17,0,0,0,.15.79,2.65,2.65,0,0,0-.56,1.61,2.55,2.55,0,0,0,.19,1l-.08.09a3.08,3.08,0,0,0-.57,1.77,3.26,3.26,0,0,0,3,3.14v2.81l.64,0V93.11A3.25,3.25,0,0,0,387.5,90,3,3,0,0,0,386.85,88.11Zm-2.73,4.37A2.64,2.64,0,0,1,381.38,90a2.34,2.34,0,0,1,.46-1.39l.17-.21a.32.32,0,0,0,.05-.36,1.82,1.82,0,0,1-.22-.88,2,2,0,0,1,.54-1.34.32.32,0,0,0,.05-.36,1.6,1.6,0,0,1-.17-.7v-.09A1.8,1.8,0,0,1,384.12,83a1.78,1.78,0,0,1,1.85,1.7,1.6,1.6,0,0,1-.17.7.32.32,0,0,0,.05.36,2,2,0,0,1,.54,1.34,1.93,1.93,0,0,1-.21.88.34.34,0,0,0,0,.36,2.38,2.38,0,0,1,.63,1.6A2.64,2.64,0,0,1,384.12,92.48Z"/><path class="cls-4" d="M386.85,90a2.75,2.75,0,0,1-5.47,0,2.34,2.34,0,0,1,.46-1.39l.17-.21a.32.32,0,0,0,.05-.36,1.82,1.82,0,0,1-.22-.88,2,2,0,0,1,.54-1.34.32.32,0,0,0,.05-.36,1.6,1.6,0,0,1-.17-.7v-.09A1.8,1.8,0,0,1,384.12,83a1.78,1.78,0,0,1,1.85,1.7,1.6,1.6,0,0,1-.17.7.32.32,0,0,0,.05.36,2,2,0,0,1,.54,1.34,1.93,1.93,0,0,1-.21.88.34.34,0,0,0,0,.36A2.38,2.38,0,0,1,386.85,90Z"/><path class="cls-2" d="M394.62,91.16A2.58,2.58,0,0,1,392,93.62a2.75,2.75,0,0,1-2.14-1,3.79,3.79,0,0,0,2.06-3.31A3.73,3.73,0,0,0,391,87a3.15,3.15,0,0,0,.26-1.25,3.19,3.19,0,0,0-.18-1.06,1.89,1.89,0,0,1,.84-.2,1.77,1.77,0,0,1,1.83,1.68,1.57,1.57,0,0,1-.17.7.24.24,0,0,0,0,.28,1.94,1.94,0,0,1,.53,1.33,1.85,1.85,0,0,1-.21.86.28.28,0,0,0,0,.29A2.31,2.31,0,0,1,394.62,91.16Z"/><path class="cls-2" d="M391.37,89.31a3.62,3.62,0,0,1-7.22,0,3.13,3.13,0,0,1,.61-1.85,1.86,1.86,0,0,1,.22-.27.28.28,0,0,0,0-.29,2.57,2.57,0,0,1-.29-1.18,2.61,2.61,0,0,1,.72-1.79.27.27,0,0,0,0-.3,2.08,2.08,0,0,1-.23-.95v-.12a2.42,2.42,0,0,1,2.5-2.18,2.4,2.4,0,0,1,2.49,2.3,2.07,2.07,0,0,1-.22.95.26.26,0,0,0,0,.3,2.65,2.65,0,0,1,.71,1.79,2.56,2.56,0,0,1-.28,1.18.26.26,0,0,0,0,.29A3.18,3.18,0,0,1,391.37,89.31Z"/><path class="cls-3" d="M394.5,89.39a2.36,2.36,0,0,0,.19-.94,2.42,2.42,0,0,0-.55-1.54,2,2,0,0,0,.15-.77A2.26,2.26,0,0,0,392,84a2.64,2.64,0,0,0-1.07.23,2.93,2.93,0,0,0-.33-.48,2.48,2.48,0,0,0,.22-1,3,3,0,0,0-6-.14.66.66,0,0,0,0,.14,2.64,2.64,0,0,0,.21,1,3.14,3.14,0,0,0-.74,2,3,3,0,0,0,.27,1.25l-.15.19a3.63,3.63,0,0,0-.7,2.15,4,4,0,0,0,3.85,3.82V97.3h0l.46,0V93.13a4.16,4.16,0,0,0,1.33-.29,3.22,3.22,0,0,0,2.36,1.27v3.14l.51,0V94.11a3.05,3.05,0,0,0,2.94-3A2.82,2.82,0,0,0,394.5,89.39Zm-6.74,3.24a3.49,3.49,0,0,1-3.61-3.32,3.13,3.13,0,0,1,.61-1.85,1.86,1.86,0,0,1,.22-.27.28.28,0,0,0,0-.29,2.57,2.57,0,0,1-.29-1.18,2.61,2.61,0,0,1,.72-1.79.27.27,0,0,0,0-.3,2.08,2.08,0,0,1-.23-.95v-.12a2.42,2.42,0,0,1,2.5-2.18,2.4,2.4,0,0,1,2.49,2.3,2.07,2.07,0,0,1-.22.95.26.26,0,0,0,0,.3,2.65,2.65,0,0,1,.71,1.79,2.56,2.56,0,0,1-.28,1.18.26.26,0,0,0,0,.29,3.18,3.18,0,0,1,.83,2.12A3.49,3.49,0,0,1,387.76,92.63Zm4.19,1a2.75,2.75,0,0,1-2.14-1,3.79,3.79,0,0,0,2.06-3.31A3.73,3.73,0,0,0,391,87a3.15,3.15,0,0,0,.26-1.25,3.19,3.19,0,0,0-.18-1.06,1.89,1.89,0,0,1,.84-.2,1.77,1.77,0,0,1,1.83,1.68,1.57,1.57,0,0,1-.17.7.24.24,0,0,0,0,.28,1.94,1.94,0,0,1,.53,1.33,1.85,1.85,0,0,1-.21.86.28.28,0,0,0,0,.29,2.31,2.31,0,0,1,.61,1.56A2.58,2.58,0,0,1,392,93.62Z"/></g></svg>