<svg xmlns="http://www.w3.org/2000/svg" width="450" height="180" viewBox="0 0 450 180"><defs><style>.cls-1,.cls-2{fill:none;stroke-linecap:round;stroke-linejoin:round;}.cls-1,.cls-2,.cls-4,.cls-5{stroke:#000;}.cls-1{stroke-width:0.99px;}.cls-2{stroke-width:1.42px;}.cls-3,.cls-5{fill:#fff;}.cls-4,.cls-5{stroke-miterlimit:10;stroke-width:0.57px;}</style></defs><title>diagrams</title><g id="Layer_1" data-name="Layer 1"><path d="M52.65,136.54h-4.5v4.72H46.71V130.6H53.4v1.13H48.15v3.68h4.5Z"/><path d="M60.06,138.51h-4l-.95,2.75H53.63l3.84-10.66h1.24l3.76,10.66H61Zm-3.59-1.21h3.18l-1.55-4.57h0Z"/><path d="M65.48,136.64v4.62H64V130.6h3.65a4,4,0,0,1,2.67.78,2.77,2.77,0,0,1,.92,2.25,2.44,2.44,0,0,1-.42,1.43,3,3,0,0,1-1.25,1,2.2,2.2,0,0,1,1.26.93,3,3,0,0,1,.38,1.58v1a3.44,3.44,0,0,0,.11.89,1.31,1.31,0,0,0,.39.64v.18H70.26a1.24,1.24,0,0,1-.37-.73,6.63,6.63,0,0,1-.08-1v-1a1.94,1.94,0,0,0-.5-1.39,1.77,1.77,0,0,0-1.36-.53Zm0-1.14h2.06A2.67,2.67,0,0,0,69.3,135a2.13,2.13,0,0,0,0-2.81,2.32,2.32,0,0,0-1.63-.5H65.48Z"/><path d="M75,134.84H73.52v-1.48H75Zm0,6.42H73.52v-1.48H75Z"/><path d="M87.47,137.49a4.23,4.23,0,0,1-.92,2.87,3.43,3.43,0,0,1-4.94,0,4.18,4.18,0,0,1-.93-2.87v-3.13a4.24,4.24,0,0,1,.92-2.86,3.41,3.41,0,0,1,4.94,0,4.19,4.19,0,0,1,.93,2.86ZM86,134.06a2.87,2.87,0,0,0-.52-1.82,1.72,1.72,0,0,0-1.45-.66,1.7,1.7,0,0,0-1.43.66,2.94,2.94,0,0,0-.51,1.82v3.73a3,3,0,0,0,.52,1.82,1.86,1.86,0,0,0,2.88,0,2.92,2.92,0,0,0,.51-1.82Z"/><path d="M90.92,141.26H89.48v-1.48h1.44Z"/><path d="M100,141.26H93.41v-1l3.35-4A10,10,0,0,0,98,134.55a2.86,2.86,0,0,0,.32-1.29,1.75,1.75,0,0,0-.43-1.21,1.53,1.53,0,0,0-1.2-.47,1.78,1.78,0,0,0-1.44.58,2.11,2.11,0,0,0-.49,1.44H93.34l0,0a2.9,2.9,0,0,1,.87-2.2,3.33,3.33,0,0,1,2.47-.91,3.15,3.15,0,0,1,2.25.79,2.71,2.71,0,0,1,.82,2.05,3.21,3.21,0,0,1-.46,1.64,19.82,19.82,0,0,1-1.42,2l-2.69,3.14,0,0H100Z"/><path d="M102,136.52l.61-5.92H108v1.28h-4.12l-.35,3.07a3,3,0,0,1,.77-.43,2.73,2.73,0,0,1,.95-.17,2.9,2.9,0,0,1,2.32.93,4.32,4.32,0,0,1,0,5.16,3.14,3.14,0,0,1-2.5,1,3.4,3.4,0,0,1-2.26-.74,2.53,2.53,0,0,1-.86-2.17v-.05h1.3a1.71,1.71,0,0,0,1.81,1.84,1.71,1.71,0,0,0,1.42-.65,2.83,2.83,0,0,0,.5-1.76,2.54,2.54,0,0,0-.51-1.65,1.71,1.71,0,0,0-1.41-.63,2.26,2.26,0,0,0-1.23.25,1.47,1.47,0,0,0-.57.8Z"/><path d="M204.87,136.54h-4.49v4.72h-1.45V130.6h6.69v1.13h-5.24v3.68h4.49Z"/><path d="M212.29,138.51h-4l-1,2.75h-1.47l3.84-10.66h1.24l3.76,10.66h-1.47Zm-3.6-1.21h3.19l-1.56-4.57h0Z"/><path d="M217.71,136.64v4.62h-1.45V130.6h3.65a4,4,0,0,1,2.67.78,2.77,2.77,0,0,1,.93,2.25,2.44,2.44,0,0,1-.43,1.43,2.89,2.89,0,0,1-1.25,1,2.17,2.17,0,0,1,1.26.93,3,3,0,0,1,.39,1.58v1a3.06,3.06,0,0,0,.11.89,1.29,1.29,0,0,0,.38.64v.18h-1.49a1.24,1.24,0,0,1-.37-.73,6.63,6.63,0,0,1-.08-1v-1a1.9,1.9,0,0,0-.5-1.39,1.77,1.77,0,0,0-1.36-.53Zm0-1.14h2a2.65,2.65,0,0,0,1.76-.46,2.13,2.13,0,0,0,0-2.81,2.3,2.3,0,0,0-1.63-.5h-2.2Z"/><path d="M227.18,134.84h-1.44v-1.48h1.44Zm0,6.42h-1.44v-1.48h1.44Z"/><path d="M239.69,137.49a4.18,4.18,0,0,1-.92,2.87,3.43,3.43,0,0,1-4.94,0,4.18,4.18,0,0,1-.93-2.87v-3.13a4.24,4.24,0,0,1,.92-2.86,3.13,3.13,0,0,1,2.47-1.06,3.16,3.16,0,0,1,2.48,1.06,4.24,4.24,0,0,1,.92,2.86Zm-1.44-3.43a2.94,2.94,0,0,0-.51-1.82,1.75,1.75,0,0,0-1.45-.66,1.71,1.71,0,0,0-1.44.66,2.93,2.93,0,0,0-.5,1.82v3.73a3,3,0,0,0,.51,1.82,1.73,1.73,0,0,0,1.44.68,1.68,1.68,0,0,0,1.44-.68,2.92,2.92,0,0,0,.51-1.82Z"/><path d="M243.14,141.26H241.7v-1.48h1.44Z"/><path d="M245.82,136.52l.61-5.92h5.34v1.28h-4.12L247.3,135a3.17,3.17,0,0,1,.76-.43,2.83,2.83,0,0,1,1-.17,2.89,2.89,0,0,1,2.31.93,4.34,4.34,0,0,1,0,5.16,3.16,3.16,0,0,1-2.51,1,3.39,3.39,0,0,1-2.25-.74,2.56,2.56,0,0,1-.87-2.17l0-.05H247a1.69,1.69,0,0,0,1.8,1.84,1.7,1.7,0,0,0,1.42-.65,2.77,2.77,0,0,0,.51-1.76,2.54,2.54,0,0,0-.51-1.65,1.72,1.72,0,0,0-1.42-.63,2.31,2.31,0,0,0-1.23.25,1.51,1.51,0,0,0-.56.8Z"/><path d="M352.44,136.54h-4.5v4.72H346.5V130.6h6.68v1.13h-5.24v3.68h4.5Z"/><path d="M359.85,138.51h-4l-.95,2.75h-1.47l3.84-10.66h1.24l3.77,10.66h-1.47Zm-3.6-1.21h3.19l-1.56-4.57h0Z"/><path d="M365.27,136.64v4.62h-1.44V130.6h3.64a4.06,4.06,0,0,1,2.68.78,2.8,2.8,0,0,1,.92,2.25,2.37,2.37,0,0,1-.43,1.43,2.89,2.89,0,0,1-1.25,1,2.19,2.19,0,0,1,1.27.93,3.05,3.05,0,0,1,.38,1.58v1a3.44,3.44,0,0,0,.11.89,1.29,1.29,0,0,0,.38.64v.18H370a1.18,1.18,0,0,1-.36-.73,5.55,5.55,0,0,1-.08-1v-1a1.9,1.9,0,0,0-.51-1.39,1.76,1.76,0,0,0-1.35-.53Zm0-1.14h2.06a2.69,2.69,0,0,0,1.76-.46,1.78,1.78,0,0,0,.54-1.42,1.8,1.8,0,0,0-.53-1.39,2.3,2.3,0,0,0-1.63-.5h-2.2Z"/><path d="M374.75,134.84H373.3v-1.48h1.45Zm0,6.42H373.3v-1.48h1.45Z"/><path d="M384.84,141.26h-1.45v-9.33l-2.32,0v-1.11l3.77-.4Z"/></g><g id="Layer_4" data-name="Layer 4"><polygon class="cls-1" points="366.45 82.47 366.45 92.42 345.86 80.53 344.9 79.98 344.9 70.02 366.45 82.47"/><polygon class="cls-1" points="388.01 70.02 388.01 79.98 387.05 80.53 366.45 92.42 366.45 82.47 388.01 70.02"/><polygon class="cls-2" points="224.19 82.47 224.19 92.42 203.59 80.53 202.63 79.98 202.63 70.02 224.19 82.47"/><polygon class="cls-2" points="245.75 70.02 245.75 79.98 244.79 80.53 224.19 92.42 224.19 82.47 245.75 70.02"/><polygon class="cls-1" points="388.01 47.9 388.01 57.85 387.06 58.4 387.05 58.4 366.45 70.3 366.45 60.34 388.01 47.9"/><polygon class="cls-1" points="366.45 60.34 366.45 70.3 345.86 58.41 345.85 58.41 344.9 57.85 344.9 47.9 366.45 60.34"/><polygon class="cls-1" points="388.01 47.9 366.45 60.34 344.9 47.9 366.45 35.45 388.01 47.9"/><polygon class="cls-1" points="388.01 58.96 388.01 68.91 387.05 69.47 366.45 81.36 366.45 71.4 388.01 58.96"/><polygon class="cls-1" points="388.01 70.02 366.45 82.47 344.9 70.02 345.86 69.47 366.45 81.36 387.05 69.47 388.01 70.02"/><polygon class="cls-1" points="245.75 70.02 224.19 82.47 202.63 70.02 224.19 57.58 245.75 70.02"/><polygon class="cls-1" points="388.01 81.08 388.01 91.04 366.45 103.49 366.45 93.53 388.01 81.08"/><polygon class="cls-1" points="388.01 81.08 366.45 93.53 344.9 81.08 345.86 80.53 366.45 92.42 387.05 80.53 388.01 81.08"/><polygon class="cls-1" points="366.45 93.53 366.45 103.49 344.9 91.04 344.9 81.08 366.45 93.53"/><polygon class="cls-1" points="366.45 71.4 366.45 81.36 345.86 69.47 344.9 68.91 344.9 58.96 366.45 71.4"/><polygon class="cls-1" points="388.01 58.96 366.45 71.4 344.9 58.96 345.85 58.41 345.86 58.41 366.45 70.3 387.05 58.4 387.06 58.4 388.01 58.96"/><polygon class="cls-1" points="245.75 81.08 245.75 91.04 224.19 103.49 224.19 93.53 245.75 81.08"/><polygon class="cls-1" points="245.75 81.08 224.19 93.53 202.63 81.08 203.59 80.53 224.19 92.42 244.79 80.53 245.75 81.08"/><polygon class="cls-1" points="224.19 93.53 224.19 103.49 202.63 91.04 202.63 81.08 224.19 93.53"/><polygon class="cls-1" points="81.92 93.53 81.92 103.49 60.37 91.04 60.37 81.08 81.92 93.53"/><polygon class="cls-1" points="103.48 81.08 81.92 93.53 60.37 81.08 81.92 68.64 103.48 81.08"/><polygon class="cls-1" points="103.48 81.08 103.48 91.04 81.92 103.49 81.92 93.53 103.48 81.08"/><polygon class="cls-1" points="272.09 91.59 224.19 119.25 176.29 91.59 202.63 76.38 202.63 79.98 203.59 80.53 202.63 81.08 202.63 91.04 224.19 103.49 245.75 91.04 245.75 81.08 244.79 80.53 245.75 79.98 245.75 76.38 272.09 91.59"/><path class="cls-1" d="M81.92,63.94,34,91.59l47.9,27.66,47.91-27.66Zm0,39.55L60.37,91v-10L81.92,68.64l21.56,12.44V91Z"/><polygon class="cls-1" points="414.36 91.59 366.45 119.25 318.55 91.59 344.9 76.38 344.9 79.98 345.86 80.53 344.9 81.08 344.9 91.04 366.45 103.49 388.01 91.04 388.01 81.08 387.05 80.53 388.01 79.98 388.01 76.38 414.36 91.59"/></g><g id="Layer_5" data-name="Layer 5"><path class="cls-3" d="M97.39,94.39a3.27,3.27,0,0,0,3.39,3.12,3.48,3.48,0,0,0,2.71-1.26A4.81,4.81,0,0,1,100.88,92a4.7,4.7,0,0,1,1.07-3,4,4,0,0,1-.34-1.59,3.88,3.88,0,0,1,.24-1.35,2.47,2.47,0,0,0-1.07-.25A2.25,2.25,0,0,0,98.45,88a2,2,0,0,0,.22.89.32.32,0,0,1,0,.36A2.45,2.45,0,0,0,98,91a2.37,2.37,0,0,0,.26,1.1.32.32,0,0,1,0,.36A3,3,0,0,0,97.39,94.39Z"/><path class="cls-3" d="M101.52,92a4.6,4.6,0,0,0,9.16,0,4,4,0,0,0-.77-2.34,3.07,3.07,0,0,0-.28-.35.34.34,0,0,1,0-.37,3.24,3.24,0,0,0,.36-1.49,3.36,3.36,0,0,0-.91-2.28.34.34,0,0,1,0-.37,2.7,2.7,0,0,0,.29-1.21v-.15a3.19,3.19,0,0,0-6.34.15,2.7,2.7,0,0,0,.29,1.21.34.34,0,0,1,0,.37,3.36,3.36,0,0,0-.91,2.28,3.24,3.24,0,0,0,.36,1.49.34.34,0,0,1-.05.37A4.06,4.06,0,0,0,101.52,92Z"/><path class="cls-4" d="M96.74,94.39a3.88,3.88,0,0,0,3.73,3.75v4l.65,0v-4a4.1,4.1,0,0,0,3-1.61,5.26,5.26,0,0,0,1.69.36l0,5.25.58,0h.06v-5.3A5,5,0,0,0,111.33,92a4.63,4.63,0,0,0-.89-2.72l-.19-.24a3.82,3.82,0,0,0,.34-1.59,4,4,0,0,0-.94-2.56,3.26,3.26,0,0,0,.27-1.3,1.09,1.09,0,0,0,0-.18,3.83,3.83,0,0,0-7.63.18,3.26,3.26,0,0,0,.27,1.3,4.83,4.83,0,0,0-.42.62,3.13,3.13,0,0,0-1.35-.3,2.88,2.88,0,0,0-3,2.77A2.55,2.55,0,0,0,98,89a3.07,3.07,0,0,0-.46,3.14A3.6,3.6,0,0,0,96.74,94.39ZM101.52,92a4.06,4.06,0,0,1,1-2.69.34.34,0,0,0,.05-.37,3.24,3.24,0,0,1-.36-1.49,3.36,3.36,0,0,1,.91-2.28.34.34,0,0,0,0-.37,2.7,2.7,0,0,1-.29-1.21,3.19,3.19,0,0,1,6.34-.15v.15a2.7,2.7,0,0,1-.29,1.21.34.34,0,0,0,0,.37,3.36,3.36,0,0,1,.91,2.28,3.24,3.24,0,0,1-.36,1.49.34.34,0,0,0,0,.37,3.07,3.07,0,0,1,.28.35,4,4,0,0,1,.77,2.34,4.6,4.6,0,0,1-9.16,0Zm-4.13,2.35a3,3,0,0,1,.77-2,.32.32,0,0,0,0-.36A2.37,2.37,0,0,1,98,91a2.45,2.45,0,0,1,.67-1.68.32.32,0,0,0,0-.36,2,2,0,0,1-.22-.89,2.25,2.25,0,0,1,2.33-2.13,2.47,2.47,0,0,1,1.07.25,3.88,3.88,0,0,0-.24,1.35,4,4,0,0,0,.34,1.59,4.7,4.7,0,0,0-1.07,3,4.81,4.81,0,0,0,2.61,4.21,3.48,3.48,0,0,1-2.71,1.26A3.27,3.27,0,0,1,97.39,94.39Z"/><path class="cls-4" d="M68.37,95.16a2.75,2.75,0,0,0,.19-1A2.59,2.59,0,0,0,68,92.57a2.17,2.17,0,0,0,.15-.79,2.51,2.51,0,0,0-5-.12s0,.08,0,.12a2.17,2.17,0,0,0,.15.79,2.65,2.65,0,0,0-.56,1.61,2.55,2.55,0,0,0,.19,1l-.08.09A3.08,3.08,0,0,0,62.26,97a3.26,3.26,0,0,0,3,3.14V103l.64,0v-2.78A3.25,3.25,0,0,0,69,97,3,3,0,0,0,68.37,95.16Zm-2.73,4.37A2.64,2.64,0,0,1,62.9,97a2.34,2.34,0,0,1,.46-1.39l.17-.21a.32.32,0,0,0,0-.36,1.82,1.82,0,0,1-.22-.88,2,2,0,0,1,.54-1.34.32.32,0,0,0,.05-.36,1.6,1.6,0,0,1-.17-.7v-.09a1.8,1.8,0,0,1,1.86-1.61,1.78,1.78,0,0,1,1.85,1.7,1.6,1.6,0,0,1-.17.7.32.32,0,0,0,.05.36,2,2,0,0,1,.54,1.34,1.93,1.93,0,0,1-.21.88.34.34,0,0,0,0,.36,2.38,2.38,0,0,1,.63,1.6A2.64,2.64,0,0,1,65.64,99.53Z"/><path class="cls-5" d="M68.37,97a2.75,2.75,0,0,1-5.47,0,2.34,2.34,0,0,1,.46-1.39l.17-.21a.32.32,0,0,0,0-.36,1.82,1.82,0,0,1-.22-.88,2,2,0,0,1,.54-1.34.32.32,0,0,0,.05-.36,1.6,1.6,0,0,1-.17-.7v-.09a1.8,1.8,0,0,1,1.86-1.61,1.78,1.78,0,0,1,1.85,1.7,1.6,1.6,0,0,1-.17.7.32.32,0,0,0,.05.36,2,2,0,0,1,.54,1.34,1.93,1.93,0,0,1-.21.88.34.34,0,0,0,0,.36A2.38,2.38,0,0,1,68.37,97Z"/><path class="cls-3" d="M239.64,94.39A3.27,3.27,0,0,0,243,97.51a3.48,3.48,0,0,0,2.71-1.26A4.81,4.81,0,0,1,243.13,92a4.7,4.7,0,0,1,1.07-3,4,4,0,0,1-.34-1.59,3.88,3.88,0,0,1,.24-1.35,2.47,2.47,0,0,0-1.07-.25A2.25,2.25,0,0,0,240.7,88a2,2,0,0,0,.22.89.32.32,0,0,1,0,.36A2.45,2.45,0,0,0,240.2,91a2.37,2.37,0,0,0,.26,1.1.32.32,0,0,1-.05.36A3,3,0,0,0,239.64,94.39Z"/><path class="cls-3" d="M243.77,92a4.6,4.6,0,0,0,9.16,0,4,4,0,0,0-.77-2.34,3.07,3.07,0,0,0-.28-.35.34.34,0,0,1,0-.37,3.24,3.24,0,0,0,.36-1.49,3.36,3.36,0,0,0-.91-2.28.34.34,0,0,1-.05-.37,2.7,2.7,0,0,0,.29-1.21v-.15a3.19,3.19,0,0,0-6.34.15,2.7,2.7,0,0,0,.29,1.21.34.34,0,0,1-.05.37,3.36,3.36,0,0,0-.91,2.28,3.24,3.24,0,0,0,.36,1.49.34.34,0,0,1-.05.37A4.06,4.06,0,0,0,243.77,92Z"/><path class="cls-4" d="M239,94.39a3.88,3.88,0,0,0,3.73,3.75v4l.65,0v-4a4.1,4.1,0,0,0,3-1.61,5.26,5.26,0,0,0,1.69.36l0,5.25.58,0h.06v-5.3A5,5,0,0,0,253.58,92a4.63,4.63,0,0,0-.89-2.72l-.19-.24a3.82,3.82,0,0,0,.34-1.59,4,4,0,0,0-.94-2.56,3.26,3.26,0,0,0,.27-1.3,1.09,1.09,0,0,0,0-.18,3.83,3.83,0,0,0-7.63.18,3.26,3.26,0,0,0,.27,1.3,4.83,4.83,0,0,0-.42.62,3.13,3.13,0,0,0-1.35-.3,2.88,2.88,0,0,0-3,2.77,2.55,2.55,0,0,0,.19,1,3.07,3.07,0,0,0-.46,3.14A3.6,3.6,0,0,0,239,94.39ZM243.77,92a4.06,4.06,0,0,1,1-2.69.34.34,0,0,0,.05-.37,3.24,3.24,0,0,1-.36-1.49,3.36,3.36,0,0,1,.91-2.28.34.34,0,0,0,.05-.37,2.7,2.7,0,0,1-.29-1.21,3.19,3.19,0,0,1,6.34-.15v.15a2.7,2.7,0,0,1-.29,1.21.34.34,0,0,0,.05.37,3.36,3.36,0,0,1,.91,2.28,3.24,3.24,0,0,1-.36,1.49.34.34,0,0,0,0,.37,3.07,3.07,0,0,1,.28.35,4,4,0,0,1,.77,2.34,4.6,4.6,0,0,1-9.16,0Zm-4.13,2.35a3,3,0,0,1,.77-2,.32.32,0,0,0,.05-.36,2.37,2.37,0,0,1-.26-1.1,2.45,2.45,0,0,1,.67-1.68.32.32,0,0,0,0-.36,2,2,0,0,1-.22-.89A2.25,2.25,0,0,1,243,85.89a2.47,2.47,0,0,1,1.07.25,3.88,3.88,0,0,0-.24,1.35,4,4,0,0,0,.34,1.59,4.7,4.7,0,0,0-1.07,3,4.81,4.81,0,0,0,2.61,4.21A3.48,3.48,0,0,1,243,97.51,3.27,3.27,0,0,1,239.64,94.39Z"/><path class="cls-4" d="M210.62,95.16a2.75,2.75,0,0,0,.19-1,2.59,2.59,0,0,0-.57-1.61,2.17,2.17,0,0,0,.15-.79,2.51,2.51,0,0,0-5-.12s0,.08,0,.12a2.17,2.17,0,0,0,.15.79,2.65,2.65,0,0,0-.56,1.61,2.55,2.55,0,0,0,.19,1l-.08.09a3.08,3.08,0,0,0-.57,1.77,3.26,3.26,0,0,0,3,3.14V103l.64,0v-2.78A3.25,3.25,0,0,0,211.27,97,3,3,0,0,0,210.62,95.16Zm-2.73,4.37A2.64,2.64,0,0,1,205.15,97a2.34,2.34,0,0,1,.46-1.39l.17-.21a.32.32,0,0,0,.05-.36,1.82,1.82,0,0,1-.22-.88,2,2,0,0,1,.54-1.34.32.32,0,0,0,0-.36,1.6,1.6,0,0,1-.17-.7v-.09a1.8,1.8,0,0,1,1.86-1.61,1.78,1.78,0,0,1,1.85,1.7,1.6,1.6,0,0,1-.17.7.32.32,0,0,0,.05.36,2,2,0,0,1,.54,1.34,1.93,1.93,0,0,1-.21.88.34.34,0,0,0,0,.36,2.38,2.38,0,0,1,.63,1.6A2.64,2.64,0,0,1,207.89,99.53Z"/><path class="cls-5" d="M210.62,97a2.75,2.75,0,0,1-5.47,0,2.34,2.34,0,0,1,.46-1.39l.17-.21a.32.32,0,0,0,.05-.36,1.82,1.82,0,0,1-.22-.88,2,2,0,0,1,.54-1.34.32.32,0,0,0,0-.36,1.6,1.6,0,0,1-.17-.7v-.09a1.8,1.8,0,0,1,1.86-1.61,1.78,1.78,0,0,1,1.85,1.7,1.6,1.6,0,0,1-.17.7.32.32,0,0,0,.05.36,2,2,0,0,1,.54,1.34,1.93,1.93,0,0,1-.21.88.34.34,0,0,0,0,.36A2.38,2.38,0,0,1,210.62,97Z"/><path class="cls-3" d="M381.81,94.39a3.27,3.27,0,0,0,3.39,3.12,3.48,3.48,0,0,0,2.71-1.26A4.81,4.81,0,0,1,385.3,92a4.7,4.7,0,0,1,1.07-3,4,4,0,0,1-.34-1.59,3.88,3.88,0,0,1,.24-1.35,2.47,2.47,0,0,0-1.07-.25A2.25,2.25,0,0,0,382.87,88a2,2,0,0,0,.22.89.32.32,0,0,1,0,.36,2.45,2.45,0,0,0-.67,1.68,2.37,2.37,0,0,0,.26,1.1.32.32,0,0,1-.05.36A3,3,0,0,0,381.81,94.39Z"/><path class="cls-3" d="M385.94,92a4.6,4.6,0,0,0,9.16,0,4,4,0,0,0-.77-2.34,3.07,3.07,0,0,0-.28-.35A.34.34,0,0,1,394,89a3.24,3.24,0,0,0,.36-1.49,3.36,3.36,0,0,0-.91-2.28.34.34,0,0,1-.05-.37,2.7,2.7,0,0,0,.29-1.21v-.15a3.19,3.19,0,0,0-6.34.15,2.7,2.7,0,0,0,.29,1.21.34.34,0,0,1-.05.37,3.36,3.36,0,0,0-.91,2.28A3.24,3.24,0,0,0,387,89a.34.34,0,0,1-.05.37A4.06,4.06,0,0,0,385.94,92Z"/><path class="cls-4" d="M381.16,94.39a3.88,3.88,0,0,0,3.73,3.75v4l.65,0v-4a4.1,4.1,0,0,0,3-1.61,5.26,5.26,0,0,0,1.69.36l0,5.25.58,0h.06v-5.3A5,5,0,0,0,395.75,92a4.63,4.63,0,0,0-.89-2.72l-.19-.24a3.82,3.82,0,0,0,.34-1.59,4,4,0,0,0-.94-2.56,3.26,3.26,0,0,0,.27-1.3,1.09,1.09,0,0,0,0-.18,3.83,3.83,0,0,0-7.63.18,3.26,3.26,0,0,0,.27,1.3,4.83,4.83,0,0,0-.42.62,3.13,3.13,0,0,0-1.35-.3,2.88,2.88,0,0,0-3,2.77,2.55,2.55,0,0,0,.19,1,3.07,3.07,0,0,0-.46,3.14A3.6,3.6,0,0,0,381.16,94.39ZM385.94,92A4.06,4.06,0,0,1,387,89.35.34.34,0,0,0,387,89a3.24,3.24,0,0,1-.36-1.49,3.36,3.36,0,0,1,.91-2.28.34.34,0,0,0,.05-.37,2.7,2.7,0,0,1-.29-1.21,3.19,3.19,0,0,1,6.34-.15v.15a2.7,2.7,0,0,1-.29,1.21.34.34,0,0,0,.05.37,3.36,3.36,0,0,1,.91,2.28A3.24,3.24,0,0,1,394,89a.34.34,0,0,0,.05.37,3.07,3.07,0,0,1,.28.35A4,4,0,0,1,395.1,92a4.6,4.6,0,0,1-9.16,0Zm-4.13,2.35a3,3,0,0,1,.77-2,.32.32,0,0,0,.05-.36,2.37,2.37,0,0,1-.26-1.1,2.45,2.45,0,0,1,.67-1.68.32.32,0,0,0,0-.36,2,2,0,0,1-.22-.89,2.25,2.25,0,0,1,2.33-2.13,2.47,2.47,0,0,1,1.07.25,3.88,3.88,0,0,0-.24,1.35,4,4,0,0,0,.34,1.59,4.7,4.7,0,0,0-1.07,3,4.81,4.81,0,0,0,2.61,4.21,3.48,3.48,0,0,1-2.71,1.26A3.27,3.27,0,0,1,381.81,94.39Z"/><path class="cls-4" d="M352.79,95.16a2.75,2.75,0,0,0,.19-1,2.59,2.59,0,0,0-.57-1.61,2.17,2.17,0,0,0,.15-.79,2.51,2.51,0,0,0-5-.12s0,.08,0,.12a2.17,2.17,0,0,0,.15.79,2.65,2.65,0,0,0-.56,1.61,2.55,2.55,0,0,0,.19,1l-.08.09a3.08,3.08,0,0,0-.57,1.77,3.26,3.26,0,0,0,3,3.14V103l.64,0v-2.78A3.25,3.25,0,0,0,353.44,97,3,3,0,0,0,352.79,95.16Zm-2.73,4.37A2.64,2.64,0,0,1,347.32,97a2.34,2.34,0,0,1,.46-1.39l.17-.21a.32.32,0,0,0,.05-.36,1.82,1.82,0,0,1-.22-.88,2,2,0,0,1,.54-1.34.32.32,0,0,0,.05-.36,1.6,1.6,0,0,1-.17-.7v-.09a1.8,1.8,0,0,1,1.86-1.61,1.78,1.78,0,0,1,1.85,1.7,1.6,1.6,0,0,1-.17.7.32.32,0,0,0,.05.36,2,2,0,0,1,.54,1.34,1.93,1.93,0,0,1-.21.88.34.34,0,0,0,0,.36,2.38,2.38,0,0,1,.63,1.6A2.64,2.64,0,0,1,350.06,99.53Z"/><path class="cls-5" d="M352.79,97a2.75,2.75,0,0,1-5.47,0,2.34,2.34,0,0,1,.46-1.39l.17-.21a.32.32,0,0,0,.05-.36,1.82,1.82,0,0,1-.22-.88,2,2,0,0,1,.54-1.34.32.32,0,0,0,.05-.36,1.6,1.6,0,0,1-.17-.7v-.09a1.8,1.8,0,0,1,1.86-1.61,1.78,1.78,0,0,1,1.85,1.7,1.6,1.6,0,0,1-.17.7.32.32,0,0,0,.05.36,2,2,0,0,1,.54,1.34,1.93,1.93,0,0,1-.21.88.34.34,0,0,0,0,.36A2.38,2.38,0,0,1,352.79,97Z"/></g></svg>