<svg id="Layer_1" data-name="Layer 1" xmlns="http://www.w3.org/2000/svg" xmlns:xlink="http://www.w3.org/1999/xlink" width="450" height="660" viewBox="0 0 450 660"><defs><style>.cls-1{fill:#ef4423;}.cls-10,.cls-11,.cls-12,.cls-13,.cls-14,.cls-15,.cls-17,.cls-2,.cls-5,.cls-6,.cls-9{fill:none;}.cls-10,.cls-2,.cls-9{stroke:#ef4423;}.cls-13,.cls-14,.cls-2,.cls-5,.cls-6,.cls-8{stroke-miterlimit:10;}.cls-10,.cls-11,.cls-12,.cls-13,.cls-14,.cls-2,.cls-5,.cls-9{stroke-width:2.83px;}.cls-3{fill:#fff;}.cls-4{fill:#00a6b3;}.cls-11,.cls-12,.cls-5{stroke:#00a6b3;}.cls-13,.cls-14,.cls-6{stroke:#4d4d4d;}.cls-6{stroke-width:5.67px;}.cls-7,.cls-8{fill:#4d4d4d;}.cls-8{stroke:#fff;stroke-width:0.71px;}.cls-10,.cls-11,.cls-12,.cls-13,.cls-15,.cls-17,.cls-9{stroke-linecap:round;}.cls-10,.cls-11,.cls-12,.cls-15,.cls-17,.cls-9{stroke-linejoin:round;}.cls-10,.cls-12{stroke-dasharray:0.03 5.96;}.cls-13{stroke-dasharray:0.03 5.67;}.cls-15,.cls-17{stroke-width:1.42px;}.cls-15{stroke:url(#linear-gradient);}.cls-16{fill:url(#linear-gradient-2);}.cls-17{stroke:url(#linear-gradient-3);}.cls-18{fill:url(#linear-gradient-4);}</style><linearGradient id="linear-gradient" x1="173.29" y1="65.29" x2="173.29" y2="43.85" gradientUnits="userSpaceOnUse"><stop offset="0" stop-color="#ef4423"/><stop offset="1" stop-color="#00a6b3"/></linearGradient><linearGradient id="linear-gradient-2" x1="173.29" y1="65.29" x2="173.29" y2="43.85" xlink:href="#linear-gradient"/><linearGradient id="linear-gradient-3" x1="173.29" y1="385.76" x2="173.29" y2="369.04" xlink:href="#linear-gradient"/><linearGradient id="linear-gradient-4" x1="173.29" y1="385.76" x2="173.29" y2="369.04" xlink:href="#linear-gradient"/></defs><title>diagrams</title><rect class="cls-1" x="35.08" y="388.44" width="117.17" height="197.05" rx="6" ry="6"/><rect class="cls-2" x="35.08" y="388.44" width="117.17" height="197.05" rx="6" ry="6"/><rect class="cls-1" x="194.19" y="98.96" width="117.17" height="162.08" rx="6" ry="6"/><rect class="cls-2" x="194.19" y="98.96" width="117.17" height="162.08" rx="6" ry="6"/><path class="cls-3" d="M229.28,248.26h-3.55v2.51H230v1.8h-6.6V242.5H230v1.79h-4.27v2.17h3.55Z"/><path class="cls-3" d="M234.13,247.29h0l1-2.21h2.62l-2.17,3.71,2.25,3.78h-2.63l-1-2.27h0l-1,2.27h-2.62l2.25-3.78-2.19-3.71h2.61Z"/><path class="cls-3" d="M245.39,249a4.49,4.49,0,0,1-.76,2.71,2.54,2.54,0,0,1-2.15,1,2.12,2.12,0,0,1-1-.21,2.2,2.2,0,0,1-.73-.6v3.54h-2.34V245.08h2.21l.07.82a2.38,2.38,0,0,1,.74-.71,2,2,0,0,1,1-.24,2.48,2.48,0,0,1,2.15,1.07,4.73,4.73,0,0,1,.77,2.82Zm-2.34-.15a3.6,3.6,0,0,0-.27-1.52.94.94,0,0,0-.89-.58,1.41,1.41,0,0,0-.67.15,1.15,1.15,0,0,0-.43.42v3.13a1,1,0,0,0,.44.36,1.69,1.69,0,0,0,.68.12.92.92,0,0,0,.88-.51,3.08,3.08,0,0,0,.26-1.42Z"/><path class="cls-3" d="M249.74,252.72a3.52,3.52,0,0,1-2.67-1,3.69,3.69,0,0,1-1-2.61v-.27A4.16,4.16,0,0,1,247,246a3.2,3.2,0,0,1,2.63-1.07,3.05,3.05,0,0,1,2.35.9,3.52,3.52,0,0,1,.83,2.49v1.22h-4.29v0a1.48,1.48,0,0,0,.43,1,1.51,1.51,0,0,0,1.1.37,5,5,0,0,0,1.12-.11,7.51,7.51,0,0,0,1-.36l.56,1.43a4.51,4.51,0,0,1-1.3.59A5.77,5.77,0,0,1,249.74,252.72Zm-.09-6a1,1,0,0,0-.83.36,1.8,1.8,0,0,0-.3,1v0h2v-.18a1.61,1.61,0,0,0-.2-.88A.79.79,0,0,0,249.65,246.74Z"/><path class="cls-3" d="M256,245.08l.09,1.06a2.61,2.61,0,0,1,.9-.88,2.34,2.34,0,0,1,1.21-.31,2.12,2.12,0,0,1,1.72.74,3.73,3.73,0,0,1,.62,2.38v4.5h-2.34v-4.51a1.71,1.71,0,0,0-.23-1,.8.8,0,0,0-.67-.31,1.64,1.64,0,0,0-.67.14,1.31,1.31,0,0,0-.5.37v5.32h-2.33v-7.49Z"/><path class="cls-3" d="M265.69,250.47a.61.61,0,0,0-.31-.5,3.62,3.62,0,0,0-1.15-.39,4.47,4.47,0,0,1-2-.79,1.8,1.8,0,0,1-.66-1.48,2.09,2.09,0,0,1,.83-1.68,3.44,3.44,0,0,1,2.24-.68,3.94,3.94,0,0,1,2.39.66,2,2,0,0,1,.84,1.73v0h-2.27a.92.92,0,0,0-.23-.67,1.15,1.15,0,0,0-1.34,0,.66.66,0,0,0-.25.51.62.62,0,0,0,.29.51,3.22,3.22,0,0,0,1.16.37,4.55,4.55,0,0,1,2,.81,1.84,1.84,0,0,1,.66,1.52,2,2,0,0,1-.89,1.66,3.93,3.93,0,0,1-2.38.66,3.53,3.53,0,0,1-2.41-.78,2.1,2.1,0,0,1-.85-1.73v0h2.12a1,1,0,0,0,.32.77,1.42,1.42,0,0,0,.88.23,1.18,1.18,0,0,0,.71-.18A.62.62,0,0,0,265.69,250.47Z"/><path class="cls-3" d="M272.36,252.72a3.49,3.49,0,0,1-2.66-1,3.65,3.65,0,0,1-1-2.61v-.27a4.16,4.16,0,0,1,.91-2.79,3.22,3.22,0,0,1,2.63-1.07,3,3,0,0,1,2.35.9,3.52,3.52,0,0,1,.84,2.49v1.22h-4.29l0,0a1.44,1.44,0,0,0,.44,1,1.48,1.48,0,0,0,1.09.37,5,5,0,0,0,1.12-.11,6.67,6.67,0,0,0,1-.36l.56,1.43a4.27,4.27,0,0,1-1.3.59A5.73,5.73,0,0,1,272.36,252.72Zm-.09-6a1,1,0,0,0-.82.36,1.8,1.8,0,0,0-.31,1v0h2v-.18a1.53,1.53,0,0,0-.2-.88A.79.79,0,0,0,272.27,246.74Z"/><path class="cls-3" d="M280.35,250.47a.61.61,0,0,0-.31-.5,3.72,3.72,0,0,0-1.15-.39,4.47,4.47,0,0,1-2-.79,1.81,1.81,0,0,1-.67-1.48,2.12,2.12,0,0,1,.83-1.68,3.49,3.49,0,0,1,2.25-.68,3.89,3.89,0,0,1,2.38.66,2,2,0,0,1,.85,1.73l0,0h-2.27a.92.92,0,0,0-.22-.67,1.15,1.15,0,0,0-1.34,0,.63.63,0,0,0-.25.51.62.62,0,0,0,.29.51,3.22,3.22,0,0,0,1.16.37,4.6,4.6,0,0,1,2,.81,1.84,1.84,0,0,1,.66,1.52,2,2,0,0,1-.9,1.66,3.87,3.87,0,0,1-2.37.66,3.51,3.51,0,0,1-2.41-.78,2.1,2.1,0,0,1-.85-1.73v0h2.12a.93.93,0,0,0,.32.77,1.42,1.42,0,0,0,.88.23,1.18,1.18,0,0,0,.71-.18A.62.62,0,0,0,280.35,250.47Z"/><path class="cls-3" d="M86.91,567.13v6.53a3.35,3.35,0,0,1-1.15,2.71,4.45,4.45,0,0,1-3,1,4.53,4.53,0,0,1-3-1,3.35,3.35,0,0,1-1.16-2.71v-6.53h2.35v6.53a1.9,1.9,0,0,0,.48,1.41,1.84,1.84,0,0,0,1.35.48,1.8,1.8,0,0,0,1.32-.47,1.92,1.92,0,0,0,.48-1.42v-6.53Z"/><path class="cls-3" d="M92.23,575.1a.61.61,0,0,0-.32-.49,3.18,3.18,0,0,0-1.14-.39,4.51,4.51,0,0,1-2-.8,1.79,1.79,0,0,1-.66-1.47,2.12,2.12,0,0,1,.83-1.68,3.4,3.4,0,0,1,2.25-.69,3.82,3.82,0,0,1,2.38.67,2,2,0,0,1,.84,1.72v0H92.15a.93.93,0,0,0-.22-.67,1,1,0,0,0-.73-.22.9.9,0,0,0-.61.2.61.61,0,0,0-.25.51.58.58,0,0,0,.29.5,3.11,3.11,0,0,0,1.15.38,4.78,4.78,0,0,1,2,.8,1.86,1.86,0,0,1,.66,1.52,2,2,0,0,1-.9,1.67,4,4,0,0,1-2.37.65,3.58,3.58,0,0,1-2.42-.77,2.18,2.18,0,0,1-.85-1.73l0-.05h2.11a.92.92,0,0,0,.33.77,1.37,1.37,0,0,0,.87.24,1.11,1.11,0,0,0,.71-.19A.59.59,0,0,0,92.23,575.1Z"/><path class="cls-3" d="M98.9,577.35a3.46,3.46,0,0,1-2.67-1,3.7,3.7,0,0,1-1-2.61v-.26a4.23,4.23,0,0,1,.91-2.8,3.23,3.23,0,0,1,2.64-1.07,3,3,0,0,1,2.35.91A3.54,3.54,0,0,1,102,573v1.22H97.7v0a1.43,1.43,0,0,0,.43,1,1.55,1.55,0,0,0,1.1.36,4.88,4.88,0,0,0,1.11-.11,7,7,0,0,0,1-.35l.56,1.42a4.21,4.21,0,0,1-1.31.6A6,6,0,0,1,98.9,577.35Zm-.09-6a1,1,0,0,0-.83.35,1.8,1.8,0,0,0-.31,1l0,0h2v-.17a1.5,1.5,0,0,0-.21-.88A.76.76,0,0,0,98.81,571.38Z"/><path class="cls-3" d="M106.88,575.1a.6.6,0,0,0-.31-.49,3.17,3.17,0,0,0-1.15-.39,4.52,4.52,0,0,1-2-.8,1.79,1.79,0,0,1-.66-1.47,2.09,2.09,0,0,1,.83-1.68,3.4,3.4,0,0,1,2.25-.69,3.84,3.84,0,0,1,2.38.67,2,2,0,0,1,.84,1.72v0h-2.27a.93.93,0,0,0-.22-.67,1,1,0,0,0-.73-.22.9.9,0,0,0-.61.2.61.61,0,0,0-.25.51.6.6,0,0,0,.28.5,3.18,3.18,0,0,0,1.16.38,4.78,4.78,0,0,1,2,.8,1.85,1.85,0,0,1,.65,1.52,2,2,0,0,1-.89,1.67,4,4,0,0,1-2.37.65,3.58,3.58,0,0,1-2.42-.77,2.15,2.15,0,0,1-.85-1.73l0-.05h2.11a.94.94,0,0,0,.32.77,1.42,1.42,0,0,0,.88.24,1.11,1.11,0,0,0,.71-.19A.61.61,0,0,0,106.88,575.1Z"/><rect class="cls-4" x="194.17" y="388.44" width="117.17" height="197.05" rx="6" ry="6"/><rect class="cls-5" x="194.17" y="388.44" width="117.17" height="197.05" rx="6" ry="6"/><path class="cls-3" d="M233,574.53a1,1,0,0,0-.35-.82,4.62,4.62,0,0,0-1.28-.61,9.75,9.75,0,0,1-2.79-1.3,2.33,2.33,0,0,1-.91-2,2.41,2.41,0,0,1,1.06-2,4.34,4.34,0,0,1,2.69-.79,4.46,4.46,0,0,1,2.78.81,2.6,2.6,0,0,1,1,2.27v0H233a1.26,1.26,0,0,0-.39-1,1.83,1.83,0,0,0-1.17-.32,1.48,1.48,0,0,0-1,.31,1,1,0,0,0-.37.77.84.84,0,0,0,.38.71,7.24,7.24,0,0,0,1.41.67,7.44,7.44,0,0,1,2.65,1.26,2.52,2.52,0,0,1,.9,2,2.43,2.43,0,0,1-1,2.08,4.61,4.61,0,0,1-2.76.75,5,5,0,0,1-2.89-.81,2.75,2.75,0,0,1-1.15-2.53v0h2.28a1.58,1.58,0,0,0,.43,1.25,2,2,0,0,0,1.32.37,1.76,1.76,0,0,0,1.1-.29A1,1,0,0,0,233,574.53Z"/><path class="cls-3" d="M236.2,573.39a4,4,0,0,1,1-2.75,3.37,3.37,0,0,1,2.66-1.06,3.41,3.41,0,0,1,2.67,1.06,4,4,0,0,1,1,2.75v.15a3.92,3.92,0,0,1-1,2.75,3.88,3.88,0,0,1-5.33,0,3.92,3.92,0,0,1-1-2.75Zm2.34.15a3.11,3.11,0,0,0,.29,1.47,1.19,1.19,0,0,0,2,0,3.17,3.17,0,0,0,.29-1.47v-.15a3.18,3.18,0,0,0-.29-1.46,1.18,1.18,0,0,0-2,0,3.21,3.21,0,0,0-.29,1.46Z"/><path class="cls-3" d="M249,576.08a2.45,2.45,0,0,1-.86.94,2.25,2.25,0,0,1-1.22.33,2.21,2.21,0,0,1-1.83-.82,4,4,0,0,1-.66-2.52v-4.29h2.33V574a2.28,2.28,0,0,0,.23,1.21.79.79,0,0,0,.69.32,1.91,1.91,0,0,0,.66-.1,1.46,1.46,0,0,0,.49-.31v-5.42h2.34v7.49h-1.89Z"/><path class="cls-3" d="M256.58,571.71h-.76a1.29,1.29,0,0,0-.66.15,1,1,0,0,0-.38.42v4.94h-2.34v-7.49h2.2l.09,1.1a2.23,2.23,0,0,1,.62-.92,1.4,1.4,0,0,1,.91-.32l.28,0,.26.06Z"/><path class="cls-3" d="M260.51,575.55a.91.91,0,0,0,.72-.26,1.1,1.1,0,0,0,.23-.75h2.13l0,0a2.48,2.48,0,0,1-.85,2,3.75,3.75,0,0,1-4.88-.28,4,4,0,0,1-.92-2.76v-.15a4,4,0,0,1,.92-2.75,3.26,3.26,0,0,1,2.62-1.06,3.21,3.21,0,0,1,2.28.79,2.73,2.73,0,0,1,.83,2.17l0,0h-2.13a1.49,1.49,0,0,0-.24-.87.83.83,0,0,0-.72-.33,1,1,0,0,0-.95.54,3.49,3.49,0,0,0-.26,1.47v.15a3.51,3.51,0,0,0,.26,1.48A1,1,0,0,0,260.51,575.55Z"/><path class="cls-3" d="M267.88,577.35a3.45,3.45,0,0,1-2.66-1,3.65,3.65,0,0,1-1-2.61v-.26a4.17,4.17,0,0,1,.91-2.8,3.21,3.21,0,0,1,2.63-1.07,3,3,0,0,1,2.35.91A3.5,3.5,0,0,1,271,573v1.22h-4.29l0,0a1.44,1.44,0,0,0,.44,1,1.52,1.52,0,0,0,1.09.36,5,5,0,0,0,1.12-.11,6.53,6.53,0,0,0,1-.35l.56,1.42a4.15,4.15,0,0,1-1.3.6A6.06,6.06,0,0,1,267.88,577.35Zm-.09-6a1,1,0,0,0-.82.35,1.8,1.8,0,0,0-.31,1v0h2v-.17a1.51,1.51,0,0,0-.2-.88A.79.79,0,0,0,267.79,571.38Z"/><path class="cls-3" d="M275.87,575.1a.6.6,0,0,0-.31-.49,3.25,3.25,0,0,0-1.15-.39,4.47,4.47,0,0,1-2-.8,1.79,1.79,0,0,1-.67-1.47,2.12,2.12,0,0,1,.83-1.68,3.44,3.44,0,0,1,2.25-.69,3.82,3.82,0,0,1,2.38.67,2,2,0,0,1,.85,1.72l0,0h-2.27a.93.93,0,0,0-.22-.67,1,1,0,0,0-.72-.22.92.92,0,0,0-.62.2.61.61,0,0,0,0,1,3.18,3.18,0,0,0,1.16.38,4.73,4.73,0,0,1,2,.8,1.86,1.86,0,0,1,.66,1.52,2,2,0,0,1-.9,1.67,3.94,3.94,0,0,1-2.37.65,3.6,3.6,0,0,1-2.42-.77,2.14,2.14,0,0,1-.84-1.73v-.05h2.12a.91.91,0,0,0,.32.77,1.42,1.42,0,0,0,.88.24,1.11,1.11,0,0,0,.71-.19A.61.61,0,0,0,275.87,575.1Z"/><rect class="cls-4" x="35.15" y="206.58" width="117.17" height="54.46" rx="6" ry="6"/><rect class="cls-5" x="35.15" y="206.58" width="117.17" height="54.46" rx="6" ry="6"/><rect class="cls-3" x="35.15" y="40.75" width="117.17" height="195.28" rx="6" ry="6"/><rect class="cls-5" x="35.15" y="40.75" width="117.17" height="195.28" rx="6" ry="6"/><line class="cls-6" x1="94.42" y1="288.63" x2="251.83" y2="288.63"/><rect class="cls-3" x="194.19" y="496.78" width="117.17" height="65.09" rx="6" ry="6"/><rect class="cls-5" x="194.19" y="496.78" width="117.17" height="65.09" rx="6" ry="6"/><rect class="cls-3" x="194.19" y="365.79" width="117.17" height="130.19" rx="6" ry="6"/><rect class="cls-5" x="194.19" y="365.79" width="117.17" height="130.19" rx="6" ry="6"/><rect class="cls-3" x="35.08" y="443.93" width="117.17" height="21.4" rx="6" ry="6"/><rect class="cls-2" x="35.08" y="443.93" width="117.17" height="21.4" rx="6" ry="6"/><rect class="cls-3" x="35.08" y="465.54" width="117.17" height="96.34" rx="6" ry="6"/><rect class="cls-2" x="35.08" y="465.54" width="117.17" height="96.34" rx="6" ry="6"/><rect class="cls-3" x="35.08" y="408.1" width="117.17" height="35.64" rx="6" ry="6"/><rect class="cls-2" x="35.08" y="408.1" width="117.17" height="35.64" rx="6" ry="6"/><rect class="cls-3" x="35.08" y="388.44" width="117.17" height="19.53" rx="6" ry="6"/><rect class="cls-2" x="35.08" y="388.44" width="117.17" height="19.53" rx="6" ry="6"/><rect class="cls-3" x="194.25" y="126.68" width="117.17" height="109.36" rx="6" ry="6"/><rect class="cls-2" x="194.25" y="126.68" width="117.17" height="109.36" rx="6" ry="6"/><rect class="cls-3" x="194.25" y="69.26" width="117.17" height="57.28" rx="6" ry="6"/><rect class="cls-2" x="194.25" y="69.26" width="117.17" height="57.28" rx="6" ry="6"/><path class="cls-1" d="M66.61,457.46a1,1,0,0,0-.35-.82A4.31,4.31,0,0,0,65,456a9.61,9.61,0,0,1-2.79-1.3,2.34,2.34,0,0,1-.91-2,2.47,2.47,0,0,1,1.06-2.05,5.1,5.1,0,0,1,5.47,0,2.62,2.62,0,0,1,1,2.27l0,0H66.54a1.25,1.25,0,0,0-.38-1,1.78,1.78,0,0,0-1.17-.32,1.51,1.51,0,0,0-1,.31,1,1,0,0,0-.36.77.83.83,0,0,0,.37.71,7.7,7.7,0,0,0,1.41.66,7.52,7.52,0,0,1,2.65,1.27,2.52,2.52,0,0,1,.9,2.05,2.41,2.41,0,0,1-1,2.08,4.59,4.59,0,0,1-2.75.75,5,5,0,0,1-2.9-.81,2.78,2.78,0,0,1-1.15-2.53l0-.05H63.4a1.58,1.58,0,0,0,.43,1.25,2,2,0,0,0,1.33.37,1.67,1.67,0,0,0,1.09-.29A.92.92,0,0,0,66.61,457.46Z"/><path class="cls-1" d="M69.78,456.32a3.93,3.93,0,0,1,1-2.75,3.89,3.89,0,0,1,5.34,0,4,4,0,0,1,1,2.75v.15a4,4,0,0,1-1,2.75,3.89,3.89,0,0,1-5.34,0,3.93,3.93,0,0,1-1-2.75Zm2.34.15a3,3,0,0,0,.29,1.47,1,1,0,0,0,1,.54,1,1,0,0,0,1-.54,3,3,0,0,0,.3-1.47v-.15a3,3,0,0,0-.3-1.46,1.17,1.17,0,0,0-2,0,3.08,3.08,0,0,0-.29,1.46Z"/><path class="cls-1" d="M78.56,460.13v-5.87H77.48v-1.62h1.08v-.77a2.53,2.53,0,0,1,.77-2,3.16,3.16,0,0,1,2.2-.7,3.27,3.27,0,0,1,.54,0c.18,0,.39.06.61.11l-.17,1.72-.34-.05-.35,0a1,1,0,0,0-.68.23.85.85,0,0,0-.24.65v.77h1.49v1.62H80.9v5.87Z"/><path class="cls-1" d="M85.82,450.78v1.86H87v1.62H85.82v3.44a.79.79,0,0,0,.16.57.57.57,0,0,0,.44.18h.29l.27-.06.16,1.73a4.54,4.54,0,0,1-.64.13,4.38,4.38,0,0,1-.67,0,2.33,2.33,0,0,1-1.75-.62,2.71,2.71,0,0,1-.6-2v-3.45h-1v-1.62h1v-1.86Z"/><path class="cls-1" d="M99.54,456.73l0,0a3.25,3.25,0,0,1-1,2.61,4.12,4.12,0,0,1-2.83.89,4,4,0,0,1-3-1.14,4.08,4.08,0,0,1-1.13-3V454a4.13,4.13,0,0,1,1.09-3,3.77,3.77,0,0,1,2.88-1.15,4.48,4.48,0,0,1,3,.89,3.21,3.21,0,0,1,1,2.6l0,0H97.28a1.82,1.82,0,0,0-.4-1.33,1.78,1.78,0,0,0-1.29-.4,1.36,1.36,0,0,0-1.21.63A3,3,0,0,0,94,454v2.12a2.8,2.8,0,0,0,.46,1.69,1.53,1.53,0,0,0,1.33.64,1.48,1.48,0,0,0,1.16-.4,2,2,0,0,0,.35-1.35Z"/><path class="cls-1" d="M100.4,456.32a4,4,0,0,1,.95-2.75,3.89,3.89,0,0,1,5.34,0,3.94,3.94,0,0,1,1,2.75v.15a3.94,3.94,0,0,1-1,2.75,3.89,3.89,0,0,1-5.34,0,4,4,0,0,1-.95-2.75Zm2.34.15a3.14,3.14,0,0,0,.29,1.47,1.19,1.19,0,0,0,2,0,3.17,3.17,0,0,0,.29-1.47v-.15a3.15,3.15,0,0,0-.29-1.46,1.18,1.18,0,0,0-2,0,3.21,3.21,0,0,0-.29,1.46Z"/><path class="cls-1" d="M112.58,458a.62.62,0,0,0-.31-.5,3.72,3.72,0,0,0-1.15-.39,4.47,4.47,0,0,1-2-.79,1.81,1.81,0,0,1-.67-1.48,2.09,2.09,0,0,1,.83-1.67,3.44,3.44,0,0,1,2.25-.69,3.89,3.89,0,0,1,2.38.66,2,2,0,0,1,.85,1.73l0,0H112.5a.92.92,0,0,0-.22-.67,1.15,1.15,0,0,0-1.34,0,.64.64,0,0,0-.25.52.62.62,0,0,0,.29.5,3.39,3.39,0,0,0,1.16.38,4.49,4.49,0,0,1,2,.8,1.86,1.86,0,0,1,.66,1.52,2,2,0,0,1-.9,1.66,3.87,3.87,0,0,1-2.37.66,3.56,3.56,0,0,1-2.42-.78,2.11,2.11,0,0,1-.84-1.73v0h2.12a.93.93,0,0,0,.32.77,1.42,1.42,0,0,0,.88.24,1.18,1.18,0,0,0,.71-.19A.61.61,0,0,0,112.58,458Z"/><path class="cls-1" d="M118.62,450.78v1.86h1.18v1.62h-1.18v3.44a.79.79,0,0,0,.16.57.56.56,0,0,0,.44.18h.28l.28-.06.16,1.73a4.85,4.85,0,0,1-.64.13,4.38,4.38,0,0,1-.67,0,2.32,2.32,0,0,1-1.75-.62,2.71,2.71,0,0,1-.6-2v-3.45h-1v-1.62h1v-1.86Z"/><path class="cls-1" d="M124.84,458a.64.64,0,0,0-.32-.5,3.63,3.63,0,0,0-1.14-.39,4.52,4.52,0,0,1-2-.79,1.8,1.8,0,0,1-.66-1.48,2.09,2.09,0,0,1,.83-1.67,3.4,3.4,0,0,1,2.25-.69,3.89,3.89,0,0,1,2.38.66,2,2,0,0,1,.84,1.73v0h-2.27a.92.92,0,0,0-.22-.67,1,1,0,0,0-.73-.23,1,1,0,0,0-.61.2.64.64,0,0,0-.25.52.6.6,0,0,0,.29.5,3.31,3.31,0,0,0,1.15.38,4.54,4.54,0,0,1,2,.8,1.86,1.86,0,0,1,.66,1.52,2,2,0,0,1-.9,1.66,3.91,3.91,0,0,1-2.37.66,3.54,3.54,0,0,1-2.42-.78,2.15,2.15,0,0,1-.85-1.73l0,0h2.11a.93.93,0,0,0,.33.77,1.37,1.37,0,0,0,.87.24,1.16,1.16,0,0,0,.71-.19A.59.59,0,0,0,124.84,458Z"/><path class="cls-1" d="M45.12,403.3V393.22H48.8a4.13,4.13,0,0,1,3,1.16,4,4,0,0,1,1.2,3v1.81a3.94,3.94,0,0,1-1.2,3,4.09,4.09,0,0,1-3,1.16ZM47.45,395v6.48H48.8a1.64,1.64,0,0,0,1.32-.65,2.63,2.63,0,0,0,.51-1.68v-1.83a2.64,2.64,0,0,0-.51-1.67A1.64,1.64,0,0,0,48.8,395Z"/><path class="cls-1" d="M57.56,403.45a3.46,3.46,0,0,1-2.67-1,3.65,3.65,0,0,1-1-2.6v-.27a4.22,4.22,0,0,1,.91-2.79,3.27,3.27,0,0,1,2.64-1.08,3.06,3.06,0,0,1,2.35.91,3.54,3.54,0,0,1,.83,2.48v1.23H56.36v0a1.43,1.43,0,0,0,.43.95,1.55,1.55,0,0,0,1.1.37,4.88,4.88,0,0,0,1.11-.11,8.62,8.62,0,0,0,1-.36l.56,1.43a4.46,4.46,0,0,1-1.31.59A6,6,0,0,1,57.56,403.45Zm-.09-6a1,1,0,0,0-.83.36,1.8,1.8,0,0,0-.31,1l0,0h2v-.18a1.52,1.52,0,0,0-.21-.88A.76.76,0,0,0,57.47,397.47Z"/><path class="cls-1" d="M64.35,400.21l.14.8h.05l.15-.81,1-4.4h2.45L65.7,403.3H63.32l-2.43-7.49h2.46Z"/><path class="cls-1" d="M72.07,403.45a3.49,3.49,0,0,1-2.67-1,3.65,3.65,0,0,1-1-2.6v-.27a4.16,4.16,0,0,1,.91-2.79A3.23,3.23,0,0,1,72,395.67a3.06,3.06,0,0,1,2.35.91,3.5,3.5,0,0,1,.84,2.48v1.23h-4.3v0a1.44,1.44,0,0,0,.44.95,1.51,1.51,0,0,0,1.09.37,5,5,0,0,0,1.12-.11,9.19,9.19,0,0,0,1-.36l.56,1.43a4.39,4.39,0,0,1-1.3.59A6.11,6.11,0,0,1,72.07,403.45Zm-.09-6a1,1,0,0,0-.83.36,1.8,1.8,0,0,0-.3,1v0h2v-.18a1.61,1.61,0,0,0-.2-.88A.79.79,0,0,0,72,397.47Z"/><path class="cls-1" d="M78.6,403.3H76.26V392.5H78.6Z"/><path class="cls-1" d="M79.73,399.49a3.92,3.92,0,0,1,1-2.75,3.87,3.87,0,0,1,5.34,0,4,4,0,0,1,1,2.75v.14a4,4,0,0,1-1,2.76,3.89,3.89,0,0,1-5.34,0,4,4,0,0,1-1-2.76Zm2.34.14a3.06,3.06,0,0,0,.29,1.48,1,1,0,0,0,1,.54,1,1,0,0,0,1-.54,3.05,3.05,0,0,0,.3-1.48v-.14a3.09,3.09,0,0,0-.3-1.47,1.05,1.05,0,0,0-1-.55,1,1,0,0,0-1,.56,3.06,3.06,0,0,0-.29,1.46Z"/><path class="cls-1" d="M94.94,399.72a4.51,4.51,0,0,1-.76,2.71,2.56,2.56,0,0,1-2.15,1,2.12,2.12,0,0,1-1-.21,2.2,2.2,0,0,1-.73-.6v3.54H88V395.81h2.21l.07.82a2.37,2.37,0,0,1,.74-.71,2,2,0,0,1,1-.25,2.49,2.49,0,0,1,2.15,1.08,4.73,4.73,0,0,1,.77,2.82Zm-2.33-.15a3.59,3.59,0,0,0-.28-1.52.93.93,0,0,0-.89-.58,1.34,1.34,0,0,0-.66.15,1.11,1.11,0,0,0-.44.42v3.13a1,1,0,0,0,.44.36,1.69,1.69,0,0,0,.68.12.92.92,0,0,0,.88-.51,3.09,3.09,0,0,0,.27-1.42Z"/><path class="cls-1" d="M99.29,403.45a3.49,3.49,0,0,1-2.67-1,3.65,3.65,0,0,1-1-2.6v-.27a4.16,4.16,0,0,1,.91-2.79,3.23,3.23,0,0,1,2.63-1.08,3.06,3.06,0,0,1,2.35.91,3.49,3.49,0,0,1,.83,2.48v1.23H98.09v0a1.44,1.44,0,0,0,.44.95,1.51,1.51,0,0,0,1.09.37,5,5,0,0,0,1.12-.11,9.19,9.19,0,0,0,1-.36l.56,1.43a4.39,4.39,0,0,1-1.3.59A6.11,6.11,0,0,1,99.29,403.45Zm-.09-6a1,1,0,0,0-.83.36,1.8,1.8,0,0,0-.3,1v0h2v-.18a1.61,1.61,0,0,0-.2-.88A.79.79,0,0,0,99.2,397.47Z"/><path class="cls-1" d="M107.51,397.81h-.76a1.29,1.29,0,0,0-.66.15,1,1,0,0,0-.38.42v4.93h-2.34v-7.49h2.21l.08,1.1a2.19,2.19,0,0,1,.62-.91,1.36,1.36,0,0,1,.91-.33l.28,0,.26.07Z"/><path class="cls-1" d="M110.77,395.26l-.7,1.73h-1.16v-3.77h1.86Z"/><path class="cls-1" d="M115.74,401.2a.61.61,0,0,0-.31-.5,3.72,3.72,0,0,0-1.15-.39,4.47,4.47,0,0,1-2-.79,1.81,1.81,0,0,1-.67-1.48,2.12,2.12,0,0,1,.83-1.68,3.44,3.44,0,0,1,2.25-.69,3.89,3.89,0,0,1,2.38.67,2,2,0,0,1,.85,1.73v0h-2.27a.91.91,0,0,0-.23-.67,1.15,1.15,0,0,0-1.34,0,.65.65,0,0,0-.25.51.62.62,0,0,0,.29.51,3.22,3.22,0,0,0,1.16.37,4.6,4.6,0,0,1,2,.81,1.84,1.84,0,0,1,.66,1.52,2,2,0,0,1-.9,1.66,3.87,3.87,0,0,1-2.37.66,3.51,3.51,0,0,1-2.41-.78,2.11,2.11,0,0,1-.85-1.73v0h2.12a1,1,0,0,0,.32.77,1.49,1.49,0,0,0,.88.23,1.18,1.18,0,0,0,.71-.18A.62.62,0,0,0,115.74,401.2Z"/><path class="cls-1" d="M128.79,399.24H125.1v4.06h-2.34V393.22h6.73V395H125.1v2.43h3.69Z"/><path class="cls-1" d="M133.71,403.45a3.46,3.46,0,0,1-2.67-1,3.65,3.65,0,0,1-1-2.6v-.27a4.22,4.22,0,0,1,.91-2.79,3.27,3.27,0,0,1,2.64-1.08,3.06,3.06,0,0,1,2.35.91,3.54,3.54,0,0,1,.83,2.48v1.23h-4.29v0a1.43,1.43,0,0,0,.43.95,1.55,1.55,0,0,0,1.1.37,4.88,4.88,0,0,0,1.11-.11,8,8,0,0,0,1-.36l.56,1.43a4.27,4.27,0,0,1-1.3.59A6,6,0,0,1,133.71,403.45Zm-.09-6a1,1,0,0,0-.83.36,1.8,1.8,0,0,0-.31,1l0,0h2v-.18a1.52,1.52,0,0,0-.21-.88A.77.77,0,0,0,133.62,397.47Z"/><path class="cls-1" d="M141.11,403.45a3.49,3.49,0,0,1-2.67-1,3.65,3.65,0,0,1-1-2.6v-.27a4.16,4.16,0,0,1,.91-2.79,3.25,3.25,0,0,1,2.63-1.08,3,3,0,0,1,2.35.91,3.5,3.5,0,0,1,.84,2.48v1.23h-4.29l0,0a1.44,1.44,0,0,0,.44.95,1.53,1.53,0,0,0,1.09.37,5,5,0,0,0,1.12-.11,8,8,0,0,0,1-.36l.56,1.43a4.39,4.39,0,0,1-1.3.59A6.11,6.11,0,0,1,141.11,403.45Zm-.09-6a.94.94,0,0,0-.82.36,1.8,1.8,0,0,0-.31,1v0h2v-.18a1.61,1.61,0,0,0-.2-.88A.79.79,0,0,0,141,397.47Z"/><path class="cls-1" d="M43.73,428.39h4.32v1.8H41.39V420.12h2.34Z"/><path class="cls-1" d="M53.49,430.18a2.92,2.92,0,0,1-.22-.53,4,4,0,0,1-.14-.62,3,3,0,0,1-.75,1,1.82,1.82,0,0,1-1.17.36,2.58,2.58,0,0,1-1.83-.61,2.11,2.11,0,0,1-.65-1.65,2,2,0,0,1,.83-1.72,4.39,4.39,0,0,1,2.54-.6h1v-.54a1.06,1.06,0,0,0-.23-.73.91.91,0,0,0-.7-.26.89.89,0,0,0-.61.19.81.81,0,0,0-.2.59H49.07l0,0a2,2,0,0,1,.86-1.72,3.86,3.86,0,0,1,2.38-.68,3.47,3.47,0,0,1,2.25.69,2.37,2.37,0,0,1,.86,2v2.82a6.36,6.36,0,0,0,.1,1.11,5.67,5.67,0,0,0,.31,1Zm-1.64-1.51a1.49,1.49,0,0,0,.76-.2,1.23,1.23,0,0,0,.46-.48v-1h-1a1.07,1.07,0,0,0-.81.27,1,1,0,0,0-.24.69.66.66,0,0,0,.21.51A.84.84,0,0,0,51.85,428.67Z"/><path class="cls-1" d="M58.84,422.7l.09,1.06a2.61,2.61,0,0,1,.9-.88,2.34,2.34,0,0,1,1.21-.31,2.12,2.12,0,0,1,1.72.74,3.73,3.73,0,0,1,.62,2.38v4.5H61v-4.51a1.71,1.71,0,0,0-.23-1,.78.78,0,0,0-.66-.31,1.65,1.65,0,0,0-.68.14,1.28,1.28,0,0,0-.49.37v5.32H56.64V422.7Z"/><path class="cls-1" d="M64.34,426.46a4.73,4.73,0,0,1,.76-2.82,2.48,2.48,0,0,1,2.16-1.07,1.85,1.85,0,0,1,.94.23,2.43,2.43,0,0,1,.75.69V419.4h2.34v10.79H69.24l-.16-.91a2.55,2.55,0,0,1-.79.78,1.91,1.91,0,0,1-1,.28,2.51,2.51,0,0,1-2.15-1,4.39,4.39,0,0,1-.76-2.7Zm2.34.15A3.06,3.06,0,0,0,67,428a.91.91,0,0,0,.89.51,1.48,1.48,0,0,0,.65-.14A1.23,1.23,0,0,0,69,428v-3a1.27,1.27,0,0,0-.46-.46,1.32,1.32,0,0,0-.64-.16.93.93,0,0,0-.89.58,3.44,3.44,0,0,0-.28,1.52Z"/><path class="cls-1" d="M81.56,428.23h-3l-.58,2H75.52l3.28-10.07h2.52l3.29,10.07H82.15Zm-2.46-1.8H81l-.94-3.12h0Z"/><path class="cls-1" d="M88.39,428.54a1,1,0,0,0,.72-.26,1.14,1.14,0,0,0,.23-.75h2.13l0,0a2.48,2.48,0,0,1-.85,2,3.74,3.74,0,0,1-4.88-.29,4,4,0,0,1-.92-2.75v-.16a4,4,0,0,1,.92-2.75,3.3,3.3,0,0,1,2.62-1.05,3.21,3.21,0,0,1,2.28.79,2.73,2.73,0,0,1,.83,2.17l0,0H89.34a1.45,1.45,0,0,0-.24-.87.84.84,0,0,0-.72-.34,1,1,0,0,0-.94.55,3.31,3.31,0,0,0-.27,1.46v.16a3.34,3.34,0,0,0,.27,1.48A1,1,0,0,0,88.39,428.54Z"/><path class="cls-1" d="M92.13,426.46a4.73,4.73,0,0,1,.77-2.82,2.48,2.48,0,0,1,2.15-1.07,1.91,1.91,0,0,1,1,.28,2.45,2.45,0,0,1,.78.79l.18-.94h2v10.37H96.75V429.5a2.12,2.12,0,0,1-.75.62,2,2,0,0,1-1,.22,2.52,2.52,0,0,1-2.15-1,4.46,4.46,0,0,1-.76-2.7Zm2.34.15a3.06,3.06,0,0,0,.27,1.42.92.92,0,0,0,.89.51,1.71,1.71,0,0,0,.67-.12,1.07,1.07,0,0,0,.45-.37v-3.11a1.23,1.23,0,0,0-.45-.43,1.33,1.33,0,0,0-.65-.15.93.93,0,0,0-.9.58,3.44,3.44,0,0,0-.28,1.52Z"/><path class="cls-1" d="M104.92,429.07a2.45,2.45,0,0,1-.86.94,2.44,2.44,0,0,1-3-.49,4,4,0,0,1-.66-2.53V422.7h2.34V427a2.26,2.26,0,0,0,.22,1.2.78.78,0,0,0,.7.33,1.8,1.8,0,0,0,.65-.11,1.25,1.25,0,0,0,.49-.31V422.7h2.34v7.49h-1.88Z"/><path class="cls-1" d="M110.83,421h-2.35V419.4h2.35Zm0,9.22h-2.35V422.7h2.35Z"/><path class="cls-1" d="M116.16,428.09a.61.61,0,0,0-.31-.5,3.72,3.72,0,0,0-1.15-.39,4.47,4.47,0,0,1-2-.79,1.81,1.81,0,0,1-.67-1.48,2.12,2.12,0,0,1,.83-1.68,3.49,3.49,0,0,1,2.25-.68,3.89,3.89,0,0,1,2.38.66,2,2,0,0,1,.85,1.73v0h-2.28a.92.92,0,0,0-.22-.67,1.15,1.15,0,0,0-1.34,0,.66.66,0,0,0-.25.51.62.62,0,0,0,.29.51,3.22,3.22,0,0,0,1.16.37,4.6,4.6,0,0,1,2,.81,1.84,1.84,0,0,1,.66,1.52,2,2,0,0,1-.9,1.66,3.87,3.87,0,0,1-2.37.66,3.51,3.51,0,0,1-2.41-.78,2.1,2.1,0,0,1-.85-1.73v0H114a1,1,0,0,0,.32.77,1.42,1.42,0,0,0,.88.23,1.18,1.18,0,0,0,.71-.18A.62.62,0,0,0,116.16,428.09Z"/><path class="cls-1" d="M122,421h-2.34V419.4H122Zm0,9.22h-2.34V422.7H122Z"/><path class="cls-1" d="M126.08,420.84v1.86h1.18v1.62h-1.18v3.44a.81.81,0,0,0,.16.57.57.57,0,0,0,.44.18H127l.27-.06.16,1.73c-.23.06-.45.1-.64.13a6,6,0,0,1-.67,0,2.33,2.33,0,0,1-1.75-.62,2.71,2.71,0,0,1-.6-2v-3.45h-1V422.7h1v-1.86Z"/><path class="cls-1" d="M130.85,421H128.5V419.4h2.35Zm0,9.22H128.5V422.7h2.35Z"/><path class="cls-1" d="M132,426.38a4,4,0,0,1,.95-2.75,3.89,3.89,0,0,1,5.34,0,3.93,3.93,0,0,1,1,2.75v.14a4,4,0,0,1-1,2.76,3.89,3.89,0,0,1-5.34,0,4,4,0,0,1-.95-2.76Zm2.34.14a3.19,3.19,0,0,0,.29,1.48,1,1,0,0,0,1,.54,1,1,0,0,0,1-.54,3.05,3.05,0,0,0,.3-1.48v-.14a3.09,3.09,0,0,0-.3-1.47,1.16,1.16,0,0,0-2,0,3.18,3.18,0,0,0-.29,1.46Z"/><path class="cls-1" d="M142.4,422.7l.09,1.06a2.64,2.64,0,0,1,.91-.88,2.31,2.31,0,0,1,1.2-.31,2.1,2.1,0,0,1,1.72.74,3.73,3.73,0,0,1,.62,2.38v4.5H144.6v-4.51a1.71,1.71,0,0,0-.23-1,.78.78,0,0,0-.66-.31,1.57,1.57,0,0,0-.67.14,1.24,1.24,0,0,0-.5.37v5.32h-2.33V422.7Z"/><path class="cls-1" d="M61.47,516.11l0,0a3.22,3.22,0,0,1-1,2.61,4.12,4.12,0,0,1-2.83.89,3.9,3.9,0,0,1-4.13-4.13v-2.1a4.14,4.14,0,0,1,1.09-3,3.82,3.82,0,0,1,2.88-1.15,4.43,4.43,0,0,1,3,.9,3.13,3.13,0,0,1,1,2.59l0,0H59.21a1.87,1.87,0,0,0-.39-1.33,1.82,1.82,0,0,0-1.3-.4,1.36,1.36,0,0,0-1.21.64,3,3,0,0,0-.42,1.68v2.12a2.8,2.8,0,0,0,.46,1.69,1.53,1.53,0,0,0,1.33.64,1.47,1.47,0,0,0,1.16-.4,2,2,0,0,0,.36-1.34Z"/><path class="cls-1" d="M62.33,515.69a4,4,0,0,1,1-2.75,3.88,3.88,0,0,1,5.33,0,4,4,0,0,1,1,2.75v.15a3.92,3.92,0,0,1-1,2.75,3.88,3.88,0,0,1-5.33,0,3.92,3.92,0,0,1-1-2.75Zm2.34.15a3.11,3.11,0,0,0,.29,1.47,1.19,1.19,0,0,0,2,0,3,3,0,0,0,.3-1.47v-.15a3,3,0,0,0-.3-1.46,1.18,1.18,0,0,0-2,0,3.21,3.21,0,0,0-.29,1.46Z"/><path class="cls-1" d="M72.76,512l.09,1.05a2.82,2.82,0,0,1,.91-.88,2.33,2.33,0,0,1,1.2-.31,2.1,2.1,0,0,1,1.72.75A3.7,3.7,0,0,1,77.3,515v4.51H75V515a1.65,1.65,0,0,0-.23-1,.77.77,0,0,0-.66-.3,1.6,1.6,0,0,0-.67.13,1.34,1.34,0,0,0-.5.37v5.33H70.57V512Z"/><path class="cls-1" d="M82.48,517.4a.61.61,0,0,0-.32-.49,3.18,3.18,0,0,0-1.14-.39,4.57,4.57,0,0,1-2-.8,1.79,1.79,0,0,1-.66-1.47,2.12,2.12,0,0,1,.83-1.68,3.4,3.4,0,0,1,2.25-.69,3.82,3.82,0,0,1,2.38.67,2,2,0,0,1,.85,1.72l0,0H82.4a.93.93,0,0,0-.22-.67,1,1,0,0,0-.73-.22.9.9,0,0,0-.61.2.61.61,0,0,0-.25.51.58.58,0,0,0,.29.5A3.11,3.11,0,0,0,82,515a4.79,4.79,0,0,1,2,.8,1.86,1.86,0,0,1,.66,1.52,2,2,0,0,1-.9,1.67,4,4,0,0,1-2.37.65,3.58,3.58,0,0,1-2.42-.77,2.19,2.19,0,0,1-.85-1.74l0,0h2.12a.89.89,0,0,0,.32.77,1.37,1.37,0,0,0,.87.24,1.14,1.14,0,0,0,.72-.19A.61.61,0,0,0,82.48,517.4Z"/><path class="cls-1" d="M88.51,510.16V512H89.7v1.62H88.51v3.43a.89.89,0,0,0,.16.58.6.6,0,0,0,.44.17h.29l.27-.06.16,1.73a4.43,4.43,0,0,1-.63.13,4.38,4.38,0,0,1-.67,0,2.32,2.32,0,0,1-1.76-.62,2.71,2.71,0,0,1-.6-1.95v-3.44h-1V512h1v-1.86Z"/><path class="cls-1" d="M95,514h-.76a1.29,1.29,0,0,0-.66.15.91.91,0,0,0-.38.42v4.94H90.83V512H93l.09,1.1a2.23,2.23,0,0,1,.62-.92,1.4,1.4,0,0,1,.9-.32l.29,0,.26.06Z"/><path class="cls-1" d="M100.34,518.38a2.45,2.45,0,0,1-.86.94,2.25,2.25,0,0,1-1.22.33,2.22,2.22,0,0,1-1.83-.82,4,4,0,0,1-.66-2.52V512h2.34v4.3a2.3,2.3,0,0,0,.22,1.21.8.8,0,0,0,.7.32,1.89,1.89,0,0,0,.65-.1,1.46,1.46,0,0,0,.49-.31V512h2.34v7.49h-1.89Z"/><path class="cls-1" d="M107,517.85a.92.92,0,0,0,.71-.26,1.06,1.06,0,0,0,.24-.75h2.13v0a2.45,2.45,0,0,1-.85,2,3.74,3.74,0,0,1-4.87-.28,4,4,0,0,1-.93-2.76v-.16a4,4,0,0,1,.92-2.74,3.29,3.29,0,0,1,2.62-1.06,3.2,3.2,0,0,1,2.28.79,2.73,2.73,0,0,1,.83,2.17v0H108a1.42,1.42,0,0,0-.25-.87.83.83,0,0,0-.72-.33,1,1,0,0,0-.94.54,3.31,3.31,0,0,0-.27,1.46v.16a3.34,3.34,0,0,0,.27,1.48A1,1,0,0,0,107,517.85Z"/><path class="cls-1" d="M113.73,510.16V512h1.19v1.62h-1.19v3.43a.89.89,0,0,0,.16.58.6.6,0,0,0,.44.17h.29l.27-.06.16,1.73a4.57,4.57,0,0,1-1.3.17A2.32,2.32,0,0,1,112,519a2.71,2.71,0,0,1-.6-1.95v-3.44h-1V512h1v-1.86Z"/><path class="cls-1" d="M118.5,510.28h-2.34v-1.57h2.34Zm0,9.23h-2.34V512h2.34Z"/><path class="cls-1" d="M119.62,515.69a4,4,0,0,1,1-2.75,3.88,3.88,0,0,1,5.33,0,4,4,0,0,1,1,2.75v.15a3.92,3.92,0,0,1-1,2.75,3.36,3.36,0,0,1-2.65,1.06,3.4,3.4,0,0,1-2.68-1.06,3.92,3.92,0,0,1-1-2.75Zm2.34.15a3,3,0,0,0,.3,1.47,1.18,1.18,0,0,0,2,0,3,3,0,0,0,.3-1.47v-.15a3,3,0,0,0-.3-1.46,1,1,0,0,0-1-.55,1,1,0,0,0-1,.55,3.08,3.08,0,0,0-.3,1.46Z"/><path class="cls-1" d="M130.05,512l.09,1.05a2.82,2.82,0,0,1,.91-.88,2.33,2.33,0,0,1,1.2-.31,2.1,2.1,0,0,1,1.72.75,3.64,3.64,0,0,1,.62,2.37v4.51h-2.34V515a1.65,1.65,0,0,0-.23-1,.77.77,0,0,0-.66-.3,1.6,1.6,0,0,0-.67.13,1.34,1.34,0,0,0-.5.37v5.33h-2.33V512Z"/><path class="cls-4" d="M57.22,136.33v3.86H54.89V130.11h3.5a4.36,4.36,0,0,1,2.78.81,2.68,2.68,0,0,1,1,2.22,2.16,2.16,0,0,1-.41,1.34,2.89,2.89,0,0,1-1.21.91,2.26,2.26,0,0,1,1.33.88,2.72,2.72,0,0,1,.4,1.53v.63a3.85,3.85,0,0,0,.12.9,1.2,1.2,0,0,0,.41.72v.14H60.42a1.07,1.07,0,0,1-.36-.75,6.22,6.22,0,0,1-.09-1v-.61a1.46,1.46,0,0,0-.38-1.1,1.51,1.51,0,0,0-1.11-.38Zm0-1.8h1.19a1.64,1.64,0,0,0,1.08-.32,1.16,1.16,0,0,0,.37-.93,1.34,1.34,0,0,0-.38-1,1.5,1.5,0,0,0-1.09-.38H57.22Z"/><path class="cls-4" d="M67.11,140.34a3.49,3.49,0,0,1-2.67-1,3.7,3.7,0,0,1-1-2.61v-.27a4.22,4.22,0,0,1,.91-2.79A3.27,3.27,0,0,1,67,132.56a3.06,3.06,0,0,1,2.35.91A3.57,3.57,0,0,1,70.2,136v1.22H65.91v0a1.43,1.43,0,0,0,.43.95,1.51,1.51,0,0,0,1.1.37,4.88,4.88,0,0,0,1.11-.11,8,8,0,0,0,1-.36l.57,1.43a4.46,4.46,0,0,1-1.31.59A5.66,5.66,0,0,1,67.11,140.34Zm-.09-6a1,1,0,0,0-.83.36,1.8,1.8,0,0,0-.31,1l0,0h2v-.18a1.52,1.52,0,0,0-.21-.88A.77.77,0,0,0,67,134.36Z"/><path class="cls-4" d="M73.34,132.7l.09,1.05a2.79,2.79,0,0,1,.91-.87,2.34,2.34,0,0,1,1.2-.32,2.1,2.1,0,0,1,1.72.75,3.67,3.67,0,0,1,.62,2.38v4.5H75.54v-4.51a1.77,1.77,0,0,0-.22-1,.81.81,0,0,0-.67-.3,1.6,1.6,0,0,0-.67.14,1.31,1.31,0,0,0-.5.37v5.32H71.15V132.7Z"/><path class="cls-4" d="M81.84,130.84v1.86H83v1.62H81.84v3.44a.86.86,0,0,0,.16.57.57.57,0,0,0,.44.18h.29l.27-.06.16,1.73c-.23.06-.44.1-.63.13a6.36,6.36,0,0,1-.67,0,2.34,2.34,0,0,1-1.76-.62,2.71,2.71,0,0,1-.6-1.95v-3.45h-1V132.7h1v-1.86Z"/><path class="cls-4" d="M90.31,140.19H88V130.11h2.34Z"/><path class="cls-4" d="M94.07,132.7l.09,1.05a2.79,2.79,0,0,1,.91-.87,2.34,2.34,0,0,1,1.2-.32,2.11,2.11,0,0,1,1.72.75,3.73,3.73,0,0,1,.62,2.38v4.5H96.27v-4.51a1.69,1.69,0,0,0-.23-1,.77.77,0,0,0-.66-.3,1.6,1.6,0,0,0-.67.14,1.24,1.24,0,0,0-.5.37v5.32H91.88V132.7Z"/><path class="cls-4" d="M103.09,138.54a.92.92,0,0,0,.71-.26,1.09,1.09,0,0,0,.24-.75h2.13v0a2.43,2.43,0,0,1-.85,2,3.23,3.23,0,0,1-2.24.78,3.31,3.31,0,0,1-2.63-1.06,4,4,0,0,1-.93-2.75v-.16a4.08,4.08,0,0,1,.92-2.75,3.32,3.32,0,0,1,2.62-1.06,3.2,3.2,0,0,1,2.28.8,2.73,2.73,0,0,1,.83,2.17v0H104a1.38,1.38,0,0,0-.25-.87.84.84,0,0,0-.72-.34,1,1,0,0,0-.94.55,3.31,3.31,0,0,0-.27,1.46v.16a3.27,3.27,0,0,0,.27,1.47A1,1,0,0,0,103.09,138.54Z"/><path class="cls-4" d="M106.83,136.38a3.93,3.93,0,0,1,1-2.75,3.87,3.87,0,0,1,5.34,0,4,4,0,0,1,.95,2.75v.14a4,4,0,0,1-.95,2.76,3.89,3.89,0,0,1-5.34,0,4,4,0,0,1-1-2.76Zm2.34.14a3.06,3.06,0,0,0,.29,1.48,1,1,0,0,0,1,.54,1,1,0,0,0,1-.54,3.05,3.05,0,0,0,.3-1.48v-.14a3.09,3.09,0,0,0-.3-1.47,1.05,1.05,0,0,0-1-.55,1,1,0,0,0-1,.56,3.06,3.06,0,0,0-.29,1.46Z"/><path class="cls-4" d="M117.3,132.7l.09,1a2.45,2.45,0,0,1,2.11-1.13,2.34,2.34,0,0,1,1.21.31,1.87,1.87,0,0,1,.76.93,2.43,2.43,0,0,1,.89-.91,2.38,2.38,0,0,1,1.27-.33,2.1,2.1,0,0,1,1.72.79,3.83,3.83,0,0,1,.62,2.42v4.42h-2.34v-4.42a2,2,0,0,0-.23-1.11.78.78,0,0,0-.67-.3,1.4,1.4,0,0,0-.6.12,1.48,1.48,0,0,0-.44.34,1.15,1.15,0,0,0,0,.2c0,.06,0,.12,0,.17v5h-2.34v-4.42a2,2,0,0,0-.23-1.11.78.78,0,0,0-.68-.3,1.37,1.37,0,0,0-.58.12,1.48,1.48,0,0,0-.44.34v5.37H115.1V132.7Z"/><path class="cls-4" d="M130.63,140.34a3.52,3.52,0,0,1-2.67-1,3.69,3.69,0,0,1-1-2.61v-.27a4.16,4.16,0,0,1,.91-2.79,3.25,3.25,0,0,1,2.63-1.08,3,3,0,0,1,2.35.91,3.52,3.52,0,0,1,.84,2.49v1.22h-4.29l0,0a1.44,1.44,0,0,0,.44.95,1.48,1.48,0,0,0,1.09.37,5,5,0,0,0,1.12-.11,8,8,0,0,0,1-.36l.56,1.43a4.39,4.39,0,0,1-1.3.59A5.77,5.77,0,0,1,130.63,140.34Zm-.09-6a.94.94,0,0,0-.82.36,1.8,1.8,0,0,0-.31,1v0h2v-.18a1.61,1.61,0,0,0-.2-.88A.79.79,0,0,0,130.54,134.36Z"/><path class="cls-4" d="M62,153.11a9.31,9.31,0,0,1,1.1-4.66,6.38,6.38,0,0,1,2.32-2.57h0l.26.81a5.89,5.89,0,0,0-1.65,2.37,10.2,10.2,0,0,0-.7,4v.08a10.2,10.2,0,0,0,.7,4,6.36,6.36,0,0,0,1.65,2.44l-.26.74h0a6.38,6.38,0,0,1-2.32-2.57,9.29,9.29,0,0,1-1.1-4.66Z"/><path class="cls-4" d="M69.91,157.34a3.17,3.17,0,0,1-2.52-1,4,4,0,0,1-.9-2.71v-.3a3.88,3.88,0,0,1,.93-2.67,2.91,2.91,0,0,1,2.28-1.06,2.7,2.7,0,0,1,2.25.94A3.84,3.84,0,0,1,72.7,153v.72H67.91l0,0a3.12,3.12,0,0,0,.5,1.83,1.76,1.76,0,0,0,1.52.7,3.51,3.51,0,0,0,1.22-.2,2.76,2.76,0,0,0,.89-.54l.53.88a3.26,3.26,0,0,1-1,.66A4.21,4.21,0,0,1,69.91,157.34Zm-.21-6.7a1.49,1.49,0,0,0-1.18.55A2.49,2.49,0,0,0,68,152.6v0h3.38v-.11a2.15,2.15,0,0,0-.41-1.35A1.43,1.43,0,0,0,69.7,150.64Z"/><path class="cls-4" d="M76.77,152.47l1.59-2.76H80l-2.43,3.7L80,157.2H78.46l-1.66-2.83-1.66,2.83H73.56l2.5-3.79-2.43-3.7H75.2Z"/><path class="cls-4" d="M84.19,156.28a1.59,1.59,0,0,0,1.1-.42,1.3,1.3,0,0,0,.47-1H87l0,0a2.15,2.15,0,0,1-.83,1.72,2.94,2.94,0,0,1-2,.75,2.91,2.91,0,0,1-2.43-1.07,4.13,4.13,0,0,1-.86-2.67v-.29a4.14,4.14,0,0,1,.86-2.66,3,3,0,0,1,2.43-1.08,2.84,2.84,0,0,1,2.06.78,2.45,2.45,0,0,1,.77,1.9l0,0H85.76a1.63,1.63,0,0,0-.44-1.16,1.48,1.48,0,0,0-1.13-.49,1.58,1.58,0,0,0-1.46.78,3.63,3.63,0,0,0-.46,1.89v.29a3.71,3.71,0,0,0,.45,1.9A1.59,1.59,0,0,0,84.19,156.28Z"/><path class="cls-4" d="M90.11,157.2H88.75V146.4h1.36Z"/><path class="cls-4" d="M97,156.09a2.59,2.59,0,0,1-.9.93,2.46,2.46,0,0,1-1.28.32,2.39,2.39,0,0,1-1.91-.78,3.6,3.6,0,0,1-.69-2.43v-4.42h1.36v4.43a2.75,2.75,0,0,0,.36,1.65,1.3,1.3,0,0,0,1.1.45,2.23,2.23,0,0,0,1.2-.3,1.81,1.81,0,0,0,.71-.83v-5.4h1.37v7.49H97.05Z"/><path class="cls-4" d="M100,153.59a5,5,0,0,1,.77-2.91,2.5,2.5,0,0,1,2.17-1.11,2.67,2.67,0,0,1,1.16.24,2.48,2.48,0,0,1,.87.71V146.4h1.37v10.8h-1.05l-.21-.95a2.43,2.43,0,0,1-.9.82,2.78,2.78,0,0,1-1.26.27,2.56,2.56,0,0,1-2.14-1,4.1,4.1,0,0,1-.78-2.61Zm1.37.15a3.19,3.19,0,0,0,.46,1.82,1.63,1.63,0,0,0,1.44.68,1.8,1.8,0,0,0,1-.28,1.93,1.93,0,0,0,.68-.78v-3.49a2.11,2.11,0,0,0-.68-.74,1.81,1.81,0,0,0-1-.27,1.56,1.56,0,0,0-1.45.81,4.19,4.19,0,0,0-.46,2.1Z"/><path class="cls-4" d="M109.79,147.79h-1.36V146.4h1.36Zm0,9.41h-1.36v-7.49h1.36Z"/><path class="cls-4" d="M113.11,149.71l.1,1.11a2.82,2.82,0,0,1,.93-.92,2.53,2.53,0,0,1,1.29-.33,2.45,2.45,0,0,1,1.87.71,3.07,3.07,0,0,1,.67,2.19v4.73H116.6v-4.7a2,2,0,0,0-.39-1.4,1.55,1.55,0,0,0-1.19-.42,2.09,2.09,0,0,0-1.07.25,1.91,1.91,0,0,0-.7.71v5.56h-1.36v-7.49Z"/><path class="cls-4" d="M119.7,153.59a5,5,0,0,1,.78-2.91,2.47,2.47,0,0,1,2.15-1.11,2.62,2.62,0,0,1,1.25.29,2.49,2.49,0,0,1,.91.83l.17-1H126v7.53a2.87,2.87,0,0,1-.83,2.21,3.43,3.43,0,0,1-2.42.77,4.93,4.93,0,0,1-1.16-.15,4.66,4.66,0,0,1-1.11-.4l.21-1.06a4,4,0,0,0,1,.34,5.22,5.22,0,0,0,1.1.12,2,2,0,0,0,1.45-.45,1.88,1.88,0,0,0,.45-1.38v-.85a2.41,2.41,0,0,1-.88.71,2.73,2.73,0,0,1-1.18.24,2.55,2.55,0,0,1-2.14-1,4.1,4.1,0,0,1-.78-2.61Zm1.37.15a3.15,3.15,0,0,0,.46,1.81,1.61,1.61,0,0,0,1.43.69,1.87,1.87,0,0,0,1-.28,2.16,2.16,0,0,0,.68-.8v-3.44A2.18,2.18,0,0,0,124,151a1.79,1.79,0,0,0-1-.28,1.55,1.55,0,0,0-1.44.81,4.08,4.08,0,0,0-.47,2.1Z"/><path class="cls-4" d="M68.86,172l.12.52h0l.13-.52,1.73-5.28h1.39l-2.76,7.49h-1l-2.79-7.49h1.4Z"/><path class="cls-4" d="M78,174.21c0-.23-.08-.43-.11-.6a4.73,4.73,0,0,1,0-.52,3.35,3.35,0,0,1-1,.9,2.51,2.51,0,0,1-1.31.36,2.47,2.47,0,0,1-1.79-.6,2.24,2.24,0,0,1-.61-1.65,2,2,0,0,1,.87-1.68,4.1,4.1,0,0,1,2.36-.6h1.48v-.74a1.39,1.39,0,0,0-.4-1,1.58,1.58,0,0,0-1.14-.39,1.65,1.65,0,0,0-1.07.33,1,1,0,0,0-.41.8H73.53l0,0a1.8,1.8,0,0,1,.77-1.49,3.17,3.17,0,0,1,2.1-.68,3.11,3.11,0,0,1,2.05.65,2.3,2.3,0,0,1,.77,1.86v3.61a6.4,6.4,0,0,0,0,.77,3.76,3.76,0,0,0,.16.74Zm-2.26-1a2.43,2.43,0,0,0,1.33-.38,1.82,1.82,0,0,0,.78-.87v-1.22H76.31a2,2,0,0,0-1.32.41,1.25,1.25,0,0,0-.49,1,1,1,0,0,0,.31.79A1.3,1.3,0,0,0,75.73,173.21Z"/><path class="cls-4" d="M84.16,173.29a1.61,1.61,0,0,0,1.1-.42,1.33,1.33,0,0,0,.47-1H87l0,0a2.15,2.15,0,0,1-.83,1.72,3.18,3.18,0,0,1-4.43-.32,4.17,4.17,0,0,1-.86-2.67v-.29a4.12,4.12,0,0,1,.86-2.66,3,3,0,0,1,2.44-1.08,2.85,2.85,0,0,1,2,.77,2.48,2.48,0,0,1,.77,1.91v0H85.73a1.65,1.65,0,0,0-.45-1.17,1.47,1.47,0,0,0-1.12-.48,1.59,1.59,0,0,0-1.47.78,3.73,3.73,0,0,0-.46,1.89v.29a3.64,3.64,0,0,0,.46,1.9A1.57,1.57,0,0,0,84.16,173.29Z"/><path class="cls-4" d="M93.2,174.21c0-.23-.08-.43-.11-.6a4.73,4.73,0,0,1,0-.52,3.31,3.31,0,0,1-1,.9,2.57,2.57,0,0,1-1.32.36,2.43,2.43,0,0,1-1.78-.6,2.2,2.2,0,0,1-.62-1.65,2,2,0,0,1,.87-1.68,4.1,4.1,0,0,1,2.36-.6h1.48v-.74a1.35,1.35,0,0,0-.4-1,1.58,1.58,0,0,0-1.14-.39,1.65,1.65,0,0,0-1.07.33,1,1,0,0,0-.41.8H88.74l0,0a1.8,1.8,0,0,1,.77-1.49,3.17,3.17,0,0,1,2.1-.68,3.11,3.11,0,0,1,2,.65,2.27,2.27,0,0,1,.77,1.86v3.61a6.36,6.36,0,0,0,0,.77,3.14,3.14,0,0,0,.15.74Zm-2.26-1a2.43,2.43,0,0,0,1.33-.38,1.82,1.82,0,0,0,.78-.87v-1.22H91.52a2,2,0,0,0-1.32.41,1.25,1.25,0,0,0-.49,1,1,1,0,0,0,.31.79A1.32,1.32,0,0,0,90.94,173.21Z"/><path class="cls-4" d="M97.61,166.72l.1,1.11a2.75,2.75,0,0,1,.94-.92,2.46,2.46,0,0,1,1.28-.33,2.43,2.43,0,0,1,1.87.71,3.07,3.07,0,0,1,.67,2.19v4.73h-1.36v-4.7a2,2,0,0,0-.4-1.41,1.57,1.57,0,0,0-1.19-.41,2.12,2.12,0,0,0-1.07.25,1.88,1.88,0,0,0-.69.71v5.56H96.39v-7.49Z"/><path class="cls-4" d="M107.42,173.29a1.59,1.59,0,0,0,1.1-.42,1.31,1.31,0,0,0,.48-1h1.23l0,0a2.15,2.15,0,0,1-.83,1.72,3.18,3.18,0,0,1-4.43-.32,4.17,4.17,0,0,1-.86-2.67v-.29a4.12,4.12,0,0,1,.86-2.66,3,3,0,0,1,2.43-1.08,2.87,2.87,0,0,1,2.06.77,2.48,2.48,0,0,1,.77,1.91l0,0H109a1.65,1.65,0,0,0-.45-1.17,1.47,1.47,0,0,0-1.13-.48,1.58,1.58,0,0,0-1.46.78,3.63,3.63,0,0,0-.46,1.89v.29a3.74,3.74,0,0,0,.45,1.9A1.59,1.59,0,0,0,107.42,173.29Z"/><path class="cls-4" d="M114.16,171.43l.24.94h0l1.84-5.65h1.52l-3.15,8.63a3.85,3.85,0,0,1-.81,1.32,1.9,1.9,0,0,1-1.43.56,2.43,2.43,0,0,1-.42,0,3.45,3.45,0,0,1-.4-.07l.14-1.07H112l.37,0a.83.83,0,0,0,.71-.39,3.47,3.47,0,0,0,.46-.85l.33-.79-2.78-7.33h1.52Z"/><path class="cls-4" d="M121.76,170.18a9.18,9.18,0,0,1-1.1,4.66,6.51,6.51,0,0,1-2.31,2.57h0l-.26-.75a5.85,5.85,0,0,0,1.64-2.39,10.46,10.46,0,0,0,.71-4.08v-.09a10,10,0,0,0-.73-4,6.83,6.83,0,0,0-1.62-2.43l.26-.75h0a6.48,6.48,0,0,1,2.31,2.58,9.21,9.21,0,0,1,1.1,4.66Z"/><path class="cls-3" d="M73.54,252.57H71.21V242.5h2.33Z"/><path class="cls-3" d="M77.31,245.08l.09,1.06a2.61,2.61,0,0,1,.9-.88,2.34,2.34,0,0,1,1.21-.31,2.12,2.12,0,0,1,1.72.74,3.73,3.73,0,0,1,.62,2.38v4.5H79.51v-4.51a1.71,1.71,0,0,0-.23-1,.78.78,0,0,0-.66-.31,1.65,1.65,0,0,0-.68.14,1.28,1.28,0,0,0-.49.37v5.32H75.11v-7.49Z"/><path class="cls-3" d="M86.32,250.92a1,1,0,0,0,.72-.26,1.14,1.14,0,0,0,.23-.75H89.4l0,0a2.49,2.49,0,0,1-.85,2,3.74,3.74,0,0,1-4.88-.29,4,4,0,0,1-.92-2.75v-.16a4,4,0,0,1,.92-2.75A3.3,3.3,0,0,1,86.31,245a3.21,3.21,0,0,1,2.28.79,2.73,2.73,0,0,1,.83,2.17l0,0H87.27a1.45,1.45,0,0,0-.24-.87.84.84,0,0,0-.72-.34,1,1,0,0,0-.94.55,3.31,3.31,0,0,0-.27,1.46v.16a3.34,3.34,0,0,0,.27,1.48A1,1,0,0,0,86.32,250.92Z"/><path class="cls-3" d="M90.06,248.76A3.94,3.94,0,0,1,91,246a3.88,3.88,0,0,1,5.33,0,3.94,3.94,0,0,1,1,2.75v.14a4,4,0,0,1-1,2.76,3.4,3.4,0,0,1-2.65,1.06A3.44,3.44,0,0,1,91,251.66a4,4,0,0,1-1-2.76Zm2.34.14a3.05,3.05,0,0,0,.3,1.48,1.18,1.18,0,0,0,2,0,3.05,3.05,0,0,0,.3-1.48v-.14a3.09,3.09,0,0,0-.3-1.47,1.06,1.06,0,0,0-1-.55,1,1,0,0,0-1,.56,3,3,0,0,0-.3,1.46Z"/><path class="cls-3" d="M100.54,245.08l.08,1a2.52,2.52,0,0,1,.89-.83,2.48,2.48,0,0,1,1.23-.29,2.27,2.27,0,0,1,1.2.3,1.84,1.84,0,0,1,.77.93,2.38,2.38,0,0,1,2.16-1.23,2.07,2.07,0,0,1,1.71.78,3.83,3.83,0,0,1,.63,2.42v4.42h-2.34v-4.42a1.91,1.91,0,0,0-.23-1.1.79.79,0,0,0-.67-.31,1.26,1.26,0,0,0-.6.13,1.22,1.22,0,0,0-.44.33v.21a.86.86,0,0,1,0,.16v5H102.6v-4.42a2,2,0,0,0-.22-1.11.8.8,0,0,0-.68-.3,1.36,1.36,0,0,0-1,.46v5.37H98.34v-7.49Z"/><path class="cls-3" d="M113.87,252.72a3.49,3.49,0,0,1-2.67-1,3.69,3.69,0,0,1-1-2.61v-.27a4.16,4.16,0,0,1,.91-2.79,3.2,3.2,0,0,1,2.63-1.07,3.05,3.05,0,0,1,2.35.9,3.57,3.57,0,0,1,.83,2.49v1.22h-4.29v0a1.43,1.43,0,0,0,.43,1,1.51,1.51,0,0,0,1.1.37,4.88,4.88,0,0,0,1.11-.11,7.15,7.15,0,0,0,1-.36l.56,1.43a4.46,4.46,0,0,1-1.31.59A5.66,5.66,0,0,1,113.87,252.72Zm-.09-6a1,1,0,0,0-.83.36,1.8,1.8,0,0,0-.31,1l0,0h2v-.18a1.52,1.52,0,0,0-.21-.88A.76.76,0,0,0,113.78,246.74Z"/><path class="cls-4" d="M220.24,431.23v0a3.21,3.21,0,0,1-1,2.61,4.14,4.14,0,0,1-2.83.89,3.9,3.9,0,0,1-4.13-4.13v-2.11a4.13,4.13,0,0,1,1.09-3,3.75,3.75,0,0,1,2.88-1.15,4.4,4.4,0,0,1,3,.9,3.13,3.13,0,0,1,1,2.59l0,0H218a1.87,1.87,0,0,0-.4-1.33,1.78,1.78,0,0,0-1.29-.4,1.35,1.35,0,0,0-1.21.64,2.91,2.91,0,0,0-.43,1.68v2.12a2.8,2.8,0,0,0,.47,1.69,1.53,1.53,0,0,0,1.33.64,1.48,1.48,0,0,0,1.16-.4,2.07,2.07,0,0,0,.35-1.34Z"/><path class="cls-4" d="M221.1,430.81a4,4,0,0,1,1-2.75,3.89,3.89,0,0,1,5.34,0,4,4,0,0,1,1,2.75V431a4,4,0,0,1-1,2.75,3.89,3.89,0,0,1-5.34,0,4,4,0,0,1-1-2.75Zm2.34.15a3,3,0,0,0,.29,1.47,1,1,0,0,0,1,.54,1,1,0,0,0,1-.54A3,3,0,0,0,226,431v-.15a3,3,0,0,0-.3-1.46,1.17,1.17,0,0,0-2,0,3.08,3.08,0,0,0-.29,1.46Z"/><path class="cls-4" d="M231.53,427.14l.09,1.05a2.61,2.61,0,0,1,.9-.88,2.34,2.34,0,0,1,1.21-.31,2.12,2.12,0,0,1,1.72.75,3.68,3.68,0,0,1,.62,2.37v4.5h-2.34v-4.51a1.73,1.73,0,0,0-.23-1,.78.78,0,0,0-.67-.3,1.63,1.63,0,0,0-.67.13,1.3,1.3,0,0,0-.49.37v5.32h-2.34v-7.48Z"/><path class="cls-4" d="M241.24,432.52a.6.6,0,0,0-.31-.49,3.17,3.17,0,0,0-1.15-.39,4.59,4.59,0,0,1-2-.8,1.8,1.8,0,0,1-.66-1.48,2.09,2.09,0,0,1,.83-1.67,3.4,3.4,0,0,1,2.25-.69,3.84,3.84,0,0,1,2.38.67,2,2,0,0,1,.84,1.72v0h-2.27a1,1,0,0,0-.22-.67,1,1,0,0,0-.73-.23,1,1,0,0,0-.62.2.67.67,0,0,0-.25.52.61.61,0,0,0,.29.5,3.39,3.39,0,0,0,1.16.38,4.56,4.56,0,0,1,2,.8,1.86,1.86,0,0,1,.66,1.52,2,2,0,0,1-.89,1.67,4,4,0,0,1-2.37.65,3.54,3.54,0,0,1-2.42-.78,2.1,2.1,0,0,1-.85-1.73v0h2.12a1,1,0,0,0,.32.77,1.42,1.42,0,0,0,.88.24A1.11,1.11,0,0,0,241,433,.61.61,0,0,0,241.24,432.52Z"/><path class="cls-4" d="M247.28,425.27v1.87h1.18v1.62h-1.18v3.43a.84.84,0,0,0,.16.58.6.6,0,0,0,.44.17h.29l.27-.06.16,1.73a4.54,4.54,0,0,1-.64.13,4.38,4.38,0,0,1-.67,0,2.33,2.33,0,0,1-1.75-.62,2.71,2.71,0,0,1-.6-1.95v-3.44h-1.05v-1.62h1.05v-1.87Z"/><path class="cls-4" d="M253.74,429.13H253a1.28,1.28,0,0,0-.65.15.91.91,0,0,0-.38.42v4.93H249.6v-7.48h2.2l.08,1.1a2.44,2.44,0,0,1,.62-.92,1.4,1.4,0,0,1,.91-.32l.28,0,.27.06Z"/><path class="cls-4" d="M259.11,433.5a2.53,2.53,0,0,1-.86.94,2.31,2.31,0,0,1-1.23.33,2.2,2.2,0,0,1-1.82-.82,4,4,0,0,1-.66-2.52v-4.29h2.33v4.3a2.22,2.22,0,0,0,.23,1.2.78.78,0,0,0,.69.33,1.91,1.91,0,0,0,.66-.1,1.33,1.33,0,0,0,.48-.31v-5.42h2.34v7.48h-1.88Z"/><path class="cls-4" d="M265.76,433a1,1,0,0,0,.72-.26,1.1,1.1,0,0,0,.23-.75h2.13l0,0a2.48,2.48,0,0,1-.85,2,3.74,3.74,0,0,1-4.88-.29,4,4,0,0,1-.92-2.75v-.16a4,4,0,0,1,.92-2.74,3.27,3.27,0,0,1,2.62-1.06,3.21,3.21,0,0,1,2.28.79,2.73,2.73,0,0,1,.83,2.17l0,0h-2.13a1.49,1.49,0,0,0-.24-.87.83.83,0,0,0-.72-.33,1,1,0,0,0-.94.54,3.31,3.31,0,0,0-.27,1.46V431a3.34,3.34,0,0,0,.27,1.48A1,1,0,0,0,265.76,433Z"/><path class="cls-4" d="M272.5,425.27v1.87h1.18v1.62H272.5v3.43a.84.84,0,0,0,.16.58.6.6,0,0,0,.44.17h.29l.27-.06.16,1.73a4.85,4.85,0,0,1-.64.13,4.38,4.38,0,0,1-.67,0,2.33,2.33,0,0,1-1.75-.62,2.71,2.71,0,0,1-.6-1.95v-3.44h-1.05v-1.62h1.05v-1.87Z"/><path class="cls-4" d="M277.27,425.4h-2.35v-1.57h2.35Zm0,9.22h-2.35v-7.48h2.35Z"/><path class="cls-4" d="M278.39,430.81a4,4,0,0,1,.95-2.75,3.89,3.89,0,0,1,5.34,0,4,4,0,0,1,.95,2.75V431a3.92,3.92,0,0,1-.95,2.75,3.89,3.89,0,0,1-5.34,0,4,4,0,0,1-.95-2.75Zm2.34.15a3.14,3.14,0,0,0,.29,1.47,1,1,0,0,0,1,.54,1,1,0,0,0,1-.54,3,3,0,0,0,.3-1.47v-.15a3,3,0,0,0-.3-1.46,1.17,1.17,0,0,0-2,0,3.21,3.21,0,0,0-.29,1.46Z"/><path class="cls-4" d="M288.82,427.14l.09,1.05a2.61,2.61,0,0,1,.9-.88A2.37,2.37,0,0,1,291,427a2.11,2.11,0,0,1,1.72.75,3.68,3.68,0,0,1,.62,2.37v4.5H291v-4.51a1.73,1.73,0,0,0-.23-1,.77.77,0,0,0-.66-.3,1.65,1.65,0,0,0-.68.13,1.38,1.38,0,0,0-.49.37v5.32h-2.34v-7.48Z"/><path class="cls-4" d="M238.82,451.63V441.56h3.69a4.08,4.08,0,0,1,3,1.16,3.94,3.94,0,0,1,1.2,3v1.81a4,4,0,0,1-1.2,3,4.11,4.11,0,0,1-3,1.15Zm2.34-8.28v6.48h1.35a1.59,1.59,0,0,0,1.31-.65,2.63,2.63,0,0,0,.51-1.68v-1.83a2.61,2.61,0,0,0-.51-1.66,1.6,1.6,0,0,0-1.31-.66Z"/><path class="cls-4" d="M251.26,451.78a3.52,3.52,0,0,1-2.67-1,3.69,3.69,0,0,1-1-2.61v-.27a4.16,4.16,0,0,1,.91-2.79,3.2,3.2,0,0,1,2.63-1.07,3.05,3.05,0,0,1,2.35.9,3.54,3.54,0,0,1,.83,2.49v1.22h-4.29v0a1.42,1.42,0,0,0,.44.95,1.47,1.47,0,0,0,1.09.37,5,5,0,0,0,1.12-.11,7.51,7.51,0,0,0,1-.36l.56,1.43a4.38,4.38,0,0,1-1.3.6A6.11,6.11,0,0,1,251.26,451.78Zm-.09-6a1,1,0,0,0-.83.35,1.8,1.8,0,0,0-.3,1v0h2V447a1.61,1.61,0,0,0-.2-.88A.79.79,0,0,0,251.17,445.81Z"/><path class="cls-4" d="M262.28,448.05a4.54,4.54,0,0,1-.74,2.72,2.5,2.5,0,0,1-2.17,1,2,2,0,0,1-1.06-.27,2.2,2.2,0,0,1-.79-.76l-.13.88h-2V440.84h2.34v4a2.21,2.21,0,0,1,.73-.64,1.93,1.93,0,0,1,.95-.22,2.49,2.49,0,0,1,2.18,1.05,4.92,4.92,0,0,1,.74,2.84ZM260,447.9a4,4,0,0,0-.25-1.55.94.94,0,0,0-.93-.54,1.33,1.33,0,0,0-.65.14,1,1,0,0,0-.44.41v3.15a1.09,1.09,0,0,0,.44.35,1.66,1.66,0,0,0,.66.12.93.93,0,0,0,.93-.48,3.39,3.39,0,0,0,.24-1.45Z"/><path class="cls-4" d="M266,442.28v1.86h1.18v1.62H266v3.44a.81.81,0,0,0,.16.57.56.56,0,0,0,.44.18h.28l.28-.06.16,1.73c-.24.06-.45.1-.64.13a6.19,6.19,0,0,1-.67,0,2.36,2.36,0,0,1-1.76-.62,2.76,2.76,0,0,1-.59-2v-3.45h-1.05v-1.62h1.05v-1.86Z"/><path class="cls-4" d="M239.58,531.82H236v2.51h4.26v1.8h-6.6V526.05h6.6v1.8H236V530h3.55Z"/><path class="cls-4" d="M241,532.4a4.79,4.79,0,0,1,.77-2.83,2.48,2.48,0,0,1,2.15-1.07,2,2,0,0,1,1,.28,2.43,2.43,0,0,1,.77.79l.18-.93h2V539h-2.34v-3.57a2.21,2.21,0,0,1-.75.62,2.12,2.12,0,0,1-1,.21,2.52,2.52,0,0,1-2.15-1,4.42,4.42,0,0,1-.76-2.71Zm2.34.14a3.11,3.11,0,0,0,.27,1.43.91.91,0,0,0,.89.5,1.71,1.71,0,0,0,.67-.12,1.13,1.13,0,0,0,.45-.36v-3.11a1.16,1.16,0,0,0-.45-.43,1.33,1.33,0,0,0-.65-.15.92.92,0,0,0-.9.58,3.44,3.44,0,0,0-.28,1.52Z"/><path class="cls-4" d="M253.81,535a2.42,2.42,0,0,1-.86.93,2.45,2.45,0,0,1-3-.48,4,4,0,0,1-.66-2.53v-4.29h2.34v4.3a2.3,2.3,0,0,0,.22,1.21.78.78,0,0,0,.7.32,1.89,1.89,0,0,0,.65-.1,1.32,1.32,0,0,0,.49-.31v-5.42H256v7.49h-1.89Z"/><path class="cls-4" d="M259.71,526.9h-2.34v-1.57h2.34Zm0,9.23h-2.34v-7.49h2.34Z"/><path class="cls-4" d="M263.83,526.78v1.86H265v1.62h-1.19v3.43a.89.89,0,0,0,.16.58.57.57,0,0,0,.44.18l.29,0,.27,0,.16,1.73c-.23.06-.44.1-.63.13a6.59,6.59,0,0,1-.67,0,2.35,2.35,0,0,1-1.76-.61,2.71,2.71,0,0,1-.6-1.95v-3.45h-1v-1.62h1v-1.86Z"/><path class="cls-4" d="M269.05,532.83v0h0l1.24-4.24h2.49l-3,8.6a4,4,0,0,1-.9,1.37,2.38,2.38,0,0,1-1.73.54,2.29,2.29,0,0,1-.5,0l-.61-.14.28-1.66.15,0h.12a1.53,1.53,0,0,0,.81-.17.92.92,0,0,0,.38-.48l.19-.49-2.59-7.57h2.49Z"/><path class="cls-1" d="M238.42,175.63V165.55h3.69a4.13,4.13,0,0,1,3,1.16,4,4,0,0,1,1.2,3v1.82a3.94,3.94,0,0,1-1.2,3,4.13,4.13,0,0,1-3,1.16Zm2.34-8.28v6.48h1.35a1.61,1.61,0,0,0,1.31-.65,2.59,2.59,0,0,0,.52-1.68v-1.83a2.58,2.58,0,0,0-.52-1.67,1.61,1.61,0,0,0-1.31-.65Z"/><path class="cls-1" d="M250.87,175.77a3.46,3.46,0,0,1-2.67-1,3.66,3.66,0,0,1-1-2.61v-.26a4.22,4.22,0,0,1,.91-2.79,3.27,3.27,0,0,1,2.64-1.08,3.06,3.06,0,0,1,2.35.91,3.54,3.54,0,0,1,.83,2.48v1.23h-4.29v0a1.43,1.43,0,0,0,.43,1,1.55,1.55,0,0,0,1.1.36,4.37,4.37,0,0,0,1.11-.11,6.53,6.53,0,0,0,1-.35l.56,1.43a4.27,4.27,0,0,1-1.3.59A6,6,0,0,1,250.87,175.77Zm-.09-6a1,1,0,0,0-.83.36,1.79,1.79,0,0,0-.31,1l0,0h2V171a1.52,1.52,0,0,0-.21-.88A.77.77,0,0,0,250.78,169.8Z"/><path class="cls-1" d="M261.88,172a4.52,4.52,0,0,1-.73,2.72,2.49,2.49,0,0,1-2.17,1,2.07,2.07,0,0,1-1.07-.26,2.35,2.35,0,0,1-.78-.76l-.14.88h-2v-10.8h2.34v4a2.28,2.28,0,0,1,.72-.64A2,2,0,0,1,259,168a2.51,2.51,0,0,1,2.19,1.06,4.9,4.9,0,0,1,.73,2.84Zm-2.33-.14a3.79,3.79,0,0,0-.25-1.55.92.92,0,0,0-.92-.55,1.46,1.46,0,0,0-.66.14,1.15,1.15,0,0,0-.43.42v3.14a1,1,0,0,0,.44.36,1.63,1.63,0,0,0,.66.11.94.94,0,0,0,.93-.48,3.55,3.55,0,0,0,.23-1.45Z"/><path class="cls-1" d="M265.6,166.28v1.86h1.19v1.62H265.6v3.43a.89.89,0,0,0,.16.58.57.57,0,0,0,.44.18l.29,0,.27-.05.16,1.73c-.23.06-.44.1-.63.13a6.59,6.59,0,0,1-.67,0,2.34,2.34,0,0,1-1.76-.61,2.71,2.71,0,0,1-.6-1.95v-3.45h-1v-1.62h1v-1.86Z"/><path class="cls-1" d="M219.73,188.78v3.86H217.4V182.56h3.5a4.36,4.36,0,0,1,2.78.81,2.68,2.68,0,0,1,1,2.22,2.18,2.18,0,0,1-.41,1.34,2.89,2.89,0,0,1-1.21.91,2.26,2.26,0,0,1,1.33.88,2.69,2.69,0,0,1,.4,1.52v.64a4,4,0,0,0,.12.9,1.2,1.2,0,0,0,.41.72v.14h-2.42a1.16,1.16,0,0,1-.35-.76,6.19,6.19,0,0,1-.09-1v-.61a1.33,1.33,0,0,0-1.49-1.48Zm0-1.8h1.19a1.59,1.59,0,0,0,1.08-.33,1.14,1.14,0,0,0,.37-.92,1.34,1.34,0,0,0-.38-1,1.5,1.5,0,0,0-1.09-.38h-1.17Z"/><path class="cls-1" d="M229.62,192.78a3.46,3.46,0,0,1-2.67-1,3.7,3.7,0,0,1-1-2.61v-.26a4.23,4.23,0,0,1,.91-2.8,3.26,3.26,0,0,1,2.64-1.07,3,3,0,0,1,2.35.91,3.54,3.54,0,0,1,.83,2.48v1.23h-4.29v0a1.43,1.43,0,0,0,.43,1,1.55,1.55,0,0,0,1.1.36,4.37,4.37,0,0,0,1.11-.11,6.53,6.53,0,0,0,1-.35l.56,1.42a4,4,0,0,1-1.3.6A6,6,0,0,1,229.62,192.78Zm-.09-6a1,1,0,0,0-.83.36,1.76,1.76,0,0,0-.31,1l0,0h2V188a1.52,1.52,0,0,0-.21-.88A.77.77,0,0,0,229.53,186.81Z"/><path class="cls-1" d="M240.63,189.05a4.4,4.4,0,0,1-.76,2.71,2.51,2.51,0,0,1-2.14,1,2.12,2.12,0,0,1-1-.21,2,2,0,0,1-.73-.6v3.55H233.7V185.15h2.21l.07.82a2.18,2.18,0,0,1,.74-.71,1.92,1.92,0,0,1,1-.25,2.51,2.51,0,0,1,2.16,1.07,4.79,4.79,0,0,1,.76,2.83Zm-2.33-.14a3.65,3.65,0,0,0-.27-1.53.93.93,0,0,0-.89-.57,1.38,1.38,0,0,0-.67.15,1,1,0,0,0-.43.42v3.13a1,1,0,0,0,.44.36,1.88,1.88,0,0,0,.67.11.93.93,0,0,0,.89-.51,3.18,3.18,0,0,0,.26-1.42Z"/><path class="cls-1" d="M246,192.63a2.56,2.56,0,0,1-.22-.53,3.21,3.21,0,0,1-.14-.63,3,3,0,0,1-.76,1,1.82,1.82,0,0,1-1.16.35,2.59,2.59,0,0,1-1.83-.6,2.15,2.15,0,0,1-.66-1.65,2,2,0,0,1,.84-1.72,4.31,4.31,0,0,1,2.54-.61h1v-.53a1,1,0,0,0-.23-.74.88.88,0,0,0-.7-.25.82.82,0,0,0-.6.19.79.79,0,0,0-.2.59h-2.27v0a2,2,0,0,1,.85-1.71,3.85,3.85,0,0,1,2.39-.69,3.49,3.49,0,0,1,2.25.69,2.4,2.4,0,0,1,.86,2v2.83a6.33,6.33,0,0,0,.1,1.1,6.67,6.67,0,0,0,.3,1Zm-1.65-1.52a1.37,1.37,0,0,0,.76-.2,1.15,1.15,0,0,0,.46-.47v-1h-.94a1.07,1.07,0,0,0-.81.27,1,1,0,0,0-.25.68.66.66,0,0,0,.22.52A.81.81,0,0,0,244.34,191.11Z"/><path class="cls-1" d="M252,189.34v0h0l1.24-4.24h2.49l-3,8.6a4,4,0,0,1-.89,1.37,2.39,2.39,0,0,1-1.74.54,2.25,2.25,0,0,1-.49,0l-.61-.14.28-1.67.15,0h.12a1.54,1.54,0,0,0,.81-.16,1,1,0,0,0,.38-.49l.19-.48-2.59-7.57h2.48Z"/><path class="cls-1" d="M258.57,185.15l.08,1a2.36,2.36,0,0,1,.89-.83,2.49,2.49,0,0,1,1.23-.3,2.32,2.32,0,0,1,1.2.3,1.91,1.91,0,0,1,.76.93,2.59,2.59,0,0,1,.89-.91,2.49,2.49,0,0,1,1.27-.32,2.07,2.07,0,0,1,1.72.79,3.83,3.83,0,0,1,.63,2.42v4.42h-2.35v-4.42a2,2,0,0,0-.22-1.11.8.8,0,0,0-.68-.3,1.46,1.46,0,0,0-.6.12,1.22,1.22,0,0,0-.44.34c0,.08,0,.14,0,.2a1,1,0,0,1,0,.17v5h-2.34v-4.42a2.05,2.05,0,0,0-.22-1.11.81.81,0,0,0-.69-.3,1.4,1.4,0,0,0-.58.12,1.1,1.1,0,0,0-.43.34v5.37h-2.34v-7.49Z"/><path class="cls-1" d="M271.9,192.78a3.46,3.46,0,0,1-2.67-1,3.65,3.65,0,0,1-1-2.61v-.26a4.23,4.23,0,0,1,.91-2.8,3.26,3.26,0,0,1,2.64-1.07,3,3,0,0,1,2.35.91,3.54,3.54,0,0,1,.83,2.48v1.23H270.7l0,0a1.49,1.49,0,0,0,.44,1,1.52,1.52,0,0,0,1.09.36,4.46,4.46,0,0,0,1.12-.11,6.53,6.53,0,0,0,1-.35l.56,1.42a4,4,0,0,1-1.3.6A6,6,0,0,1,271.9,192.78Zm-.09-6a1,1,0,0,0-.83.36,1.76,1.76,0,0,0-.31,1v0h2V188a1.52,1.52,0,0,0-.21-.88A.77.77,0,0,0,271.81,186.81Z"/><path class="cls-1" d="M278.13,185.15l.09,1a2.79,2.79,0,0,1,.91-.87,2.34,2.34,0,0,1,1.2-.32,2.1,2.1,0,0,1,1.72.75,3.71,3.71,0,0,1,.62,2.37v4.51h-2.34v-4.51a1.67,1.67,0,0,0-.23-1,.77.77,0,0,0-.66-.3,1.6,1.6,0,0,0-.67.13,1.34,1.34,0,0,0-.5.37v5.33h-2.33v-7.49Z"/><path class="cls-1" d="M286.63,183.29v1.86h1.18v1.62h-1.18v3.43a.84.84,0,0,0,.16.58.57.57,0,0,0,.44.18l.29,0,.27-.05.16,1.73a4.42,4.42,0,0,1-.64.12,4.3,4.3,0,0,1-.67,0,2.33,2.33,0,0,1-1.75-.61,2.71,2.71,0,0,1-.6-1.95v-3.45h-1v-1.62h1v-1.86Z"/><path class="cls-1" d="M224.67,96.1a4.22,4.22,0,0,1-1.18,3.07,4.12,4.12,0,0,1-3.09,1.21,4.11,4.11,0,0,1-4.3-4.28V94.29a4.23,4.23,0,0,1,1.19-3.07,4.29,4.29,0,0,1,7.38,3.07Zm-2.34-1.82a2.9,2.9,0,0,0-.51-1.77,1.64,1.64,0,0,0-1.43-.7,1.68,1.68,0,0,0-1.45.69,2.91,2.91,0,0,0-.5,1.78V96.1a2.94,2.94,0,0,0,.51,1.79,1.85,1.85,0,0,0,2.88,0,3,3,0,0,0,.5-1.79Z"/><path class="cls-1" d="M232.89,96.65a4.47,4.47,0,0,1-.76,2.71,2.54,2.54,0,0,1-2.15,1,2.12,2.12,0,0,1-1-.21,2.2,2.2,0,0,1-.73-.6v3.54H226V92.75h2.21l.07.81a2.24,2.24,0,0,1,.74-.7,1.93,1.93,0,0,1,1-.25,2.5,2.5,0,0,1,2.15,1.07,4.79,4.79,0,0,1,.77,2.83Zm-2.34-.14a3.65,3.65,0,0,0-.27-1.53.93.93,0,0,0-.89-.57,1.54,1.54,0,0,0-.67.14,1.11,1.11,0,0,0-.43.43V98.1a.91.91,0,0,0,.44.36,1.69,1.69,0,0,0,.68.12.92.92,0,0,0,.88-.51,3.08,3.08,0,0,0,.26-1.42Z"/><path class="cls-1" d="M237.24,100.38a3.49,3.49,0,0,1-2.67-1,3.69,3.69,0,0,1-1-2.61v-.26a4.17,4.17,0,0,1,.91-2.8,3.2,3.2,0,0,1,2.63-1.07,3,3,0,0,1,2.35.91,3.49,3.49,0,0,1,.83,2.48v1.22H236v0a1.48,1.48,0,0,0,.43,1,1.55,1.55,0,0,0,1.1.36,4.46,4.46,0,0,0,1.12-.11,7.31,7.31,0,0,0,1-.35l.56,1.42a4.26,4.26,0,0,1-1.3.6A6.11,6.11,0,0,1,237.24,100.38Zm-.09-6a1,1,0,0,0-.83.35,1.8,1.8,0,0,0-.3,1v0h2v-.17a1.59,1.59,0,0,0-.2-.88A.79.79,0,0,0,237.15,94.41Z"/><path class="cls-1" d="M245.46,94.74h-.76a1.29,1.29,0,0,0-.66.15,1,1,0,0,0-.38.42v4.94h-2.34V92.75h2.2l.09,1.1a2.23,2.23,0,0,1,.62-.92,1.4,1.4,0,0,1,.91-.32l.28,0,.26.06Z"/><path class="cls-1" d="M250.65,100.23a2.83,2.83,0,0,1-.23-.53,4.13,4.13,0,0,1-.14-.63,2.69,2.69,0,0,1-.75,1,1.82,1.82,0,0,1-1.17.36,2.62,2.62,0,0,1-1.83-.6,2.18,2.18,0,0,1-.65-1.65,2,2,0,0,1,.83-1.72,4.31,4.31,0,0,1,2.54-.61h1v-.53a1.09,1.09,0,0,0-.23-.74.89.89,0,0,0-.7-.25.86.86,0,0,0-.61.19.78.78,0,0,0-.19.59h-2.27l0,0a2,2,0,0,1,.86-1.71,3.8,3.8,0,0,1,2.38-.69,3.47,3.47,0,0,1,2.25.69,2.38,2.38,0,0,1,.87,2V98.1a5.52,5.52,0,0,0,.1,1.11,5.19,5.19,0,0,0,.3,1ZM249,98.71a1.37,1.37,0,0,0,.76-.2,1.11,1.11,0,0,0,.46-.48v-1h-.94a1.08,1.08,0,0,0-.81.26,1,1,0,0,0-.25.69.7.7,0,0,0,.21.52A.84.84,0,0,0,249,98.71Z"/><path class="cls-1" d="M256.52,90.89v1.86h1.19v1.62h-1.19V97.8a.89.89,0,0,0,.16.58.57.57,0,0,0,.44.17h.29l.27-.06.16,1.74a6.22,6.22,0,0,1-.63.12,4.47,4.47,0,0,1-.67,0,2.3,2.3,0,0,1-1.76-.62,2.71,2.71,0,0,1-.6-2V94.37h-1V92.75h1V90.89Z"/><path class="cls-1" d="M261.29,91h-2.35V89.44h2.35Zm0,9.23h-2.35V92.75h2.35Z"/><path class="cls-1" d="M262.41,96.42a4,4,0,0,1,1-2.75,3.88,3.88,0,0,1,5.33,0,4,4,0,0,1,1,2.75v.15a3.92,3.92,0,0,1-1,2.75,3.88,3.88,0,0,1-5.33,0,3.92,3.92,0,0,1-1-2.75Zm2.34.15a3.19,3.19,0,0,0,.29,1.48,1.06,1.06,0,0,0,1,.53,1,1,0,0,0,1-.54,3,3,0,0,0,.3-1.47v-.15A3,3,0,0,0,267,95a1.18,1.18,0,0,0-2,0,3.21,3.21,0,0,0-.29,1.46Z"/><path class="cls-1" d="M272.84,92.75l.09,1a2.82,2.82,0,0,1,.91-.88,2.33,2.33,0,0,1,1.2-.31,2.1,2.1,0,0,1,1.72.75,3.7,3.7,0,0,1,.62,2.37v4.51H275V95.72a1.65,1.65,0,0,0-.23-1,.77.77,0,0,0-.66-.3,1.6,1.6,0,0,0-.67.13,1.34,1.34,0,0,0-.5.37v5.33h-2.33V92.75Z"/><path class="cls-1" d="M283,100.23a3.68,3.68,0,0,1-.23-.53,5.82,5.82,0,0,1-.14-.63,2.69,2.69,0,0,1-.75,1,1.79,1.79,0,0,1-1.16.36,2.59,2.59,0,0,1-1.83-.6,2.15,2.15,0,0,1-.66-1.65,2,2,0,0,1,.84-1.72,4.29,4.29,0,0,1,2.54-.61h1v-.53a1.09,1.09,0,0,0-.23-.74.88.88,0,0,0-.7-.25.82.82,0,0,0-.6.19.78.78,0,0,0-.2.59h-2.27v0a1.94,1.94,0,0,1,.85-1.71,3.83,3.83,0,0,1,2.39-.69,3.51,3.51,0,0,1,2.25.69,2.4,2.4,0,0,1,.86,2V98.1a5.52,5.52,0,0,0,.1,1.11,7,7,0,0,0,.3,1Zm-1.65-1.52a1.37,1.37,0,0,0,.76-.2,1.11,1.11,0,0,0,.46-.48v-1h-.94a1.11,1.11,0,0,0-.81.26,1,1,0,0,0-.25.69.67.67,0,0,0,.22.52A.79.79,0,0,0,281.33,98.71Z"/><path class="cls-1" d="M288.62,100.24h-2.35V89.44h2.35Z"/><path class="cls-4" d="M149.64,14.56v0a3.22,3.22,0,0,1-1,2.61,4.15,4.15,0,0,1-2.84.89,4.06,4.06,0,0,1-3-1.14,4.1,4.1,0,0,1-1.13-3V11.87a4.16,4.16,0,0,1,1.09-3,3.79,3.79,0,0,1,2.89-1.15,4.47,4.47,0,0,1,3,.89,3.15,3.15,0,0,1,1,2.6l0,0h-2.27a1.87,1.87,0,0,0-.4-1.33,1.73,1.73,0,0,0-1.29-.4,1.39,1.39,0,0,0-1.22.63,3,3,0,0,0-.42,1.69V14a2.8,2.8,0,0,0,.47,1.69,1.53,1.53,0,0,0,1.32.64,1.49,1.49,0,0,0,1.16-.4,2,2,0,0,0,.36-1.35Z"/><path class="cls-4" d="M155.13,18a2.65,2.65,0,0,1-.22-.54,3.11,3.11,0,0,1-.14-.62,2.93,2.93,0,0,1-.76.95,1.77,1.77,0,0,1-1.16.36A2.55,2.55,0,0,1,151,17.5a2.12,2.12,0,0,1-.66-1.65,2,2,0,0,1,.84-1.72,4.39,4.39,0,0,1,2.54-.6h1V13a1,1,0,0,0-.23-.73,1.06,1.06,0,0,0-1.3-.07.82.82,0,0,0-.2.6H150.7v0a2,2,0,0,1,.85-1.72,3.92,3.92,0,0,1,2.39-.68,3.47,3.47,0,0,1,2.25.69,2.4,2.4,0,0,1,.86,2v2.82a6.36,6.36,0,0,0,.1,1.11,6.56,6.56,0,0,0,.3,1Zm-1.64-1.52a1.45,1.45,0,0,0,.75-.2,1.11,1.11,0,0,0,.46-.48v-1h-.94A1.07,1.07,0,0,0,153,15a1,1,0,0,0-.25.69.67.67,0,0,0,.22.51A.82.82,0,0,0,153.49,16.44Z"/><path class="cls-4" d="M162.23,15.86a.62.62,0,0,0-.32-.5,3.63,3.63,0,0,0-1.14-.39,4.52,4.52,0,0,1-2-.79,1.8,1.8,0,0,1-.66-1.48A2.12,2.12,0,0,1,159,11a3.45,3.45,0,0,1,2.25-.68,3.89,3.89,0,0,1,2.38.66,2,2,0,0,1,.84,1.73v0h-2.27a.92.92,0,0,0-.22-.67,1,1,0,0,0-.73-.23,1,1,0,0,0-.61.2.64.64,0,0,0-.25.52.61.61,0,0,0,.28.5,3.3,3.3,0,0,0,1.16.37,4.65,4.65,0,0,1,2,.81,1.84,1.84,0,0,1,.65,1.52,2,2,0,0,1-.89,1.66,3.91,3.91,0,0,1-2.37.66,3.54,3.54,0,0,1-2.42-.78,2.13,2.13,0,0,1-.85-1.73l0,0h2.11a.93.93,0,0,0,.33.77,1.37,1.37,0,0,0,.87.23,1.18,1.18,0,0,0,.71-.18A.63.63,0,0,0,162.23,15.86Z"/><path class="cls-4" d="M167.85,11.4a2.34,2.34,0,0,1,.82-.78,2.12,2.12,0,0,1,1.08-.28,2.26,2.26,0,0,1,1.83.81,3.91,3.91,0,0,1,.66,2.51V18H169.9V13.64a2.22,2.22,0,0,0-.22-1.18.75.75,0,0,0-.67-.32,1.85,1.85,0,0,0-.69.11,1.23,1.23,0,0,0-.47.32V18h-2.34V7.17h2.34Z"/><path class="cls-4" d="M183.24,13.91h-3.69V18h-2.34V7.89h6.73V9.68h-4.39v2.43h3.69Z"/><path class="cls-4" d="M187.43,18h-2.35V7.17h2.35Z"/><path class="cls-4" d="M188.55,14.15a3.94,3.94,0,0,1,1-2.75,3.88,3.88,0,0,1,5.33,0,3.94,3.94,0,0,1,1,2.75v.14a4,4,0,0,1-1,2.76,3.4,3.4,0,0,1-2.65,1.06,3.44,3.44,0,0,1-2.68-1.06,4,4,0,0,1-1-2.76Zm2.34.14a3.05,3.05,0,0,0,.3,1.48,1.18,1.18,0,0,0,2,0,3.05,3.05,0,0,0,.3-1.48v-.14a3.09,3.09,0,0,0-.3-1.47,1,1,0,0,0-1-.54,1,1,0,0,0-1,.55,3,3,0,0,0-.3,1.46Z"/><path class="cls-4" d="M203.26,14.66h0l.74-4.19h2.23L204.51,18h-2l-1.22-3.83h0L200.05,18h-2l-1.77-7.49h2.23l.75,4.22h0l1.22-4.22H202Z"/><path class="cls-4" d="M159,31.52V35h-2.34V24.89h3.85a4.19,4.19,0,0,1,2.85.92,3.27,3.27,0,0,1,0,4.8,4.24,4.24,0,0,1-2.85.91Zm0-1.8h1.51a1.51,1.51,0,0,0,1.16-.42,1.49,1.49,0,0,0,.41-1.08,1.58,1.58,0,0,0-.4-1.1,1.56,1.56,0,0,0-1.17-.43H159Z"/><path class="cls-4" d="M169.67,29.47h-.76a1.29,1.29,0,0,0-.66.15,1,1,0,0,0-.38.42V35h-2.34V27.48h2.2l.09,1.1a2.19,2.19,0,0,1,.62-.91,1.36,1.36,0,0,1,.91-.33l.28,0,.26.07Z"/><path class="cls-4" d="M170.08,31.16a3.92,3.92,0,0,1,1-2.75,3.38,3.38,0,0,1,2.66-1.07,3.41,3.41,0,0,1,2.67,1.07,3.92,3.92,0,0,1,1,2.75v.14a4,4,0,0,1-1,2.76,3.88,3.88,0,0,1-5.33,0,4,4,0,0,1-1-2.76Zm2.34.14a3.19,3.19,0,0,0,.29,1.48,1.19,1.19,0,0,0,2,0A3.19,3.19,0,0,0,175,31.3v-.14a3.23,3.23,0,0,0-.29-1.47,1.06,1.06,0,0,0-1-.55,1,1,0,0,0-1,.56,3.18,3.18,0,0,0-.29,1.46Z"/><path class="cls-4" d="M178.89,35V29.1H177.8V27.48h1.09v-.36a2.88,2.88,0,0,1,.92-2.29,3.89,3.89,0,0,1,2.62-.8,6.38,6.38,0,0,1,1.15.1c.39.07.81.17,1.28.3l-.32,1.84c-.39-.1-.72-.18-1-.23a5.4,5.4,0,0,0-1-.07,1.46,1.46,0,0,0-1,.3,1,1,0,0,0-.35.85v.36h1.47V29.1h-1.47V35Zm7.05,0h-2.35V27.48h2.35Z"/><path class="cls-4" d="M190.05,25.62v1.86h1.19V29.1h-1.19v3.43a.84.84,0,0,0,.17.58.54.54,0,0,0,.44.18l.28,0a2.11,2.11,0,0,0,.28-.05l.16,1.73c-.24.06-.45.1-.64.13a6.19,6.19,0,0,1-.67,0,2.36,2.36,0,0,1-1.76-.62,2.71,2.71,0,0,1-.6-2V29.1h-1V27.48h1V25.62Z"/><path class="cls-4" d="M132.79,342.3V332.22h3.68a4.13,4.13,0,0,1,3,1.16,4,4,0,0,1,1.2,3v1.81a3.94,3.94,0,0,1-1.2,3,4.09,4.09,0,0,1-3,1.16Zm2.34-8.28v6.48h1.34a1.64,1.64,0,0,0,1.32-.65,2.63,2.63,0,0,0,.51-1.68v-1.83a2.64,2.64,0,0,0-.51-1.67,1.64,1.64,0,0,0-1.32-.65Z"/><path class="cls-4" d="M145.23,342.45a3.48,3.48,0,0,1-2.67-1,3.65,3.65,0,0,1-1-2.6v-.27a4.16,4.16,0,0,1,.91-2.79,3.23,3.23,0,0,1,2.63-1.08,3.06,3.06,0,0,1,2.35.91,3.54,3.54,0,0,1,.83,2.48v1.23H144v0a1.43,1.43,0,0,0,.43.95,1.55,1.55,0,0,0,1.1.37,5,5,0,0,0,1.12-.11,9.19,9.19,0,0,0,1-.36l.56,1.43a4.51,4.51,0,0,1-1.3.59A6.11,6.11,0,0,1,145.23,342.45Zm-.09-6a1,1,0,0,0-.83.36,1.8,1.8,0,0,0-.31,1l0,0h2v-.18a1.52,1.52,0,0,0-.21-.88A.76.76,0,0,0,145.14,336.47Z"/><path class="cls-4" d="M152,339.21l.13.8h.05l.15-.81,1-4.4h2.45l-2.43,7.49H151l-2.43-7.49H151Z"/><path class="cls-4" d="M159.74,342.45a3.49,3.49,0,0,1-2.67-1,3.65,3.65,0,0,1-1-2.6v-.27a4.16,4.16,0,0,1,.91-2.79,3.25,3.25,0,0,1,2.63-1.08,3,3,0,0,1,2.35.91,3.5,3.5,0,0,1,.84,2.48v1.23h-4.3v0a1.44,1.44,0,0,0,.44.95,1.51,1.51,0,0,0,1.09.37,5,5,0,0,0,1.12-.11,8,8,0,0,0,1-.36l.56,1.43a4.39,4.39,0,0,1-1.3.59A6.11,6.11,0,0,1,159.74,342.45Zm-.09-6a.94.94,0,0,0-.82.36,1.72,1.72,0,0,0-.31,1v0h2v-.18a1.61,1.61,0,0,0-.2-.88A.79.79,0,0,0,159.65,336.47Z"/><path class="cls-4" d="M166.28,342.3h-2.35V331.5h2.35Z"/><path class="cls-4" d="M167.4,338.49a3.92,3.92,0,0,1,.95-2.75,3.87,3.87,0,0,1,5.34,0,4,4,0,0,1,.95,2.75v.14a4,4,0,0,1-.95,2.76,3.89,3.89,0,0,1-5.34,0,4,4,0,0,1-.95-2.76Zm2.34.14a3.06,3.06,0,0,0,.29,1.48,1,1,0,0,0,1,.54,1,1,0,0,0,1-.54,3.05,3.05,0,0,0,.3-1.48v-.14A3.09,3.09,0,0,0,172,337a1.05,1.05,0,0,0-1-.55,1,1,0,0,0-1,.56,3.06,3.06,0,0,0-.29,1.46Z"/><path class="cls-4" d="M182.61,338.72a4.51,4.51,0,0,1-.76,2.71,2.55,2.55,0,0,1-2.15,1,2.12,2.12,0,0,1-1-.21,2.2,2.2,0,0,1-.73-.6v3.54h-2.34V334.81h2.21l.07.82a2.3,2.3,0,0,1,.75-.71,2,2,0,0,1,1-.25,2.47,2.47,0,0,1,2.15,1.08,4.73,4.73,0,0,1,.77,2.82Zm-2.33-.15a3.59,3.59,0,0,0-.28-1.52.93.93,0,0,0-.89-.58,1.34,1.34,0,0,0-.66.15,1.11,1.11,0,0,0-.44.42v3.13a1,1,0,0,0,.44.36,1.69,1.69,0,0,0,.68.12.92.92,0,0,0,.88-.51,3.09,3.09,0,0,0,.27-1.42Z"/><path class="cls-4" d="M185.84,334.81l.08,1a2.45,2.45,0,0,1,2.12-1.13,2.34,2.34,0,0,1,1.21.31,1.87,1.87,0,0,1,.76.93,2.41,2.41,0,0,1,2.16-1.24,2.11,2.11,0,0,1,1.72.79,3.9,3.9,0,0,1,.62,2.42v4.42h-2.34v-4.42a2,2,0,0,0-.23-1.11.78.78,0,0,0-.67-.3,1.4,1.4,0,0,0-.6.12,1.48,1.48,0,0,0-.44.34,1.15,1.15,0,0,0,0,.2v5.17H187.9v-4.42a2,2,0,0,0-.22-1.11.79.79,0,0,0-.68-.3,1.34,1.34,0,0,0-.58.12,1.48,1.48,0,0,0-.44.34v5.37h-2.34v-7.49Z"/><path class="cls-4" d="M199.17,342.45a3.49,3.49,0,0,1-2.67-1,3.65,3.65,0,0,1-1-2.6v-.27a4.16,4.16,0,0,1,.91-2.79,3.23,3.23,0,0,1,2.63-1.08,3.06,3.06,0,0,1,2.35.91,3.49,3.49,0,0,1,.83,2.48v1.23H198v0a1.48,1.48,0,0,0,.43.95,1.55,1.55,0,0,0,1.1.37,5,5,0,0,0,1.12-.11,9.19,9.19,0,0,0,1-.36l.56,1.43a4.51,4.51,0,0,1-1.3.59A6.11,6.11,0,0,1,199.17,342.45Zm-.09-6a1,1,0,0,0-.83.36,1.8,1.8,0,0,0-.3,1v0h2v-.18a1.61,1.61,0,0,0-.2-.88A.79.79,0,0,0,199.08,336.47Z"/><path class="cls-4" d="M205.41,334.81l.09,1.05a2.67,2.67,0,0,1,.9-.87,2.35,2.35,0,0,1,1.21-.32,2.12,2.12,0,0,1,1.72.75,3.73,3.73,0,0,1,.62,2.38v4.5h-2.34v-4.51a1.74,1.74,0,0,0-.23-1,.79.79,0,0,0-.67-.3,1.78,1.78,0,0,0-.67.13,1.45,1.45,0,0,0-.5.38v5.32h-2.33v-7.49Z"/><path class="cls-4" d="M213.9,333v1.86h1.19v1.62H213.9v3.43a.84.84,0,0,0,.17.58.54.54,0,0,0,.44.18l.28,0a1.11,1.11,0,0,0,.28-.05l.16,1.73c-.24.06-.45.1-.64.13a6.19,6.19,0,0,1-.67,0,2.36,2.36,0,0,1-1.76-.62,2.71,2.71,0,0,1-.59-1.95v-3.45h-1v-1.62h1V333Z"/><path class="cls-4" d="M147.74,355.25h-3.69v4.06h-2.34V349.23h6.73V351h-4.39v2.42h3.69Z"/><path class="cls-4" d="M152.66,359.45a3.46,3.46,0,0,1-2.67-1,3.7,3.7,0,0,1-1-2.61v-.26a4.24,4.24,0,0,1,.91-2.8,3.26,3.26,0,0,1,2.64-1.07,3,3,0,0,1,2.35.91,3.54,3.54,0,0,1,.83,2.48v1.23h-4.29v0a1.43,1.43,0,0,0,.43,1,1.55,1.55,0,0,0,1.1.36,4.37,4.37,0,0,0,1.11-.11,7,7,0,0,0,1-.35l.56,1.43a4.46,4.46,0,0,1-1.31.59A6,6,0,0,1,152.66,359.45Zm-.09-6a1,1,0,0,0-.83.36,1.76,1.76,0,0,0-.31,1l0,0h2v-.18a1.52,1.52,0,0,0-.21-.88A.76.76,0,0,0,152.57,353.48Z"/><path class="cls-4" d="M161.07,359.3a2.57,2.57,0,0,1-.23-.53,4.13,4.13,0,0,1-.14-.63,2.82,2.82,0,0,1-.75,1,1.87,1.87,0,0,1-1.17.35,2.62,2.62,0,0,1-1.83-.6,2.18,2.18,0,0,1-.65-1.65,2,2,0,0,1,.84-1.72,4.26,4.26,0,0,1,2.54-.61h1v-.53a1.06,1.06,0,0,0-.23-.73,1.07,1.07,0,0,0-1.31-.07.79.79,0,0,0-.19.59h-2.27l0,0a2,2,0,0,1,.86-1.71,3.82,3.82,0,0,1,2.38-.69,3.52,3.52,0,0,1,2.26.69,2.41,2.41,0,0,1,.86,2v2.83a5.49,5.49,0,0,0,.1,1.1,4.83,4.83,0,0,0,.3,1Zm-1.65-1.51a1.38,1.38,0,0,0,.76-.21,1.15,1.15,0,0,0,.46-.47v-1h-.94a1,1,0,0,0-.81.27,1,1,0,0,0-.25.68.66.66,0,0,0,.22.52A.8.8,0,0,0,159.42,357.79Z"/><path class="cls-4" d="M168.16,357.2a.6.6,0,0,0-.31-.49,3.25,3.25,0,0,0-1.15-.39,4.59,4.59,0,0,1-2-.79,1.81,1.81,0,0,1-.67-1.48,2.12,2.12,0,0,1,.83-1.68,3.44,3.44,0,0,1,2.25-.69,3.82,3.82,0,0,1,2.38.67,2,2,0,0,1,.85,1.73l0,0h-2.27a.9.9,0,0,0-.22-.67,1,1,0,0,0-.72-.23.92.92,0,0,0-.62.2.61.61,0,0,0-.25.51.62.62,0,0,0,.29.51,3.44,3.44,0,0,0,1.16.37,4.6,4.6,0,0,1,2,.81,1.83,1.83,0,0,1,.66,1.52,2,2,0,0,1-.9,1.66,3.87,3.87,0,0,1-2.37.65,3.6,3.6,0,0,1-2.42-.77,2.14,2.14,0,0,1-.84-1.73v0H166a.94.94,0,0,0,.32.77,1.49,1.49,0,0,0,.88.23,1.18,1.18,0,0,0,.71-.18A.64.64,0,0,0,168.16,357.2Z"/><path class="cls-4" d="M174,350.08h-2.35v-1.57H174Zm0,9.23h-2.35v-7.49H174Z"/><path class="cls-4" d="M182.33,355.72a4.52,4.52,0,0,1-.74,2.72,2.49,2.49,0,0,1-2.17,1,2.07,2.07,0,0,1-1.07-.26,2.45,2.45,0,0,1-.78-.76l-.14.88h-2v-10.8h2.34v4a2.21,2.21,0,0,1,.73-.64,1.94,1.94,0,0,1,.95-.23,2.48,2.48,0,0,1,2.18,1.06,4.9,4.9,0,0,1,.74,2.84Zm-2.33-.14a4,4,0,0,0-.25-1.55.93.93,0,0,0-.93-.55,1.42,1.42,0,0,0-.65.14,1.09,1.09,0,0,0-.44.41v3.15a1,1,0,0,0,.44.36,1.82,1.82,0,0,0,.66.11.94.94,0,0,0,.93-.48,3.36,3.36,0,0,0,.24-1.45Z"/><path class="cls-4" d="M185.81,350.08h-2.35v-1.57h2.35Zm0,9.23h-2.35v-7.49h2.35Z"/><path class="cls-4" d="M189.69,359.31h-2.34v-10.8h2.34Z"/><path class="cls-4" d="M193.57,350.08h-2.34v-1.57h2.34Zm0,9.23h-2.34v-7.49h2.34Z"/><path class="cls-4" d="M197.69,350v1.86h1.19v1.62h-1.19v3.43a.89.89,0,0,0,.16.58.57.57,0,0,0,.44.18l.29,0,.27-.05.16,1.73c-.23.06-.44.1-.63.13a6.59,6.59,0,0,1-.67,0,2.35,2.35,0,0,1-1.76-.61,2.71,2.71,0,0,1-.6-1.95v-3.45h-1v-1.62h1V350Z"/><path class="cls-4" d="M202.91,356v.05h0l1.24-4.24h2.49l-3,8.6a4,4,0,0,1-.9,1.37,2.38,2.38,0,0,1-1.73.54,2.29,2.29,0,0,1-.5,0l-.61-.14.28-1.67.15,0h.12a1.53,1.53,0,0,0,.81-.17.92.92,0,0,0,.38-.48l.19-.49-2.59-7.57h2.49Z"/><path class="cls-7" d="M199.13,317.05H195l-7.16-31.67a14.89,14.89,0,0,0-29.07,0l-7.16,31.67h-4.13a4.71,4.71,0,0,0-4.71,4.71h61.11A4.71,4.71,0,0,0,199.13,317.05Z"/><circle class="cls-3" cx="173.29" cy="288.63" r="12.36"/><polygon class="cls-7" points="165.74 279.93 171.4 289.7 173.29 288.62 174.63 286.89 165.74 279.93"/><circle class="cls-8" cx="173.29" cy="288.62" r="2.97"/><path class="cls-7" d="M60,272.47h68.82a6.28,6.28,0,0,0,6.28-6.28H53.73A6.28,6.28,0,0,0,60,272.47Z"/><line class="cls-6" x1="94.42" y1="288.62" x2="94.42" y2="272.38"/><circle class="cls-8" cx="94.42" cy="288.62" r="7.63"/><path class="cls-7" d="M217.42,272.47h68.82a6.28,6.28,0,0,0,6.27-6.28H211.14A6.28,6.28,0,0,0,217.42,272.47Z"/><line class="cls-6" x1="251.83" y1="288.62" x2="251.83" y2="272.38"/><circle class="cls-8" cx="251.83" cy="288.62" r="7.63"/><line class="cls-9" x1="188.74" y1="69.26" x2="188.73" y2="69.26"/><line class="cls-10" x1="182.77" y1="69.26" x2="161.79" y2="69.26"/><line class="cls-9" x1="158.81" y1="69.26" x2="158.8" y2="69.26"/><line class="cls-11" x1="188.74" y1="40.75" x2="188.73" y2="40.75"/><line class="cls-12" x1="182.77" y1="40.75" x2="161.79" y2="40.75"/><line class="cls-11" x1="158.81" y1="40.75" x2="158.8" y2="40.75"/><line class="cls-9" x1="188.74" y1="388.83" x2="188.73" y2="388.83"/><line class="cls-10" x1="182.77" y1="388.83" x2="161.79" y2="388.83"/><line class="cls-9" x1="158.81" y1="388.83" x2="158.8" y2="388.83"/><line class="cls-11" x1="188.74" y1="366.49" x2="188.73" y2="366.49"/><line class="cls-12" x1="182.77" y1="366.49" x2="161.79" y2="366.49"/><line class="cls-11" x1="158.81" y1="366.49" x2="158.8" y2="366.49"/><line class="cls-6" x1="94.42" y1="613.13" x2="251.83" y2="613.13"/><path class="cls-7" d="M199.13,641.55H195l-7.16-31.67a14.89,14.89,0,0,0-29.07,0l-7.16,31.67h-4.13a4.72,4.72,0,0,0-4.71,4.72h61.11A4.72,4.72,0,0,0,199.13,641.55Z"/><circle class="cls-3" cx="173.29" cy="613.13" r="12.36"/><polygon class="cls-7" points="180.94 604.52 171.97 611.38 173.29 613.12 175.18 614.23 180.94 604.52"/><circle class="cls-8" cx="173.29" cy="613.12" r="2.97"/><path class="cls-7" d="M60,597h68.82a6.28,6.28,0,0,0,6.28-6.27H53.73A6.28,6.28,0,0,0,60,597Z"/><line class="cls-6" x1="94.42" y1="613.12" x2="94.42" y2="596.89"/><circle class="cls-8" cx="94.42" cy="613.12" r="7.63"/><path class="cls-7" d="M217.42,597h68.82a6.27,6.27,0,0,0,6.27-6.27H211.14A6.28,6.28,0,0,0,217.42,597Z"/><line class="cls-6" x1="251.83" y1="613.12" x2="251.83" y2="596.89"/><circle class="cls-8" cx="251.83" cy="613.12" r="7.63"/><path class="cls-3" d="M324.84,179.88h44.3a12,12,0,0,1,12,12V423.51a12,12,0,0,1-12,12h-46.9"/><path class="cls-13" d="M324.84,179.88h44.3a12,12,0,0,1,12,12V423.51a12,12,0,0,1-12,12H325.31"/><polygon class="cls-7" points="334.7 423.92 336.64 425.99 326.4 435.51 336.64 445.02 334.7 447.1 322.24 435.51 334.7 423.92"/><circle class="cls-3" cx="381.14" cy="307.69" r="60.86"/><circle class="cls-14" cx="381.14" cy="307.69" r="60.86"/><path class="cls-7" d="M367.13,274.94V264.86h3.69a4.1,4.1,0,0,1,3,1.16,3.94,3.94,0,0,1,1.2,3v1.82a3.94,3.94,0,0,1-1.2,3,4.1,4.1,0,0,1-3,1.16Zm2.34-8.28v6.48h1.35a1.61,1.61,0,0,0,1.31-.65,2.67,2.67,0,0,0,.52-1.68V269a2.62,2.62,0,0,0-.52-1.67,1.61,1.61,0,0,0-1.31-.65Z"/><path class="cls-7" d="M379.57,275.08a3.45,3.45,0,0,1-2.66-1,3.65,3.65,0,0,1-1-2.61v-.26a4.17,4.17,0,0,1,.91-2.8,3.24,3.24,0,0,1,2.63-1.07,3,3,0,0,1,2.35.91,3.5,3.5,0,0,1,.84,2.48v1.23h-4.29l0,0a1.44,1.44,0,0,0,.44.95,1.52,1.52,0,0,0,1.09.36,4.46,4.46,0,0,0,1.12-.11,6.53,6.53,0,0,0,1-.35l.56,1.42a4.15,4.15,0,0,1-1.3.6A6.06,6.06,0,0,1,379.57,275.08Zm-.09-6a.94.94,0,0,0-.82.36,1.76,1.76,0,0,0-.31,1v0h2v-.18a1.53,1.53,0,0,0-.2-.88A.79.79,0,0,0,379.48,269.11Z"/><path class="cls-7" d="M390.59,271.35a4.52,4.52,0,0,1-.73,2.72,2.5,2.5,0,0,1-2.17,1,2.15,2.15,0,0,1-1.07-.26,2.35,2.35,0,0,1-.78-.76l-.14.88h-2v-10.8H386v4a2.07,2.07,0,0,1,.72-.64,1.94,1.94,0,0,1,.95-.23,2.46,2.46,0,0,1,2.18,1.06,4.83,4.83,0,0,1,.74,2.84Zm-2.33-.14a3.79,3.79,0,0,0-.25-1.55.92.92,0,0,0-.93-.55,1.45,1.45,0,0,0-.65.14,1.06,1.06,0,0,0-.43.41v3.15a1,1,0,0,0,.44.36,1.82,1.82,0,0,0,.66.11.91.91,0,0,0,.92-.48,3.36,3.36,0,0,0,.24-1.45Z"/><path class="cls-7" d="M394.31,265.59v1.86h1.18v1.62h-1.18v3.43a.84.84,0,0,0,.16.58.57.57,0,0,0,.44.18l.29,0,.27-.05.16,1.73a5.26,5.26,0,0,1-1.31.16,2.33,2.33,0,0,1-1.75-.61,2.72,2.72,0,0,1-.6-2v-3.44h-1.05v-1.62H392v-1.86Z"/><path class="cls-7" d="M348.44,288.08v3.86H346.1V281.87h3.51a4.38,4.38,0,0,1,2.78.81,2.67,2.67,0,0,1,1,2.21,2.27,2.27,0,0,1-.41,1.35,3,3,0,0,1-1.22.91,2.28,2.28,0,0,1,1.34.87,2.72,2.72,0,0,1,.4,1.53v.64a4,4,0,0,0,.12.9,1.21,1.21,0,0,0,.41.72v.13h-2.42a1.15,1.15,0,0,1-.36-.75,7.47,7.47,0,0,1-.08-1v-.61a1.51,1.51,0,0,0-.38-1.1,1.55,1.55,0,0,0-1.12-.38Zm0-1.8h1.19a1.58,1.58,0,0,0,1.08-.32,1.17,1.17,0,0,0,.37-.92,1.31,1.31,0,0,0-.39-1,1.42,1.42,0,0,0-1.08-.38h-1.17Z"/><path class="cls-7" d="M358.32,292.09a3.45,3.45,0,0,1-2.66-1,3.65,3.65,0,0,1-1-2.61v-.26a4.17,4.17,0,0,1,.91-2.8,3.21,3.21,0,0,1,2.63-1.07,3,3,0,0,1,2.35.9,3.54,3.54,0,0,1,.84,2.49v1.22h-4.29l0,.05a1.46,1.46,0,0,0,.44.95,1.52,1.52,0,0,0,1.09.36,5,5,0,0,0,1.12-.11,6.53,6.53,0,0,0,1-.35l.56,1.42a4.15,4.15,0,0,1-1.3.6A6.06,6.06,0,0,1,358.32,292.09Zm-.09-6a1,1,0,0,0-.82.35,1.8,1.8,0,0,0-.31,1v0h2v-.18a1.49,1.49,0,0,0-.2-.87A.79.79,0,0,0,358.23,286.12Z"/><path class="cls-7" d="M369.34,288.36a4.4,4.4,0,0,1-.76,2.71,2.52,2.52,0,0,1-2.14,1,2.06,2.06,0,0,1-1.69-.81v3.54h-2.34V284.46h2.21l.06.81a2.26,2.26,0,0,1,.75-.7,1.92,1.92,0,0,1,1-.25,2.51,2.51,0,0,1,2.16,1.07,4.77,4.77,0,0,1,.76,2.82Zm-2.33-.15a3.44,3.44,0,0,0-.28-1.52.92.92,0,0,0-.88-.57,1.48,1.48,0,0,0-.67.14,1.09,1.09,0,0,0-.43.42v3.13a.92.92,0,0,0,.44.36,1.64,1.64,0,0,0,.67.12.91.91,0,0,0,.88-.51,3.06,3.06,0,0,0,.27-1.42Z"/><path class="cls-7" d="M374.7,291.94a3.37,3.37,0,0,1-.23-.54,3.76,3.76,0,0,1-.14-.62,2.69,2.69,0,0,1-.75,1,1.81,1.81,0,0,1-1.16.36,2.59,2.59,0,0,1-1.84-.61,2.15,2.15,0,0,1-.65-1.65,2,2,0,0,1,.84-1.72,4.37,4.37,0,0,1,2.54-.6h1V287a1.09,1.09,0,0,0-.23-.74.88.88,0,0,0-.7-.25.82.82,0,0,0-.6.19.78.78,0,0,0-.2.59h-2.27v0a1.94,1.94,0,0,1,.85-1.71,3.82,3.82,0,0,1,2.38-.69,3.52,3.52,0,0,1,2.26.69,2.4,2.4,0,0,1,.86,2v2.82a5.52,5.52,0,0,0,.1,1.11,6.56,6.56,0,0,0,.3,1Zm-1.65-1.52a1.37,1.37,0,0,0,.76-.2,1.11,1.11,0,0,0,.46-.48v-1h-.94a1.05,1.05,0,0,0-.81.27,1,1,0,0,0-.25.69.64.64,0,0,0,.22.51A.76.76,0,0,0,373.05,290.42Z"/><path class="cls-7" d="M380.69,288.64v.06h0l1.24-4.24h2.49l-3,8.6a4.22,4.22,0,0,1-.89,1.37,2.42,2.42,0,0,1-1.74.54,2.35,2.35,0,0,1-.5,0l-.61-.14.29-1.67.14,0h.13a1.54,1.54,0,0,0,.81-.16,1,1,0,0,0,.38-.49l.18-.48-2.58-7.57h2.48Z"/><path class="cls-7" d="M387.27,284.46l.09,1a2.47,2.47,0,0,1,.89-.84,2.53,2.53,0,0,1,1.22-.29,2.34,2.34,0,0,1,1.21.3,2,2,0,0,1,.76.93,2.51,2.51,0,0,1,.89-.91,2.47,2.47,0,0,1,1.27-.32,2.09,2.09,0,0,1,1.72.78,3.85,3.85,0,0,1,.62,2.42v4.42H393.6v-4.42a1.93,1.93,0,0,0-.23-1.1.78.78,0,0,0-.67-.3,1.4,1.4,0,0,0-.6.12,1.31,1.31,0,0,0-.44.33,1.34,1.34,0,0,0,0,.21v5.16h-2.33v-4.42a1.89,1.89,0,0,0-.23-1.1.78.78,0,0,0-.68-.3,1.37,1.37,0,0,0-.58.12,1.31,1.31,0,0,0-.44.33v5.37h-2.34v-7.48Z"/><path class="cls-7" d="M400.6,292.09a3.49,3.49,0,0,1-2.67-1,3.69,3.69,0,0,1-1-2.61v-.26a4.17,4.17,0,0,1,.91-2.8,3.21,3.21,0,0,1,2.63-1.07,3,3,0,0,1,2.35.9,3.54,3.54,0,0,1,.84,2.49v1.22h-4.29l0,.05a1.46,1.46,0,0,0,.44.95,1.52,1.52,0,0,0,1.09.36,5,5,0,0,0,1.12-.11,6.53,6.53,0,0,0,1-.35l.56,1.42a4.15,4.15,0,0,1-1.3.6A6.11,6.11,0,0,1,400.6,292.09Zm-.09-6a1,1,0,0,0-.82.35,1.8,1.8,0,0,0-.31,1v0h2v-.18a1.58,1.58,0,0,0-.2-.87A.79.79,0,0,0,400.51,286.12Z"/><path class="cls-7" d="M406.84,284.46l.09,1.05a2.7,2.7,0,0,1,.9-.88,2.37,2.37,0,0,1,1.21-.31,2.11,2.11,0,0,1,1.72.75,3.68,3.68,0,0,1,.62,2.37v4.5H409v-4.51a1.73,1.73,0,0,0-.23-1,.77.77,0,0,0-.66-.3,1.65,1.65,0,0,0-.68.13,1.38,1.38,0,0,0-.49.37v5.32h-2.34v-7.48Z"/><path class="cls-7" d="M415.34,282.6v1.86h1.18v1.62h-1.18v3.43a.84.84,0,0,0,.16.58.59.59,0,0,0,.44.17h.29l.27-.06.16,1.73a4.85,4.85,0,0,1-.64.13,4.38,4.38,0,0,1-.67,0,2.29,2.29,0,0,1-1.75-.62,2.71,2.71,0,0,1-.6-2v-3.44H412v-1.62H413V282.6Z"/><path class="cls-7" d="M345.75,305.22a4.75,4.75,0,0,1,.77-2.82,2.48,2.48,0,0,1,2.15-1.07,2,2,0,0,1,.94.23,2.43,2.43,0,0,1,.75.69v-4.09h2.34V309h-2.05l-.16-.91a2.44,2.44,0,0,1-.79.78,1.91,1.91,0,0,1-1,.28,2.52,2.52,0,0,1-2.15-1,4.46,4.46,0,0,1-.76-2.7Zm2.34.15a3.06,3.06,0,0,0,.27,1.42.92.92,0,0,0,.89.51,1.45,1.45,0,0,0,.65-.14,1.16,1.16,0,0,0,.46-.39v-3a1.32,1.32,0,0,0-.45-.46,1.34,1.34,0,0,0-.64-.15.93.93,0,0,0-.9.57,3.44,3.44,0,0,0-.28,1.52Z"/><path class="cls-7" d="M357.35,309.1a3.52,3.52,0,0,1-2.67-1,3.69,3.69,0,0,1-1-2.61v-.27a4.16,4.16,0,0,1,.91-2.79,3.21,3.21,0,0,1,2.63-1.07,3,3,0,0,1,2.35.9,3.54,3.54,0,0,1,.84,2.49v1.22h-4.29l0,0a1.42,1.42,0,0,0,.44.95,1.48,1.48,0,0,0,1.09.37,5,5,0,0,0,1.12-.11,6.67,6.67,0,0,0,1-.36l.56,1.43a4.38,4.38,0,0,1-1.3.6A6.11,6.11,0,0,1,357.35,309.1Zm-.09-6a.94.94,0,0,0-.82.35,1.8,1.8,0,0,0-.31,1v0h2v-.18a1.61,1.61,0,0,0-.2-.88A.79.79,0,0,0,357.26,303.13Z"/><path class="cls-7" d="M364.12,299.6v1.86h1.18v1.62h-1.18v3.44a.81.81,0,0,0,.16.57.57.57,0,0,0,.44.18H365l.27-.06.16,1.73c-.23.06-.44.1-.63.13a4.52,4.52,0,0,1-.68,0,2.33,2.33,0,0,1-1.75-.62,2.71,2.71,0,0,1-.6-2v-3.45h-1v-1.62h1V299.6Z"/><path class="cls-7" d="M369.76,309.1a3.52,3.52,0,0,1-2.67-1,3.69,3.69,0,0,1-1-2.61v-.27a4.16,4.16,0,0,1,.91-2.79,3.2,3.2,0,0,1,2.63-1.07,3.05,3.05,0,0,1,2.35.9,3.54,3.54,0,0,1,.84,2.49v1.22h-4.3v0a1.42,1.42,0,0,0,.44.95,1.47,1.47,0,0,0,1.09.37,5,5,0,0,0,1.12-.11,7.07,7.07,0,0,0,1-.36l.56,1.43a4.38,4.38,0,0,1-1.3.6A6.11,6.11,0,0,1,369.76,309.1Zm-.09-6a1,1,0,0,0-.83.35,1.8,1.8,0,0,0-.3,1v0h2v-.18a1.61,1.61,0,0,0-.2-.88A.79.79,0,0,0,369.67,303.13Z"/><path class="cls-7" d="M378,303.46h-.76a1.34,1.34,0,0,0-.66.15,1,1,0,0,0-.38.42V309h-2.34v-7.49h2.21l.08,1.1a2.29,2.29,0,0,1,.62-.91,1.35,1.35,0,0,1,.91-.32,1.23,1.23,0,0,1,.28,0l.27.06Z"/><path class="cls-7" d="M381,301.46l.09,1a2.42,2.42,0,0,1,2.11-1.12,2.34,2.34,0,0,1,1.21.3,1.87,1.87,0,0,1,.76.93,2.51,2.51,0,0,1,.89-.91,2.37,2.37,0,0,1,1.27-.32,2.09,2.09,0,0,1,1.72.78,3.85,3.85,0,0,1,.62,2.42V309h-2.34v-4.42a1.93,1.93,0,0,0-.23-1.1.78.78,0,0,0-.67-.3,1.4,1.4,0,0,0-.6.12,1.31,1.31,0,0,0-.44.33,1.34,1.34,0,0,0,0,.21V309h-2.33v-4.42a2,2,0,0,0-.23-1.11.77.77,0,0,0-.68-.29,1.37,1.37,0,0,0-.58.12,1.31,1.31,0,0,0-.44.33V309h-2.34v-7.49Z"/><path class="cls-7" d="M393.5,299.73h-2.35v-1.57h2.35Zm0,9.22h-2.35v-7.49h2.35Z"/><path class="cls-7" d="M397.08,301.46l.09,1.06a2.72,2.72,0,0,1,.91-.88,2.34,2.34,0,0,1,1.21-.31,2.15,2.15,0,0,1,1.72.74,3.73,3.73,0,0,1,.62,2.38V309h-2.34v-4.51a1.73,1.73,0,0,0-.23-1,.79.79,0,0,0-.67-.3,1.6,1.6,0,0,0-.67.13,1.42,1.42,0,0,0-.5.37V309h-2.33v-7.49Z"/><path class="cls-7" d="M406.22,309.1a3.52,3.52,0,0,1-2.67-1,3.69,3.69,0,0,1-1-2.61v-.27a4.16,4.16,0,0,1,.91-2.79,3.2,3.2,0,0,1,2.63-1.07,3.05,3.05,0,0,1,2.35.9,3.54,3.54,0,0,1,.83,2.49v1.22H405v0a1.42,1.42,0,0,0,.44.95,1.47,1.47,0,0,0,1.09.37,5,5,0,0,0,1.12-.11,7.51,7.51,0,0,0,1-.36l.56,1.43a4.38,4.38,0,0,1-1.3.6A6.11,6.11,0,0,1,406.22,309.1Zm-.09-6a1,1,0,0,0-.83.35,1.8,1.8,0,0,0-.3,1v0h2v-.18a1.61,1.61,0,0,0-.2-.88A.79.79,0,0,0,406.13,303.13Z"/><path class="cls-7" d="M414.21,306.85a.62.62,0,0,0-.32-.5,3.63,3.63,0,0,0-1.14-.39,4.57,4.57,0,0,1-2-.79,1.8,1.8,0,0,1-.66-1.48,2.12,2.12,0,0,1,.83-1.68,3.45,3.45,0,0,1,2.25-.68,3.89,3.89,0,0,1,2.38.66,2,2,0,0,1,.85,1.73l0,0h-2.27a.92.92,0,0,0-.22-.67,1,1,0,0,0-.73-.23,1,1,0,0,0-.61.2.64.64,0,0,0-.25.52.6.6,0,0,0,.29.5,3.15,3.15,0,0,0,1.15.37,4.65,4.65,0,0,1,2,.81,1.84,1.84,0,0,1,.66,1.52,2,2,0,0,1-.9,1.66,3.91,3.91,0,0,1-2.37.66,3.54,3.54,0,0,1-2.42-.78,2.15,2.15,0,0,1-.85-1.73l0,0h2.11a.93.93,0,0,0,.33.77,1.37,1.37,0,0,0,.87.24,1.16,1.16,0,0,0,.71-.19A.6.6,0,0,0,414.21,306.85Z"/><path class="cls-7" d="M348.55,322.56l0,0a3.28,3.28,0,0,1-1,2.62,4.12,4.12,0,0,1-2.83.89,3.91,3.91,0,0,1-4.13-4.14v-2.1a4.15,4.15,0,0,1,1.09-3,3.81,3.81,0,0,1,2.88-1.14,4.48,4.48,0,0,1,3,.89,3.15,3.15,0,0,1,1,2.6l0,0h-2.28a1.87,1.87,0,0,0-.39-1.33,1.78,1.78,0,0,0-1.3-.4,1.37,1.37,0,0,0-1.21.63,3,3,0,0,0-.42,1.69V322a2.81,2.81,0,0,0,.46,1.7,1.56,1.56,0,0,0,1.33.64,1.49,1.49,0,0,0,1.16-.41,2,2,0,0,0,.36-1.34Z"/><path class="cls-7" d="M349.41,322.15a3.92,3.92,0,0,1,1-2.75,3.38,3.38,0,0,1,2.66-1.07,3.41,3.41,0,0,1,2.67,1.07,3.92,3.92,0,0,1,1,2.75v.14a4,4,0,0,1-1,2.76,3.88,3.88,0,0,1-5.33,0,4,4,0,0,1-1-2.76Zm2.34.14a3.19,3.19,0,0,0,.29,1.48,1.19,1.19,0,0,0,2,0,3.19,3.19,0,0,0,.29-1.48v-.14a3.23,3.23,0,0,0-.29-1.47,1.06,1.06,0,0,0-1-.55,1,1,0,0,0-1,.56,3.18,3.18,0,0,0-.29,1.46Z"/><path class="cls-7" d="M359.84,318.47l.09,1a2.7,2.7,0,0,1,.91-.87,2.34,2.34,0,0,1,1.2-.32,2.11,2.11,0,0,1,1.72.75,3.73,3.73,0,0,1,.62,2.38V326H362v-4.51a1.76,1.76,0,0,0-.23-1,.77.77,0,0,0-.66-.3,1.74,1.74,0,0,0-.67.13,1.36,1.36,0,0,0-.5.38V326h-2.33v-7.49Z"/><path class="cls-7" d="M369.56,323.86a.62.62,0,0,0-.32-.5,3.63,3.63,0,0,0-1.14-.39,4.52,4.52,0,0,1-2-.79,1.8,1.8,0,0,1-.66-1.48,2.12,2.12,0,0,1,.83-1.68,3.4,3.4,0,0,1,2.25-.69,3.89,3.89,0,0,1,2.38.67,2,2,0,0,1,.84,1.73v0h-2.27a.9.9,0,0,0-.22-.67,1,1,0,0,0-.73-.23,1,1,0,0,0-.61.2.62.62,0,0,0-.25.51.6.6,0,0,0,.29.51,3.15,3.15,0,0,0,1.15.37,4.65,4.65,0,0,1,2,.81,1.84,1.84,0,0,1,.66,1.52,2,2,0,0,1-.9,1.66,3.91,3.91,0,0,1-2.37.66,3.54,3.54,0,0,1-2.42-.78,2.17,2.17,0,0,1-.85-1.73l0,0h2.11a1,1,0,0,0,.33.77,1.43,1.43,0,0,0,.87.23,1.16,1.16,0,0,0,.71-.18A.6.6,0,0,0,369.56,323.86Z"/><path class="cls-7" d="M375.59,316.61v1.86h1.19v1.62h-1.19v3.43a.89.89,0,0,0,.16.58.57.57,0,0,0,.44.18l.29,0a1.12,1.12,0,0,0,.27-.05l.16,1.73c-.23.06-.44.1-.63.13a6.36,6.36,0,0,1-.67,0,2.34,2.34,0,0,1-1.76-.62,2.71,2.71,0,0,1-.6-1.95v-3.45h-1v-1.62h1v-1.86Z"/><path class="cls-7" d="M382.05,320.47h-.76a1.29,1.29,0,0,0-.66.15.91.91,0,0,0-.38.42V326h-2.34v-7.49h2.2l.08,1.1a2.31,2.31,0,0,1,.63-.91,1.35,1.35,0,0,1,.9-.33l.29,0,.26.07Z"/><path class="cls-7" d="M387.42,324.84a2.45,2.45,0,0,1-.86.94,2.44,2.44,0,0,1-3.05-.49,4,4,0,0,1-.66-2.53v-4.29h2.33v4.31a2.27,2.27,0,0,0,.23,1.2.78.78,0,0,0,.69.33,1.9,1.9,0,0,0,.66-.11,1.32,1.32,0,0,0,.49-.31v-5.42h2.34V326H387.7Z"/><path class="cls-7" d="M394.08,324.31a.92.92,0,0,0,.71-.26,1.09,1.09,0,0,0,.24-.75h2.13v0a2.43,2.43,0,0,1-.85,2,3.23,3.23,0,0,1-2.24.78,3.35,3.35,0,0,1-2.64-1.06,4,4,0,0,1-.92-2.75v-.16a4.06,4.06,0,0,1,.92-2.75,3.3,3.3,0,0,1,2.62-1.06,3.22,3.22,0,0,1,2.28.8,2.72,2.72,0,0,1,.83,2.17v0H395a1.38,1.38,0,0,0-.25-.87.84.84,0,0,0-.72-.34,1,1,0,0,0-.94.55,3.31,3.31,0,0,0-.27,1.46v.16a3.27,3.27,0,0,0,.27,1.47A1,1,0,0,0,394.08,324.31Z"/><path class="cls-7" d="M400.81,316.61v1.86H402v1.62h-1.19v3.43a.89.89,0,0,0,.16.58.57.57,0,0,0,.44.18l.29,0a1.12,1.12,0,0,0,.27-.05l.16,1.73c-.23.06-.44.1-.63.13a6.36,6.36,0,0,1-.67,0,2.34,2.34,0,0,1-1.76-.62,2.71,2.71,0,0,1-.6-1.95v-3.45h-1v-1.62h1v-1.86Z"/><path class="cls-7" d="M405.58,316.74h-2.35v-1.58h2.35Zm0,9.22h-2.35v-7.49h2.35Z"/><path class="cls-7" d="M406.7,322.15a3.92,3.92,0,0,1,1-2.75,3.85,3.85,0,0,1,5.33,0,3.92,3.92,0,0,1,1,2.75v.14a4,4,0,0,1-1,2.76,3.88,3.88,0,0,1-5.33,0,4,4,0,0,1-1-2.76Zm2.34.14a3.19,3.19,0,0,0,.29,1.48,1.19,1.19,0,0,0,2,0,3.05,3.05,0,0,0,.3-1.48v-.14a3.09,3.09,0,0,0-.3-1.47,1.06,1.06,0,0,0-1-.55,1,1,0,0,0-1,.56,3.18,3.18,0,0,0-.29,1.46Z"/><path class="cls-7" d="M417.13,318.47l.09,1a2.79,2.79,0,0,1,.91-.87,2.34,2.34,0,0,1,1.2-.32,2.1,2.1,0,0,1,1.72.75,3.73,3.73,0,0,1,.62,2.38V326h-2.34v-4.51a1.69,1.69,0,0,0-.23-1,.77.77,0,0,0-.66-.3,1.78,1.78,0,0,0-.67.13,1.36,1.36,0,0,0-.5.38V326h-2.33v-7.49Z"/><path class="cls-7" d="M341.05,343V332.89h3.69a4.13,4.13,0,0,1,3,1.16,3.94,3.94,0,0,1,1.2,3v1.82a3.94,3.94,0,0,1-1.2,3,4.13,4.13,0,0,1-3,1.16Zm2.34-8.28v6.48h1.35a1.61,1.61,0,0,0,1.31-.65,2.61,2.61,0,0,0,.52-1.68V337a2.58,2.58,0,0,0-.52-1.67,1.61,1.61,0,0,0-1.31-.65Z"/><path class="cls-7" d="M353.5,343.11a3.46,3.46,0,0,1-2.67-1,3.7,3.7,0,0,1-1-2.61v-.26a4.24,4.24,0,0,1,.91-2.8,3.26,3.26,0,0,1,2.64-1.07,3,3,0,0,1,2.35.91,3.54,3.54,0,0,1,.83,2.48V340H352.3v0a1.43,1.43,0,0,0,.43.95,1.55,1.55,0,0,0,1.1.36,4.37,4.37,0,0,0,1.11-.11,6.53,6.53,0,0,0,1-.35l.56,1.43a4.27,4.27,0,0,1-1.3.59A6,6,0,0,1,353.5,343.11Zm-.09-6a1,1,0,0,0-.83.36,1.76,1.76,0,0,0-.31,1l0,0h2v-.18a1.52,1.52,0,0,0-.21-.88A.77.77,0,0,0,353.41,337.14Z"/><path class="cls-7" d="M364.51,339.38a4.52,4.52,0,0,1-.73,2.72,2.49,2.49,0,0,1-2.17,1,2.07,2.07,0,0,1-1.07-.26,2.35,2.35,0,0,1-.78-.76l-.14.88h-2v-10.8h2.34v4a2.28,2.28,0,0,1,.72-.64,2,2,0,0,1,.95-.23,2.48,2.48,0,0,1,2.19,1.06,4.9,4.9,0,0,1,.73,2.84Zm-2.33-.14a3.79,3.79,0,0,0-.25-1.55.91.91,0,0,0-.92-.55,1.46,1.46,0,0,0-.66.14,1.13,1.13,0,0,0-.43.41v3.15a1,1,0,0,0,.44.36,1.82,1.82,0,0,0,.66.11.94.94,0,0,0,.93-.48,3.55,3.55,0,0,0,.23-1.45Z"/><path class="cls-7" d="M368.23,333.62v1.86h1.19v1.62h-1.19v3.43a.89.89,0,0,0,.16.58.57.57,0,0,0,.44.18l.29,0,.27,0,.16,1.73c-.23.06-.44.1-.63.13a6.59,6.59,0,0,1-.67,0,2.34,2.34,0,0,1-1.76-.61,2.71,2.71,0,0,1-.6-1.95V337.1h-1v-1.62h1v-1.86Z"/><path class="cls-7" d="M378.4,343a3.25,3.25,0,0,1-.22-.53,4.29,4.29,0,0,1-.14-.62,3.16,3.16,0,0,1-.75.95,1.87,1.87,0,0,1-1.17.35,2.62,2.62,0,0,1-1.83-.6,2.14,2.14,0,0,1-.65-1.65,2,2,0,0,1,.83-1.72,4.31,4.31,0,0,1,2.54-.61h1V338a1.06,1.06,0,0,0-.23-.73.91.91,0,0,0-.7-.26.84.84,0,0,0-.61.19.79.79,0,0,0-.19.59H374l0,0a1.94,1.94,0,0,1,.86-1.71,3.8,3.8,0,0,1,2.38-.69,3.47,3.47,0,0,1,2.25.69,2.38,2.38,0,0,1,.86,2v2.83a5.47,5.47,0,0,0,.11,1.1,4.83,4.83,0,0,0,.3,1Zm-1.64-1.51a1.4,1.4,0,0,0,.76-.21,1.21,1.21,0,0,0,.46-.47v-1h-1a1.07,1.07,0,0,0-.81.27,1,1,0,0,0-.24.68.69.69,0,0,0,.21.52A.84.84,0,0,0,376.76,341.45Z"/><path class="cls-7" d="M383.8,335.48l.08,1a2.36,2.36,0,0,1,.89-.83,2.49,2.49,0,0,1,1.23-.3,2.23,2.23,0,0,1,1.2.31,1.84,1.84,0,0,1,.76.92,2.59,2.59,0,0,1,.89-.91,2.49,2.49,0,0,1,1.27-.32,2.07,2.07,0,0,1,1.72.79,3.83,3.83,0,0,1,.63,2.42V343h-2.35v-4.42a2,2,0,0,0-.22-1.11.8.8,0,0,0-.68-.3,1.46,1.46,0,0,0-.6.12,1.22,1.22,0,0,0-.44.34c0,.08,0,.14,0,.2a1,1,0,0,1,0,.17v5h-2.34v-4.42a2.05,2.05,0,0,0-.22-1.11.81.81,0,0,0-.69-.3,1.4,1.4,0,0,0-.58.12,1.22,1.22,0,0,0-.44.34V343h-2.34v-7.49Z"/><path class="cls-7" d="M393.49,339.15a4,4,0,0,1,1-2.75,3.88,3.88,0,0,1,5.33,0,4,4,0,0,1,1,2.75v.15a4,4,0,0,1-1,2.76,3.39,3.39,0,0,1-2.65,1.05,3.43,3.43,0,0,1-2.68-1.05,4,4,0,0,1-1-2.76Zm2.34.15a3.05,3.05,0,0,0,.3,1.48,1,1,0,0,0,1,.53,1,1,0,0,0,1-.54,3,3,0,0,0,.3-1.47v-.15a3.08,3.08,0,0,0-.3-1.46,1,1,0,0,0-1-.55,1,1,0,0,0-1,.55,3.08,3.08,0,0,0-.3,1.46Z"/><path class="cls-7" d="M406.28,341.85a2.42,2.42,0,0,1-.86.93,2.45,2.45,0,0,1-3.05-.48,4,4,0,0,1-.66-2.53v-4.29h2.34v4.3a2.3,2.3,0,0,0,.22,1.21.78.78,0,0,0,.7.32,1.89,1.89,0,0,0,.65-.1,1.32,1.32,0,0,0,.49-.31v-5.42h2.34V343h-1.89Z"/><path class="cls-7" d="M411.89,335.48l.09,1a2.67,2.67,0,0,1,.9-.87,2.35,2.35,0,0,1,1.21-.32,2.12,2.12,0,0,1,1.72.75,3.71,3.71,0,0,1,.62,2.37V343h-2.34v-4.51a1.74,1.74,0,0,0-.23-1,.77.77,0,0,0-.66-.3,1.65,1.65,0,0,0-.68.13,1.3,1.3,0,0,0-.49.38V343h-2.34v-7.49Z"/><path class="cls-7" d="M420.39,333.62v1.86h1.18v1.62h-1.18v3.43a.84.84,0,0,0,.16.58.56.56,0,0,0,.44.18l.29,0,.27,0,.16,1.73c-.24.06-.45.1-.64.13a6.45,6.45,0,0,1-.67,0,2.31,2.31,0,0,1-1.75-.61,2.71,2.71,0,0,1-.6-1.95V337.1H417v-1.62h1.05v-1.86Z"/><line class="cls-15" x1="173.29" y1="64.58" x2="173.29" y2="46.1"/><polygon class="cls-16" points="179.09 50.8 178.05 51.76 173.29 46.64 168.54 51.76 167.5 50.8 173.29 44.56 179.09 50.8"/><line class="cls-17" x1="173.29" y1="385.05" x2="173.29" y2="371.28"/><polygon class="cls-18" points="179.09 375.98 178.05 376.94 173.29 371.83 168.54 376.94 167.5 375.98 173.29 369.75 179.09 375.98"/></svg>