<svg xmlns="http://www.w3.org/2000/svg" viewBox="0 0 24 24"><title>icons</title><path d="M20.63,6.81,21,6.4a.86.86,0,0,0,0-1.21L18.8,3a.85.85,0,0,0-1.2,0l-.41.4-.46-.46a.85.85,0,0,0-.64-.25l-5.47.24a.86.86,0,0,0-.75.54.83.83,0,0,0,.19.91l3.08,3.08-3,3L3.57,16.24a3,3,0,0,0,2,5.18h.09a2.91,2.91,0,0,0,2.13-1l5.79-6.53,3-3L18,12.3a.86.86,0,0,0,.61.25h0a.86.86,0,0,0,.6-.25l2.85-2.85a.86.86,0,0,0,0-1.21Zm-16,12.54a1.25,1.25,0,0,1-.37-.93,1.28,1.28,0,0,1,.42-.91l6.61-5.85,3-3,1,1-3,3.05L6.49,19.29a1.25,1.25,0,0,1-.91.43A1.21,1.21,0,0,1,4.65,19.35ZM20.27,8.85,18.62,10.5l-6-6,3.16-.14Z"/></svg>