<svg xmlns="http://www.w3.org/2000/svg" viewBox="0 0 24 24"><title>icons</title><path d="M3.31,19.55V17.83a2.45,2.45,0,0,1,2.44-2.44h6.87a2.44,2.44,0,0,1,2.44,2.44v1.72a1,1,0,0,0,2,0V17.83a4.43,4.43,0,0,0-4.43-4.42H5.75a4.42,4.42,0,0,0-4.42,4.42v1.72a1,1,0,0,0,2,0Z"/><path d="M9.19,12A4.43,4.43,0,1,0,4.76,7.53,4.43,4.43,0,0,0,9.19,12Zm0-6.87A2.44,2.44,0,1,1,6.75,7.53,2.44,2.44,0,0,1,9.19,5.09Z"/><path d="M18.88,13.55a1,1,0,1,0-.5,1.92,2.44,2.44,0,0,1,1.83,2.36v1.72a1,1,0,0,0,2,0V17.83A4.43,4.43,0,0,0,18.88,13.55Z"/><path d="M15,9.9a1,1,0,0,0-.71,1.21,1,1,0,0,0,1,.74l.24,0a4.42,4.42,0,0,0,0-8.57,1,1,0,0,0-1.2.71A1,1,0,0,0,15,5.17,2.44,2.44,0,0,1,15,9.9Z"/></svg>