<svg xmlns="http://www.w3.org/2000/svg" width="24" height="24" viewBox="0 0 24 24"><title>icons</title><g id="Layer_2" data-name="Layer 2"><path d="M2.73,9.13V19.25a2.83,2.83,0,0,0,2.83,2.83H18.44a2.83,2.83,0,0,0,2.83-2.83V9.13a1,1,0,0,0-.38-.79L12.61,1.9a1,1,0,0,0-1.22,0L3.11,8.34A1,1,0,0,0,2.73,9.13Zm2,.48L12,3.94l7.29,5.67v9.64a.85.85,0,0,1-.85.85H5.56a.85.85,0,0,1-.85-.85Z"/><path d="M8.4,13.08a.62.62,0,0,0,.31.05h.21v3.19a.68.68,0,0,0,.07.4.4.4,0,0,0,.38.22.41.41,0,0,0,.38-.22.77.77,0,0,0,.07-.4V13.13h.48a.64.64,0,0,0,.32-.05.32.32,0,0,0,.16-.29.3.3,0,0,0-.16-.29.53.53,0,0,0-.32-.06H9.82v-.57c0-.31.12-.5.45-.51a.93.93,0,0,0,.33-.06.37.37,0,0,0,.18-.32.34.34,0,0,0-.18-.31.73.73,0,0,0-.38-.07h-.09a1.14,1.14,0,0,0-1.21,1.23v.61H8.71a.52.52,0,0,0-.31.06.3.3,0,0,0-.16.29A.32.32,0,0,0,8.4,13.08Z"/><path d="M11.33,13.08a.58.58,0,0,0,.31.05h.2v2.53a1.14,1.14,0,0,0,1.21,1.24h.09a.85.85,0,0,0,.38-.07.35.35,0,0,0,.18-.31.37.37,0,0,0-.18-.32.72.72,0,0,0-.33-.06c-.33,0-.45-.21-.45-.51v-2.5h.48a.64.64,0,0,0,.32-.05.32.32,0,0,0,.15-.29.3.3,0,0,0-.15-.29.53.53,0,0,0-.32-.06h-.48v-.7a.72.72,0,0,0-.07-.4.41.41,0,0,0-.38-.21.42.42,0,0,0-.38.21.82.82,0,0,0-.07.4v.7h-.2a.48.48,0,0,0-.31.06.29.29,0,0,0-.16.29A.31.31,0,0,0,11.33,13.08Z"/><path d="M14.48,13.42a.45.45,0,0,0-.15.3.27.27,0,0,0,.07.18.4.4,0,0,0,.3.08h1.47a.37.37,0,0,0,.21,0,.24.24,0,0,0,0-.4.39.39,0,0,0-.21,0H15l1.08-1.36a1.24,1.24,0,0,0,.36-.87.94.94,0,0,0-1.06-1,1.07,1.07,0,0,0-.75.26.87.87,0,0,0-.29.59.33.33,0,0,0,.06.19.26.26,0,0,0,.19.08.23.23,0,0,0,.16,0,.61.61,0,0,0,.1-.18.52.52,0,0,1,.54-.42.49.49,0,0,1,.53.51.92.92,0,0,1-.25.61Z"/></g></svg>