<svg xmlns="http://www.w3.org/2000/svg" width="24" height="24" viewBox="0 0 24 24"><title>icons</title><g id="Layer_2" data-name="Layer 2"><path d="M12.34,2.26a9.54,9.54,0,1,0,9.55,9.54A9.55,9.55,0,0,0,12.34,2.26Zm0,17.1A7.56,7.56,0,1,1,19.9,11.8,7.56,7.56,0,0,1,12.34,19.36Z"/><path d="M12.34,11c-.55,0-1-.34-1-.73s.47-.73,1-.73a1,1,0,0,1,1,.61.81.81,0,1,0,1.57-.41A2.47,2.47,0,0,0,13.16,8V7.44a.82.82,0,0,0-.82-.81.81.81,0,0,0-.81.81V8a2.39,2.39,0,0,0-1.84,2.24,2.51,2.51,0,0,0,2.65,2.35c.56,0,1,.34,1,.73s-.47.73-1,.73a1,1,0,0,1-1-.55.81.81,0,0,0-1.52.58,2.49,2.49,0,0,0,1.7,1.48v.58a.81.81,0,0,0,.81.81.82.82,0,0,0,.82-.81v-.58A2.39,2.39,0,0,0,15,13.34,2.52,2.52,0,0,0,12.34,11Z"/></g></svg>