<svg xmlns="http://www.w3.org/2000/svg" viewBox="0 0 24 24"><title>icons</title><path d="M20.15,16.33,12,20.41,3.85,16.33A1,1,0,0,0,3,18.11l8.59,4.29a.93.93,0,0,0,.88,0L21,18.11a1,1,0,1,0-.88-1.78Z"/><path d="M3,12.91a.86.86,0,0,0,.41.1,1,1,0,0,0,.42-1.9h0A1,1,0,1,0,3,12.91Z"/><path d="M8.73,15.77a.9.9,0,0,0,.42.1A1,1,0,0,0,9.58,14h0a1,1,0,0,0-1.31.48A1,1,0,0,0,8.73,15.77Z"/><path d="M6.74,12.57l0,0A1,1,0,0,0,5.39,13a1,1,0,0,0,.44,1.35,1.07,1.07,0,0,0,.46.11,1,1,0,0,0,.88-.54A1,1,0,0,0,6.74,12.57Z"/><path d="M11.58,17.2a1,1,0,0,0,.42.09,1.11,1.11,0,0,0,.43-.09,1,1,0,0,0,.48-1.32,1,1,0,0,0-.63-.53,1,1,0,0,0-1.19.53A1,1,0,0,0,11.58,17.2Z"/><path d="M17.31,12.54h0a1,1,0,0,0-.45,1.32,1,1,0,0,0,.9.56,1.13,1.13,0,0,0,.44-.1,1,1,0,0,0-.86-1.79Z"/><path d="M14.42,14l0,0A1,1,0,0,0,14,15.33a1,1,0,0,0,.89.53.93.93,0,0,0,.46-.12A1,1,0,1,0,14.42,14Z"/><path d="M20.17,11.11h0A1,1,0,0,0,20.59,13a1,1,0,0,0,.41-.09,1,1,0,1,0-.83-1.8Z"/><path d="M3,7.66a1,1,0,0,0,1.34-.41l0-.06a1,1,0,0,0,0-.83A1,1,0,0,0,3,5.88a1,1,0,0,0-.57.87A1,1,0,0,0,3,7.66Z"/><path d="M9.58,8.75a1,1,0,0,0-1.32.44,1,1,0,0,0,.44,1.34.91.91,0,0,0,.45.11A1,1,0,0,0,10,10.1a1,1,0,0,0-.42-1.33Z"/><path d="M6.74,7.34l0,0a1,1,0,0,0-1.32.43A1,1,0,0,0,5.83,9.1a1.07,1.07,0,0,0,.46.11,1,1,0,0,0,.88-.54A1,1,0,0,0,6.74,7.34Z"/><path d="M12.3,10.13a1,1,0,0,0-1.18.47A1,1,0,0,0,11.53,12a1,1,0,0,0,.47.11,1,1,0,0,0,.48-.12,1,1,0,0,0,.4-1.34A1,1,0,0,0,12.3,10.13Z"/><path d="M15.76,9.18a1,1,0,0,0-1.34-.43l0,0A1,1,0,0,0,14,10.1a1,1,0,0,0,.89.53.93.93,0,0,0,.46-.12A1,1,0,0,0,15.76,9.18Z"/><path d="M17.29,7.32h0a1,1,0,0,0-.41,1.33,1,1,0,1,0,.44-1.34Z"/><path d="M20.58,7.77a1,1,0,0,0,.48-.12,1,1,0,0,0,.51-.91A1,1,0,0,0,21,5.87a1,1,0,0,0-1.3.46,1,1,0,0,0,.89,1.44Z"/><path d="M14.39,4.79h0a.93.93,0,0,0,.45.11A1,1,0,0,0,15.3,3,1,1,0,0,0,14,3.45,1,1,0,0,0,14.39,4.79Z"/><path d="M18.17,4.46a1,1,0,1,0-.91,1.76h0a.87.87,0,0,0,.44.11,1,1,0,0,0,.44-1.88Z"/><path d="M12.42,1.58a1,1,0,0,0-.85,0,1,1,0,0,0-.48,1.31,1,1,0,0,0,.63.54.92.92,0,0,0,.29,0,1,1,0,0,0,.9-.58A1,1,0,0,0,12.42,1.58Z"/><path d="M6.26,6.35a.92.92,0,0,0,.45-.12h0a1,1,0,0,0,.41-1.33,1,1,0,0,0-1.77.92A1,1,0,0,0,6.26,6.35Z"/><path d="M8.67,3a1,1,0,0,0,.45,1.87,1,1,0,0,0,.46-.11h0A1,1,0,0,0,10,3.46,1,1,0,0,0,8.67,3Z"/></svg>