<svg xmlns="http://www.w3.org/2000/svg" width="24" height="24" viewBox="0 0 24 24"><title>icons</title><g id="Layer_1" data-name="Layer 1"><path d="M20,5.22H4a1,1,0,0,1,0-2H20a1,1,0,1,1,0,2Z"/></g><g id="Layer_2" data-name="Layer 2"><path d="M18.56,21H16.19a1.91,1.91,0,0,1-1.9-1.9V19H9.71v.1A1.9,1.9,0,0,1,7.81,21H5.44a1.91,1.91,0,0,1-1.9-1.9V13.73a2.83,2.83,0,0,1,.83-2l.44-.41L5.42,9A2.89,2.89,0,0,1,8.21,6.79H16A2.88,2.88,0,0,1,18.75,9l.63,2.43.41.48h0a2.72,2.72,0,0,1,.67,1.81v5.39A1.9,1.9,0,0,1,18.56,21Zm-2.28-2h2.2V13.67a.76.76,0,0,0-.19-.51l-.56-.66a1,1,0,0,1-.21-.4l-.69-2.66A.89.89,0,0,0,16,8.77H8.21a.91.91,0,0,0-.87.67L6.66,12.1a1,1,0,0,1-.28.47l-.62.58a.82.82,0,0,0-.23.58V19h2.2V18a1,1,0,0,1,1-1h6.57a1,1,0,0,1,1,1Z"/></g></svg>