<svg xmlns="http://www.w3.org/2000/svg" width="24" height="24" viewBox="0 0 24 24"><title>icons</title><g id="Layer_2" data-name="Layer 2"><path d="M20.66,10.44l-.48-.56-.72-2.76a3.1,3.1,0,0,0-3-2.33H7.75a3.11,3.11,0,0,0-3,2.33L4,9.83l-.48.45,0,.05a3,3,0,0,0-.88,2.13v6a2,2,0,0,0,2,2H7.3a2,2,0,0,0,2-2v-.23H14.7v.23a2,2,0,0,0,2,2h2.65a2,2,0,0,0,2-2V12.39a3,3,0,0,0-.72-2Zm-1.3,8-2.68,0V17.21a1,1,0,0,0-1-1H8.32a1,1,0,0,0-1,1l0,1.26-2.68,0v-6a1,1,0,0,1,.31-.74h0l.68-.64a1.08,1.08,0,0,0,.28-.47l.76-3a1.12,1.12,0,0,1,1.09-.84h8.71a1.11,1.11,0,0,1,1.08.84l.77,3a1,1,0,0,0,.21.4l.63.74a1,1,0,0,1,.24.65Z"/><path d="M12.17,14.74a.51.51,0,0,0,.52-.51v-.38a1.53,1.53,0,0,0,1.18-1.42,1.61,1.61,0,0,0-1.7-1.5c-.35,0-.65-.22-.65-.47s.3-.46.65-.46a.65.65,0,0,1,.65.38.52.52,0,0,0,.63.38.51.51,0,0,0,.37-.63A1.57,1.57,0,0,0,12.69,9V8.66a.52.52,0,0,0-.52-.52.53.53,0,0,0-.52.52V9a1.53,1.53,0,0,0-1.17,1.43A1.6,1.6,0,0,0,12.17,12c.36,0,.66.21.66.47s-.3.46-.66.46a.66.66,0,0,1-.63-.35.52.52,0,0,0-1,.37,1.61,1.61,0,0,0,1.08.95v.37A.52.52,0,0,0,12.17,14.74Z"/></g></svg>