<svg xmlns="http://www.w3.org/2000/svg" viewBox="0 0 24 24"><title>icons</title><path d="M8.92,2.77H3.34A1.49,1.49,0,0,0,1.85,4.26V20.55a1.5,1.5,0,0,0,1.49,1.5H8.92a1.5,1.5,0,0,0,1.5-1.5V4.26A1.5,1.5,0,0,0,8.92,2.77ZM8.43,20.06H3.83V4.75h4.6Z"/><path d="M12.61,22.05h2.83a1.49,1.49,0,0,0,1.49-1.5V11.81a1.49,1.49,0,0,0-1.49-1.49H12.61a1.49,1.49,0,0,0-1.49,1.49v8.74A1.5,1.5,0,0,0,12.61,22.05Zm.49-9.74H15v7.75H13.1Z"/><path d="M22.27,20.57V16.09a1.49,1.49,0,0,0-1.49-1.49H19.07a1.49,1.49,0,0,0-1.49,1.49v4.48a1.49,1.49,0,0,0,1.49,1.49h1.71A1.49,1.49,0,0,0,22.27,20.57Zm-2-.49h-.73v-3.5h.73Z"/></svg>