<svg xmlns="http://www.w3.org/2000/svg" width="24" height="24" viewBox="0 0 24 24"><title>icons</title><g id="Layer_2" data-name="Layer 2"><path d="M21.58,6.86A1,1,0,0,0,21,6L12.44,1.68a1,1,0,0,0-.88,0L3,6A1,1,0,0,0,3,7.75L6.42,9.48,3,11.2A1,1,0,0,0,3,13L6.41,14.7,3,16.42a1,1,0,0,0-.55.89,1,1,0,0,0,.55.88l8.59,4.3a1,1,0,0,0,.88,0L21,18.19a1,1,0,0,0,.55-.88,1,1,0,0,0-.55-.89L17.59,14.7,21,13a1,1,0,0,0,0-1.78L17.58,9.48,21,7.75A1,1,0,0,0,21.58,6.86ZM18.37,17.31,12,20.49,5.63,17.31l3-1.5,2.93,1.46a.93.93,0,0,0,.88,0l2.93-1.46Zm0-5.22L12,15.28,5.63,12.09l3-1.5L11.56,12a.93.93,0,0,0,.88,0l2.92-1.45Zm-6.37-2L5.63,6.86,12,3.67l6.37,3.19Z"/></g></svg>