<svg xmlns="http://www.w3.org/2000/svg" width="24" height="24" viewBox="0 0 24 24"><title>icons</title><g id="Layer_1" data-name="Layer 1"><path d="M20,20.63H4a1,1,0,0,1,0-2H20a1,1,0,0,1,0,2Z"/></g><g id="Layer_2" data-name="Layer 2"><path d="M18.56,17.48H16.19a1.91,1.91,0,0,1-1.9-1.9v-.1H9.71v.1a1.9,1.9,0,0,1-1.9,1.9H5.44a1.91,1.91,0,0,1-1.9-1.9V10.25a2.81,2.81,0,0,1,.83-2l.44-.42.61-2.38A2.88,2.88,0,0,1,8.21,3.31H16a2.87,2.87,0,0,1,2.78,2.15l.63,2.44.41.48h0a2.71,2.71,0,0,1,.67,1.8v5.4A1.9,1.9,0,0,1,18.56,17.48Zm-2.28-2h2.2V10.18a.8.8,0,0,0-.19-.51L17.73,9a1,1,0,0,1-.21-.4L16.83,6A.89.89,0,0,0,16,5.29H8.21A.91.91,0,0,0,7.34,6L6.66,8.61a.94.94,0,0,1-.28.47l-.62.59a.82.82,0,0,0-.23.58V15.5h2.2v-1a1,1,0,0,1,1-1h6.57a1,1,0,0,1,1,1Z"/></g></svg>