<svg xmlns="http://www.w3.org/2000/svg" width="24" height="24" viewBox="0 0 24 24"><title>icons</title><g id="Layer_1" data-name="Layer 1"><path d="M18.44,22.08H5.55a2.83,2.83,0,0,1-2.83-2.83V9.13a1,1,0,0,1,.38-.79L11.39,1.9a1,1,0,0,1,1.21,0l8.29,6.44a1,1,0,0,1,.38.79V19.25A2.83,2.83,0,0,1,18.44,22.08ZM4.71,9.61v9.64a.85.85,0,0,0,.84.85H18.44a.85.85,0,0,0,.85-.85V9.61L12,3.94Z"/></g><g id="Layer_2" data-name="Layer 2"><path d="M16.72,19.23H15a1.66,1.66,0,0,1-1.64-1.44H10.62A1.65,1.65,0,0,1,9,19.23H7.29a1.65,1.65,0,0,1-1.65-1.65V13.75a2.29,2.29,0,0,1,.68-1.63L6.41,12l.17-.16L7,10.24A2.34,2.34,0,0,1,9.27,8.48h5.58a2.35,2.35,0,0,1,2.28,1.76l.43,1.69.26.29h0a2.29,2.29,0,0,1,.54,1.48v3.88A1.64,1.64,0,0,1,16.72,19.23Zm-1.36-2h1V13.7a.24.24,0,0,0-.07-.18l-.4-.47a1.1,1.1,0,0,1-.21-.4l-.49-1.92a.37.37,0,0,0-.36-.27H9.27a.36.36,0,0,0-.35.27l-.49,1.91a.94.94,0,0,1-.28.47l-.43.42a.31.31,0,0,0-.1.22v3.49h1V16.8a1,1,0,0,1,1-1h4.72a1,1,0,0,1,1,1Z"/></g></svg>