<svg xmlns="http://www.w3.org/2000/svg" width="24" height="24" viewBox="0 0 24 24"><title>icons</title><g id="Layer_2" data-name="Layer 2"><path d="M21.21,13.2,17,11.11a1,1,0,1,0-.89,1.77l2.41,1.21-6.37,3.18L5.8,14.09l2.42-1.21a1,1,0,1,0-.89-1.78L3.14,13.2a1,1,0,0,0-.55.89,1,1,0,0,0,.55.89l8.59,4.29a1,1,0,0,0,.44.1,1,1,0,0,0,.45-.1L21.21,15a1,1,0,0,0,.54-.89A1,1,0,0,0,21.21,13.2Z"/><path d="M12.34,10.61c.56,0,1,.33,1,.72s-.47.73-1,.73a1,1,0,0,1-1-.55.81.81,0,1,0-1.52.58,2.49,2.49,0,0,0,1.7,1.48v.58a.82.82,0,0,0,.81.82.82.82,0,0,0,.82-.82v-.58A2.39,2.39,0,0,0,15,11.33,2.52,2.52,0,0,0,12.34,9c-.55,0-1-.33-1-.73s.47-.72,1-.72a1,1,0,0,1,1,.6.81.81,0,0,0,1,.59.82.82,0,0,0,.58-1A2.47,2.47,0,0,0,13.16,6V5.43a.82.82,0,0,0-.82-.81.81.81,0,0,0-.81.81V6A2.41,2.41,0,0,0,9.69,8.25,2.52,2.52,0,0,0,12.34,10.61Z"/></g></svg>