<svg id="Layer_1" data-name="Layer 1" xmlns="http://www.w3.org/2000/svg" width="800" height="800" viewBox="0 0 800 800"><defs><style>.cls-1{fill:#333;}.cls-2{fill:#fff;stroke:#fff;stroke-miterlimit:10;stroke-width:2.83px;}</style></defs><title>logo-circle</title><circle class="cls-1" cx="400" cy="400" r="390"/><path class="cls-2" d="M214.38,459.32V338.72h19.89v120.6Z"/><path class="cls-2" d="M277.64,460.28q-12.94,0-21.2-7.19t-8.27-18.77q0-11.65,8.66-18.21t25.2-7.58l22.69-1.36v-6.39q0-6.87-4.43-10.58t-12.51-3.72a19.2,19.2,0,0,0-11.26,3.19,13.23,13.23,0,0,0-5.59,8.55H252.56q.41-12,10.42-19.69t25.44-7.7q16.38,0,26.16,7.83t9.78,20.84v59.82H305.27V445.26h-.47a26,26,0,0,1-11,11A33.15,33.15,0,0,1,277.64,460.28ZM283.47,445q9.11,0,15.18-5.11a16.29,16.29,0,0,0,6.07-13v-6.62l-20,1.27q-16.62,1.13-16.62,12a9.91,9.91,0,0,0,4.2,8.39Q276.53,445,283.47,445Z"/><path class="cls-2" d="M417.49,402.93H398.72a18.39,18.39,0,0,0-6.23-11.5c-3.4-2.93-7.83-4.39-13.26-4.39a18.78,18.78,0,0,0-15.73,7.75q-5.91,7.74-5.91,20.84,0,13.42,5.91,21.09a19,19,0,0,0,15.82,7.66c5.32,0,9.67-1.32,13.05-4s5.52-6.47,6.43-11.42h18.77q-1.27,14.37-11.7,23t-26.71,8.63q-19.1,0-30.43-12.1t-11.34-32.87q0-20.44,11.34-32.62T379,370.83q16.69,0,27.08,9.1A32.72,32.72,0,0,1,417.49,402.93Z"/><path class="cls-2" d="M487.7,433.36h18.68q-1.9,12.15-12.53,19.69T468,460.6q-19.34,0-30.55-12T426.2,416q0-20.61,11.14-32.9t29.91-12.3q18.38,0,29.15,11.66T507.19,414v6.55H446.08v1.2q0,10.55,6.15,17t16.14,6.43A23.44,23.44,0,0,0,480.75,442,15.41,15.41,0,0,0,487.7,433.36Zm-20.45-47a19.78,19.78,0,0,0-14.53,5.79q-5.84,5.79-6.48,15.14h41.37q-.32-9.42-5.9-15.18T467.25,386.32Z"/><path class="cls-2" d="M634.66,372V422.1q0,9.66-5.63,15.58t-14.74,5.91q-8.87,0-13.78-5.08T595.6,424V372H545.76v-6.94q0-5.19,2.36-7.51t7.7-2.32a29.13,29.13,0,0,1,6.39.64V341.43a53.59,53.59,0,0,0-9.66-.79q-14.06,0-20.25,5.55t-6.19,18V372h-11.9v15.42h11.9v71.88H546V387.44h29.71V428q0,15,8.55,23.73t22.92,8.7a33.15,33.15,0,0,0,17.05-4.19A26.16,26.16,0,0,0,635,444.07h.48v15.25h19.09V372Z"/><path class="cls-2" d="M672.11,459.32V338.72H692v120.6Z"/><path class="cls-2" d="M154.14,338.72H108.47V456.79a2,2,0,0,0,2.13,2.13h15.76a2,2,0,0,0,2.13-2.13v-31h25.65c1.11,0,2.22-.05,3.33-.09h.05C184.24,424.39,202,407.3,202,382.35,202,356.25,182.73,338.72,154.14,338.72Zm-1.68,69.11h-24V356.7h24c13.45,0,29.51,4.44,29.51,25.65C182,403.39,165.91,407.83,152.46,407.83Z"/></svg>